<?xml version="1.0" encoding="UTF-8"?>
<svg id="Layer_1" xmlns="http://www.w3.org/2000/svg" version="1.1" viewBox="0 0 280 280">
  <!-- Generator: Adobe Illustrator 29.5.1, SVG Export Plug-In . SVG Version: 2.1.0 Build 141)  -->
  <defs>
    <style>
      .st0 {
        fill: #f8f4e5;
      }

      .st1 {
        fill: #23834c;
      }
    </style>
  </defs>
  <rect class="st1" x="32.23" y="103.65" width="215.54" height="64.8" rx="32.4" ry="32.4"/>
  <g>
    <path class="st0" d="M102.35,115.95v7.09h-7.64v8.3h6.73v7.09h-6.73v8.6h7.74v7.09h-15.28v-38.16h15.18Z"/>
    <path class="st0" d="M113.22,132.5h.1c.96-2.43,3.14-4.45,5.92-4.45,5.26,0,4.81,5.87,4.81,9.57v16.5h-7.14v-14.02c0-1.32.51-4.86-1.77-4.86-1.62,0-1.92,1.67-1.92,2.94v15.94h-7.14v-25.56h7.14v3.95Z"/>
    <path class="st0" d="M133.62,128.55l3.39,14.02.05.4h.1l.56-2.63.25-1.06,2.53-10.73h7.39l-7.39,25.56h-6.63l-7.34-25.56h7.08Z"/>
    <path class="st0" d="M149.41,120.91c0-2.58,2.07-4.5,4.66-4.5s4.4,2.18,4.4,4.61-2.07,4.5-4.55,4.5-4.5-2.07-4.5-4.61ZM157.5,128.55v25.56h-7.14v-25.56h7.14Z"/>
    <path class="st0" d="M172.28,151.22h-.1c-.96,1.92-2.43,3.39-4.71,3.39-5.77,0-6.93-9.21-6.93-13.31,0-4.4.86-13.26,6.83-13.26,2.38,0,4,1.57,4.81,3.64h.1v-3.14h7.14v25.56h-7.14v-2.88ZM172.79,141.2c0-1.42-.15-6.83-2.58-6.83s-2.53,5.36-2.53,6.83c0,1.62.1,6.88,2.63,6.88,2.28,0,2.48-5.52,2.48-6.88Z"/>
    <path class="st0" d="M190.04,128.55v3.09h.1c1.32-2.23,3.04-3.8,5.82-4.05v6.93c-.35-.05-.71-.1-1.11-.1-4.76,0-4.81,3.14-4.81,6.93v12.75h-7.14v-25.56h7.14Z"/>
  </g>
</svg>