<svg id="Capa_1" data-name="Capa 1" xmlns="http://www.w3.org/2000/svg" xmlns:xlink="http://www.w3.org/1999/xlink" viewBox="0 0 711 286"><defs><style>.cls-1{fill:none;}.cls-2,.cls-23{fill:#fff;}.cls-2{opacity:0.6;isolation:isolate;}.cls-3{fill:url(#linear-gradient);}.cls-4{fill:#94d451;}.cls-5{opacity:0.3;}.cls-6{fill:#606060;}.cls-7{fill:#502c1a;}.cls-8{clip-path:url(#clip-path);}.cls-9{fill:url(#linear-gradient-2);}.cls-10{clip-path:url(#clip-path-2);}.cls-11{fill:url(#linear-gradient-3);}.cls-12{fill:url(#linear-gradient-4);}.cls-13{fill:url(#linear-gradient-5);}.cls-14{fill:url(#linear-gradient-6);}.cls-15{clip-path:url(#clip-path-3);}.cls-16{clip-path:url(#clip-path-4);}.cls-17{fill:url(#radial-gradient);}.cls-18{fill:#fad974;}.cls-19{fill:#f5c33f;}.cls-20{clip-path:url(#clip-path-5);}.cls-21{clip-path:url(#clip-path-6);}.cls-22{fill:url(#radial-gradient-2);}.cls-24{clip-path:url(#clip-path-7);}.cls-25{clip-path:url(#clip-path-8);}.cls-26{fill:url(#radial-gradient-3);}.cls-27{clip-path:url(#clip-path-9);}.cls-28{clip-path:url(#clip-path-10);}.cls-29{fill:url(#radial-gradient-4);}</style><linearGradient id="linear-gradient" y1="247.5" x2="711" y2="247.5" gradientTransform="matrix(1, 0, 0, -1, 0, 288)" gradientUnits="userSpaceOnUse"><stop offset="0" stop-color="#ffeb6c"/><stop offset="1" stop-color="#ffdc00"/></linearGradient><clipPath id="clip-path"><polygon class="cls-1" points="156.45 234.76 175.15 267.42 181.86 247.69 201.75 252.18 183.05 219.53 156.45 234.76"/></clipPath><linearGradient id="linear-gradient-2" x1="-1341.48" y1="-1130.86" x2="-1341.09" y2="-1130.86" gradientTransform="matrix(0, -108.16, -108.16, 0, -122134.58, -144832.55)" gradientUnits="userSpaceOnUse"><stop offset="0" stop-color="#f8d56c"/><stop offset="1" stop-color="#e6990b"/></linearGradient><clipPath id="clip-path-2"><polygon class="cls-1" points="74.18 251.72 94.07 247.23 100.78 266.96 119.48 234.3 92.88 219.07 74.18 251.72"/></clipPath><linearGradient id="linear-gradient-3" x1="-1333.26" y1="-1121.06" x2="-1332.87" y2="-1121.06" gradientTransform="translate(144284.67 121497.2) scale(108.16)" xlink:href="#linear-gradient-2"/><linearGradient id="linear-gradient-4" x1="69.9" y1="115.4" x2="205.1" y2="115.4" gradientTransform="matrix(1, 0, 0, -1, 0, 288)" gradientUnits="userSpaceOnUse"><stop offset="0" stop-color="#f0b431"/><stop offset="0.5" stop-color="#f9d66d"/><stop offset="1" stop-color="#fad974"/></linearGradient><linearGradient id="linear-gradient-5" x1="84.18" y1="115.4" x2="190.82" y2="115.4" gradientTransform="matrix(1, 0, 0, -1, 0, 288)" gradientUnits="userSpaceOnUse"><stop offset="0" stop-color="#e89e12"/><stop offset="1" stop-color="#f4bc48"/></linearGradient><linearGradient id="linear-gradient-6" x1="170.98" y1="155.24" x2="103.23" y2="74.62" gradientTransform="matrix(1, 0, 0, -1, 0, 288)" gradientUnits="userSpaceOnUse"><stop offset="0" stop-color="#edb036"/><stop offset="0.5" stop-color="#fbd589"/><stop offset="1" stop-color="#eaa724"/></linearGradient><clipPath id="clip-path-3"><rect class="cls-1" x="92.58" y="131.39" width="85.63" height="85.63"/></clipPath><clipPath id="clip-path-4"><path class="cls-1" d="M178.2,174.2a42.81,42.81,0,1,1-42.81-42.81h0A42.83,42.83,0,0,1,178.2,174.2"/></clipPath><radialGradient id="radial-gradient" cx="-1335.8" cy="-1127.25" r="0.39" gradientTransform="translate(145793.82 123097.84) scale(109.04)" gradientUnits="userSpaceOnUse"><stop offset="0" stop-color="#cb5114"/><stop offset="1" stop-color="#f4bc48"/></radialGradient><clipPath id="clip-path-5"><rect class="cls-1" x="97.58" y="135.47" width="10.04" height="10.04"/></clipPath><clipPath id="clip-path-6"><path class="cls-1" d="M107.62,140.49a5,5,0,1,1-5-5,5,5,0,0,1,5,5"/></clipPath><radialGradient id="radial-gradient-2" cx="-1284.29" cy="-1155.83" r="0.39" gradientTransform="translate(16526.99 14915.42) scale(12.79)" gradientUnits="userSpaceOnUse"><stop offset="0" stop-color="#fff"/><stop offset="1" stop-color="#f4bc48"/></radialGradient><clipPath id="clip-path-7"><rect class="cls-1" x="144.67" y="222.21" width="6.87" height="6.87"/></clipPath><clipPath id="clip-path-8"><path class="cls-1" d="M151.54,225.65a3.44,3.44,0,1,1-3.44-3.44,3.44,3.44,0,0,1,3.44,3.44h0"/></clipPath><radialGradient id="radial-gradient-3" cx="-1265.64" cy="-1186.01" r="0.39" gradientTransform="translate(11224.57 10608.78) scale(8.75)" xlink:href="#radial-gradient-2"/><clipPath id="clip-path-9"><rect class="cls-1" x="164.51" y="128.27" width="14.06" height="14.06"/></clipPath><clipPath id="clip-path-10"><path class="cls-1" d="M178.57,135.29a7,7,0,1,1-7-7,7,7,0,0,1,7,7"/></clipPath><radialGradient id="radial-gradient-4" cx="-1306.76" cy="-1145.95" r="0.39" gradientTransform="translate(23565 20652.76) scale(17.9)" xlink:href="#radial-gradient-2"/></defs><rect class="cls-2" y="70" width="711" height="216"/><path class="cls-3" d="M45.5,0h620A45.5,45.5,0,0,1,711,45.5V81H0V45.5A45.5,45.5,0,0,1,45.5,0Z"/><path class="cls-4" d="M271.32,248.39l16.59-43.88H272.08v-8.67H300.8l-19.08,52.55Z"/><path class="cls-4" d="M310.77,219.85v-.44a7.64,7.64,0,0,1-4.95-3.65,14.49,14.49,0,0,1-1.71-7.47q0-6.3,3.27-9.71c2.19-2.28,5.3-3.42,9.36-3.42s7.14,1.14,9.32,3.42,3.28,5.51,3.28,9.71a14.34,14.34,0,0,1-1.73,7.45,7.66,7.66,0,0,1-4.93,3.67v.44a9.82,9.82,0,0,1,6,4.64,17.83,17.83,0,0,1,2.1,9.14q0,7.23-3.74,11.32T316.74,249q-6.62,0-10.36-4.08t-3.75-11.32a17.84,17.84,0,0,1,2.09-9.14A9.7,9.7,0,0,1,310.77,219.85Zm6,5.11a3.5,3.5,0,0,0-3.22,1.8,10.8,10.8,0,0,0-1.06,5.39,12.27,12.27,0,0,0,1,5.8,3.73,3.73,0,0,0,6.44.05,11.58,11.58,0,0,0,1.05-5.59,11.7,11.7,0,0,0-1.05-5.62,3.43,3.43,0,0,0-3.19-1.79Zm-.07-21.6a3,3,0,0,0-2.65,1.3,7.65,7.65,0,0,0-.84,4.07,9.79,9.79,0,0,0,.83,4.71,3.35,3.35,0,0,0,4.67.77,3.16,3.16,0,0,0,.74-.72,8.58,8.58,0,0,0,.85-4.4,8.27,8.27,0,0,0-.89-4.34,3,3,0,0,0-2.74-1.39Z"/><path class="cls-4" d="M362.52,227.58c.24-.64.78-1.84,1.62-3.59.19-.39.33-.68.43-.87l5-10h11l-8.82,14.68,9.5,20.63H370.4l-7.88-19.26v19.26h-9.75V192.6h9.75Z"/><path class="cls-4" d="M400.31,213.08h9.43v32.64q0,11.34-3,15.15t-10.85,3.82q-6.19,0-9.61-3.22t-3.42-9v-.54h8.24a5.46,5.46,0,0,0,1.17,3.83,4.46,4.46,0,0,0,3.48,1.28,4.24,4.24,0,0,0,3.54-1.31c.69-.88,1-2.43,1-4.66v-7.31a13.46,13.46,0,0,1-3.62,3.75,7.29,7.29,0,0,1-4.05,1.26,8.46,8.46,0,0,1-7.72-4.65q-2.68-4.63-2.68-13.42,0-8.61,2.74-13.28a8.52,8.52,0,0,1,7.73-4.68,6.86,6.86,0,0,1,4.27,1.42,12,12,0,0,1,3.33,4.34Zm0,17.09q0-5.14-1-7.35A3.44,3.44,0,0,0,396,220.6a3.21,3.21,0,0,0-3.07,2.27q-1,2.26-1,7.38a20.81,20.81,0,0,0,1.06,7.59c.71,1.68,1.79,2.52,3.23,2.52a3.24,3.24,0,0,0,3.14-2.32Q400.31,235.72,400.31,230.17Z"/><g class="cls-5"><path class="cls-6" d="M438,247.58a37.6,37.6,0,0,1-3.48-9.1,42.77,42.77,0,0,1-1.17-10.14,45,45,0,0,1,1.16-10.41,34.59,34.59,0,0,1,3.49-9l3.19,1a37.32,37.32,0,0,0-3.11,8.64,44.34,44.34,0,0,0-1,9.75,45.43,45.43,0,0,0,1,10,31.11,31.11,0,0,0,3.12,8.29Z"/><path class="cls-6" d="M462.56,238.87h-4.24v-2.4a7,7,0,0,1-6.11,3.16A7.62,7.62,0,0,1,446,237a11.09,11.09,0,0,1-2.26-7.36,10.72,10.72,0,0,1,2.31-7.16,8.13,8.13,0,0,1,9.89-1.77,5.52,5.52,0,0,1,2.35,2.72v-3h4.24Zm-4.12-9.32a6.76,6.76,0,0,0-1.34-4.47,4.57,4.57,0,0,0-3.74-1.6,4.64,4.64,0,0,0-3.78,1.65,7,7,0,0,0-1.37,4.58,6.86,6.86,0,0,0,1.33,4.55,5,5,0,0,0,7.07.28,5.33,5.33,0,0,0,.4-.42,7,7,0,0,0,1.43-4.57Z"/><path class="cls-6" d="M468.62,238.87V208.6h4.24v30.27Z"/><path class="cls-6" d="M495.22,238.87H491V220.35h4v3a8.27,8.27,0,0,1,2.88-2.82,7.81,7.81,0,0,1,3.79-.89,6.6,6.6,0,0,1,3.6.91,5.63,5.63,0,0,1,2.17,2.76,10,10,0,0,1,3.11-2.79,7.91,7.91,0,0,1,3.76-.88,7.36,7.36,0,0,1,3.2.67,4.84,4.84,0,0,1,2.13,2,4.37,4.37,0,0,1,.52,1.44,13,13,0,0,1,.17,2.41v12.71h-4.24v-9.51c0-2.49-.26-4.13-.79-4.91a3.14,3.14,0,0,0-2.82-1.19,4,4,0,0,0-3.57,1.6q-1.07,1.59-1.06,5.57v8.44h-4.28v-9.51a9.79,9.79,0,0,0-.83-4.77,3.11,3.11,0,0,0-2.86-1.33,4.69,4.69,0,0,0-2.29.57,4.12,4.12,0,0,0-2.18,3.15,23.38,23.38,0,0,0-.16,3.45Z"/><path class="cls-6" d="M543.81,230.24H529a6.22,6.22,0,0,0,1.54,4,4.86,4.86,0,0,0,3.69,1.45,6.31,6.31,0,0,0,3.42-.85,7.12,7.12,0,0,0,2.38-2.78l3.58,2a10.68,10.68,0,0,1-3.87,4.16,10.36,10.36,0,0,1-5.41,1.37,9.41,9.41,0,0,1-7.09-2.71,10,10,0,0,1-2.64-7.25,9.86,9.86,0,0,1,2.73-7.16,10.45,10.45,0,0,1,14-.24,9.75,9.75,0,0,1,2.5,7.17Zm-4.39-2.85a4.48,4.48,0,0,0-1.53-3,5.25,5.25,0,0,0-3.47-1,5.19,5.19,0,0,0-3.36,1,5.45,5.45,0,0,0-1.78,3.07Z"/><path class="cls-6" d="M546.1,235.51l3.51-1.91a3.73,3.73,0,0,0,1.45,2.11,4.7,4.7,0,0,0,2.71.72,3.46,3.46,0,0,0,2.24-.66,2.15,2.15,0,0,0,.81-1.78c0-1-1-1.87-2.89-2.58-.65-.24-1.15-.43-1.5-.59a11.91,11.91,0,0,1-4.15-2.5,4.35,4.35,0,0,1-1.19-3.08,4.89,4.89,0,0,1,1.95-4,9.21,9.21,0,0,1,8.83-.75,4.88,4.88,0,0,1,2.23,2.26l-3,2.07a2.8,2.8,0,0,0-1.16-1.4,3.6,3.6,0,0,0-1.92-.52,3.11,3.11,0,0,0-2,.58,1.86,1.86,0,0,0-.73,1.53c0,1,1.1,1.85,3.28,2.64.69.25,1.23.45,1.61.61a9.41,9.41,0,0,1,3.66,2.29,4.7,4.7,0,0,1,1.1,3.19,5.21,5.21,0,0,1-2,4.35,8.79,8.79,0,0,1-5.55,1.57,9.17,9.17,0,0,1-4.51-1A6.92,6.92,0,0,1,546.1,235.51Z"/><path class="cls-6" d="M566.37,247.58l-3.16-1a31.43,31.43,0,0,0,3.11-8.29,45.43,45.43,0,0,0,1-10,44.34,44.34,0,0,0-1-9.75,36.86,36.86,0,0,0-3.11-8.64l3.16-1a34.31,34.31,0,0,1,3.52,9A44.69,44.69,0,0,1,571,228.34a42.76,42.76,0,0,1-1.16,10.14A37.57,37.57,0,0,1,566.37,247.58Z"/></g><path class="cls-7" d="M271.77,164.85V122.5h8.61v42.35Z"/><path class="cls-7" d="M300.16,164.85V147.62a6.66,6.66,0,0,0-.58-3.35,2.14,2.14,0,0,0-2-.91,2.38,2.38,0,0,0-2.18,1.07,7.07,7.07,0,0,0-.66,3.54v16.88h-7.86V136.4h7.31v4.41a10.94,10.94,0,0,1,3.46-3.54,8.37,8.37,0,0,1,4.37-1.16q3.33,0,4.64,1.88t1.31,7.43v19.43Z"/><path class="cls-7" d="M311.45,162.42l3.25-5.78a15.18,15.18,0,0,0,2.52,1.41,5,5,0,0,0,1.94.45,2,2,0,0,0,1.5-.58,2,2,0,0,0,.59-1.45c0-1-1-2.11-2.9-3.31l-1.16-.72a13.59,13.59,0,0,1-3.92-3.67,7.74,7.74,0,0,1-1.13-4.22,8.24,8.24,0,0,1,2.5-6.34,9.43,9.43,0,0,1,6.73-2.33,13.23,13.23,0,0,1,4,.59,13.65,13.65,0,0,1,3.73,1.84l-3.34,5.63a9.94,9.94,0,0,0-2.1-1.42,4.23,4.23,0,0,0-1.81-.47,2.19,2.19,0,0,0-1.55.53,1.7,1.7,0,0,0-.6,1.36c0,.83.9,1.8,2.7,2.9.56.35,1,.63,1.31.84a15.1,15.1,0,0,1,4.2,4,8.1,8.1,0,0,1,1.19,4.42,8.84,8.84,0,0,1-2.73,6.73,9.87,9.87,0,0,1-7.13,2.59,11.64,11.64,0,0,1-4.09-.73A12.81,12.81,0,0,1,311.45,162.42Z"/><path class="cls-7" d="M333.06,128.8a4.46,4.46,0,0,1,1.29-3.26,4.53,4.53,0,0,1,6.41,0,4.45,4.45,0,0,1,1.32,3.25,4.24,4.24,0,0,1-1.31,3.15,4.33,4.33,0,0,1-3.19,1.29,4.39,4.39,0,0,1-3.23-1.27A4.26,4.26,0,0,1,333.06,128.8Zm.58,36V136.4h7.86v28.45Z"/><path class="cls-7" d="M360.9,136.4h7.6v26.31q0,9.14-2.42,12.21c-1.61,2.05-4.53,3.07-8.74,3.07-3.33,0-5.92-.86-7.75-2.59a9.52,9.52,0,0,1-2.75-7.27v-.43h6.64a4.48,4.48,0,0,0,.94,3.09,3.64,3.64,0,0,0,2.8,1,3.44,3.44,0,0,0,2.86-1.06,6.33,6.33,0,0,0,.82-3.76v-5.89a10.8,10.8,0,0,1-2.91,3,5.86,5.86,0,0,1-3.27,1,6.82,6.82,0,0,1-6.22-3.74q-2.16-3.74-2.16-10.82,0-6.93,2.21-10.7a6.88,6.88,0,0,1,6.23-3.77,5.62,5.62,0,0,1,3.44,1.14,9.6,9.6,0,0,1,2.68,3.5Zm0,13.78a15.57,15.57,0,0,0-.81-5.94,2.76,2.76,0,0,0-2.7-1.78,2.57,2.57,0,0,0-2.48,1.83,16.84,16.84,0,0,0-.77,5.94,16.51,16.51,0,0,0,.86,6.12,2.78,2.78,0,0,0,2.6,2,2.61,2.61,0,0,0,2.53-1.87A17.92,17.92,0,0,0,360.9,150.18Z"/><path class="cls-7" d="M387.53,164.85V147.62a6.66,6.66,0,0,0-.58-3.35,2.14,2.14,0,0,0-2-.91,2.38,2.38,0,0,0-2.18,1.07,7.07,7.07,0,0,0-.66,3.54v16.88h-7.87V136.4h7.31v4.41a11,11,0,0,1,3.47-3.54,8.37,8.37,0,0,1,4.37-1.16q3.33,0,4.64,1.88c.87,1.25,1.31,3.73,1.3,7.43v19.43Z"/><path class="cls-7" d="M400.53,128.8a4.46,4.46,0,0,1,1.29-3.26,4.53,4.53,0,0,1,6.41,0,4.45,4.45,0,0,1,1.32,3.25,4.24,4.24,0,0,1-1.31,3.15,4.33,4.33,0,0,1-3.19,1.29,4.39,4.39,0,0,1-3.23-1.27A4.26,4.26,0,0,1,400.53,128.8Zm.58,36V136.4H409v28.45Z"/><path class="cls-7" d="M436,164.85h-7.4v-4.2a10.52,10.52,0,0,1-2.85,3.54,6,6,0,0,1-3.56,1.19A6.8,6.8,0,0,1,416,161.6q-2.16-3.76-2.16-10.93,0-7,2.22-10.76a6.89,6.89,0,0,1,6.22-3.8,5.74,5.74,0,0,1,3.44,1.13,11,11,0,0,1,2.91,3.51V136.4H436Zm-7.37-14.67a13.9,13.9,0,0,0-.91-5.78,3,3,0,0,0-2.83-1.88,2.59,2.59,0,0,0-2.48,1.81,16.59,16.59,0,0,0-.77,5.9,16.3,16.3,0,0,0,.86,6.08,2.75,2.75,0,0,0,5.29.07,16.72,16.72,0,0,0,.81-6.2Z"/><path class="cls-7" d="M455.38,164.85V122.5h17.81v7.84h-9.63v8.55h8.73v7.78h-8.73v9.92h9.63v8.26Z"/><path class="cls-7" d="M476.35,162.42l3.25-5.78a15.59,15.59,0,0,0,2.52,1.41,5,5,0,0,0,1.94.45,2,2,0,0,0,1.5-.58,2,2,0,0,0,.59-1.45c0-1-1-2.11-2.9-3.31l-1.16-.72a13.68,13.68,0,0,1-3.91-3.67,7.65,7.65,0,0,1-1.13-4.22,8.28,8.28,0,0,1,2.49-6.34,9.43,9.43,0,0,1,6.73-2.33,13.19,13.19,0,0,1,7.77,2.43l-3.33,5.63a10,10,0,0,0-2.11-1.42,4.23,4.23,0,0,0-1.81-.47,2.3,2.3,0,0,0-1.55.53,1.7,1.7,0,0,0-.6,1.36c0,.83.9,1.8,2.7,2.9.56.35,1,.63,1.31.84a15.1,15.1,0,0,1,4.2,4A8,8,0,0,1,494,156.1a8.83,8.83,0,0,1-2.72,6.73,9.89,9.89,0,0,1-7.14,2.59,11.64,11.64,0,0,1-4.09-.73A13,13,0,0,1,476.35,162.42Z"/><path class="cls-7" d="M498.42,176.31V136.4h7.37v4.35a11,11,0,0,1,2.93-3.51,5.77,5.77,0,0,1,3.42-1.13,6.81,6.81,0,0,1,6.21,3.8q2.17,3.79,2.18,10.88t-2.15,10.87c-1.43,2.57-3.43,3.85-6,3.86a6,6,0,0,1-3.69-1.23,9.15,9.15,0,0,1-2.69-3.58v15.6Zm11.05-33.79a2.79,2.79,0,0,0-2.66,1.8,14.62,14.62,0,0,0-.84,5.86,17.78,17.78,0,0,0,.79,6.32,2.69,2.69,0,0,0,2.6,1.88,2.72,2.72,0,0,0,2.56-2,17.53,17.53,0,0,0,.83-6.31,15.42,15.42,0,0,0-.78-5.76,2.6,2.6,0,0,0-2.5-1.79Z"/><path class="cls-7" d="M531.4,152.73V153a8.91,8.91,0,0,0,1.13,4.9,3.65,3.65,0,0,0,3.22,1.71,3.39,3.39,0,0,0,2.28-.81,5.5,5.5,0,0,0,1.52-2.46h6.76a11.57,11.57,0,0,1-3.84,6.67,10.92,10.92,0,0,1-7.15,2.41,10.2,10.2,0,0,1-8.44-4q-3.14-4-3.13-10.73t3.13-10.82a10.18,10.18,0,0,1,8.44-4q5.63,0,8.5,3.91t2.87,11.58v1.36Zm8.39-4.53a8.57,8.57,0,0,0-1.12-4.59,3.9,3.9,0,0,0-5.46-.68,4,4,0,0,0-.73.75,8,8,0,0,0-1.08,4.55Z"/><path class="cls-7" d="M565.63,144.49a7.39,7.39,0,0,0-1.8-1,5,5,0,0,0-1.74-.32,4.12,4.12,0,0,0-3.59,2,11.35,11.35,0,0,0,0,10.71,4.66,4.66,0,0,0,5.55,1.54,5.3,5.3,0,0,0,1.57-1.12v7.48a9.14,9.14,0,0,1-2.57,1.25,10,10,0,0,1-2.82.41,9.38,9.38,0,0,1-7.94-4q-2.94-4-2.94-10.82t3-10.73a9.37,9.37,0,0,1,7.92-4,14.16,14.16,0,0,1,2.75.27,14.44,14.44,0,0,1,2.64.83Z"/><path class="cls-7" d="M569.2,128.8a4.46,4.46,0,0,1,1.29-3.26,4.53,4.53,0,0,1,6.41,0,4.45,4.45,0,0,1,1.32,3.25,4.24,4.24,0,0,1-1.31,3.15,4.33,4.33,0,0,1-3.19,1.29,4.38,4.38,0,0,1-3.23-1.27A4.26,4.26,0,0,1,569.2,128.8Zm.58,36V136.4h7.86v28.45Z"/><path class="cls-7" d="M604.64,164.85h-7.36v-4.2a10.45,10.45,0,0,1-2.86,3.54,5.9,5.9,0,0,1-3.55,1.19,6.82,6.82,0,0,1-6.23-3.78q-2.16-3.76-2.16-10.93,0-7,2.22-10.76a6.89,6.89,0,0,1,6.22-3.8,5.68,5.68,0,0,1,3.44,1.13,11,11,0,0,1,2.92,3.51V136.4h7.36Zm-7.36-14.67a13.91,13.91,0,0,0-.92-5.78,3,3,0,0,0-2.82-1.88,2.59,2.59,0,0,0-2.49,1.81,16.36,16.36,0,0,0-.76,5.9,16.53,16.53,0,0,0,.85,6.08,2.78,2.78,0,0,0,2.6,2,2.82,2.82,0,0,0,2.7-2,16.76,16.76,0,0,0,.84-6.13Z"/><path class="cls-7" d="M610.71,164.85v-45h7.86v45Z"/><path class="cls-7" d="M256.34,65.35,260.48,23h10.88l2.21,16.16c.32,2.46.6,4.81.82,7.06s.4,4.45.54,6.58c.35-3.74.64-6.68.88-8.84s.44-3.75.6-4.8L279.13,23H289.9l3.56,42.35h-8.55L284,45.69l-.09-2.09q-.37-7.71-.38-12.65L278,65.35h-6.12l-5.19-34.63q0,4.32-.52,12.36c-.08,1.22-.14,2.13-.18,2.72l-1.3,19.55Z"/><path class="cls-7" d="M298.05,65.35V23h17.81v7.84h-9.63v8.55H315v7.78h-8.73v9.92h9.63v8.26Z"/><path class="cls-7" d="M321.57,65.35V23h8.56l8.56,22.8c.25.74.6,1.87,1.05,3.38s1,3.31,1.56,5.36c-.45-3-.79-5.75-1-8.26s-.32-4.84-.32-7V23h7.83V65.35H340l-9.28-23.69c-.16-.35-.56-1.79-1.22-4.33-.31-1.16-.55-2.06-.73-2.72.2,1.64.34,3.49.44,5.55s.14,4.52.14,7.39v17.8Z"/><path class="cls-7" d="M353.19,63.88V55.09a13.12,13.12,0,0,0,3.13,2.08,7.39,7.39,0,0,0,3.1.7,4.79,4.79,0,0,0,3.38-1.13,3.93,3.93,0,0,0,1.2-3.07c0-1.61-1.12-3.35-3.34-5.23-.62-.52-1.08-.92-1.39-1.21A24.05,24.05,0,0,1,354,41a13.41,13.41,0,0,1-1.45-6.28,12.66,12.66,0,0,1,3.09-8.86,10.44,10.44,0,0,1,8.08-3.38,12.13,12.13,0,0,1,3.49.51,17.82,17.82,0,0,1,3.64,1.58V32a29.26,29.26,0,0,0-3.46-1.48,7.08,7.08,0,0,0-2.19-.41A4,4,0,0,0,361,33.9a2.54,2.54,0,0,0,0,.39,5.6,5.6,0,0,0,.87,3A22.14,22.14,0,0,0,366,41.48c2.84,2.44,4.67,4.46,5.48,6.08a12.78,12.78,0,0,1,1.22,5.84q0,5.77-3.26,9.13a11.86,11.86,0,0,1-8.89,3.35,15,15,0,0,1-4-.5A11.8,11.8,0,0,1,353.19,63.88Z"/><path class="cls-7" d="M403.49,23V49.6a57.12,57.12,0,0,1-.29,6.92,11.45,11.45,0,0,1-1,3.38,9.87,9.87,0,0,1-4.45,4.51,20,20,0,0,1-15,0,9.64,9.64,0,0,1-4.45-4.51,10.77,10.77,0,0,1-1-3.42,56.48,56.48,0,0,1-.3-6.88V23h8.44V50.27c0,3.46.36,5.69,1.06,6.69s2,1.49,3.76,1.49,3.1-.51,3.78-1.52,1-3.24,1-6.66V23Z"/><path class="cls-7" d="M406.33,65.35,416.19,23H425l9.39,42.35H426l-1.42-7.42h-8.5l-1.3,7.42Zm11.28-14h5.63q-.87-4.43-1.57-9.29c-.47-3.24-.87-6.66-1.22-10.26-.42,3.18-.87,6.39-1.34,9.65s-1,6.55-1.5,9.89Z"/><path class="cls-7" d="M437.51,65.35V23h8.35V57.09h9.63v8.26Z"/><g class="cls-8"><rect class="cls-9" x="146.35" y="210.57" width="65.49" height="65.81" transform="matrix(0.77, -0.64, 0.64, 0.77, -114.6, 172.08)"/></g><g class="cls-10"><rect class="cls-11" x="63.93" y="210.27" width="65.81" height="65.49" transform="translate(-151.57 160.99) rotate(-50)"/></g><circle class="cls-12" cx="137.5" cy="172.6" r="67.6"/><circle class="cls-13" cx="137.5" cy="172.6" r="53.32"/><circle class="cls-14" cx="137.5" cy="172.6" r="49.12"/><g class="cls-15"><g class="cls-16"><rect class="cls-17" x="92.58" y="131.39" width="85.63" height="85.63"/></g></g><polygon class="cls-18" points="128.12 163.83 104.44 163.83 135.44 173.9 128.12 163.83"/><polygon class="cls-19" points="135.44 173.9 135.44 173.9 154.6 200.27 147.28 177.75 135.44 173.9"/><polygon class="cls-19" points="116.28 200.27 135.44 186.35 135.44 173.9 116.28 200.27"/><polygon class="cls-19" points="166.44 163.83 142.76 163.83 135.44 173.9 166.44 163.83"/><polygon class="cls-18" points="135.44 186.35 154.6 200.27 135.44 173.9 135.44 186.35"/><polygon class="cls-18" points="135.44 173.9 123.6 177.75 116.28 200.27 135.44 173.9"/><polygon class="cls-19" points="128.12 163.83 135.44 173.9 135.44 141.31 128.12 163.83"/><polygon class="cls-18" points="135.44 141.31 135.44 173.9 142.76 163.83 135.44 141.31"/><polygon class="cls-19" points="135.44 173.9 104.44 163.83 123.6 177.75 135.44 173.9"/><polygon class="cls-18" points="135.44 173.9 147.28 177.75 166.44 163.83 135.44 173.9"/><g class="cls-20"><g class="cls-21"><rect class="cls-22" x="97.58" y="135.47" width="10.04" height="10.04"/></g></g><path class="cls-23" d="M102.6,147.68h0a7.19,7.19,0,0,0-7.19-7.19h0a7.19,7.19,0,0,0,7.2-7.18h0a7.19,7.19,0,0,0,7.19,7.19h0a7.19,7.19,0,0,0-7.2,7.18h0"/><g class="cls-24"><g class="cls-25"><rect class="cls-26" x="144.67" y="222.21" width="6.87" height="6.87"/></g></g><path class="cls-23" d="M148.1,230.57h0a4.92,4.92,0,0,0-4.92-4.92h0a4.93,4.93,0,0,0,4.92-4.93,4.93,4.93,0,0,0,4.93,4.93h0a4.93,4.93,0,0,0-4.93,4.92"/><g class="cls-27"><g class="cls-28"><rect class="cls-29" x="164.51" y="128.27" width="14.06" height="14.06"/></g></g><path class="cls-23" d="M171.54,145.37h0a10.07,10.07,0,0,0-10.07-10.07h0a10.07,10.07,0,0,0,10.08-10.06h0a10.07,10.07,0,0,0,10.07,10.07h0a10.07,10.07,0,0,0-10.08,10.06h0"/></svg>