<?xml version="1.0" encoding="utf-8"?>
<!-- Generator: Adobe Illustrator 24.1.1, SVG Export Plug-In . SVG Version: 6.00 Build 0)  -->
<svg version="1.1" id="Capa_1" xmlns="http://www.w3.org/2000/svg" xmlns:xlink="http://www.w3.org/1999/xlink" x="0px" y="0px"
	 viewBox="0 0 280 280" style="enable-background:new 0 0 280 280;" xml:space="preserve">
<style type="text/css">
	.st0{fill:#419785;}
	.st1{clip-path:url(#SVGID_2_);fill:#00A346;}
	.st2{clip-path:url(#SVGID_2_);fill:#73C8B0;}
	.st3{clip-path:url(#SVGID_2_);fill:#F6F6F6;}
	.st4{clip-path:url(#SVGID_2_);fill:#B7BBB9;}
	.st5{clip-path:url(#SVGID_2_);fill:#CED3D0;}
</style>
<g>
	<polygon class="st0" points="47.18,241.53 3.04,274.42 276.96,274.42 248,241.53 	"/>
	<g>
		<defs>
			<rect id="SVGID_1_" x="3.04" y="5.58" width="273.92" height="268.85"/>
		</defs>
		<clipPath id="SVGID_2_">
			<use xlink:href="#SVGID_1_"  style="overflow:visible;"/>
		</clipPath>
		<path class="st1" d="M200.93,100.15L169.42,131l-0.47,0.99c-4.09,8.63-9.31,15.83-15.52,21.42c-15.63,14.07-38.91,13.08-53-2.26
			c-9.24-10.06-8.5-19.43-8.47-19.74l0.11-0.77l-0.14-0.93c-6.07-40.7,31.54-48.2,33.12-48.5l4.8-0.86V5.58H42.61v258.26H253V148.17
			L200.93,100.15z M241.46,251.67H54.15V17.74h64.15v52.71c-4.68,1.45-12.11,4.37-19.2,9.82c-10.65,8.18-22.48,23.59-18.67,50.65
			c-0.15,3.64,0.27,16.24,11.71,28.69c18.31,19.94,48.52,21.28,68.78,3.05c7.15-6.43,13.16-14.58,17.88-24.23l22.37-21.9l40.3,37.17
			V251.67z"/>
		<path class="st1" d="M241.46,153.69v97.98H54.15V17.74h64.15v52.71c-4.68,1.45-12.11,4.37-19.2,9.82
			c-10.65,8.18-22.48,23.59-18.67,50.65c-0.15,3.64,0.27,16.24,11.71,28.69c18.31,19.94,48.52,21.28,68.78,3.05
			c7.15-6.43,13.16-14.58,17.88-24.23l22.37-21.9L241.46,153.69z"/>
		<path class="st2" d="M200.93,100.15L169.42,131l-0.47,0.99c-4.09,8.63-9.31,15.83-15.52,21.42c-15.63,14.06-38.91,13.07-53-2.26
			c-9.24-10.06-8.5-19.43-8.47-19.74l0.11-0.77l-0.14-0.93c-6.07-40.7,31.54-48.2,33.12-48.5l4.8-0.86V5.58H42.61v258.26H253V148.17
			L200.93,100.15z M241.46,251.67H54.15V17.74h64.15v52.71c-4.68,1.45-12.11,4.37-19.2,9.82c-10.65,8.18-22.48,23.59-18.67,50.65
			c-0.15,3.64,0.27,16.24,11.71,28.69c18.31,19.94,48.52,21.28,68.78,3.05c7.15-6.43,13.16-14.58,17.88-24.23l22.37-21.9l40.3,37.17
			V251.67z"/>
		<path class="st3" d="M161.52,122.11c0,18.55-14.27,33.6-31.87,33.6s-31.87-15.04-31.87-33.6s14.27-33.6,31.87-33.6
			S161.52,103.56,161.52,122.11"/>
		<path class="st4" d="M129.65,157.29c-18.45,0-33.46-15.78-33.46-35.18s15.01-35.18,33.46-35.18s33.46,15.78,33.46,35.18
			S148.09,157.29,129.65,157.29 M129.65,90.09c-16.7,0-30.29,14.36-30.29,32.02s13.59,32.02,30.29,32.02s30.29-14.36,30.29-32.02
			S146.35,90.09,129.65,90.09"/>
		<path class="st5" d="M146.38,105c0,2.18-1.77,3.95-3.95,3.95c-2.18,0-3.95-1.77-3.95-3.95c0-2.18,1.77-3.95,3.95-3.95
			C144.61,101.04,146.38,102.82,146.38,105"/>
		<path class="st5" d="M118.97,138.66c0,2.18-1.77,3.95-3.95,3.95c-2.18,0-3.95-1.77-3.95-3.95c0-2.18,1.77-3.95,3.95-3.95
			C117.2,134.71,118.97,136.48,118.97,138.66"/>
		<path class="st5" d="M114.36,108.29c-0.88,0.88-2.31,0.88-3.19,0c-0.88-0.88-0.88-2.31,0-3.19c0.88-0.88,2.31-0.88,3.19,0
			C115.24,105.98,115.24,107.41,114.36,108.29"/>
		<path class="st5" d="M109.78,123.03c-0.88,0.88-2.31,0.88-3.19,0c-0.88-0.88-0.88-2.31,0-3.19c0.88-0.88,2.31-0.88,3.19,0
			C110.66,120.72,110.66,122.15,109.78,123.03"/>
		<path class="st5" d="M145.72,141.95c-0.88,0.88-2.31,0.88-3.19,0c-0.88-0.88-0.88-2.31,0-3.19c0.88-0.88,2.31-0.88,3.19,0
			C146.6,139.65,146.6,141.07,145.72,141.95"/>
		<path class="st5" d="M150.22,126.95c-0.88,0.88-2.31,0.88-3.19,0c-0.88-0.88-0.88-2.31,0-3.19c0.88-0.88,2.31-0.88,3.19,0
			C151.1,124.64,151.1,126.07,150.22,126.95"/>
		<path class="st5" d="M131.28,124.96c-1.54,1.55-4.05,1.55-5.59,0c-1.54-1.54-1.54-4.05,0-5.59c1.54-1.54,4.05-1.54,5.59,0
			S132.83,123.41,131.28,124.96"/>
	</g>
</g>
</svg>
