<svg id="Capa_1" data-name="Capa 1" xmlns="http://www.w3.org/2000/svg" xmlns:xlink="http://www.w3.org/1999/xlink" viewBox="0 0 224.26 279"><defs><style>.cls-1{fill:none;}.cls-2{clip-path:url(#clip-path);}.cls-3{fill:#4ca848;}.cls-4{fill:#539346;}.cls-5{fill:#3bb24a;}.cls-6{fill:#8b5c39;}</style><clipPath id="clip-path" transform="translate(-27.87 -0.5)"><rect class="cls-1" x="27.87" y="0.5" width="224.26" height="279"/></clipPath></defs><g class="cls-2"><path class="cls-3" d="M225,100.16a52.83,52.83,0,0,0-60.14-75.8A53.94,53.94,0,0,0,69.14,72.2a51,51,0,0,0-21.79,90.12,50.26,50.26,0,0,0-.78,8.73,49.46,49.46,0,0,0,71.93,44.08,36.9,36.9,0,0,0,65-7,59.07,59.07,0,0,0,41.47-108" transform="translate(-27.87 -0.5)"/><path class="cls-4" d="M251.91,145.05a53.84,53.84,0,0,1-59.78,36.07,33.65,33.65,0,0,1-59.28,6.36c-25.2,20.4-62.17-6.94-57.34-28.16C62,157.39,51.9,137.66,51.9,122A49.06,49.06,0,0,1,91.6,73.86a51.87,51.87,0,0,1,49-69c.28,0,.55,0,.83,0A53.94,53.94,0,0,0,69.14,72.2a51,51,0,0,0-21.79,90.12,50.26,50.26,0,0,0-.78,8.73A49.47,49.47,0,0,0,96,220.53c.95,0,1.89,0,2.81-.08l1-.08,1.76-.16,1.2-.16,1.48-.22,1.33-.25c.42-.08.85-.17,1.27-.27s1-.21,1.42-.33l1-.29c.52-.15,1.05-.29,1.57-.46l.41-.14a48.46,48.46,0,0,0,7.17-3,36.9,36.9,0,0,0,65-7,59.79,59.79,0,0,0,9.53.77,59.09,59.09,0,0,0,59.09-59.09c0-1.62-.09-3.21-.22-4.8" transform="translate(-27.87 -0.5)"/><path class="cls-3" d="M190.91,21.18c3.42-3.13,9-2.57,9-2.57s.06,5.63-3.35,8.76-9,2.56-9,2.56,0-5.63,3.37-8.75" transform="translate(-27.87 -0.5)"/><path class="cls-3" d="M53.57,97.28c4.07-2.21,9.37-.32,9.37-.32s-1.3,5.48-5.37,7.68-9.37.32-9.37.32,1.3-5.47,5.37-7.68" transform="translate(-27.87 -0.5)"/><path class="cls-5" d="M184.54,124.35c3.23-3.32,8.86-3.08,8.86-3.08s.38,5.61-2.85,8.93-8.86,3.08-8.86,3.08-.38-5.61,2.85-8.93" transform="translate(-27.87 -0.5)"/><path class="cls-5" d="M174.86,58.7c2.26,4,.43,9.36.43,9.36s-5.49-1.23-7.75-5.27-.43-9.37-.43-9.37,5.49,1.23,7.75,5.28" transform="translate(-27.87 -0.5)"/><path class="cls-5" d="M181.69,64.27c3.06-3.48,8.69-3.53,8.69-3.53s.66,5.59-2.4,9.07-8.69,3.52-8.69,3.52-.67-5.59,2.4-9.06" transform="translate(-27.87 -0.5)"/><path class="cls-4" d="M75.19,220.65c-4.35,1.59-9.31-1.05-9.31-1.05s2.08-5.23,6.42-6.82,9.32,1,9.32,1-2.08,5.23-6.43,6.83" transform="translate(-27.87 -0.5)"/><path class="cls-4" d="M79.21,176.11c-.2-4.62,3.84-8.55,3.84-8.55s4.34,3.58,4.53,8.21-3.84,8.55-3.84,8.55-4.34-3.59-4.53-8.21" transform="translate(-27.87 -0.5)"/><path class="cls-4" d="M94.82,114.47C92,110.82,93,105.28,93,105.28s5.62.39,8.46,4,1.84,9.19,1.84,9.19-5.61-.39-8.46-4" transform="translate(-27.87 -0.5)"/><path class="cls-4" d="M97,129.43c-4.16,2-9.38-.05-9.38-.05s1.51-5.42,5.67-7.48,9.37,0,9.37,0-1.51,5.43-5.66,7.48" transform="translate(-27.87 -0.5)"/><path class="cls-4" d="M116.41,146.22c3.53-3,9.1-2.22,9.1-2.22s-.15,5.63-3.69,8.63-9.1,2.22-9.1,2.22.15-5.63,3.69-8.63" transform="translate(-27.87 -0.5)"/><polygon class="cls-6" points="117.65 196.29 122.74 201.93 146.12 178.77 143.12 175.44 117.65 196.29"/><polygon class="cls-6" points="117.65 216.49 110.97 223.91 79.78 193.06 83.72 188.69 117.65 216.49"/><polygon class="cls-6" points="129.23 279 106.08 279 115.33 121.28 119.98 121.28 129.23 279"/></g></svg>