<?xml version="1.0" encoding="utf-8"?>
<!-- Generator: Adobe Illustrator 24.1.1, SVG Export Plug-In . SVG Version: 6.00 Build 0)  -->
<svg version="1.1" id="Capa_1" xmlns="http://www.w3.org/2000/svg" xmlns:xlink="http://www.w3.org/1999/xlink" x="0px" y="0px"
	 viewBox="0 0 228.12 539.79" style="enable-background:new 0 0 228.12 539.79;" xml:space="preserve">
<style type="text/css">
	.st0{fill:#2C3488;}
	.st1{fill:#3D66AA;}
	.st2{fill:#809FB4;}
	.st3{fill:#BCCDD3;}
	.st4{fill:#AE7400;}
	.st5{fill:#FFC900;}
	.st6{fill:#AE0912;}
	.st7{fill:#F6043A;}
</style>
<g>
	<polygon class="st0" points="0,257.39 0,528.06 5.57,533.62 5.57,232.7 	"/>
	<polygon class="st1" points="5.57,232.7 37.95,255.83 37.95,516.58 5.57,533.62 	"/>
	<polygon class="st2" points="62.04,137.08 47.92,158.67 47.92,493.88 62.04,504.58 	"/>
	<polygon class="st3" points="62.04,137.08 87.78,163.65 87.78,493.88 62.04,504.58 	"/>
	<polygon class="st4" points="109.37,259.98 109.37,508.92 95.25,498.31 91.93,306.48 	"/>
	<polygon class="st5" points="109.37,259.98 134.28,284.89 134.28,498.31 109.37,508.92 	"/>
	<polygon class="st6" points="159.15,0 134.28,90.24 134.28,520.87 159.15,539.79 	"/>
	<polygon class="st7" points="159.15,0 159.15,539.79 195.69,520.87 195.69,69.21 	"/>
	<polygon class="st2" points="207.18,217.6 195.69,235.16 195.69,507.84 207.18,516.55 	"/>
	<polygon class="st3" points="207.18,516.55 228.12,507.84 228.12,239.21 207.18,217.6 	"/>
</g>
</svg>
