<?xml version="1.0" encoding="utf-8"?>
<!-- Generator: Adobe Illustrator 24.1.1, SVG Export Plug-In . SVG Version: 6.00 Build 0)  -->
<svg version="1.1" id="Capa_1" xmlns="http://www.w3.org/2000/svg" xmlns:xlink="http://www.w3.org/1999/xlink" x="0px" y="0px"
	 viewBox="0 0 632.91 278.23" style="enable-background:new 0 0 632.91 278.23;" xml:space="preserve">
<style type="text/css">
	.st0{fill:#89443E;}
	.st1{fill:#33262A;}
	.st2{fill:#FFFFFF;}
	.st3{fill:#322527;}
	.st4{clip-path:url(#SVGID_2_);fill:#FFFFFF;}
	.st5{clip-path:url(#SVGID_2_);fill:#322527;}
	.st6{clip-path:url(#SVGID_2_);fill:#33262A;}
</style>
<polyline class="st0" points="1.79,137.67 41.92,66.21 285.03,65.97 285.03,137.67 "/>
<polyline class="st0" points="630.64,137.2 590.51,65.73 347.4,65.49 347.4,137.2 "/>
<polygon class="st1" points="162.95,103.97 178.18,82.46 192.53,103.97 192.53,124.77 162.95,124.77 "/>
<path class="st2" d="M193.96,126.2h-32.45v-22.69l16.71-23.59l15.74,23.61V126.2z M164.38,123.33h26.71V104.4l-12.94-19.41
	l-13.77,19.44V123.33z"/>
<polygon class="st1" points="439.9,103.97 455.14,82.46 469.48,103.97 469.48,124.77 439.9,124.77 "/>
<path class="st2" d="M470.92,126.2h-32.45v-22.69l16.71-23.59l15.74,23.61V126.2z M441.34,123.33h26.71V104.4L455.1,84.99
	l-13.77,19.44V123.33z"/>
<rect x="285.02" y="53.78" class="st2" width="62.38" height="223.25"/>
<path class="st3" d="M286.1,54.86h60.22v221.09H286.1V54.86z M283.95,278.1h64.53V52.7h-64.53V278.1z"/>
<polygon class="st0" points="316.22,0 285.03,53.78 347.4,53.78 "/>
<g>
	<defs>
		<rect id="SVGID_1_" width="632.91" height="278.23"/>
	</defs>
	<clipPath id="SVGID_2_">
		<use xlink:href="#SVGID_1_"  style="overflow:visible;"/>
	</clipPath>
	<path class="st4" d="M337.37,98.24c0,11.48-9.31,20.8-20.8,20.8c-11.48,0-20.79-9.31-20.79-20.8s9.31-20.79,20.79-20.79
		C328.06,77.44,337.37,86.75,337.37,98.24"/>
	<path class="st5" d="M316.58,120.47c-12.26,0-22.23-9.97-22.23-22.23c0-12.26,9.97-22.23,22.23-22.23
		c12.26,0,22.23,9.97,22.23,22.23C338.8,110.49,328.84,120.47,316.58,120.47 M316.58,78.88c-10.68,0-19.36,8.69-19.36,19.36
		c0,10.67,8.69,19.36,19.36,19.36s19.36-8.68,19.36-19.36C335.94,87.56,327.25,78.88,316.58,78.88"/>
	<path class="st6" d="M327.35,97.89c0,5.75-4.66,10.41-10.41,10.41c-5.75,0-10.4-4.66-10.4-10.41c0-5.75,4.66-10.41,10.4-10.41
		C322.69,87.48,327.35,92.14,327.35,97.89"/>
	<path class="st5" d="M316.94,109.72c-6.53,0-11.84-5.31-11.84-11.84c0-6.53,5.31-11.84,11.84-11.84c6.53,0,11.84,5.31,11.84,11.84
		C328.78,104.41,323.47,109.72,316.94,109.72 M316.94,88.91c-4.95,0-8.97,4.03-8.97,8.97c0,4.94,4.03,8.97,8.97,8.97
		c4.95,0,8.97-4.02,8.97-8.97C325.92,92.94,321.89,88.91,316.94,88.91"/>
	<rect x="285.02" y="62.39" class="st6" width="62.38" height="3.58"/>
	<rect x="285.02" y="135.41" class="st6" width="62.38" height="3.58"/>
	<rect x="285.02" y="217.63" class="st6" width="62.38" height="3.58"/>
	<path class="st4" d="M0.36,136.87h283.24V276.7h-27.27v-63.33c0,0-1.44-36.05-44.1-49.57c0,0-22.15-4.62-42.57-5.49
		c0,0-14.05-0.98-32.04,0.47c-17.99,1.46-35.08,5.02-35.08,5.02c-42.67,13.52-44.1,49.57-44.1,49.57v63.33H0.36V136.87z"/>
	<path class="st4" d="M283.95,277.05h-27.99v-63.68c0-0.08-0.43-9.07-6.03-19.58c-5.16-9.69-15.92-22.71-37.82-29.66
		c-0.19-0.04-22.32-4.61-42.48-5.46c-0.15-0.01-14.24-0.97-32,0.47c-17.77,1.43-34.87,4.97-35.04,5.01
		c-21.87,6.93-32.63,19.95-37.79,29.65c-5.6,10.51-6.02,19.51-6.02,19.59v63.67H0V136.51h283.95V277.05z M256.68,276.34h26.55
		V137.23H0.72v139.11h57.36v-62.97c0-0.1,0.43-9.23,6.09-19.89c5.22-9.82,16.1-23.01,38.25-30.03c0.21-0.04,17.35-3.59,35.16-5.03
		c17.81-1.44,31.96-0.48,32.1-0.47c20.2,0.86,42.4,5.45,42.62,5.49c22.19,7.03,33.07,20.22,38.29,30.04
		c5.66,10.66,6.09,19.79,6.09,19.87V276.34z"/>
	<rect x="58.43" y="276.7" class="st4" width="20.44" height="0.49"/>
	<rect x="58.07" y="276.34" class="st4" width="21.15" height="1.21"/>
	<rect x="235.89" y="276.7" class="st4" width="20.44" height="0.49"/>
	<polygon class="st4" points="256.68,277.54 235.53,277.54 235.52,276.34 256.68,276.34 	"/>
	<path class="st4" d="M632.55,137.56H349.31v139.83h27.27v-63.33c0,0,1.44-36.05,44.1-49.57c0,0,22.15-4.62,42.57-5.49
		c0,0,14.05-0.98,32.04,0.47c17.99,1.46,35.08,5.02,35.08,5.02c42.67,13.52,44.1,49.57,44.1,49.57v63.33h58.07V137.56z"/>
	<path class="st4" d="M632.91,277.74h-58.79v-63.68c0-0.08-0.43-9.07-6.03-19.58c-5.16-9.69-15.92-22.71-37.82-29.66
		c-0.14-0.02-17.24-3.56-35-5c-17.76-1.43-31.85-0.48-31.99-0.47c-20.17,0.85-42.3,5.43-42.52,5.48
		c-21.87,6.93-32.63,19.95-37.79,29.64c-5.6,10.51-6.02,19.51-6.02,19.59v63.67h-27.99V137.2h283.96V277.74z M574.84,277.02h57.35
		V137.92H349.67v139.11h26.55v-62.97c0-0.1,0.43-9.23,6.09-19.89c5.22-9.82,16.1-23.01,38.25-30.03c0.26-0.05,22.45-4.64,42.67-5.5
		c0.13-0.01,14.27-0.97,32.09,0.47c17.81,1.44,34.96,4.99,35.12,5.02c22.19,7.03,33.07,20.22,38.29,30.04
		c5.66,10.66,6.09,19.79,6.09,19.87V277.02z"/>
	<rect x="554.04" y="277.38" class="st4" width="20.44" height="0.49"/>
	<polygon class="st4" points="574.84,278.23 553.69,278.23 553.68,277.02 574.84,277.02 	"/>
	<rect x="376.58" y="277.38" class="st4" width="20.44" height="0.49"/>
	<polygon class="st4" points="397.38,278.23 376.23,278.23 376.23,277.02 397.39,277.02 	"/>
	<path class="st6" d="M489.25,174.7c12.85,0.03,23.15,1.85,31.41,4.7c19.76,6.8,32.98,25.5,33.1,46.45l0.29,52.02h20.43v-63.99
		c0,0-1.43-36.16-44.1-49.72c0,0-17.09-3.57-35.08-5.03c-18-1.46-32.04-0.47-32.04-0.47c-20.42,0.86-42.57,5.5-42.57,5.5
		c-42.67,13.56-44.1,49.72-44.1,49.72v63.99h20.43l0.29-52.02c0.12-20.95,13.34-39.65,33.09-46.45c8.66-2.98,19.57-4.84,33.32-4.69
		L489.25,174.7z"/>
	<path class="st6" d="M143.66,174.73c-12.85,0.03-23.15,1.85-31.41,4.7c-19.76,6.8-32.98,25.5-33.1,46.45l-0.29,52.02H58.43v-63.99
		c0,0,1.43-36.16,44.1-49.72c0,0,17.09-3.57,35.08-5.03c18-1.45,32.04-0.47,32.04-0.47c20.42,0.86,42.57,5.5,42.57,5.5
		c42.67,13.56,44.1,49.72,44.1,49.72v63.99h-20.43l-0.29-52.02c-0.12-20.95-13.34-39.65-33.09-46.45
		c-8.66-2.98-19.57-4.84-33.32-4.69L143.66,174.73z"/>
</g>
</svg>
