<?xml version="1.0" encoding="utf-8"?>
<svg id="Layer_1" data-name="Layer 1" xmlns="http://www.w3.org/2000/svg" viewBox="48.678 91.271 157.701 277.362">
  <defs>
    <style>.cls-1{fill:#fff;}.cls-2{isolation:isolate;}.cls-3{fill:#274c20;}.cls-4{fill:#2c3488;}.cls-5{fill:#3d66aa;}.cls-6{fill:#809fb4;}.cls-7{fill:#bccdd3;}.cls-8{fill:#ae7400;}.cls-9{fill:#ffc900;}</style>
  </defs>
  <rect class="cls-1" width="195.73" height="276.854" rx="28.1" style="" y="91.272" x="31.438"/>
  <polygon class="cls-4" points="66.61 222.53 66.61 357.48 69.38 360.25 69.38 210.21 66.61 222.53"/>
  <polygon class="cls-5" points="69.38 210.21 85.53 221.75 85.53 351.75 69.38 360.25 69.38 210.21"/>
  <polygon class="cls-6" points="97.54 162.54 90.5 173.3 90.5 340.44 97.54 345.77 97.54 162.54"/>
  <polygon class="cls-7" points="97.54 162.54 110.37 175.79 110.37 340.44 97.54 345.77 97.54 162.54"/>
  <polygon class="cls-8" points="121.14 223.82 121.14 347.94 114.1 342.65 112.44 247 121.14 223.82"/>
  <polygon class="cls-9" points="121.14 223.82 133.56 236.24 133.56 342.65 121.14 347.94 121.14 223.82"/>
  <polygon class="cls-4" points="145.96 94.19 133.56 139.19 133.56 353.89 145.96 363.33 145.96 94.19"/>
  <polygon class="cls-5" points="145.96 94.19 145.96 363.33 164.18 353.89 164.18 128.7 145.96 94.19"/>
  <polygon class="cls-6" points="169.9 202.69 164.18 211.44 164.18 347.4 169.9 351.74 169.9 202.69"/>
  <polygon class="cls-7" points="169.9 351.74 180.34 347.4 180.34 213.46 169.9 202.69 169.9 351.74"/>
</svg>