<?xml version="1.0" encoding="UTF-8"?>
<svg id="Capa_1" xmlns="http://www.w3.org/2000/svg" version="1.1" xmlns:xlink="http://www.w3.org/1999/xlink" viewBox="0 0 392.9 443.73">
  <!-- Generator: Adobe Illustrator 29.7.1, SVG Export Plug-In . SVG Version: 2.1.1 Build 8)  -->
  <defs>
    <style>
      .st0 {
        clip-path: url(#clippath-6);
      }

      .st1 {
        clip-path: url(#clippath-4);
      }

      .st2 {
        isolation: isolate;
        opacity: .24;
      }

      .st3 {
        fill: #fff;
      }

      .st4 {
        fill: #131313;
      }

      .st5 {
        fill: none;
      }

      .st6 {
        fill: #067841;
      }

      .st7 {
        fill: #d5714c;
      }

      .st8 {
        fill: #068045;
      }

      .st9 {
        fill: #400e0e;
      }

      .st10 {
        clip-path: url(#clippath-1);
      }

      .st11 {
        fill: #ebac91;
      }

      .st12 {
        clip-path: url(#clippath-5);
      }

      .st13 {
        fill: #fae10f;
      }

      .st14 {
        clip-path: url(#clippath-3);
      }

      .st15 {
        fill: #065e41;
      }

      .st16 {
        fill: #100b08;
      }

      .st17 {
        fill: #daac46;
      }

      .st18 {
        clip-path: url(#clippath-2);
      }

      .st19 {
        fill: #ca8a68;
      }

      .st20 {
        clip-path: url(#clippath);
      }
    </style>
    <clipPath id="clippath">
      <rect class="st5" width="392.9" height="443.73"/>
    </clipPath>
    <clipPath id="clippath-1">
      <polygon class="st5" points="388.59 364.54 392.9 443.73 333.17 444.26 342.69 364.54 3 364.54 0 0 388.59 0 388.59 364.54"/>
    </clipPath>
    <clipPath id="clippath-2">
      <path class="st5" d="M89.6,347.64c11.3,8.44,26.86,9.41,40.2,7.5,13.34-1.91,29.68-7.71,35.68-21.16-11.29-9.68-27.54-11.7-41.69-9.49-13.6,2.13-29.28,9.23-34.2,23.16Z"/>
    </clipPath>
    <clipPath id="clippath-3">
      <path class="st5" d="M148.25,255.55c-10.07,9.61-8.93,25.19-7.51,36.74,1.65,13.44,9.31,29.27,22.13,36.81,10.77-9.06,10.61-24.51,9.56-36.12-1.28-14.07-10.31-30.31-24.19-37.43Z"/>
    </clipPath>
    <clipPath id="clippath-4">
      <path class="st5" d="M41.02,321.47c11.89,7.56,27.52,7.37,40.74,4.45,13.22-2.92,29.18-9.94,34.04-23.81-11.96-8.82-28.35-9.6-42.32-6.34-13.41,3.14-28.52,11.41-32.46,25.7Z"/>
    </clipPath>
    <clipPath id="clippath-5">
      <path class="st5" d="M7.39,247.62c5.25,13.75,18.72,23.36,31.42,29.48,13.16,6.36,30.54,11.33,44.8,5.09-3.86-14.63-17.56-26.06-30.33-31.46-13.82-5.85-30.98-11.55-45.9-3.11Z"/>
    </clipPath>
    <clipPath id="clippath-6">
      <path class="st5" d="M92.58,225.2c-9.35,10.35-6.97,25.81-4.65,37.22,2.69,13.29,11.57,28.5,24.95,35.06,10.04-9.91,8.7-25.31,6.76-36.79-2.36-13.93-12.62-29.49-27.05-35.49Z"/>
    </clipPath>
  </defs>
  <g class="st20">
    <g class="st10">
      <g>
        <path class="st8" d="M192.37,350.71c-36.31-27.72-74.87-52.34-115.29-73.61-.72,1.41-1.03,2.08-1.73,3.43,39.95,21.03,78.1,45.35,114.02,72.7.97-.86,1.98-1.68,3-2.52Z"/>
        <path class="st8" d="M89.6,347.64c11.3,8.44,26.86,9.41,40.2,7.5,13.34-1.91,29.68-7.71,35.68-21.16-11.29-9.68-27.54-11.7-41.69-9.49-13.6,2.13-29.28,9.23-34.2,23.16Z"/>
        <g class="st18">
          <g>
            <path class="st2" d="M114.82,313.4c-2.76,4.62,5.1,9.41,7.92,4.81,2.83-4.59-5.15-9.43-7.92-4.81Z"/>
            <path class="st2" d="M92.11,348.8c4.21-1.18,8.43-2.29,12.68-3.33-3.28,4.1-7.55,7.29-12.4,9.27-.86.36-.13,1.63.72,1.29,5.63-2.29,10.49-6.14,13.99-11.11h0c5.61-1.33,11.29-2.55,17.01-3.63-3.52,7.68-9.68,13.83-17.36,17.35-.85.39-.14,1.69.7,1.3,8.24-3.76,14.78-10.44,18.37-18.75l.17-.25c5.99-1.12,12.03-2.08,18.13-2.9-3.04,9.16-9.07,17.05-17.11,22.4-.78.53.24,1.64,1,1.13,8.48-5.64,14.77-14.02,17.81-23.74h0c3.26-.43,6.55-.82,9.85-1.17-2.6,9.19-8.16,17.25-15.83,22.93-.74.56.26,1.7,1,1.15,8.08-5.97,13.9-14.51,16.49-24.22l.14-.07c3.57-.37,7.16-.67,10.78-.94.98-.07.62-1.53-.35-1.49-3.57.27-7.13.57-10.68.93-6.28-7.22-14.43-12.57-23.56-15.43l-.1-.03c-.39-.08-.77.17-.85.57s.17.77.57.85c8.53,2.67,16.19,7.59,22.18,14.23-3.26.33-6.49.72-9.7,1.14l-.34.02c-8.05-7.64-18.05-12.92-28.9-15.24-.97-.21-1.34,1.19-.36,1.39,10.23,2.17,19.71,7.02,27.44,14.07-6.2.86-12.36,1.85-18.45,2.98-7.76-6.09-17.07-9.86-26.88-10.89-.95-.1-.9,1.36.07,1.46,9.04.97,17.64,4.35,24.92,9.79-5.42,1.04-10.77,2.18-16.07,3.44-5.36-3.46-11.5-5.55-17.85-6.1-.94-.07-.89,1.37.07,1.46,5.6.48,11.03,2.24,15.85,5.12-11.54,2.81-22.83,6.12-33.85,9.94-.87.34-.47,1.69.4,1.39,6.68-2.32,13.44-4.42,20.29-6.31Z"/>
          </g>
        </g>
        <path class="st8" d="M148.25,255.55c-10.07,9.61-8.93,25.19-7.51,36.74,1.65,13.44,9.31,29.27,22.13,36.81,10.77-9.06,10.61-24.51,9.56-36.12-1.28-14.07-10.31-30.31-24.19-37.43Z"/>
        <g class="st14">
          <g>
            <path class="st2" d="M184.13,287.6c-4.72-3.83-9.83,2.2-5.19,5.99,4.68,3.78,9.9-2.16,5.19-5.99Z"/>
            <path class="st2" d="M147.13,258.03c1.26,4.23,2.43,8.47,3.55,12.72-4.26-3.77-7.65-8.41-9.97-13.61-.32-.9-1.76-.42-1.37.46,2.71,6.01,6.8,11.29,11.92,15.44h0c1.43,5.57,2.72,11.2,3.89,16.71-7.9-4.62-14.29-11.42-18.43-19.57-.43-.87-1.79-.4-1.37.47,4.46,8.71,11.39,15.92,19.9,20.72.07.09.16.16.27.21,1.16,5.81,2.2,11.6,3.11,17.4-9.33-4.54-17.36-11.36-23.36-19.83h0c-.22-.31-.64-.39-.96-.17s-.39.64-.17.96c6.31,8.91,14.82,16.03,24.71,20.65h0c.47,3.09.9,6.19,1.29,9.29-9.28-4.12-17.39-10.48-23.59-18.52-.6-.77-1.74.01-1.14.78,6.52,8.43,15.08,15.07,24.88,19.29l.07.14c.41,3.34.78,6.69,1.11,10.03.09.88,1.5.84,1.46-.07-.31-3.33-.68-6.65-1.08-9.97,7.06-4.18,12.54-10.56,15.61-18.16.32-.77-1.09-1.5-1.42-.69-2.85,7.12-7.9,13.14-14.41,17.19-.38-3.04-.79-6.09-1.25-9.14l-.02-.32c7.65-5.81,13.19-13.96,15.77-23.22.22-.85-1.21-1.54-1.45-.7-2.41,8.74-7.53,16.48-14.62,22.13-.91-5.93-1.98-11.84-3.19-17.71,6.33-6.02,10.44-13.99,11.67-22.64.12-.89-1.43-1.21-1.55-.32-1.14,7.99-4.82,15.39-10.49,21.12-1.11-5.27-2.27-10.54-3.65-15.81,3.71-4.4,6.03-9.78,6.68-15.49.1-.9-1.46-1.18-1.56-.3-.58,5.04-2.52,9.84-5.62,13.86-2.94-11.58-6.53-23.19-10.58-34.4-.33-.93-1.87-.83-1.53.08,2.48,6.95,4.78,13.93,6.9,20.98Z"/>
          </g>
        </g>
        <path class="st8" d="M41.02,321.47c11.89,7.56,27.52,7.37,40.74,4.45,13.22-2.92,29.18-9.94,34.04-23.81-11.96-8.82-28.35-9.6-42.32-6.34-13.41,3.14-28.52,11.41-32.46,25.7Z"/>
        <g class="st1">
          <g>
            <path class="st2" d="M63.66,285.38c-2.41,4.82,5.82,8.98,8.29,4.2,2.46-4.78-5.88-9.02-8.29-4.2Z"/>
            <path class="st2" d="M43.67,322.33c4.1-1.5,8.24-2.96,12.41-4.28-2.95,4.34-6.96,7.85-11.67,10.19-.84.42,0,1.64.82,1.23,5.49-2.68,10.09-6.9,13.23-12.14h0c5.51-1.76,11.08-3.39,16.71-4.91-2.92,7.93-8.6,14.56-16.01,18.63-.81.45,0,1.69.81,1.24,7.93-4.37,13.95-11.52,16.9-20.08l.14-.27c5.9-1.55,11.86-2.96,17.87-4.25-2.33,9.37-7.73,17.7-15.35,23.65-.73.58.37,1.63,1.09,1.06,8.02-6.28,13.66-15.11,15.96-25.03h0c3.23-.66,6.44-1.31,9.75-1.9-1.88,9.36-6.8,17.84-14.03,24.1-.7.6.38,1.66,1.08,1.06,7.61-6.57,12.77-15.51,14.61-25.4l.13-.08c3.54-.62,7.11-1.21,10.69-1.74.97-.15.51-1.6-.46-1.45-3.55.54-7.07,1.12-10.58,1.73-6.82-6.73-15.38-11.44-24.72-13.62-.06-.02-.12-.03-.19-.03-.4-.02-.74.28-.77.68s.28.74.68.77c8.72,2.03,16.75,6.36,23.24,12.53-3.22.58-6.42,1.2-9.59,1.87l-.34.02c-8.63-7-19.02-11.48-30.03-12.96-.05,0-.1-.02-.15-.03-.39-.02-.74.27-.77.67-.02.39.27.74.67.77,10.37,1.38,20.19,5.49,28.45,11.92-6.14,1.31-12.2,2.77-18.2,4.36-8.22-5.49-17.82-8.54-27.69-8.82-.98-.03-.82,1.42.15,1.45,9.1.29,17.97,3,25.67,7.88-5.33,1.45-10.59,3-15.8,4.65-5.62-3.06-11.9-4.7-18.29-4.76-.97-.02-.81,1.43.15,1.44,5.64.07,11.19,1.42,16.24,3.92-11.34,3.68-22.36,7.84-33.07,12.47-.85.31-.35,1.73.51,1.35,6.5-2.8,13.08-5.43,19.75-7.89Z"/>
          </g>
        </g>
        <path class="st8" d="M7.39,247.62c5.25,13.75,18.72,23.36,31.42,29.48,13.16,6.36,30.54,11.33,44.8,5.09-3.86-14.63-17.56-26.06-30.33-31.46-13.82-5.85-30.98-11.55-45.9-3.11Z"/>
        <g class="st12">
          <g>
            <path class="st2" d="M52.82,237.31c-5.69,1.64-1.84,9.84,3.76,8.24,5.58-1.6,1.93-9.88-3.76-8.24Z"/>
            <path class="st2" d="M9.06,250.1c4.58,1.58,9.12,3.25,13.62,4.98-5.63,1.2-11.45,1.14-17.05-.18-1-.24-1.12,1.2-.13,1.43,6.46,1.53,13.2,1.44,19.61-.29h0c5.91,2.32,11.76,4.75,17.55,7.31-8.27,3.75-17.52,4.82-26.44,3.06-1-.18-1.16,1.25-.16,1.43,9.55,1.86,19.43.59,28.2-3.6l.32-.09c6.03,2.7,11.98,5.53,17.88,8.49-8.9,5.05-19.04,7.46-29.26,6.94-.98-.04-.79,1.41.21,1.46,10.74.54,21.41-2.09,30.68-7.54h0c3.14,1.59,6.27,3.24,9.38,4.92-8.54,5.27-18.39,8.01-28.43,7.93-1.01,0-.81,1.5.17,1.45,10.54.09,20.88-2.86,29.78-8.5h.17c3.36,1.83,6.68,3.68,9.98,5.6.34.18.78.05.97-.29s.05-.78-.29-.97c-3.27-1.89-6.57-3.75-9.89-5.57-.86-9.23-4.51-17.98-10.47-25.08-.65-.79-1.93-.02-1.26.77,5.58,6.63,9.09,14.76,10.09,23.38-3.06-1.66-6.14-3.28-9.23-4.86l-.33-.16c-2.31-10.74-7.72-20.57-15.57-28.27-.73-.73-1.99.07-1.25.8,7.43,7.26,12.64,16.48,15.05,26.58-6.02-3.02-12.1-5.9-18.26-8.64-3.24-9.52-9.16-17.91-17.04-24.16-.32-.25-.79-.21-1.04.12s-.21.79.12,1.04c7.27,5.8,12.82,13.47,16.04,22.2-5.48-2.43-11.02-4.75-16.61-6.95-2.78-6.03-6.97-11.27-12.25-15.31-.32-.24-.79-.18-1.03.14-.24.31-.18.78.14,1.02,4.65,3.57,8.43,8.15,11.07,13.38-12.11-4.75-24.66-8.96-37.16-12.53-.99-.28-1.48,1.06-.49,1.34,7.61,2.2,15.15,4.61,22.62,7.24Z"/>
          </g>
        </g>
        <path class="st8" d="M92.58,225.2c-9.35,10.35-6.97,25.81-4.65,37.22,2.69,13.29,11.57,28.5,24.95,35.06,10.04-9.91,8.7-25.31,6.76-36.79-2.36-13.93-12.62-29.49-27.05-35.49Z"/>
        <g class="st0">
          <g>
            <path class="st2" d="M130.9,254.44c-5.02-3.45-9.68,2.94-4.73,6.36,4.97,3.43,9.75-2.91,4.73-6.36Z"/>
            <path class="st2" d="M91.63,227.56c1.6,4.13,3.1,8.27,4.54,12.42-4.54-3.43-8.3-7.8-11.01-12.81-.46-.87-1.8-.29-1.34.56,3.15,5.82,7.64,10.79,13.11,14.53h0c1.86,5.44,3.58,10.91,5.17,16.39-8.23-4.03-15.14-10.31-19.92-18.14-.51-.84-1.83-.27-1.33.56,5.11,8.37,12.58,15.05,21.45,19.23.08.08.17.15.29.19,1.64,5.7,3.13,11.41,4.48,17.12-9.67-3.82-18.21-10.02-24.86-18.02-.01-.02-.04-.04-.05-.06-.25-.29-.68-.3-.97-.05s-.31.7-.05.97c7,8.4,16.05,14.86,26.28,18.71h0c.71,3.06,1.39,6.11,2.02,9.17-9.58-3.41-18.17-9.15-25-16.7-.65-.74-1.72.13-1.07.86,7.17,7.92,16.23,13.9,26.34,17.38l.08.13c.67,3.31,1.3,6.62,1.88,9.93.16.89,1.6.75,1.44-.15-.57-3.28-1.18-6.54-1.84-9.82,6.72-4.69,11.71-11.48,14.19-19.31.26-.84-1.21-1.42-1.47-.58-2.3,7.32-6.87,13.71-13.05,18.25-.62-3.01-1.26-6.02-1.96-9.02l-.08-.32c7.19-6.37,12.1-14.92,13.96-24.35.17-.87-1.33-1.45-1.49-.58-1.72,8.9-6.23,17.03-12.87,23.2-1.37-5.81-2.89-11.62-4.56-17.43,5.85-6.49,9.33-14.76,9.88-23.47.05-.89-1.51-1.09-1.57-.2-.53,8.04-3.63,15.72-8.85,21.86-1.5-5.17-3.13-10.34-4.87-15.5,3.35-4.66,5.23-10.21,5.42-15.94.03-.89-1.55-1.08-1.58-.19-.17,5.08-1.72,10-4.49,14.25-3.83-11.33-8.33-22.63-13.25-33.52-.4-.88-1.93-.67-1.54.21,3.03,6.75,5.87,13.5,8.52,20.25Z"/>
          </g>
        </g>
      </g>
      <g>
        <path class="st9" d="M219.71,34.58s-4.24,30.74-40.56,49.93c-38.72,20.46-11.2,82.01,56.16,84.09,73.17,2.26,113.13-63.64,58.38-146.23l-73.99,12.21Z"/>
        <g>
          <polygon class="st11" points="242.37 130.33 242.76 77.27 275.17 77.27 275.86 130.94 242.37 130.33"/>
          <path class="st19" d="M238.65,92.82c-1.72-4.69,11.23,21.76,24.67,20.04,11.53-1.48,13.47-22.23,13.47-22.23,0,0-5.34,7.9-17.5,7.91-13.57.02-20.64-5.72-20.64-5.72Z"/>
          <path class="st9" d="M219.33,48.02c4.12,23.65,17.87,43.56,39.92,43.56s37.2-19.68,39.92-43.56c3.08-27.1-17.87-43.1-39.92-43.1s-44.15,18.81-39.92,43.1Z"/>
          <g>
            <path class="st11" d="M224.75,60.35s-2.87-4.57-8.8-2.32c-5.93,2.25-3.25,16.65,5.65,18.48,0,0,3.19.7,5.69-1.49,0,0-2.19-10.63-2.53-14.67Z"/>
            <path class="st16" d="M225.61,69.33c-.21,0-.41-.12-.51-.32-3.25-6.74-7.62-5.42-7.8-5.36-.29.09-.62-.06-.72-.36-.1-.3.06-.62.36-.72.06-.02,5.49-1.73,9.18,5.95.14.28.02.62-.27.76-.08.04-.16.06-.25.06Z"/>
          </g>
          <g>
            <path class="st11" d="M292.83,60.35s2.87-4.57,8.8-2.32c5.93,2.25,3.25,16.65-5.65,18.48,0,0-3.19.7-5.69-1.49,0,0,2.19-10.63,2.53-14.67Z"/>
            <path class="st16" d="M291.96,69.33c-.08,0-.17-.02-.25-.06-.28-.14-.4-.48-.27-.76,3.7-7.67,9.13-5.97,9.18-5.95.3.1.46.42.36.72-.1.3-.42.46-.72.36-.19-.06-4.56-1.37-7.8,5.36-.1.2-.3.32-.51.32Z"/>
          </g>
          <path class="st11" d="M224.19,47.94c0,9.23.95,26.58,6.93,38.04,5.62,10.76,15.61,16.22,27.79,16.23,12,0,22.99-8.17,27.8-17.4,7.27-13.96,6.92-36.69,6.92-36.69,0,0,0-32.96-34.35-32.96-36.18,0-35.1,32.79-35.1,32.79Z"/>
          <g>
            <path class="st4" d="M251.18,46.36l-18.84,4.87s.86-5.28,8.56-7.2c7.71-1.92,10.28,2.34,10.28,2.34Z"/>
            <path class="st4" d="M263.16,46.36l18.84,4.87s-.86-5.28-8.56-7.2c-7.71-1.92-10.28,2.34-10.28,2.34Z"/>
            <path class="st16" d="M260.12,69.25h-4.89c-.16,0-.32-.07-.43-.19-.11-.12-.16-.29-.14-.45l.85-6.73c.04-.31.32-.53.64-.49.31.04.53.32.49.64l-.77,6.09h4.24c.31,0,.57.25.57.57s-.26.57-.57.57Z"/>
            <path class="st3" d="M272.15,74.39h-27.44s.79,10.09,13.65,10.12c11.86.02,13.79-10.12,13.79-10.12Z"/>
            <path class="st16" d="M237.67,57.74c-.19,0-.38-.1-.49-.28-.16-.27-.07-.62.19-.78,4.62-2.79,9.94-.13,10.17-.02.28.14.39.48.25.77-.14.28-.48.39-.76.25-.05-.02-4.99-2.47-9.07-.02-.09.06-.19.08-.29.08Z"/>
            <path class="st16" d="M267.64,57.74c-.19,0-.38-.1-.49-.28-.16-.27-.07-.62.19-.78,4.62-2.79,9.94-.13,10.17-.02.28.14.39.48.25.77-.14.28-.48.39-.76.25-.05-.02-4.99-2.47-9.07-.02-.09.06-.19.08-.29.08Z"/>
          </g>
          <path class="st9" d="M292.83,60.35s-9.15-18.13-2.76-34.25c0,0,6.36.1,6.14,25.25l-3.38,9Z"/>
          <path class="st9" d="M224.75,60.35s9.12-19.26,2.76-34.25c0,0-6.36.1-6.14,25.25l3.38,9Z"/>
          <path class="st9" d="M299.47,40.1s-49.54-2.93-63.9-23.01c0,0,4.69-12.49,26.76-9.03,22.07,3.46,37.14,32.04,37.14,32.04Z"/>
          <path class="st9" d="M255.88,11.94s-14.02,29.12-34.06,28.14c0,0,11.01-27.86,34.06-28.14Z"/>
        </g>
        <g>
          <path class="st6" d="M227.21,462.73s14.69-72.93,23.34-92.81c.78-1.8,3.4-1.57,3.92.33,2.08,7.58,4.83,29.91,3.6,95.63l.03,26.86h57.71l9.04-64.65c.46-4.96,18.99-85.99-27.56-148.47h-90.34s-36.52,62.82-41.56,139.65c-1.12,17.1-1.52,43.21-3.85,73.47h59.27l6.4-30.01Z"/>
          <rect class="st15" x="239.33" y="348.18" width="2.22" height="32.03" transform="translate(-187.64 449.01) rotate(-67.78)"/>
        </g>
        <g>
          <g>
            <g>
              <path class="st13" d="M183.08,139.66s-18.92,2.69-32.77,50.08l37.28,21.37,22-30.26-26.51-41.19Z"/>
              <path class="st11" d="M187.6,211.11s-24.75,38.82-30.63,45.8c-6.08,7.22-15.28,10.8-23.28,5.8h0c-7.2-4.5-9.87-13.7-6.2-21.36l25.7-50.17,34.41,19.93Z"/>
            </g>
            <g>
              <polygon class="st11" points="127.82 139.73 157.46 236.19 125.85 249.93 106.84 141.17 127.82 139.73"/>
              <g>
                <g>
                  <path class="st11" d="M125.78,144.53l4.63-4.46c3.39-3.27,5.5-7.65,5.92-12.34l1.19-13.08s.75-6.89-12.95-5.16c-13.7,1.73-14.51,1.82-14.35,5.88,0,0,2.51,5.64,11.34,6.79l4.22,22.38Z"/>
                  <path class="st11" d="M108.44,146.53s-13.53-7.5-14.16-31.2c-.07-2.73,1.28-5.32,3.56-6.82,3.51-2.31,13.63-8.12,19.05-4.41l9.5,12.26-.61,28.16-17.34,2Z"/>
                  <path class="st11" d="M128.37,112.24l7.55-38.18c.45-2.27-1.01-4.49-3.28-4.97h0c-2.26-.48-4.5.94-5.02,3.19l-6.67,28.88-3.2.61-11.07-29.22c-.78-2.05-3.11-3.04-5.13-2.18h0c-1.77.76-2.71,2.69-2.21,4.55l10.86,40.45,18.15-3.13Z"/>
                </g>
                <path class="st7" d="M114.49,132.41l-1.11-.04c.21-5.72,3.75-8.61,6.06-9.89-10.04-1.4-9.79-6.91-9.77-7.16.03-1.44.62-2.69,1.76-3.71,4.65-4.14,17.07-3.01,17.59-2.96l-.1,1.1c-.13-.01-12.47-1.14-16.75,2.68-.92.82-1.37,1.78-1.39,2.93-.01.24-.15,5.43,10.83,6.22l3.13.23-3.02.86c-.28.08-6.94,2.06-7.22,9.73Z"/>
              </g>
              <rect class="st7" x="150.6" y="202.26" width="1.11" height="26.8" transform="translate(-56.68 53.91) rotate(-17.08)"/>
            </g>
          </g>
          <g>
            <g>
              <path class="st11" d="M310.16,195.01s29.44,103.55,40.72,190.34l18.97-3.6s-2.9-127.16-22.03-205.83l-37.66,19.09Z"/>
              <path class="st11" d="M369.7,377.4s28.55,42.16-5.71,61.11c-2.26,1.25-5.11.74-6.78-1.23l-.22-.26c-1.84-2.17-1.63-5.35.37-7.38,4.87-4.93,11.41-15.16.98-28.51,0,0-5.48,1.4-4.56,12.27.24,2.8-2.09,5.15-4.88,4.89h0c-1.91-.18-3.47-1.55-3.94-3.4-1.8-7.17-4.77-24.94,6.69-34.49l18.06-2.99Z"/>
            </g>
            <path class="st13" d="M328.3,148.31s27.09,8.89,31.84,51.58l-44.02,16.69-9.91-27.07,22.09-41.19Z"/>
          </g>
          <g>
            <polygon class="st13" points="302.29 138.42 328.73 148.41 297.27 267.38 206.94 267.38 183.08 139.66 214.4 132.39 302.29 138.42"/>
            <g>
              <rect class="st4" x="206.94" y="267.38" width="90.34" height="12.24"/>
              <rect class="st17" x="190" y="169.27" width="2.22" height="32.56" transform="translate(-35.53 45.6) rotate(-12.46)"/>
              <rect class="st17" x="299.38" y="189.16" width="36.68" height="2.22" transform="translate(51.69 447.9) rotate(-75)"/>
            </g>
            <path class="st11" d="M267.52,124.55l34.77,13.86s-4.04,13.69-44.85,13.69c-35.55,0-43.04-19.71-43.04-19.71l33.77-7.84h19.35Z"/>
          </g>
        </g>
      </g>
      <rect class="st5" width="392.9" height="443.73"/>
    </g>
  </g>
</svg>