<?xml version="1.0" encoding="UTF-8"?>
<svg id="Capa_1" xmlns="http://www.w3.org/2000/svg" version="1.1" xmlns:xlink="http://www.w3.org/1999/xlink" viewBox="0 0 399.34 406.93">
  <!-- Generator: Adobe Illustrator 29.7.1, SVG Export Plug-In . SVG Version: 2.1.1 Build 8)  -->
  <defs>
    <style>
      .st0 {
        fill: #f8c22c;
      }

      .st1 {
        clip-path: url(#clippath-4);
      }

      .st2 {
        isolation: isolate;
        opacity: .24;
      }

      .st3 {
        fill: #fff;
      }

      .st4 {
        fill: #131313;
      }

      .st5 {
        fill: #066041;
      }

      .st6 {
        fill: none;
      }

      .st7 {
        fill: #067841;
      }

      .st8 {
        fill: #068045;
      }

      .st9 {
        clip-path: url(#clippath-1);
      }

      .st10 {
        clip-path: url(#clippath-5);
      }

      .st11 {
        fill: #f0857e;
      }

      .st12 {
        fill: #fbc2a4;
      }

      .st13 {
        fill: #fae10f;
      }

      .st14 {
        clip-path: url(#clippath-3);
      }

      .st15 {
        fill: #100b08;
      }

      .st16 {
        clip-path: url(#clippath-2);
      }

      .st17 {
        fill: #ca8a68;
      }

      .st18 {
        clip-path: url(#clippath);
      }

      .st19 {
        fill: #330911;
      }
    </style>
    <clipPath id="clippath">
      <rect class="st6" width="399.34" height="406.93"/>
    </clipPath>
    <clipPath id="clippath-1">
      <path class="st6" d="M278.53,348.89c-14.14-2.21-30.39-.19-41.69,9.49,6,13.46,22.33,19.25,35.68,21.16,13.34,1.91,28.91.94,40.2-7.5-4.92-13.92-20.6-21.03-34.2-23.16Z"/>
    </clipPath>
    <clipPath id="clippath-2">
      <path class="st6" d="M229.88,317.4c-1.04,11.61-1.2,27.06,9.56,36.12,12.82-7.54,20.48-23.37,22.13-36.81,1.42-11.55,2.57-27.13-7.51-36.74-13.88,7.11-22.91,23.36-24.19,37.43Z"/>
    </clipPath>
    <clipPath id="clippath-3">
      <path class="st6" d="M328.85,320.18c-13.97-3.26-30.36-2.47-42.32,6.34,4.87,13.87,20.83,20.89,34.04,23.81,13.22,2.92,28.85,3.11,40.74-4.45-3.94-14.29-19.06-22.56-32.46-25.7Z"/>
    </clipPath>
    <clipPath id="clippath-4">
      <path class="st6" d="M349.05,275.14c-12.77,5.4-26.47,16.83-30.33,31.46,14.26,6.23,31.64,1.27,44.8-5.09,12.69-6.12,26.17-15.72,31.42-29.48-14.92-8.44-32.08-2.74-45.9,3.11Z"/>
    </clipPath>
    <clipPath id="clippath-5">
      <path class="st6" d="M282.69,285.1c-1.94,11.48-3.29,26.88,6.76,36.79,13.38-6.56,22.26-21.77,24.95-35.06,2.32-11.41,4.7-26.87-4.65-37.22-14.44,6.01-24.69,21.56-27.05,35.49Z"/>
    </clipPath>
  </defs>
  <g class="st18">
    <g>
      <path class="st8" d="M212.96,377.64c35.92-27.36,74.07-51.68,114.02-72.7-.7-1.35-1.01-2.02-1.73-3.43-40.42,21.27-78.99,45.89-115.29,73.61,1.03.84,2.03,1.66,3,2.52Z"/>
      <path class="st8" d="M278.53,348.89c-14.14-2.21-30.39-.19-41.69,9.49,6,13.46,22.33,19.25,35.68,21.16,13.34,1.91,28.91.94,40.2-7.5-4.92-13.92-20.6-21.03-34.2-23.16Z"/>
      <g class="st9">
        <g>
          <path class="st2" d="M279.59,342.62c2.82,4.6,10.68-.19,7.92-4.81-2.76-4.62-10.75.22-7.92,4.81Z"/>
          <path class="st2" d="M330.51,379.52c.88.3,1.28-1.05.4-1.39-11.02-3.82-22.31-7.13-33.85-9.94,4.82-2.89,10.25-4.64,15.85-5.12.96-.08,1.01-1.53.07-1.46-6.35.55-12.48,2.64-17.85,6.1-5.3-1.26-10.66-2.4-16.07-3.44,7.28-5.43,15.88-8.82,24.92-9.79.97-.1,1.03-1.55.07-1.46-9.81,1.03-19.12,4.8-26.88,10.89-6.09-1.13-12.24-2.12-18.45-2.98,7.73-7.05,17.21-11.9,27.44-14.07.98-.2.6-1.6-.36-1.39-10.85,2.32-20.85,7.6-28.9,15.24l-.34-.02c-3.21-.42-6.44-.81-9.7-1.14,5.99-6.65,13.65-11.56,22.18-14.23.39-.08.65-.46.57-.85s-.46-.65-.85-.57l-.1.03c-9.12,2.87-17.28,8.21-23.56,15.43-3.55-.36-7.11-.66-10.68-.93-.98-.05-1.33,1.41-.35,1.49,3.62.26,7.21.57,10.78.94l.14.07c2.59,9.71,8.41,18.26,16.49,24.22.74.55,1.74-.59,1-1.15-7.68-5.68-13.24-13.74-15.83-22.93,3.3.35,6.59.73,9.85,1.17h0c3.04,9.72,9.33,18.1,17.81,23.74.77.51,1.78-.6,1-1.13-8.04-5.35-14.06-13.24-17.11-22.4,6.09.82,12.14,1.78,18.13,2.9l.17.25c3.59,8.31,10.13,14.99,18.37,18.75.84.39,1.55-.91.7-1.3-7.68-3.52-13.84-9.67-17.36-17.35,5.73,1.08,11.4,2.3,17.01,3.63h0c3.5,4.97,8.36,8.82,13.99,11.11.85.34,1.58-.93.72-1.29-4.86-1.98-9.13-5.17-12.4-9.27,4.26,1.04,8.48,2.14,12.68,3.33,6.85,1.88,13.62,3.99,20.29,6.31Z"/>
        </g>
      </g>
      <path class="st8" d="M229.88,317.4c-1.04,11.61-1.2,27.06,9.56,36.12,12.82-7.54,20.48-23.37,22.13-36.81,1.42-11.55,2.57-27.13-7.51-36.74-13.88,7.11-22.91,23.36-24.19,37.43Z"/>
      <g class="st16">
        <g>
          <path class="st2" d="M223.38,318c4.65-3.78-.47-9.81-5.19-5.99-4.72,3.83.51,9.77,5.19,5.99Z"/>
          <path class="st2" d="M262.09,261.46c.34-.91-1.21-1.01-1.53-.08-4.05,11.21-7.65,22.82-10.58,34.4-3.1-4.02-5.04-8.82-5.62-13.86-.1-.88-1.66-.6-1.56.3.65,5.71,2.97,11.1,6.68,15.49-1.38,5.26-2.54,10.54-3.65,15.81-5.67-5.73-9.35-13.14-10.49-21.12-.12-.89-1.68-.56-1.55.32,1.23,8.65,5.34,16.62,11.67,22.64-1.21,5.87-2.28,11.78-3.19,17.71-7.09-5.65-12.21-13.39-14.62-22.13-.24-.85-1.67-.15-1.45.7,2.58,9.25,8.13,17.41,15.77,23.22l-.02.32c-.47,3.05-.88,6.09-1.25,9.14-6.51-4.05-11.56-10.07-14.41-17.19-.33-.82-1.73-.09-1.42.69,3.07,7.61,8.55,13.99,15.61,18.16-.4,3.32-.77,6.64-1.08,9.97-.05.91,1.37.95,1.46.07.33-3.35.7-6.69,1.11-10.03l.07-.14c9.79-4.21,18.36-10.85,24.88-19.29.6-.77-.54-1.55-1.14-.78-6.2,8.04-14.3,14.4-23.59,18.52.39-3.1.83-6.19,1.29-9.29h0c9.89-4.62,18.4-11.74,24.71-20.65.22-.31.14-.74-.17-.96s-.74-.14-.96.17h0c-6,8.47-14.03,15.29-23.36,19.83.91-5.8,1.95-11.59,3.11-17.4.1-.05.2-.12.27-.21,8.52-4.8,15.44-12.01,19.9-20.72.42-.87-.93-1.34-1.37-.47-4.14,8.15-10.53,14.95-18.43,19.57,1.17-5.51,2.46-11.13,3.89-16.71h0c5.12-4.15,9.21-9.43,11.92-15.44.39-.88-1.04-1.36-1.37-.46-2.31,5.2-5.71,9.83-9.97,13.61,1.12-4.24,2.29-8.48,3.55-12.72,2.12-7.04,4.42-14.03,6.9-20.98Z"/>
        </g>
      </g>
      <path class="st8" d="M328.85,320.18c-13.97-3.26-30.36-2.47-42.32,6.34,4.87,13.87,20.83,20.89,34.04,23.81,13.22,2.92,28.85,3.11,40.74-4.45-3.94-14.29-19.06-22.56-32.46-25.7Z"/>
      <g class="st14">
        <g>
          <path class="st2" d="M330.38,314c2.46,4.78,10.69.62,8.29-4.2-2.41-4.82-10.75-.58-8.29,4.2Z"/>
          <path class="st2" d="M378.41,354.64c.86.38,1.37-1.04.51-1.35-10.71-4.63-21.73-8.78-33.07-12.47,5.05-2.51,10.6-3.85,16.24-3.92.96,0,1.12-1.46.15-1.44-6.4.07-12.67,1.71-18.29,4.76-5.21-1.66-10.47-3.2-15.8-4.65,7.7-4.88,16.57-7.59,25.67-7.88.97-.03,1.13-1.48.15-1.45-9.87.28-19.47,3.34-27.69,8.82-6-1.6-12.06-3.05-18.2-4.36,8.25-6.43,18.07-10.54,28.45-11.92.4-.02.7-.38.67-.77-.02-.4-.38-.7-.77-.67-.05,0-.1.02-.15.03-11.01,1.48-21.41,5.95-30.03,12.96l-.34-.02c-3.17-.66-6.37-1.29-9.59-1.87,6.49-6.17,14.52-10.5,23.24-12.53.4-.02.71-.36.68-.77s-.36-.71-.77-.68c-.07,0-.13.02-.19.03-9.34,2.18-17.9,6.89-24.72,13.62-3.51-.61-7.03-1.19-10.58-1.73-.97-.15-1.44,1.3-.46,1.45,3.58.54,7.15,1.12,10.69,1.74l.13.08c1.84,9.88,7,18.83,14.61,25.4.69.6,1.78-.46,1.08-1.06-7.22-6.26-12.15-14.74-14.03-24.1,3.31.59,6.52,1.23,9.75,1.9h0c2.3,9.92,7.94,18.75,15.96,25.03.72.57,1.82-.48,1.09-1.06-7.62-5.95-13.02-14.28-15.35-23.65,6.02,1.28,11.97,2.7,17.87,4.25l.14.27c2.95,8.56,8.97,15.71,16.9,20.08.81.45,1.62-.79.81-1.24-7.41-4.07-13.09-10.7-16.01-18.63,5.64,1.52,11.2,3.15,16.71,4.91h0c3.14,5.24,7.74,9.46,13.23,12.14.83.41,1.66-.81.82-1.23-4.7-2.34-8.71-5.85-11.67-10.19,4.18,1.33,8.31,2.78,12.41,4.28,6.67,2.46,13.25,5.09,19.75,7.89Z"/>
        </g>
      </g>
      <path class="st8" d="M349.05,275.14c-12.77,5.4-26.47,16.83-30.33,31.46,14.26,6.23,31.64,1.27,44.8-5.09,12.69-6.12,26.17-15.72,31.42-29.48-14.92-8.44-32.08-2.74-45.9,3.11Z"/>
      <g class="st1">
        <g>
          <path class="st2" d="M345.74,269.96c5.6,1.6,9.44-6.6,3.76-8.24s-9.33,6.64-3.76,8.24Z"/>
          <path class="st2" d="M415.88,267.27c.99-.28.51-1.62-.49-1.34-12.5,3.57-25.05,7.77-37.16,12.53,2.64-5.23,6.42-9.81,11.07-13.38.32-.24.38-.7.14-1.02-.24-.32-.7-.38-1.03-.14-5.27,4.03-9.47,9.28-12.25,15.31-5.59,2.2-11.13,4.53-16.61,6.95,3.21-8.72,8.77-16.39,16.04-22.2.32-.25.37-.72.12-1.04s-.72-.37-1.04-.12c-7.88,6.25-13.79,14.64-17.04,24.16-6.15,2.74-12.23,5.62-18.26,8.64,2.42-10.1,7.63-19.31,15.05-26.58.74-.73-.52-1.53-1.25-.8-7.85,7.7-13.26,17.53-15.57,28.27l-.33.16c-3.1,1.58-6.18,3.2-9.23,4.86,1-8.61,4.51-16.74,10.09-23.38.66-.79-.61-1.56-1.26-.77-5.96,7.1-9.61,15.85-10.47,25.08-3.32,1.81-6.62,3.67-9.89,5.57-.34.18-.48.62-.29.97s.62.48.97.29c3.3-1.92,6.63-3.77,9.98-5.61h.17c8.9,5.65,19.24,8.6,29.78,8.51.99.05,1.19-1.45.17-1.45-10.04.08-19.89-2.67-28.43-7.93,3.11-1.68,6.24-3.33,9.38-4.92h0c9.27,5.46,19.94,8.08,30.68,7.54.99-.05,1.19-1.5.21-1.46-10.22.52-20.36-1.89-29.26-6.94,5.9-2.96,11.85-5.79,17.88-8.49l.32.09c8.78,4.19,18.66,5.45,28.2,3.6,1-.18.84-1.62-.16-1.43-8.92,1.75-18.16.68-26.44-3.06,5.8-2.56,11.65-4.99,17.55-7.31h0c6.41,1.73,13.15,1.82,19.61.29.99-.23.88-1.67-.13-1.43-5.6,1.32-11.42,1.38-17.05.18,4.5-1.73,9.04-3.4,13.62-4.98,7.47-2.63,15.01-5.04,22.62-7.24Z"/>
        </g>
      </g>
      <path class="st8" d="M282.69,285.1c-1.94,11.48-3.29,26.88,6.76,36.79,13.38-6.56,22.26-21.77,24.95-35.06,2.32-11.41,4.7-26.87-4.65-37.22-14.44,6.01-24.69,21.56-27.05,35.49Z"/>
      <g class="st10">
        <g>
          <path class="st2" d="M276.16,285.22c4.95-3.42.29-9.82-4.73-6.36s-.24,9.8,4.73,6.36Z"/>
          <path class="st2" d="M319.22,231.73c.39-.88-1.14-1.09-1.54-.21-4.92,10.89-9.42,22.19-13.25,33.52-2.77-4.25-4.32-9.17-4.49-14.25-.03-.89-1.61-.71-1.58.19.19,5.73,2.07,11.29,5.42,15.94-1.74,5.16-3.37,10.33-4.87,15.5-5.22-6.14-8.32-13.82-8.85-21.86-.05-.89-1.62-.69-1.57.2.55,8.71,4.03,16.99,9.88,23.47-1.66,5.81-3.18,11.62-4.56,17.43-6.64-6.17-11.15-14.31-12.87-23.2-.16-.87-1.66-.28-1.49.58,1.86,9.43,6.76,17.98,13.96,24.35l-.08.32c-.7,3-1.34,6.01-1.96,9.02-6.19-4.53-10.75-10.92-13.05-18.25-.26-.84-1.72-.25-1.47.58,2.48,7.82,7.47,14.61,14.19,19.31-.67,3.27-1.28,6.54-1.84,9.82-.16.91,1.28,1.05,1.44.15.58-3.31,1.22-6.62,1.88-9.93l.08-.13c10.11-3.47,19.17-9.45,26.34-17.38.65-.72-.42-1.59-1.07-.86-6.83,7.55-15.42,13.28-25,16.7.63-3.06,1.31-6.11,2.02-9.17h0c10.23-3.86,19.29-10.32,26.28-18.71.26-.28.24-.72-.05-.97s-.72-.24-.97.05c-.01.02-.04.04-.05.06-6.64,7.99-15.19,14.2-24.86,18.02,1.35-5.71,2.84-11.43,4.48-17.12.11-.04.21-.1.29-.19,8.88-4.17,16.34-10.85,21.45-19.23.5-.83-.82-1.4-1.33-.56-4.77,7.82-11.68,14.11-19.92,18.14,1.59-5.48,3.32-10.95,5.17-16.39h0c5.47-3.73,9.96-8.71,13.11-14.53.45-.85-.89-1.43-1.34-.56-2.7,5.01-6.47,9.37-11.01,12.81,1.44-4.15,2.94-8.29,4.54-12.42,2.65-6.75,5.49-13.5,8.52-20.25Z"/>
        </g>
      </g>
    </g>
    <g>
      <g>
        <polygon class="st7" points="218.58 345.14 254.87 530.72 184.53 530.72 157.56 408.07 151.36 407.7 151.27 530.72 81.14 530.72 84.72 345.14 218.58 345.14"/>
        <rect class="st5" x="139.48" y="405.73" width="40.04" height="2.22"/>
      </g>
      <g>
        <g>
          <g>
            <path class="st12" d="M250.91,214.89l66.19-16.93c13.18-3.7,20.98-17.28,17.54-30.53h0c-3.55-13.66-17.63-21.72-31.21-17.87l-66.27,18.82,13.75,46.51Z"/>
            <polygon class="st13" points="258.2 156.34 193.55 164.83 212.04 230.82 273.77 217.96 258.2 156.34"/>
          </g>
          <g>
            <g>
              <path class="st12" d="M289.06,74.18c1.65-10.37-2.37-23.63-2.37-23.63l1.47-23.28c.29-2.21-1.13-4.27-3.29-4.8h0c-2.33-.57-4.68.84-5.27,3.17l-1.94,15.03-2.06-.04-2.8-24.16c-.22-2.94-2.93-5.04-5.83-4.52h0c-2.41.43-4.15,2.57-4.08,5.02l1.84,26.15-2.12.41-7.41-26.06c-.8-3.02-3.96-4.77-6.94-3.83h0c-2.74.86-4.36,3.69-3.7,6.49l7.65,29.84-2.69.73-10.05-20.96c-1.17-2.43-4.17-3.32-6.47-1.92h0c-1.85,1.12-2.65,3.38-1.93,5.42l10.19,27.89-8.43-.21c-3.94.02-7.02,3.43-6.62,7.35h0c.28,2.77,2.25,5.08,4.94,5.79l11.1,2.69s7.49,10.4,19.92,14.91c0,0,25.61-9.55,26.87-17.47Z"/>
              <path class="st11" d="M266.54,69.64c-9.27-8.79-25.08-7.98-25.23-7.97l-.07-1.11c.66-.04,16.44-.85,26.06,8.27l-.76.8Z"/>
            </g>
            <g>
              <polygon class="st12" points="333.75 164.69 289.06 74.18 260.85 86.05 289.27 185.62 333.75 164.69"/>
              <rect class="st11" x="282.45" y="155.68" width="1.11" height="15.95" transform="translate(-34.05 83.96) rotate(-15.93)"/>
            </g>
          </g>
        </g>
        <g>
          <polygon class="st13" points="135.77 161.26 82.86 172.21 84.72 345.14 218.58 345.14 222.78 167.46 172.41 163.11 135.77 161.26"/>
          <rect class="st0" x="220.18" y="206.61" width="2.22" height="22.33"/>
          <path class="st3" d="M102.31,212.88h32.78v21.4c0,6.28-5.1,11.38-11.38,11.38h-10.03c-6.28,0-11.38-5.1-11.38-11.38v-21.4h0Z"/>
        </g>
        <g>
          <g>
            <path class="st12" d="M44.49,216.14L6.32,285.26c-6.68,12.1-2.45,27.32,9.52,34.23h0c11.82,6.82,26.92,3.07,34.17-8.5l39.62-63.22-45.15-31.63Z"/>
            <g>
              <path class="st13" d="M32.66,225.77l54.76,35.14,8.79-41.97c9.27-14.96,21.04-33.02,6.23-42.51h0c-15.01-9.62-34.98-5.23-44.56,9.8l-25.21,39.54Z"/>
              <rect class="st0" x="82.71" y="211.58" width="2.22" height="47.01"/>
            </g>
          </g>
          <g>
            <g>
              <polygon class="st12" points="25.09 322.66 125.3 319.92 132.19 287.53 18.94 273.21 25.09 322.66"/>
              <rect class="st11" x="56.09" y="264.82" width="1.11" height="26.3" transform="translate(-226.21 299.57) rotate(-82.85)"/>
            </g>
            <g>
              <path class="st12" d="M125.53,288.86s12.82-17.34,27.91-.07l-6,11.91-21.91-11.84Z"/>
              <path class="st4" d="M140.63,270.49l-3.96,24.25,30.57,3.4,4.85-23.29c.52-2.51-1.22-4.93-3.76-5.24l-22.85-2.76c-2.33-.28-4.47,1.33-4.85,3.64Z"/>
              <path class="st12" d="M131.99,286.79l36.17.9c4.19.1,7.54,3.53,7.54,7.73h0c0,2.97-1.7,5.67-4.37,6.96l-1.94.93s3.7,27.39-18.04,30.65c-21.74,3.26-33.91-13.91-33.91-13.91l14.55-33.26Z"/>
            </g>
          </g>
        </g>
      </g>
      <g>
        <polygon class="st12" points="174.42 163.18 173.92 108.56 134.26 108.56 133.38 161.75 174.42 163.18"/>
        <path class="st17" d="M131,124.51c-2.06-4.72,13.77,26.12,29.94,24.39,13.86-1.49,14.44-26.59,14.44-26.59,0,0-4.92,7.93-19.55,7.95-16.32.02-24.82-5.75-24.82-5.75Z"/>
        <path class="st19" d="M195.04,78.44c-4.25,24.35-18.4,44.84-41.1,44.84s-38.3-20.26-41.1-44.84c-3.17-27.9,18.4-46.42,41.1-46.42s45.46,21.42,41.1,46.42Z"/>
        <g>
          <path class="st12" d="M189.46,91.13s2.96-4.71,9.06-2.39c6.1,2.31,3.34,17.14-5.81,19.03,0,0-3.28.72-5.85-1.53,0,0,2.25-10.95,2.61-15.1Z"/>
          <path class="st15" d="M188.57,100.4c-.09,0-.18-.02-.27-.06-.3-.15-.43-.51-.29-.82,3.82-7.92,9.43-6.16,9.49-6.14.32.11.49.45.39.77-.11.32-.45.49-.77.39-.2-.06-4.67-1.39-8,5.51-.11.22-.32.35-.55.35Z"/>
        </g>
        <g>
          <path class="st12" d="M119.38,91.13s-2.96-4.71-9.06-2.39c-6.1,2.31-3.34,17.14,5.81,19.03,0,0,3.28.72,5.86-1.53,0,0-2.25-10.95-2.61-15.1Z"/>
          <path class="st15" d="M120.26,100.4c-.23,0-.45-.13-.55-.35-3.33-6.91-7.81-5.57-8-5.51-.32.1-.66-.07-.77-.39-.1-.32.07-.66.39-.77.06-.02,5.67-1.78,9.49,6.14.15.3.02.67-.29.82-.09.04-.18.06-.27.06Z"/>
        </g>
        <path class="st12" d="M190.04,78.36c0,9.5-.98,29.37-7.14,41.17-5.78,11.07-15.34,17.03-27.88,17.39-10,.28-24.41-9.09-29.36-18.6-7.48-14.37-7.13-39.78-7.13-39.78,0,0,0-33.93,35.36-33.93,37.24,0,36.14,33.76,36.14,33.76Z"/>
        <g>
          <path class="st4" d="M141.93,89.86c0,1.51-1.22,2.73-2.73,2.73s-2.73-1.22-2.73-2.73,1.22-2.73,2.73-2.73,2.73,1.22,2.73,2.73Z"/>
          <path class="st4" d="M170.17,89.86c0,1.51-1.22,2.73-2.73,2.73s-2.73-1.22-2.73-2.73,1.22-2.73,2.73-2.73,2.73,1.22,2.73,2.73Z"/>
          <path class="st4" d="M146.6,78.73l-19.39,5.01s.88-5.44,8.82-7.42c7.93-1.98,10.58,2.41,10.58,2.41Z"/>
          <path class="st4" d="M158.92,78.73l19.39,5.01s-.88-5.44-8.82-7.42c-7.93-1.98-10.58,2.41-10.58,2.41Z"/>
          <path class="st15" d="M155.8,104.34h-5.03c-.34,0-.61-.27-.61-.61v-6.93c0-.34.27-.61.61-.61s.61.27.61.61v6.32h4.42c.34,0,.61.27.61.61s-.27.61-.61.61Z"/>
          <path class="st3" d="M169.13,109.56h-29.69s.83,7.8,14.07,7.83c12.21.02,15.61-7.83,15.61-7.83Z"/>
        </g>
        <path class="st19" d="M119.38,91.13s13.24-20.31,2.84-35.26c0,0-6.55.1-6.32,26l3.48,9.26Z"/>
        <path class="st19" d="M189.46,91.13s-13.24-20.31-2.84-35.26c0,0,6.55.1,6.32,26l-3.48,9.26Z"/>
        <path class="st19" d="M118.68,54.89s17.1,19.34,52.32,15.55c31.45-3.38,34.18-25.44,26.69-34.16-10.7-12.46-34.31-7.83-46.92,6.08l-32.08,12.52Z"/>
        <g>
          <polygon class="st12" points="133.38 161.75 154.29 188.64 174.42 163.18 133.38 161.75"/>
          <polygon class="st3" points="133.38 157.96 121.04 164.3 134.98 192.25 148.92 181.74 133.38 157.96"/>
          <polygon class="st3" points="174.52 157.96 188.41 164.49 173.73 192.25 159.9 181.44 174.52 157.96"/>
        </g>
      </g>
    </g>
  </g>
</svg>