<?xml version="1.0" encoding="UTF-8"?>
<svg id="Capa_1" xmlns="http://www.w3.org/2000/svg" version="1.1" xmlns:xlink="http://www.w3.org/1999/xlink" viewBox="0 0 1822.32 486.32">
  <!-- Generator: Adobe Illustrator 29.7.1, SVG Export Plug-In . SVG Version: 2.1.1 Build 8)  -->
  <defs>
    <style>
      .st0 {
        fill: #f8c22c;
      }

      .st1 {
        clip-path: url(#clippath-6);
      }

      .st2 {
        clip-path: url(#clippath-7);
      }

      .st3 {
        clip-path: url(#clippath-4);
      }

      .st4 {
        clip-path: url(#clippath-9);
      }

      .st5 {
        clip-path: url(#clippath-10);
      }

      .st6 {
        isolation: isolate;
        opacity: .24;
      }

      .st7 {
        fill: #fff;
      }

      .st8 {
        fill: #131313;
      }

      .st9 {
        fill: #066041;
      }

      .st10 {
        clip-path: url(#clippath-11);
      }

      .st11, .st12 {
        fill: none;
      }

      .st13 {
        fill: #067841;
      }

      .st14 {
        fill: #d5714c;
      }

      .st15 {
        fill: #068045;
      }

      .st16 {
        fill: #400e0e;
      }

      .st17 {
        clip-path: url(#clippath-1);
      }

      .st18 {
        fill: #ebac91;
      }

      .st19 {
        clip-path: url(#clippath-5);
      }

      .st20 {
        fill: #f0857e;
      }

      .st21 {
        fill: #fbc2a4;
      }

      .st22 {
        fill: #fae10f;
      }

      .st23 {
        clip-path: url(#clippath-8);
      }

      .st24 {
        clip-path: url(#clippath-3);
      }

      .st25 {
        fill: #065e41;
      }

      .st26 {
        clip-path: url(#clippath-12);
      }

      .st12 {
        stroke: #000;
        stroke-linecap: round;
        stroke-linejoin: round;
        stroke-width: .5px;
      }

      .st27 {
        fill: #100b08;
      }

      .st28 {
        fill: #daac46;
      }

      .st29 {
        clip-path: url(#clippath-2);
      }

      .st30 {
        fill: #ca8a68;
      }

      .st31 {
        clip-path: url(#clippath);
      }

      .st32 {
        fill: #330911;
      }

      .st33 {
        fill: #ff9a00;
      }
    </style>
    <clipPath id="clippath">
      <rect class="st11" width="1822.32" height="486.32"/>
    </clipPath>
    <clipPath id="clippath-1">
      <polygon class="st11" points="388.59 406.61 392.9 485.79 333.17 486.32 342.69 406.61 3 406.61 0 42.07 388.59 42.07 388.59 406.61"/>
    </clipPath>
    <clipPath id="clippath-2">
      <path class="st11" d="M89.6,389.7c11.3,8.44,26.86,9.41,40.2,7.5,13.34-1.91,29.68-7.71,35.68-21.16-11.29-9.68-27.54-11.7-41.69-9.49-13.6,2.13-29.28,9.23-34.2,23.16h0Z"/>
    </clipPath>
    <clipPath id="clippath-3">
      <path class="st11" d="M148.25,297.62c-10.07,9.61-8.93,25.19-7.51,36.74,1.65,13.44,9.31,29.27,22.13,36.81,10.77-9.06,10.61-24.51,9.56-36.12-1.28-14.07-10.31-30.31-24.19-37.43h0Z"/>
    </clipPath>
    <clipPath id="clippath-4">
      <path class="st11" d="M41.02,363.53c11.89,7.56,27.52,7.37,40.74,4.45,13.22-2.92,29.18-9.94,34.04-23.81-11.96-8.82-28.35-9.6-42.32-6.34-13.41,3.14-28.52,11.41-32.46,25.7h0Z"/>
    </clipPath>
    <clipPath id="clippath-5">
      <path class="st11" d="M7.39,289.68c5.25,13.75,18.72,23.36,31.42,29.48,13.16,6.36,30.54,11.33,44.8,5.09-3.86-14.63-17.56-26.06-30.33-31.46-13.82-5.85-30.98-11.55-45.9-3.11h.01Z"/>
    </clipPath>
    <clipPath id="clippath-6">
      <path class="st11" d="M92.58,267.26c-9.35,10.35-6.97,25.81-4.65,37.22,2.69,13.29,11.57,28.5,24.95,35.06,10.04-9.91,8.7-25.31,6.76-36.79-2.36-13.93-12.62-29.49-27.05-35.49h-.01Z"/>
    </clipPath>
    <clipPath id="clippath-7">
      <rect class="st11" x="1422.98" width="399.34" height="406.93"/>
    </clipPath>
    <clipPath id="clippath-8">
      <path class="st11" d="M1701.5,348.89c-14.14-2.21-30.39-.19-41.69,9.49,6,13.46,22.33,19.25,35.68,21.16,13.34,1.91,28.91.94,40.2-7.5-4.92-13.92-20.6-21.03-34.2-23.16h0Z"/>
    </clipPath>
    <clipPath id="clippath-9">
      <path class="st11" d="M1652.86,317.4c-1.04,11.61-1.2,27.06,9.56,36.12,12.82-7.54,20.48-23.37,22.13-36.81,1.42-11.55,2.57-27.13-7.51-36.74-13.88,7.11-22.91,23.36-24.19,37.43h0Z"/>
    </clipPath>
    <clipPath id="clippath-10">
      <path class="st11" d="M1751.82,320.18c-13.97-3.26-30.36-2.47-42.32,6.34,4.87,13.87,20.83,20.89,34.04,23.81,13.22,2.92,28.85,3.11,40.74-4.45-3.94-14.29-19.06-22.56-32.46-25.7h0Z"/>
    </clipPath>
    <clipPath id="clippath-11">
      <path class="st11" d="M1772.02,275.14c-12.77,5.4-26.47,16.83-30.33,31.46,14.26,6.23,31.64,1.27,44.8-5.09,12.69-6.12,26.17-15.72,31.42-29.48-14.92-8.44-32.08-2.74-45.9,3.11h0Z"/>
    </clipPath>
    <clipPath id="clippath-12">
      <path class="st11" d="M1705.67,285.1c-1.94,11.48-3.29,26.88,6.76,36.79,13.38-6.56,22.26-21.77,24.95-35.06,2.32-11.41,4.7-26.87-4.65-37.22-14.44,6.01-24.69,21.56-27.05,35.49h0Z"/>
    </clipPath>
  </defs>
  <g class="st31">
    <g>
      <path class="st12" d="M2177.72-116.12s-15.88-50.51-34.09-71.97"/>
      <g>
        <rect class="st33" x="144.04" y="96.52" width="1531.75" height="310.1" rx="13.02" ry="13.02"/>
        <g class="st17">
          <g>
            <g>
              <path class="st15" d="M192.37,392.77c-36.31-27.72-74.87-52.34-115.29-73.61-.72,1.41-1.03,2.08-1.73,3.43,39.95,21.03,78.1,45.35,114.02,72.7.97-.86,1.98-1.68,3-2.52Z"/>
              <path class="st15" d="M89.6,389.7c11.3,8.44,26.86,9.41,40.2,7.5,13.34-1.91,29.68-7.71,35.68-21.16-11.29-9.68-27.54-11.7-41.69-9.49-13.6,2.13-29.28,9.23-34.2,23.16h0Z"/>
              <g class="st29">
                <g>
                  <path class="st6" d="M114.82,355.46c-2.76,4.62,5.1,9.41,7.92,4.81,2.83-4.59-5.15-9.43-7.92-4.81Z"/>
                  <path class="st6" d="M92.11,390.87c4.21-1.18,8.43-2.29,12.68-3.33-3.28,4.1-7.55,7.29-12.4,9.27-.86.36-.13,1.63.72,1.29,5.63-2.29,10.49-6.14,13.99-11.11h0c5.61-1.33,11.29-2.55,17.01-3.63-3.52,7.68-9.68,13.83-17.36,17.35-.85.39-.14,1.69.7,1.3,8.24-3.76,14.78-10.44,18.37-18.75l.17-.25c5.99-1.12,12.03-2.08,18.13-2.9-3.04,9.16-9.07,17.05-17.11,22.4-.78.53.24,1.64,1,1.13,8.48-5.64,14.77-14.02,17.81-23.74h0c3.26-.43,6.55-.82,9.85-1.17-2.6,9.19-8.16,17.25-15.83,22.93-.74.56.26,1.7,1,1.15,8.08-5.97,13.9-14.51,16.49-24.22l.14-.07c3.57-.37,7.16-.67,10.78-.94.98-.07.62-1.53-.35-1.49-3.57.27-7.13.57-10.68.93-6.28-7.22-14.43-12.57-23.56-15.43l-.1-.03c-.39-.08-.77.17-.85.57s.17.77.57.85c8.53,2.67,16.19,7.59,22.18,14.23-3.26.33-6.49.72-9.7,1.14l-.34.02c-8.05-7.64-18.05-12.92-28.9-15.24-.97-.21-1.34,1.19-.36,1.39,10.23,2.17,19.71,7.02,27.44,14.07-6.2.86-12.36,1.85-18.45,2.98-7.76-6.09-17.07-9.86-26.88-10.89-.95-.1-.9,1.36.07,1.46,9.04.97,17.64,4.35,24.92,9.79-5.42,1.04-10.77,2.18-16.07,3.44-5.36-3.46-11.5-5.55-17.85-6.1-.94-.07-.89,1.37.07,1.46,5.6.48,11.03,2.24,15.85,5.12-11.54,2.81-22.83,6.12-33.85,9.94-.87.34-.47,1.69.4,1.39,6.68-2.32,13.44-4.42,20.29-6.31h.01Z"/>
                </g>
              </g>
              <path class="st15" d="M148.25,297.62c-10.07,9.61-8.93,25.19-7.51,36.74,1.65,13.44,9.31,29.27,22.13,36.81,10.77-9.06,10.61-24.51,9.56-36.12-1.28-14.07-10.31-30.31-24.19-37.43h0Z"/>
              <g class="st24">
                <g>
                  <path class="st6" d="M184.13,329.67c-4.72-3.83-9.83,2.2-5.19,5.99,4.68,3.78,9.9-2.16,5.19-5.99Z"/>
                  <path class="st6" d="M147.13,300.09c1.26,4.23,2.43,8.47,3.55,12.72-4.26-3.77-7.65-8.41-9.97-13.61-.32-.9-1.76-.42-1.37.46,2.71,6.01,6.8,11.29,11.92,15.44h0c1.43,5.57,2.72,11.2,3.89,16.71-7.9-4.62-14.29-11.42-18.43-19.57-.43-.87-1.79-.4-1.37.47,4.46,8.71,11.39,15.92,19.9,20.72.07.09.16.16.27.21,1.16,5.81,2.2,11.6,3.11,17.4-9.33-4.54-17.36-11.36-23.36-19.83h0c-.22-.31-.64-.39-.96-.17s-.39.64-.17.96c6.31,8.91,14.82,16.03,24.71,20.65h0c.47,3.09.9,6.19,1.29,9.29-9.28-4.12-17.39-10.48-23.59-18.52-.6-.77-1.74.01-1.14.78,6.52,8.43,15.08,15.07,24.88,19.29l.07.14c.41,3.34.78,6.69,1.11,10.03.09.88,1.5.84,1.46-.07-.31-3.33-.68-6.65-1.08-9.97,7.06-4.18,12.54-10.56,15.61-18.16.32-.77-1.09-1.5-1.42-.69-2.85,7.12-7.9,13.14-14.41,17.19-.38-3.04-.79-6.09-1.25-9.14l-.02-.32c7.65-5.81,13.19-13.96,15.77-23.22.22-.85-1.21-1.54-1.45-.7-2.41,8.74-7.53,16.48-14.62,22.13-.91-5.93-1.98-11.84-3.19-17.71,6.33-6.02,10.44-13.99,11.67-22.64.12-.89-1.43-1.21-1.55-.32-1.14,7.99-4.82,15.39-10.49,21.12-1.11-5.27-2.27-10.54-3.65-15.81,3.71-4.4,6.03-9.78,6.68-15.49.1-.9-1.46-1.18-1.56-.3-.58,5.04-2.52,9.84-5.62,13.86-2.94-11.58-6.53-23.19-10.58-34.4-.33-.93-1.87-.83-1.53.08,2.48,6.95,4.78,13.93,6.9,20.98h-.01Z"/>
                </g>
              </g>
              <path class="st15" d="M41.02,363.53c11.89,7.56,27.52,7.37,40.74,4.45,13.22-2.92,29.18-9.94,34.04-23.81-11.96-8.82-28.35-9.6-42.32-6.34-13.41,3.14-28.52,11.41-32.46,25.7h0Z"/>
              <g class="st3">
                <g>
                  <path class="st6" d="M63.66,327.45c-2.41,4.82,5.82,8.98,8.29,4.2,2.46-4.78-5.88-9.02-8.29-4.2Z"/>
                  <path class="st6" d="M43.67,364.4c4.1-1.5,8.24-2.96,12.41-4.28-2.95,4.34-6.96,7.85-11.67,10.19-.84.42,0,1.64.82,1.23,5.49-2.68,10.09-6.9,13.23-12.14h0c5.51-1.76,11.08-3.39,16.71-4.91-2.92,7.93-8.6,14.56-16.01,18.63-.81.45,0,1.69.81,1.24,7.93-4.37,13.95-11.52,16.9-20.08l.14-.27c5.9-1.55,11.86-2.96,17.87-4.25-2.33,9.37-7.73,17.7-15.35,23.65-.73.58.37,1.63,1.09,1.06,8.02-6.28,13.66-15.11,15.96-25.03h0c3.23-.66,6.44-1.31,9.75-1.9-1.88,9.36-6.8,17.84-14.03,24.1-.7.6.38,1.66,1.08,1.06,7.61-6.57,12.77-15.51,14.61-25.4l.13-.08c3.54-.62,7.11-1.21,10.69-1.74.97-.15.51-1.6-.46-1.45-3.55.54-7.07,1.12-10.58,1.73-6.82-6.73-15.38-11.44-24.72-13.62-.06-.02-.12-.03-.19-.03-.4-.02-.74.28-.77.68s.28.74.68.77c8.72,2.03,16.75,6.36,23.24,12.53-3.22.58-6.42,1.2-9.59,1.87l-.34.02c-8.63-7-19.02-11.48-30.03-12.96-.05,0-.1-.02-.15-.03-.39-.02-.74.27-.77.67-.02.39.27.74.67.77,10.37,1.38,20.19,5.49,28.45,11.92-6.14,1.31-12.2,2.77-18.2,4.36-8.22-5.49-17.82-8.54-27.69-8.82-.98-.03-.82,1.42.15,1.45,9.1.29,17.97,3,25.67,7.88-5.33,1.45-10.59,3-15.8,4.65-5.62-3.06-11.9-4.7-18.29-4.76-.97-.02-.81,1.43.15,1.44,5.64.07,11.19,1.42,16.24,3.92-11.34,3.68-22.36,7.84-33.07,12.47-.85.31-.35,1.73.51,1.35,6.5-2.8,13.08-5.43,19.75-7.89h0Z"/>
                </g>
              </g>
              <path class="st15" d="M7.39,289.68c5.25,13.75,18.72,23.36,31.42,29.48,13.16,6.36,30.54,11.33,44.8,5.09-3.86-14.63-17.56-26.06-30.33-31.46-13.82-5.85-30.98-11.55-45.9-3.11h.01Z"/>
              <g class="st19">
                <g>
                  <path class="st6" d="M52.82,279.38c-5.69,1.64-1.84,9.84,3.76,8.24,5.58-1.6,1.93-9.88-3.76-8.24Z"/>
                  <path class="st6" d="M9.06,292.16c4.58,1.58,9.12,3.25,13.62,4.98-5.63,1.2-11.45,1.14-17.05-.18-1-.24-1.12,1.2-.13,1.43,6.46,1.53,13.2,1.44,19.61-.29h0c5.91,2.32,11.76,4.75,17.55,7.31-8.27,3.75-17.52,4.82-26.44,3.06-1-.18-1.16,1.25-.16,1.43,9.55,1.86,19.43.59,28.2-3.6l.32-.09c6.03,2.7,11.98,5.53,17.88,8.49-8.9,5.05-19.04,7.46-29.26,6.94-.98-.04-.79,1.41.21,1.46,10.74.54,21.41-2.09,30.68-7.54h0c3.14,1.59,6.27,3.24,9.38,4.92-8.54,5.27-18.39,8.01-28.43,7.93-1.01,0-.81,1.5.17,1.45,10.54.09,20.88-2.86,29.78-8.5h.17c3.36,1.83,6.68,3.68,9.98,5.6.34.18.78.05.97-.29s.05-.78-.29-.97c-3.27-1.89-6.57-3.75-9.89-5.57-.86-9.23-4.51-17.98-10.47-25.08-.65-.79-1.93-.02-1.26.77,5.58,6.63,9.09,14.76,10.09,23.38-3.06-1.66-6.14-3.28-9.23-4.86l-.33-.16c-2.31-10.74-7.72-20.57-15.57-28.27-.73-.73-1.99.07-1.25.8,7.43,7.26,12.64,16.48,15.05,26.58-6.02-3.02-12.1-5.9-18.26-8.64-3.24-9.52-9.16-17.91-17.04-24.16-.32-.25-.79-.21-1.04.12s-.21.79.12,1.04c7.27,5.8,12.82,13.47,16.04,22.2-5.48-2.43-11.02-4.75-16.61-6.95-2.78-6.03-6.97-11.27-12.25-15.31-.32-.24-.79-.18-1.03.14-.24.31-.18.78.14,1.02,4.65,3.57,8.43,8.15,11.07,13.38-12.11-4.75-24.66-8.96-37.16-12.53-.99-.28-1.48,1.06-.49,1.34,7.61,2.2,15.15,4.61,22.62,7.24v-.02Z"/>
                </g>
              </g>
              <path class="st15" d="M92.58,267.26c-9.35,10.35-6.97,25.81-4.65,37.22,2.69,13.29,11.57,28.5,24.95,35.06,10.04-9.91,8.7-25.31,6.76-36.79-2.36-13.93-12.62-29.49-27.05-35.49h-.01Z"/>
              <g class="st1">
                <g>
                  <path class="st6" d="M130.9,296.5c-5.02-3.45-9.68,2.94-4.73,6.36,4.97,3.43,9.75-2.91,4.73-6.36Z"/>
                  <path class="st6" d="M91.63,269.63c1.6,4.13,3.1,8.27,4.54,12.42-4.54-3.43-8.3-7.8-11.01-12.81-.46-.87-1.8-.29-1.34.56,3.15,5.82,7.64,10.79,13.11,14.53h0c1.86,5.44,3.58,10.91,5.17,16.39-8.23-4.03-15.14-10.31-19.92-18.14-.51-.84-1.83-.27-1.33.56,5.11,8.37,12.58,15.05,21.45,19.23.08.08.17.15.29.19,1.64,5.7,3.13,11.41,4.48,17.12-9.67-3.82-18.21-10.02-24.86-18.02-.01-.02-.04-.04-.05-.06-.25-.29-.68-.3-.97-.05s-.31.7-.05.97c7,8.4,16.05,14.86,26.28,18.71h0c.71,3.06,1.39,6.11,2.02,9.17-9.58-3.41-18.17-9.15-25-16.7-.65-.74-1.72.13-1.07.86,7.17,7.92,16.23,13.9,26.34,17.38l.08.13c.67,3.31,1.3,6.62,1.88,9.93.16.89,1.6.75,1.44-.15-.57-3.28-1.18-6.54-1.84-9.82,6.72-4.69,11.71-11.48,14.19-19.31.26-.84-1.21-1.42-1.47-.58-2.3,7.32-6.87,13.71-13.05,18.25-.62-3.01-1.26-6.02-1.96-9.02l-.08-.32c7.19-6.37,12.1-14.92,13.96-24.35.17-.87-1.33-1.45-1.49-.58-1.72,8.9-6.23,17.03-12.87,23.2-1.37-5.81-2.89-11.62-4.56-17.43,5.85-6.49,9.33-14.76,9.88-23.47.05-.89-1.51-1.09-1.57-.2-.53,8.04-3.63,15.72-8.85,21.86-1.5-5.17-3.13-10.34-4.87-15.5,3.35-4.66,5.23-10.21,5.42-15.94.03-.89-1.55-1.08-1.58-.19-.17,5.08-1.72,10-4.49,14.25-3.83-11.33-8.33-22.63-13.25-33.52-.4-.88-1.93-.67-1.54.21,3.03,6.75,5.87,13.5,8.52,20.25h.02Z"/>
                </g>
              </g>
            </g>
            <g>
              <path class="st16" d="M219.71,76.65s-4.24,30.74-40.56,49.93c-38.72,20.46-11.2,82.01,56.16,84.09,73.17,2.26,113.13-63.64,58.38-146.23l-73.99,12.21h0Z"/>
              <g>
                <polygon class="st18" points="242.37 172.4 242.76 119.34 275.17 119.34 275.86 173.01 242.37 172.4"/>
                <path class="st30" d="M238.65,134.89c-1.72-4.69,11.23,21.76,24.67,20.04,11.53-1.48,13.47-22.23,13.47-22.23,0,0-5.34,7.9-17.5,7.91-13.57.02-20.64-5.72-20.64-5.72h0Z"/>
                <path class="st16" d="M219.33,90.08c4.12,23.65,17.87,43.56,39.92,43.56s37.2-19.68,39.92-43.56c3.08-27.1-17.87-43.1-39.92-43.1s-44.15,18.81-39.92,43.1Z"/>
                <g>
                  <path class="st18" d="M224.75,102.41s-2.87-4.57-8.8-2.32c-5.93,2.25-3.25,16.65,5.65,18.48,0,0,3.19.7,5.69-1.49,0,0-2.19-10.63-2.53-14.67h0Z"/>
                  <path class="st27" d="M225.61,111.4c-.21,0-.41-.12-.51-.32-3.25-6.74-7.62-5.42-7.8-5.36-.29.09-.62-.06-.72-.36s.06-.62.36-.72c.06-.02,5.49-1.73,9.18,5.95.14.28.02.62-.27.76-.08.04-.16.06-.25.06h.01Z"/>
                </g>
                <g>
                  <path class="st18" d="M292.83,102.41s2.87-4.57,8.8-2.32,3.25,16.65-5.65,18.48c0,0-3.19.7-5.69-1.49,0,0,2.19-10.63,2.53-14.67h.01Z"/>
                  <path class="st27" d="M291.96,111.4c-.08,0-.17-.02-.25-.06-.28-.14-.4-.48-.27-.76,3.7-7.67,9.13-5.97,9.18-5.95.3.1.46.42.36.72s-.42.46-.72.36c-.19-.06-4.56-1.37-7.8,5.36-.1.2-.3.32-.51.32h.01Z"/>
                </g>
                <path class="st18" d="M224.19,90.01c0,9.23.95,26.58,6.93,38.04,5.62,10.76,15.61,16.22,27.79,16.23,12,0,22.99-8.17,27.8-17.4,7.27-13.96,6.92-36.69,6.92-36.69,0,0,0-32.96-34.35-32.96-36.18,0-35.1,32.79-35.1,32.79h.01Z"/>
                <g>
                  <path class="st8" d="M251.18,88.42l-18.84,4.87s.86-5.28,8.56-7.2c7.71-1.92,10.28,2.34,10.28,2.34h0Z"/>
                  <path class="st8" d="M263.16,88.42l18.84,4.87s-.86-5.28-8.56-7.2c-7.71-1.92-10.28,2.34-10.28,2.34h0Z"/>
                  <path class="st27" d="M260.12,111.32h-4.89c-.16,0-.32-.07-.43-.19-.11-.12-.16-.29-.14-.45l.85-6.73c.04-.31.32-.53.64-.49.31.04.53.32.49.64l-.77,6.09h4.24c.31,0,.57.25.57.57s-.26.57-.57.57h0Z"/>
                  <path class="st7" d="M272.15,116.46h-27.44s.79,10.09,13.65,10.12c11.86.02,13.79-10.12,13.79-10.12Z"/>
                  <path class="st27" d="M237.67,99.8c-.19,0-.38-.1-.49-.28-.16-.27-.07-.62.19-.78,4.62-2.79,9.94-.13,10.17-.02.28.14.39.48.25.77-.14.28-.48.39-.76.25-.05-.02-4.99-2.47-9.07-.02-.09.06-.19.08-.29.08Z"/>
                  <path class="st27" d="M267.64,99.8c-.19,0-.38-.1-.49-.28-.16-.27-.07-.62.19-.78,4.62-2.79,9.94-.13,10.17-.02.28.14.39.48.25.77-.14.28-.48.39-.76.25-.05-.02-4.99-2.47-9.07-.02-.09.06-.19.08-.29.08Z"/>
                </g>
                <path class="st16" d="M292.83,102.41s-9.15-18.13-2.76-34.25c0,0,6.36.1,6.14,25.25l-3.38,9Z"/>
                <path class="st16" d="M224.75,102.41s9.12-19.26,2.76-34.25c0,0-6.36.1-6.14,25.25l3.38,9Z"/>
                <path class="st16" d="M299.47,82.17s-49.54-2.93-63.9-23.01c0,0,4.69-12.49,26.76-9.03s37.14,32.04,37.14,32.04h0Z"/>
                <path class="st16" d="M255.88,54.01s-14.02,29.12-34.06,28.14c0,0,11.01-27.86,34.06-28.14Z"/>
              </g>
              <g>
                <path class="st13" d="M227.21,504.79s14.69-72.93,23.34-92.81c.78-1.8,3.4-1.57,3.92.33,2.08,7.58,4.83,29.91,3.6,95.63l.03,26.86h57.71l9.04-64.65c.46-4.96,18.99-85.99-27.56-148.47h-90.34s-36.52,62.82-41.56,139.65c-1.12,17.1-1.52,43.21-3.85,73.47h59.27l6.4-30.01h0Z"/>
                <rect class="st25" x="239.33" y="390.21" width="2.22" height="32.03" transform="translate(-226.54 475.19) rotate(-67.78)"/>
              </g>
              <g>
                <g>
                  <g>
                    <path class="st22" d="M183.08,181.73s-18.92,2.69-32.77,50.08l37.28,21.37,22-30.26-26.51-41.19Z"/>
                    <path class="st18" d="M187.6,253.18s-24.75,38.82-30.63,45.8c-6.08,7.22-15.28,10.8-23.28,5.8h0c-7.2-4.5-9.87-13.7-6.2-21.36l25.7-50.17,34.41,19.93Z"/>
                  </g>
                  <g>
                    <polygon class="st18" points="127.82 181.8 157.46 278.25 125.85 292 106.84 183.23 127.82 181.8"/>
                    <g>
                      <g>
                        <path class="st18" d="M125.78,186.6l4.63-4.46c3.39-3.27,5.5-7.65,5.92-12.34l1.19-13.08s.75-6.89-12.95-5.16-14.51,1.82-14.35,5.88c0,0,2.51,5.64,11.34,6.79l4.22,22.38h0Z"/>
                        <path class="st18" d="M108.44,188.6s-13.53-7.5-14.16-31.2c-.07-2.73,1.28-5.32,3.56-6.82,3.51-2.31,13.63-8.12,19.05-4.41l9.5,12.26-.61,28.16-17.34,2h0Z"/>
                        <path class="st18" d="M128.37,154.3l7.55-38.18c.45-2.27-1.01-4.49-3.28-4.97h0c-2.26-.48-4.5.94-5.02,3.19l-6.67,28.88-3.2.61-11.07-29.22c-.78-2.05-3.11-3.04-5.13-2.18h0c-1.77.76-2.71,2.69-2.21,4.55l10.86,40.45,18.15-3.13h.02Z"/>
                      </g>
                      <path class="st14" d="M114.49,174.48l-1.11-.04c.21-5.72,3.75-8.61,6.06-9.89-10.04-1.4-9.79-6.91-9.77-7.16.03-1.44.62-2.69,1.76-3.71,4.65-4.14,17.07-3.01,17.59-2.96l-.1,1.1c-.13,0-12.47-1.14-16.75,2.68-.92.82-1.37,1.78-1.39,2.93-.01.24-.15,5.43,10.83,6.22l3.13.23-3.02.86c-.28.08-6.94,2.06-7.22,9.73h-.01Z"/>
                    </g>
                    <rect class="st14" x="150.59" y="244.34" width="1.11" height="26.8" transform="translate(-69.03 55.76) rotate(-17.08)"/>
                  </g>
                </g>
                <g>
                  <g>
                    <path class="st18" d="M310.16,237.08s29.44,103.55,40.72,190.34l18.97-3.6s-2.9-127.16-22.03-205.83l-37.66,19.09h0Z"/>
                    <path class="st18" d="M369.7,419.47s28.55,42.16-5.71,61.11c-2.26,1.25-5.11.74-6.78-1.23l-.22-.26c-1.84-2.17-1.63-5.35.37-7.38,4.87-4.93,11.41-15.16.98-28.51,0,0-5.48,1.4-4.56,12.27.24,2.8-2.09,5.15-4.88,4.89h0c-1.91-.18-3.47-1.55-3.94-3.4-1.8-7.17-4.77-24.94,6.69-34.49l18.06-2.99h-.01Z"/>
                  </g>
                  <path class="st22" d="M328.3,190.37s27.09,8.89,31.84,51.58l-44.02,16.69-9.91-27.07,22.09-41.19h0Z"/>
                </g>
                <g>
                  <polygon class="st22" points="302.29 180.48 328.73 190.48 297.27 309.44 206.94 309.44 183.08 181.73 214.4 174.46 302.29 180.48"/>
                  <g>
                    <rect class="st8" x="206.94" y="309.44" width="90.34" height="12.24"/>
                    <rect class="st28" x="190" y="211.34" width="2.22" height="32.56" transform="translate(-44.61 46.59) rotate(-12.46)"/>
                    <rect class="st28" x="299.37" y="231.2" width="36.68" height="2.22" transform="translate(11.09 479.06) rotate(-75)"/>
                  </g>
                  <path class="st18" d="M267.52,166.62l34.77,13.86s-4.04,13.69-44.85,13.69c-35.55,0-43.04-19.71-43.04-19.71l33.77-7.84h19.35Z"/>
                </g>
              </g>
            </g>
          </g>
        </g>
        <g class="st2">
          <g>
            <g>
              <path class="st15" d="M1635.94,377.64c35.92-27.36,74.07-51.68,114.02-72.7-.7-1.35-1.01-2.02-1.73-3.43-40.42,21.27-78.99,45.89-115.29,73.61,1.03.84,2.03,1.66,3,2.52h0Z"/>
              <path class="st15" d="M1701.5,348.89c-14.14-2.21-30.39-.19-41.69,9.49,6,13.46,22.33,19.25,35.68,21.16,13.34,1.91,28.91.94,40.2-7.5-4.92-13.92-20.6-21.03-34.2-23.16h0Z"/>
              <g class="st23">
                <g>
                  <path class="st6" d="M1702.57,342.62c2.82,4.6,10.68-.19,7.92-4.81s-10.75.22-7.92,4.81Z"/>
                  <path class="st6" d="M1753.49,379.52c.88.3,1.28-1.05.4-1.39-11.02-3.82-22.31-7.13-33.85-9.94,4.82-2.89,10.25-4.64,15.85-5.12.96-.08,1.01-1.53.07-1.46-6.35.55-12.48,2.64-17.85,6.1-5.3-1.26-10.66-2.4-16.07-3.44,7.28-5.43,15.88-8.82,24.92-9.79.97-.1,1.03-1.55.07-1.46-9.81,1.03-19.12,4.8-26.88,10.89-6.09-1.13-12.24-2.12-18.45-2.98,7.73-7.05,17.21-11.9,27.44-14.07.98-.2.6-1.6-.36-1.39-10.85,2.32-20.85,7.6-28.9,15.24l-.34-.02c-3.21-.42-6.44-.81-9.7-1.14,5.99-6.65,13.65-11.56,22.18-14.23.39-.08.65-.46.57-.85s-.46-.65-.85-.57l-.1.03c-9.12,2.87-17.28,8.21-23.56,15.43-3.55-.36-7.11-.66-10.68-.93-.98-.05-1.33,1.41-.35,1.49,3.62.26,7.21.57,10.78.94l.14.07c2.59,9.71,8.41,18.26,16.49,24.22.74.55,1.74-.59,1-1.15-7.68-5.68-13.24-13.74-15.83-22.93,3.3.35,6.59.73,9.85,1.17h0c3.04,9.72,9.33,18.1,17.81,23.74.77.51,1.78-.6,1-1.13-8.04-5.35-14.06-13.24-17.11-22.4,6.09.82,12.14,1.78,18.13,2.9l.17.25c3.59,8.31,10.13,14.99,18.37,18.75.84.39,1.55-.91.7-1.3-7.68-3.52-13.84-9.67-17.36-17.35,5.73,1.08,11.4,2.3,17.01,3.63h0c3.5,4.97,8.36,8.82,13.99,11.11.85.34,1.58-.93.72-1.29-4.86-1.98-9.13-5.17-12.4-9.27,4.26,1.04,8.48,2.14,12.68,3.33,6.85,1.88,13.62,3.99,20.29,6.31h0Z"/>
                </g>
              </g>
              <path class="st15" d="M1652.86,317.4c-1.04,11.61-1.2,27.06,9.56,36.12,12.82-7.54,20.48-23.37,22.13-36.81,1.42-11.55,2.57-27.13-7.51-36.74-13.88,7.11-22.91,23.36-24.19,37.43h0Z"/>
              <g class="st4">
                <g>
                  <path class="st6" d="M1646.36,318c4.65-3.78-.47-9.81-5.19-5.99-4.72,3.83.51,9.77,5.19,5.99Z"/>
                  <path class="st6" d="M1685.07,261.46c.34-.91-1.21-1.01-1.53-.08-4.05,11.21-7.65,22.82-10.58,34.4-3.1-4.02-5.04-8.82-5.62-13.86-.1-.88-1.66-.6-1.56.3.65,5.71,2.97,11.1,6.68,15.49-1.38,5.26-2.54,10.54-3.65,15.81-5.67-5.73-9.35-13.14-10.49-21.12-.12-.89-1.68-.56-1.55.32,1.23,8.65,5.34,16.62,11.67,22.64-1.21,5.87-2.28,11.78-3.19,17.71-7.09-5.65-12.21-13.39-14.62-22.13-.24-.85-1.67-.15-1.45.7,2.58,9.25,8.13,17.41,15.77,23.22l-.02.32c-.47,3.05-.88,6.09-1.25,9.14-6.51-4.05-11.56-10.07-14.41-17.19-.33-.82-1.73-.09-1.42.69,3.07,7.61,8.55,13.99,15.61,18.16-.4,3.32-.77,6.64-1.08,9.97-.05.91,1.37.95,1.46.07.33-3.35.7-6.69,1.11-10.03l.07-.14c9.79-4.21,18.36-10.85,24.88-19.29.6-.77-.54-1.55-1.14-.78-6.2,8.04-14.3,14.4-23.59,18.52.39-3.1.83-6.19,1.29-9.29h0c9.89-4.62,18.4-11.74,24.71-20.65.22-.31.14-.74-.17-.96s-.74-.14-.96.17h0c-6,8.47-14.03,15.29-23.36,19.83.91-5.8,1.95-11.59,3.11-17.4.1-.05.2-.12.27-.21,8.52-4.8,15.44-12.01,19.9-20.72.42-.87-.93-1.34-1.37-.47-4.14,8.15-10.53,14.95-18.43,19.57,1.17-5.51,2.46-11.13,3.89-16.71h0c5.12-4.15,9.21-9.43,11.92-15.44.39-.88-1.04-1.36-1.37-.46-2.31,5.2-5.71,9.83-9.97,13.61,1.12-4.24,2.29-8.48,3.55-12.72,2.12-7.04,4.42-14.03,6.9-20.98h-.01Z"/>
                </g>
              </g>
              <path class="st15" d="M1751.82,320.18c-13.97-3.26-30.36-2.47-42.32,6.34,4.87,13.87,20.83,20.89,34.04,23.81,13.22,2.92,28.85,3.11,40.74-4.45-3.94-14.29-19.06-22.56-32.46-25.7h0Z"/>
              <g class="st5">
                <g>
                  <path class="st6" d="M1753.36,314c2.46,4.78,10.69.62,8.29-4.2-2.41-4.82-10.75-.58-8.29,4.2Z"/>
                  <path class="st6" d="M1801.39,354.64c.86.38,1.37-1.04.51-1.35-10.71-4.63-21.73-8.78-33.07-12.47,5.05-2.51,10.6-3.85,16.24-3.92.96,0,1.12-1.46.15-1.44-6.4.07-12.67,1.71-18.29,4.76-5.21-1.66-10.47-3.2-15.8-4.65,7.7-4.88,16.57-7.59,25.67-7.88.97-.03,1.13-1.48.15-1.45-9.87.28-19.47,3.34-27.69,8.82-6-1.6-12.06-3.05-18.2-4.36,8.25-6.43,18.07-10.54,28.45-11.92.4-.02.7-.38.67-.77-.02-.4-.38-.7-.77-.67-.05,0-.1.02-.15.03-11.01,1.48-21.41,5.95-30.03,12.96l-.34-.02c-3.17-.66-6.37-1.29-9.59-1.87,6.49-6.17,14.52-10.5,23.24-12.53.4-.02.71-.36.68-.77s-.36-.71-.77-.68c-.07,0-.13.02-.19.03-9.34,2.18-17.9,6.89-24.72,13.62-3.51-.61-7.03-1.19-10.58-1.73-.97-.15-1.44,1.3-.46,1.45,3.58.54,7.15,1.12,10.69,1.74l.13.08c1.84,9.88,7,18.83,14.61,25.4.69.6,1.78-.46,1.08-1.06-7.22-6.26-12.15-14.74-14.03-24.1,3.31.59,6.52,1.23,9.75,1.9h0c2.3,9.92,7.94,18.75,15.96,25.03.72.57,1.82-.48,1.09-1.06-7.62-5.95-13.02-14.28-15.35-23.65,6.02,1.28,11.97,2.7,17.87,4.25l.14.27c2.95,8.56,8.97,15.71,16.9,20.08.81.45,1.62-.79.81-1.24-7.41-4.07-13.09-10.7-16.01-18.63,5.64,1.52,11.2,3.15,16.71,4.91h0c3.14,5.24,7.74,9.46,13.23,12.14.83.41,1.66-.81.82-1.23-4.7-2.34-8.71-5.85-11.67-10.19,4.18,1.33,8.31,2.78,12.41,4.28,6.67,2.46,13.25,5.09,19.75,7.89h0Z"/>
                </g>
              </g>
              <path class="st15" d="M1772.02,275.14c-12.77,5.4-26.47,16.83-30.33,31.46,14.26,6.23,31.64,1.27,44.8-5.09,12.69-6.12,26.17-15.72,31.42-29.48-14.92-8.44-32.08-2.74-45.9,3.11h0Z"/>
              <g class="st10">
                <g>
                  <path class="st6" d="M1768.72,269.96c5.6,1.6,9.44-6.6,3.76-8.24s-9.33,6.64-3.76,8.24Z"/>
                  <path class="st6" d="M1838.86,267.27c.99-.28.51-1.62-.49-1.34-12.5,3.57-25.05,7.77-37.16,12.53,2.64-5.23,6.42-9.81,11.07-13.38.32-.24.38-.7.14-1.02-.24-.32-.7-.38-1.03-.14-5.27,4.03-9.47,9.28-12.25,15.31-5.59,2.2-11.13,4.53-16.61,6.95,3.21-8.72,8.77-16.39,16.04-22.2.32-.25.37-.72.12-1.04s-.72-.37-1.04-.12c-7.88,6.25-13.79,14.64-17.04,24.16-6.15,2.74-12.23,5.62-18.26,8.64,2.42-10.1,7.63-19.31,15.05-26.58.74-.73-.52-1.53-1.25-.8-7.85,7.7-13.26,17.53-15.57,28.27l-.33.16c-3.1,1.58-6.18,3.2-9.23,4.86,1-8.61,4.51-16.74,10.09-23.38.66-.79-.61-1.56-1.26-.77-5.96,7.1-9.61,15.85-10.47,25.08-3.32,1.81-6.62,3.67-9.89,5.57-.34.18-.48.62-.29.97s.62.48.97.29c3.3-1.92,6.63-3.77,9.98-5.61h.17c8.9,5.65,19.24,8.6,29.78,8.51.99.05,1.19-1.45.17-1.45-10.04.08-19.89-2.67-28.43-7.93,3.11-1.68,6.24-3.33,9.38-4.92h0c9.27,5.46,19.94,8.08,30.68,7.54.99-.05,1.19-1.5.21-1.46-10.22.52-20.36-1.89-29.26-6.94,5.9-2.96,11.85-5.79,17.88-8.49l.32.09c8.78,4.19,18.66,5.45,28.2,3.6,1-.18.84-1.62-.16-1.43-8.92,1.75-18.16.68-26.44-3.06,5.8-2.56,11.65-4.99,17.55-7.31h0c6.41,1.73,13.15,1.82,19.61.29.99-.23.88-1.67-.13-1.43-5.6,1.32-11.42,1.38-17.05.18,4.5-1.73,9.04-3.4,13.62-4.98,7.47-2.63,15.01-5.04,22.62-7.24v.02Z"/>
                </g>
              </g>
              <path class="st15" d="M1705.67,285.1c-1.94,11.48-3.29,26.88,6.76,36.79,13.38-6.56,22.26-21.77,24.95-35.06,2.32-11.41,4.7-26.87-4.65-37.22-14.44,6.01-24.69,21.56-27.05,35.49h0Z"/>
              <g class="st26">
                <g>
                  <path class="st6" d="M1699.14,285.22c4.95-3.42.29-9.82-4.73-6.36s-.24,9.8,4.73,6.36Z"/>
                  <path class="st6" d="M1742.19,231.73c.39-.88-1.14-1.09-1.54-.21-4.92,10.89-9.42,22.19-13.25,33.52-2.77-4.25-4.32-9.17-4.49-14.25-.03-.89-1.61-.71-1.58.19.19,5.73,2.07,11.29,5.42,15.94-1.74,5.16-3.37,10.33-4.87,15.5-5.22-6.14-8.32-13.82-8.85-21.86-.05-.89-1.62-.69-1.57.2.55,8.71,4.03,16.99,9.88,23.47-1.66,5.81-3.18,11.62-4.56,17.43-6.64-6.17-11.15-14.31-12.87-23.2-.16-.87-1.66-.28-1.49.58,1.86,9.43,6.76,17.98,13.96,24.35l-.08.32c-.7,3-1.34,6.01-1.96,9.02-6.19-4.53-10.75-10.92-13.05-18.25-.26-.84-1.72-.25-1.47.58,2.48,7.82,7.47,14.61,14.19,19.31-.67,3.27-1.28,6.54-1.84,9.82-.16.91,1.28,1.05,1.44.15.58-3.31,1.22-6.62,1.88-9.93l.08-.13c10.11-3.47,19.17-9.45,26.34-17.38.65-.72-.42-1.59-1.07-.86-6.83,7.55-15.42,13.28-25,16.7.63-3.06,1.31-6.11,2.02-9.17h0c10.23-3.86,19.29-10.32,26.28-18.71.26-.28.24-.72-.05-.97s-.72-.24-.97.05c-.01.02-.04.04-.05.06-6.64,7.99-15.19,14.2-24.86,18.02,1.35-5.71,2.84-11.43,4.48-17.12.11-.04.21-.1.29-.19,8.88-4.17,16.34-10.85,21.45-19.23.5-.83-.82-1.4-1.33-.56-4.77,7.82-11.68,14.11-19.92,18.14,1.59-5.48,3.32-10.95,5.17-16.39h0c5.47-3.73,9.96-8.71,13.11-14.53.45-.85-.89-1.43-1.34-.56-2.7,5.01-6.47,9.37-11.01,12.81,1.44-4.15,2.94-8.29,4.54-12.42,2.65-6.75,5.49-13.5,8.52-20.25h.02Z"/>
                </g>
              </g>
            </g>
            <g>
              <g>
                <polygon class="st13" points="1641.56 345.14 1677.84 530.72 1607.51 530.72 1580.54 408.07 1574.34 407.7 1574.24 530.72 1504.12 530.72 1507.69 345.14 1641.56 345.14"/>
                <rect class="st9" x="1562.46" y="405.73" width="40.04" height="2.22"/>
              </g>
              <g>
                <g>
                  <g>
                    <path class="st21" d="M1673.88,214.89l66.19-16.93c13.18-3.7,20.98-17.28,17.54-30.53h0c-3.55-13.66-17.63-21.72-31.21-17.87l-66.27,18.82,13.75,46.51h0Z"/>
                    <polygon class="st22" points="1681.18 156.34 1616.53 164.83 1635.02 230.82 1696.75 217.96 1681.18 156.34"/>
                  </g>
                  <g>
                    <g>
                      <path class="st21" d="M1712.04,74.18c1.65-10.37-2.37-23.63-2.37-23.63l1.47-23.28c.29-2.21-1.13-4.27-3.29-4.8h0c-2.33-.57-4.68.84-5.27,3.17l-1.94,15.03-2.06-.04-2.8-24.16c-.22-2.94-2.93-5.04-5.83-4.52h0c-2.41.43-4.15,2.57-4.08,5.02l1.84,26.15-2.12.41-7.41-26.06c-.8-3.02-3.96-4.77-6.94-3.83h0c-2.74.86-4.36,3.69-3.7,6.49l7.65,29.84-2.69.73-10.05-20.96c-1.17-2.43-4.17-3.32-6.47-1.92h0c-1.85,1.12-2.65,3.38-1.93,5.42l10.19,27.89-8.43-.21c-3.94.02-7.02,3.43-6.62,7.35h0c.28,2.77,2.25,5.08,4.94,5.79l11.1,2.69s7.49,10.4,19.92,14.91c0,0,25.61-9.55,26.87-17.47h.02Z"/>
                      <path class="st20" d="M1689.52,69.64c-9.27-8.79-25.08-7.98-25.23-7.97l-.07-1.11c.66-.04,16.44-.85,26.06,8.27l-.76.8h0Z"/>
                    </g>
                    <g>
                      <polygon class="st21" points="1756.73 164.69 1712.04 74.18 1683.83 86.05 1712.25 185.62 1756.73 164.69"/>
                      <rect class="st20" x="1705.43" y="155.68" width="1.11" height="15.95" transform="translate(20.6 474.51) rotate(-15.93)"/>
                    </g>
                  </g>
                </g>
                <g>
                  <polygon class="st22" points="1558.75 161.26 1505.84 172.21 1507.69 345.14 1641.56 345.14 1645.76 167.46 1595.39 163.11 1558.75 161.26"/>
                  <rect class="st0" x="1643.16" y="206.61" width="2.22" height="22.33"/>
                  <path class="st7" d="M1525.29,212.88h32.78v21.4c0,6.28-5.1,11.38-11.38,11.38h-10.03c-6.28,0-11.38-5.1-11.38-11.38v-21.4h.01Z"/>
                </g>
                <g>
                  <g>
                    <path class="st21" d="M1467.47,216.14l-38.17,69.12c-6.68,12.1-2.45,27.32,9.52,34.23h0c11.82,6.82,26.92,3.07,34.17-8.5l39.62-63.22-45.15-31.63h.01Z"/>
                    <g>
                      <path class="st22" d="M1455.63,225.77l54.76,35.14,8.79-41.97c9.27-14.96,21.04-33.02,6.23-42.51h0c-15.01-9.62-34.98-5.23-44.56,9.8l-25.21,39.54h-.01Z"/>
                      <rect class="st0" x="1505.68" y="211.58" width="2.22" height="47.01"/>
                    </g>
                  </g>
                  <g>
                    <g>
                      <polygon class="st21" points="1448.07 322.66 1548.27 319.92 1555.17 287.53 1441.92 273.21 1448.07 322.66"/>
                      <rect class="st20" x="1479.1" y="264.82" width="1.11" height="26.3" transform="translate(1019.68 1711.52) rotate(-82.85)"/>
                    </g>
                    <g>
                      <path class="st21" d="M1548.51,288.86s12.82-17.34,27.91-.07l-6,11.91-21.91-11.84Z"/>
                      <path class="st8" d="M1563.6,270.49l-3.96,24.25,30.57,3.4,4.85-23.29c.52-2.51-1.22-4.93-3.76-5.24l-22.85-2.76c-2.33-.28-4.47,1.33-4.85,3.64Z"/>
                      <path class="st21" d="M1554.97,286.79l36.17.9c4.19.1,7.54,3.53,7.54,7.73h0c0,2.97-1.7,5.67-4.37,6.96l-1.94.93s3.7,27.39-18.04,30.65c-21.74,3.26-33.91-13.91-33.91-13.91l14.55-33.26h0Z"/>
                    </g>
                  </g>
                </g>
              </g>
              <g>
                <polygon class="st21" points="1597.39 163.18 1596.9 108.56 1557.24 108.56 1556.36 161.75 1597.39 163.18"/>
                <path class="st30" d="M1553.98,124.51c-2.06-4.72,13.77,26.12,29.94,24.39,13.86-1.49,14.44-26.59,14.44-26.59,0,0-4.92,7.93-19.55,7.95-16.32.02-24.82-5.75-24.82-5.75h0Z"/>
                <path class="st32" d="M1618.01,78.44c-4.25,24.35-18.4,44.84-41.1,44.84s-38.3-20.26-41.1-44.84c-3.17-27.9,18.4-46.42,41.1-46.42s45.46,21.42,41.1,46.42Z"/>
                <g>
                  <path class="st21" d="M1612.44,91.13s2.96-4.71,9.06-2.39c6.1,2.31,3.34,17.14-5.81,19.03,0,0-3.28.72-5.85-1.53,0,0,2.25-10.95,2.61-15.1h-.01Z"/>
                  <path class="st27" d="M1611.55,100.4c-.09,0-.18-.02-.27-.06-.3-.15-.43-.51-.29-.82,3.82-7.92,9.43-6.16,9.49-6.14.32.11.49.45.39.77-.11.32-.45.49-.77.39-.2-.06-4.67-1.39-8,5.51-.11.22-.32.35-.55.35h0Z"/>
                </g>
                <g>
                  <path class="st21" d="M1542.35,91.13s-2.96-4.71-9.06-2.39c-6.1,2.31-3.34,17.14,5.81,19.03,0,0,3.28.72,5.86-1.53,0,0-2.25-10.95-2.61-15.1h0Z"/>
                  <path class="st27" d="M1543.24,100.4c-.23,0-.45-.13-.55-.35-3.33-6.91-7.81-5.57-8-5.51-.32.1-.66-.07-.77-.39-.1-.32.07-.66.39-.77.06-.02,5.67-1.78,9.49,6.14.15.3.02.67-.29.82-.09.04-.18.06-.27.06h0Z"/>
                </g>
                <path class="st21" d="M1613.02,78.36c0,9.5-.98,29.37-7.14,41.17-5.78,11.07-15.34,17.03-27.88,17.39-10,.28-24.41-9.09-29.36-18.6-7.48-14.37-7.13-39.78-7.13-39.78,0,0,0-33.93,35.36-33.93,37.24,0,36.14,33.76,36.14,33.76h.01Z"/>
                <g>
                  <path class="st8" d="M1564.91,89.86c0,1.51-1.22,2.73-2.73,2.73s-2.73-1.22-2.73-2.73,1.22-2.73,2.73-2.73,2.73,1.22,2.73,2.73Z"/>
                  <path class="st8" d="M1593.15,89.86c0,1.51-1.22,2.73-2.73,2.73s-2.73-1.22-2.73-2.73,1.22-2.73,2.73-2.73,2.73,1.22,2.73,2.73Z"/>
                  <path class="st8" d="M1569.57,78.73l-19.39,5.01s.88-5.44,8.82-7.42c7.93-1.98,10.58,2.41,10.58,2.41h0Z"/>
                  <path class="st8" d="M1581.9,78.73l19.39,5.01s-.88-5.44-8.82-7.42c-7.93-1.98-10.58,2.41-10.58,2.41h0Z"/>
                  <path class="st27" d="M1578.78,104.34h-5.03c-.34,0-.61-.27-.61-.61v-6.93c0-.34.27-.61.61-.61s.61.27.61.61v6.32h4.42c.34,0,.61.27.61.61s-.27.61-.61.61Z"/>
                  <path class="st7" d="M1592.11,109.56h-29.69s.83,7.8,14.07,7.83c12.21.02,15.61-7.83,15.61-7.83h.01Z"/>
                </g>
                <path class="st32" d="M1542.35,91.13s13.24-20.31,2.84-35.26c0,0-6.55.1-6.32,26l3.48,9.26Z"/>
                <path class="st32" d="M1612.43,91.13s-13.24-20.31-2.84-35.26c0,0,6.55.1,6.32,26l-3.48,9.26Z"/>
                <path class="st32" d="M1541.66,54.89s17.1,19.34,52.32,15.55c31.45-3.38,34.18-25.44,26.69-34.16-10.7-12.46-34.31-7.83-46.92,6.08l-32.08,12.52h0Z"/>
                <g>
                  <polygon class="st21" points="1556.36 161.75 1577.27 188.64 1597.39 163.18 1556.36 161.75"/>
                  <polygon class="st7" points="1556.36 157.96 1544.02 164.3 1557.96 192.25 1571.9 181.74 1556.36 157.96"/>
                  <polygon class="st7" points="1597.5 157.96 1611.39 164.49 1596.71 192.25 1582.88 181.44 1597.5 157.96"/>
                </g>
              </g>
            </g>
          </g>
        </g>
      </g>
    </g>
  </g>
</svg>