<?xml version="1.0" encoding="UTF-8"?>
<svg id="Layer_1" data-name="Layer 1" xmlns="http://www.w3.org/2000/svg" viewBox="0 0 280 280">
  <defs>
    <style>
      .cls-1 {
        fill: #512b1c;
      }

      .cls-2 {
        fill: none;
        stroke: #512b1c;
        stroke-miterlimit: 10;
        stroke-width: 6px;
      }
    </style>
  </defs>
  <circle class="cls-2" cx="144.08" cy="143.63" r="96.37"/>
  <path class="cls-1" d="M148.1,90.65c1.41.17,2.82.33,4.23.5,4.02.48,7.9,1.5,11.68,2.9,7.97,2.96,14.82,7.57,20.54,13.78,5.59,6.06,9.54,13.05,11.82,20.96,1.59,5.52,2.26,11.14,2,16.86-.26,5.83-1.48,11.48-3.67,16.91-2.27,5.65-5.43,10.77-9.5,15.33-7.43,8.32-16.61,13.77-27.49,16.47-.9.22-1.81.42-2.73.58-1.08.19-2.18.33-3.32.49v-41.19h12.89c.65-4.98,1.28-9.84,1.92-14.77h-14.7c-.07-.14-.14-.22-.14-.29,0-3.48-.03-6.95.05-10.43.04-1.76.52-3.43,2.05-4.6,1.13-.86,2.46-1.24,3.84-1.28,2.84-.09,5.69-.07,8.53-.11.26,0,.51-.03.82-.05v-13.21c-1.68-.13-3.33-.32-4.99-.38-3.44-.12-6.9-.44-10.33.12-7.1,1.15-12.03,4.86-14.32,11.75-.88,2.65-1.11,5.37-1.14,8.12-.03,3.13,0,6.26,0,9.39,0,.28,0,.57,0,.95h-12.85v14.74h12.78v40.88c-1.58-.34-3.14-.61-4.67-1.02-6.7-1.83-12.88-4.75-18.41-8.95-6.26-4.75-11.27-10.54-14.95-17.46-2.78-5.22-4.62-10.75-5.5-16.57-.74-4.91-.77-9.83-.11-14.77,1.1-8.14,3.96-15.61,8.6-22.41,5.12-7.5,11.77-13.31,19.91-17.46,5.15-2.63,10.61-4.31,16.32-5.2,1.38-.21,2.79-.27,4.19-.41.28-.03.56-.11.83-.16,1.94,0,3.87,0,5.81,0Z"/>
</svg>