<?xml version="1.0" encoding="UTF-8"?>
<svg id="Layer_1" data-name="Layer 1" xmlns="http://www.w3.org/2000/svg" viewBox="0 0 280 280">
  <defs>
    <style>
      .cls-1 {
        fill: #512b1c;
      }

      .cls-2 {
        fill: none;
        stroke: #512b1c;
        stroke-miterlimit: 10;
        stroke-width: 6px;
      }
    </style>
  </defs>
  <circle class="cls-2" cx="142.01" cy="140.63" r="96.37"/>
  <g>
    <path class="cls-1" d="M91.18,143.53c0-7.6-.21-15.2.04-22.79.52-15.84,13.53-28.4,29.41-28.5,14.75-.09,29.49-.07,44.24,0,16.14.06,29.35,12.31,29.76,28.39.41,16,.3,32.03-.18,48.02-.4,13.23-12.7,25.67-25.96,26.23-13.81.58-27.66.35-41.5.35-4.05,0-8.22.12-12.13-.73-14.62-3.17-23.69-14.76-23.75-29.8-.03-7.06,0-14.11,0-21.17.03,0,.06,0,.08,0ZM100.91,143.81c0,6.97,0,13.94,0,20.91.01,11.78,8.32,20.64,20.04,20.82,14.66.22,29.33.21,43.99,0,11.41-.16,20.06-8.92,20.17-20.27.15-14.39.16-28.79,0-43.18-.13-11.44-9.1-20.07-20.56-20.09-14.57-.03-29.15-.07-43.72.01-11.17.06-19.87,8.89-19.91,20.07-.03,7.24,0,14.48,0,21.72Z"/>
    <path class="cls-1" d="M116.02,143.43c.26-15.14,12.4-26.55,27.93-26.24,14.59.29,25.9,12.18,25.67,26.98-.23,14.88-12.23,26.08-27.66,25.81-14.37-.25-26.18-12.34-25.93-26.55ZM160.24,143.7c.03-9.63-7.46-17.08-17.24-17.16-9.57-.08-17.5,7.61-17.51,16.97-.02,9.47,7.7,17.13,17.29,17.16,9.69.03,17.43-7.49,17.46-16.96Z"/>
    <path class="cls-1" d="M176.56,116.51c0,3.63-2.7,6.22-6.41,6.16-3.48-.05-6.14-2.76-6.12-6.23.02-3.34,2.85-6.21,6.19-6.28,3.5-.07,6.35,2.78,6.34,6.34Z"/>
  </g>
</svg>