<?xml version="1.0" encoding="UTF-8"?>
<svg id="Layer_1" data-name="Layer 1" xmlns="http://www.w3.org/2000/svg" viewBox="0 0 280 280">
  <defs>
    <style>
      .cls-1 {
        fill: #512b1c;
      }

      .cls-2 {
        fill: none;
        stroke: #512b1c;
        stroke-miterlimit: 10;
        stroke-width: 6px;
      }
    </style>
  </defs>
  <circle class="cls-2" cx="154.36" cy="138.63" r="96.37"/>
  <path class="cls-1" d="M177.3,91.51s-.69,20.76,24.78,24.39v18.55s-19.59-1.21-23.51-7.08v29.65c0,5.29-.87,10.57-2.85,15.48-2.2,5.46-6.06,11.61-12.85,15.62-3.75,2.22-8.09,3.24-12.45,3.24h-9.43c-4.29,0-8.54-1.01-12.27-3.14-6.9-3.94-15.64-12.5-14.95-30.47,0,0-.83-31.36,38.35-29.4v19.59s-21.55-1.96-17.63,17.63c0,0,1.96,5.88,7.84,7.84,0,0,11.57,3.56,15.58-7.04,0,0,2.05-4.72,2.05-12.56v-62.69l17.34.39Z"/>
</svg>