<?xml version="1.0" encoding="UTF-8"?>
<svg id="Layer_1" data-name="Layer 1" xmlns="http://www.w3.org/2000/svg" viewBox="0 0 280 280">
  <defs>
    <style>
      .cls-1 {
        fill: #f8f4e5;
      }
    </style>
  </defs>
  <path class="cls-1" d="M152.44,53.77c2.34.28,4.69.55,7.03.83,6.67.8,13.12,2.49,19.4,4.82,13.24,4.92,24.63,12.58,34.13,22.89,9.28,10.07,15.85,21.68,19.65,34.83,2.65,9.17,3.76,18.51,3.33,28.01-.44,9.69-2.47,19.07-6.1,28.1-3.78,9.39-9.01,17.89-15.78,25.47-12.34,13.82-27.6,22.88-45.68,27.37-1.5.37-3.01.7-4.53.96-1.8.31-3.62.54-5.52.82v-68.44h21.41c1.08-8.27,2.13-16.34,3.19-24.54h-24.43c-.11-.23-.23-.36-.23-.48.01-5.77-.06-11.55.09-17.32.07-2.93.87-5.7,3.4-7.64,1.88-1.43,4.08-2.05,6.38-2.12,4.72-.15,9.45-.12,14.17-.18.43,0,.85-.05,1.36-.08v-21.94c-2.79-.22-5.54-.54-8.29-.63-5.72-.19-11.46-.72-17.16.2-11.79,1.9-19.99,8.07-23.79,19.53-1.46,4.4-1.84,8.92-1.89,13.49-.06,5.2-.01,10.4-.01,15.6,0,.47,0,.94,0,1.57h-21.34v24.48h21.23v67.91c-2.62-.57-5.23-1.01-7.76-1.7-11.14-3.04-21.4-7.89-30.59-14.86-10.41-7.89-18.72-17.52-24.84-29-4.62-8.68-7.68-17.86-9.14-27.54-1.22-8.15-1.28-16.34-.18-24.54,1.83-13.52,6.58-25.94,14.28-37.23,8.5-12.46,19.56-22.12,33.09-29.02,8.56-4.36,17.63-7.17,27.12-8.64,2.3-.36,4.64-.45,6.96-.68.47-.05.92-.18,1.39-.27,3.22,0,6.43,0,9.65,0Z"/>
</svg>