<?xml version="1.0" encoding="UTF-8"?>
<svg id="Layer_1" data-name="Layer 1" xmlns="http://www.w3.org/2000/svg" viewBox="0 0 280 280">
  <defs>
    <style>
      .cls-1 {
        fill: #f8f4e5;
      }
    </style>
  </defs>
  <path class="cls-1" d="M180.82,55.56s-1.14,34.49,41.18,40.52v30.82s-32.55-2-39.06-11.77v49.26c0,8.79-1.45,17.57-4.73,25.72-3.65,9.06-10.08,19.29-21.36,25.95-6.23,3.68-13.44,5.38-20.68,5.38h-15.67c-7.13,0-14.19-1.69-20.38-5.22-11.46-6.55-25.99-20.77-24.84-50.63,0,0-1.38-52.1,63.72-48.84v32.55s-35.8-3.25-29.29,29.29c0,0,3.25,9.76,13.02,13.02,0,0,19.22,5.92,25.88-11.69,0,0,3.41-7.84,3.41-20.86V54.91l28.81.64Z"/>
</svg>