<?xml version="1.0" encoding="UTF-8"?>
<svg id="Layer_1" data-name="Layer 1" xmlns="http://www.w3.org/2000/svg" viewBox="0 0 280 280">
  <defs>
    <style>
      .cls-1 {
        fill: #f8f4e5;
      }
    </style>
  </defs>
  <path class="cls-1" d="M55.58,145c0-12.62-.34-25.26.07-37.87.86-26.31,22.48-47.19,48.86-47.35,24.5-.15,49-.11,73.5-.01,26.81.1,48.76,20.45,49.44,47.18.68,26.58.5,53.21-.3,79.79-.66,21.98-21.1,42.65-43.13,43.59-22.95.97-45.96.57-68.95.58-6.73,0-13.65.2-20.15-1.21-24.29-5.26-39.36-24.52-39.46-49.51-.05-11.72,0-23.45,0-35.17.05,0,.09,0,.14,0ZM71.74,145.47c0,11.58-.01,23.16,0,34.74.02,19.58,13.82,34.3,33.29,34.59,24.36.37,48.73.36,73.09,0,18.96-.27,33.32-14.82,33.52-33.68.25-23.91.27-47.83,0-71.74-.22-19-15.12-33.34-34.15-33.38-24.21-.06-48.43-.11-72.64.02-18.56.1-33.01,14.76-33.09,33.34-.05,12.03,0,24.06,0,36.09Z"/>
  <path class="cls-1" d="M96.85,144.83c.43-25.16,20.61-44.12,46.4-43.6,24.25.49,43.04,20.24,42.65,44.83-.39,24.73-20.32,43.33-45.96,42.88-23.87-.42-43.5-20.51-43.09-44.11ZM170.31,145.28c.05-16-12.39-28.38-28.64-28.51-15.9-.13-29.07,12.64-29.1,28.19-.03,15.74,12.79,28.45,28.73,28.51,16.09.06,28.96-12.44,29-28.19Z"/>
  <path class="cls-1" d="M197.42,100.1c-.01,6.03-4.48,10.33-10.66,10.24-5.78-.08-10.21-4.58-10.18-10.34.03-5.55,4.74-10.32,10.29-10.43,5.81-.12,10.55,4.63,10.54,10.53Z"/>
</svg>