<?xml version="1.0" encoding="UTF-8"?>
<svg id="Capa_1" xmlns="http://www.w3.org/2000/svg" version="1.1" viewBox="0 0 154.57 426.09">
  <!-- Generator: Adobe Illustrator 29.5.1, SVG Export Plug-In . SVG Version: 2.1.0 Build 141)  -->
  <defs>
    <style>
      .st0 {
        fill: #a1c04e;
      }
    </style>
  </defs>
  <path class="st0" d="M145.17,7.69c-32.62,17.59-51.41,22.72-75.81,52.64-21.27,26.07-44.81,62.89-50.14,96.14-7.03,43.9-9.76,95.05,12.89,134.52,18.22,31.77,37.76,61.95,67.66,84.53,3.3,2.49,14.59,11.28,17.66,12.59,2.27.96,5.59,1.24,8.01,1.92.05-1.27-.35-2.49-.69-3.7-1.96-6.92-9.51-17.4-13.62-23.82-.3-.47-2.08-2.25-2.46-3.09-.75-1.66-1.64-3.7-1.23-5.56.04-.19,2.02-2.99,2.15-3.12,5.02-4.81,7.43-.61,11.69,2.21,8.5,11.12,20.23,24.62,26.64,36.53,7.01,13.03-6.14,23.16-16.62,28.37-10.11,5.02-16.32,4.39-26.85,5.95-3.41.5-7.56,2.34-11.1,2.29-5.27-.07-12.26-3.79-16.06-7.42-1.53-1.46-2.31-2.24-2.56-4.51-.28-2.58-.39-4.92,2.42-5.19,6.24-.6,10.1.44,16.53-1.95,1.29-.48,2.29-1.48,3.24-1.84,2.82-1.07,13.43-3.17,11.12-8.12-.54-1.15-7.59-4.03-9.03-4.76-4.48-2.27-9.51-4.46-13.65-7.67-4.36-3.38-7.57-8.06-11.38-11.99-17.82-18.37-34.17-32.53-46.05-55.74-10.36-20.24-23.75-49.08-24.95-72.22-.15-2.92.59-6.77.5-9.68-.42-13.64-4.55-26.44-3.21-40.15s3.92-30.33,7.01-43.82c4.09-17.87,11.13-31.13,20.47-46.54,16.57-27.36,33.94-56.1,60.36-74.13,9.51-6.49,18.58-10.13,28.72-15.15C124.88,11.22,143.86.06,152.03,0c1.63,0,3.44,1.1,2.05,2.56-.48.51-5.08,2.98-6.14,3.56-.96.52-2,1.19-2.77,1.6v-.03Z"/>
</svg>