<?xml version="1.0" encoding="UTF-8"?>
<svg id="Capa_1" xmlns="http://www.w3.org/2000/svg" xmlns:xlink="http://www.w3.org/1999/xlink" version="1.1" viewBox="0 0 184.38 184.38">
  <!-- Generator: Adobe Illustrator 29.5.1, SVG Export Plug-In . SVG Version: 2.1.0 Build 141)  -->
  <defs>
    <style>
      .st0 {
        fill: none;
      }

      .st1 {
        clip-path: url(#clippath-1);
      }

      .st2 {
        fill: #fff;
      }

      .st3 {
        fill: url(#Degradado_sin_nombre_10);
      }

      .st4 {
        clip-path: url(#clippath);
      }
    </style>
    <clipPath id="clippath">
      <path class="st0" d="M92.19,0C41.28,0,0,41.27,0,92.19s41.28,92.19,92.19,92.19,92.19-41.28,92.19-92.19S143.11,0,92.19,0Z"/>
    </clipPath>
    <linearGradient id="Degradado_sin_nombre_10" data-name="Degradado sin nombre 10" x1="-526.34" y1="1076.9" x2="-520.03" y2="1076.9" gradientTransform="translate(-15207.27 -31399.43) rotate(-180) scale(29.24 -29.24)" gradientUnits="userSpaceOnUse">
      <stop offset="0" stop-color="#f9e291"/>
      <stop offset="0" stop-color="#f9e291"/>
      <stop offset=".21" stop-color="#efbc55"/>
      <stop offset=".38" stop-color="#d65d78"/>
      <stop offset=".52" stop-color="#d34d8d"/>
      <stop offset=".74" stop-color="#734c92"/>
      <stop offset="1" stop-color="#50549a"/>
    </linearGradient>
    <clipPath id="clippath-1">
      <rect class="st0" width="184.38" height="184.38"/>
    </clipPath>
  </defs>
  <g class="st4">
    <rect class="st3" x="-38.19" y="-38.19" width="260.75" height="260.75" transform="translate(-38.19 92.19) rotate(-45)"/>
  </g>
  <g class="st1">
    <path class="st2" d="M120.81,57.32c-3.5,0-6.34,2.84-6.34,6.34s2.84,6.34,6.34,6.34,6.34-2.84,6.34-6.34-2.84-6.34-6.34-6.34"/>
    <path class="st2" d="M92.63,65.44c-14.68,0-26.62,11.94-26.62,26.61s11.94,26.63,26.62,26.63,26.62-11.94,26.62-26.63-11.94-26.61-26.62-26.61M92.63,109.11c-9.4,0-17.06-7.65-17.06-17.06s7.65-17.05,17.06-17.05,17.05,7.65,17.05,17.05-7.65,17.06-17.05,17.06"/>
    <path class="st2" d="M113.76,146.11h-43.15c-17.9,0-32.47-14.56-32.47-32.47v-43.15c0-17.91,14.56-32.47,32.47-32.47h43.15c17.91,0,32.47,14.56,32.47,32.47v43.15c0,17.91-14.56,32.47-32.47,32.47M70.61,48.18c-12.3,0-22.3,10-22.3,22.3v43.15c0,12.3,10.01,22.3,22.3,22.3h43.15c12.3,0,22.3-10,22.3-22.3v-43.15c0-12.3-10.01-22.3-22.3-22.3h-43.15Z"/>
  </g>
</svg>