<svg version="1.2" xmlns="http://www.w3.org/2000/svg" viewBox="0 0 718 102" width="718" height="102">
	<title>PLACA TIK TOK</title>
	<defs>
		<clipPath clipPathUnits="userSpaceOnUse" id="cp1">
			<path d="m718.75 102.6h-718v-104h718z"/>
		</clipPath>
		<clipPath clipPathUnits="userSpaceOnUse" id="cp2">
			<path d="m212.19-0.68c-57.54 0-104.18 45.98-104.18 102.71h610.83v-102.71z"/>
		</clipPath>
		<linearGradient id="g1" x2="1" gradientUnits="userSpaceOnUse" gradientTransform="matrix(610.839,0,0,102.712,108.005,102.031)">
			<stop offset="0" stop-color="#23004a"/>
			<stop offset="1" stop-color="#000000"/>
		</linearGradient>
	</defs>
	<style>
		.s0 { fill: #00c9d0 } 
		.s1 { fill: #ff1753 } 
		.s2 { fill: url(#g1) } 
		.s3 { fill: #ffffff } 
		.s4 { fill: #fcfcfc } 
	</style>
	<g id="Layer 1">
		<g id="&lt;Clip Group&gt;" clip-path="url(#cp1)">
			<g id="&lt;Group&gt;">
				<path id="&lt;Path&gt;" class="s0" d="m611.6 102h-610.9c0-56.7 46.7-102.7 104.2-102.7h506.7z"/>
				<path id="&lt;Path&gt;" class="s1" d="m649.4 102h-610.8c0-56.7 46.6-102.7 104.2-102.7h506.6z"/>
			</g>
			<g id="&lt;Clip Group&gt;" clip-path="url(#cp2)">
				<path id="&lt;Path&gt;" class="s2" d="m108-0.7h610.8v102.7h-610.8z"/>
			</g>
			<g id="&lt;Group&gt;">
				<path id="&lt;Compound Path&gt;" fill-rule="evenodd" class="s3" d="m278.5 42.5l1.7-3.6h3.3l-4.2 16.7q-0.2 0.7-0.3 1.3-0.1 0.5-0.1 1 0 1.3 0.8 2 0.9 0.6 2.5 0.6 1.3 0 3-0.7 1.6-0.7 3-1.8 2.7-2.3 4.2-5.8 1.5-3.5 1.5-7.4 0-7.8-5.8-12.6-5.8-4.7-15.4-4.7-5 0-9.3 1.5-4.3 1.5-7.7 4.5-4.2 3.5-6.3 8.2-2.1 4.8-2.1 10.4 0 5.1 1.8 8.9 1.8 3.9 5.5 6.8 3 2.4 7.2 3.6 4.1 1.3 8.7 1.3 5.1 0 10-1.4 4.8-1.4 8.8-4.1l1.3 1.9q-4.4 3.2-9.3 4.9-4.9 1.6-10.3 1.6-5.7 0-10.3-1.4-4.7-1.3-8.2-4-4.6-3.4-6.8-8-2.3-4.5-2.3-10.3 0-4.8 1.5-9.1 1.5-4.2 4.5-7.8 4.3-5.2 10.4-7.9 6-2.6 13.5-2.6 4.9 0 9.2 1.3 4.3 1.2 7.4 3.6 3.8 2.9 5.8 6.7 2 3.9 2 8.3 0 5-1.9 9-1.9 4.1-5.4 7-2.1 1.6-4.4 2.4-2.4 0.8-4.9 0.8-2.9 0-4.4-1.1-1.5-1.1-1.5-3.4 0-0.1 0-0.3 0.1-0.2 0.1-0.4-1.5 2.6-3.8 3.9-2.3 1.3-5.1 1.3-4.5 0-6.9-2.4-2.4-2.5-2.4-7.3 0-6.7 4.1-11.4 4.1-4.6 9.9-4.6 2.7 0 4.5 1.1 1.9 1.2 2.9 3.5zm-2.7 10.8l1.8-7.1q-0.5-2.6-2.1-4.1-1.7-1.4-4.1-1.4-4.3 0-7.2 3.8-2.9 3.9-2.9 9.6 0 3.3 1.5 5 1.5 1.7 4.3 1.7 3 0 5.5-2 2.4-2.1 3.2-5.5z"/>
				<path id="&lt;Compound Path&gt;" class="s3" d="m314.7 68.9l-13.5-28.5h5.2l8.2 18.7 8.2-18.7h5.2z"/>
				<path id="&lt;Compound Path&gt;" class="s3" d="m332.2 27.5q0-1.4 1-2.4 1-1 2.4-1 1.4 0 2.4 1 1 1 1 2.4 0 1.4-1 2.4-1 0.9-2.4 0.9-1.4 0-2.4-0.9-1-1-1-2.4zm1.1 39.7v-26.8h4.7v26.8z"/>
				<path id="&lt;Compound Path&gt;" class="s3" d="m356.7 68.9l-13.4-28.5h5.2l8.2 18.7 8.2-18.7h5.2z"/>
				<path id="&lt;Compound Path&gt;" fill-rule="evenodd" class="s3" d="m398.9 54.5h-21.6v0.4q0 4.3 2.5 6.9 2.5 2.7 6.5 2.7 2.8 0 5-1.5 2.1-1.4 3.8-4.3l3.6 2.3q-2.1 3.6-5.3 5.5-3.1 1.8-7.3 1.8-6.2 0-10.1-4-3.8-4.1-3.8-10.6 0-6.3 3.8-10.3 3.8-4 9.8-4 6 0 9.5 3.8 3.6 3.8 3.6 10.4zm-5-3.8q-0.3-3.5-2.4-5.4-2.2-1.9-5.9-1.9-3.4 0-5.7 2-2.2 2-2.6 5.3z"/>
				<path id="&lt;Compound Path&gt;" class="s3" d="m431.5 77.9v3.4h-30.4v-3.4z"/>
				<path id="&lt;Compound Path&gt;" class="s3" d="m457.2 60.8v5.4q-1.9 1.1-4.2 1.6-2.3 0.5-5 0.5-6.3 0-10.1-3.9-3.9-3.9-3.9-10.4 0-6.4 4-10.5 4-4.1 10.2-4.1 2.3 0 4.4 0.5 2.2 0.5 4.1 1.4v4.9q-1.8-1.2-3.7-1.8-1.9-0.6-3.9-0.6-4.5 0-7.3 2.9-2.8 2.8-2.8 7.5 0 4.1 2.8 6.9 2.8 2.8 7 2.8 2.1 0 4.1-0.7 2-0.8 4.3-2.4z"/>
				<path id="&lt;Compound Path&gt;" fill-rule="evenodd" class="s3" d="m461.1 53.9q0-3 1.1-5.6 1.1-2.6 3.2-4.7 2.1-2 4.8-3.1 2.6-1.1 5.7-1.1 2.9 0 5.6 1.1 2.7 1.1 4.8 3.2 2.1 2 3.2 4.6 1.1 2.6 1.1 5.6 0 2.9-1.1 5.5-1.1 2.6-3.2 4.6-2.1 2.1-4.8 3.2-2.7 1.1-5.6 1.1-3 0-5.7-1.1-2.7-1.1-4.8-3.1-2.1-2.1-3.2-4.7-1.1-2.6-1.1-5.5zm4.9 0q0 4.2 2.9 7.2 2.9 2.9 7 2.9 4 0 6.9-2.9 2.9-3 2.9-7.2 0-4.3-2.9-7.2-2.9-3-6.9-3-4.2 0-7 3-2.9 2.9-2.9 7.2z"/>
				<path id="&lt;Compound Path&gt;" class="s3" d="m535.8 67.2v-15.8q0-4.1-1.7-6-1.7-2-5.1-2-1.9 0-3.5 0.7-1.6 0.8-2.7 2.1-0.8 1.1-1.1 2.5-0.4 1.4-0.4 4.6v13.9h-4.5v-15.8q0-4.1-1.6-6-1.7-2-5.1-2-1.9 0-3.5 0.7-1.7 0.8-2.8 2.1-0.7 1.1-1.1 2.4-0.3 1.4-0.3 4.7v13.9h-4.5v-26.8h4.5v4.1q1.7-2.6 4.1-3.8 2.3-1.3 5.4-1.3 3.3 0 5.6 1.4 2.3 1.4 3.5 4.1 1.8-2.8 4.2-4.1 2.4-1.4 5.5-1.4 4.6 0 7.1 2.5 2.6 2.6 2.6 7v18.3z"/>
				<path id="&lt;Compound Path&gt;" fill-rule="evenodd" class="s3" d="m549.5 80.3v-39.9h4.4v5q1.6-2.9 4.2-4.4 2.6-1.6 5.8-1.6 5.9 0 9.4 4 3.6 3.9 3.6 10.5 0 6.6-3.5 10.5-3.5 3.9-9.3 3.9-3.4 0-5.9-1.5-2.5-1.5-4.1-4.5v18zm4.5-26.4q0 4.5 2.5 7.2 2.6 2.7 6.7 2.7 4.1 0 6.4-2.5 2.4-2.5 2.4-6.9 0-4.9-2.4-7.7-2.3-2.9-6.5-2.9-4.2 0-6.6 2.7-2.5 2.7-2.5 7.4z"/>
				<path id="&lt;Compound Path&gt;" fill-rule="evenodd" class="s3" d="m582.1 53.9q0-3 1.1-5.6 1.1-2.6 3.2-4.7 2.1-2 4.8-3.1 2.7-1.1 5.7-1.1 3 0 5.7 1.1 2.6 1.1 4.8 3.2 2.1 2 3.2 4.6 1.1 2.6 1.1 5.6 0 2.9-1.1 5.5-1.1 2.6-3.2 4.6-2.2 2.1-4.9 3.2-2.7 1.1-5.6 1.1-3 0-5.7-1.1-2.7-1.1-4.8-3.1-2.1-2.1-3.2-4.7-1.1-2.6-1.1-5.5zm5 0q0 4.2 2.8 7.2 2.9 2.9 7 2.9 4.1 0 6.9-2.9 2.9-3 2.9-7.2 0-4.3-2.9-7.2-2.8-3-6.9-3-4.1 0-7 3-2.8 2.9-2.8 7.2z"/>
				<path id="&lt;Compound Path&gt;" class="s3" d="m616.1 62.7l3.9-2.7q1.2 2.2 2.9 3.3 1.7 1 4.1 1 2.3 0 3.7-1.1 1.4-1.1 1.4-2.9 0-1.4-1-2.4-1-0.9-3.3-1.7-0.2-0.1-0.8-0.3-9.9-3.3-9.9-8.4 0-3.6 2.7-5.8 2.6-2.3 6.9-2.3 3.6 0 6.1 1.4 2.5 1.4 3.6 4l-3.8 2.2q-0.8-1.8-2.4-2.8-1.6-1-3.8-1-2 0-3.3 1.1-1.3 1.2-1.3 2.9 0 2.5 5.4 4.1 1 0.4 1.6 0.5 4.4 1.4 6.2 3.2 1.7 1.9 1.7 4.8 0 3.8-2.7 6.2-2.8 2.3-7.2 2.3-3.8 0-6.5-1.4-2.6-1.4-4.2-4.2z"/>
				<path id="&lt;Compound Path&gt;" class="s3" d="m644.4 44.2h-5v-3.8h5v-10.8h4.8v10.8h5v3.8h-5v23h-4.8z"/>
				<path id="&lt;Compound Path&gt;" fill-rule="evenodd" class="s3" d="m684.8 40.4v26.8h-4.5v-4.9q-1.7 3-4.2 4.5-2.5 1.5-5.7 1.5-5.8 0-9.4-3.9-3.6-4-3.6-10.5 0-6.7 3.5-10.6 3.4-3.9 9.3-3.9 3.4 0 5.9 1.5 2.5 1.5 4.1 4.5v-5zm-4.6 13.6q0-4.5-2.5-7.3-2.5-2.7-6.5-2.7-4.2 0-6.6 2.5-2.3 2.6-2.3 7.1 0 4.9 2.4 7.5 2.3 2.7 6.7 2.7 4.1 0 6.5-2.6 2.3-2.6 2.3-7.2z"/>
			</g>
			<g id="&lt;Group&gt;">
				<g id="&lt;Group&gt;">
					<g id="&lt;Group&gt;">
						<path id="&lt;Compound Path&gt;" fill-rule="evenodd" class="s4" d="m197.4 81.4c-17.4-0.1-31.3-13.9-31.2-31.1 0.1-16.8 14.2-30.6 31.3-30.5 17.4 0 31.2 13.9 31.2 31-0.1 16.9-14.2 30.6-31.3 30.6zm7.3-38.2c0.5 0.2 0.8 0.4 1.1 0.6q3.7 2.1 7.9 2.3c1 0 1 0 1-0.9-0.1-1.8-0.1-3.7-0.1-5.5 0.1-0.7-0.2-0.9-0.8-0.9q-2.6-0.1-4.8-1.7c-2.6-1.8-4.1-4.2-4.2-7.4-0.1-0.5-0.2-0.7-0.7-0.7q-2.9 0.1-5.8 0.1c-1 0-1 0-1 0.9 0 9 0 18 0 26.9 0.1 3.4-2.7 6.3-6.2 6.2-2.6-0.1-5.2-2.3-5.6-4.9-0.6-4.3 3.1-7.4 7-6.7q0.3 0.1 0.7 0.1c0-0.1 0.1-0.2 0.1-0.2q0-3.4 0-6.7c0-0.2-0.4-0.5-0.6-0.5-1.8-0.1-3.6-0.1-5.4 0.5-5.1 1.9-8.3 5.4-9.1 10.7-0.6 4.4 0.7 8.2 4 11.3 3.5 3.4 7.8 4.4 12.4 3.3 6.1-1.5 10.1-6.6 10.1-12.8 0.1-4.3 0-8.6 0-12.9 0-0.3 0-0.6 0-1.1z"/>
					</g>
				</g>
			</g>
		</g>
	</g>
</svg>