<svg version="1.2" xmlns="http://www.w3.org/2000/svg" viewBox="0 0 718 102" width="718" height="102">
	<title>PLACA FACEBOOK</title>
	<defs>
		<clipPath clipPathUnits="userSpaceOnUse" id="cp1">
			<path d="m718.75 102.6h-718v-104h718z"/>
		</clipPath>
		<clipPath clipPathUnits="userSpaceOnUse" id="cp2">
			<path d="m102.71-0.71c-56.72 0-102.71 45.98-102.71 102.71h718.14v-102.71z"/>
		</clipPath>
		<linearGradient id="g1" x2="1" gradientUnits="userSpaceOnUse" gradientTransform="matrix(745.879,135.373,-42.82,235.927,-81.93,87.13)">
			<stop offset="0" stop-color="#1677f0"/>
			<stop offset="1" stop-color="#2b189c"/>
		</linearGradient>
		<clipPath clipPathUnits="userSpaceOnUse" id="cp3">
			<path d="m168.62 50.64c0 15.44 11.31 28.22 26.09 30.54v-21.6h-7.85v-8.94h7.85v-6.81c0-7.74 4.61-12.02 11.68-12.02 3.38 0 6.91 0.6 6.91 0.6v7.61h-3.89c-3.84 0-5.04 2.38-5.04 4.82v5.8h8.57l-1.37 8.94h-7.2v21.6c14.78-2.32 26.08-15.1 26.08-30.54 0-17.07-13.84-30.91-30.91-30.91-17.08 0-30.92 13.84-30.92 30.91z"/>
		</clipPath>
	</defs>
	<style>
		.s0 { fill: url(#g1) } 
		.s1 { fill: #ffffff } 
	</style>
	<g id="Layer 1">
		<g id="&lt;Clip Group&gt;" clip-path="url(#cp1)">
			<g id="&lt;Clip Group&gt;" clip-path="url(#cp2)">
				<path id="&lt;Path&gt;" class="s0" d="m22.9-126.9l713.3 129.5-41 225.6-713.2-129.5z"/>
			</g>
			<g id="&lt;Clip Group&gt;" clip-path="url(#cp3)">
				<path id="&lt;Path&gt;" class="s1" d="m199.5-11.2l61.7 61.7-61.7 61.6-61.6-61.6z"/>
			</g>
			<g id="&lt;Group&gt;">
				<path id="&lt;Compound Path&gt;" fill-rule="evenodd" class="s1" d="m296.5 43.3l1.7-3.6h3.2l-4.2 16.7q-0.1 0.7-0.2 1.3-0.1 0.6-0.1 1 0 1.3 0.8 2 0.8 0.7 2.4 0.7 1.3 0 3-0.7 1.6-0.7 3-1.9 2.6-2.2 4.1-5.8 1.4-3.5 1.4-7.4 0-7.8-5.7-12.6-5.7-4.7-15.2-4.7-4.9 0-9.1 1.5-4.3 1.5-7.6 4.5-4.1 3.6-6.2 8.3-2.1 4.7-2.1 10.4 0 5 1.8 8.9 1.7 3.8 5.4 6.7 3 2.4 7.1 3.6 4 1.3 8.6 1.3 5 0 9.8-1.4 4.8-1.4 8.7-4.1l1.3 1.9q-4.3 3.2-9.2 4.9-4.8 1.6-10.1 1.6-5.6 0-10.2-1.3-4.6-1.4-8.1-4.1-4.5-3.4-6.7-8-2.2-4.5-2.2-10.3 0-4.8 1.5-9 1.5-4.3 4.4-7.9 4.3-5.2 10.2-7.8 6-2.7 13.3-2.7 4.8 0 9.1 1.3 4.3 1.2 7.3 3.6 3.8 2.9 5.7 6.8 2 3.8 2 8.2 0 5-1.9 9.1-1.8 4-5.3 6.9-2 1.6-4.4 2.4-2.3 0.9-4.8 0.9-2.9 0-4.3-1.2-1.5-1.1-1.5-3.4 0-0.1 0.1-0.3 0-0.2 0-0.3-1.5 2.5-3.7 3.8-2.3 1.4-5 1.4-4.5 0-6.8-2.5-2.4-2.5-2.4-7.3 0-6.7 4-11.4 4-4.6 9.7-4.6 2.7 0 4.5 1.1 1.9 1.2 2.9 3.5zm-2.7 10.9l1.8-7.1q-0.5-2.7-2.1-4.1-1.6-1.5-4-1.5-4.3 0-7.1 3.9-2.9 3.8-2.9 9.5 0 3.3 1.5 5 1.5 1.8 4.2 1.8 3 0 5.4-2.1 2.4-2.1 3.2-5.4z"/>
				<path id="&lt;Compound Path&gt;" class="s1" d="m336 69.7l-18.1-44.6h5.5l12.6 32.8 12.5-32.8h5.6z"/>
				<path id="&lt;Compound Path&gt;" class="s1" d="m356.3 28.3q0-1.4 1-2.4 1-1 2.4-1 1.3 0 2.3 1 1 1 1 2.4 0 1.4-1 2.4-0.9 1-2.3 1-1.4 0-2.4-1-1-1-1-2.4zm1.1 39.7v-26.8h4.6v26.8z"/>
				<path id="&lt;Compound Path&gt;" class="s1" d="m380.5 69.7l-13.3-28.5h5.2l8 18.7 8.1-18.7h5.2z"/>
				<path id="&lt;Compound Path&gt;" fill-rule="evenodd" class="s1" d="m422 55.3h-21.2v0.4q0 4.3 2.4 7 2.5 2.6 6.5 2.6 2.7 0 4.8-1.4 2.2-1.5 3.9-4.4l3.4 2.3q-2 3.7-5.1 5.5-3.1 1.9-7.3 1.9-6.1 0-9.9-4.1-3.8-4-3.8-10.6 0-6.3 3.8-10.3 3.7-4 9.6-4 6 0 9.4 3.8 3.5 3.8 3.5 10.4zm-4.9-3.7q-0.2-3.6-2.4-5.5-2.1-1.9-5.8-1.9-3.3 0-5.5 2-2.3 2-2.6 5.4z"/>
				<path id="&lt;Compound Path&gt;" class="s1" d="m449.5 61.7v5.3q-1.8 1.1-4.1 1.6-2.3 0.6-4.9 0.6-6.2 0-10-4-3.8-3.9-3.8-10.3 0-6.5 3.9-10.6 4-4.1 10.1-4.1 2.2 0 4.3 0.5 2.2 0.5 4 1.4v4.9q-1.7-1.1-3.6-1.7-1.9-0.6-3.8-0.6-4.5 0-7.2 2.8-2.8 2.8-2.8 7.5 0 4.1 2.8 6.9 2.7 2.8 6.8 2.8 2.1 0 4.1-0.7 2-0.8 4.2-2.3z"/>
				<path id="&lt;Compound Path&gt;" fill-rule="evenodd" class="s1" d="m453.4 54.7q0-3 1.1-5.6 1.1-2.6 3.2-4.7 2-2 4.7-3.1 2.6-1.1 5.6-1.1 2.9 0 5.6 1.1 2.6 1.1 4.7 3.2 2.1 2 3.2 4.6 1.1 2.7 1.1 5.6 0 2.9-1.1 5.5-1.1 2.6-3.2 4.6-2.1 2.1-4.8 3.2-2.6 1.2-5.5 1.2-3 0-5.6-1.1-2.7-1.1-4.7-3.2-2.1-2.1-3.2-4.7-1.1-2.6-1.1-5.5zm4.9 0q0 4.2 2.8 7.2 2.9 2.9 6.9 2.9 4 0 6.8-2.9 2.8-3 2.8-7.2 0-4.3-2.8-7.2-2.8-3-6.8-3-4.1 0-6.9 3-2.8 2.9-2.8 7.2z"/>
				<path id="&lt;Compound Path&gt;" class="s1" d="m527 68v-15.8q0-4.1-1.6-6-1.6-2-5-2-1.9 0-3.5 0.7-1.5 0.8-2.6 2.2-0.8 1-1.1 2.4-0.4 1.4-0.4 4.7v13.8h-4.4v-15.8q0-4.1-1.7-6-1.6-2-5-2-1.8 0-3.4 0.7-1.6 0.8-2.7 2.2-0.8 1-1.1 2.3-0.4 1.4-0.4 4.8v13.8h-4.4v-26.8h4.5v4.1q1.7-2.5 4-3.8 2.3-1.3 5.3-1.3 3.3 0 5.6 1.4 2.2 1.4 3.4 4.1 1.7-2.8 4.1-4.1 2.4-1.4 5.5-1.4 4.4 0 7 2.6 2.5 2.5 2.5 7v18.2z"/>
				<path id="&lt;Compound Path&gt;" fill-rule="evenodd" class="s1" d="m540.6 81.1v-39.9h4.4v5q1.5-2.9 4.1-4.4 2.5-1.6 5.7-1.6 5.8 0 9.3 4 3.5 4 3.5 10.5 0 6.6-3.5 10.5-3.4 4-9.2 4-3.3 0-5.7-1.6-2.5-1.5-4.1-4.4v17.9zm4.5-26.4q0 4.5 2.5 7.2 2.5 2.7 6.6 2.7 4 0 6.3-2.4 2.3-2.5 2.3-7 0-4.9-2.3-7.7-2.3-2.8-6.4-2.8-4.2 0-6.6 2.6-2.4 2.7-2.4 7.4z"/>
				<path id="&lt;Compound Path&gt;" fill-rule="evenodd" class="s1" d="m572.7 54.7q0-3 1.1-5.6 1.1-2.6 3.2-4.7 2.1-2 4.7-3.1 2.6-1.1 5.6-1.1 3 0 5.6 1.1 2.6 1.1 4.7 3.2 2.1 2 3.2 4.6 1.1 2.7 1.1 5.6 0 2.9-1.1 5.5-1.1 2.6-3.2 4.6-2.1 2.1-4.7 3.2-2.7 1.2-5.6 1.2-2.9 0-5.6-1.1-2.6-1.1-4.7-3.2-2.1-2.1-3.2-4.7-1.1-2.6-1.1-5.5zm4.9 0q0 4.2 2.8 7.2 2.9 2.9 6.9 2.9 4 0 6.9-2.9 2.8-3 2.8-7.2 0-4.3-2.8-7.2-2.9-3-6.9-3-4 0-6.9 3-2.8 2.9-2.8 7.2z"/>
				<path id="&lt;Compound Path&gt;" class="s1" d="m606.2 63.5l3.9-2.6q1.1 2.1 2.8 3.2 1.7 1 4.1 1 2.2 0 3.6-1.1 1.4-1.1 1.4-2.9 0-1.4-1-2.3-0.9-1-3.2-1.8-0.3-0.1-0.8-0.2-9.8-3.4-9.8-8.5 0-3.5 2.7-5.8 2.6-2.3 6.8-2.3 3.5 0 6 1.4 2.5 1.4 3.6 4l-3.8 2.3q-0.8-1.9-2.4-2.9-1.6-1-3.7-1-2 0-3.3 1.1-1.2 1.2-1.2 2.9 0 2.5 5.3 4.2 1 0.3 1.6 0.5 4.3 1.4 6 3.2 1.8 1.8 1.8 4.7 0 3.8-2.7 6.2-2.8 2.4-7.1 2.4-3.8 0-6.4-1.5-2.6-1.4-4.2-4.2z"/>
				<path id="&lt;Compound Path&gt;" class="s1" d="m634.2 45h-4.9v-3.8h4.9v-10.8h4.7v10.8h4.9v3.8h-4.9v23h-4.7z"/>
				<path id="&lt;Compound Path&gt;" fill-rule="evenodd" class="s1" d="m674 41.2v26.8h-4.5v-4.8q-1.6 2.9-4.1 4.4-2.5 1.6-5.6 1.6-5.8 0-9.3-4-3.5-4-3.5-10.5 0-6.6 3.4-10.5 3.4-4 9.2-4 3.3 0 5.8 1.5 2.5 1.6 4 4.5v-5zm-4.5 13.7q0-4.6-2.4-7.4-2.5-2.7-6.5-2.7-4.1 0-6.4 2.5-2.4 2.6-2.4 7.1 0 4.9 2.4 7.5 2.3 2.7 6.6 2.7 4.1 0 6.4-2.6 2.3-2.5 2.3-7.1z"/>
			</g>
		</g>
	</g>
</svg>