<svg version="1.2" xmlns="http://www.w3.org/2000/svg" viewBox="0 0 718 102" width="718" height="102">
	<title>PLACA INSTAGRAM</title>
	<defs>
		<clipPath clipPathUnits="userSpaceOnUse" id="cp1">
			<path d="m718.07 102.64h-718v-104h718z"/>
		</clipPath>
		<clipPath clipPathUnits="userSpaceOnUse" id="cp2">
			<path d="m102.6 0.09c-56.72 0-102.71 45.98-102.71 102.71h718.15v-102.71z"/>
		</clipPath>
		<linearGradient id="g1" x2="1" gradientUnits="userSpaceOnUse" gradientTransform="matrix(812.238,-3.982,.589,120.066,-97.616,106.796)">
			<stop offset="0" stop-color="#ffe185"/>
			<stop offset=".001" stop-color="#ffe185"/>
			<stop offset=".05" stop-color="#ffbb36"/>
			<stop offset=".281" stop-color="#ff5176"/>
			<stop offset=".524" stop-color="#f63395"/>
			<stop offset=".74" stop-color="#a436d2"/>
			<stop offset="1" stop-color="#5f4eed"/>
		</linearGradient>
	</defs>
	<style>
		.s0 { fill: url(#g1) } 
		.s1 { fill: #ffffff } 
	</style>
	<g id="Layer 1">
		<g id="&lt;Clip Group&gt;" clip-path="url(#cp1)">
			<g id="&lt;Clip Group&gt;" clip-path="url(#cp2)">
				<path id="&lt;Path&gt;" class="s0" d="m-0.6 0.1l718.6-3.5 0.5 106.2-718.6 3.5z"/>
			</g>
			<g id="&lt;Group&gt;">
				<path id="&lt;Compound Path&gt;" fill-rule="evenodd" class="s1" d="m274.6 43.2l1.7-3.5h3.3l-4.2 16.6q-0.1 0.7-0.2 1.3-0.1 0.6-0.1 1.1 0 1.3 0.8 1.9 0.8 0.7 2.4 0.7 1.3 0 2.9-0.7 1.6-0.7 3-1.9 2.7-2.2 4.1-5.7 1.5-3.6 1.5-7.5 0-7.8-5.7-12.5-5.7-4.8-15.2-4.8-4.9 0-9.2 1.6-4.2 1.5-7.6 4.4-4.1 3.6-6.1 8.3-2.1 4.7-2.1 10.4 0 5.1 1.7 8.9 1.8 3.8 5.5 6.7 3 2.4 7 3.7 4.1 1.3 8.7 1.3 5 0 9.8-1.5 4.7-1.4 8.7-4l1.3 1.9q-4.3 3.2-9.2 4.8-4.8 1.7-10.1 1.7-5.6 0-10.2-1.4-4.6-1.4-8.1-4.1-4.5-3.4-6.7-7.9-2.2-4.6-2.2-10.3 0-4.8 1.5-9.1 1.5-4.3 4.4-7.9 4.2-5.1 10.2-7.8 6-2.7 13.3-2.7 4.8 0 9.1 1.3 4.3 1.3 7.3 3.7 3.7 2.9 5.7 6.7 1.9 3.8 1.9 8.3 0 4.9-1.8 9-1.8 4.1-5.3 6.9-2.1 1.6-4.4 2.5-2.3 0.8-4.8 0.8-2.9 0-4.3-1.1-1.5-1.2-1.5-3.4 0-0.1 0-0.3 0.1-0.3 0.1-0.4-1.5 2.5-3.7 3.9-2.3 1.3-5 1.3-4.5 0-6.9-2.5-2.3-2.5-2.3-7.2 0-6.8 4-11.4 4-4.7 9.7-4.7 2.7 0 4.5 1.2 1.8 1.1 2.8 3.4zm-2.6 10.9l1.8-7.1q-0.5-2.6-2.2-4.1-1.6-1.5-3.9-1.5-4.3 0-7.2 3.9-2.8 3.9-2.8 9.6 0 3.2 1.5 5 1.5 1.7 4.2 1.7 3 0 5.4-2.1 2.4-2 3.2-5.4z"/>
				<path id="&lt;Compound Path&gt;" class="s1" d="m310.3 69.6l-13.3-28.4h5.2l8 18.7 8.1-18.7h5.2z"/>
				<path id="&lt;Compound Path&gt;" class="s1" d="m327.6 28.2q0-1.3 1-2.3 0.9-1 2.3-1 1.4 0 2.4 1 1 1 1 2.4 0 1.4-1 2.3-0.9 1-2.4 1-1.4 0-2.3-1-1-0.9-1-2.4zm1.1 39.8v-26.8h4.6v26.8z"/>
				<path id="&lt;Compound Path&gt;" class="s1" d="m351.8 69.6l-13.3-28.4h5.2l8 18.7 8.1-18.7h5.2z"/>
				<path id="&lt;Compound Path&gt;" fill-rule="evenodd" class="s1" d="m393.3 55.2h-21.2v0.5q0 4.3 2.4 6.9 2.5 2.7 6.4 2.7 2.7 0 4.9-1.5 2.2-1.4 3.8-4.4l3.5 2.4q-2 3.6-5.1 5.5-3.2 1.8-7.3 1.8-6.1 0-9.9-4-3.8-4.1-3.8-10.6 0-6.3 3.8-10.4 3.7-4 9.6-4 6 0 9.4 3.8 3.5 3.8 3.5 10.4zm-4.9-3.7q-0.3-3.5-2.4-5.4-2.1-2-5.8-2-3.3 0-5.6 2-2.2 2-2.5 5.4z"/>
				<path id="&lt;Compound Path&gt;" class="s1" d="m425.5 78.7v3.4h-30v-3.4z"/>
				<path id="&lt;Compound Path&gt;" class="s1" d="m450.8 61.6v5.3q-1.8 1.1-4.1 1.7-2.3 0.5-4.9 0.5-6.2 0-10-3.9-3.8-4-3.8-10.4 0-6.4 3.9-10.5 3.9-4.1 10.1-4.1 2.2 0 4.3 0.5 2.1 0.4 4 1.3v5q-1.7-1.2-3.6-1.8-1.9-0.6-3.8-0.6-4.5 0-7.3 2.8-2.7 2.9-2.7 7.6 0 4.1 2.8 6.9 2.7 2.7 6.8 2.7 2.1 0 4.1-0.7 2-0.7 4.2-2.3z"/>
				<path id="&lt;Compound Path&gt;" fill-rule="evenodd" class="s1" d="m454.7 54.6q0-2.9 1.1-5.6 1.1-2.6 3.2-4.6 2-2.1 4.7-3.1 2.6-1.1 5.6-1.1 2.9 0 5.5 1.1 2.7 1.1 4.8 3.1 2.1 2.1 3.2 4.7 1.1 2.6 1.1 5.5 0 3-1.1 5.6-1.1 2.5-3.2 4.6-2.1 2.1-4.8 3.2-2.6 1.1-5.5 1.1-3 0-5.6-1.1-2.7-1.1-4.7-3.1-2.1-2.2-3.2-4.7-1.1-2.6-1.1-5.6zm4.9 0q0 4.3 2.8 7.2 2.9 3 6.9 3 4 0 6.8-3 2.8-2.9 2.8-7.2 0-4.2-2.8-7.2-2.8-2.9-6.8-2.9-4.1 0-6.9 2.9-2.8 3-2.8 7.2z"/>
				<path id="&lt;Compound Path&gt;" class="s1" d="m528.3 68v-15.8q0-4.1-1.6-6.1-1.7-2-5.1-2-1.8 0-3.4 0.8-1.5 0.7-2.6 2.1-0.8 1.1-1.2 2.5-0.3 1.4-0.3 4.6v13.9h-4.4v-15.8q0-4.1-1.7-6.1-1.6-2-5-2-1.9 0-3.5 0.8-1.6 0.7-2.6 2.1-0.8 1-1.1 2.4-0.4 1.3-0.4 4.7v13.9h-4.4v-26.8h4.5v4.1q1.7-2.6 4-3.9 2.3-1.2 5.3-1.2 3.3 0 5.5 1.4 2.3 1.4 3.5 4 1.7-2.7 4.1-4.1 2.3-1.3 5.4-1.3 4.5 0 7 2.5 2.6 2.5 2.6 7v18.3z"/>
				<path id="&lt;Compound Path&gt;" fill-rule="evenodd" class="s1" d="m541.9 81v-39.8h4.4v5q1.5-2.9 4.1-4.5 2.5-1.5 5.6-1.5 5.8 0 9.4 3.9 3.5 4 3.5 10.5 0 6.7-3.5 10.6-3.4 3.9-9.2 3.9-3.3 0-5.8-1.5-2.4-1.5-4-4.5v17.9zm4.5-26.4q0 4.5 2.4 7.3 2.5 2.7 6.6 2.7 4.1 0 6.4-2.5 2.3-2.5 2.3-6.9 0-5-2.3-7.8-2.3-2.8-6.5-2.8-4.1 0-6.5 2.7-2.4 2.6-2.4 7.3z"/>
				<path id="&lt;Compound Path&gt;" fill-rule="evenodd" class="s1" d="m574 54.6q0-2.9 1.1-5.6 1.1-2.6 3.2-4.6 2.1-2.1 4.7-3.1 2.6-1.1 5.6-1.1 2.9 0 5.6 1.1 2.6 1.1 4.7 3.1 2.1 2.1 3.2 4.7 1.1 2.6 1.1 5.5 0 3-1.1 5.6-1.1 2.5-3.2 4.6-2.1 2.1-4.8 3.2-2.6 1.1-5.5 1.1-2.9 0-5.6-1.1-2.6-1.1-4.7-3.1-2.1-2.2-3.2-4.7-1.1-2.6-1.1-5.6zm4.9 0q0 4.3 2.8 7.2 2.9 3 6.9 3 4 0 6.8-3 2.9-2.9 2.9-7.2 0-4.2-2.9-7.2-2.8-2.9-6.8-2.9-4.1 0-6.9 2.9-2.8 3-2.8 7.2z"/>
				<path id="&lt;Compound Path&gt;" class="s1" d="m607.5 63.4l3.9-2.6q1.1 2.2 2.8 3.2 1.7 1.1 4 1.1 2.3 0 3.7-1.1 1.4-1.1 1.4-3 0-1.4-1-2.3-0.9-0.9-3.2-1.7-0.3-0.1-0.8-0.3-9.8-3.4-9.8-8.4 0-3.6 2.6-5.9 2.7-2.2 6.9-2.2 3.5 0 6 1.4 2.5 1.4 3.6 3.9l-3.8 2.3q-0.8-1.8-2.4-2.8-1.6-1-3.7-1-2 0-3.3 1.1-1.3 1.1-1.3 2.9 0 2.4 5.4 4.1 1 0.3 1.6 0.5 4.3 1.4 6 3.2 1.7 1.8 1.7 4.8 0 3.8-2.7 6.1-2.7 2.4-7 2.4-3.8 0-6.4-1.4-2.6-1.4-4.2-4.3z"/>
				<path id="&lt;Compound Path&gt;" class="s1" d="m635.5 44.9h-5v-3.7h5v-10.9h4.7v10.9h4.9v3.7h-4.9v23.1h-4.7z"/>
				<path id="&lt;Compound Path&gt;" fill-rule="evenodd" class="s1" d="m675.3 41.2v26.8h-4.5v-4.9q-1.6 2.9-4.1 4.5-2.5 1.5-5.6 1.5-5.8 0-9.3-4-3.6-3.9-3.6-10.5 0-6.6 3.5-10.5 3.4-3.9 9.1-3.9 3.4 0 5.9 1.5 2.5 1.5 4 4.5v-5zm-4.5 13.6q0-4.5-2.4-7.3-2.5-2.8-6.5-2.8-4.1 0-6.5 2.6-2.3 2.5-2.3 7.1 0 4.9 2.4 7.5 2.3 2.6 6.6 2.6 4.1 0 6.4-2.5 2.3-2.6 2.3-7.2z"/>
			</g>
			<path id="&lt;Compound Path&gt;" fill-rule="evenodd" class="s1" d="m214.1 43.8v14c0 4-3.2 7.2-7.2 7.2h-14c-3.9 0-7.2-3.2-7.2-7.2v-14c0-4 3.3-7.2 7.2-7.2h14c4 0 7.2 3.2 7.2 7.2zm-5.4 7c0-4.7-3.9-8.6-8.6-8.6-4.8 0-8.6 3.9-8.6 8.6 0 4.8 3.8 8.6 8.6 8.6 4.7 0 8.6-3.8 8.6-8.6zm2.6-9.2c0-1.1-1-2-2.1-2-1.1 0-2 0.9-2 2 0 1.1 0.9 2.1 2 2.1 1.1 0 2.1-1 2.1-2.1z"/>
			<path id="&lt;Compound Path&gt;" fill-rule="evenodd" class="s1" d="m230.8 50.9c0 17-13.8 30.9-30.9 30.9-17 0-30.9-13.9-30.9-30.9 0-17.1 13.9-31 30.9-31 17.1 0 30.9 13.9 30.9 31zm-12.7-7.3c0-6-4.9-10.9-10.9-10.9h-14.5c-6 0-10.9 4.9-10.9 10.9v14.4c0 6 4.9 10.9 10.9 10.9h14.5c6 0 10.9-4.9 10.9-10.9z"/>
			<path id="&lt;Path&gt;" class="s1" d="m200.1 55c-2.3 0-4.2-1.9-4.2-4.2 0-2.3 1.9-4.2 4.2-4.2 2.3 0 4.2 1.9 4.2 4.2 0 2.3-1.9 4.2-4.2 4.2z"/>
		</g>
	</g>
</svg>