<?xml version="1.0" encoding="UTF-8"?>
<svg id="Capa_1" xmlns="http://www.w3.org/2000/svg" version="1.1" viewBox="0 0 244.43 63.59">
  <!-- Generator: Adobe Illustrator 29.5.1, SVG Export Plug-In . SVG Version: 2.1.0 Build 141)  -->
  <defs>
    <style>
      .st0 {
        fill: #315c48;
      }
    </style>
  </defs>
  <path class="st0" d="M0,62.83V.81h12.23v49.91h14.1v12.11H0Z"/>
  <path class="st0" d="M72.73,32.71c0,9.46-1.98,16.97-5.95,22.54-3.97,5.57-9.26,8.35-15.89,8.35s-12.19-2.8-16.02-8.39-5.73-13.37-5.73-23.34,1.93-17.74,5.8-23.38C38.81,2.82,44.12,0,50.89,0s12.13,2.89,16.02,8.67c3.88,5.78,5.82,13.79,5.82,24.04ZM50.89,51.78c3.17,0,5.54-1.66,7.12-4.97,1.57-3.31,2.36-8.3,2.36-14.95s-.79-11.72-2.36-15.04c-1.57-3.31-3.94-4.97-7.12-4.97s-5.54,1.65-7.09,4.95c-1.56,3.3-2.34,8.32-2.34,15.06s.78,11.71,2.34,15c1.56,3.29,3.92,4.93,7.09,4.93Z"/>
  <path class="st0" d="M97.92,27.78h23.07c0,.31.01.79.04,1.42.03.64.04,1.11.04,1.42,0,10.37-1.9,18.45-5.71,24.26-3.81,5.81-9.07,8.71-15.78,8.71s-11.72-2.84-15.55-8.52c-3.82-5.68-5.73-13.42-5.73-23.22s1.98-17.66,5.95-23.34c3.96-5.68,9.37-8.52,16.23-8.52,4.64,0,8.59,1.36,11.83,4.08,3.24,2.72,5.61,6.67,7.12,11.85l-11.13,5.14c-.48-3.09-1.4-5.4-2.74-6.92s-3.12-2.29-5.33-2.29c-3.31,0-5.74,1.61-7.29,4.82-1.54,3.21-2.32,8.28-2.32,15.19s.81,11.6,2.44,15,4.01,5.1,7.16,5.1c2.75,0,4.89-1.15,6.44-3.46s2.32-5.56,2.32-9.75h-11.04v-10.96Z"/>
  <path class="st0" d="M128.76,62.83V.81h12.87c7.08,0,12.21,1.39,15.4,4.16,3.19,2.78,4.78,7.21,4.78,13.3,0,4.42-.81,7.97-2.44,10.64-1.63,2.68-4.08,4.55-7.37,5.63l11.89,28.29h-13.04l-10.11-25.66v25.66h-11.98ZM140.74,27.7c.14,0,.38.01.7.04s.56.04.7.04c2.69,0,4.71-.75,6.07-2.25s2.04-3.71,2.04-6.63-.62-5.14-1.87-6.5-3.24-2.04-5.99-2.04c-.42,0-.75,0-.98.02-.23.01-.44.04-.64.06l-.04,17.25Z"/>
  <path class="st0" d="M210.19,32.71c0,9.46-1.98,16.97-5.95,22.54-3.97,5.57-9.26,8.35-15.89,8.35s-12.19-2.8-16.02-8.39c-3.82-5.59-5.73-13.37-5.73-23.34s1.93-17.74,5.8-23.38c3.87-5.65,9.18-8.47,15.95-8.47s12.13,2.89,16.02,8.67c3.88,5.78,5.82,13.79,5.82,24.04ZM188.36,51.78c3.17,0,5.54-1.66,7.12-4.97,1.57-3.31,2.36-8.3,2.36-14.95s-.79-11.72-2.36-15.04c-1.57-3.31-3.94-4.97-7.12-4.97s-5.54,1.65-7.09,4.95c-1.56,3.3-2.34,8.32-2.34,15.06s.78,11.71,2.34,15c1.56,3.29,3.92,4.93,7.09,4.93Z"/>
  <path class="st0" d="M215.93,60.66v-12.87c1.56,1.36,3.09,2.38,4.59,3.06,1.5.68,3.02,1.02,4.54,1.02,2.1,0,3.75-.55,4.95-1.66,1.2-1.1,1.8-2.6,1.8-4.5,0-2.35-1.63-4.9-4.88-7.65-.91-.77-1.59-1.36-2.04-1.79-3.79-3.4-6.4-6.45-7.82-9.15-1.42-2.7-2.12-5.77-2.12-9.2,0-5.35,1.51-9.68,4.52-12.98,3.02-3.3,6.96-4.95,11.83-4.95,1.73,0,3.43.25,5.12.74s3.46,1.27,5.33,2.32v10.96c-2.18-1.05-3.87-1.77-5.08-2.17-1.21-.4-2.27-.59-3.21-.59-1.78,0-3.24.56-4.38,1.68-1.13,1.12-1.7,2.58-1.7,4.4,0,1.59.43,3.07,1.28,4.44.85,1.37,2.83,3.41,5.95,6.1,4.16,3.57,6.84,6.54,8.03,8.9s1.78,5.22,1.78,8.56c0,5.64-1.59,10.09-4.78,13.36-3.19,3.27-7.53,4.91-13.02,4.91-2.1,0-4.03-.24-5.8-.72-1.77-.48-3.41-1.22-4.91-2.21Z"/>
</svg>