<?xml version="1.0" encoding="UTF-8"?>
<svg id="Capa_1" xmlns="http://www.w3.org/2000/svg" xmlns:xlink="http://www.w3.org/1999/xlink" version="1.1" viewBox="0 0 184.38 184.38">
  <!-- Generator: Adobe Illustrator 29.5.1, SVG Export Plug-In . SVG Version: 2.1.0 Build 141)  -->
  <defs>
    <style>
      .st0 {
        fill: none;
      }

      .st1 {
        fill: #fff;
      }

      .st1, .st2, .st3 {
        fill-rule: evenodd;
      }

      .st2 {
        fill: #d13e5a;
      }

      .st3 {
        fill: #69b8c4;
      }

      .st4 {
        clip-path: url(#clippath-1);
      }

      .st5 {
        fill: url(#Degradado_sin_nombre_11);
      }

      .st6 {
        clip-path: url(#clippath);
      }
    </style>
    <clipPath id="clippath">
      <path class="st0" d="M92.19-.56C40.97-.56-.56,40.96-.56,92.19s41.53,92.75,92.75,92.75,92.76-41.53,92.76-92.75S143.42-.56,92.19-.56Z"/>
    </clipPath>
    <linearGradient id="Degradado_sin_nombre_11" data-name="Degradado sin nombre 11" x1="-499.09" y1="1124.3" x2="-492.74" y2="1124.3" gradientTransform="translate(-32785.57 14594.15) rotate(90) scale(29.24 -29.24)" gradientUnits="userSpaceOnUse">
      <stop offset="0" stop-color="#231d44"/>
      <stop offset="1" stop-color="#010101"/>
    </linearGradient>
    <clipPath id="clippath-1">
      <rect class="st0" x="-.56" y="-.56" width="185.51" height="185.51"/>
    </clipPath>
  </defs>
  <g class="st6">
    <rect class="st5" x="-38.99" y="-38.99" width="262.35" height="262.35" transform="translate(-38.19 92.19) rotate(-45)"/>
  </g>
  <g class="st4">
    <path class="st2" d="M117.27,75.18c7.59,5.42,16.89,8.61,26.94,8.61v-19.32c-1.9,0-3.8-.2-5.66-.59v15.21c-10.04,0-19.34-3.19-26.93-8.61v39.41c0,19.72-15.99,35.7-35.72,35.7-7.37,0-14.2-2.23-19.89-6.04,6.49,6.63,15.53,10.75,25.54,10.75,19.73,0,35.72-15.99,35.72-35.71v-39.41ZM124.25,55.69c-3.88-4.23-6.43-9.71-6.98-15.76v-2.49h-5.36c1.35,7.69,5.95,14.26,12.34,18.24M68.49,124.42c-2.17-2.84-3.34-6.32-3.33-9.89,0-9.01,7.31-16.33,16.34-16.33,1.68,0,3.36.26,4.96.77v-19.75c-1.87-.26-3.77-.37-5.66-.32v15.37c-1.6-.51-3.27-.77-4.95-.77-9.03,0-16.34,7.31-16.34,16.33,0,6.38,3.66,11.9,8.99,14.59"/>
    <path class="st1" d="M111.62,70.47c7.59,5.42,16.89,8.61,26.93,8.61v-15.21c-5.6-1.19-10.56-4.12-14.3-8.2-6.39-3.98-10.99-10.55-12.34-18.24h-14.08v77.15c-.03,9-7.33,16.28-16.34,16.28-5.3,0-10.02-2.53-13-6.45-5.34-2.68-8.99-8.21-8.99-14.58,0-9.02,7.31-16.34,16.34-16.34,1.73,0,3.39.27,4.96.77v-15.37c-19.39.4-34.97,16.23-34.97,35.7,0,9.71,3.88,18.52,10.18,24.96,5.68,3.81,12.52,6.04,19.89,6.04,19.73,0,35.72-15.99,35.72-35.71v-39.41Z"/>
    <path class="st3" d="M138.55,63.88v-4.11c-5.06,0-10.02-1.41-14.3-4.09,3.79,4.16,8.79,7.02,14.3,8.2M111.91,37.44c-.13-.73-.23-1.47-.3-2.21v-2.49h-19.44v77.15c-.03,9-7.33,16.28-16.34,16.28-2.65,0-5.14-.63-7.35-1.74,2.98,3.91,7.69,6.45,13,6.45,9,0,16.31-7.28,16.34-16.28V37.44h14.08ZM80.8,78.9v-4.38c-1.62-.22-3.26-.34-4.9-.33-19.74,0-35.73,15.98-35.73,35.7,0,12.36,6.29,23.26,15.84,29.67-6.3-6.44-10.18-15.25-10.18-24.97,0-19.46,15.59-35.29,34.97-35.69"/>
  </g>
</svg>