<?xml version="1.0" encoding="utf-8"?>
<!-- Generator: Adobe Illustrator 24.1.1, SVG Export Plug-In . SVG Version: 6.00 Build 0)  -->
<svg version="1.1" id="Capa_1" xmlns="http://www.w3.org/2000/svg" xmlns:xlink="http://www.w3.org/1999/xlink" x="0px" y="0px"
	 viewBox="0 0 333.44 72.49" style="enable-background:new 0 0 333.44 72.49;" xml:space="preserve">
<style type="text/css">
	.st0{fill:#731B00;}
	.st1{fill:#FFFFFF;}
</style>
<g>
	<path class="st0" d="M310.95,72.87H21.72c-12.21,0-22.11-9.9-22.11-22.11V22.49c0-12.21,9.9-22.11,22.11-22.11h289.22
		c12.21,0,22.11,9.9,22.11,22.11v28.28C333.05,62.98,323.16,72.87,310.95,72.87z"/>
	<g>
		<path class="st1" d="M65.94,48.38l-3.18,2.76l-2.76-3.04c-0.62,0.4-1.3,0.7-2.06,0.89c-0.76,0.19-1.62,0.29-2.58,0.29
			c-3.26,0-5.79-1.35-7.59-4.04c-1.8-2.7-2.71-6.48-2.71-11.37c0-4.53,0.92-8.1,2.76-10.71c1.84-2.61,4.35-3.91,7.54-3.91
			c3.29,0,5.83,1.34,7.63,4.03c1.8,2.69,2.71,6.5,2.71,11.42c0,2.41-0.23,4.48-0.68,6.19s-1.15,3.11-2.09,4.2L65.94,48.38z
			 M56.31,37.76l2.76,3.04c0.27-0.82,0.47-1.74,0.59-2.77c0.13-1.03,0.19-2.24,0.19-3.65c0-3.17-0.38-5.55-1.14-7.15
			s-1.87-2.4-3.35-2.4c-1.53,0-2.66,0.82-3.4,2.46c-0.74,1.64-1.11,4.17-1.11,7.59c0,2.94,0.38,5.17,1.14,6.71
			c0.76,1.54,1.86,2.3,3.31,2.3c0.12,0,0.25-0.01,0.4-0.02c0.15-0.01,0.32-0.03,0.5-0.06l-3.08-3.42L56.31,37.76z"/>
		<path class="st1" d="M83.33,29.27v10.22c0,3.94-0.52,6.58-1.56,7.9c-1.04,1.32-2.92,1.98-5.64,1.98c-2.74,0-4.63-0.66-5.68-1.97
			s-1.58-3.95-1.58-7.91V29.27h5.31v12.69c0,1.03,0.14,1.73,0.42,2.09c0.28,0.36,0.78,0.54,1.49,0.54s1.21-0.19,1.5-0.56
			c0.29-0.38,0.43-1.07,0.43-2.07V29.27H83.33z"/>
		<path class="st1" d="M86.91,24c0-0.9,0.3-1.65,0.89-2.26s1.34-0.92,2.24-0.92c0.86,0,1.59,0.31,2.2,0.93
			c0.61,0.62,0.92,1.37,0.92,2.25c0,0.86-0.3,1.59-0.91,2.18s-1.34,0.89-2.21,0.89c-0.9,0-1.65-0.29-2.24-0.88
			C87.2,25.62,86.91,24.88,86.91,24z M87.31,49V29.27h5.45V49H87.31z"/>
		<path class="st1" d="M101.15,40.6v0.16c0,1.47,0.26,2.61,0.78,3.4c0.52,0.79,1.27,1.19,2.23,1.19c0.62,0,1.14-0.19,1.58-0.56
			c0.44-0.38,0.79-0.95,1.06-1.71h4.69c-0.43,1.97-1.32,3.51-2.67,4.63s-3,1.67-4.96,1.67c-2.45,0-4.41-0.92-5.85-2.76
			c-1.45-1.84-2.17-4.32-2.17-7.44c0-3.17,0.72-5.67,2.17-7.5c1.45-1.84,3.4-2.76,5.85-2.76c2.6,0,4.57,0.91,5.89,2.72
			c1.33,1.81,1.99,4.49,1.99,8.03v0.95H101.15z M106.96,37.46c-0.04-1.43-0.3-2.5-0.77-3.19s-1.19-1.04-2.14-1.04
			c-0.94,0-1.66,0.36-2.15,1.09c-0.5,0.72-0.74,1.78-0.74,3.16L106.96,37.46z"/>
		<path class="st1" d="M114.55,49V29.27h5.07v3.5c0.44-1.29,1.03-2.25,1.77-2.89s1.63-0.96,2.68-0.98v5.19h-0.36
			c-1.43,0-2.41,0.34-2.93,1.02c-0.52,0.68-0.77,2.22-0.77,4.62V49H114.55z"/>
		<path class="st1" d="M141.75,39.11c0,3.14-0.75,5.63-2.24,7.48c-1.5,1.85-3.49,2.78-5.99,2.78c-2.51,0-4.5-0.92-5.98-2.77
			c-1.48-1.84-2.22-4.34-2.22-7.49c0-3.13,0.74-5.61,2.22-7.44c1.48-1.84,3.48-2.76,5.98-2.76s4.51,0.92,6,2.77
			C141,33.52,141.75,35.99,141.75,39.11z M133.52,44.6c0.97,0,1.71-0.48,2.24-1.44c0.53-0.96,0.79-2.32,0.79-4.09
			c0-1.76-0.26-3.11-0.79-4.07s-1.28-1.44-2.24-1.44s-1.71,0.48-2.23,1.43c-0.52,0.95-0.79,2.31-0.79,4.08
			c0,1.78,0.26,3.15,0.79,4.1C131.81,44.12,132.55,44.6,133.52,44.6z"/>
		<path class="st1" d="M152.27,47.31l2.25-4c0.67,0.44,1.25,0.77,1.75,0.98c0.5,0.21,0.95,0.31,1.35,0.31c0.42,0,0.76-0.13,1.04-0.4
			c0.27-0.27,0.41-0.6,0.41-1.01c0-0.7-0.67-1.46-2.01-2.29c-0.35-0.21-0.62-0.38-0.8-0.5c-1.29-0.87-2.19-1.72-2.72-2.54
			c-0.52-0.83-0.78-1.8-0.78-2.93c0-1.85,0.58-3.32,1.73-4.4c1.15-1.08,2.71-1.62,4.67-1.62c0.98,0,1.91,0.14,2.81,0.41
			c0.89,0.28,1.75,0.7,2.59,1.28l-2.31,3.9c-0.52-0.44-1.01-0.77-1.46-0.99c-0.45-0.21-0.87-0.32-1.26-0.32
			c-0.44,0-0.8,0.12-1.08,0.36c-0.27,0.24-0.41,0.56-0.41,0.95c0,0.58,0.62,1.25,1.87,2.01c0.39,0.24,0.69,0.44,0.91,0.58
			c1.39,0.97,2.37,1.88,2.92,2.75s0.83,1.89,0.83,3.07c0,1.92-0.63,3.47-1.89,4.67c-1.26,1.19-2.91,1.79-4.95,1.79
			c-0.99,0-1.94-0.17-2.84-0.5C153.97,48.53,153.1,48.01,152.27,47.31z"/>
		<path class="st1" d="M171.78,40.6v0.16c0,1.47,0.26,2.61,0.78,3.4c0.52,0.79,1.27,1.19,2.23,1.19c0.62,0,1.14-0.19,1.58-0.56
			c0.44-0.38,0.79-0.95,1.06-1.71h4.69c-0.43,1.97-1.32,3.51-2.67,4.63s-3,1.67-4.96,1.67c-2.45,0-4.41-0.92-5.85-2.76
			c-1.45-1.84-2.17-4.32-2.17-7.44c0-3.17,0.72-5.67,2.17-7.5c1.45-1.84,3.4-2.76,5.85-2.76c2.6,0,4.57,0.91,5.89,2.72
			c1.33,1.81,1.99,4.49,1.99,8.03v0.95H171.78z M177.6,37.46c-0.04-1.43-0.3-2.5-0.77-3.19s-1.19-1.04-2.14-1.04
			c-0.94,0-1.66,0.36-2.15,1.09c-0.5,0.72-0.74,1.78-0.74,3.16L177.6,37.46z"/>
		<path class="st1" d="M185.18,49V29.27h5.07v3.5c0.44-1.29,1.03-2.25,1.77-2.89s1.63-0.96,2.68-0.98v5.19h-0.36
			c-1.43,0-2.41,0.34-2.93,1.02c-0.52,0.68-0.77,2.22-0.77,4.62V49H185.18z"/>
		<path class="st1" d="M206.12,56.95V29.27h5.11v3.02c0.63-1.1,1.31-1.91,2.03-2.43c0.72-0.52,1.52-0.78,2.37-0.78
			c1.86,0,3.3,0.88,4.31,2.63c1.01,1.76,1.51,4.27,1.51,7.54c0,3.25-0.5,5.76-1.49,7.54c-0.99,1.78-2.39,2.68-4.18,2.68
			c-0.95,0-1.8-0.29-2.55-0.86s-1.38-1.4-1.87-2.48v10.82H206.12z M213.79,33.51c-0.84,0-1.46,0.42-1.85,1.25
			c-0.39,0.83-0.58,2.19-0.58,4.06c0,2.05,0.18,3.51,0.55,4.39c0.37,0.87,0.97,1.31,1.8,1.31c0.8,0,1.4-0.47,1.78-1.4
			c0.38-0.93,0.57-2.39,0.57-4.38c0-1.84-0.18-3.17-0.54-3.99C215.16,33.93,214.58,33.51,213.79,33.51z"/>
		<path class="st1" d="M239.34,49h-5.11v-2.92c-0.58,1.09-1.24,1.9-1.98,2.45s-1.57,0.83-2.46,0.83c-1.88,0-3.32-0.87-4.32-2.62
			c-1-1.74-1.5-4.27-1.5-7.58c0-3.22,0.51-5.71,1.54-7.46c1.03-1.76,2.46-2.63,4.31-2.63c0.87,0,1.67,0.26,2.38,0.78
			c0.72,0.52,1.39,1.33,2.02,2.43v-3.02h5.11V49z M234.23,38.83c0-1.8-0.21-3.13-0.63-4c-0.42-0.87-1.08-1.31-1.96-1.31
			c-0.79,0-1.36,0.42-1.72,1.26s-0.53,2.2-0.53,4.09c0,1.88,0.2,3.28,0.59,4.21c0.4,0.93,1,1.4,1.8,1.4c0.86,0,1.48-0.45,1.87-1.35
			C234.03,42.23,234.23,40.8,234.23,38.83z"/>
		<path class="st1" d="M243.42,49V29.27h5.07v3.5c0.44-1.29,1.03-2.25,1.77-2.89s1.63-0.96,2.68-0.98v5.19h-0.36
			c-1.43,0-2.41,0.34-2.93,1.02c-0.52,0.68-0.77,2.22-0.77,4.62V49H243.42z"/>
		<path class="st1" d="M255.79,49V33.51h-2.15v-4.24h2.15v-5.69h5.43v5.69h2.15v4.24h-2.15V49H255.79z"/>
		<path class="st1" d="M270.08,40.6v0.16c0,1.47,0.26,2.61,0.78,3.4c0.52,0.79,1.27,1.19,2.23,1.19c0.62,0,1.14-0.19,1.58-0.56
			c0.44-0.38,0.79-0.95,1.06-1.71h4.69c-0.43,1.97-1.32,3.51-2.67,4.63s-3,1.67-4.96,1.67c-2.45,0-4.41-0.92-5.85-2.76
			c-1.45-1.84-2.17-4.32-2.17-7.44c0-3.17,0.72-5.67,2.17-7.5c1.45-1.84,3.4-2.76,5.85-2.76c2.6,0,4.57,0.91,5.89,2.72
			c1.33,1.81,1.99,4.49,1.99,8.03v0.95H270.08z M275.89,37.46c-0.04-1.43-0.3-2.5-0.77-3.19s-1.19-1.04-2.14-1.04
			c-0.94,0-1.66,0.36-2.15,1.09c-0.5,0.72-0.74,1.78-0.74,3.16L275.89,37.46z"/>
	</g>
</g>
</svg>
