<?xml version="1.0" encoding="utf-8"?>
<!-- Generator: Adobe Illustrator 24.1.1, SVG Export Plug-In . SVG Version: 6.00 Build 0)  -->
<svg version="1.1" id="Capa_1" xmlns="http://www.w3.org/2000/svg" xmlns:xlink="http://www.w3.org/1999/xlink" x="0px" y="0px"
	 viewBox="0 0 333.44 72.49" style="enable-background:new 0 0 333.44 72.49;" xml:space="preserve">
<style type="text/css">
	.st0{fill:#731B00;}
	.st1{fill:#FFFFFF;}
</style>
<g>
	<path class="st0" d="M311.33,72.49H22.11C9.9,72.49,0,62.59,0,50.38V22.11C0,9.9,9.9,0,22.11,0h289.22
		c12.21,0,22.11,9.9,22.11,22.11v28.28C333.44,62.59,323.54,72.49,311.33,72.49z"/>
	<g>
		<path class="st1" d="M54.9,48l-3.18,2.76l-2.76-3.04c-0.62,0.4-1.3,0.7-2.06,0.89c-0.76,0.19-1.62,0.29-2.58,0.29
			c-3.26,0-5.79-1.35-7.59-4.04s-2.71-6.48-2.71-11.37c0-4.53,0.92-8.1,2.76-10.71c1.84-2.61,4.35-3.91,7.54-3.91
			c3.29,0,5.83,1.35,7.63,4.03s2.71,6.5,2.71,11.42c0,2.41-0.23,4.48-0.68,6.19s-1.15,3.11-2.09,4.2L54.9,48z M45.26,37.38
			l2.76,3.04c0.27-0.82,0.47-1.74,0.59-2.77c0.13-1.03,0.19-2.24,0.19-3.65c0-3.17-0.38-5.55-1.14-7.15c-0.76-1.6-1.87-2.4-3.35-2.4
			c-1.53,0-2.66,0.82-3.4,2.46c-0.74,1.64-1.11,4.17-1.11,7.59c0,2.94,0.38,5.17,1.14,6.71c0.76,1.54,1.86,2.3,3.31,2.3
			c0.12,0,0.25-0.01,0.4-0.02c0.15-0.01,0.32-0.03,0.5-0.06l-3.08-3.42L45.26,37.38z"/>
		<path class="st1" d="M72.28,28.89v10.22c0,3.94-0.52,6.58-1.56,7.9c-1.04,1.32-2.92,1.98-5.64,1.98c-2.74,0-4.63-0.66-5.68-1.97
			s-1.58-3.95-1.58-7.91V28.89h5.31v12.69c0,1.03,0.14,1.73,0.42,2.09c0.28,0.36,0.78,0.54,1.49,0.54s1.21-0.19,1.5-0.56
			c0.29-0.38,0.43-1.07,0.43-2.07V28.89H72.28z"/>
		<path class="st1" d="M75.86,23.62c0-0.9,0.3-1.65,0.89-2.26c0.6-0.61,1.34-0.92,2.24-0.92c0.86,0,1.59,0.31,2.2,0.93
			s0.92,1.37,0.92,2.25c0,0.86-0.3,1.59-0.91,2.18c-0.6,0.6-1.34,0.89-2.21,0.89c-0.9,0-1.65-0.29-2.24-0.88S75.86,24.5,75.86,23.62
			z M76.27,48.62V28.89h5.45v19.73H76.27z"/>
		<path class="st1" d="M90.11,40.21v0.16c0,1.48,0.26,2.61,0.78,3.4c0.52,0.79,1.27,1.19,2.23,1.19c0.62,0,1.14-0.19,1.58-0.56
			c0.44-0.38,0.79-0.95,1.06-1.71h4.69c-0.43,1.97-1.32,3.51-2.67,4.63s-3,1.67-4.96,1.67c-2.45,0-4.41-0.92-5.85-2.76
			c-1.45-1.84-2.17-4.32-2.17-7.44c0-3.17,0.72-5.67,2.17-7.5c1.45-1.84,3.4-2.76,5.85-2.76c2.6,0,4.57,0.91,5.89,2.72
			c1.33,1.81,1.99,4.49,1.99,8.03v0.95H90.11z M95.92,37.07c-0.04-1.44-0.3-2.5-0.77-3.19c-0.48-0.69-1.19-1.04-2.14-1.04
			c-0.94,0-1.66,0.36-2.15,1.09s-0.74,1.78-0.74,3.16L95.92,37.07z"/>
		<path class="st1" d="M103.51,48.62V28.89h5.07v3.5c0.44-1.29,1.03-2.25,1.77-2.89s1.63-0.96,2.68-0.98v5.19h-0.36
			c-1.43,0-2.41,0.34-2.93,1.02c-0.52,0.68-0.77,2.22-0.77,4.62v9.27H103.51z"/>
		<path class="st1" d="M130.7,38.72c0,3.14-0.75,5.63-2.24,7.48c-1.5,1.85-3.49,2.78-5.99,2.78c-2.51,0-4.5-0.92-5.98-2.77
			c-1.48-1.84-2.22-4.34-2.22-7.49c0-3.13,0.74-5.61,2.22-7.44c1.48-1.84,3.48-2.76,5.98-2.76s4.51,0.92,6,2.77
			C129.96,33.13,130.7,35.61,130.7,38.72z M122.48,44.22c0.97,0,1.71-0.48,2.24-1.44s0.79-2.32,0.79-4.09
			c0-1.76-0.26-3.12-0.79-4.07s-1.28-1.44-2.24-1.44s-1.71,0.48-2.23,1.43c-0.52,0.95-0.79,2.31-0.79,4.08
			c0,1.78,0.26,3.15,0.79,4.1C120.77,43.74,121.51,44.22,122.48,44.22z"/>
		<path class="st1" d="M142.41,23.62c0-0.9,0.3-1.65,0.89-2.26c0.6-0.61,1.34-0.92,2.24-0.92c0.86,0,1.59,0.31,2.2,0.93
			s0.92,1.37,0.92,2.25c0,0.86-0.3,1.59-0.91,2.18c-0.6,0.6-1.34,0.89-2.21,0.89c-0.9,0-1.65-0.29-2.24-0.88
			S142.41,24.5,142.41,23.62z M142.82,48.62V28.89h5.45v19.73H142.82z"/>
		<path class="st1" d="M161.53,48.62V36.67c0-1.13-0.13-1.9-0.4-2.32c-0.27-0.42-0.72-0.63-1.37-0.63c-0.7,0-1.2,0.25-1.51,0.74
			s-0.46,1.31-0.46,2.45v11.71h-5.45V28.89h5.07v3.06c0.71-1.1,1.51-1.92,2.4-2.45c0.89-0.54,1.9-0.8,3.03-0.8
			c1.54,0,2.62,0.44,3.22,1.31c0.6,0.87,0.91,2.59,0.91,5.15v13.48H161.53z"/>
		<path class="st1" d="M169.35,46.93l2.25-4c0.67,0.44,1.25,0.77,1.75,0.98c0.5,0.21,0.95,0.31,1.35,0.31c0.42,0,0.76-0.13,1.04-0.4
			c0.27-0.27,0.41-0.6,0.41-1.01c0-0.7-0.67-1.46-2.01-2.29c-0.35-0.21-0.62-0.38-0.8-0.5c-1.29-0.87-2.19-1.72-2.72-2.54
			c-0.52-0.83-0.78-1.8-0.78-2.93c0-1.85,0.58-3.32,1.73-4.4s2.71-1.62,4.67-1.62c0.98,0,1.91,0.14,2.81,0.41
			c0.89,0.27,1.75,0.7,2.59,1.28l-2.31,3.9c-0.52-0.44-1.01-0.77-1.46-0.99s-0.87-0.32-1.26-0.32c-0.44,0-0.8,0.12-1.08,0.36
			c-0.27,0.24-0.41,0.56-0.41,0.95c0,0.58,0.62,1.25,1.87,2.01c0.39,0.24,0.69,0.44,0.91,0.58c1.39,0.97,2.37,1.88,2.92,2.75
			s0.83,1.89,0.83,3.07c0,1.92-0.63,3.47-1.89,4.67s-2.91,1.79-4.95,1.79c-0.99,0-1.94-0.17-2.84-0.5
			C171.05,48.15,170.18,47.63,169.35,46.93z"/>
		<path class="st1" d="M194.96,34.5c-0.43-0.32-0.85-0.56-1.25-0.7s-0.8-0.22-1.21-0.22c-1.05,0-1.88,0.45-2.49,1.36
			s-0.93,2.13-0.93,3.67c0,1.62,0.31,2.87,0.94,3.75c0.62,0.88,1.51,1.32,2.65,1.32c0.43,0,0.83-0.08,1.21-0.25
			c0.38-0.17,0.74-0.43,1.09-0.78v5.19c-0.56,0.39-1.16,0.68-1.78,0.87c-0.62,0.19-1.28,0.28-1.96,0.28c-2.31,0-4.14-0.92-5.5-2.76
			c-1.36-1.84-2.04-4.34-2.04-7.5c0-3.13,0.68-5.61,2.05-7.44c1.37-1.84,3.2-2.76,5.49-2.76c0.66,0,1.29,0.06,1.91,0.19
			c0.62,0.13,1.23,0.32,1.83,0.57V34.5z"/>
		<path class="st1" d="M197.72,48.62V28.89h5.07v3.5c0.44-1.29,1.03-2.25,1.77-2.89s1.63-0.96,2.68-0.98v5.19h-0.36
			c-1.43,0-2.41,0.34-2.93,1.02c-0.52,0.68-0.77,2.22-0.77,4.62v9.27H197.72z"/>
		<path class="st1" d="M209.26,23.62c0-0.9,0.3-1.65,0.89-2.26c0.6-0.61,1.34-0.92,2.24-0.92c0.86,0,1.59,0.31,2.2,0.93
			s0.92,1.37,0.92,2.25c0,0.86-0.3,1.59-0.91,2.18c-0.6,0.6-1.34,0.89-2.21,0.89c-0.9,0-1.65-0.29-2.24-0.88
			S209.26,24.5,209.26,23.62z M209.67,48.62V28.89h5.45v19.73H209.67z"/>
		<path class="st1" d="M219.3,48.62V17.44h5.23v14.24c0.59-1.01,1.24-1.76,1.94-2.25s1.49-0.74,2.34-0.74c1.9,0,3.35,0.89,4.34,2.68
			c0.99,1.78,1.48,4.39,1.48,7.83c0,3.08-0.51,5.5-1.52,7.23c-1.01,1.74-2.4,2.61-4.15,2.61c-0.96,0-1.82-0.28-2.56-0.83
			s-1.37-1.37-1.86-2.45v2.88H219.3z M226.97,33.09c-0.86,0-1.49,0.43-1.88,1.28c-0.4,0.85-0.59,2.21-0.59,4.07
			c0,2.03,0.19,3.48,0.56,4.37c0.38,0.89,0.99,1.33,1.83,1.33c0.8,0,1.4-0.46,1.78-1.4c0.38-0.93,0.57-2.39,0.57-4.38
			c0-1.85-0.18-3.19-0.54-4.02C228.34,33.51,227.76,33.09,226.97,33.09z"/>
		<path class="st1" d="M237.65,23.62c0-0.9,0.3-1.65,0.89-2.26c0.6-0.61,1.34-0.92,2.24-0.92c0.86,0,1.59,0.31,2.2,0.93
			s0.92,1.37,0.92,2.25c0,0.86-0.3,1.59-0.91,2.18c-0.6,0.6-1.34,0.89-2.21,0.89c-0.9,0-1.65-0.29-2.24-0.88
			S237.65,24.5,237.65,23.62z M238.05,48.62V28.89h5.45v19.73H238.05z"/>
		<path class="st1" d="M247.65,48.62V28.89h5.07v3.5c0.44-1.29,1.03-2.25,1.77-2.89s1.63-0.96,2.68-0.98v5.19h-0.36
			c-1.43,0-2.41,0.34-2.93,1.02c-0.52,0.68-0.77,2.22-0.77,4.62v9.27H247.65z"/>
		<path class="st1" d="M259.44,48.62V28.89h5.03v3.06c0.68-1.1,1.46-1.92,2.31-2.45c0.86-0.54,1.82-0.8,2.88-0.8
			c1.07,0,1.94,0.27,2.62,0.82c0.67,0.55,1.12,1.36,1.35,2.43c0.76-1.11,1.57-1.93,2.41-2.46c0.84-0.53,1.76-0.79,2.74-0.79
			c1.43,0,2.44,0.5,3.01,1.49c0.57,0.99,0.85,3.04,0.85,6.14v12.31h-5.35V36.67c0-1.11-0.12-1.88-0.36-2.31
			c-0.24-0.43-0.66-0.64-1.25-0.64c-0.71,0-1.22,0.23-1.52,0.7c-0.3,0.47-0.45,1.3-0.45,2.5v11.71h-5.31V36.67
			c0-1.09-0.12-1.86-0.37-2.31s-0.66-0.68-1.24-0.68c-0.72,0-1.24,0.25-1.56,0.74c-0.31,0.5-0.47,1.33-0.47,2.5v11.71H259.44z"/>
		<path class="st1" d="M290.74,40.21v0.16c0,1.48,0.26,2.61,0.78,3.4c0.52,0.79,1.27,1.19,2.23,1.19c0.62,0,1.14-0.19,1.58-0.56
			c0.44-0.38,0.79-0.95,1.06-1.71h4.69c-0.43,1.97-1.32,3.51-2.67,4.63s-3,1.67-4.96,1.67c-2.45,0-4.41-0.92-5.85-2.76
			c-1.45-1.84-2.17-4.32-2.17-7.44c0-3.17,0.72-5.67,2.17-7.5c1.45-1.84,3.4-2.76,5.85-2.76c2.6,0,4.57,0.91,5.89,2.72
			c1.33,1.81,1.99,4.49,1.99,8.03v0.95H290.74z M296.55,37.07c-0.04-1.44-0.3-2.5-0.77-3.19c-0.48-0.69-1.19-1.04-2.14-1.04
			c-0.94,0-1.66,0.36-2.15,1.09s-0.74,1.78-0.74,3.16L296.55,37.07z"/>
	</g>
</g>
</svg>
