<svg id="Capa_1" data-name="Capa 1" xmlns="http://www.w3.org/2000/svg" viewBox="0 0 478.58 455.88"><defs><style>.cls-1{fill:#138d6e;}.cls-2{fill:#fae102;}.cls-3{fill:#dad1ce;opacity:0.4;}.cls-4{fill:#badf3e;}.cls-5{fill:#ff985d;}.cls-6{fill:#8fb11f;}.cls-7{fill:#1a6652;}.cls-8{fill:#18614f;}.cls-9{fill:#fcd005;}.cls-10{fill:#98e3e3;opacity:0.79;}.cls-11{fill:#0e1a34;}.cls-12{fill:#fff;}.cls-13{fill:#753519;}.cls-14{fill:#33a753;}</style></defs><path class="cls-1" d="M391.71,246.3l-.16-2.24s1-.07,2.68-.07,4.08.06,6.94.28A105.28,105.28,0,0,1,421.86,248a96.87,96.87,0,0,1,19.48,7.87,67.65,67.65,0,0,1,6,3.5l2.2,1.45-1.26,1.86-2.15-1.41a64.46,64.46,0,0,0-5.85-3.42,95,95,0,0,0-19-7.69A103.14,103.14,0,0,0,401,246.51c-2.8-.21-5.14-.29-6.76-.27S391.71,246.3,391.71,246.3Z"/><path class="cls-2" d="M451.82,272.76a8.47,8.47,0,0,1-3.11-5.08,7.07,7.07,0,0,1,1-5.48,6.18,6.18,0,0,1,5-2.62,10.2,10.2,0,0,1,6.33,2.33,9.79,9.79,0,0,1,3.32,5.88,6,6,0,0,1-1.69,5.3,7.19,7.19,0,0,1-5.3,1.91A8.78,8.78,0,0,1,451.82,272.76Z"/><path class="cls-1" d="M452.62,268.17a16.16,16.16,0,0,0,2.18.85,11.19,11.19,0,0,0,4.27.74,8.56,8.56,0,0,0-1.29-4.29,15.56,15.56,0,0,0-1.42-2,13.82,13.82,0,0,0,5.05-2.48,10.79,10.79,0,0,0,1.76-1.69,17.94,17.94,0,0,0-6.83-2.07,11.26,11.26,0,0,0-5,.8,10.57,10.57,0,0,0-4,2.64,13.12,13.12,0,0,0-.95,4.65A16.58,16.58,0,0,0,447,270a14.44,14.44,0,0,0,2.65,5.35,11.75,11.75,0,0,0,1.39-2A11.88,11.88,0,0,0,452.62,268.17Z"/><ellipse class="cls-3" cx="230.85" cy="436.51" rx="230.85" ry="19.37"/><path class="cls-1" d="M95.83,237l-1.27,2.06s-.84-.52-2.38-1.37-3.76-2.06-6.48-3.39a175.16,175.16,0,0,0-20.51-8.53,161.33,161.33,0,0,0-21.45-5.69c-3-.48-5.46-1-7.21-1.15l-2.76-.3.26-2.4,2.81.3c1.79.18,4.31.69,7.35,1.17A163.68,163.68,0,0,1,66,223.47a178,178,0,0,1,20.8,8.65c2.76,1.35,5,2.57,6.59,3.45S95.83,237,95.83,237Z"/><path class="cls-2" d="M24,209.1a10.73,10.73,0,0,1,6.69,2.54,6.86,6.86,0,0,1,2.23,5.67,7.23,7.23,0,0,1-3.07,5.1,9.39,9.39,0,0,1-6.19,2,13.31,13.31,0,0,1-3.3-.6,9.12,9.12,0,0,1-2.77-1.57,7.67,7.67,0,0,1-2.87-5.32,6.55,6.55,0,0,1,2.46-5.47,9.71,9.71,0,0,1,3-1.71A9.32,9.32,0,0,1,24,209.1Z"/><path class="cls-1" d="M26.61,213.63a18.15,18.15,0,0,0-2.55.62A8.81,8.81,0,0,0,20,216.74a12.4,12.4,0,0,0,4,2.49,17.36,17.36,0,0,0,2.37.84A13.55,13.55,0,0,0,23.6,228a16.19,16.19,0,0,0,6-2.51,14.81,14.81,0,0,0,3.78-3.37,13.94,13.94,0,0,0,2.46-4.49,11.64,11.64,0,0,0-1.44-4.91A13.89,13.89,0,0,0,31,208.56a18.77,18.77,0,0,0-6.88-3.1,11,11,0,0,0,.21,2.6A14.62,14.62,0,0,0,26.61,213.63Z"/><rect class="cls-4" x="309.07" y="410.51" width="47.58" height="2.73" transform="translate(-171.1 574.56) rotate(-68.95)"/><rect class="cls-4" x="348.59" y="388.09" width="2.73" height="47.58" transform="translate(-124.6 153.22) rotate(-21.05)"/><rect class="cls-4" x="334.28" y="406.83" width="14.77" height="2.73"/><rect class="cls-4" x="330.89" y="416.59" width="21.41" height="2.73"/><path class="cls-5" d="M323.58,29l1.9-1.38A58.33,58.33,0,0,0,342.71,41c10.69,5.39,14.36,7.44,15.33,7.62s5.57,1,7.16,3,1.77,3.18,1.42,3.27-2.12-2.48-2.12-2.48,1.76,2.28,1.59,3.13-1.17-.6-1.53-1-1.24-1.39-1.24-1.39,1.88,2.45,1.95,3.19-1.17-.21-2.13-1.27-2-1.56-2.26-1.24-.36,1.63-.75,1.38-.46-1.24-.64-1.95c-.63,0-3.51-1.05-8.7-2.09s-25.94-10.15-30.67-16S323.58,29,323.58,29Z"/><path class="cls-4" d="M455,242h0a13.62,13.62,0,0,0,3.28-7,12.52,12.52,0,0,0-1.65-7.32l1.51,1.62c.9,1,2.16,2.24,3.31,3.58l4.41,5.56a15.88,15.88,0,0,0-3.55,7.08,13.16,13.16,0,0,0,.58,7.51h0a13,13,0,0,0,4-6.45,12.1,12.1,0,0,0,.33-3.72,10.48,10.48,0,0,0-.92-3.83l.77,1c.44.6,1,1.43,1.51,2.25l2.18,3.3a14.89,14.89,0,0,0,.6,4,13.38,13.38,0,0,0,1.35,3.58,14.14,14.14,0,0,0,5.74,5.44h0a13.82,13.82,0,0,0-1.5-7.84,12.34,12.34,0,0,0-2.35-3.14,15,15,0,0,0-3.52-2.23l-1.37-2.06-1.4-2.12c-.25-.39-.52-.79-.79-1.19l-.91-1.16-4.92-6.21a14.78,14.78,0,0,0,14.95,1.74h0a14.19,14.19,0,0,0-7.62-3.84,12.22,12.22,0,0,0-7.82,1.53l-4.87-5.19a46,46,0,0,0-3.53-3.38L451.21,222a15.37,15.37,0,0,0,3.75,1.4,19.36,19.36,0,0,0,3.8.44,14.61,14.61,0,0,0,7.51-2.11h0a16.92,16.92,0,0,0-3.94-2.17,11.34,11.34,0,0,0-4.08-.7,12.63,12.63,0,0,0-7.6,2.64L449,220l-3.87-3a46.66,46.66,0,0,0-3.95-2.88l-1.86-1.23a15.74,15.74,0,0,0,3.93.82,14.14,14.14,0,0,0,3.79,0,15.07,15.07,0,0,0,7.19-3.18h0a14,14,0,0,0-8.37-1.73,12.72,12.72,0,0,0-7.17,3.72l-1.86-1.22c-1.12-.73-2.7-1.55-4.24-2.43l-2.28-1.28-2.06-1-2-1a16.63,16.63,0,0,0,7.75-.35,15.1,15.1,0,0,0,6.65-4.18h0a16.85,16.85,0,0,0-4.45-.93,13.22,13.22,0,0,0-2.09,0,12.29,12.29,0,0,0-2,.43,12.45,12.45,0,0,0-6.52,4.69l-.94-.45-2.54-1c-2.08-.91-4.94-1.9-7.82-2.83s-5.83-1.62-8.06-2-3.74-.61-3.74-.61l0,.37s1.05.11,2.62.4,3.65.74,5.71,1.27,4.1,1.14,5.6,1.7l2.52.86a16.1,16.1,0,0,0,.78,7.91,14.5,14.5,0,0,0,4.37,6h0a13.12,13.12,0,0,0,.08-7.62,11.76,11.76,0,0,0-4.53-6l2.06.83c1.22.51,2.89,1.13,4.47,1.93s3.21,1.51,4.38,2.13l1.94,1.09a15.33,15.33,0,0,0-.37,7.87,13.41,13.41,0,0,0,3.44,6.61h0a12.93,12.93,0,0,0,1.17-7.5,12,12,0,0,0-1.16-3.55,13.08,13.08,0,0,0-2.43-3.07l1.94,1.09c1.18.6,2.62,1.64,4.12,2.6a62.58,62.58,0,0,1,5.78,4.1,15.25,15.25,0,0,0-1.5,7.74,14.06,14.06,0,0,0,2.46,7.06h0a13.1,13.1,0,0,0,2.24-7.28,11.46,11.46,0,0,0-.64-3.69,14.24,14.24,0,0,0-2-3.38l1.75,1.36a44.53,44.53,0,0,1,3.71,3.16l3.61,3.27a14.61,14.61,0,0,1,1.13,1.14l.42.45a15.59,15.59,0,0,0-2.62,7.51,12.81,12.81,0,0,0,.31,3.66A16.14,16.14,0,0,0,455,242Z"/><path class="cls-6" d="M74.59,111.16h0a16.11,16.11,0,0,0,2.74,8.73,14.64,14.64,0,0,0,7.21,5.45l-2.63-.28c-1.58-.15-3.67-.44-5.76-.77l-5.75-.85c-.79-.1-1.43-.23-1.89-.32L67.8,123a17.6,17.6,0,0,0-2.74-9.07,15,15,0,0,0-3-3.36,17.09,17.09,0,0,0-3.88-2.63h0a16.14,16.14,0,0,0,2,9,15.13,15.13,0,0,0,6.77,5.93l-4.62-.89c-1.16-.23-2.32-.42-3.18-.63l-1.43-.35a17,17,0,0,0-8-4.78,16.66,16.66,0,0,0-9.38.12h0a16.49,16.49,0,0,0,7.8,5.46,15.9,15.9,0,0,0,9.48-.37l.79.19c.5.13,1.21.31,2.08.46l6.37,1.23c2.3.48,4.64.8,6.38,1.06l2.92.43a17.69,17.69,0,0,0-8.6,3.25,17.13,17.13,0,0,0-5.71,7.29h0A19.2,19.2,0,0,0,67,134.6a14.73,14.73,0,0,0,4.33-2.09A15.64,15.64,0,0,0,77,124.87l2.62.38,5.79.64c4.2.52,8.43.78,8.43.78a17.88,17.88,0,0,0-4.53,1.42,15.74,15.74,0,0,0-3.82,2.36,17.24,17.24,0,0,0-5.15,7.71h0a16.66,16.66,0,0,0,9.18-3.4,16,16,0,0,0,5.21-8l2.64.21c1.58.14,3.7.24,5.81.34l5.81.29,2.65.06a16.56,16.56,0,0,0-12.82,12.21h0a17,17,0,0,0,8.93-3.93,16,16,0,0,0,4.79-8.26l2.64.07c1.59,0,3.7.09,5.82.08h5.82l2.64,0a16.53,16.53,0,0,0-12.23,12.76h0c7.07-1.32,11.79-6,13.13-12.78l4.5-.08c2.69-.1,6.29-.18,9.88-.38s7.18-.41,9.87-.62,4.48-.39,4.48-.39l0-.44s-5.05.49-10.12.78c-2.54.16-5.08.26-7,.36l-3.17.12a16.92,16.92,0,0,0-4.67-8.24,16.45,16.45,0,0,0-8.32-4.25h0c1.33,6.55,5.66,11.1,12.09,12.52,0,0-4.22.16-8.45.2-2.11,0-4.23,0-5.81,0H121a16.32,16.32,0,0,0-12.42-13h0a15.28,15.28,0,0,0,11.53,13l-2.64,0-5.82-.14c-2.11,0-4.22-.14-5.81-.22l-2.63-.13a17.23,17.23,0,0,0-3.91-8.62,16.13,16.13,0,0,0-7.83-5h0a16.1,16.1,0,0,0,3.31,8.51,15,15,0,0,0,7.53,5l-2.64-.13-5.8-.44c-4.22-.27-8.41-.79-8.41-.79A17.17,17.17,0,0,0,82,116.62,16.87,16.87,0,0,0,74.59,111.16Z"/><path class="cls-5" d="M265.71,39.75a6.68,6.68,0,0,1-1.64-1.32,4.59,4.59,0,0,0-1-1.35,3.66,3.66,0,0,0-1.61-.69A7.45,7.45,0,0,0,262.75,39a.67.67,0,0,0,.91-.09A8.72,8.72,0,0,0,264.89,41S266.77,40.38,265.71,39.75Z"/><circle class="cls-7" cx="231.38" cy="258.5" r="164.89"/><path class="cls-8" d="M264.55,373.94a147.41,147.41,0,0,1-73-275.48A164.9,164.9,0,1,0,389.85,304.19,147.29,147.29,0,0,1,264.55,373.94Z"/><path class="cls-5" d="M287.27,40.09s-3.94,3.54-5.25,3.54-14.44-3.93-16.91-4.45-2.34.26-3.32.91,2.09,2.63,2.09,2.63,11.71,6,17.77,7.4,10.89-3.47,10.89-3.47S294.13,40.28,287.27,40.09Z"/><path class="cls-1" d="M240.17,43.68s9.21,1,15.56-.61c0,0,3.94,6.61,5.43,9.06l-.64,3.15a21.32,21.32,0,0,1-14.86,7.22S238.74,52.94,240.17,43.68Z"/><path class="cls-1" d="M254.61,54.85a7.78,7.78,0,0,1-3.38-.8l.66-1.2a6,6,0,0,0,4.81.21c2.15-.93,3.76-3.32,4.79-7.11,1.16-4.33.58-7.78-1.69-10-2.65-2.58-6.87-2.82-9.87-1.91-6.15,1.85-5.53,10.49-5.52,10.58l-1.36.11c0-.09-.73-9.82,6.48-12,4.08-1.22,8.58-.33,11.22,2.24,1.85,1.79,3.7,5.21,2.05,11.31-1.14,4.23-3,6.93-5.58,8A6.58,6.58,0,0,1,254.61,54.85Z"/><path class="cls-5" d="M261.76,38.16s-1.18-.46-1.65.35,1.48,1.49,3.15,1.33S263.44,38.45,261.76,38.16Z"/><path class="cls-5" d="M261.73,39.34a2.25,2.25,0,0,0-2,.31c-.8.69,1.76,1.66,3.72,1.48S263.69,39.65,261.73,39.34Z"/><path class="cls-6" d="M299,136.58a11.57,11.57,0,0,1-1.72,3.55c-1.26,1.72-3.17,3.86-3.4,4.8s.89,1.77,2,1.39,8.8-3.86,10.62-5.26,2.33-1.91,2.28-2.24a57.48,57.48,0,0,0-2.9-5.18C305.22,132.67,300.38,132.71,299,136.58Z"/><path class="cls-5" d="M261.51,40.45a1.78,1.78,0,0,0-1.74.38c-.71.74,1.56,1.73,3.3,1.54S264,40.58,261.51,40.45Z"/><path class="cls-1" d="M241.15,53.3s-25.36-5.72-26.3-5.73-4.09-.59-5.61,1.52a3,3,0,0,0,1.64,2c1.4.71,3.27-.69,3.27-.69l30.65,10.8A6.24,6.24,0,0,0,241.15,53.3Z"/><path class="cls-1" d="M211.76,51.6h0a2.23,2.23,0,0,1-1-.24,3.33,3.33,0,0,1-1.81-2.22l-.06-.31.32-.06a4.36,4.36,0,0,1,1-.08,6.62,6.62,0,0,1,4.22,1.44l.32.26-.33.25A5.05,5.05,0,0,1,211.76,51.6Zm-2.09-2.24A2.75,2.75,0,0,0,211,50.78a1.64,1.64,0,0,0,.74.17,3.77,3.77,0,0,0,1.82-.59,6.08,6.08,0,0,0-3.44-1Z"/><polygon class="cls-9" points="374.3 389.68 328.61 389.68 336.32 380.79 382.01 380.79 374.3 389.68"/><path class="cls-10" d="M209.24,49.09s-18,18-15.6,39.45h21.78S210,62,214.15,50.38A6.11,6.11,0,0,0,209.24,49.09Z"/><path class="cls-11" d="M297.27,63.8s-17.6,13.92-19.61,18.73,7.94,15.1,7.94,15.1,9.4,33.45,12.64,39c0,0,5.37-1.45,7.95-3,0,0-3.14-30.2-4.59-34.23,0,0,22.83-21.35,26.74-27.68S300,61.6,297.27,63.8Z"/><path class="cls-6" d="M308.93,118.84a11.65,11.65,0,0,1,.05,3.94c-.35,2.11-1.09,4.88-.88,5.82a1.39,1.39,0,0,0,2.37.37c.79-.82,6.14-7.41,7.13-9.47s1.23-2.75,1-3a57.13,57.13,0,0,0-4.92-3.34C312.72,112.57,308.4,114.77,308.93,118.84Z"/><path class="cls-12" d="M285.28,97.64C285.05,90.2,297.49,78.21,298,77.7l.45.47c-.13.13-12.76,12.29-12.54,19.45Z"/><path class="cls-11" d="M287,99.29,308.64,119a47.67,47.67,0,0,0,4.74-5.86s-7.9-15.39-11.17-18.52S287,99.29,287,99.29Z"/><path class="cls-6" d="M353,377.76a11.54,11.54,0,0,1-3.07,2.48c-1.87,1-4.51,2.16-5.11,2.91s.05,2,1.18,2.1,9.61.22,11.85-.27,2.92-.75,3-1.06a56.1,56.1,0,0,0-.44-5.93C360.22,376.85,355.82,374.82,353,377.76Z"/><path class="cls-1" d="M204.82,92.42l-1.32,0s0-.51-.13-1.46-.32-2.29-.65-3.9a58.46,58.46,0,0,0-3.82-11.41A64.48,64.48,0,0,0,193,65.19c-.89-1.39-1.78-2.44-2.35-3.21l-.92-1.2,1-.83.94,1.22c.58.79,1.49,1.86,2.39,3.27a65.47,65.47,0,0,1,6,10.71A60,60,0,0,1,204,86.82c.34,1.65.56,3,.67,4S204.82,92.42,204.82,92.42Z"/><path class="cls-2" d="M189.66,53.38c1.94,2.18,2,5.14.23,6.57a5.08,5.08,0,0,1-6.77-7.26C184.68,51,187.61,51.31,189.66,53.38Z"/><path class="cls-1" d="M188.87,56.11a8.24,8.24,0,0,0-1.2-.76,5.66,5.66,0,0,0-2.54-.64,5.58,5.58,0,0,0,.55,2.49,9.76,9.76,0,0,0,.58,1.25,7.28,7.28,0,0,0-4.14,1.95,8.79,8.79,0,0,0,6.09,1.6,7.39,7.39,0,0,0,2.66-.77,6.52,6.52,0,0,0,1.36-2.47c.5-1.6.51-3.88-1.12-6.74A7.81,7.81,0,0,0,188.87,56.11Z"/><path class="cls-6" d="M377.49,360.09A11.7,11.7,0,0,1,377,364c-.66,2-1.81,4.66-1.74,5.62s1.39,1.4,2.29.72,7.17-6.41,8.47-8.3,1.62-2.54,1.47-2.83a54.26,54.26,0,0,0-4.36-4C382.17,354.46,377.58,356,377.49,360.09Z"/><path class="cls-6" d="M169,69a31.94,31.94,0,0,0,12.53,22.16c12,9.26,23.33,5.47,23.33,5.47s.78-11.89-11.24-21.16A31.94,31.94,0,0,0,169,69Z"/><rect class="cls-12" x="189.07" y="65.27" width="0.65" height="38.91" transform="translate(6.68 183.04) rotate(-52.38)"/><rect class="cls-12" x="177.78" y="81.18" width="7.29" height="0.65" transform="translate(-2.45 5.69) rotate(-1.78)"/><rect class="cls-12" x="181.69" y="72.47" width="0.65" height="7.29" transform="translate(-12.43 42.72) rotate(-12.95)"/><rect class="cls-12" x="185.71" y="87.29" width="7.29" height="0.65" transform="translate(-2.65 5.97) rotate(-1.79)"/><rect class="cls-12" x="189.63" y="78.58" width="0.65" height="7.29" transform="translate(-13.59 44.63) rotate(-12.94)"/><rect class="cls-12" x="193.64" y="93.4" width="7.29" height="0.65" transform="translate(-2.82 6.19) rotate(-1.78)"/><rect class="cls-12" x="197.56" y="84.69" width="0.65" height="7.29" transform="translate(-14.76 46.56) rotate(-12.94)"/><path class="cls-4" d="M224.58,68.69a25.45,25.45,0,0,0-17.65,10c-7.37,9.58-4.36,18.58-4.36,18.58s9.48.62,16.85-9A25.44,25.44,0,0,0,224.58,68.69Z"/><path class="cls-6" d="M145.88,91.06l6.78-10.89a120.33,120.33,0,0,0-11.93-30.4,96.62,96.62,0,0,0-16.39-21.35l-9.16,6.44s1.2-2.61,2.49-5.2l2.56-5.15A122.77,122.77,0,0,0,99.31,9.56C96,7.74,93.09,6.21,90.4,5a42.38,42.38,0,0,0-6.9-2.48,38.94,38.94,0,0,0-4.9,10.39,55.79,55.79,0,0,0-2,7.82A76.21,76.21,0,0,0,75.45,30l5.73,2.31,5.69,2.23-5.77.22L75.29,35A88.52,88.52,0,0,0,87.58,80.53a90.44,90.44,0,0,0,5.19,7.89c1.8,2.47,3.64,4.81,5.54,7l8.08-.5,8.06-.56-10.15,7.42A106.44,106.44,0,0,0,127,118.67c3.08,1.71,5.64,2.91,7.44,3.7s2.84,1.18,2.84,1.18l9.51-6.59,9.5-6.59s.06-.59.06-1.78,0-2.89-.13-5.06a125,125,0,0,0-2.25-17.65Z"/><path class="cls-12" d="M149.7,114.92c-3.58-5.25-12.41-18.23-23.21-35S102.81,42.5,91.38,21.69c8.38,22.25,19.81,44,29.89,61.39s18.86,30.54,22.54,35.92l2.95-2Z"/><path class="cls-4" d="M159.27,102.05l7.1-4.26a76.83,76.83,0,0,0,2-21,62.12,62.12,0,0,0-3.23-17.14L158,60.68,161,58.4l3-2.25a76.08,76.08,0,0,0-7.84-14.74,42,42,0,0,0-7.23-8.52c-3,1.63-8.12,6.27-12.39,13.62l2.66,3,2.66,2.9-3.41-1.52L135,49.29A57.45,57.45,0,0,0,128.87,79a65.34,65.34,0,0,0,1.82,11.64l9.58,4.11-8,1.28a69.08,69.08,0,0,0,8,16.35c1.26,1.88,2.38,3.33,3.18,4.31s1.28,1.51,1.28,1.51l7.39-1,7.4-1a40.29,40.29,0,0,0,2-4,81,81,0,0,0,3.9-10.8Z"/><path class="cls-12" d="M154.45,116.88c-.52-4.07-1.74-14.12-3-26.94s-2.67-28.43-3.36-43.73a299.18,299.18,0,0,0-.57,44c.68,13,1.84,23.07,2.37,27.24l2.29-.3Z"/><path class="cls-4" d="M360.25,166.24s10.92-30.35,9.56-59.76S377.09,55,391.19,56.69s26.39,55-27.3,112.73Z"/><path class="cls-12" d="M365,165.13l-1.1-.69c.2-.31,19.82-31.94,20.58-66.82l1.3,0C385,132.9,365.17,164.81,365,165.13Z"/><path class="cls-6" d="M362.71,169.85s19.58-10.21,39.66-12,34.27-9.68,31.81-19.09-39.71-12.84-74,28.91Z"/><path class="cls-12" d="M363.73,167.38l-.83-1c.2-.17,20.06-16.59,44-20.37l.2,1.28C383.53,151,363.92,167.22,363.73,167.38Z"/><path class="cls-4" d="M451.31,164.79a145.26,145.26,0,0,0-20.77-1,68,68,0,0,0-25.46,5.79c-9,4-13.87,11.2-16.64,17.49a44.5,44.5,0,0,0-3.34,11.65,36.38,36.38,0,0,0,10.78,5.77,31.82,31.82,0,0,0,25.3-1.57,57.85,57.85,0,0,0,21.12-18.63A64.93,64.93,0,0,0,451.31,164.79Z"/><path class="cls-12" d="M385.17,198.93l-.14-.37s3.59-1.44,8.93-3.75,12.4-5.48,19.37-8.86,13.85-6.95,18.92-9.78c2.55-1.39,4.64-2.61,6.1-3.47l2.3-1.34.21.35-2.3,1.34c-1.46.86-3.56,2.08-6.11,3.48-5.09,2.82-12,6.42-18.95,9.78s-14.05,6.57-19.39,8.87S385.17,198.93,385.17,198.93Z"/><path class="cls-12" d="M423.61,181a9.55,9.55,0,0,1,.1-3,23.43,23.43,0,0,1,3-7.89l.34.2a23.16,23.16,0,0,0-2.89,7.74,12.08,12.08,0,0,0-.17,2.15,5.21,5.21,0,0,0,.06.76Z"/><path class="cls-12" d="M413.58,186.12l.3-.28a5.74,5.74,0,0,0,.69.6,13.41,13.41,0,0,0,2.18,1.35,24.7,24.7,0,0,0,9.73,2.42l0,.4a25.21,25.21,0,0,1-9.89-2.44A11,11,0,0,1,413.58,186.12Z"/><path class="cls-12" d="M394.93,194.67l.31-.26a7.52,7.52,0,0,0,.77.73,15.73,15.73,0,0,0,2.43,1.64,28.42,28.42,0,0,0,11,3.23l0,.4a28.86,28.86,0,0,1-11.17-3.25A12.38,12.38,0,0,1,394.93,194.67Z"/><path class="cls-12" d="M402.93,191a14.29,14.29,0,0,1,.36-4.52,36,36,0,0,1,5-11.51l.34.21a35.59,35.59,0,0,0-4.91,11.4,19,19,0,0,0-.4,3.2,8.74,8.74,0,0,0,0,1.16Z"/><path class="cls-12" d="M430.58,177.4l.29-.29a6.57,6.57,0,0,0,1.74,1.06,15.12,15.12,0,0,0,5.78,1.17v.41a15.79,15.79,0,0,1-6-1.21A6.83,6.83,0,0,1,430.58,177.4Z"/><path class="cls-6" d="M434.45,239.48c-2.15-9.41-6.46-23.76-19.69-34.48s-29.66-3.25-29.66-3.25-3,17.77,11,27.81S424.92,240,434.45,239.48Z"/><polygon class="cls-12" points="385 201.89 385.2 201.62 426.26 233 426.06 233.27 385 201.89"/><path class="cls-12" d="M413.23,223.2a7.39,7.39,0,0,1,2.32-1,18.82,18.82,0,0,1,7.05-.45l0,.34a18.33,18.33,0,0,0-6.91.45,9.8,9.8,0,0,0-1.67.63,4.12,4.12,0,0,0-.55.32Z"/><path class="cls-12" d="M405.7,217.56l.32.12a4.64,4.64,0,0,0-.19.75,11.38,11.38,0,0,0-.19,2.12,21.76,21.76,0,0,0,1.69,8.13l-.31.13a22.15,22.15,0,0,1-1.73-8.26A9.24,9.24,0,0,1,405.7,217.56Z"/><path class="cls-12" d="M392.12,207.18l.31.12a6.34,6.34,0,0,0-.22.85,14.31,14.31,0,0,0-.22,2.43,24.94,24.94,0,0,0,1.92,9.31l-.31.13a25.51,25.51,0,0,1-2-9.43A10.18,10.18,0,0,1,392.12,207.18Z"/><path class="cls-12" d="M398,211.56a11.45,11.45,0,0,1,3.47-1.5,28.1,28.1,0,0,1,10.53-.65l0,.33a27.77,27.77,0,0,0-10.4.67,15.48,15.48,0,0,0-2.52.94,8.1,8.1,0,0,0-.84.48Z"/><path class="cls-12" d="M418.35,227.23l.32.12a5.4,5.4,0,0,0-.22,1.7,12.86,12.86,0,0,0,1,4.79l-.32.12a13.49,13.49,0,0,1-1-4.94A5.73,5.73,0,0,1,418.35,227.23Z"/><rect class="cls-6" x="337.05" y="410.51" width="47.58" height="2.73" transform="translate(-153.17 600.67) rotate(-68.95)"/><rect class="cls-6" x="376.57" y="388.09" width="2.73" height="47.58" transform="translate(-122.74 163.27) rotate(-21.05)"/><rect class="cls-6" x="362.26" y="406.83" width="14.77" height="2.73"/><rect class="cls-6" x="358.87" y="416.59" width="21.41" height="2.73"/><path class="cls-5" d="M352.4,249s-3.58,3.49-4.83,7.34.63,7.16,4.12,8.14a35.63,35.63,0,0,1,.71,5.46,14.87,14.87,0,0,0,4.12.54,11.3,11.3,0,0,0,2.69-.72v-5.72a15,15,0,0,0,3.49-4.66c.8-2.24,1.52-7.69-1.08-10.38S353.83,247.44,352.4,249Z"/><path class="cls-6" d="M313.55,231.63s-.1.41-2.16,1-3.54.05-4.13,1.72.59,4.91-.69,5.6a6,6,0,0,0-1.67,1.18s3.24,4.13,4.33,5.9a6.38,6.38,0,0,0,2-3.25c.49-2.06,3.85-1.07,4.62-1.76a16.08,16.08,0,0,0,1.59-1.77S316.3,233.1,313.55,231.63Z"/><path class="cls-13" d="M357.29,252.72s-3.6-2.51-4.44-4.86.17-4.5,2.22-4.26a19.13,19.13,0,0,1,3.14.58s1.91-2.43,5.23.67a9.73,9.73,0,0,1,2.89,7.45s4.19,1.17,2.52,5.11a10,10,0,0,1-5.41,5.21s-.54,2.55-2,2.69a9.26,9.26,0,0,0-2.27.47l.26-4.77a2.49,2.49,0,0,0,2.09-1.59c.75-1.59-1.59-1.34-1.59-1.34s-1.34-2.43-.75-3.35C359.22,254.73,357.12,253.89,357.29,252.72Z"/><path class="cls-5" d="M339.57,262a86.63,86.63,0,0,1-11.91-11.77c-5.47-6.72-8.82-11.52-8.82-11.52a13.65,13.65,0,0,0-1.12-5.14,7.63,7.63,0,0,0-1.9-2.79c-.67-.9-.66.72.18,2.3l.85,1.58s-2.19-3.5-3-3.39.15,1.27.58,1.89a4.8,4.8,0,0,1,.57,1.69s-1.57-2.42-2.11-2,.58,1.88,1.46,3,1,3,1.58,3.92c0,0,7.61,19.75,18.46,28.24S339.57,262,339.57,262Z"/><path class="cls-5" d="M318.64,238.93a12.58,12.58,0,0,1,.33-1.42c.09-.14.39-1.21.61-1.88s-.1-1.31-.47-1a4.09,4.09,0,0,0-1.19,2.23A7.2,7.2,0,0,0,318.64,238.93Z"/><path class="cls-5" d="M369.24,281.9s4.86,5.89,6.72,6.82,6.75-3.16,9.28-7.85a71.34,71.34,0,0,0,3.84-8.24s3.28-2.38,4.21-4.66c0,0,.34-1,0-1.24s-1.3,1.42-1.81,2c0,0,1.47-2.56,1.25-3.13s-2.34,2.39-2.34,2.39,1.65-3,1.09-3.07-2.17,2.67-2.17,2.67-.05-1.87-.62-1.76-.4,2.22-.4,2.22-.57,2.61-.91,3.47-7.51,9-8.42,9.27c0,0-2.9-4.1-5.57-4.89S369.24,281.9,369.24,281.9Z"/><path class="cls-11" d="M344.39,300.16s6.73,71.29,7.9,77.29c0,0,6.38.77,8.55,0,0,0-.48-43.41,0-47.87s4.33-27.25,2.94-30.32S344.39,300.16,344.39,300.16Z"/><path class="cls-11" d="M365.48,299s2.39,28.52,3.58,32.88,14.08,22.82,14.08,22.82l-5.66,5.72s-11.7-11.86-15.08-16.17-9.24-22.32-9.24-22.32S356.55,294.48,365.48,299Z"/><path class="cls-14" d="M265.63,138c-6.56-2-11.31-2.68-15.16-4.85s-7.7-3.77-10.64-3.65-9.05-1.48-12.67,0-7.46,8.94-13,10.3-19.49-1.58-23.38-4.07-5-7.47-3.88-10a20.92,20.92,0,0,0,1.34-8.56c-.22-1.63,5.66-4.82,7.7-7s4-9.1-.86-12.59a164.07,164.07,0,0,0-62.65,29,9.94,9.94,0,0,0,1.5,3.88c1.35,2.26-.82,3.62-.75,4.3s1.28.6.22,1.88,0,1.06-1,2a28.85,28.85,0,0,1-2.58,2.26c-.68.45-.45,1.81-1.81,3.39s-3.85,3-3.85,5.44-3.84,5.88-4.3,7.24-4.3,6.56-4.52,10a58.7,58.7,0,0,0,0,9,21.49,21.49,0,0,1-.17,6.79,53,53,0,0,0-1.19,9.28c-.23,4.52,1.58,6.56,5.88,7.92s12.44,5.2,14.48,8.15,3.18,6.56,4.76,7,2.94,5.21,8.15,8.83,14.93,4.08,19.23,8.71,12.23,15.94,14.26,22.17,5.43,8.53,9.06,11.57,8.14,6.43,11.54,6.66,4.78-1.2,4.65-2.41-4.43-4.83-5.1-5.74-2-7-4.08-11.32-2.26-4.47-1.58-6.53,2-6.58,4.07-7.72,3.62-.31,5-2.3,1.84-3.13,1.71-4.38-2.16-2-4.2-2.2-2.72-2-5.43-2.44-6.56-1.58-7.47-3.17a4.29,4.29,0,0,0-4.3-1.81c-1.36.23-5.43.91-8.15-1.81s-2.94-7.92-3.39-10.64-.91-3.62-.23-5.65.68-3.64,3.85-5.1,8.37-2.61,11.54,0,9.51.57,10.86-1,5.21-6.34,8.38-6.57,8.37,0,10.41-1.81,9.73-5.63,11.09-8.7,6.56-12,6.56-14.87,9.51-8.56,12.22-7.66,6.34-3.39,7.7-3.39,5.43.67,7.69-2,4.08-4.54,5.89-7.14S272.2,140,265.63,138Z"/><path class="cls-14" d="M251.52,351.3a120.11,120.11,0,0,0-14.12-7.5c-6.48-2.73-11.26-12.39-13-14.39s-3.07-19.4,0-22.47,6.16-8.19,8.71-12.28,3.57-6.83,2.55-8.53-1-11.4,0-13,6.14-4.71,8.53-4.37,9.9-1.76,13,0,14.67,7.86,19.79,8.21,10.24,4.78,14.33,2.39,10.11.34,13.58,5.46,7.58,10.33,13.38,13.7,5.3,6.43,8.62,7.12,10.75,2.71,14.77,5.46,2.7,6.14-.62,10.23S333.6,331.85,330.89,336s-1.73,10.23,0,11.94.36,8.87-2,10.92-7.51,5.46-9.56,9.21-1.85,6.54-6.55,8.22-15.29,6.46-21.77,8-11.94,1.9-16.38,5.64-5.06,13.91-9.24,15.65-16.69,9.59-21.47,9.08-4.77-1.46-2-4.91,9.63-9.52,13.52-15.05-1.23-10.88,2.18-13.12,4-8.89,5.07-10.85S263.39,357.81,251.52,351.3Z"/><path class="cls-14" d="M349.56,198.74c.68,1.39,4.32,3,7.05,4.35s5.3-.73,6.4-4.35,5.89-4.29,8.39-2.93,5.23,2.05,7.05,1.59,5.28-1.78,5.37-1.82a165.2,165.2,0,0,0-47.63-64.37,35.05,35.05,0,0,1-4.83,5.46A17,17,0,0,0,326.9,143c-.77,1.59-3,8.42-2.14,11.38s.53,5,3.91,7.5,6.37,3.36,4.87,7.94-.36,9.47-2,11.91a8.21,8.21,0,0,0,2,10.41c3.73,3.19,8.51,2.5,9.65,2.73S348.88,197.35,349.56,198.74Z"/><path class="cls-14" d="M237.4,237.05a7.62,7.62,0,0,1-2.27,5.17c-2.28,2.05-4.55,5.69-2.28,6.14s7.06,1.13,8.19,1.82,7.06,3.87,8.65,2.73,2.73-3.87,4.32-4.09,2.05-4.26,3.41-5.55,6.15-5.83,6.6-9.47.91-9.1,0-10.46-7.28-2.28-8-4.1-4.74-3.18-7.83-1.36-4.46,5.91-4.91,8.87S237.18,231.87,237.4,237.05Z"/><path class="cls-1" d="M335.22,140.47l-1.87-1.41s.56-.74,1.47-2.18,2.19-3.52,3.59-6.09a144.88,144.88,0,0,0,8.71-19.68,170.9,170.9,0,0,0,6-20.71c.72-2.85,1.08-5.28,1.43-7s.5-2.66.5-2.66l2.31.4s-.19,1-.51,2.68-.71,4.17-1.44,7.06a172.87,172.87,0,0,1-6.09,21,147.14,147.14,0,0,1-8.85,20c-1.43,2.63-2.72,4.77-3.68,6.24S335.22,140.47,335.22,140.47Z"/><path class="cls-2" d="M365,72.2c-.7,5-4.59,8.57-8.61,7.86s-6.75-5-6.1-9.65c.46-4.65,4.15-8.19,8.23-7.91S365.49,67.13,365,72.2Z"/><path class="cls-1" d="M360.37,74.24a14.59,14.59,0,0,0-.36-2.49,10.18,10.18,0,0,0-2-4.19,10,10,0,0,0-2.79,3.6,18,18,0,0,0-1,2.25A13,13,0,0,0,346.76,70a15.47,15.47,0,0,0,4.91,10.25,13,13,0,0,0,4.17,2.65,11.72,11.72,0,0,0,4.88-1.1c2.7-1.2,5.82-3.79,7.76-9.17A13.76,13.76,0,0,0,360.37,74.24Z"/><path class="cls-1" d="M304.29,25.42a23.14,23.14,0,0,0-5.8,2.64C294.65,30.28,286,38.81,286,38.81s3.16,5.72,7.17,8.79a62.15,62.15,0,0,0,5.88-3s2.39,11.52-2.38,18.6A12.75,12.75,0,0,0,304,67.13c4.52.69,9.3.6,13.22,3.42s10.32,2.56,13.05,0c0,0,2.31-8.88,0-17.15a43.6,43.6,0,0,0-5.63-12.88L326,41.63s4.95-5.38,5.21-9.56c0,0-5.72-5.88-9.81-8.1s-8.58-1.45-12,0A15,15,0,0,1,304.29,25.42Z"/><path class="cls-5" d="M295.4,14.88c0,.37,1,5.06,3.29,7.35s4.06.88,4.69,1.14,1,2,1,3.29,2,2.53,3.93,1.14.89-7.86.89-7.86a7.77,7.77,0,0,0,.27-5.06s1-2.41.29-3.81-1.7-1-2.21,0c0,0-2.41-4.43-5.95-3.67S294.89,10.06,295.4,14.88Z"/><path class="cls-13" d="M311.87,12.22c-1.14-1.53-.38-5.45-1.86-7.73S305.41,3,305.41,3s-.76-3.43-3.68-2.92-5.57,4.44-5.57,4.44a9.43,9.43,0,0,0-4.31,0c-2.79.5-6,2.4-4.82,5.19s5.45,2.63,5.45,2.63-1.14,5.48,2.86,4a3.36,3.36,0,0,0,.33-.16c-.17-.66-.26-1.13-.27-1.23-.37-3.47,1.17-5.42,3.39-6.53h0a11.7,11.7,0,0,1,2.82-.95c3.54-.76,5.95,3.67,5.95,3.67.51-1,1.52-1.39,2.21,0s-.29,3.81-.29,3.81a8.22,8.22,0,0,1,.1,3.86,3.68,3.68,0,0,0,.43.06C313.72,18.8,313,13.74,311.87,12.22Z"/><path class="cls-13" d="M295.67,16.11s4.37-1.85,4.68-8.38c0,0,1.34,4.07,7.21,3.34,0,0-.46-5.43-5.3-6.8s-8.37,6.7-8.37,6.7A5.63,5.63,0,0,0,295.67,16.11Z"/><path class="cls-12" d="M303.73,114.9c-.92-7.68-2.43-15.34-2.45-15.42l.64-.12c0,.07,1.53,7.76,2.45,15.46Z"/><path class="cls-14" d="M267.51,242a35.86,35.86,0,0,0-4.56,5.11c-1.88,2.67,3.22,1.33,4.56,1.6s1.61,2.21,4.3,1.51a15.47,15.47,0,0,0,2.68-.7c2.42-.81,3.23-.54,5.64-.81s1.94-2,3.26-3.56,1.37-2.88,0-4.23-2.18,2.69-4.87,0-2.59-5-5-3.83-1.83,1.55-3,2.56S267.51,242,267.51,242Z"/><path class="cls-6" d="M354.89,267.36a20,20,0,0,1-14.46-6.17,31.74,31.74,0,0,0-6.89,8.23s4.84,5.64,10.3,8.24c0,0-2.48,20.8-1.17,28,0,0,8.68,1.61,14.05,2a45.83,45.83,0,0,0,12-1.35l-1.52-25.68,1.52,1.79s5.55-5.1,5.64-7.88c0,0-7.91-7.42-11.34-8.59S358.22,267.63,354.89,267.36Z"/><path class="cls-12" d="M361,341.25h-.65c0-.59.24-14.33.64-16.23s2.79-14.83,2.81-15l.64.12c0,.13-2.41,13.1-2.81,15S361,341.1,361,341.25Z"/><polygon class="cls-12" points="299.05 227.61 299.75 226.17 300.66 227.48 302.1 228.19 300.79 229.1 300.08 230.53 299.17 229.22 297.74 228.52 299.05 227.61"/><polygon class="cls-12" points="324.21 233.54 324.63 232.67 325.19 233.47 326.06 233.9 325.27 234.45 324.84 235.32 324.28 234.53 323.41 234.1 324.21 233.54"/><polygon class="cls-12" points="328.27 221.8 328.69 220.93 329.25 221.73 330.12 222.15 329.32 222.71 328.9 223.58 328.34 222.78 327.47 222.36 328.27 221.8"/><polygon class="cls-12" points="292.98 217.42 293.41 216.54 293.96 217.34 294.83 217.77 294.04 218.32 293.61 219.2 293.06 218.4 292.18 217.97 292.98 217.42"/><polygon class="cls-12" points="298.25 249.6 298.67 248.72 299.23 249.52 300.1 249.95 299.3 250.5 298.88 251.38 298.32 250.58 297.45 250.15 298.25 249.6"/><path class="cls-12" d="M209,52.67l-.26-.19c.25-.36.4-.55.4-.55l.26.19S209.22,52.31,209,52.67Z"/><path class="cls-12" d="M200.35,71.22l-.31-.06.06-.29.32.07A2.29,2.29,0,0,1,200.35,71.22Zm.4-1.58-.32-.09c.12-.44.25-.87.38-1.3l.31.09C201,68.77,200.87,69.2,200.75,69.64Zm.79-2.58-.31-.1c.14-.43.3-.86.45-1.28l.31.11C201.83,66.21,201.68,66.63,201.54,67.06Zm.94-2.52-.3-.13c.17-.42.34-.84.52-1.25l.3.13C202.82,63.7,202.65,64.11,202.48,64.54Zm1.07-2.48-.3-.14c.2-.41.39-.82.59-1.22l.29.14C203.94,61.24,203.74,61.64,203.55,62.06Zm1.19-2.42-.29-.15.64-1.2.28.16C205.16,58.83,205,59.23,204.74,59.64Zm1.3-2.37-.29-.16.69-1.17.28.17C206.5,56.48,206.27,56.86,206,57.27ZM207.43,55l-.27-.17c.27-.42.51-.8.74-1.14l.27.18Z"/><path class="cls-12" d="M200.07,72.59l-.31-.06c0-.22.08-.45.13-.67l.31.07C200.16,72.15,200.12,72.37,200.07,72.59Z"/><path class="cls-12" d="M211.36,53.48l-.32-.06c.08-.43.13-.67.13-.67l.32.07S211.44,53.05,211.36,53.48Z"/><path class="cls-12" d="M209.67,69.67c0-.45,0-.91,0-1.36H210c0,.45,0,.9,0,1.35ZM210,67h-.32c0-.46,0-.91,0-1.36H210C210,66.06,210,66.51,210,67Zm.1-2.69-.33,0,.09-1.35.32,0C210.12,63.36,210.09,63.81,210.07,64.27Zm.19-2.7-.32,0c0-.46.08-.91.13-1.35l.32,0C210.34,60.66,210.3,61.11,210.26,61.57Zm.28-2.68-.32,0c.05-.47.11-.92.17-1.35l.32,0C210.65,58,210.6,58.42,210.54,58.89Zm.36-2.68-.32-.05c.08-.49.15-.94.21-1.34l.32.06C211.05,55.27,211,55.72,210.9,56.21Z"/><path class="cls-12" d="M209.84,72.58l-.06-.68.33,0c0,.23,0,.45,0,.68Z"/><path class="cls-12" d="M204.66,77.13c0-.23,0-.45,0-.67h.32c0,.21,0,.43,0,.65Zm-.08-2v-1.3h.33c0,.26,0,.52,0,.78v.51Zm.38-2.59h-.33l.09-1.3.33,0C205,71.71,205,72.14,205,72.57Zm.21-2.57-.32,0c.05-.43.11-.86.17-1.29l.32,0C205.28,69.14,205.23,69.57,205.17,70Zm.38-2.56-.32,0c.08-.44.16-.86.24-1.28l.32.06C205.7,66.59,205.63,67,205.55,67.44Zm.51-2.53-.31-.07c.1-.43.2-.85.31-1.27l.31.08C206.26,64.06,206.16,64.48,206.06,64.91Zm.65-2.5-.31-.09c.12-.43.24-.85.37-1.25l.31.1C207,61.57,206.83,62,206.71,62.41Zm.77-2.47-.31-.11.43-1.22.31.11C207.77,59.1,207.62,59.51,207.48,59.94Zm.89-2.43-.3-.12c.17-.44.33-.84.49-1.21l.3.13C208.7,56.67,208.54,57.07,208.37,57.51Zm1-2.38-.29-.14c.34-.75.56-1.16.57-1.18L210,54S209.72,54.39,209.38,55.13Z"/></svg>