<svg id="Capa_1" data-name="Capa 1" xmlns="http://www.w3.org/2000/svg" viewBox="0 0 1918.74 500.29"><defs><style>.cls-1{fill:#ffdc00;}</style></defs><path class="cls-1" d="M74.7,8.73s55,3,61.4,0S157.18-1,176.43.51s162.22,11.63,172.3,9.55,6.42.07,25.67-4.74,33-1.17,44.91,0,71.48-4.91,88.9,0,51.32-3,62.32-5,33.91,8.33,71.49,5,77-1.44,94.4-.13,17.41,2.43,47.66,0,44.91-.56,60.49,0,30.7,2.05,43.53-1.69,38.5-1.87,71-1.87,39,.76,51.33,3.56,18.79.18,31.62,2.05,29.79,4.34,44,3.1,19.25-7.59,39-8,47.66,0,54.54,3,29.78,1.85,38,0,53.16,0,53.16,0,60,2.23,74.7,0,44-7.08,71.94-2.22,42.16,2.24,50.87,0,43.07-1.5,43.07-1.5l92.57.75s14.67,0,21.54,4.86,43.08-2.24,55.91-.38,34.37,3.37,44,1.5,43.08,1.12,55-1.5,22.46-.78,36.2-1.51S1848.15-.45,1861.9,0s56.84,3.1,56.84,3.1V497.2s-32.6-.37-39,0-11.41,2.25-27.92,3-21.09-3-31.63-2.61-28.41,0-28.41,0-53.16,3.36-61.41-.75-11.91-3-17.87-3-53.16-1.87-56.37-1.87-22.45-2.24-29.78.75-16.5,4.11-34.37,4.11-61.41-2.62-77.45-1.5-42.16-.74-54.53-1.86-19.71-1.5-43.53,1.12-55.91,1.12-81.57-1.5-72.87-1.12-87.07-.37-37.12-.38-48.12-2.62-31.62,8.22-67.82,4.49-39-7.48-50.87-7.48-45.37.38-55.45,4.86-11.44-1.49-28.86,1.5-27.05,3-53.63,3-48.57-.75-48.57-.75-13.75-4.49-22-4.49-55-1.12-73.78.75-39-3.74-58.2-1.12-36.66,1.87-49,3.36-22,1.5-59.11-.37-32.54,2.62-51.79,3-38-6.73-50.86-4.49-19.25,3.74-65.53.75-44.91-2.24-52.7-.75-24.29,5.24-40.33-1.12-54.53,0-54.53,0-60,5.24-91.66,4.49-73.32,2.61-78.36-2.62-26.12,0-31.62-1.87-51.78.75-51.78.75-9.17-.37-26.12,4.49S0,496.83,0,496.83V6.12S36.2.89,45.83,5,74.7,8.73,74.7,8.73Z"/></svg>