<?xml version="1.0" encoding="UTF-8"?>
<svg id="Layer_1" xmlns="http://www.w3.org/2000/svg" version="1.1" viewBox="0 0 159.02 159.11">
  <!-- Generator: Adobe Illustrator 29.7.1, SVG Export Plug-In . SVG Version: 2.1.1 Build 8)  -->
  <defs>
    <style>
      .st0 {
        fill: #83bf47;
      }
    </style>
  </defs>
  <path class="st0" d="M159.01,77.24c0,13.33-2.07,24.22-6.85,34.5-1.83,3.94-3.74,7.94-6.25,11.45-3.49,4.88-6.96,9.82-11.47,13.92-4.6,4.18-9.47,7.95-14.81,11.13-8.3,4.94-17.24,8.22-26.73,9.75-5.07.82-10.28,1.17-15.43,1.11-9.49-.11-18.74-1.99-27.49-5.68-4.57-1.92-8.83-4.55-13.27-6.8-.59-.3-1.45-.47-2.05-.28-7.79,2.45-15.56,5-23.35,7.44-1.1.34-2.34.3-3.51.28-1.05-.02-.74-.88-.73-1.52.04-3.44,1.52-6.51,2.55-9.69,1.7-5.28,3.51-10.53,5.21-15.81.15-.47,0-1.22-.29-1.64-6.54-9.31-10.89-19.54-13.09-30.69-1.29-6.55-1.7-13.17-1.3-19.82.54-9.08,2.56-17.83,6.11-26.23,3.95-9.34,9.49-17.6,16.57-24.82,5.99-6.11,12.81-11.1,20.43-15.04,7.62-3.94,15.66-6.54,24.08-7.88,6.91-1.1,13.89-1.19,20.88-.41,10.38,1.15,20.16,4.18,29.3,9.2,12.55,6.89,22.57,16.46,30.01,28.71,4.35,7.16,7.51,14.81,9.39,22.98,1.36,5.87,2.16,11.81,2.1,15.84h0ZM50.71,36.66c-3.69-.42-6.7.65-9.32,3.47-7.44,8.01-9.19,17.17-6.09,27.46,1.62,5.39,4.43,10.15,7.6,14.76,5.09,7.4,10.6,14.41,17.19,20.54,4.75,4.41,9.86,8.3,15.53,11.46,5.55,3.09,11.52,5.11,17.48,7.16,3.57,1.23,7.16,2.48,10.98,2.64,5.12.21,9.77-1.33,14.26-3.76,6.85-3.71,9.51-9.63,9.56-17.08,0-1.34-.43-2.42-1.72-3.05-3.19-1.56-6.35-3.18-9.56-4.71-3.33-1.59-6.66-3.18-10.06-4.61-2.09-.87-3.25-.35-4.55,1.31-2.36,3.02-4.75,6-7.19,8.95-1.27,1.54-2.46,1.84-4.28,1.09-4.52-1.88-8.93-3.99-12.98-6.78-7.87-5.42-14.03-12.43-18.93-20.58-1.23-2.04-1.01-3.07.64-4.85,2.23-2.42,4.5-4.82,5.84-7.91.54-1.26.67-2.46.15-3.72-2.55-6.15-5.07-12.31-7.67-18.44-.93-2.2-2.42-3.75-5.13-3.37-.57.08-1.16.01-1.74.01h0Z"/>
</svg>