<?xml version="1.0" encoding="UTF-8"?>
<svg id="Capa_1" xmlns="http://www.w3.org/2000/svg" version="1.1" viewBox="0 0 283.46 283.46">
  <!-- Generator: Adobe Illustrator 29.7.1, SVG Export Plug-In . SVG Version: 2.1.1 Build 8)  -->
  <defs>
    <style>
      .st0 {
        fill: #fff4e8;
      }

      .st1 {
        fill: #fff;
      }

      .st2 {
        fill: #ff9a00;
      }
    </style>
  </defs>
  <g>
    <path class="st2" d="M141.73,161.7c48.33,0,89.31,31.4,103.68,74.91,22.9-25,36.88-58.31,36.88-94.88C282.29,64.1,219.36,1.17,141.73,1.17S1.17,64.1,1.17,141.73c0,36.58,13.98,69.88,36.88,94.89,14.37-43.51,55.35-74.92,103.68-74.92ZM140.22,38.46c34.01,0,61.58,27.57,61.58,61.58s-27.57,61.58-61.58,61.58-61.58-27.57-61.58-61.58,27.57-61.58,61.58-61.58Z"/>
    <circle class="st1" cx="140.22" cy="100.04" r="61.58"/>
    <path class="st1" d="M45.85,244.5c25.11,23.44,58.82,37.79,95.88,37.79,34.69,0,66.44-12.57,90.95-33.4,4.5-3.82,8.74-7.93,12.73-12.28-14.37-43.51-55.35-74.91-103.68-74.91s-89.31,31.4-103.68,74.92c2.5,2.73,5.1,5.36,7.8,7.88Z"/>
  </g>
  <g>
    <path class="st2" d="M125.98,162.83c-24.97-6.8-43.33-29.64-43.33-56.76,0-32.49,26.34-58.83,58.83-58.83s58.83,26.34,58.83,58.83c0,27.13-18.36,49.96-43.33,56.76,42.04,6.37,75.7,38.26,84.72,79.37,25.8-25.67,41.77-61.2,41.77-100.47C283.46,63.46,220.01,0,141.73,0S0,63.46,0,141.73C0,180.79,15.8,216.15,41.35,241.79c9.15-40.91,42.73-72.6,84.63-78.95Z"/>
    <path class="st0" d="M156.98,162.83c24.97-6.8,43.33-29.64,43.33-56.76,0-32.49-26.34-58.83-58.83-58.83s-58.83,26.34-58.83,58.83c0,27.13,18.36,49.96,43.33,56.76-41.9,6.35-75.48,38.04-84.63,78.95,25.66,25.74,61.16,41.68,100.38,41.68s74.33-15.76,99.96-41.26c-9.01-41.12-42.68-73-84.72-79.37Z"/>
  </g>
</svg>