<?xml version="1.0" encoding="utf-8"?>
<!-- Generator: Adobe Illustrator 25.2.1, SVG Export Plug-In . SVG Version: 6.00 Build 0)  -->
<svg version="1.1" id="Layer_1" xmlns="http://www.w3.org/2000/svg" xmlns:xlink="http://www.w3.org/1999/xlink" x="0px" y="0px"
	 viewBox="0 0 1920 876.5" style="enable-background:new 0 0 1920 876.5;" xml:space="preserve">
<style type="text/css">
	.st0{clip-path:url(#SVGID_2_);}
	.st1{fill:#95D262;}
	.st2{fill:#B1E280;}
	.st3{opacity:0.75;fill:#7BB755;enable-background:new    ;}
	.st4{fill:none;stroke:#000000;stroke-width:1.5;stroke-linecap:round;stroke-linejoin:round;stroke-miterlimit:10;}
	.st5{fill:none;stroke:#000000;stroke-width:0.5;stroke-linecap:round;stroke-linejoin:round;stroke-miterlimit:10;}
	.st6{fill:#CEEC78;}
	.st7{fill:#93BA09;}
	.st8{fill:#512B1C;}
	.st9{fill:#F5DE9D;}
	.st10{fill:#FD9256;}
	.st11{fill:#233541;}
	.st12{fill:#6F93B3;}
	.st13{fill:#43799C;}
	.st14{fill:#067841;}
	.st15{fill:#F37B01;}
	.st16{fill:#FCC28D;}
	.st17{fill:#A96A4E;}
	.st18{fill:#724A03;}
	.st19{fill:#FFFFFF;}
	.st20{fill:#C65B00;}
	.st21{fill:#FDA871;}
	.st22{fill:#E0B177;}
	.st23{fill:#C2904E;}
	.st24{fill:#E0AF68;}
	.st25{fill:#FEFEFE;}
</style>
<g id="Capa_1">
</g>
<g id="Capa_2">
	<g>
		<g>
			<defs>
				<rect id="SVGID_1_" y="502.5" width="1920" height="374"/>
			</defs>
			<clipPath id="SVGID_2_">
				<use xlink:href="#SVGID_1_"  style="overflow:visible;"/>
			</clipPath>
			<g class="st0">
				<ellipse class="st1" cx="938.5" cy="882.6" rx="1144.5" ry="326.1"/>
			</g>
		</g>
	</g>
	<g>
		<path class="st2" d="M1175.1,632.5c0.4-0.3,0.1-1-0.4-0.8c-6,2.6-10.8,6.6-14.9,11.7c-2.2,2.8-5,6.6-6.2,10.5
			c-3-5.7-9.6-10.5-14.6-12.5c-0.7-0.3-1.4,0.7-0.8,1.2c3.5,2.3,6.5,5.3,8.6,8.9c0.8,1.5,1.4,3,1.9,4.6c-0.2-0.1-0.5-0.2-0.7-0.3
			c-2.9-1.1-6-2.1-9.1-2.6c-1.2-0.2-1.4,1.5-0.3,1.8c3,0.9,5.4,2.3,7.5,4.7c1.8,2.2,2.5,4.8,5.8,4.7c1,0,7.6,0.2,8.7-0.8
			c2.4-2.1,2.9-5.7,4.5-8.4c1.8-3,4.5-5.4,7.6-7.1c0.9-0.5,0.1-1.6-0.7-1.4c-3.8,0.9-7.3,2.7-10.3,5.3c-0.4,0.4-0.8,0.8-1.3,1.2
			c0.5-2.5,1-5,2-7.2C1165.2,640.3,1169.8,635.8,1175.1,632.5z"/>
		<path class="st1" d="M1016.9,543.2c-0.7-0.4-0.2-1.5,0.5-1.3c9.4,3.2,17.1,8.6,24,15.8c3.7,3.9,8.4,9.4,10.6,15.2
			c3.8-9,13.2-17,20.4-20.7c1-0.5,2.3,0.9,1.3,1.7c-5,3.9-9.1,8.7-11.9,14.5c-1.1,2.3-1.7,4.7-2.3,7.2c0.4-0.2,0.7-0.3,1.1-0.5
			c4.3-2,8.8-3.9,13.4-5.1c1.8-0.5,2.4,2,0.7,2.7c-4.5,1.8-7.9,4.1-10.7,8.1c-2.5,3.5-3.2,7.6-8.2,7.8c-1.4,0.1-11.4,1.2-13.3-0.2
			c-3.8-2.8-5.1-8.2-7.8-12.1c-3.2-4.4-7.5-7.6-12.4-9.8c-1.4-0.6-0.3-2.4,0.9-2.2c5.9,0.9,11.4,3.2,16.1,6.8
			c0.7,0.5,1.4,1.1,2.1,1.7c-1.1-3.7-2.1-7.4-3.9-10.7C1032.8,553.8,1025.3,547.6,1016.9,543.2z"/>
		<path class="st2" d="M754.1,773.6c-0.7-0.4-0.2-1.5,0.5-1.3c9.3,3.2,17.1,8.6,24,15.8c3.7,3.9,8.4,9.4,10.6,15.2
			c3.8-9,13.2-17,20.4-20.7c1-0.5,2.3,0.9,1.3,1.7c-5,3.9-9.1,8.7-11.9,14.5c-1.1,2.3-1.7,4.7-2.3,7.2c0.4-0.2,0.7-0.3,1.1-0.5
			c4.3-2,8.8-3.9,13.4-5.1c1.8-0.5,2.4,2,0.7,2.7c-4.5,1.8-7.9,4.1-10.7,8.1c-2.5,3.5-3.2,7.6-8.2,7.8c-1.5,0.1-11.4,1.2-13.3-0.2
			c-3.8-2.8-5-8.2-7.8-12.1c-3.2-4.4-7.5-7.6-12.4-9.8c-1.4-0.6-0.3-2.4,0.9-2.2c5.9,0.9,11.4,3.2,16.1,6.8c0.7,0.5,1.4,1.1,2.1,1.7
			c-1.1-3.7-2.1-7.4-3.9-10.7C770,784.1,762.5,777.9,754.1,773.6z"/>
		<path class="st2" d="M1091,792.9c0.7-0.5,0.1-1.4-0.6-1.1c-8.4,3.8-19.2,11.5-24,20.7c0,0,0,0,0,0c0.2-5.3,2-10.4,4.4-15
			c0.2-0.5-0.4-1.1-0.8-0.6c-3.3,4-5.8,8.4-7.4,13.3c-0.6,1.8-1.3,3.8-1.8,5.7c-2.8-3-6.4-5.3-10.2-6.7c-0.2-0.1-0.4,0.2-0.2,0.4
			c3.5,3.3,5.4,7.2,6.6,11.5c-0.1-0.1-0.3-0.2-0.4-0.3c-3.4-2.6-7.1-3.6-11.4-3.8c-0.4,0-0.7,0.6-0.3,0.8c2.7,2.2,4.9,5,6.9,7.7
			c2,2.7,3.5,5,7.2,5.6c1.5,0.2,11.2,0.8,13.3,0.1c4.6-1.6,5.6-7.8,7.9-11.6c2.6-4.2,6.1-7.6,10.1-10.4c0.6-0.4,0.2-1.3-0.5-1.1
			c-4.4,1.1-8.6,2.9-12.4,5.5c0.4-2.1,0.8-4.1,1.7-6.2C1081.7,801.4,1085.7,796.7,1091,792.9z"/>
		<path class="st1" d="M1465.9,600.2c0.7-0.5,0.1-1.4-0.6-1.1c-8.4,3.8-19.2,11.5-24,20.7c0,0,0,0,0,0c0.2-5.3,2-10.4,4.4-15
			c0.2-0.5-0.4-1.1-0.8-0.6c-3.3,4-5.8,8.4-7.4,13.3c-0.6,1.8-1.3,3.8-1.8,5.7c-2.8-3-6.4-5.3-10.2-6.7c-0.2-0.1-0.4,0.2-0.2,0.4
			c3.5,3.3,5.4,7.2,6.6,11.5c-0.1-0.1-0.3-0.2-0.4-0.3c-3.4-2.6-7.1-3.6-11.4-3.8c-0.4,0-0.7,0.6-0.3,0.8c2.7,2.2,4.9,5,6.9,7.7
			c2,2.7,3.5,5,7.2,5.6c1.5,0.2,11.2,0.8,13.3,0.1c4.6-1.6,5.6-7.8,7.9-11.6c2.6-4.2,6.1-7.6,10.1-10.4c0.6-0.4,0.2-1.3-0.5-1.1
			c-4.4,1.1-8.6,2.9-12.4,5.5c0.4-2.1,0.8-4.1,1.7-6.2C1456.5,608.7,1460.6,604.1,1465.9,600.2z"/>
		<path class="st1" d="M466.7,592.5c0.6-0.4,0-1.4-0.6-1.1c-7.9,4.1-14.1,9.9-19.3,17.2c-2.8,4-6.2,9.5-7.4,14.9
			c-4.5-7.5-13.9-13.4-20.9-15.8c-1-0.3-1.9,1.1-0.9,1.6c5,2.8,9.3,6.6,12.5,11.4c1.3,1.9,2.1,4,3,6.1c-0.3-0.1-0.7-0.2-1-0.3
			c-4-1.2-8.4-2.3-12.6-2.8c-1.6-0.2-1.9,2.1-0.3,2.5c4.2,1,7.6,2.6,10.6,5.8c2.7,2.8,3.9,6.3,8.4,5.9c1.3-0.1,10.3-0.4,11.8-1.9
			c3-3,3.4-8,5.4-11.8c2.2-4.3,5.7-7.7,9.8-10.3c1.1-0.7,0-2.2-1.1-1.9c-5.2,1.5-9.7,4.3-13.5,8.2c-0.5,0.5-1.1,1.2-1.6,1.8
			c0.5-3.4,0.9-6.8,2.1-10C453.9,604,459.8,597.5,466.7,592.5z"/>
	</g>
	<g>
		<path class="st3" d="M1127.4,777.2c0,1.8-5.4,3.3-12,3.3c-6.6,0-12-1.5-12-3.3s5.4-3.3,12-3.3
			C1122.1,773.9,1127.4,775.4,1127.4,777.2z"/>
		<path class="st3" d="M1101,660.6c0,1.8-5.4,3.3-12,3.3c-6.6,0-12-1.5-12-3.3c0-1.8,5.4-3.3,12-3.3
			C1095.6,657.4,1101,658.8,1101,660.6z"/>
		<path class="st3" d="M1431.5,665.3c0,1.8-5.4,3.3-12,3.3c-6.6,0-12-1.5-12-3.3c0-1.8,5.4-3.3,12-3.3
			C1426.2,662,1431.5,663.5,1431.5,665.3z"/>
		<path class="st3" d="M502.5,668.6c0,1.8-5.4,3.3-12,3.3c-6.6,0-12-1.5-12-3.3s5.4-3.3,12-3.3C497.1,665.3,502.5,666.8,502.5,668.6
			z"/>
		<path class="st3" d="M701.7,791.7c0,1.8-5.4,3.3-12,3.3c-6.6,0-12-1.5-12-3.3c0-1.8,5.4-3.3,12-3.3
			C696.3,788.5,701.7,789.9,701.7,791.7z"/>
		<ellipse class="st3" cx="1192.5" cy="809.2" rx="21.8" ry="6"/>
		<ellipse class="st3" cx="901.6" cy="837.6" rx="21.8" ry="6"/>
		<path class="st3" d="M799.7,625.3c0,3.3-9.8,6-21.8,6s-21.8-2.7-21.8-6c0-3.3,9.8-6,21.8-6S799.7,622,799.7,625.3z"/>
	</g>
	<g>
		<ellipse class="st3" cx="953.7" cy="730.5" rx="135.5" ry="21.9"/>
		<g>
			<line class="st4" x1="952.9" y1="702.5" x2="953.9" y2="409.9"/>
			<path class="st5" d="M995.1,539c0,0-35,11-41.3,37.5"/>
			<path class="st6" d="M919.6,445c0,0-56,13-75.5,0c-19.5-13-5.8-48.9-5.8-48.9s9.4-0.3,39.4,16.9S919.6,445,919.6,445z"/>
			<path class="st6" d="M956.9,409.9c0,0,61.2-24.4,66.8-74.3c0,0,4.7-34.1,2.9-42c0,0-36.7,2.6-62.2,25.5
				C938.8,342,937.3,373.5,956.9,409.9z"/>
			<path class="st7" d="M956.1,420.4c0,0,31.1-43.5,11.6-75.8s-41.6-55.5-70.9-59.6c0,0-23.6,46.1-7.1,90.4
				C906.2,419.7,956.1,420.4,956.1,420.4z"/>
			<path class="st7" d="M953.5,472.6c0,0-15.4-29.3-59.7-54c0,0-37.1-21.8-55.5-22.5c0,0,23.3,55.9,50.3,64.5
				C915.6,469.2,935.5,459.5,953.5,472.6z"/>
			<path class="st7" d="M960.2,461c0,0,3.8-31.5,23.6-47.4s45-24.2,67.9-17.5c0,0-4,47.6-45.8,60.4C976.4,465.5,960.2,461,960.2,461
				z"/>
			<path class="st6" d="M977.1,548c0,0,9.8-43.9,40.5-53.3c18.8-5.7,67.2,11.2,76.5,8.2c0,0-15,42-54,47.6
				C1001.1,556.2,977.1,548,977.1,548z"/>
			<line class="st5" x1="950.6" y1="407.9" x2="911.6" y2="317.4"/>
			<path class="st5" d="M1068,512.5c0,0-33.4-1.6-65.9,16.6"/>
			<path class="st5" d="M977.1,450.7c0,0-24.8-2.2-24.2,42.8"/>
			<path class="st5" d="M952.9,633.3c0,0-22.8-35.2-45.3-24.8"/>
			<path class="st5" d="M953.9,530.2c0,0-11.2-16.8-29.8-17.8"/>
			<path class="st6" d="M935.1,514.6c0,0-91.2,16.9-101.3,24.8c-10.1,7.9-24.8,18-24.8,18s-12.4-54.8,7.9-63.8s36.8-5.6,36.8-5.6
				s22.9-18.4,46.5-4.1C923.8,498.1,935.1,514.6,935.1,514.6z"/>
			<path class="st7" d="M816.9,493.6c20.3-9,36.8-5.6,36.8-5.6s-43.5,31.5-44.6,69.4C809,557.4,796.7,502.6,816.9,493.6z"/>
			<path class="st6" d="M913.7,606.9c0,0-19.1-21.4-51.8-13.9s-38.6,38.6-38.6,38.6s-24.8,0-31.1,27.8s-3.8,29.6,2.6,29.6
				s13.9-22.1,50.3-33.4C881.5,644.4,911.5,634.6,913.7,606.9z"/>
			<path class="st7" d="M806.2,669.2c-5.7,10.8-8.5,19.8-11.4,19.8c-6.4,0-9-1.9-2.6-29.6c6.4-27.8,31.1-27.8,31.1-27.8L806.2,669.2
				L806.2,669.2z"/>
			<path class="st5" d="M1002.1,636c0,0-41.8,9.4-49.2,34.5"/>
			<path class="st7" d="M977.1,644c0,0,23.7-34.9,53.9-37.5c30.2-2.6,43.3,5.6,43.3,5.6s29.6-28.7,47.3-20.7
				c0,0-21.4,18.8-25.5,30.5C1091.9,633.5,1039,687.2,977.1,644z"/>
			<path class="st6" d="M977.1,644c0,0,23.7-34.9,53.9-37.5c30.2-2.6,43.3,5.6,43.3,5.6s-29,30.3-31.6,46.5
				C1023.7,662.9,1001.1,660.7,977.1,644z"/>
			<path class="st5" d="M990.6,642.2c0,0,44.6-5.7,53.6-9"/>
			<line class="st5" x1="838.3" y1="537.1" x2="861.6" y2="515"/>
			<line class="st5" x1="879.1" y1="631.6" x2="823.3" y2="631.6"/>
			<line class="st5" x1="883.8" y1="413.1" x2="901.6" y2="445.5"/>
			<line class="st5" x1="1017.1" y1="420.4" x2="985.2" y2="442.5"/>
		</g>
		<path class="st8" d="M1058.4,728.7c-71.1,19.5-141.4,20-210.7,0c0,0,19.5-26.6,38-17.5c0,0,12.6-22.6,33.6-20.4
			c0,0,37.7-26.6,65,5.7l8.3,8.1c0,0,19.9-13.8,36.1,8.8C1028.8,713.5,1053.8,710.1,1058.4,728.7z"/>
		<path class="st9" d="M959.3,694.8c0,1.6,1,2.8,2.3,2.8s2.3-1.3,2.3-2.8s-1-2.8-2.3-2.8S959.3,693.2,959.3,694.8z"/>
		<path class="st9" d="M954.6,704c0,0.9,0.6,1.6,1.3,1.6c0.7,0,1.3-0.7,1.3-1.6s-0.6-1.6-1.3-1.6C955.2,702.4,954.6,703.2,954.6,704
			z"/>
		<path class="st9" d="M948.9,691.1c0,1.4,0.9,2.5,2.1,2.5s2.1-1.1,2.1-2.5c0-1.4-0.9-2.5-2.1-2.5S948.9,689.7,948.9,691.1z"/>
		<path class="st9" d="M900.1,710.6c0,1.9,1.2,3.4,2.8,3.4c1.5,0,2.8-1.5,2.8-3.4s-1.2-3.4-2.8-3.4
			C901.3,707.2,900.1,708.8,900.1,710.6z"/>
		<path class="st9" d="M906.3,702.1c0,0.8,0.5,1.4,1.1,1.4s1.1-0.6,1.1-1.4s-0.5-1.4-1.1-1.4C906.8,700.7,906.3,701.3,906.3,702.1z"
			/>
		<path class="st9" d="M1008.2,710.9c0,1.2,0.8,2.3,1.8,2.3s1.8-1,1.8-2.3s-0.8-2.3-1.8-2.3S1008.2,709.7,1008.2,710.9z"/>
		<path class="st9" d="M1001.1,714.7c0,0.8,0.5,1.5,1.2,1.5c0.7,0,1.2-0.7,1.2-1.5s-0.5-1.5-1.2-1.5
			C1001.7,713.2,1001.1,713.8,1001.1,714.7z"/>
	</g>
	<g>
		<ellipse class="st3" cx="1327.2" cy="712.7" rx="163.7" ry="18.9"/>
		<g>
			<path class="st10" d="M1159.8,370.6c0-6.5,5.9-16.1,5.9-16.1l14.7-98.4l-4.7-16.9l42.8-23.1l8.5,34.3c0.6,2.4,0.8,4.8,0.5,7.2
				c-3.3,28-25.1,69-29.1,77.6c-3.2,6.9-4.5,12.4-6.6,20.2c1.3,4.2-0.2,13.8-0.9,16.2c-1.3,4.8-0.7,12.9-0.9,17.2
				c-0.3,5.7-10.3,12.5-10.3,12.5c-5.8-0.8-7.6-8.3-7.6-8.3s1.7,10.7-3.7,6.6c-3-2.3-3.3-10.7-3-17.7c-3.7,7.7-9.3,7.5-10.9,6.1
				C1152.9,386.6,1159.8,377.1,1159.8,370.6z"/>
			<path class="st11" d="M1377.6,173.7c0,0,9.6,14.3-20,37.7c-29.6,23.4-122.7,48.2-122.7,48.2S1332.2,161.5,1377.6,173.7z"/>
			<g>
				<path class="st12" d="M1043.2,470.3c10.8,2.1,21.1-3.7,25.2-13.2l70.2,10.9l2.8,12.2c0.8,3.3,4.1,5.4,7.4,4.7l68.1-15.6
					c3.3-0.8,5.4-4.1,4.7-7.4l-6.7-29.2c0.5-0.5,15.9-35.8,15.9-35.8c3.7-6.5,4.8-14,3.2-21.3l-2.6-11.2
					c-3.7-15.9-19.5-25.9-35.4-22.2l-46.9,10.7c-12.3,2.8-21.4,13.1-22.8,25.6l-2.4,16.7c-0.2,1.4-0.2,2.8,0.1,4.2l7.5,37.9
					l-12.5,9.9l-50.2-6.9c-3-7.9-10.3-13.8-19.5-14.5C1047.7,425.3,1041.7,470,1043.2,470.3z M1208.6,405.1l-4.7-20.5
					c-0.8-3.3-4.1-5.4-7.4-4.7l-59.5,13.6l1.5-13.9c0.8-7.3,6.1-13.2,13.3-14.9l46.9-10.7c9.3-2.1,18.5,3.7,20.6,12.9l1.5,6.4
					C1223,383.3,1208.6,405.1,1208.6,405.1z"/>
				<path class="st13" d="M1049.4,425.6c10.2,4.5,4.9,42.9-6.1,44.5C1033.1,465.6,1038.4,427.2,1049.4,425.6z"/>
				<line class="st5" x1="1208.6" y1="405.1" x2="1210.9" y2="415.2"/>
				<line class="st5" x1="1206.8" y1="397.4" x2="1127.2" y2="415.6"/>
				<path class="st5" d="M1069.6,444.3c0,0,2,7.5-1.2,12.7"/>
			</g>
			<path class="st14" d="M1341.5,174.6c0,0,38.9,25.7,68.2,98.9c15.1,49.1,20.8,74.2,15.1,345.9c0,0-12.6,13.2-53.9,16.8
				l-29.4-230.8L1320,643.4c0,0-27.8-18.5-51.1-5.1c0,0-5.6-47.9-8.7-64.5S1234.7,250,1234.7,250L1341.5,174.6z"/>
			<path class="st3" d="M1235.6,257.7c0.1,0.5,0.2,1.1,0.2,1.6c7.8-2.5,52.1-27.1,95.1-45.9c19.9-8.7,36.8-11.1,36.8-11.1
				c-15.2-19.5-26.2-27.7-26.2-27.7L1240.3,246C1237.9,251.3,1236.4,255.4,1235.6,257.7z"/>
			<path class="st15" d="M1377.6,173.7c0,0-78.5-100.7-134.2-109.4s-84.7,51.4-84.7,51.4s-12.9,18.8-4.1,58.1s21.2,65.6,21.2,65.6
				l31.5-17l29.4,44.4C1236.6,266.6,1336.3,178.8,1377.6,173.7z"/>
			<path class="st16" d="M1280.6,200c0,0-24.5,10.1-65.6,15.5v29.9l-54.5,74.9l-16,24.8c0,0-3.6,2.8-3.9,11.4s-3.4,23.2,0,24.8
				s7-0.5,7.5-5.4c0.5-4.9,1.3-8.3,1.3-8.3s8.7,2.8,16.2,0.5c0,0,7.5,0,8.8-2.6s4.9-14.5,4.9-23.5s79-48.6,98.6-74.6
				C1290.4,255,1280.6,200,1280.6,200z"/>
			<path class="st17" d="M1215,216.9v-1.4c41-5.4,65.6-15.5,65.6-15.5s0.8,4.6,1.7,11.5C1251.5,219.6,1224.2,217.9,1215,216.9z"/>
			<path class="st16" d="M1139.4,77.5l21.4-28.8l39.7,23.1h-0.5c0,0-7.7,5.8-12.7,15.6c-2,4.5-5.3,17,1.1,43c0,0,6.7,17.3-6.2,23.5
				c-7.7,7.2-17.4-48.5-17.4-48.5L1139.4,77.5z"/>
			<line class="st5" x1="1281.8" y1="150.5" x2="1280.6" y2="140.4"/>
			<polyline class="st5" points="1280.6,200 1287.8,197.2 1282.9,159 			"/>
			<path class="st5" d="M1215,215.5c0,0-16-59.6-19.9-72"/>
			<path class="st5" d="M1207.2,222.2c0,0-7.6-8.5-13.7-11.1c-6.2-2.6-17.8-2.6-19.3-21.9s-4.3-30.2-4.3-30.2"/>
			<path class="st16" d="M1104.8,22.4c18.4-14.3,33.4-4.5,33.4-4.5c21.3,16.3,11.7,40.3,11.7,40.3s0.5,32-17,41.1
				c-9.2,4.8-19.7-4.7-27.8-17.2c-2.7,0.7-5.9,1.3-6.2,0c-0.3-1.4,0.2-6.4,0.6-9.9c-4.4-8.8-7.4-17.8-7.8-23.5
				C1090.4,32,1104.8,22.4,1104.8,22.4z"/>
			<path class="st18" d="M1100,13.2c21.3-9.8,41.7-5,49.1,3.6c7.5,8.6,16.3,16.5,32.4,13.8c16.2-2.8,36.1,1.5,44.1,15
				c3.5,5.9,4.2,12.4,3.2,18c-17,1-28.4,8.2-28.4,8.2c-6.9,3.9-13.8,16.7-13.8,16.7s-10.4,6.7-21.4,9.6c-17.4,4.6-31.4-17-18.3-37.5
				l-1.7-7.7c0,0-16.3,8.6-27.5-3.4h-33.4C1084.4,49.5,1078.7,23.1,1100,13.2z"/>
			<path class="st16" d="M1137.6,48.9c-1.2,5.1,2,10.3,7.2,11.4c5.1,1.2,10.3-2,11.4-7.2c1.2-5.1-2-10.3-7.2-11.4
				C1143.9,40.5,1138.8,43.8,1137.6,48.9z"/>
			<polygon class="st3" points="1341.5,405.5 1340.1,457.1 1302.8,317.7 			"/>
			<polyline class="st5" points="1341.5,405.5 1302.8,317.7 1273.8,307.4 			"/>
			<path class="st5" d="M1215,245.4c0,0,11.5-3.8,21.2,0"/>
			<line class="st5" x1="1149.5" y1="367.5" x2="1154.6" y2="356.4"/>
			<line class="st5" x1="1156.7" y1="369" x2="1163" y2="357.5"/>
			<line class="st5" x1="1165.7" y1="368" x2="1171.2" y2="358.5"/>
			<path class="st5" d="M1119.6,79.8c0,0-0.6,4.7-4.4,5.3"/>
			<path d="M1104.2,70.6c0.2,1.5,1.2,2.6,2.2,2.4c1-0.2,1.6-1.5,1.3-3s-1.2-2.6-2.2-2.4C1104.6,67.7,1104,69.1,1104.2,70.6z"/>
			<path class="st5" d="M1107.2,57.7c0,0-3.2-2.5-6.9-0.8"/>
			<path class="st9" d="M1329.7,601.9l-8.7,98.9c0,0,1.2,9.8-7.8,9.8c-19.1,0-77.3,0-77.3,0s-9.4-3-6-21.5
				c1.5-8.3,26.4-14.9,32.6-22.1c6.2-7.2-6.8-72.3-6.8-72.3L1329.7,601.9z"/>
			<path class="st9" d="M1430.3,613.2l2,79.3c0,0,5.3,30.3-7.1,29.9c-19.1-0.6-69.2-0.5-69.2-0.5s-9.4,0.3-6-18.2
				c1.5-8.3,21.1-11,25.8-19.3c2.2-3.8-14.3-71-14.3-71L1430.3,613.2z"/>
			<line class="st5" x1="1321" y1="700.8" x2="1229.5" y2="700.8"/>
			<line class="st5" x1="1431.5" y1="712.7" x2="1349.2" y2="712.7"/>
		</g>
		<path class="st19" d="M1017.3,433.6c-2.4,0.8-3.4,2.3-3.8,3.7c-0.6,2.1,0.2,4.5,1.9,5.8c1.2,0.9,2.9,1.5,5.3,0.7
			c4.3-1.4,8.7-8.5,8.7-8.5S1021.6,432.2,1017.3,433.6z"/>
		<path class="st19" d="M975.6,450.5c-2,1.3-2.6,3-2.7,4.4c0,2.1,1.3,4.1,3.2,4.9c1.3,0.5,3,0.6,5.1-0.7c3.6-2.4,6-10.1,6-10.1
			S979.2,448.1,975.6,450.5z"/>
		<path class="st19" d="M1013.5,490.5c-2.2,2.4-2.4,4.7-2,6.5c0.6,2.7,3,4.8,5.8,5.2c1.8,0.2,4.1-0.2,6.3-2.6c3.9-4.3,4.3-15,4.3-15
			S1017.3,486.2,1013.5,490.5z"/>
	</g>
	<g>
		<ellipse class="st3" cx="636.4" cy="721" rx="163.7" ry="18.9"/>
		<path class="st14" d="M544.5,289.9L498.2,503c0,0-5.3,33,6.2,59c11.5,26,48,116.5,48,116.5s1,15.5-16.5,18.5
			c-17.5,3-21,12.5-23,23.5h110.5c0,0,3.3-23.8-4.5-51.5c-6.9-24.5-37-148.5-37-148.5l48.5-90.5c0,0,30.8,187.1,32.3,203.1
			c1.5,16,9.5,79,9.5,79s0,14.5,19,16s61,0,61,0s3-13-3-20c-6-7-25.5-32.5-25.5-32.5S738,325.7,730,307.8L544.5,289.9z"/>
		<path class="st9" d="M749.3,708.1c-6-7-22.7-32.5-22.7-32.5s0.9-33.2,2.9-66.8c-29,6.8-60.1,2.9-71.8,0c2.9,12.5,4.8,21.3,5,24.3
			c1.5,16,9.5,79,9.5,79s0,14.5,19,16s61,0,61,0S755.3,715.1,749.3,708.1z"/>
		<path class="st9" d="M552.5,678.5c0,0,1,15.5-16.5,18.5c-17.5,3-21,12.5-23,23.5h110.5c0,0,3.3-23.8-4.5-51.5
			c-2.4-8.5-7.7-29.2-13.5-52.5l-77.1,2.9C540.7,649.4,552.5,678.5,552.5,678.5z"/>
		<path class="st3" d="M732.5,324.6c-0.8-8.9-1.6-14.8-2.5-16.8l-185.5-17.9l-5.3,24.6C563.7,322.2,644.2,343.3,732.5,324.6z"/>
		<path class="st15" d="M673,90.4c0,0,70.5,32.5,79,91S757.5,313,726,363l-47-4.4l2.5-32.3c0,0-109.3-4.4-146.8-30.6l14.2-126.7
			l-25,9v45l-41,11c0,0-25.2-37.5-13.9-77.5c11.4-40,70.4-76.5,70.4-76.5s19.5-13,44-10.5C608,71.9,630.5,72.4,673,90.4z"/>
		<path class="st20" d="M657.1,324.8c14.6,1.2,24.4,1.5,24.4,1.5s9.3-52,9-58.6c-0.3-6.7-1.3-47.7-1.3-47.7S668.8,318.9,657.1,324.8
			z"/>
		<path class="st21" d="M624.4,74.7l31.3-20.3l33,12.5l-8.8,37.5c0,0-4.1,30.1-38.3,22.5C608,119.4,624.4,74.7,624.4,74.7z"/>
		<path class="st17" d="M655.7,54.4c0,0-11.8,50.1,21.8,57.8c2-4.3,2.4-7.8,2.4-7.8l8.8-37.5L655.7,54.4z"/>
		<path class="st21" d="M707.5,40.1c0,0,1.5,14.2-2.5,30.3c-4,16-8.2,32.3-25,34c-16.8,1.8-30.8-22.2-28.8-53.3
			c1.8-26.3,11.5-37,28.1-36.8C696,14.6,707.7,23.1,707.5,40.1z"/>
		<line class="st5" x1="549" y1="168.9" x2="550.5" y2="143.6"/>
		<path class="st5" d="M524,177.9c0,0-19.5,14.3-33.5-5.3"/>
		<path class="st5" d="M611.1,72.3c0,0-19,51.2,24.7,65.9s58.3-35.6,58.3-35.6"/>
		<polygon class="st3" points="630.5,430 619.1,393.6 619.1,451.1 		"/>
		<line class="st5" x1="630.5" y1="430" x2="615.4" y2="381.7"/>
		<path class="st18" d="M651.8,57.9c27.6,4,22.1-22.3,22.1-22.3s17.7,15.6,39.6,11.6c18.3-3.3,15.3-30-1.7-37.8
			c-15.7-7.2-37.5-16.8-50.5,0c0,0-16.5-2.8-22.8,16.2c-6.3,19,2.8,38.2,2.8,38.2L651.8,57.9z"/>
		<path class="st21" d="M660,51.2c1.1,5-2,9.9-7,11.1c-5,1.1-9.9-2-11.1-7s2-9.9,7-11.1C654,43.1,658.9,46.2,660,51.2z"/>
		<g>
			<path class="st9" d="M831.5,540.2c-1.7,0-3.3-0.6-4.7-1.8L499.9,244.3c-2.9-2.6-3.1-7-0.5-9.9c2.6-2.9,7-3.1,9.9-0.5l327,294.1
				c2.9,2.6,3.1,7,0.5,9.9C835.4,539.4,833.5,540.2,831.5,540.2z"/>
			<path class="st12" d="M785.3,559.8c0,0,71.5,39.5,93.4,15.1c21.9-24.4-24.8-91.3-24.8-91.3c-5.8-10.1-17.5-15.3-28.9-13
				l-29.2,7.4l-16.9-8.3l-15.2,16.9l9.9,16.1l-4.2,29.8C768.3,544.1,774.7,555.1,785.3,559.8z"/>
		</g>
		<path class="st19" d="M675.7,383.8l1.2-29.8c0,0,11.7-17,36.7-5.3c25,11.7,19,24.7,19,24.7l-25.2,25.8c0,0,4.8,9.9,2.8,16.4
			c-2,6.5-7.6,9.2-6.7,16.8c0.9,7.7-8.8-0.7-8.3-8c0.5-7.3,0.7-16,0.7-16s-16.2-9.7-14.5-19.3L675.7,383.8z"/>
		<path class="st19" d="M666.8,413.6c2.3,2.3,9,7.2,12.7,8.8c0,0,1.1,7.7,6.5,4.4c2.9-1.8,6.7-19,0-23.8s-8.3-9.4-16-6.7
			c-3.8,1.4-5.1,6.9-5.5,10.7C664.3,409.4,665.1,411.8,666.8,413.6z"/>
		<path class="st5" d="M695.2,276.6c0,0,12.3,9.5,30.3,2.4"/>
		<path class="st19" d="M477.7,223.6c3.5-7.7,11.2-17,27.6-17.5c3.1-0.1,6.2,0.5,9,1.8c4.8,2.1,11.7,6.2,12.7,12.6l1.7,19.7
			c0,0,15.7,2.3,19.3,11c3.7,8.7,1.3,12.7,3.7,21.1c-3.7-4.9-16.2,6-6.2,13.4c0,0-7.3,5.5-10.4,5.5c-4.4,0-7.6-6.2-7.6-6.2
			s-17.8,1-20.1-2.7c-2.3-3.7-5.3-23.3-5.3-23.3l-21.3-19.7C476.5,235.2,475.3,228.9,477.7,223.6z"/>
		<line class="st5" x1="527.6" y1="284.9" x2="522" y2="271.7"/>
		<line class="st5" x1="516.7" y1="284.9" x2="511.2" y2="273.1"/>
		<line class="st5" x1="528.8" y1="240.2" x2="519.5" y2="237.9"/>
		<path class="st5" d="M723.8,675.5c0,0-14-12-29,0"/>
		<path class="st5" d="M672.3,712.1c0,0,10.5,7.5,30,8.5s50.8,0.1,50.8,0.1"/>
		<line class="st5" x1="515.2" y1="712.1" x2="624.2" y2="712.1"/>
		<path class="st5" d="M783.3,505.1c0,0,22.8,12,29.8,9.7c7-2.3-15.6-28.8-15.6-28.8"/>
		<line class="st5" x1="679.5" y1="422.4" x2="684.2" y2="401.5"/>
		<line class="st5" x1="672.2" y1="418" x2="678.5" y2="396.8"/>
		<line class="st5" x1="666.8" y1="413.6" x2="673" y2="395.5"/>
		<line class="st5" x1="707.3" y1="399.1" x2="703.5" y2="390"/>
		<polyline class="st5" points="695,59.3 697.2,75.4 688.5,75.3 		"/>
		<path class="st5" d="M677.3,78.5c0,0,5.2,5.7,12.3,3.8"/>
		<path d="M681.8,63.5c-0.4,1.4-1.5,2.3-2.4,2.1s-1.3-1.6-0.9-3c0.4-1.4,1.5-2.3,2.4-2.1C681.8,60.7,682.2,62.1,681.8,63.5z"/>
		<path d="M702.5,67c-0.3,1.4-1.3,2.4-2.3,2.2s-1.5-1.5-1.2-3s1.3-2.5,2.3-2.2C702.3,64.2,702.8,65.5,702.5,67z"/>
		<path class="st5" d="M679.3,49.8c0,0,5.1-2.4,8.1,1.5"/>
		<path class="st5" d="M700.3,53.6c0,0,3.6-2,6.2,1.3"/>
	</g>
	<g>
		<ellipse class="st3" cx="370" cy="741.1" rx="96" ry="15.2"/>
		<g>
			<path class="st22" d="M439.7,566.9c-2.9-0.5-5.7-0.8-8.6-1.1c-2.2-0.3-4.5-0.4-6.7-0.6c-2.8-0.2-5.6-0.5-8.4-0.7
				c-2.1-0.2-4.3-0.3-6.5-0.4c-4.4-0.2-8.8-0.5-13.2-0.6c-2.7-0.1-5.4-0.2-8.1-0.3c-8-0.3-16-0.3-23.9-0.2c-3,0-6,0-9,0.2
				c-3.5,0.1-7,0.2-10.5,0.4c-4.5,0.2-9,0.5-13.5,0.7c-3.3,0.2-6.5,0.4-9.8,0.8c-4.2,0.4-8.4,0.7-12.6,1.2c-1.7,0.2-3.4,0.3-5,0.6
				c-0.5,0-0.8,0-0.6-0.7c1.4-6.1,2.7-12.3,4.1-18.4c0.5-2,0.5-2,2.6-2c41.5,0,83.1,0,124.6,0c1,0,1.3,0.3,1.5,1.2
				c1.3,6.4,2.6,12.8,4,19.2C440.2,566.5,440.4,566.9,439.7,566.9z"/>
			<path class="st23" d="M407.8,699.7c0,1.2,0,2.3,0,3.5c0,0.6-0.2,0.9-0.8,0.8c0,0-0.1,0-0.1,0c-1.7,0-1.4,0.2-1.4-1.3
				c0-2.1,0-4.2,0-6.3c0-1,0.4-1.5,1.1-1.5s1.1,0.5,1.1,1.5C407.8,697.5,407.8,698.6,407.8,699.7z"/>
			<path class="st23" d="M344.8,702.8c0-2.2,0-4.3,0-6.5c0-0.9,0.4-1.4,1.1-1.4c0.7,0,1.1,0.5,1.1,1.4c0,4.4,0,8.8,0,13.2
				c0,0.7-0.2,1.3-1.1,1.3c-0.8,0-1.1-0.4-1.2-1.3C344.8,707.2,344.8,705,344.8,702.8z"/>
			<path class="st23" d="M380.4,702.9c0,2,0,4,0,6c0,0.3,0,0.6,0,0.8c-0.1,0.6-0.4,1-1,1c-0.7,0-1-0.3-1.2-1c0-0.2,0-0.4,0-0.6
				c0-4.2,0-8.5,0-12.7c0-0.5,0-1,0.5-1.3c0.4-0.3,0.8-0.3,1.2-0.1c0.5,0.2,0.6,0.7,0.6,1.2c0,1.6,0,3.2,0,4.7
				C380.4,701.6,380.4,702.3,380.4,702.9z"/>
			<path class="st23" d="M368.5,699.4c0-1.1,0-2.3,0-3.4c0-0.5-0.2-1.2,0.7-1.1c1,0,1.5,0.3,1.5,1.2c0,1.4,0,2.8,0,4.3
				c0,0.8,0,1.5,0,2.3c0,1-1,1.7-2,1.3c-0.4-0.1-0.3-0.4-0.3-0.7C368.5,702,368.5,700.7,368.5,699.4z"/>
			<path class="st24" d="M448.5,654.1c-0.2-3.7-0.3-7.3-0.6-11c-0.4-5.6-0.8-11.2-1.3-16.7c-0.3-4.1-0.7-8.1-1.2-12.2
				c-0.6-5.6-1.3-11.2-2-16.8c-0.7-5.5-1.6-11.1-2.3-16.6c-0.6-4.6-1.8-9.2-1.6-13.9c-2.9-0.5-5.7-0.8-8.6-1.1
				c-2.2-0.3-4.5-0.4-6.7-0.6c-2.8-0.2-5.6-0.5-8.4-0.7c-2.1-0.2-4.3-0.3-6.5-0.4c-4.4-0.2-8.8-0.5-13.2-0.6
				c-2.7-0.1-5.4-0.2-8.1-0.3c-8-0.3-16-0.3-23.9-0.2c-3,0-6,0-9,0.2c-3.5,0.1-7,0.2-10.5,0.4c-4.5,0.2-9,0.5-13.5,0.7
				c-3.3,0.2-6.5,0.4-9.8,0.8c-4.2,0.4-8.4,0.7-12.6,1.2c-1.7,0.2-3.4,0.3-5,0.6c-0.1,0.7-0.2,1.5-0.3,2.2c0,0.2-0.2,0.6,0,0.7
				c0.6,0.3,0.3,0.8,0.2,1.1c-0.3,2.6-0.7,5.1-1,7.7c-1.1,8.5-2,17.1-2.8,25.6c-0.7,8.1-1.4,16.2-1.9,24.3c-0.4,7.3-0.8,14.7-1.1,22
				c-0.3,6.7-0.5,13.4-0.5,20.1c-0.1,16-0.2,32.1,0.5,48.2c0.3,6,0.5,12,0.8,18c0,0.6,0.2,0.8,0.8,1.1c3.8,1.5,7.7,2.7,11.7,3.5
				c6.4,1.3,12.8,2,19.3,2.6c9.1,0.9,18.3,1.2,27.5,1.4c9.2,0.2,18.4,0.1,27.5-0.4c3.8-0.2,7.5-0.3,11.3-0.6
				c6.2-0.4,12.4-0.8,18.6-1.3c4.7-0.3,9.4-0.8,14.1-1.2c4-0.4,8-0.8,12-1.2c2.5-0.2,2.5-0.2,3-2.7c2-9.9,3.2-19.8,4.1-29.8
				c0.7-8.1,1.1-16.3,1.2-24.5C449,674,449,664,448.5,654.1z"/>
			<g>
				<path class="st25" d="M348.1,606c0,0,0.1,0,0.1,0c0.9-0.1,1.8-0.4,2.6-0.7c0.2-0.1,0.5-0.2,0.7-0.3c2.1-0.8,4.2-1.5,6.5-1.5
					c0.1,0,0.1,0,0.2,0c1.1,0,2,0.3,3,0.6l0.5,0.1l0,0c0,0,0,0-0.1,0l0,0l0,0l0,0c0,0,0,0,0.1,0h0c0,0,0,0,0.1,0l0,0l0,0l-0.1-0.1
					l0.1,0l-0.4-0.2c-3.9-2.1-7.5-0.8-11.1,0.4c-0.5,0.2-1,0.3-1.5,0.5c0.1-0.3,0.2-0.4,0.4-0.5c0.1,0,0.1-0.1,0.2-0.1
					c1-0.8,2.2-1.4,3.5-1.9c2.2-0.8,4-1,5.8-0.6c2.5,0.6,4.2,2.4,5.2,5.5c1.4,4.4,1,9-1.2,14.2c-1.3,2.9-3.1,5.6-5.4,8
					c-0.2,0.2-0.3,0.3-0.3,0.5c0,0.1,0.1,0.2,0.3,0.3c1.1,0.5,2.3,1.1,3.4,1.6l0.1,0.1c0.1,0.1,0.3,0.1,0.5,0.1
					c0.2,0,0.4-0.1,0.5-0.3c1.2-1.5,3-1.9,4.7-2.2c3.7-0.6,6.7-1.9,9.1-4c3.9-3.3,5.8-6.8,6.1-10.8c0-0.1,0-0.3,0.2-0.3
					c0.3,0.8,0.4,1.8,0.1,2.9c-0.1,0.7-0.3,1.3-0.5,1.9c-0.1,0.3-0.2,0.6-0.3,0.9c-0.5,1.5-0.8,3.2,0.1,4.9c1.4,2.9,4.5,4,8,2.7
					c3.8-1.3,6.7-4,8.6-8c1.7-3.6,0.9-8.1-1.8-10.8c-2.6-2.5-5.9-3.9-9.7-4.1c-0.4,0-0.8,0-1.1,0c-5.1,0-9.7,2.1-13.8,6.3
					c-0.9,0.9-1.8,1.9-2.3,3.2l0,0.1h0.1c0,0,0,0,0,0c0.3,0,0.5-0.2,0.6-0.3l0,0c1.6-2.2,3.6-4,6-5.4c5-2.9,9.6-3.4,14.2-1.6
					c2.7,1.1,4.4,3,5.2,5.7c0.7,2.4,0.4,5.2-1,7.9c-1.2,2.5-3.2,4.5-5.2,5.5c-1.2,0.5-2.4,1-3.8,0.7c-2-0.4-3.1-2-3.1-4.3
					c0-1.2,0.3-2.2,0.5-3.3c0.1-0.4,0.2-0.8,0.3-1.2c0.8-3.5-0.9-6.8-4.1-8.1l0,0c-0.4-0.2-0.8-0.3-1.3-0.2l-0.1,0l0,0.1
					c0.2,0.2,0.4,0.3,0.6,0.4c0.1,0,0.1,0,0.2,0.1c1.8,0.7,2.7,2.3,2.2,4.2c-0.7,3.1-2.2,5.9-4.7,8.6c-2.7,2.9-5.5,4.5-8.7,5
					c-2.1,0.3-3.8,0.9-5.2,1.9c-0.7,0.5-1.5,0.3-2.2,0.1c-0.3-0.1-0.5-0.2-0.6-0.4c0-0.1,0-0.3,0.3-0.6c1.8-2.3,3.4-4.8,4.5-7.3
					c2.4-5.1,3-9.5,2.1-13.8c-0.6-3-2.1-5.3-4.2-6.6c-2.1-1.3-4.7-1.5-7.6-0.8c0,0-0.1,0-0.2,0c-0.2,0.1-0.4,0.1-0.6,0c0,0,0,0,0,0
					c0,0,0-0.1,0-0.1c0.1-0.1,0.2-0.1,0.3-0.2c2.1-0.8,4.1-1.1,6.2-0.8c2.5,0.4,5,1.4,7.8,3.2c0,0,0.1,0.1,0.1,0.1
					c0.2,0.2,0.5,0.3,0.9,0.2l0.1,0l0,0c-0.4-0.5-1-0.9-1.5-1.2c-0.2-0.1-0.4-0.2-0.5-0.3c-4.5-3.1-9.1-3.7-13.7-1.6
					c-2.5,1.1-4.4,2.8-5.7,5l0,0.1c-0.1,0.2-0.3,0.5-0.1,0.8C347.6,606,347.9,606,348.1,606z"/>
				<path class="st25" d="M361.9,692.9c-1.1-0.6-2.5-0.6-3.7,0.1c-0.3,0.2-0.6,0.1-0.9,0c-1.2-0.7-2.5-0.7-3.6,0s-1.7,1.8-1.7,3.2
					c0,1.8,0,3.7,0,5.5c0,0.8,0,1.6,0,2.4v7.6c0,1.3,0,1.4,1.2,1.5l0.2,0c0.4,0,0.7,0,0.8-0.2c0.2-0.2,0.2-0.5,0.2-0.9
					c0-4,0-8.1,0-12.1c0-1.1,0-2.2,0-3.3v-0.1c0-0.3,0-0.5,0-0.8c0.1-0.5,0.4-0.8,1-0.8c0,0,0,0,0,0c0.6,0,0.9,0.3,1.1,0.8
					c0,0.2,0,0.5,0,0.7c0,0.1,0,0.1,0,0.2c0,3.5,0,7.1,0,10.7v4.6c0,1.2,0,1.3,1.2,1.3l0.1,0c0.4,0,0.7,0,0.8-0.2
					c0.2-0.2,0.2-0.4,0.2-0.8c0-4,0-8,0-11.8c0-1.2,0-2.4,0-3.7c0-0.1,0-0.2,0-0.2c0-0.2,0-0.4,0-0.6c0.1-0.6,0.5-0.9,1-0.9
					c0,0,0,0,0,0c0.6,0,1,0.3,1,1c0,0.2,0,0.4,0,0.6v0.2c0,5,0,9.9,0,14.8c0,0.9,0,1.3,0.2,1.5c0.1,0.1,0.4,0.2,0.7,0.2
					c0.2,0,0.5,0,0.8,0h0c0.5,0,0.6-0.2,0.6-0.7c0-1.8,0-3.6,0-5.4c0-3.7,0-7.5,0-11.2C363.5,694.6,362.9,693.5,361.9,692.9z"/>
				<path class="st25" d="M352.6,686.7c0,0.3,0.1,0.6,0.5,0.6c0.3,0,0.6,0,1,0c0.4,0,0.7,0,1.1,0h0.2c0.4,0,0.4-0.3,0.5-0.6l0.3-1.7
					c0.2-1,0.3-2,0.5-3c0.2-1.4,0.5-2.9,0.7-4.3c0.4-2.7,0.9-5.3,1.3-8c0.2-1.1,0.4-2.2,0.5-3.2c0.2-1.4,0.5-2.8,0.7-4.2
					c0,0,0-0.1,0-0.1c0-0.2,0.1-0.4,0-0.5c-0.1-0.1-0.2-0.1-0.4-0.2c-0.5,0-0.9,0-1.4,0c-0.2,0-0.5,0-0.7,0c-0.4,0-0.5,0.3-0.5,0.6
					c-0.4,2.4-0.8,4.8-1.2,7c-0.3,2.1-0.7,4.1-1,6.3l-0.5,2.7c0-0.1,0-0.2-0.1-0.2c-0.1-0.2-0.1-0.4-0.1-0.5c-0.2-1-0.4-2.1-0.5-3.2
					c-0.6-3.5-1.2-7-1.7-10.5l0-0.1c-0.3-2.2-0.4-2.2-2.6-2h0c-0.3,0-0.4,0.1-0.5,0.2c-0.1,0.1-0.1,0.3-0.1,0.6
					c0.6,3.5,1.2,7,1.7,10.4l0.1,0.5c0.4,2.2,0.7,4.5,1.1,6.7s0.7,4.5,1.1,6.7C352.6,686.6,352.6,686.6,352.6,686.7z"/>
				<path class="st25" d="M377,686L377,686c0.4-2.4,0.8-4.9,1.2-7.2c0.1-0.9,0.3-1.7,0.4-2.6c0.2-1.1,0.4-2.2,0.5-3.2
					c0.5-3.1,1-6.3,1.5-9.5c0-0.2,0.1-0.4,0.2-0.6c0.2-0.5,0.3-1,0-1.3c-0.3-0.2-0.8-0.2-1.3-0.2c-0.2,0-0.5,0-0.7,0
					c0,0-0.1,0-0.1,0c-0.5,0-0.7,0.2-0.7,0.7c-0.3,1.7-0.6,3.5-0.9,5.1c-0.2,1.1-0.4,2.2-0.6,3.3c-0.3,1.6-0.5,3.2-0.8,4.9
					c-0.1,0.7-0.2,1.4-0.4,2.2c-0.2-0.1-0.2-0.3-0.2-0.4c0,0,0,0,0-0.1c-0.2-1.3-0.5-2.7-0.7-4c-0.5-3.3-1.1-6.7-1.7-10
					c-0.3-1.8-0.4-1.8-2.1-1.8h-0.2c0,0,0,0-0.1,0c-0.4,0-0.6,0.1-0.7,0.2c-0.1,0.2-0.2,0.4-0.1,0.8c0.3,1.6,0.6,3.2,0.9,5.2
					c0.4,2.6,0.9,5.1,1.3,7.7c0.6,3.4,1.1,6.9,1.7,10.4c0.2,1.5,0.3,1.5,1.8,1.5C376.7,687.3,376.8,687.3,377,686z"/>
				<path class="st25" d="M388.9,687.3c0.7,0,1.4,0,2.1,0l0,0c0,0,0.1,0,0.1,0c0.2,0,0.5,0,0.5-0.3c0-1,0-1.8,0-2.5
					c0-0.3-0.3-0.3-0.5-0.2c0,0-0.1,0-0.1,0c-0.2,0-0.4,0-0.6,0c-0.7,0-1.4,0-2.1,0c-0.3,0-0.5,0-0.7-0.1s-0.2-0.3-0.1-0.7
					c0-0.7,0-1.3,0-2c0-0.3,0-0.6,0-0.8c0-1,0-1.5,0.2-1.7c0.2-0.2,0.7-0.2,1.6-0.2c0,0,0,0,0.1,0c0.4,0,0.6-0.1,0.7-0.2
					c0.1-0.2,0.2-0.4,0.2-0.8v-0.1c0-1.9,0-2-2-1.9c0,0,0,0-0.1,0c-0.3,0-0.5,0-0.6-0.2c-0.1-0.2-0.2-0.4-0.2-0.7c0-2,0-4,0-5.9
					c0-0.7,0-1.5,0-2.2c0-2.3,0-2.3,2.2-2.3c1.1,0,1.6,0,1.9-0.3s0.3-0.8,0.2-1.9v-0.1c0-0.3-0.1-0.5-0.2-0.6
					c-0.1-0.1-0.3-0.2-0.6-0.2c0,0,0,0,0,0c-1.9,0-3.8,0-5.7,0c-0.4,0-0.6,0-0.7,0.2c-0.2,0.2-0.2,0.5-0.2,0.8c0,3,0,6,0,8.9
					c0,1,0,2,0,3v2.7c0,3.1,0,6.3,0,9.4c0,0,0,0.1,0,0.2c0,0.2,0,0.4,0.1,0.6c0.1,0.1,0.2,0.1,0.5,0.1c0,0,0,0,0,0
					C386.2,687.3,387.6,687.3,388.9,687.3z"/>
				<path class="st25" d="M410.2,703.2c0-2.3,0-4.7,0-7.1c0-2-1.5-3.6-3.5-3.6c0,0,0,0,0,0c-2,0-3.4,1.5-3.4,3.6c0,1.8,0,3.7,0,5.5
					c0,0.8,0,1.6,0,2.4v7.7c0,1.4,0,1.5,1.4,1.5h0.1c0,0,0,0,0,0c0.3,0,0.5-0.1,0.6-0.2c0.1-0.2,0.2-0.4,0.2-0.7c0-1.1,0-2.2,0-3.2
					c0-0.4,0-0.9,0-1.3c0-0.7,0-1.1,0.2-1.3c0.2-0.2,0.5-0.2,1.2-0.2h0.1c0.3,0,0.4,0,0.5,0.1c0.1,0.1,0.1,0.3,0.1,0.6
					c0,1.1,0,2.2,0,3.3c0,0.4,0,0.9,0,1.3c0,1.5,0,1.5,1.5,1.5h0.1c0,0,0,0,0.1,0c0.3,0,0.5,0,0.7-0.2s0.2-0.3,0.2-0.7
					C410.2,709.3,410.2,706.2,410.2,703.2z M405.5,697v-0.6c0-1,0.4-1.4,1.1-1.4l0,0c0.7,0,1,0.4,1,1.4c0,0.8,0,1.5,0,2.3v1
					c0,0.3,0,0.7,0,1c0,0.8,0,1.7,0,2.5c0,0.3,0,0.5-0.2,0.6c-0.1,0.1-0.3,0.1-0.5,0.1c0,0,0,0,0,0s0,0,0,0s0,0,0,0
					c-0.1,0-0.2,0-0.4,0c-0.1,0-0.2,0-0.2,0c-0.4,0-0.6,0-0.7-0.1c-0.1-0.1-0.1-0.3-0.1-0.6c0-0.2,0-0.3,0-0.6
					C405.5,700.8,405.5,698.8,405.5,697z"/>
				<path class="st25" d="M349.3,702.9v-1.7c0-1.7,0-3.4,0-5.1c0-0.7-0.1-1.2-0.3-1.7c-0.8-1.4-2.3-2.1-3.9-1.8
					c-1.6,0.4-2.7,1.8-2.7,3.5c0,4.2,0,8.6,0,13.4c0,2,1.5,3.7,3.5,3.7c0,0,0,0,0,0c1,0,1.8-0.4,2.5-1c0.6-0.7,1-1.6,1-2.6
					c0-1.5,0-3.1,0-4.7C349.3,704.2,349.3,703.5,349.3,702.9z M344.8,700.9c0-1.5,0-3.1,0-4.6c0-0.9,0.4-1.3,1.1-1.3h0
					c0.3,0,0.5,0.1,0.7,0.3c0.2,0.2,0.3,0.6,0.3,1.1c0,3.4,0,6.8,0,10.2v3c0,0.8-0.3,1.2-1,1.3c-0.3,0-0.6-0.1-0.8-0.2
					c-0.2-0.2-0.3-0.6-0.3-1c0-1.6,0-3.2,0-4.8v-1.8V700.9z"/>
				<path class="st25" d="M381.7,693.5c-0.6-0.6-1.5-1-2.4-1c0,0,0,0,0,0c-2,0-3.5,1.5-3.5,3.6c0,1.6,0,3.2,0,4.7c0,0.7,0,1.3,0,2
					c0,0.7,0,1.3,0,2c0,1.5,0,3.2,0,4.7c0,2,1.5,3.6,3.4,3.6c0,0,0,0,0,0c0.9,0,1.8-0.3,2.4-1c0.7-0.7,1.1-1.6,1.1-2.7
					c0-4.6,0-9.1,0-13.5C382.7,695.1,382.3,694.1,381.7,693.5z M379.3,710.7c-0.6,0-1-0.3-1.1-0.9c0-0.2,0-0.5,0-0.6
					c0-4.2,0-8.5,0-12.7c0-0.5,0-1,0.4-1.3c0.2-0.2,0.4-0.2,0.6-0.2c0.2,0,0.4,0,0.5,0.1c0.5,0.2,0.6,0.7,0.6,1.1c0,1.1,0,2.3,0,3.4
					c0,0.4,0,0.9,0,1.3c0,0.5,0,0.9,0,1.4v2.2c0,1.5,0,3,0,4.5v0c0,0.3,0,0.5,0,0.8C380.2,710.4,379.9,710.7,379.3,710.7z"/>
				<path class="st25" d="M336.4,692.5C336.4,692.5,336.4,692.5,336.4,692.5c-2.1,0-3.6,1.5-3.6,3.6c0,1.5,0,3.1,0,4.6
					c0,0.7,0,1.4,0,2l0,0c0,0.7,0,1.4,0,2c0,1.6,0,3.2,0,4.9c0,1,0.4,1.8,1.1,2.5c0.6,0.6,1.5,0.9,2.4,0.9c0,0,0.1,0,0.1,0
					c1.9-0.1,3.3-1.6,3.4-3.6c0-0.4,0-0.8,0-1.2c0-0.2,0-0.3,0-0.5c0-0.9,0-1.3-0.2-1.6s-0.7-0.2-1.5-0.2h0c-0.4,0-0.7,0.1-0.6,0.6
					c0,0.4,0,0.8,0,1.3c0,0.4,0,0.8,0,1.2c0,0.9-0.3,1.3-1,1.3c-0.3,0-0.6-0.1-0.8-0.2c-0.2-0.2-0.4-0.6-0.4-1.1c0-4.3,0-8.7,0-13
					c0-0.5,0.1-0.9,0.4-1.2c0.2-0.2,0.4-0.3,0.7-0.2c0.8,0,1.1,0.5,1.1,1.3c0,1.5,0,2.9,0,4.4c0,0.6,0,1.2,0,1.8
					c0,0.9,0,1.3,0.2,1.5s0.6,0.2,1.5,0.2h0.1c0.5,0,0.7-0.2,0.7-0.7c0-1,0-2,0-2.9c0-1.5,0-3.1,0-4.7
					C339.8,694,338.2,692.5,336.4,692.5z"/>
				<path class="st25" d="M369.7,692.5c-0.3,0-0.7,0-1,0c-0.5,0-1.1,0-1.7,0c-0.3,0-0.5,0-0.7,0.2c-0.1,0.1-0.2,0.3-0.2,0.7
					c0,2.3,0,4.7,0,7c0,0.8,0,1.6,0,2.4v8.8c0,1.5,0,1.5,1.5,1.5h0.1c0,0,0,0,0,0c0.3,0,0.5-0.1,0.6-0.2c0.1-0.1,0.2-0.3,0.2-0.7
					c0-0.8,0-1.5,0-2.2c0-0.9,0-1.8,0-2.7c0-0.5,0-0.7,0.2-0.9c0.1-0.1,0.4-0.2,0.8-0.2c0,0,0.1,0,0.2,0c0.9,0,1.8-0.3,2.4-0.9
					c0.7-0.6,1-1.5,1-2.5c0-2.2,0-4.5,0-6.9C373.1,694,371.6,692.5,369.7,692.5z M368.6,700.4v-1c0-0.3,0-0.6,0-1c0-0.8,0-1.7,0-2.5
					c0-0.1,0-0.2,0-0.3c0-0.3,0-0.5,0.1-0.7c0.1-0.1,0.2-0.1,0.5-0.1c0,0,0.1,0,0.1,0c1.1,0,1.5,0.3,1.5,1.2c0,1,0,2,0,3
					c0,0.4,0,0.8,0,1.3c0,0.2,0,0.5,0,0.7c0,0.5,0,1.1,0,1.6c0,0.5-0.2,0.8-0.6,1.1c-0.4,0.3-0.9,0.3-1.3,0.2
					c-0.3-0.1-0.3-0.3-0.3-0.5c0,0,0-0.1,0-0.1C368.6,702.3,368.6,701.4,368.6,700.4z"/>
				<path class="st25" d="M389.9,697.8c0,0.8,0,1.3,0.2,1.5c0.2,0.2,0.6,0.2,1.5,0.2h0.1c0.3,0,0.5-0.1,0.6-0.2s0.1-0.3,0.1-0.6
					c0-0.5,0-0.9,0-1.4c0-0.4,0-0.9,0-1.3c0-0.7-0.2-1.2-0.4-1.7c-0.9-1.5-2.4-2.1-4-1.7c-1.5,0.4-2.5,1.8-2.5,3.5
					c0,2.2,0,4.4,0,6.5c0,2.1,1.3,3.4,3.5,3.7c0.7,0.1,1.1,0.5,1.1,1.2c0,0.3,0,0.7,0,1c0,0.3,0,0.6,0,0.9c0,0.9-0.3,1.3-1,1.4
					c-0.3,0-0.6-0.1-0.8-0.2c-0.2-0.2-0.4-0.6-0.4-1.2c0-0.4,0-0.6-0.2-0.7c-0.1-0.1-0.4-0.2-0.7-0.1c-0.3,0-0.6,0-0.9,0
					c-0.4,0-0.6,0.1-0.6,0.6c-0.2,2,1.1,3.8,3,4.1c0.2,0,0.4,0,0.5,0c0.7,0,1.3-0.2,1.9-0.6c0.8-0.5,1.3-1.4,1.5-2.4
					c0.1-0.6,0.1-1.2,0.1-1.8c0-0.2,0-0.3,0-0.5c0-2.4-1-3.6-3.4-3.9c-0.9-0.1-1.2-0.6-1.2-1.5c0-0.7,0-1.4,0-2.1c0-0.3,0-0.6,0-0.9
					s0-0.6,0-0.9c0-0.7,0-1.4,0-2.1c0-0.5,0.1-1,0.4-1.2c0.2-0.2,0.4-0.2,0.7-0.2c0.7,0,1.1,0.5,1,1.4c0,0.3,0,0.7,0,1
					C389.9,697.5,389.9,697.7,389.9,697.8z"/>
				<path class="st25" d="M366.2,677.5c0-1,0-2,0-3.1v-11c0-1.8,0-1.8-1.7-1.8h-0.1c-0.5,0-0.7,0-0.9,0.2s-0.2,0.4-0.2,0.9
					c0,5.8,0,11.7,0,17.5c0,1.7,0,3.5,0,5.2c0,2,0,2,1.9,2.1h0.1c0,0,0,0,0.1,0c0.4,0,0.6-0.1,0.7-0.2c0.1-0.2,0.2-0.4,0.2-0.8
					C366.2,683.4,366.2,680.4,366.2,677.5z"/>
				<path class="st25" d="M358.1,635.1c0.1-0.4,0.3-0.8,0.4-1.3l0-0.1l-0.1,0c-0.2,0.1-0.3,0.1-0.3,0.2c-0.1,0-0.1,0.1-0.2,0.1
					c-0.1,0.1-0.1,0.3-0.2,0.4c-0.2,0.4-0.4,0.9-0.6,1.3c-1.6,3.9-3,8.2-2.2,12.9c0.7,4.3,3,7.1,6.9,8.5c1.5,0.5,3,0.8,4.6,0.8
					c1.8,0,3.6-0.3,5.6-1c6.3-2.1,11.3-6.3,15.1-12.8c0,0,0-0.1,0.1-0.1c0.2-0.3,0.4-0.6,0.4-1.1v-0.2l-0.1,0.1
					c-0.1,0.1-0.2,0.2-0.2,0.3c-0.1,0.2-0.3,0.3-0.4,0.5c-2.9,4.1-6,7.2-9.8,9.5c-4.4,2.6-8.4,3.7-12.5,3.2
					c-4.6-0.5-8.1-3.9-8.6-8.6c-0.4-3.1,0-6.4,1.2-10.3C357.6,636.8,357.8,636,358.1,635.1z"/>
				<path class="st25" d="M400.5,693.4c0-0.3,0-0.5-0.1-0.7c-0.1-0.2-0.4-0.2-0.8-0.2c-1,0-2.1,0-3.2,0c-0.4,0-0.9,0-1.3,0
					c-0.9,0-1.3,0-1.5,0.2s-0.2,0.7-0.1,1.5v0c0,0.3,0.1,0.4,0.2,0.5c0.1,0.1,0.2,0.1,0.5,0.1c0.1,0,0.2,0,0.3,0c0.1,0,0.3,0,0.4,0
					c0.3,0,0.5,0,0.7,0.1c0.1,0.1,0.2,0.4,0.2,0.8c0,2,0,4,0,5.9c0,0.7,0,1.5,0,2.2c0,0.8,0,1.5,0,2.3c0,2,0,4,0,6.1
					c0,0.4,0.1,0.7,0.2,0.8c0.1,0.1,0.4,0.2,0.7,0.1c0.2,0,0.4,0,0.5,0c0.1,0,0.2,0,0.3,0c0.2,0,0.4,0,0.5-0.1
					c0.2-0.2,0.2-0.4,0.2-0.9c0-2.5,0-5,0-7.5c0-2.8,0-5.7,0-8.6c0-0.6,0.1-0.9,0.3-1c0.2-0.1,0.4-0.2,0.8-0.1c0.5,0.1,0.8,0,1-0.2
					c0.2-0.2,0.3-0.5,0.2-1.1C400.5,693.6,400.5,693.5,400.5,693.4z"/>
				<path class="st25" d="M368.2,590.3c0.3,0.1,0.6,0,0.9-0.2c0.4-0.3,0.6-0.2,0.9,0l0.2,0.1c0.3,0.2,0.6,0.3,0.8,0.5
					c4.1,3.1,5.4,9.3,4.2,13.6c0,0.1,0,0.1-0.1,0.2c-0.1,0.1-0.1,0.3-0.1,0.4c0,0.1,0.1,0.1,0.2,0.2c0,0,0.1,0,0.1,0
					c0.2,0,0.3-0.2,0.4-0.4c0-0.1,0-0.1,0.1-0.2c0.9-1.5,2-2.8,3.4-3.8c3.3-2.6,6.6-3.5,10.2-2.8l0.1,0c0.6,0.1,1.1,0.2,1.2,1
					c0,0.3,0.2,0.5,0.4,0.7c0.3,0.2,0.6,0.2,1,0.1c0.5-0.2,1-0.6,0.8-1.3c-0.1-0.4-0.4-0.7-0.6-0.8c-0.2-0.1-0.5-0.1-0.7,0
					c-0.6,0.3-0.9,0.1-1.4-0.1c0,0-0.1,0-0.2-0.1c-0.4-0.2-0.8-0.3-1.2-0.4c-3.5-0.7-6.7,0.1-9.8,2.6c-0.6,0.5-1.1,1-1.6,1.6
					c-0.3,0.3-0.5,0.6-0.8,0.9c0.1-1.5,0.1-3.1-0.2-4.7c-0.9-4-2.9-6.6-6.2-7.9c-0.3-0.1-0.4-0.3-0.5-0.5c0,0,0-0.1-0.1-0.2
					c-0.1-0.4-0.4-0.6-0.7-0.7c-0.2-0.1-0.5-0.1-0.8,0.1c-0.6,0.3-0.8,0.9-0.5,1.5C367.6,590,367.9,590.2,368.2,590.3z"/>
			</g>
			<path class="st23" d="M303.5,566.4l-0.2,9.1c0,0,58.6-13.5,136.9-1.3l0.3-7.8C440.5,566.4,351.5,556.4,303.5,566.4z"/>
		</g>
	</g>
</g>
</svg>
