<?xml version="1.0" encoding="utf-8"?>
<!-- Generator: Adobe Illustrator 24.1.1, SVG Export Plug-In . SVG Version: 6.00 Build 0)  -->
<svg version="1.1" id="Capa_1" xmlns="http://www.w3.org/2000/svg" xmlns:xlink="http://www.w3.org/1999/xlink" x="0px" y="0px"
	 viewBox="0 0 458.54 470.12" style="enable-background:new 0 0 458.54 470.12;" xml:space="preserve">
<style type="text/css">
	.st0{fill:#B6D74F;}
	.st1{fill:#FDE831;}
	.st2{clip-path:url(#SVGID_2_);}
	.st3{fill:#724A03;}
	.st4{opacity:0.59;fill:#353535;}
	.st5{fill:#F7B38D;}
	.st6{fill:#233541;}
	.st7{fill:#067841;}
	.st8{fill:#F3DC9B;}
	.st9{opacity:0.75;fill:#D1C9CD;}
	.st10{fill:#F07B01;}
	.st11{fill:#A96A4E;}
	.st12{fill:none;stroke:#000000;stroke-width:0.5;stroke-linecap:round;stroke-linejoin:round;stroke-miterlimit:10;}
	.st13{fill:url(#SVGID_3_);}
	.st14{clip-path:url(#SVGID_5_);}
	.st15{fill:url(#SVGID_6_);}
	.st16{clip-path:url(#SVGID_8_);}
	.st17{fill:url(#SVGID_9_);}
	.st18{fill:url(#SVGID_10_);}
	.st19{fill:url(#SVGID_11_);}
	.st20{fill:url(#SVGID_12_);}
	.st21{clip-path:url(#SVGID_14_);}
	.st22{clip-path:url(#SVGID_16_);}
	.st23{fill:url(#SVGID_17_);}
	.st24{fill:#FAD974;}
	.st25{fill:#F5C33F;}
	.st26{clip-path:url(#SVGID_19_);}
	.st27{clip-path:url(#SVGID_21_);}
	.st28{fill:url(#SVGID_22_);}
	.st29{fill:#FFFFFF;}
	.st30{clip-path:url(#SVGID_24_);}
	.st31{clip-path:url(#SVGID_26_);}
	.st32{fill:url(#SVGID_27_);}
	.st33{clip-path:url(#SVGID_29_);}
	.st34{clip-path:url(#SVGID_31_);}
	.st35{fill:url(#SVGID_32_);}
	.st36{fill:#FCFFFF;}
	.st37{fill:#FDDA2B;}
	.st38{fill:#F9DD0F;}
	.st39{fill:#332C27;}
	.st40{fill:none;}
</style>
<g>
	<polygon class="st0" points="300.63,103.06 300.63,70.56 279.38,70.56 314.38,40.56 345.63,71.81 326.88,71.81 326.88,196.56 
		300.63,196.56 	"/>
	<polygon class="st1" points="356.63,133.06 356.63,100.56 335.38,100.56 370.38,70.56 401.63,101.81 382.88,101.81 382.88,226.56 
		356.63,226.56 	"/>
	<g>
		<defs>
			<path id="SVGID_1_" d="M406,202.56c46.3,62.64,79.01,218.34,23,264c-18.81,15.33-72.21-24.36-95-15c-29.15,11.97-51.54,15-85,15
				c-137.52,0-249-111.48-249-249s189.87-287.57,278-182C374,150.56,389,179.56,406,202.56z"/>
		</defs>
		<clipPath id="SVGID_2_">
			<use xlink:href="#SVGID_1_"  style="overflow:visible;"/>
		</clipPath>
		<g class="st2">
			<g>
				<g>
					<g>
						<path class="st3" d="M180.36,57.14c0,0,2.94,26.75-16.04,34.01c-15.02,5.74-28.54,8.04-35.48,28.9
							c-6.79,20.42,6.18,33.28-9.23,45.68c-15.41,12.4-22.7-1.65-45.27,12.35c-29.81,18.48-12.87,55.2,3.1,56.39
							c15.97,1.19,85.26-51.67,85.26-51.67L205,73.01L180.36,57.14z"/>
					</g>
				</g>
				<g>
					<g>
						<path class="st3" d="M243.83,29.67c0,0-26.33-14.62-51.87,6.66c-25.54,21.27-4.62,46.36-23.63,58.55
							c-19.02,12.19-37.03,26.17-34.24,46.62c2.79,20.44-6.32,45.65-23.68,35.85c-26.44-14.93-81.23,26.57-37.7,72.5
							c66.99,70.7,207.82-52.02,207.82-52.02s12.23-31.42,5.53-66.68C281.38,106.54,243.76,67.84,243.83,29.67z"/>
					</g>
				</g>
				<path class="st4" d="M-58.62,916.84c0,15.8,118.55,28.61,264.79,28.61s264.79-12.81,264.79-28.61
					c0-15.8-118.55-28.61-264.79-28.61S-58.62,901.04-58.62,916.84z"/>
				<path class="st5" d="M394.31,299.27c0,0,33.89,68.64,27.42,98.24c-6.47,29.59-25.35,42.27-49.89,40.65l-35.6-10.79L322.69,324.9
					L394.31,299.27z"/>
				<path class="st6" d="M114.66,410.82c0,0-9.09,23.65,30.1,24.36c58.82,1.08,181.23-10.07,181.23-10.07v-27.15
					C325.99,397.97,172.02,380.8,114.66,410.82z"/>
				<path class="st7" d="M116.45,389.34l-29.17,401l80.54,2.73l53.67-229.41c0,0,25.62,198.79,27.78,234.03l84.87-2.98
					c0,0-8.68-346.58-8.14-396.74L116.45,389.34z"/>
				<path class="st8" d="M87.28,790.34l-12.5,101.57c0,0-21.84,17.26-21.03,27.78c0.81,10.52,4.58,11.6,9.98,11.33
					c5.39-0.27,60.41,0,60.41,0s9.44-4.05,5.93-16.18c0,0,10.25-1.35,9.98-12.41c-0.27-11.06,1.89-34.79,1.89-34.79l25.89-74.56
					C142.78,785.25,108.09,787.73,87.28,790.34z"/>
				<path class="st8" d="M334.13,794.72c-28.97-3.95-65.69,0.18-84.87,2.98c7.16,59.16,13.42,113.01,14.29,127.24h108.59
					c0,0,4.32-18.7-8.63-24.45c-12.95-5.75-31.64-15.1-31.64-15.1S332.8,848.4,334.13,794.72z"/>
				<path class="st9" d="M111.71,430.08c25.15-3.07,122.74-13.61,213.8-5.01c0.26-12.57,0.42-21.91,0.48-27.1l-209.54-8.63
					L111.71,430.08z"/>
				<path class="st10" d="M193.93,151.44l-58.79,21.6c0,0-39.98,22.46-50.05,49.79c-10.07,27.33-6.84,99.33-6.84,99.33l27.27-3.47
					l9.14,92.14c0,0,56.53-21.49,211.32,14.3v-101.4l68.32-24.45l-44.59-87.74c0,0-11.51-25.89-39.55-36.68
					c-28.05-10.79-68.37-23.42-68.37-23.42H193.93z"/>
				<path class="st5" d="M193.93,151.44l5.09-61.49l37.53-2.98l5.24,64.46c0,0,2.54,18.71-21.29,17.84
					C195.93,168.38,193.93,151.44,193.93,151.44z"/>
				<path class="st11" d="M238.72,108.57l-30.66-2.64c0,0-4.17,29.52,32.59,33.8L238.72,108.57z"/>
				<path class="st5" d="M203.27,87.6c1.94,5.16-0.66,10.91-5.82,12.85c-5.16,1.94-10.91-0.66-12.85-5.82
					c-1.94-5.16,0.66-10.91,5.82-12.85C195.57,79.83,201.33,82.44,203.27,87.6z"/>
				<path class="st5" d="M257.7,78.76c-1.89-19.16-3.33-29.77-13.18-42c-7.19-8.92-26.79,12.44-26.79,12.44
					c3.59,19.65-9.3,23.59-9.3,23.59c-2.37,6.67-8.12,9.47-12.51,10.66c0.32,3.19,0.88,6.44,1.71,9.71
					c6.33,24.93,24.84,37.52,42.07,33.15C256.93,121.94,260.41,106.15,257.7,78.76z"/>
				<g>
					<path class="st7" d="M139.48,254.52c-12.56,47.79-24.81,156.3-24.81,156.3l190.4,5.96c0,0,5.39-135.29,1.07-159.17
						c-1.31-7.22-10.93-88.41-15.33-89.11c-4.4-0.7-21-7.71-21-7.71c5.85,12.37,12,62.07,8.9,61.87
						c-15.21-0.98-79.13-0.2-94.61,3.49c0-31.51-15.84-67.1-18.72-66.05c-6.34,2.32-12.5,3.21-16.97,7.33
						C143.93,171.56,141.15,248.17,139.48,254.52z"/>
				</g>
				<g>
					<path d="M338.01,328.93c-0.06,0-0.12,0-0.17-0.01c-0.59-0.1-0.98-0.65-0.89-1.23c4.4-26.92,52.51-20.7,54.55-20.42
						c0.59,0.08,1,0.62,0.92,1.21c-0.08,0.59-0.59,1-1.2,0.92c-0.48-0.06-48.07-6.22-52.15,18.65
						C338.98,328.56,338.52,328.93,338.01,328.93z"/>
				</g>
				<path class="st12" d="M241.39,416.78v45.91c0,2.38-1.93,4.31-4.32,4.31h-9.62v-50.23"/>
				<g>
					
						<linearGradient id="SVGID_3_" gradientUnits="userSpaceOnUse" x1="220.9292" y1="709.424" x2="227.5218" y2="599.215" gradientTransform="matrix(1 0 0 -1 0 877.9849)">
						<stop  offset="0.1" style="stop-color:#F8D56C"/>
						<stop  offset="1" style="stop-color:#E6990B"/>
					</linearGradient>
					<path class="st13" d="M195.03,151.99c0,0,14.08,64.52,34.02,86.81c0,0,18.77-21.12,14.08-86.81l18.77,5.87
						c0,0,0,63.35-30.5,89.15c0,0-36.36-31.67-52.79-90.33L195.03,151.99z"/>
					<g>
						<defs>
							<polygon id="SVGID_4_" points="236.14,286.4 243.68,299.56 246.38,291.6 254.4,293.41 246.86,280.25 							"/>
						</defs>
						<clipPath id="SVGID_5_">
							<use xlink:href="#SVGID_4_"  style="overflow:visible;"/>
						</clipPath>
						<g class="st14">
							
								<linearGradient id="SVGID_6_" gradientUnits="userSpaceOnUse" x1="-741.8566" y1="-512.7719" x2="-741.704" y2="-512.7719" gradientTransform="matrix(-69.5239 -82.8554 -82.8554 69.5239 -93812.0547 -25520.6113)">
								<stop  offset="0" style="stop-color:#F8D56C"/>
								<stop  offset="1" style="stop-color:#E6990B"/>
							</linearGradient>
							<polygon class="st15" points="226.62,288.2 246.84,271.24 263.89,291.55 243.67,308.52 							"/>
						</g>
					</g>
					<g>
						<defs>
							<polygon id="SVGID_7_" points="202.99,293.22 211,291.42 213.71,299.37 221.24,286.21 210.52,280.06 							"/>
						</defs>
						<clipPath id="SVGID_8_">
							<use xlink:href="#SVGID_7_"  style="overflow:visible;"/>
						</clipPath>
						<g class="st16">
							
								<linearGradient id="SVGID_9_" gradientUnits="userSpaceOnUse" x1="-739.6613" y1="-510.144" x2="-739.5089" y2="-510.144" gradientTransform="matrix(69.5239 -82.8554 82.8554 69.5239 93899.125 -25521.6543)">
								<stop  offset="0" style="stop-color:#F8D56C"/>
								<stop  offset="1" style="stop-color:#E6990B"/>
							</linearGradient>
							<polygon class="st17" points="193.48,291.41 210.53,271.09 230.75,288.05 213.7,308.37 							"/>
						</g>
					</g>
					
						<linearGradient id="SVGID_10_" gradientUnits="userSpaceOnUse" x1="201.2616" y1="616.6462" x2="255.7385" y2="616.6462" gradientTransform="matrix(1 0 0 -1 0 877.9849)">
						<stop  offset="0" style="stop-color:#F0B431"/>
						<stop  offset="0.5" style="stop-color:#F9D66D"/>
						<stop  offset="1" style="stop-color:#FAD974"/>
					</linearGradient>
					<circle class="st18" cx="228.5" cy="261.34" r="27.24"/>
					
						<linearGradient id="SVGID_11_" gradientUnits="userSpaceOnUse" x1="207.0096" y1="616.6462" x2="249.9906" y2="616.6462" gradientTransform="matrix(1 0 0 -1 0 877.9849)">
						<stop  offset="0" style="stop-color:#E89E12"/>
						<stop  offset="1" style="stop-color:#F4BC48"/>
					</linearGradient>
					<circle class="st19" cx="228.5" cy="261.34" r="21.49"/>
					
						<linearGradient id="SVGID_12_" gradientUnits="userSpaceOnUse" x1="241.9907" y1="632.7051" x2="214.6935" y2="600.2113" gradientTransform="matrix(1 0 0 -1 0 877.9849)">
						<stop  offset="0" style="stop-color:#EDB036"/>
						<stop  offset="0.5" style="stop-color:#FBD589"/>
						<stop  offset="1" style="stop-color:#EAA724"/>
					</linearGradient>
					<circle class="st20" cx="228.5" cy="261.34" r="19.8"/>
					<g>
						<g>
							<defs>
								<rect id="SVGID_13_" x="210.4" y="244.73" width="34.51" height="34.51"/>
							</defs>
							<clipPath id="SVGID_14_">
								<use xlink:href="#SVGID_13_"  style="overflow:visible;"/>
							</clipPath>
							<g class="st21">
								<g>
									<defs>
										<path id="SVGID_15_" d="M244.9,261.98c0,9.53-7.73,17.26-17.26,17.26c-9.53,0-17.26-7.73-17.26-17.26
											c0-9.53,7.73-17.26,17.26-17.26c0,0,0.01,0,0.01,0c9.52,0,17.24,7.72,17.24,17.24C244.9,261.98,244.9,261.98,244.9,261.98
											"/>
									</defs>
									<clipPath id="SVGID_16_">
										<use xlink:href="#SVGID_15_"  style="overflow:visible;"/>
									</clipPath>
									<g class="st22">
										
											<radialGradient id="SVGID_17_" cx="-743.5776" cy="-512.3074" r="0.1525" gradientTransform="matrix(109.04 0 0 109.04 81307.8906 56133.3164)" gradientUnits="userSpaceOnUse">
											<stop  offset="0" style="stop-color:#CB5114"/>
											<stop  offset="1" style="stop-color:#F4BC48"/>
										</radialGradient>
										<rect x="210.4" y="244.73" class="st23" width="34.51" height="34.51"/>
									</g>
								</g>
							</g>
						</g>
					</g>
					<polygon class="st24" points="224.72,257.81 215.17,257.81 227.67,261.87 					"/>
					<polygon class="st25" points="227.67,261.87 227.67,261.87 235.4,272.49 232.44,263.41 					"/>
					<polygon class="st25" points="219.95,272.49 227.67,266.88 227.67,261.87 					"/>
					<polygon class="st25" points="240.16,257.81 230.62,257.81 227.67,261.87 					"/>
					<polygon class="st24" points="227.67,266.88 235.4,272.49 227.67,261.87 					"/>
					<polygon class="st24" points="227.67,261.87 222.89,263.41 219.95,272.49 					"/>
					<polygon class="st25" points="224.72,257.81 227.67,261.87 227.67,248.73 					"/>
					<polygon class="st24" points="227.67,248.73 227.67,261.87 230.62,257.81 					"/>
					<polygon class="st25" points="227.67,261.87 215.17,257.81 222.89,263.41 					"/>
					<polygon class="st24" points="227.67,261.87 232.44,263.41 240.16,257.81 					"/>
					<g>
						<g>
							<defs>
								<rect id="SVGID_18_" x="212.42" y="246.37" width="4.05" height="4.05"/>
							</defs>
							<clipPath id="SVGID_19_">
								<use xlink:href="#SVGID_18_"  style="overflow:visible;"/>
							</clipPath>
							<g class="st26">
								<g>
									<defs>
										<path id="SVGID_20_" d="M216.5,248.4c0,1.12-0.91,2.03-2.03,2.03c-1.12,0-2.03-0.91-2.03-2.03c0-1.12,0.91-2.03,2.03-2.03
											S216.5,247.28,216.5,248.4L216.5,248.4"/>
									</defs>
									<clipPath id="SVGID_21_">
										<use xlink:href="#SVGID_20_"  style="overflow:visible;"/>
									</clipPath>
									<g class="st27">
										
											<radialGradient id="SVGID_22_" cx="-725.3699" cy="-531.7152" r="0.1525" gradientTransform="matrix(12.79 0 0 12.79 9491.918 7040.7285)" gradientUnits="userSpaceOnUse">
											<stop  offset="0" style="stop-color:#FFFFFF"/>
											<stop  offset="1" style="stop-color:#F4BC48"/>
										</radialGradient>
										<rect x="212.42" y="246.37" class="st28" width="4.05" height="4.05"/>
									</g>
								</g>
							</g>
						</g>
					</g>
					<path class="st29" d="M214.44,251.32L214.44,251.32c0-1.6-1.3-2.9-2.9-2.9l0,0l0,0c1.6-0.01,2.9-1.31,2.9-2.91
						c0,1.6,1.3,2.9,2.9,2.91l0,0C215.73,248.42,214.44,249.72,214.44,251.32L214.44,251.32"/>
					<g>
						<g>
							<defs>
								<rect id="SVGID_23_" x="231.39" y="281.33" width="2.77" height="2.77"/>
							</defs>
							<clipPath id="SVGID_24_">
								<use xlink:href="#SVGID_23_"  style="overflow:visible;"/>
							</clipPath>
							<g class="st30">
								<g>
									<defs>
										<path id="SVGID_25_" d="M234.15,282.72c-0.01,0.76-0.63,1.38-1.4,1.37s-1.38-0.63-1.37-1.4c0.01-0.76,0.62-1.37,1.38-1.37
											c0.76,0,1.38,0.62,1.38,1.38C234.15,282.72,234.15,282.72,234.15,282.72"/>
									</defs>
									<clipPath id="SVGID_26_">
										<use xlink:href="#SVGID_25_"  style="overflow:visible;"/>
									</clipPath>
									<g class="st31">
										
											<radialGradient id="SVGID_27_" cx="-727.3177" cy="-562.7714" r="0.1525" gradientTransform="matrix(8.75 0 0 8.75 6596.8999 5212.6094)" gradientUnits="userSpaceOnUse">
											<stop  offset="0" style="stop-color:#FFFFFF"/>
											<stop  offset="1" style="stop-color:#F4BC48"/>
										</radialGradient>
										<rect x="231.39" y="281.33" class="st32" width="2.77" height="2.77"/>
									</g>
								</g>
							</g>
						</g>
					</g>
					<path class="st29" d="M232.77,284.71L232.77,284.71c0.01-1.09-0.87-1.98-1.96-1.98c-0.01,0-0.02,0-0.02,0l0,0
						c0.08-1.1,1.04-1.92,2.14-1.84c0.98,0.08,1.76,0.85,1.84,1.84l0,0c-1.09-0.01-1.99,0.88-1.99,1.97
						C232.77,284.7,232.77,284.7,232.77,284.71"/>
					<g>
						<g>
							<defs>
								<rect id="SVGID_28_" x="239.39" y="243.47" width="5.67" height="5.67"/>
							</defs>
							<clipPath id="SVGID_29_">
								<use xlink:href="#SVGID_28_"  style="overflow:visible;"/>
							</clipPath>
							<g class="st33">
								<g>
									<defs>
										<path id="SVGID_30_" d="M245.05,246.3c0.01,1.57-1.26,2.84-2.83,2.85c-1.57,0.01-2.84-1.26-2.85-2.83
											c-0.01-1.57,1.26-2.84,2.83-2.85c0.01,0,0.02,0,0.02,0C243.79,243.47,245.05,244.74,245.05,246.3L245.05,246.3"/>
									</defs>
									<clipPath id="SVGID_31_">
										<use xlink:href="#SVGID_30_"  style="overflow:visible;"/>
									</clipPath>
									<g class="st34">
										
											<radialGradient id="SVGID_32_" cx="-739.3019" cy="-524.4828" r="0.1525" gradientTransform="matrix(17.9 0 0 17.9 13475.8477 9639.4775)" gradientUnits="userSpaceOnUse">
											<stop  offset="0" style="stop-color:#FFFFFF"/>
											<stop  offset="1" style="stop-color:#F4BC48"/>
										</radialGradient>
										<rect x="239.39" y="243.47" class="st35" width="5.67" height="5.67"/>
									</g>
								</g>
							</g>
						</g>
					</g>
					<path class="st29" d="M242.22,250.37L242.22,250.37c0-2.25-1.82-4.07-4.07-4.07l0,0l0,0c2.24,0.01,4.06-1.81,4.07-4.05
						c0,0,0-0.01,0-0.01c0,2.24,1.82,4.06,4.06,4.06l0,0c-2.24,0-4.06,1.82-4.06,4.06C242.22,250.36,242.22,250.37,242.22,250.37"/>
				</g>
				<g>
					<path class="st1" d="M232,227.56h167l-18.66,186c0,0-20.53,10-64.37,10s-66.64-9.3-66.64-9.3L232,227.56z"/>
					<rect x="230" y="222.56" class="st36" width="170" height="9"/>
					<path class="st36" d="M350.26,400.56h-69.51c-3.73,0-6.74-3.02-6.74-6.74V268.3c0-3.72,3.02-6.74,6.74-6.74h69.51
						c3.73,0,6.74,3.02,6.74,6.74v125.51C357,397.54,353.98,400.56,350.26,400.56z"/>
					<g>
						<path class="st37" d="M397.69,240.53c-0.67-0.26-30.95,3.03-82.19,3.03c-47.46,0-76.23-0.74-82.16-1.36
							c0.01,0.2-0.01,0.4-0.01,0.6c0.15,0.81,0.25,1.63,0.29,2.45c7.16,0.73,35.72,1.32,81.87,1.32c51.54,0,80.5-2,81.5-2
							L397.69,240.53z"/>
					</g>
					<g>
						<path class="st38" d="M313.69,290.43c0.47,0.24,0.84,0.62,1.24,0.95c1.27,1.09,2.4,2.31,3.37,3.69
							c0.06,0.09,0.11,0.19,0.16,0.29c-0.07,0.06-0.13,0.12-0.2,0.17c-1.72,1.27-3.17,2.78-4.31,4.59c-0.05,0.08-0.1,0.15-0.14,0.23
							c-0.03,0.06-0.04,0.13,0.03,0.18c0.08,0.06,0.15,0.02,0.2-0.04c0.04-0.05,0.08-0.11,0.12-0.16c1.89-2.53,4.25-4.48,7.11-5.8
							c2.9-1.34,5.91-1.82,9.06-1.04c1.69,0.42,3.22,1.16,4.43,2.44c2,2.11,2.52,4.63,1.95,7.41c-0.46,2.24-1.62,4.13-3.16,5.77
							c-1.26,1.34-2.8,2.21-4.67,2.36c-1.18,0.1-2.23-0.23-2.97-1.2c-0.68-0.88-0.89-1.91-0.86-3c0.03-0.93,0.31-1.82,0.55-2.72
							c0.32-1.22,0.55-2.44,0.23-3.7c-0.58-2.27-2-3.73-4.26-4.37c-0.16-0.05-0.42-0.17-0.47,0.03c-0.05,0.19,0.25,0.14,0.39,0.19
							c1.16,0.39,2.08,1.03,2.43,2.27c0.23,0.84,0.03,1.64-0.21,2.43c-0.89,2.86-2.46,5.28-4.59,7.36c-2.05,2-4.41,3.33-7.29,3.7
							c-1.38,0.18-2.73,0.54-3.86,1.4c-0.92,0.7-1.94,0.51-2.77-0.02c-0.14-0.09-0.16-0.16-0.05-0.3c0.35-0.43,0.69-0.88,1.02-1.33
							c2.26-3.11,4.06-6.46,4.93-10.24c0.66-2.86,0.68-5.71-0.3-8.52c-0.58-1.68-1.46-3.14-2.95-4.16
							c-1.83-1.24-3.86-1.42-5.97-1.05c-0.46,0.08-0.91,0.21-1.36,0.33c-0.12,0.03-0.23,0.07-0.29-0.06
							c-0.08-0.17,0.07-0.21,0.17-0.26c0.03-0.02,0.06-0.02,0.09-0.04c1.92-0.87,3.93-1.04,5.99-0.7c1.85,0.31,3.55,1.01,5.16,1.95
							c0.56,0.33,1.12,0.65,1.66,1.01C313.44,290.62,313.61,290.73,313.69,290.43z"/>
						<path class="st39" d="M313.69,290.43c-0.08,0.3-0.25,0.19-0.4,0.08c-0.54-0.37-1.1-0.69-1.66-1.01
							c-1.61-0.94-3.32-1.64-5.16-1.95c-2.06-0.35-4.07-0.17-5.99,0.7c-0.03,0.01-0.06,0.02-0.09,0.04c-0.1,0.06-0.25,0.1-0.17,0.26
							c0.06,0.13,0.17,0.09,0.29,0.06c0.45-0.12,0.9-0.25,1.36-0.33c2.11-0.37,4.14-0.2,5.97,1.05c1.49,1.02,2.37,2.48,2.95,4.16
							c0.97,2.81,0.96,5.66,0.3,8.52c-0.87,3.78-2.67,7.12-4.93,10.24c-0.33,0.45-0.67,0.89-1.02,1.33c-0.11,0.14-0.1,0.21,0.05,0.3
							c0.83,0.53,1.85,0.73,2.77,0.02c1.13-0.86,2.47-1.23,3.86-1.4c2.88-0.37,5.24-1.7,7.29-3.7c2.13-2.09,3.7-4.51,4.59-7.36
							c0.25-0.8,0.45-1.6,0.21-2.43c-0.35-1.25-1.27-1.89-2.43-2.27c-0.14-0.05-0.44,0-0.39-0.19c0.05-0.2,0.31-0.07,0.47-0.03
							c2.25,0.64,3.67,2.1,4.26,4.37c0.32,1.25,0.1,2.48-0.23,3.7c-0.24,0.89-0.52,1.78-0.55,2.72c-0.03,1.09,0.18,2.12,0.86,3
							c0.75,0.97,1.79,1.3,2.97,1.2c1.87-0.15,3.42-1.03,4.67-2.36c1.54-1.64,2.7-3.53,3.16-5.77c0.57-2.79,0.05-5.3-1.95-7.41
							c-1.21-1.28-2.74-2.01-4.43-2.44c-3.15-0.79-6.16-0.3-9.06,1.04c-2.86,1.32-5.23,3.27-7.11,5.8
							c-0.04,0.05-0.08,0.11-0.12,0.16c-0.05,0.07-0.12,0.11-0.2,0.04c-0.06-0.05-0.06-0.12-0.03-0.18
							c0.04-0.08,0.09-0.15,0.14-0.23c1.14-1.81,2.59-3.32,4.31-4.59c0.07-0.05,0.13-0.11,0.2-0.17c1.31-0.88,2.67-1.65,4.16-2.18
							c4.42-1.58,8.67-1.21,12.7,1.19c1.7,1.01,3.01,2.4,3.72,4.3c0.78,2.11,0.74,4.21-0.15,6.27c-1.41,3.24-3.76,5.59-6.98,7.02
							c-1.4,0.62-2.88,0.77-4.39,0.4c-2.4-0.59-3.93-2.97-3.49-5.41c0.19-1.07,0.59-2.08,0.88-3.12c0.3-1.06,0.42-2.12,0.1-3.2
							c-0.03-0.1-0.04-0.23-0.19-0.23c-0.14,0-0.15,0.11-0.15,0.21c-0.14,2.64-1.16,4.93-2.8,6.96c-1.91,2.37-4.22,4.23-7.15,5.21
							c-1.25,0.42-2.55,0.63-3.84,0.9c-0.62,0.13-1.24,0.29-1.82,0.55c-0.63,0.28-1.18,0.68-1.64,1.19
							c-0.32,0.36-0.45,0.39-0.9,0.18c-1.05-0.5-2.09-1.01-3.14-1.49c-0.28-0.13-0.24-0.21-0.05-0.39c2.61-2.62,4.52-5.68,5.68-9.2
							c0.92-2.81,1.24-5.68,0.71-8.62c-0.22-1.21-0.58-2.38-1.21-3.45c0.01-0.05-0.01-0.09-0.07-0.11c0,0,0,0.01,0,0.01
							c0-0.12-0.09-0.2-0.14-0.3c-1.49-2.41-3.83-3.19-6.49-2.75c-2.1,0.35-3.95,1.29-5.63,2.56c-0.17,0.13-0.37,0.23-0.49,0.45
							c0.16,0.03,0.28-0.04,0.4-0.08c0.85-0.31,1.69-0.64,2.54-0.93c1.77-0.6,3.57-1.05,5.47-0.97c1.12,0.05,2.18,0.31,3.12,0.97
							c0.11,0.07,0.24,0.12,0.28,0.27c-0.07,0.07-0.13,0.05-0.2,0.01c-1.44-0.86-3-0.92-4.6-0.66c-1.66,0.27-3.22,0.88-4.79,1.46
							c-0.81,0.3-1.63,0.53-2.5,0.58c-0.51,0.03-0.62-0.12-0.38-0.59c0.51-1.01,1.25-1.85,2.08-2.6c1.99-1.8,4.34-2.82,7-3.03
							c2.5-0.2,4.82,0.49,6.94,1.81c0.84,0.52,1.66,1.09,2.47,1.66C313.57,290.28,313.66,290.33,313.69,290.43z"/>
						<path class="st39" d="M311.43,338.26c-2.17,0-4.21-0.46-6.02-1.69c-2.08-1.4-3.24-3.4-3.75-5.81
							c-0.54-2.6-0.24-5.16,0.41-7.69c0.48-1.88,1.17-3.7,2-5.45c0.04-0.09,0.06-0.2,0.16-0.25c0.08-0.04,0.16-0.03,0.22,0.02
							c0.11,0.09,0.07,0.19,0.03,0.3c-0.26,0.73-0.54,1.46-0.78,2.2c-0.72,2.21-1.26,4.47-1.37,6.8c-0.09,1.91,0.08,3.8,0.88,5.57
							c1.23,2.72,3.4,4.21,6.28,4.7c3.01,0.51,5.87-0.12,8.62-1.3c3.84-1.65,6.98-4.24,9.62-7.46c0.69-0.84,1.32-1.71,1.92-2.62
							c0.06-0.09,0.09-0.28,0.26-0.17c0.14,0.09,0.01,0.21-0.04,0.29c-2.54,4.6-6.04,8.24-10.76,10.63
							C316.6,337.6,313.93,338.26,311.43,338.26z"/>
						<g>
							<path class="st40" d="M346.72,370.7c-0.22-0.09-0.45-0.07-0.64,0.06c-0.22,0.15-0.36,0.43-0.36,0.74c0,0.75,0,1.5,0,2.26
								l0,1.86c0,0.81,0,1.62-0.01,2.42c0,0.02,0,0.03,0,0.04c0.01,0,0.02,0,0.04,0c0.5-0.02,0.99-0.01,1.46,0c0-1.09,0-2.13,0-3.18
								c0-1.16,0-2.31,0-3.47C347.21,371.07,347.04,370.83,346.72,370.7z"/>
							<path class="st40" d="M314.24,370.65c-0.09,0-0.18,0-0.28,0c-0.15,0-0.29,0.01-0.44-0.01c0,0,0,0-0.01,0
								c0,0.01,0,0.02,0,0.03c0.01,0.91,0.01,1.82,0.01,2.73l0,1.8c0,0.73,0,1.45,0,2.18c0,0.1-0.01,0.21-0.02,0.33
								c-0.01,0.12-0.04,0.33,0,0.38c0.06,0.05,0.3,0.02,0.45,0.01c0.1-0.01,0.2-0.02,0.29-0.02c0.46,0,0.77-0.3,0.77-0.75
								c0.01-1.97,0.01-3.93,0-5.9C315.01,370.96,314.71,370.66,314.24,370.65z"/>
							<path class="st40" d="M294.35,383.19c0-3.9,0-7.8,0-11.7c0-0.26-0.09-0.49-0.25-0.64c-0.13-0.13-0.31-0.2-0.49-0.2
								c-0.01,0-0.01,0-0.02,0c-0.42,0.01-0.71,0.36-0.71,0.86l0,11.7c0,0.2,0.02,0.35,0.1,0.48c0.17,0.28,0.52,0.42,0.82,0.34
								C294.15,383.92,294.35,383.62,294.35,383.19z"/>
							<path class="st40" d="M322.62,370.65c0,0-0.01,0-0.01,0c-0.19,0-0.36,0.07-0.49,0.2c-0.15,0.15-0.24,0.38-0.24,0.63
								c0,3.92,0,7.84,0,11.77c0,0.47,0.3,0.8,0.72,0.8c0.2,0.01,0.38-0.06,0.5-0.19c0.15-0.15,0.23-0.37,0.23-0.62v-11.73
								C323.34,370.99,323.05,370.65,322.62,370.65z"/>
							<path class="st39" d="M308.66,376.48c0-1.69,0-3.39,0-5.08c0-1.14-0.52-1.97-1.53-2.47c-0.99-0.49-1.96-0.4-2.86,0.27
								c-0.33,0.24-0.55,0.08-0.67-0.01c-0.98-0.68-1.95-0.75-2.93-0.22c-0.96,0.51-1.44,1.31-1.44,2.39c0,3.19,0,6.38,0,9.56
								l0,4.03c0,0.36,0,0.73-0.01,1.09c0.25-0.01,0.49-0.01,0.73-0.01c0.23,0,0.45,0,0.68,0.02c0.05,0,0.08,0,0.1,0
								c0-0.01,0-0.05,0-0.11c-0.01-4.48-0.01-8.96-0.01-13.43l0-0.93c0-0.19,0-0.38,0.05-0.56c0.16-0.58,0.73-0.95,1.34-0.86
								c0.63,0.09,1.07,0.6,1.07,1.25l0,13.85c0,0.26,0,0.53-0.01,0.79c0.46-0.01,0.96-0.02,1.45,0.01c0.04,0,0.06,0,0.08,0
								c0-0.02,0-0.05,0-0.1c-0.01-3.96-0.01-7.92-0.01-11.88l0-2.56c0-0.08,0-0.16,0-0.24c0.04-0.51,0.38-0.93,0.87-1.07
								c0.49-0.15,0.93-0.02,1.29,0.37c0.26,0.29,0.3,0.64,0.3,0.95l0,5.78c0,2.89,0,5.78-0.01,8.68c0,0.03,0,0.05,0,0.07
								c0.01,0,0.02,0,0.04,0c0.45-0.02,0.93-0.02,1.43,0c0.02,0,0.04,0,0.05,0c0-0.01,0-0.03,0-0.06
								c-0.01-1.93-0.01-3.86-0.01-5.79L308.66,376.48z"/>
							<path class="st39" d="M321.54,355.39l1.69-10.09c0.19-1.17,0.39-2.35,0.59-3.52c0-0.03,0.01-0.05,0.01-0.06
								c-0.02,0-0.04,0-0.07,0c-0.64,0.02-1.29,0.01-1.89,0c-0.02,0-0.03,0-0.04,0c0,0.01,0,0.02-0.01,0.04
								c-0.08,0.56-0.18,1.13-0.27,1.69l-2.15,12.89l-0.45,0.07l-0.07-0.24l-1.77-10.6c-0.21-1.26-0.42-2.51-0.62-3.77
								c-0.01-0.04-0.01-0.07-0.02-0.08c0,0-0.02,0-0.04,0c-0.01,0-0.01,0-0.02,0c-0.65,0.02-1.31,0.01-1.94,0
								c0.37,2.22,0.73,4.38,1.1,6.54l1.81,10.85c0.24,1.46,0.49,2.91,0.72,4.37c0.01,0.04,0.01,0.06,0.02,0.08
								c0.01,0,0.01,0,0.03,0c0.01,0,0.02,0,0.03,0c0.67-0.02,1.32-0.01,1.99,0C320.63,360.83,321.09,358.11,321.54,355.39z"/>
							<path class="st39" d="M296.47,341.73l-0.34,0l1.06,6.38c0.85,5.14,1.71,10.29,2.56,15.44c0.7,0.02,1.37,0.01,2.05,0.03
								c0.01,0,0.02,0,0.03,0c0-0.01,0-0.02,0.01-0.04c0.23-1.43,0.47-2.86,0.71-4.28l1.28-7.64c0.55-3.29,1.1-6.59,1.65-9.88
								c-0.58,0.01-1.25,0.02-1.92-0.01c-0.04,0-0.07,0-0.08,0c0,0.01-0.01,0.03-0.02,0.09c-0.25,1.55-0.51,3.11-0.77,4.66
								l-1.81,10.91l-0.34-1.22c-0.02-0.08-0.04-0.15-0.05-0.21l-2.37-14.23C297.56,341.74,297.02,341.74,296.47,341.73z"/>
							<path class="st39" d="M327.33,350.49l0,13.03c0,0.02,0,0.04,0,0.05c0.86,0,1.7-0.01,2.54-0.01c1.11,0,2.2,0,3.3,0.01
								c-0.01-0.62-0.01-1.27,0.01-1.95c0-0.02,0-0.04,0-0.06c-0.01,0-0.03,0-0.05,0c-0.61,0.01-1.21,0.01-1.82,0.01
								c-0.49,0-0.98,0-1.47,0c-0.12,0-0.27-0.01-0.39-0.13s-0.13-0.27-0.13-0.39c0.01-1.47,0.01-2.95,0-4.42
								c0-0.12,0.01-0.28,0.13-0.39c0.11-0.11,0.27-0.13,0.39-0.12c0.33,0.01,0.67,0.01,1,0c0.32,0,0.64,0,0.96,0
								c-0.01-0.6-0.01-1.3,0.01-2c0,0-0.01,0-0.01,0c-0.28,0.01-0.56,0-0.84,0c-0.35,0-0.71,0-1.06,0.01
								c-0.14,0-0.3-0.01-0.43-0.13c-0.12-0.12-0.14-0.28-0.14-0.44c0.01-3.08,0.01-6.17,0-9.25c0-0.14,0.02-0.32,0.14-0.45
								c0.13-0.13,0.3-0.14,0.47-0.14c0.57,0.01,1.14,0.01,1.71,0.01c0.5,0,1.01,0,1.51,0c0.01,0,0.02,0,0.03,0
								c0-0.01,0-0.02,0-0.03c-0.01-0.62-0.02-1.28,0-1.93c0-0.03,0-0.05,0-0.06c-0.01,0-0.04,0-0.08,0c0,0-0.01,0-0.01,0
								c-1.89,0.01-3.78,0.01-5.67,0c-0.04,0-0.07,0-0.09,0c0,0.01,0,0.04,0,0.09C327.33,344.71,327.33,347.6,327.33,350.49z"/>
							<path class="st39" d="M349.21,386.06c0-0.02,0-0.04,0-0.06c-0.01-1.92-0.01-3.84-0.01-5.76l0-8.8c0-0.36-0.04-0.66-0.14-0.94
								c-0.39-1.14-1.43-1.85-2.62-1.85c-0.16,0-0.33,0.01-0.5,0.04c-1.24,0.2-2.21,1.38-2.21,2.67c0,2.4,0,4.8,0,7.21l0,4.2
								c0,1.07,0,2.14-0.01,3.21c0,0.03,0,0.05,0,0.07c0.01,0,0.04,0,0.07,0c0.47-0.02,0.92-0.02,1.36,0c0.03,0,0.05,0,0.07,0
								c0-0.01,0-0.04,0-0.07c-0.01-1.04-0.01-2.07-0.01-3.11c0-0.75,0-1.51,0-2.26c0-0.14,0.02-0.3,0.14-0.42
								c0.12-0.12,0.29-0.12,0.4-0.12c0.5,0.02,0.95,0.02,1.35,0c0.15-0.01,0.33,0,0.47,0.13c0.14,0.13,0.15,0.32,0.15,0.47
								c-0.01,0.97-0.01,1.93-0.01,2.9c0,0.81,0,1.62,0,2.44c0,0.02,0,0.03,0,0.05c0.01,0,0.02,0,0.02,0c0.49-0.02,0.97-0.02,1.43,0
								C349.18,386.06,349.19,386.06,349.21,386.06z M347.59,378.46c-0.11,0.11-0.26,0.12-0.36,0.12c-0.47-0.01-0.97-0.02-1.46,0
								c-0.02,0-0.03,0-0.05,0c-0.12,0-0.26-0.02-0.37-0.13c-0.12-0.12-0.14-0.29-0.14-0.42c0.01-0.81,0.01-1.61,0.01-2.42l0-1.86
								c0-0.75,0-1.51,0-2.26c0-0.48,0.22-0.91,0.58-1.15c0.32-0.22,0.72-0.26,1.1-0.11c0.52,0.21,0.81,0.63,0.81,1.2
								c0,1.16,0,2.31,0,3.47c0,1.07,0,2.13,0,3.2C347.71,378.2,347.7,378.35,347.59,378.46z"/>
							<path class="st39" d="M296.34,383.35c0.01-1.4,0-2.79,0-4.19l0-7.68c0-0.2-0.01-0.46-0.06-0.71
								c-0.28-1.22-1.42-2.13-2.6-2.13c-0.08,0-0.16,0-0.24,0.01c-1.51,0.16-2.56,1.28-2.57,2.72c0,3.04,0,6.08,0,9.12l0,2.85
								c0,0.3,0.04,0.58,0.13,0.84c0.41,1.23,1.71,2.05,2.98,1.85C295.36,385.81,296.33,384.71,296.34,383.35z M293.93,384.5
								c-0.1,0.03-0.21,0.04-0.32,0.04c-0.42,0-0.83-0.22-1.06-0.6c-0.15-0.24-0.17-0.5-0.17-0.74l0-11.7
								c0-0.78,0.49-1.34,1.19-1.36c0.3,0,0.63,0.11,0.87,0.34c0.26,0.25,0.4,0.61,0.4,1c0,3.9,0,7.8,0,11.7
								C294.85,383.84,294.5,384.34,293.93,384.5z"/>
							<path class="st39" d="M325.35,383.26c0.01-2.9,0-5.8,0-8.7l0-3.11c0-0.09,0-0.19-0.01-0.28c-0.1-1.41-1.3-2.53-2.7-2.53
								c-0.03,0-0.07,0-0.1,0c-1.49,0.06-2.66,1.25-2.66,2.71l0,6.98l0,5.06c0,0.78,0.3,1.43,0.88,1.94
								c0.92,0.79,1.92,0.95,2.97,0.47C324.8,385.31,325.35,384.46,325.35,383.26z M323.84,383.22c0,0.39-0.13,0.74-0.38,0.98
								c-0.22,0.22-0.52,0.34-0.85,0.34c0,0-0.01,0-0.01,0c-0.71-0.01-1.22-0.55-1.22-1.3c0-3.92,0-7.84,0-11.77
								c0-0.39,0.14-0.74,0.39-0.98c0.23-0.22,0.51-0.32,0.86-0.34c0.7,0.01,1.21,0.57,1.21,1.35V383.22z"/>
							<path class="st39" d="M286.44,371.07c0.04,0.17,0.04,0.35,0.04,0.5l0,0.81c0,1.89,0,3.77-0.01,5.66c0,0.03,0,0.05,0,0.07
								c0.01,0,0.03,0,0.05,0c0.48-0.02,0.95-0.02,1.4,0c0.03,0,0.05,0,0.06,0c0-0.01,0-0.04,0-0.08c-0.01-1.55-0.01-3.1-0.01-4.66
								l0-2.05c0-0.13-0.01-0.26-0.03-0.39c-0.25-1.33-1.38-2.29-2.63-2.29c-0.08,0-0.16,0-0.24,0.01
								c-1.51,0.15-2.57,1.29-2.57,2.79l0,4.11l0,1.76l0,1.83c0,1.41,0,2.83,0,4.24c0.01,1.45,1.22,2.65,2.69,2.67
								c1.44,0.02,2.73-1.15,2.77-2.56c0.02-0.59,0.01-1.19,0.01-1.78c0-0.38,0-0.75,0-1.13c-0.53,0.01-0.97,0.02-1.43-0.01
								c-0.04,0-0.07,0-0.09,0c0,0.01,0,0.04,0,0.09c0.02,0.95,0.01,1.89,0,2.69c-0.01,0.53-0.3,0.93-0.81,1.12
								c-0.48,0.17-0.92,0.06-1.3-0.32c-0.32-0.32-0.35-0.71-0.35-1.04l0-11.54c0-0.1,0-0.19,0.01-0.29
								c0.05-0.59,0.52-1.07,1.11-1.13C285.72,370.09,286.31,370.5,286.44,371.07z"/>
							<path class="st39" d="M314.7,368.69c-0.62-0.08-1.25-0.06-1.87-0.05c-0.41,0.01-0.81,0.01-1.22,0c-0.04,0-0.07,0-0.09,0
								c0,0.01,0,0.04,0,0.1c0.01,2.23,0.01,4.45,0.01,6.68l0,1.94l0,1.92c0,2.24,0,4.49,0,6.73c0,0.02,0,0.04,0,0.05
								c0.01,0,0.02,0,0.03,0c0.52-0.02,1.04-0.01,1.47,0c-0.01-0.22-0.01-0.4,0-0.58l0-1.4c0-1.15,0-2.3-0.01-3.44
								c0-0.14,0.01-0.31,0.14-0.43c0.13-0.12,0.3-0.13,0.42-0.12c0.25,0.02,0.5,0.01,0.75,0c1.52-0.06,2.66-1.24,2.67-2.68
								c0.01-2.03,0.01-4.07,0-6.1C317,370,315.99,368.85,314.7,368.69z M315.51,377.32c0,0.73-0.52,1.25-1.27,1.25
								c-0.08,0-0.17,0.01-0.25,0.02c-0.1,0.01-0.2,0.02-0.31,0.02c-0.19,0-0.37-0.03-0.51-0.14c-0.24-0.2-0.2-0.55-0.17-0.82
								c0.01-0.09,0.02-0.18,0.02-0.26c-0.01-0.73,0-1.45,0-2.18l0-1.8c0-0.91,0-1.82-0.01-2.72c0-0.13,0.01-0.3,0.14-0.42
								c0.13-0.12,0.29-0.12,0.41-0.11c0.13,0.01,0.26,0.01,0.39,0.01c0.1,0,0.2,0,0.3,0c0.74,0.02,1.25,0.55,1.25,1.27
								C315.51,373.39,315.51,375.35,315.51,377.32z"/>
							<path class="st39" d="M331.58,370.32c0.38,0.23,0.6,0.65,0.61,1.13c0.02,0.89,0.01,1.77,0,2.66c0,0,0,0.01,0,0.01
								c0.58-0.01,1.05-0.01,1.49,0c0,0,0,0,0.01,0c0-0.01,0-0.02,0-0.03c-0.01-0.84-0.01-1.68,0-2.52l0-0.27
								c0-0.23-0.03-0.46-0.1-0.69c-0.37-1.27-1.64-2.13-2.9-1.95c-1.45,0.2-2.47,1.31-2.47,2.71c0,1.34,0,2.69,0,4.03l0,1.83
								c0,1.62,1.08,2.76,2.7,2.84c0.78,0.04,1.26,0.51,1.28,1.27c0.02,0.63,0.02,1.28,0,1.92c-0.02,0.73-0.53,1.26-1.23,1.26
								c0,0,0,0,0,0c-0.69,0-1.22-0.54-1.24-1.28c-0.01-0.23-0.01-0.47,0-0.7c-0.51,0-1.01,0-1.5,0c0,0.18,0,0.34,0,0.5l0,0.25
								c0,0.74,0.29,1.43,0.8,1.95c0.52,0.51,1.2,0.8,1.94,0.8c0,0,0.01,0,0.01,0c1.52,0,2.72-1.21,2.72-2.74v-1.91
								c0-1.57-1.09-2.73-2.65-2.82c-0.88-0.05-1.31-0.51-1.32-1.4c0-0.65,0-1.3,0-1.95l0-3.75c0-0.56,0.25-0.98,0.72-1.2
								C330.81,370.09,331.23,370.1,331.58,370.32z"/>
							<path class="st39" d="M310.02,363.56c0.28,0,0.56,0,0.84,0.02c0.06,0,0.09,0,0.11,0c-0.01-0.01,0-0.05,0-0.13
								c-0.01-2.87-0.01-5.74-0.01-8.61v-4.33c0-2.9,0-5.8,0.01-8.69c0-0.04,0-0.07,0-0.08c-0.01,0-0.04,0-0.07,0
								c-0.56,0.02-1.16,0.02-1.89,0c-0.01,0-0.02,0-0.03,0c0,0.01,0,0.02,0,0.03c0.01,7.27,0.01,14.53,0,21.8c0,0.01,0,0.01,0,0.02
								c0.01,0,0.02,0,0.03,0l0.09,0C309.4,363.57,309.71,363.56,310.02,363.56z"/>
							<path class="st39" d="M339.53,370.14c0.25,0.02,0.51,0.01,0.77,0.01c0.18,0,0.37-0.01,0.55,0c-0.01-0.51-0.01-1,0-1.51
								c-1.82,0.01-3.64,0.01-5.46,0c0,0-0.01,0-0.01,0c0.01,0.56,0.01,1.05,0,1.51c0,0,0.01,0,0.01,0c0.21-0.01,0.41,0,0.62,0
								c0.25,0,0.5,0.01,0.75-0.01c0.16-0.01,0.33,0,0.47,0.13c0.13,0.13,0.15,0.32,0.15,0.46c-0.01,1.96-0.01,3.91-0.01,5.87
								l0,9.26c0,0.07,0,0.14,0,0.19c0.05,0,0.11,0,0.18,0h1.14c0.07,0,0.14,0,0.19,0c0-0.05,0-0.12,0-0.18l0-2.87
								c0-4.07,0-8.14-0.01-12.22c0-0.18,0.02-0.37,0.16-0.51C339.17,370.14,339.36,370.13,339.53,370.14z"/>
						</g>
						<path class="st39" d="M318.61,293.49c0.22-0.69,0.45-1.34,0.58-2.01c0.66-3.46,0.21-6.73-1.76-9.71
							c-0.8-1.2-1.83-2.15-3.13-2.81c-0.17-0.09-0.25-0.08-0.38,0.08c-0.28,0.36-0.76,0.45-1.14,0.23
							c-0.39-0.21-0.56-0.68-0.42-1.09c0.15-0.42,0.53-0.66,0.96-0.61c0.46,0.06,0.78,0.39,0.8,0.88c0.01,0.13,0.01,0.22,0.17,0.27
							c2.48,0.85,4.07,2.62,5.06,4.98c0.86,2.04,1.03,4.17,0.64,6.34c-0.01,0.07-0.01,0.15-0.03,0.31c0.45-0.69,0.89-1.27,1.4-1.8
							c2.09-2.15,4.59-3.41,7.63-3.42c1.26-0.01,2.46,0.28,3.56,0.9c0.18,0.1,0.28,0.07,0.42-0.06c0.32-0.28,0.82-0.26,1.14,0.01
							c0.33,0.28,0.42,0.78,0.21,1.15c-0.21,0.36-0.64,0.54-1.04,0.42c-0.44-0.13-0.73-0.52-0.64-0.96c0.05-0.26-0.06-0.33-0.26-0.4
							c-1.85-0.65-3.71-0.62-5.56-0.04c-3.68,1.16-6.31,3.55-7.99,7.01C318.78,293.27,318.77,293.4,318.61,293.49z"/>
						<path class="st38" d="M307.48,291.58c-0.04-0.15-0.17-0.2-0.28-0.27c-0.94-0.65-2-0.92-3.12-0.97
							c-1.89-0.08-3.69,0.37-5.47,0.97c-0.85,0.29-1.69,0.62-2.54,0.93c-0.12,0.04-0.24,0.11-0.4,0.08
							c0.12-0.22,0.32-0.32,0.49-0.45c1.68-1.28,3.53-2.22,5.63-2.56c2.66-0.44,5,0.34,6.49,2.75c0.06,0.09,0.14,0.18,0.14,0.3
							C308.08,292.14,307.8,291.83,307.48,291.58z"/>
						<path class="st38" d="M308.43,292.35c0.06,0.02,0.07,0.06,0.07,0.11C308.44,292.44,308.42,292.41,308.43,292.35z"/>
					</g>
				</g>
				<path class="st5" d="M388.38,436.99c0,0-19.51,9.68-34.88,6.71c-15.37-2.97-24.81-16.9-24.81-16.9s-6.74-3.75-5.94-8.6
					c0,0,20.23,5.93,24.27,3.78c4.05-2.16,13.75-12.26,13.75-12.26s-6.04-1.07-12.26-2.94c-3.61-1.08-2.64-6.42,1.12-6.23
					c4.69,0.24,9.14,0.24,10.88-0.41c2.23-0.84,5.69-2.03,9.55-2.51c6.19-0.76,17.56,0.05,20.75,5.42
					C396.22,412.14,400.74,428.4,388.38,436.99z"/>
				<path class="st12" d="M328.69,426.8l18.41,4.77c2.72,0.7,5.61,0.31,8.04-1.09l8.79-5.07"/>
				<path class="st12" d="M337.84,436.24c0,0,20.15,8.84,29.32-1.77"/>
				<line class="st12" x1="74.78" y1="891.91" x2="85.02" y2="884.55"/>
				<path class="st12" d="M130.07,914.83c0,0-7.82-17.53-15.37-25.62"/>
				<g>
					<path d="M244.06,95.3c-2.07,0-3.97-1.06-4.07-1.12c-0.18-0.1-0.24-0.33-0.14-0.51c0.1-0.18,0.33-0.24,0.51-0.14
						c0.03,0.02,2.91,1.62,5.19,0.77c1.06-0.39,1.84-1.27,2.33-2.61c1.9-5.26-6.41-19.48-6.5-19.63c-0.1-0.18-0.05-0.41,0.13-0.51
						c0.18-0.11,0.41-0.05,0.51,0.13c0.35,0.6,8.57,14.68,6.56,20.26c-0.56,1.56-1.5,2.59-2.77,3.06
						C245.23,95.22,244.64,95.3,244.06,95.3z"/>
				</g>
				<g>
					<path d="M235.55,104.98c-7.38,0-11.62-6.47-11.66-6.54c-0.11-0.17-0.06-0.41,0.11-0.52c0.17-0.11,0.41-0.06,0.52,0.11
						c0.04,0.07,4.44,6.77,12.01,6.16c0.2-0.01,0.39,0.14,0.4,0.34c0.02,0.21-0.14,0.39-0.34,0.4
						C236.24,104.97,235.89,104.98,235.55,104.98z"/>
				</g>
				<g>
					<path d="M222.69,66.59c-0.11,0-0.21-0.05-0.29-0.13c-0.13-0.16-0.11-0.4,0.05-0.53c0.05-0.04,4.92-4.05,9.37-0.68
						c0.17,0.13,0.2,0.36,0.07,0.53c-0.13,0.16-0.36,0.2-0.53,0.07c-3.97-3.01-8.39,0.62-8.43,0.66
						C222.86,66.56,222.78,66.59,222.69,66.59z"/>
				</g>
				<g>
					<path d="M245.63,64.83c-0.1,0-0.19-0.04-0.27-0.11c-0.14-0.15-0.14-0.38,0.01-0.53c0.03-0.03,3.44-3.3,7.25-0.41
						c0.17,0.13,0.2,0.36,0.07,0.53c-0.13,0.16-0.36,0.2-0.53,0.07c-3.29-2.49-6.15,0.23-6.27,0.35
						C245.82,64.79,245.72,64.83,245.63,64.83z"/>
				</g>
				<g>
					<path d="M245.63,77.92c-0.1,0-0.19-0.04-0.27-0.11c-0.14-0.15-0.14-0.38,0.01-0.53c0.03-0.03,3.45-3.3,7.25-0.41
						c0.17,0.13,0.2,0.36,0.07,0.53s-0.36,0.2-0.53,0.07c-3.28-2.49-6.15,0.23-6.27,0.35C245.82,77.89,245.72,77.92,245.63,77.92z"
						/>
				</g>
				<g>
					<path d="M225.77,79.42c-0.1,0-0.19-0.04-0.27-0.11c-0.14-0.15-0.14-0.38,0.01-0.53c0.03-0.03,3.44-3.3,7.25-0.41
						c0.17,0.13,0.2,0.36,0.07,0.53c-0.12,0.16-0.36,0.2-0.53,0.07c-3.29-2.49-6.15,0.23-6.27,0.35
						C225.96,79.39,225.86,79.42,225.77,79.42z"/>
				</g>
				<line class="st12" x1="262.9" y1="916.84" x2="372.35" y2="916.84"/>
				<line class="st12" x1="53.75" y1="919.68" x2="130.36" y2="919.68"/>
				<g>
					<g>
						<g>
							<g>
								<path class="st3" d="M202.73,86.16c0,0,18.49,1.17,28.26-20.56c9.77-21.74,7.58-24.48,7.58-24.48
									c9.23,1.46,13.93,9.28,16.76,19.37c0,0-0.74-20.43-7.72-28.79c-6.98-8.36-12.68-5.65-12.68-5.65l-38.33,15.34l-6.1,33.24
									L202.73,86.16z"/>
							</g>
						</g>
					</g>
				</g>
				<g>
					<path class="st5" d="M226.71,369.17c0,0-39.01-17.85-53.56-35.04c-14.55-17.19-19.43-47.61-19.43-47.61l-78.43,19.84
						c0,0,0,38.68,37.03,69.28c30.61,25.29,110.4,35.19,110.4,35.19L226.71,369.17z"/>
				</g>
				<g>
					<path class="st11" d="M161.88,314.71c-5.93-14.31-8.16-28.2-8.16-28.2l-78.43,19.84c0,0,0,14.98,8.92,33.67
						C106.16,322.18,161.88,314.71,161.88,314.71z"/>
				</g>
				<g>
					<path class="st5" d="M211.32,361.45c0,0,18.9-6.46,28.48-8.62c9.58-2.15,40.97,18.67,40.97,18.67s31.48,13.13,24.29,18.87
						c-7.18,5.74-25.31-4.78-28.9-3.34c-3.59,1.44-1.6,28.38-8.06,31.25c-10.38,4.61-42.42,9.95-56.79-0.82
						c-14.36-10.77-24.88-34.47-24.88-34.47L211.32,361.45z"/>
				</g>
				<g>
					<path d="M268.51,367.18c-0.07,0-0.14,0-0.21-0.01l-19.98-2.81c-0.81-0.11-1.38-0.87-1.27-1.68c0.11-0.82,0.88-1.39,1.68-1.27
						l19.98,2.81c0.81,0.11,1.38,0.87,1.27,1.68C269.87,366.65,269.24,367.18,268.51,367.18z"/>
				</g>
				<g>
					<path d="M277.21,389.26c-0.12,0-0.24-0.01-0.36-0.04l-8.74-2.18c-0.8-0.2-1.28-1.01-1.08-1.8c0.2-0.8,0.99-1.27,1.8-1.08
						l8.74,2.18c0.8,0.2,1.28,1.01,1.08,1.8C278.48,388.81,277.88,389.26,277.21,389.26z"/>
				</g>
				<g>
					<path class="st10" d="M77.44,234.46c-12.56,47.79-13.48,89.85-13.48,89.85l101.41-25.05c0,0,0-44.46-3.49-66.05
						c-3.32-20.56-8.38-52.97-13.48-65.78C148.4,167.44,90.01,186.68,77.44,234.46z"/>
				</g>
				<line class="st12" x1="165.37" y1="299.27" x2="161.88" y2="233.22"/>
				<line class="st12" x1="208.77" y1="611.38" x2="231.87" y2="518.48"/>
			</g>
		</g>
	</g>
</g>
</svg>
