<?xml version="1.0" encoding="UTF-8"?>
<svg id="Layer_2" xmlns="http://www.w3.org/2000/svg" version="1.1" viewBox="0 0 855.39 830.61">
  <!-- Generator: Adobe Illustrator 29.4.0, SVG Export Plug-In . SVG Version: 2.1.0 Build 152)  -->
  <defs>
    <style>
      .st0 {
        fill: #8db73a;
      }
    </style>
  </defs>
  <path class="st0" d="M534.55,372.2c-2.87,2.48-4.74,3.59-6,5.29-3.94,5.3-7.84,10.66-11.38,16.3-2.24,3.56-4.85,3.38-7.85,1.97-3.46-1.62-2.11-4.63-1.34-7.11.8-2.57,1.83-5.15,3.21-7.36,5.43-8.72,10.86-17.46,16.69-25.84,1.37-1.97,4.2-3.53,6.47-3.65,8.6-.46,14.91,4.75,21.59,10.75,5.98,5.38,7.8,13.2,12.6,19.13,4.31,5.33,3.91,12.79,1.22,19.17-.72,1.7-3.49,2.84-5.41,2.97-.75.05-1.74-3.42-2.66-5.26-.91-1.79-1.69-3.73-2.87-5.27-1.33-1.74-3.07-3.09-4.59-4.66-1.56-1.61-2.91-3.55-4.64-4.84-1.15-.86-2.98-1.41-4.18-.99-.71.25-1,2.61-1.13,4.07-.44,5.07-.21,10.31-1.24,15.19-.89,4.24-3.07,8.13-4.82,12.09-4.96,11.27-9.76,22.64-15.04,33.71-6.66,13.98-17.5,24.14-27.51,34.61-10.52,11.01-21.77,21.56-36.25,26.75-8.41,3.01-16.04,8.56-24.11,12.76-2.49,1.3-5.22,2.15-7.92,2.82-18.5,4.57-36.95,10.58-56.17,9.28-14.88-1.01-29.69-4.41-44.52-6.84-23.03-3.76-44.32-12.43-62.66-29.56-7.2-6.73-14.73-13.01-21.95-19.71-2.06-1.91-3.55-4.59-5.3-6.92.46-.6.93-1.21,1.39-1.81,2.98,2.45,5.97,4.87,8.92,7.36,8.69,7.3,17.06,15.17,26.12,21.84,23.42,17.26,50.33,20.8,76.84,25.13,10.62,1.73,21.67,2.5,32.2,1.09,12.58-1.68,24.83-6,37.15-9.5,6.71-1.91,13.37-4.2,19.86-6.85,12.69-5.19,24.33-12.75,35.55-20.93,5.29-3.85,10.17-8.83,14.22-14.26,8.81-11.82,17.31-23.97,25.27-36.54,4.86-7.68,9.28-15.98,12.46-24.7,3.71-10.15,5.97-21.03,8.59-31.68.47-1.92-.37-4.29-.77-7.99Z"/>
</svg>