<?xml version="1.0" encoding="UTF-8"?>
<svg id="Layer_1" data-name="Layer 1" xmlns="http://www.w3.org/2000/svg" viewBox="0 0 280 280">
  <defs>
    <style>
      .cls-1, .cls-2 {
        fill: #dfb149;
      }

      .cls-3 {
        fill: #53372b;
      }

      .cls-4 {
        fill: #bccdd3;
      }

      .cls-5 {
        fill: #2c3488;
      }

      .cls-6 {
        fill: #ffc900;
      }

      .cls-7 {
        fill: #3d66aa;
      }

      .cls-8 {
        fill: #fff;
      }

      .cls-2 {
        stroke: #f8f4e5;
        stroke-miterlimit: 10;
        stroke-width: 7px;
      }

      .cls-9 {
        fill: #809fb4;
      }

      .cls-10 {
        fill: #ae7400;
      }

      .cls-11 {
        fill: #23834c;
      }
    </style>
  </defs>
  <rect class="cls-1" x="58" y="94.09" width="160.69" height="181.05" rx="22.17" ry="22.17"/>
  <circle class="cls-2" cx="138.25" cy="94.18" r="64.26"/>
  <g>
    <path class="cls-8" d="M81.26,169.74v12.29h-2.36v-10.17h-1.17v-2.12h3.54Z"/>
    <path class="cls-8" d="M87,179.59c.3.3.45.67.45,1.09s-.15.79-.45,1.09c-.3.3-.67.46-1.1.46s-.8-.15-1.1-.46c-.3-.3-.45-.67-.45-1.09s.15-.79.45-1.09c.3-.3.66-.46,1.1-.46s.8.15,1.1.46Z"/>
    <path class="cls-8" d="M97.81,172.51c-.27-.24-.55-.43-.85-.57s-.6-.21-.91-.21c-.38,0-.68.11-.9.33-.22.22-.33.51-.33.88,0,.39.12.73.37,1,.24.28.63.61,1.15.99.34.25.62.47.85.66.23.19.44.42.65.68s.37.58.5.93.19.75.19,1.2c0,1.13-.31,2.05-.94,2.76-.62.71-1.49,1.07-2.6,1.07-.36,0-.73-.05-1.11-.16-.38-.11-.71-.26-.98-.46v-2.31c.31.22.62.38.9.49.29.11.6.16.94.16.4,0,.74-.12,1-.37.27-.24.4-.57.4-.97,0-.36-.1-.65-.29-.87-.19-.22-.48-.46-.87-.73-.09-.07-.18-.13-.28-.2-.77-.52-1.34-1.05-1.71-1.59-.37-.54-.55-1.22-.55-2.06,0-1.02.29-1.88.86-2.57.57-.69,1.35-1.04,2.35-1.04.75,0,1.47.2,2.15.6v2.36Z"/>
    <path class="cls-8" d="M103.27,181.1h-.03c-.16.34-.37.6-.62.8-.25.2-.55.29-.9.29-.43,0-.8-.15-1.1-.45s-.53-.68-.69-1.13c-.16-.46-.28-.92-.34-1.39s-.1-.91-.1-1.31c0-.43.03-.89.08-1.36.05-.47.16-.93.32-1.38.16-.44.38-.81.68-1.1.29-.29.67-.43,1.12-.43.37,0,.68.11.95.32s.46.5.6.86h.03v-1.01h2.3v8.23h-2.3v-.93ZM103.06,179.83c.11-.17.19-.39.24-.64.05-.25.09-.49.11-.72.02-.23.02-.43.02-.6s0-.37-.02-.59c-.02-.22-.05-.46-.11-.71-.05-.25-.14-.46-.25-.63-.11-.17-.26-.26-.45-.26-.17,0-.32.08-.43.25-.11.17-.2.38-.25.63-.05.25-.09.49-.11.71s-.02.43-.02.61c0,.23,0,.45.02.67s.05.45.11.68c.05.24.14.44.26.61.12.17.27.25.46.25.17,0,.31-.09.42-.26Z"/>
    <path class="cls-8" d="M109.71,171.52v2.28h.95v1.89h-.95v6.34h-2.3v-6.34h-.8v-1.89h.8v-2.28h2.3Z"/>
    <path class="cls-8" d="M117.41,178.53h-3.63v.11c.01.25.02.46.03.64.01.17.05.35.11.53.06.18.15.33.26.45.11.12.27.18.46.18.27,0,.46-.09.57-.26.11-.17.16-.4.16-.68h1.96c-.11.83-.37,1.48-.79,1.97s-1.02.73-1.82.73c-.55,0-1.03-.11-1.44-.34-.41-.23-.74-.54-.99-.93-.26-.39-.44-.83-.55-1.31s-.17-.99-.17-1.52.05-1.06.16-1.57c.11-.52.28-.99.52-1.43.24-.44.56-.79.97-1.05s.89-.39,1.46-.39c.77,0,1.43.32,1.98.96s.82,1.53.82,2.66c0,.03,0,.09-.02.16v.16l-.05.95ZM116.78,170.49l-2.1,2.25-1.12-.65,1.56-2.35,1.66.75ZM115.48,176.91c0-.16-.01-.33-.03-.5s-.06-.33-.12-.49c-.06-.16-.14-.29-.25-.38-.11-.1-.25-.15-.42-.15-.16,0-.3.05-.42.15-.11.1-.2.22-.26.37-.06.15-.1.31-.13.47s-.04.32-.04.47v.24h1.68v-.2Z"/>
    <path class="cls-8" d="M120.75,168.88v13.15h-2.3v-13.15h2.3Z"/>
    <path class="cls-8" d="M121.98,172.38c-.28-.29-.42-.64-.42-1.04s.14-.76.43-1.03c.29-.28.64-.42,1.07-.42.39,0,.72.15,1,.44.28.29.42.64.42,1.04s-.14.73-.43,1.02-.63.43-1.03.43-.74-.15-1.03-.44ZM124.16,173.8v8.23h-2.3v-8.23h2.3Z"/>
    <path class="cls-8" d="M128.3,171.52v2.28h.95v1.89h-.95v6.34h-2.3v-6.34h-.8v-1.89h.8v-2.28h2.3Z"/>
    <path class="cls-8" d="M136.01,178.53h-3.63v.11c.01.25.02.46.03.64.01.17.05.35.11.53.06.18.15.33.26.45.11.12.27.18.46.18.27,0,.46-.09.57-.26.11-.17.16-.4.16-.68h1.96c-.11.83-.37,1.48-.79,1.97s-1.02.73-1.82.73c-.55,0-1.03-.11-1.44-.34-.41-.23-.74-.54-.99-.93-.26-.39-.44-.83-.55-1.31s-.17-.99-.17-1.52.05-1.06.16-1.57c.11-.52.28-.99.52-1.43.24-.44.56-.79.97-1.05s.89-.39,1.46-.39c.77,0,1.43.32,1.98.96s.82,1.53.82,2.66c0,.03,0,.09-.02.16v.16l-.05.95ZM134.07,176.91c0-.16-.01-.33-.03-.5s-.06-.33-.12-.49c-.06-.16-.14-.29-.25-.38-.11-.1-.25-.15-.42-.15-.16,0-.3.05-.42.15-.11.1-.2.22-.26.37-.06.15-.1.31-.13.47s-.04.32-.04.47v.24h1.68v-.2Z"/>
    <path class="cls-8" d="M140.03,179.39l-2.46,4.99h-1.63l1.63-4.99h2.46Z"/>
    <path class="cls-8" d="M152.49,169.74l-4.2,10h3.86v2.28h-7.4l4.09-10h-3.57v-2.28h7.22Z"/>
    <path class="cls-8" d="M157.79,174c.41.24.74.56.97.96.23.4.4.86.51,1.36.1.5.15,1.04.15,1.61s-.05,1.1-.15,1.6c-.1.5-.27.95-.51,1.35s-.56.72-.97.96c-.41.24-.91.36-1.5.36s-1.09-.12-1.5-.36c-.41-.24-.74-.56-.97-.96s-.4-.85-.51-1.35c-.1-.5-.15-1.03-.15-1.6s.05-1.1.15-1.61c.1-.51.27-.96.51-1.36.24-.4.56-.72.97-.96s.9-.36,1.49-.36,1.09.12,1.5.36ZM155.84,175.96c-.11.17-.2.38-.25.63-.05.25-.09.49-.11.73s-.02.44-.02.61,0,.38.02.61c.02.23.05.48.11.73.05.25.14.46.25.63.11.17.26.25.45.25s.33-.08.45-.25c.11-.17.2-.38.25-.63.05-.25.09-.49.11-.73.02-.23.02-.44.02-.61s0-.38-.02-.61-.05-.48-.11-.73c-.05-.25-.14-.46-.25-.63s-.26-.25-.45-.25-.33.08-.45.25Z"/>
    <path class="cls-8" d="M162.71,175.07h.03c.16-.41.42-.75.76-1.03.34-.27.72-.41,1.15-.41.35,0,.63.08.84.23.21.15.37.36.46.64.1.27.16.58.2.92.03.34.05.77.05,1.3v5.31h-2.3v-4.73c.01-.16.02-.27.02-.33,0-.3-.04-.55-.12-.74-.08-.19-.24-.29-.46-.29s-.39.09-.48.28-.14.41-.14.67v5.13h-2.3v-8.23h2.3v1.27Z"/>
    <path class="cls-8" d="M170.95,181.1h-.03c-.16.34-.37.6-.62.8-.25.2-.55.29-.9.29-.43,0-.8-.15-1.1-.45s-.53-.68-.69-1.13c-.16-.46-.28-.92-.34-1.39s-.1-.91-.1-1.31c0-.43.03-.89.08-1.36.05-.47.16-.93.32-1.38.16-.44.38-.81.68-1.1.29-.29.67-.43,1.12-.43.37,0,.68.11.95.32.26.21.46.5.6.86h.03v-1.01h2.3v8.23h-2.3v-.93ZM170.74,179.83c.11-.17.19-.39.24-.64.05-.25.09-.49.11-.72.02-.23.02-.43.02-.6s0-.37-.02-.59c-.02-.22-.05-.46-.11-.71-.05-.25-.14-.46-.25-.63-.11-.17-.26-.26-.45-.26-.17,0-.32.08-.43.25-.11.17-.2.38-.25.63-.05.25-.09.49-.11.71s-.02.43-.02.61c0,.23,0,.45.02.67s.05.45.11.68c.05.24.14.44.26.61.12.17.27.25.46.25.17,0,.31-.09.42-.26Z"/>
    <path class="cls-8" d="M183.34,169.74l2.95,12.29h-2.59l-.46-2.07h-2.46l-.44,2.07h-2.41l2.85-12.29h2.56ZM182.26,174.76l-.28-1.86h-.03l-.26,1.86-.52,3.27h1.71l-.62-3.27Z"/>
    <path class="cls-8" d="M192.56,173.8l-2.54,6.32h2.26v1.91h-5.51l2.61-6.32h-2.35v-1.91h5.52Z"/>
    <path class="cls-8" d="M195.8,173.8v4.74c-.01.18-.02.31-.02.39,0,.33.04.59.12.8.08.21.24.31.48.31s.39-.11.46-.32c.07-.21.11-.51.11-.9l.02-5.02h2.28v5.25c0,.99-.24,1.76-.73,2.31-.48.55-1.22.83-2.21.83-.62,0-1.12-.1-1.51-.31-.39-.21-.67-.48-.86-.82-.18-.34-.31-.69-.37-1.08-.06-.38-.09-.8-.09-1.25v-4.94h2.3Z"/>
    <path class="cls-8" d="M202.69,168.88v13.15h-2.3v-13.15h2.3Z"/>
  </g>
  <path class="cls-3" d="M87.14,214.27s-.15-.08-.45-.24c-.3-.16-.52-.39-.68-.7s-.23-.68-.23-1.11v-1.51c0-.43.08-.8.23-1.11s.38-.54.68-.7c.3-.16.66-.24,1.07-.24.35,0,.65.07.93.22.27.15.5.36.67.65.18.28.3.63.37,1.03h-1.07c-.04-.18-.1-.34-.19-.46-.08-.13-.19-.23-.31-.29s-.25-.1-.4-.1c-.19,0-.36.04-.5.12s-.24.2-.31.35c-.07.15-.11.34-.11.55v1.51c0,.21.04.4.11.55.07.15.18.27.31.35s.3.12.5.12c.15,0,.29-.03.41-.1s.22-.16.31-.29c.08-.13.14-.28.18-.47h1.07c-.07.4-.19.74-.37,1.03s-.4.5-.67.65c-.27.15-.58.22-.92.22h-.63Z"/>
  <path class="cls-3" d="M90.55,208.72h1.04v1.04h-1.04v-1.04ZM90.55,210.29h1.04v3.92h-1.04v-3.92Z"/>
  <path class="cls-3" d="M92.55,210.29h1.11v3.92h-1.11v-3.92ZM94.58,211.27c-.07-.03-.16-.04-.25-.04-.21,0-.37.07-.49.2s-.17.32-.17.56l-.08-1.02c.11-.23.25-.42.42-.55.17-.13.36-.19.57-.19.16,0,.31.03.44.08.13.05.25.13.35.23l-.6.84c-.05-.05-.11-.09-.19-.11Z"/>
  <path class="cls-3" d="M96.88,214.27s-.13-.07-.4-.21c-.27-.14-.47-.35-.61-.62s-.21-.6-.21-.98v-.42c0-.38.07-.71.21-.97s.34-.47.61-.61c.27-.14.59-.21.96-.21.21,0,.42.02.61.07.19.05.36.12.51.21.15.09.28.21.38.34l-.67.65c-.1-.09-.21-.16-.34-.21-.13-.05-.26-.07-.4-.07-.26,0-.46.07-.61.21-.14.14-.22.34-.22.59v.42c0,.26.07.46.22.61.14.14.35.21.61.21.14,0,.28-.03.41-.08.13-.05.24-.13.33-.23l.67.69c-.1.13-.23.24-.38.33-.15.09-.32.16-.51.21-.19.05-.39.07-.61.07h-.56Z"/>
  <path class="cls-3" d="M100.58,212.68c0,.19.05.34.16.44.11.1.26.16.45.16s.34-.05.45-.16c.1-.11.16-.26.16-.46l.05.86c-.07.21-.19.39-.36.54-.17.15-.38.22-.62.22-.42,0-.75-.14-.98-.41-.23-.27-.34-.65-.34-1.15v-2.42h1.04v2.39ZM101.8,210.29h1.03v3.92h-1.03v-3.92Z"/>
  <path class="cls-3" d="M103.79,208.72h1.04v1.04h-1.04v-1.04ZM103.79,210.29h1.04v3.92h-1.04v-3.92Z"/>
  <path class="cls-3" d="M105.49,210.29h1.92v.88h-1.92v-.88ZM106.13,213.97c-.16-.18-.24-.43-.24-.78v-4.05h1.04v3.79c0,.1.02.17.06.22.04.05.09.08.17.08h.26v1h-.52c-.34,0-.59-.09-.75-.26Z"/>
  <path class="cls-3" d="M108.98,214.07c-.25-.13-.45-.33-.58-.58s-.2-.56-.2-.92v-.64c0-.36.07-.66.2-.91.13-.25.33-.45.58-.58.25-.13.56-.2.92-.2s.66.07.92.2c.25.13.45.33.58.58.13.25.2.56.2.91v.65c0,.36-.07.66-.2.92-.13.25-.33.45-.58.58-.25.13-.56.2-.92.2s-.66-.07-.92-.2ZM110.38,213.09c.12-.12.17-.29.17-.52v-.65c0-.22-.06-.39-.17-.51-.12-.12-.28-.18-.49-.18s-.37.06-.48.18c-.11.12-.17.29-.17.51v.65c0,.22.06.39.17.52s.27.18.48.18.37-.06.49-.18Z"/>
  <path class="cls-3" d="M115.73,214.27s-.13-.07-.4-.21c-.27-.14-.47-.34-.61-.6-.14-.26-.21-.58-.21-.95v-.44c0-.39.07-.72.2-.99s.33-.48.59-.63c.26-.14.57-.22.94-.22.34,0,.64.09.88.26s.43.42.56.75.19.72.19,1.18v.26h-2.68v-.7h1.74v-.09c-.04-.23-.11-.4-.23-.53s-.27-.19-.46-.19c-.25,0-.44.07-.58.22-.14.15-.21.36-.21.63v.5c0,.27.07.47.23.62.15.15.36.22.63.22.14,0,.28-.02.41-.07.14-.05.26-.12.37-.21l.68.6c-.2.19-.43.33-.69.43-.25.1-.51.15-.77.15h-.57Z"/>
  <path class="cls-3" d="M119.87,214.27s-.13-.07-.4-.21c-.27-.14-.47-.35-.61-.62s-.21-.6-.21-.98v-.42c0-.38.07-.71.21-.97s.34-.47.61-.61c.27-.14.59-.21.96-.21.21,0,.42.02.61.07.19.05.36.12.51.21.15.09.28.21.38.34l-.67.65c-.1-.09-.21-.16-.34-.21-.13-.05-.26-.07-.4-.07-.26,0-.46.07-.61.21-.14.14-.22.34-.22.59v.42c0,.26.07.46.22.61.14.14.35.21.61.21.14,0,.28-.03.41-.08.13-.05.24-.13.33-.23l.67.69c-.1.13-.23.24-.38.33-.15.09-.32.16-.51.21-.19.05-.39.07-.61.07h-.56Z"/>
  <path class="cls-3" d="M123.29,214.07c-.25-.13-.45-.33-.58-.58s-.2-.56-.2-.92v-.64c0-.36.07-.66.2-.91.13-.25.33-.45.58-.58.25-.13.56-.2.92-.2s.66.07.92.2c.25.13.45.33.58.58.13.25.2.56.2.91v.65c0,.36-.07.66-.2.92-.13.25-.33.45-.58.58-.25.13-.56.2-.92.2s-.66-.07-.92-.2ZM124.69,213.09c.12-.12.17-.29.17-.52v-.65c0-.22-.06-.39-.17-.51-.12-.12-.28-.18-.49-.18s-.37.06-.48.18c-.11.12-.17.29-.17.51v.65c0,.22.06.39.17.52s.27.18.48.18.37-.06.49-.18Z"/>
  <path class="cls-3" d="M126.84,210.29h1.04v3.92h-1.04v-3.92ZM129.11,211.84c0-.19-.05-.34-.16-.45-.11-.11-.27-.16-.47-.16s-.34.05-.44.16c-.1.11-.16.26-.16.45l-.08-.87c.12-.25.26-.43.43-.56.16-.12.37-.19.62-.19.41,0,.73.14.96.42.23.28.34.67.34,1.18v2.38h-1.04v-2.38Z"/>
  <path class="cls-3" d="M131.83,214.07c-.25-.13-.45-.33-.58-.58s-.2-.56-.2-.92v-.64c0-.36.07-.66.2-.91.13-.25.33-.45.58-.58.25-.13.56-.2.92-.2s.66.07.92.2c.25.13.45.33.58.58.13.25.2.56.2.91v.65c0,.36-.07.66-.2.92-.13.25-.33.45-.58.58-.25.13-.56.2-.92.2s-.66-.07-.92-.2ZM133.23,213.09c.12-.12.17-.29.17-.52v-.65c0-.22-.06-.39-.17-.51-.12-.12-.28-.18-.49-.18s-.37.06-.48.18c-.11.12-.17.29-.17.51v.65c0,.22.06.39.17.52s.27.18.48.18.37-.06.49-.18Z"/>
  <path class="cls-3" d="M135.39,210.29h1.04v3.92h-1.04v-3.92ZM137.67,211.95c0-.23-.06-.41-.17-.53s-.27-.19-.48-.19c-.19,0-.34.05-.44.16-.1.11-.16.26-.16.45l-.08-.87c.12-.24.26-.43.43-.55.17-.13.38-.19.61-.19.28,0,.51.07.71.2.2.13.35.33.45.59.1.26.15.57.15.93v2.27h-1.04v-2.26ZM139.96,211.95c0-.23-.05-.41-.16-.53-.11-.12-.27-.19-.47-.19s-.35.06-.46.18c-.11.12-.16.29-.16.51l-.19-.91c.12-.25.28-.44.48-.58.2-.13.42-.2.66-.2.28,0,.52.07.72.2s.35.33.46.59c.1.26.16.57.16.93v2.27h-1.04v-2.26Z"/>
  <path class="cls-3" d="M141.96,208.72h1.04v1.04h-1.04v-1.04ZM141.96,210.29h1.04v3.92h-1.04v-3.92Z"/>
  <path class="cls-3" d="M145.11,214.27s-.11-.02-.33-.06c-.22-.04-.43-.1-.62-.18s-.37-.18-.51-.29l.64-.8c.19.12.39.21.59.28.21.07.4.1.59.1.24,0,.43-.03.56-.08.13-.05.2-.13.2-.23,0-.09-.03-.16-.09-.2s-.13-.08-.22-.1c-.09-.02-.22-.04-.38-.05-.05,0-.09-.01-.14-.01-.05,0-.09-.01-.14-.01-.01,0-.02,0-.03,0s-.02,0-.03,0c-.29-.04-.53-.08-.7-.14-.18-.06-.33-.16-.45-.32s-.18-.39-.18-.69c0-.26.06-.49.19-.67.13-.19.31-.33.55-.43.24-.1.53-.15.87-.15.2,0,.4.02.6.06.2.04.39.1.57.17s.35.17.5.27l-.62.75c-.17-.1-.35-.17-.54-.22-.19-.05-.37-.08-.54-.08-.21,0-.37.02-.49.07-.12.05-.17.12-.17.2,0,.07.03.12.09.15.06.04.14.06.23.08.09.02.23.03.4.06.02,0,.05,0,.07,0s.05,0,.07,0c0,0,.02,0,.03,0s.02,0,.03,0c.3.04.55.08.74.14s.35.17.49.33c.13.17.2.41.2.73,0,.27-.07.51-.2.7-.13.19-.32.34-.57.44-.25.1-.56.15-.91.15h-.35Z"/>
  <path class="cls-3" d="M147.67,210.29h1.92v.88h-1.92v-.88ZM148.32,213.97c-.16-.18-.24-.43-.24-.78v-4.05h1.04v3.79c0,.1.02.17.06.22.04.05.09.08.17.08h.26v1h-.52c-.34,0-.59-.09-.75-.26Z"/>
  <path class="cls-3" d="M150.62,213.97c-.21-.2-.31-.5-.31-.91s.12-.68.35-.87c.23-.19.58-.29,1.05-.29h.98l.05.79h-1.03c-.16,0-.27.03-.35.09-.08.06-.12.16-.12.28s.05.22.15.29c.1.06.25.09.45.09.28,0,.48-.03.62-.09.13-.06.2-.16.2-.3l.08.57c-.01.14-.08.26-.19.36-.12.1-.26.17-.43.22-.17.05-.35.07-.55.07-.42,0-.74-.1-.94-.3ZM152.66,211.73c0-.18-.06-.32-.18-.42-.12-.1-.29-.15-.51-.15-.15,0-.29.02-.43.07-.14.05-.27.11-.38.2l-.64-.63c.16-.18.36-.32.62-.42s.54-.15.85-.15c.34,0,.64.06.88.17.24.11.43.28.55.5.13.22.19.48.19.79v2.52h-.94v-2.49Z"/>
  <path class="cls-3" d="M155.77,214.27s-.11-.02-.33-.06c-.22-.04-.43-.1-.62-.18s-.37-.18-.51-.29l.64-.8c.19.12.39.21.59.28.21.07.4.1.59.1.24,0,.43-.03.56-.08.13-.05.2-.13.2-.23,0-.09-.03-.16-.09-.2s-.13-.08-.22-.1c-.09-.02-.22-.04-.38-.05-.05,0-.09-.01-.14-.01-.05,0-.09-.01-.14-.01-.01,0-.02,0-.03,0s-.02,0-.03,0c-.29-.04-.53-.08-.7-.14-.18-.06-.33-.16-.45-.32s-.18-.39-.18-.69c0-.26.06-.49.19-.67.13-.19.31-.33.55-.43.24-.1.53-.15.87-.15.2,0,.4.02.6.06.2.04.39.1.57.17s.35.17.5.27l-.62.75c-.17-.1-.35-.17-.54-.22-.19-.05-.37-.08-.54-.08-.21,0-.37.02-.49.07-.12.05-.17.12-.17.2,0,.07.03.12.09.15.06.04.14.06.23.08.09.02.23.03.4.06.02,0,.05,0,.07,0s.05,0,.07,0c0,0,.02,0,.03,0s.02,0,.03,0c.3.04.55.08.74.14s.35.17.49.33c.13.17.2.41.2.73,0,.27-.07.51-.2.7-.13.19-.32.34-.57.44-.25.1-.56.15-.91.15h-.35Z"/>
  <path class="cls-3" d="M162.16,214.22h-1.04v-4.28l-.67.25v-1.1l.82-.37h.88v5.5Z"/>
  <path class="cls-3" d="M163.17,213.28l1.89-2.48c.09-.11.15-.22.2-.34.05-.12.07-.23.07-.33h0c0-.16-.05-.27-.14-.35-.1-.08-.23-.12-.41-.12s-.31.06-.42.17c-.11.11-.17.27-.19.48h0s-1.06,0-1.06,0h0c.02-.35.11-.64.25-.89.14-.25.33-.44.58-.56.24-.13.52-.19.84-.19.34,0,.64.06.88.17s.43.28.56.49.19.47.19.78h0c0,.25-.04.5-.13.75-.09.25-.21.47-.36.67l-1.35,1.71h1.88v1h-3.25v-.93Z"/>
  <path class="cls-3" d="M167.67,213.86c-.28-.28-.42-.66-.42-1.15v-2.5c0-.49.14-.88.42-1.15.28-.27.69-.41,1.22-.41s.95.14,1.23.41.42.66.42,1.15v2.5c0,.49-.14.88-.42,1.15-.28.27-.69.41-1.22.41s-.94-.14-1.22-.41ZM169.36,213.06c.1-.14.15-.35.15-.61v-1.97c0-.27-.05-.47-.15-.61-.1-.14-.25-.21-.46-.21s-.36.07-.46.21c-.1.14-.15.35-.15.61v1.97c0,.27.05.47.15.61.1.14.25.21.46.21s.36-.07.46-.21Z"/>
  <path class="cls-3" d="M174.07,213.76c-.24-.61-.35-1.27-.35-2s.12-1.39.35-2,.59-1.15,1.06-1.64l.61.74c-.34.39-.6.83-.77,1.3-.17.48-.26,1.01-.26,1.58s.09,1.11.26,1.59c.17.48.43.92.77,1.31l-.61.74c-.47-.49-.83-1.03-1.06-1.64Z"/>
  <path class="cls-3" d="M176.27,210.29h1.04v5.52h-1.04v-5.52ZM177.62,214.1c-.17-.12-.29-.28-.37-.5l.05-.9c0,.13.02.24.07.33s.11.16.2.21c.09.05.19.07.32.07.19,0,.34-.06.45-.19.11-.13.16-.31.16-.54v-.62c0-.24-.05-.43-.16-.56-.11-.13-.26-.2-.45-.2-.12,0-.23.02-.32.07-.09.05-.15.12-.2.21s-.07.21-.07.34l-.08-.87c.11-.23.25-.41.42-.53s.36-.19.57-.19c.28,0,.52.07.71.2.2.13.35.33.45.59.1.26.15.57.15.93v.63c0,.36-.05.66-.15.92-.1.25-.25.45-.45.58-.2.13-.44.2-.71.2-.23,0-.43-.06-.59-.18Z"/>
  <path class="cls-3" d="M180.6,213.97c-.21-.2-.31-.5-.31-.91s.12-.68.35-.87c.23-.19.58-.29,1.05-.29h.98l.05.79h-1.03c-.16,0-.27.03-.35.09-.08.06-.12.16-.12.28s.05.22.15.29c.1.06.25.09.45.09.28,0,.48-.03.62-.09.13-.06.2-.16.2-.3l.08.57c-.01.14-.08.26-.19.36-.12.1-.26.17-.43.22-.17.05-.35.07-.55.07-.42,0-.74-.1-.94-.3ZM182.64,211.73c0-.18-.06-.32-.18-.42-.12-.1-.29-.15-.51-.15-.15,0-.29.02-.43.07-.14.05-.27.11-.38.2l-.64-.63c.16-.18.36-.32.62-.42s.54-.15.85-.15c.34,0,.64.06.88.17.24.11.43.28.55.5.13.22.19.48.19.79v2.52h-.94v-2.49Z"/>
  <path class="cls-3" d="M185.75,214.27s-.11-.02-.33-.06c-.22-.04-.43-.1-.62-.18s-.37-.18-.51-.29l.64-.8c.19.12.39.21.59.28.21.07.4.1.59.1.24,0,.43-.03.56-.08.13-.05.2-.13.2-.23,0-.09-.03-.16-.09-.2s-.13-.08-.22-.1c-.09-.02-.22-.04-.38-.05-.05,0-.09-.01-.14-.01-.05,0-.09-.01-.14-.01-.01,0-.02,0-.03,0s-.02,0-.03,0c-.29-.04-.53-.08-.7-.14-.18-.06-.33-.16-.45-.32s-.18-.39-.18-.69c0-.26.06-.49.19-.67.13-.19.31-.33.55-.43.24-.1.53-.15.87-.15.2,0,.4.02.6.06.2.04.39.1.57.17s.35.17.5.27l-.62.75c-.17-.1-.35-.17-.54-.22-.19-.05-.37-.08-.54-.08-.21,0-.37.02-.49.07-.12.05-.17.12-.17.2,0,.07.03.12.09.15.06.04.14.06.23.08.09.02.23.03.4.06.02,0,.05,0,.07,0s.05,0,.07,0c0,0,.02,0,.03,0s.02,0,.03,0c.3.04.55.08.74.14s.35.17.49.33c.13.17.2.41.2.73,0,.27-.07.51-.2.7-.13.19-.32.34-.57.44-.25.1-.56.15-.91.15h-.35Z"/>
  <path class="cls-3" d="M188.74,213.97c-.21-.2-.31-.5-.31-.91s.12-.68.35-.87c.23-.19.58-.29,1.05-.29h.98l.05.79h-1.03c-.16,0-.27.03-.35.09-.08.06-.12.16-.12.28s.05.22.15.29c.1.06.25.09.45.09.28,0,.48-.03.62-.09.13-.06.2-.16.2-.3l.08.57c-.01.14-.08.26-.19.36-.12.1-.26.17-.43.22-.17.05-.35.07-.55.07-.42,0-.74-.1-.94-.3ZM190.78,211.73c0-.18-.06-.32-.18-.42-.12-.1-.29-.15-.51-.15-.15,0-.29.02-.43.07-.14.05-.27.11-.38.2l-.64-.63c.16-.18.36-.32.62-.42s.54-.15.85-.15c.34,0,.64.06.88.17.24.11.43.28.55.5.13.22.19.48.19.79v2.52h-.94v-2.49Z"/>
  <path class="cls-3" d="M192.74,210.29h1.04v3.92h-1.04v-3.92ZM195.01,211.84c0-.19-.05-.34-.16-.45-.11-.11-.27-.16-.47-.16s-.34.05-.44.16c-.1.11-.16.26-.16.45l-.08-.87c.12-.25.26-.43.43-.56.16-.12.37-.19.62-.19.41,0,.73.14.96.42.23.28.34.67.34,1.18v2.38h-1.04v-2.38Z"/>
  <path class="cls-3" d="M197.56,214.07c-.2-.13-.35-.33-.45-.58-.1-.25-.16-.56-.16-.92v-.63c0-.36.05-.67.16-.93.1-.26.25-.45.45-.59.2-.13.44-.2.71-.2.21,0,.4.06.57.19s.31.3.42.53l-.08.87c0-.13-.02-.25-.07-.34s-.11-.16-.2-.21c-.09-.05-.19-.07-.32-.07-.19,0-.34.07-.45.2-.11.13-.16.32-.16.56v.62c0,.23.05.42.16.54.11.13.26.19.45.19.12,0,.23-.02.32-.07.09-.05.15-.12.2-.21s.07-.2.07-.33l.05.9c-.08.21-.2.38-.37.5-.17.12-.36.18-.59.18-.28,0-.51-.07-.71-.2ZM199.18,208.72h1.04v5.5h-1.04v-5.5Z"/>
  <path class="cls-3" d="M201.9,214.07c-.25-.13-.45-.33-.58-.58s-.2-.56-.2-.92v-.64c0-.36.07-.66.2-.91.13-.25.33-.45.58-.58.25-.13.56-.2.92-.2s.66.07.92.2c.25.13.45.33.58.58.13.25.2.56.2.91v.65c0,.36-.07.66-.2.92-.13.25-.33.45-.58.58-.25.13-.56.2-.92.2s-.66-.07-.92-.2ZM203.3,213.09c.12-.12.17-.29.17-.52v-.65c0-.22-.06-.39-.17-.51-.12-.12-.28-.18-.49-.18s-.37.06-.48.18c-.11.12-.17.29-.17.51v.65c0,.22.06.39.17.52s.27.18.48.18.37-.06.49-.18Z"/>
  <path class="cls-3" d="M86.86,222.99c0,.1.03.17.08.22.05.05.13.08.23.08h.17v1h-.53c-.32,0-.56-.09-.73-.27s-.26-.44-.26-.77v-4.46h1.04v4.2Z"/>
  <path class="cls-3" d="M88.15,224.04c-.21-.2-.31-.5-.31-.91s.12-.68.35-.87c.23-.19.58-.29,1.05-.29h.98l.05.79h-1.03c-.16,0-.27.03-.35.09-.08.06-.12.16-.12.28s.05.22.15.29c.1.06.25.09.45.09.28,0,.48-.03.62-.09.13-.06.2-.16.2-.3l.08.57c-.01.14-.08.26-.19.36-.12.1-.26.17-.43.22-.17.05-.35.07-.55.07-.42,0-.74-.1-.94-.3ZM90.18,221.8c0-.18-.06-.32-.18-.42-.12-.1-.29-.15-.51-.15-.15,0-.29.02-.43.07-.14.05-.27.11-.38.2l-.64-.63c.16-.18.36-.32.62-.42s.54-.15.85-.15c.34,0,.64.06.88.17.24.11.43.28.55.5.13.22.19.48.19.79v2.52h-.94v-2.49Z"/>
  <path class="cls-3" d="M95.55,224.34s-.15-.08-.45-.24c-.3-.16-.52-.39-.68-.7s-.23-.68-.23-1.11v-1.51c0-.43.08-.8.23-1.11s.38-.54.68-.7c.3-.16.66-.24,1.07-.24.35,0,.65.07.93.22.27.15.5.36.67.65.18.28.3.63.37,1.03h-1.07c-.04-.18-.1-.34-.19-.46-.08-.13-.19-.23-.31-.29s-.25-.1-.4-.1c-.19,0-.36.04-.5.12s-.24.2-.31.35c-.07.15-.11.34-.11.55v1.51c0,.21.04.4.11.55.07.15.18.27.31.35s.3.12.5.12c.15,0,.29-.03.41-.1s.22-.16.31-.29c.08-.13.14-.28.18-.47h1.07c-.07.4-.19.74-.37,1.03-.18.28-.4.5-.67.65-.27.15-.58.22-.92.22h-.63Z"/>
  <path class="cls-3" d="M99.14,224.04c-.21-.2-.31-.5-.31-.91s.12-.68.35-.87c.23-.19.58-.29,1.05-.29h.98l.05.79h-1.03c-.16,0-.27.03-.35.09-.08.06-.12.16-.12.28s.05.22.15.29c.1.06.25.09.45.09.28,0,.48-.03.62-.09.13-.06.2-.16.2-.3l.08.57c-.01.14-.08.26-.19.36-.12.1-.26.17-.43.22-.17.05-.35.07-.55.07-.42,0-.74-.1-.94-.3ZM101.17,221.8c0-.18-.06-.32-.18-.42-.12-.1-.29-.15-.51-.15-.15,0-.29.02-.43.07-.14.05-.27.11-.38.2l-.64-.63c.16-.18.36-.32.62-.42s.54-.15.85-.15c.34,0,.64.06.88.17.24.11.43.28.55.5.13.22.19.48.19.79v2.52h-.94v-2.49Z"/>
  <path class="cls-3" d="M104.28,224.34s-.11-.02-.33-.06c-.22-.04-.43-.1-.62-.18s-.37-.18-.51-.29l.64-.8c.19.12.39.21.59.28.21.07.4.1.59.1.24,0,.43-.03.56-.08.13-.05.2-.13.2-.23,0-.09-.03-.16-.09-.2s-.13-.08-.22-.1c-.09-.02-.22-.04-.38-.05-.05,0-.09-.01-.14-.01-.05,0-.09-.01-.14-.01-.01,0-.02,0-.03,0s-.02,0-.03,0c-.29-.04-.53-.08-.7-.14-.18-.06-.33-.16-.45-.32s-.18-.39-.18-.69c0-.26.06-.49.19-.67.13-.19.31-.33.55-.43.24-.1.53-.15.87-.15.2,0,.4.02.6.06.2.04.39.1.57.17s.35.17.5.27l-.62.75c-.17-.1-.35-.17-.54-.22-.19-.05-.37-.08-.54-.08-.21,0-.37.02-.49.07-.12.05-.17.12-.17.2,0,.07.03.12.09.15.06.04.14.06.23.08.09.02.23.03.4.06h.07s.05.01.07.01c0,0,.02,0,.03,0s.02,0,.03,0c.3.04.55.08.74.14s.35.17.49.33c.13.17.2.41.2.73,0,.27-.07.51-.2.7-.13.19-.32.34-.57.44-.25.1-.56.15-.91.15h-.35Z"/>
  <path class="cls-3" d="M107.27,224.04c-.21-.2-.31-.5-.31-.91s.12-.68.35-.87c.23-.19.58-.29,1.05-.29h.98l.05.79h-1.03c-.16,0-.27.03-.35.09-.08.06-.12.16-.12.28s.05.22.15.29c.1.06.25.09.45.09.28,0,.48-.03.62-.09.13-.06.2-.16.2-.3l.08.57c-.01.14-.08.26-.19.36-.12.1-.26.17-.43.22-.17.05-.35.07-.55.07-.42,0-.74-.1-.94-.3ZM109.31,221.8c0-.18-.06-.32-.18-.42-.12-.1-.29-.15-.51-.15-.15,0-.29.02-.43.07-.14.05-.27.11-.38.2l-.64-.63c.16-.18.36-.32.62-.42s.54-.15.85-.15c.34,0,.64.06.88.17.24.11.43.28.55.5.13.22.19.48.19.79v2.52h-.94v-2.49Z"/>
  <path class="cls-3" d="M113.84,224.14c-.2-.13-.35-.33-.45-.58-.1-.25-.16-.56-.16-.92v-.63c0-.36.05-.67.16-.93.1-.26.25-.45.45-.59.2-.13.44-.2.71-.2.21,0,.4.06.57.19s.31.3.42.53l-.08.87c0-.13-.02-.25-.07-.34s-.11-.16-.2-.21c-.09-.05-.19-.07-.32-.07-.19,0-.34.07-.45.2-.11.13-.16.32-.16.56v.62c0,.23.05.42.16.54.11.13.26.19.45.19.12,0,.23-.02.32-.07.09-.05.15-.12.2-.21s.07-.2.07-.33l.05.9c-.08.21-.2.38-.37.5-.17.12-.36.18-.59.18-.28,0-.51-.07-.71-.2ZM115.47,218.79h1.04v5.5h-1.04v-5.5Z"/>
  <path class="cls-3" d="M118.64,224.34s-.13-.07-.4-.21c-.27-.14-.47-.34-.61-.6-.14-.26-.21-.58-.21-.95v-.44c0-.39.07-.72.2-.99s.33-.48.59-.63c.26-.14.57-.22.94-.22.34,0,.64.09.88.26s.43.42.56.75.19.72.19,1.18v.26h-2.68v-.7h1.74v-.09c-.04-.23-.11-.4-.23-.53s-.27-.19-.46-.19c-.25,0-.44.07-.58.22-.14.15-.21.36-.21.63v.5c0,.27.07.47.23.62.15.15.36.22.63.22.14,0,.28-.02.41-.07.14-.05.26-.12.37-.21l.68.6c-.2.19-.43.33-.69.43-.25.1-.51.15-.77.15h-.57Z"/>
  <path class="cls-3" d="M123.07,218.79h4.03v1h-4.03v-1ZM124.57,219.24h1.04v5.05h-1.04v-5.05Z"/>
  <path class="cls-3" d="M127.73,224.14c-.25-.13-.45-.33-.58-.58s-.2-.56-.2-.92v-.64c0-.36.07-.66.2-.91.13-.25.33-.45.58-.58.25-.13.56-.2.92-.2s.66.07.92.2c.25.13.45.33.58.58.13.25.2.56.2.91v.65c0,.36-.07.66-.2.92-.13.25-.33.45-.58.58-.25.13-.56.2-.92.2s-.66-.07-.92-.2ZM129.13,223.16c.12-.12.17-.29.17-.52v-.65c0-.22-.06-.39-.17-.51-.12-.12-.28-.18-.49-.18s-.37.06-.48.18c-.11.12-.17.29-.17.51v.65c0,.22.06.39.17.52s.27.18.48.18.37-.06.49-.18Z"/>
  <path class="cls-3" d="M131.28,220.36h1.04v3.92h-1.04v-3.92ZM133.28,219.74c-.08-.02-.16-.06-.24-.11l-.05-.03s-.02-.01-.03-.02c-.01,0-.02-.01-.03-.02-.08-.05-.15-.08-.21-.1-.06-.02-.12-.03-.17-.03-.08,0-.14.02-.17.05s-.05.09-.05.17v.12h-.79v-.13c0-.41.06-.71.19-.89s.33-.28.62-.28c.07,0,.14.01.22.04s.17.07.27.12l.04.02.08.05c.09.05.16.08.21.1s.1.03.13.03c.08,0,.14-.02.17-.06.04-.04.05-.1.05-.19v-.11h.79v.13c0,.42-.06.72-.19.91-.13.19-.33.28-.61.28-.07,0-.14-.01-.22-.03ZM133.55,221.91c0-.19-.05-.34-.16-.45-.11-.11-.27-.16-.47-.16s-.34.05-.44.16c-.1.11-.16.26-.16.45l-.08-.87c.12-.25.26-.43.43-.56.16-.12.37-.19.62-.19.41,0,.73.14.96.42.23.28.34.67.34,1.18v2.38h-1.04v-2.38Z"/>
  <path class="cls-3" d="M136.27,224.14c-.25-.13-.45-.33-.58-.58s-.2-.56-.2-.92v-.64c0-.36.07-.66.2-.91.13-.25.33-.45.58-.58.25-.13.56-.2.92-.2s.66.07.92.2c.25.13.45.33.58.58.13.25.2.56.2.91v.65c0,.36-.07.66-.2.92-.13.25-.33.45-.58.58-.25.13-.56.2-.92.2s-.66-.07-.92-.2ZM137.67,223.16c.12-.12.17-.29.17-.52v-.65c0-.22-.06-.39-.17-.51-.12-.12-.28-.18-.49-.18s-.37.06-.48.18c-.11.12-.17.29-.17.51v.65c0,.22.06.39.17.52s.27.18.48.18.37-.06.49-.18Z"/>
  <path class="cls-3" d="M139.51,223.25h1.04v1.35l-1.04.99v-2.34Z"/>
  <path class="cls-3" d="M144.63,224.34s-.13-.07-.4-.21c-.27-.14-.47-.34-.61-.6-.14-.26-.21-.58-.21-.95v-.44c0-.39.07-.72.2-.99s.33-.48.59-.63c.26-.14.57-.22.94-.22.34,0,.64.09.88.26s.43.42.56.75.19.72.19,1.18v.26h-2.68v-.7h1.74v-.09c-.04-.23-.11-.4-.23-.53s-.27-.19-.46-.19c-.25,0-.44.07-.58.22-.14.15-.21.36-.21.63v.5c0,.27.07.47.23.62.15.15.36.22.63.22.14,0,.28-.02.41-.07.14-.05.26-.12.37-.21l.68.6c-.2.19-.43.33-.69.43-.25.1-.51.15-.77.15h-.57Z"/>
  <path class="cls-3" d="M147.66,220.36h1.04v3.92h-1.04v-3.92ZM149.93,221.91c0-.19-.05-.34-.16-.45-.11-.11-.27-.16-.47-.16s-.34.05-.44.16c-.1.11-.16.26-.16.45l-.08-.87c.12-.25.26-.43.43-.56.16-.12.37-.19.62-.19.41,0,.73.14.96.42.23.28.34.67.34,1.18v2.38h-1.04v-2.38Z"/>
  <path class="cls-3" d="M153.76,220.36h2.11v.88h-2.11v-.88ZM154.18,219.83c0-.35.08-.61.24-.78.16-.17.41-.26.74-.26h.72v.92h-.44c-.07,0-.13.03-.17.08-.04.06-.06.13-.06.22v4.28h-1.04v-4.46Z"/>
  <path class="cls-3" d="M156.37,220.36h1.11v3.92h-1.11v-3.92ZM158.39,221.34c-.07-.03-.16-.04-.25-.04-.21,0-.37.07-.49.2s-.17.32-.17.56l-.08-1.02c.11-.23.25-.42.42-.55s.36-.19.57-.19c.16,0,.31.03.44.08.13.05.25.13.35.23l-.6.84c-.05-.05-.11-.09-.19-.11Z"/>
  <path class="cls-3" d="M160.71,224.34s-.13-.07-.4-.21c-.27-.14-.47-.34-.61-.6-.14-.26-.21-.58-.21-.95v-.44c0-.39.07-.72.2-.99s.33-.48.59-.63c.26-.14.57-.22.94-.22.34,0,.64.09.88.26s.43.42.56.75.19.72.19,1.18v.26h-2.68v-.7h1.74v-.09c-.04-.23-.11-.4-.23-.53-.11-.12-.27-.19-.46-.19-.25,0-.44.07-.58.22-.14.15-.21.36-.21.63v.5c0,.27.07.47.23.62.15.15.36.22.63.22.14,0,.28-.02.41-.07.14-.05.26-.12.37-.21l.68.6c-.2.19-.43.33-.69.43-.25.1-.51.15-.77.15h-.57Z"/>
  <path class="cls-3" d="M163.75,220.36h1.04v3.92h-1.04v-3.92ZM166.02,221.91c0-.19-.05-.34-.16-.45-.11-.11-.27-.16-.47-.16s-.34.05-.44.16c-.1.11-.16.26-.16.45l-.08-.87c.12-.25.26-.43.43-.56.16-.12.37-.19.62-.19.41,0,.73.14.96.42.23.28.34.67.34,1.18v2.38h-1.04v-2.38Z"/>
  <path class="cls-3" d="M167.77,220.36h1.92v.88h-1.92v-.88ZM168.41,224.04c-.16-.18-.24-.43-.24-.78v-4.05h1.04v3.79c0,.1.02.17.06.22.04.05.09.08.17.08h.26v1h-.52c-.34,0-.59-.09-.75-.26Z"/>
  <path class="cls-3" d="M171.71,224.34s-.13-.07-.4-.21c-.27-.14-.47-.34-.61-.6-.14-.26-.21-.58-.21-.95v-.44c0-.39.07-.72.2-.99s.33-.48.59-.63c.26-.14.57-.22.94-.22.34,0,.64.09.88.26s.43.42.56.75.19.72.19,1.18v.26h-2.68v-.7h1.74v-.09c-.04-.23-.11-.4-.23-.53s-.27-.19-.46-.19c-.25,0-.44.07-.58.22-.14.15-.21.36-.21.63v.5c0,.27.07.47.23.62.15.15.36.22.63.22.14,0,.28-.02.41-.07.14-.05.26-.12.37-.21l.68.6c-.2.19-.43.33-.69.43-.25.1-.51.15-.77.15h-.57Z"/>
  <path class="cls-3" d="M176.95,224.04c-.21-.2-.31-.5-.31-.91s.12-.68.35-.87c.23-.19.58-.29,1.05-.29h.98l.05.79h-1.03c-.16,0-.27.03-.35.09-.08.06-.12.16-.12.28s.05.22.15.29c.1.06.25.09.45.09.28,0,.48-.03.62-.09.13-.06.2-.16.2-.3l.08.57c-.01.14-.08.26-.19.36-.12.1-.26.17-.43.22-.17.05-.35.07-.55.07-.42,0-.74-.1-.94-.3ZM178.99,221.8c0-.18-.06-.32-.18-.42-.12-.1-.29-.15-.51-.15-.15,0-.29.02-.43.07-.14.05-.27.11-.38.2l-.64-.63c.16-.18.36-.32.62-.42s.54-.15.85-.15c.34,0,.64.06.88.17.24.11.43.28.55.5.13.22.19.48.19.79v2.52h-.94v-2.49Z"/>
  <path class="cls-3" d="M85.9,228.85h1.04v5.5h-1.04v-5.5ZM86.27,228.85h3.23v1h-3.23v-1ZM86.27,231.17h2.82v1h-2.82v-1Z"/>
  <path class="cls-3" d="M90.27,234.11c-.21-.2-.31-.5-.31-.91s.12-.68.35-.87c.23-.19.58-.29,1.05-.29h.98l.05.79h-1.03c-.16,0-.27.03-.35.09-.08.06-.12.16-.12.28s.05.22.15.29c.1.06.25.09.45.09.28,0,.48-.03.62-.09.13-.06.2-.16.2-.3l.08.57c-.01.14-.08.26-.19.36-.12.1-.26.17-.43.22-.17.05-.35.07-.55.07-.42,0-.74-.1-.94-.3ZM92.31,231.86c0-.18-.06-.32-.18-.42-.12-.1-.29-.15-.51-.15-.15,0-.29.02-.43.07-.14.05-.27.11-.38.2l-.64-.63c.16-.18.36-.32.62-.42s.54-.15.85-.15c.34,0,.64.06.88.17.24.11.43.28.55.5.13.22.19.48.19.79v2.52h-.94v-2.49Z"/>
  <path class="cls-3" d="M94.27,230.42h1.11v3.92h-1.11v-3.92ZM96.29,231.4c-.07-.03-.16-.04-.25-.04-.21,0-.37.07-.49.2s-.17.32-.17.56l-.08-1.02c.11-.23.25-.42.42-.55s.36-.19.57-.19c.16,0,.31.03.44.08.13.05.25.13.35.23l-.6.84c-.05-.05-.11-.09-.19-.11Z"/>
  <path class="cls-3" d="M97.57,230.42h1.04v3.92h-1.04v-3.92ZM99.86,232.08c0-.23-.06-.41-.17-.53s-.27-.19-.48-.19c-.19,0-.34.05-.44.16-.1.11-.16.26-.16.45l-.08-.87c.12-.24.26-.43.43-.55.17-.13.38-.19.61-.19.28,0,.51.07.71.2.2.13.35.33.45.59.1.26.15.57.15.93v2.27h-1.04v-2.26ZM102.15,232.08c0-.23-.05-.41-.16-.53-.11-.12-.27-.19-.47-.19s-.35.06-.46.18c-.11.12-.16.29-.16.51l-.19-.91c.12-.25.28-.44.48-.58.2-.13.42-.2.66-.2.28,0,.52.07.72.2s.35.33.46.59c.1.26.16.57.16.93v2.27h-1.04v-2.26Z"/>
  <path class="cls-3" d="M104.33,234.11c-.21-.2-.31-.5-.31-.91s.12-.68.35-.87c.23-.19.58-.29,1.05-.29h.98l.05.79h-1.03c-.16,0-.27.03-.35.09-.08.06-.12.16-.12.28s.05.22.15.29c.1.06.25.09.45.09.28,0,.48-.03.62-.09.13-.06.2-.16.2-.3l.08.57c-.01.14-.08.26-.19.36-.12.1-.26.17-.43.22-.17.05-.35.07-.55.07-.42,0-.74-.1-.94-.3ZM106.36,231.86c0-.18-.06-.32-.18-.42-.12-.1-.29-.15-.51-.15-.15,0-.29.02-.43.07-.14.05-.27.11-.38.2l-.64-.63c.16-.18.36-.32.62-.42s.54-.15.85-.15c.34,0,.64.06.88.17.24.11.43.28.55.5.13.22.19.48.19.79v2.52h-.94v-2.49Z"/>
  <path class="cls-3" d="M109.43,234.41s-.13-.07-.4-.21c-.27-.14-.47-.35-.61-.62s-.21-.6-.21-.98v-.42c0-.38.07-.71.21-.97s.34-.47.61-.61c.27-.14.59-.21.96-.21.21,0,.42.02.61.07.19.05.36.12.51.21.15.09.28.21.38.34l-.67.65c-.1-.09-.21-.16-.34-.21-.13-.05-.26-.07-.4-.07-.26,0-.46.07-.61.21-.14.14-.22.34-.22.59v.42c0,.26.07.46.22.61.14.14.35.21.61.21.14,0,.28-.03.41-.08.13-.05.24-.13.33-.23l.67.69c-.1.13-.23.24-.38.33-.15.09-.32.16-.51.21-.19.05-.39.07-.61.07h-.56Z"/>
  <path class="cls-3" d="M112.13,228.85h1.04v1.04h-1.04v-1.04ZM112.13,230.42h1.04v3.92h-1.04v-3.92Z"/>
  <path class="cls-3" d="M114.25,234.11c-.21-.2-.31-.5-.31-.91s.12-.68.35-.87c.23-.19.58-.29,1.05-.29h.98l.05.79h-1.03c-.16,0-.27.03-.35.09-.08.06-.12.16-.12.28s.05.22.15.29c.1.06.25.09.45.09.28,0,.48-.03.62-.09.13-.06.2-.16.2-.3l.08.57c-.01.14-.08.26-.19.36-.12.1-.26.17-.43.22-.17.05-.35.07-.55.07-.42,0-.74-.1-.94-.3ZM116.28,231.86c0-.18-.06-.32-.18-.42-.12-.1-.29-.15-.51-.15-.15,0-.29.02-.43.07-.14.05-.27.11-.38.2l-.64-.63c.16-.18.36-.32.62-.42s.54-.15.85-.15c.34,0,.64.06.88.17.24.11.43.28.55.5.13.22.19.48.19.79v2.52h-.94v-2.49Z"/>
  <path class="cls-3" d="M119.39,234.41s-.11-.02-.33-.06c-.22-.04-.43-.1-.62-.18s-.37-.18-.51-.29l.64-.8c.19.12.39.21.59.28.21.07.4.1.59.1.24,0,.43-.03.56-.08.13-.05.2-.13.2-.23,0-.09-.03-.16-.09-.2s-.13-.08-.22-.1c-.09-.02-.22-.04-.38-.05-.05,0-.09-.01-.14-.01-.05,0-.09-.01-.14-.01-.01,0-.02,0-.03,0s-.02,0-.03,0c-.29-.04-.53-.08-.7-.14-.18-.06-.33-.16-.45-.32s-.18-.39-.18-.69c0-.26.06-.49.19-.67.13-.19.31-.33.55-.43.24-.1.53-.15.87-.15.2,0,.4.02.6.06.2.04.39.1.57.17s.35.17.5.27l-.62.75c-.17-.1-.35-.17-.54-.22-.19-.05-.37-.08-.54-.08-.21,0-.37.02-.49.07-.12.05-.17.12-.17.2,0,.07.03.12.09.15.06.04.14.06.23.08.09.02.23.03.4.06h.07s.05.01.07.01c0,0,.02,0,.03,0s.02,0,.03,0c.3.04.55.08.74.14s.35.17.49.33c.13.17.2.41.2.73,0,.27-.07.51-.2.7-.13.19-.32.34-.57.44-.25.1-.56.15-.91.15h-.35Z"/>
  <path class="cls-3" d="M124.83,234.21c-.2-.13-.35-.33-.45-.58-.1-.25-.16-.56-.16-.92v-.63c0-.36.05-.67.16-.93.1-.26.25-.45.45-.59.2-.13.44-.2.71-.2.21,0,.4.06.57.19s.31.3.42.53l-.08.87c0-.13-.02-.25-.07-.34s-.11-.16-.2-.21c-.09-.05-.19-.07-.32-.07-.19,0-.34.07-.45.2-.11.13-.16.32-.16.56v.62c0,.23.05.42.16.54.11.13.26.19.45.19.12,0,.23-.02.32-.07.09-.05.15-.12.2-.21s.07-.2.07-.33l.05.9c-.08.21-.2.38-.37.5-.17.12-.36.18-.59.18-.28,0-.51-.07-.71-.2ZM126.46,228.85h1.04v5.5h-1.04v-5.5Z"/>
  <path class="cls-3" d="M129.63,234.41s-.13-.07-.4-.21c-.27-.14-.47-.34-.61-.6-.14-.26-.21-.58-.21-.95v-.44c0-.39.07-.72.2-.99s.33-.48.59-.63c.26-.14.57-.22.94-.22.34,0,.64.09.88.26s.43.42.56.75.19.72.19,1.18v.26h-2.68v-.7h1.74v-.09c-.04-.23-.11-.4-.23-.53s-.27-.19-.46-.19c-.25,0-.44.07-.58.22-.14.15-.21.36-.21.63v.5c0,.27.07.47.23.62.15.15.36.22.63.22.14,0,.28-.02.41-.07.14-.05.26-.12.37-.21l.68.6c-.2.19-.43.33-.69.43-.25.1-.51.15-.77.15h-.57Z"/>
  <path class="cls-3" d="M133.7,233.05c0,.1.03.17.08.22.05.05.13.08.23.08h.17v1h-.53c-.32,0-.56-.09-.73-.27s-.26-.44-.26-.77v-4.46h1.04v4.2Z"/>
  <path class="cls-3" d="M138.63,228.85h.66l2.1,5.5h-1.12l-1.32-3.75-1.32,3.75h-1.12l2.1-5.5ZM137.54,232.47h2.89v1h-2.89v-1Z"/>
  <path class="cls-3" d="M142,228.85h1.04v5.5h-1.04v-5.5ZM144.27,231.97c0-.19-.05-.34-.16-.45-.11-.11-.27-.16-.47-.16s-.34.05-.44.16c-.1.11-.16.26-.16.45l-.08-.87c.12-.25.26-.43.43-.56.16-.12.37-.19.62-.19.41,0,.73.14.96.42.23.28.34.67.34,1.18v2.38h-1.04v-2.38Z"/>
  <path class="cls-3" d="M146.99,234.21c-.25-.13-.45-.33-.58-.58s-.2-.56-.2-.92v-.64c0-.36.07-.66.2-.91.13-.25.33-.45.58-.58.25-.13.56-.2.92-.2s.66.07.92.2c.25.13.45.33.58.58.13.25.2.56.2.91v.65c0,.36-.07.66-.2.92-.13.25-.33.45-.58.58-.25.13-.56.2-.92.2s-.66-.07-.92-.2ZM148.39,233.22c.12-.12.17-.29.17-.52v-.65c0-.22-.06-.39-.17-.51-.12-.12-.28-.18-.49-.18s-.37.06-.48.18c-.11.12-.17.29-.17.51v.65c0,.22.06.39.17.52s.27.18.48.18.37-.06.49-.18Z"/>
  <path class="cls-3" d="M150.54,230.42h1.11v3.92h-1.11v-3.92ZM152.57,231.4c-.07-.03-.16-.04-.25-.04-.21,0-.37.07-.49.2s-.17.32-.17.56l-.08-1.02c.11-.23.25-.42.42-.55s.36-.19.57-.19c.16,0,.31.03.44.08.13.05.25.13.35.23l-.6.84c-.05-.05-.11-.09-.19-.11Z"/>
  <path class="cls-3" d="M153.85,230.42h1.11v3.92h-1.11v-3.92ZM155.87,231.4c-.07-.03-.16-.04-.25-.04-.21,0-.37.07-.49.2s-.17.32-.17.56l-.08-1.02c.11-.23.25-.42.42-.55s.36-.19.57-.19c.16,0,.31.03.44.08.13.05.25.13.35.23l-.6.84c-.05-.05-.11-.09-.19-.11Z"/>
  <path class="cls-3" d="M157.74,234.21c-.25-.13-.45-.33-.58-.58s-.2-.56-.2-.92v-.64c0-.36.07-.66.2-.91.13-.25.33-.45.58-.58.25-.13.56-.2.92-.2s.66.07.92.2c.25.13.45.33.58.58.13.25.2.56.2.91v.65c0,.36-.07.66-.2.92-.13.25-.33.45-.58.58-.25.13-.56.2-.92.2s-.66-.07-.92-.2ZM159.14,233.22c.12-.12.17-.29.17-.52v-.65c0-.22-.06-.39-.17-.51-.12-.12-.28-.18-.49-.18s-.37.06-.48.18c-.11.12-.17.29-.17.51v.65c0,.22.06.39.17.52s.27.18.48.18.37-.06.49-.18Z"/>
  <path class="cls-3" d="M160.77,234.79c.34-.39.6-.83.77-1.31.17-.48.26-1.01.26-1.59s-.09-1.11-.26-1.58c-.17-.48-.43-.91-.77-1.3l.61-.74c.47.49.83,1.03,1.06,1.64s.35,1.27.35,2-.12,1.39-.35,2c-.24.6-.59,1.15-1.06,1.64l-.61-.74Z"/>
  <path class="cls-3" d="M163.75,233.31h1.04v1.04h-1.04v-1.04Z"/>
  <path class="cls-11" d="M77.71,206.96c2.32-.14,4.32,2.08,3.9,4.38-.59,2.54-2.2,4.72-3.73,6.79-1.56-2.13-3.27-4.38-3.76-7.02-.25-2.1,1.49-4.08,3.6-4.15ZM77.92,208.88c-2.45,0-2.51,3.62-.08,3.71,2.44,0,2.51-3.62.08-3.71Z"/>
  <path class="cls-11" d="M81.03,191.76v2.8h1.43v-2.8h1.42v7.17h-1.42v-3.03h-1.43v3.03h-1.42v-7.17h1.42Z"/>
  <path class="cls-11" d="M87.33,194.24c.24.14.43.33.57.56.14.23.23.5.29.79.06.29.09.61.09.94s-.03.64-.09.93c-.06.29-.16.55-.29.79-.14.23-.32.42-.57.56-.24.14-.53.21-.87.21s-.63-.07-.87-.21c-.24-.14-.43-.33-.57-.56-.14-.23-.23-.5-.29-.79s-.09-.6-.09-.93.03-.64.09-.94c.06-.29.16-.56.3-.79s.33-.42.57-.56c.24-.14.53-.21.87-.21s.63.07.87.21ZM86.19,195.39c-.07.1-.12.22-.15.37-.03.15-.05.29-.06.42,0,.14-.01.26-.01.36s0,.22.01.36c0,.14.03.28.06.42.03.15.08.27.15.37.07.1.15.15.26.15s.19-.05.26-.15c.07-.1.12-.22.15-.37.03-.15.05-.29.06-.42,0-.14.01-.25.01-.36s0-.22-.01-.36c0-.14-.03-.28-.06-.42s-.08-.27-.15-.37c-.07-.1-.15-.15-.26-.15s-.19.05-.26.15Z"/>
  <path class="cls-11" d="M90.2,194.13v.58h.02c.13-.22.29-.4.46-.53.17-.13.38-.21.63-.23v1.3c-.09-.01-.16-.02-.21-.02-.22,0-.39.03-.51.1-.12.07-.21.16-.27.27-.06.11-.09.24-.1.38-.01.14-.02.32-.02.56v2.4h-1.34v-4.8h1.34Z"/>
  <path class="cls-11" d="M93.97,198.39h-.02c-.1.2-.22.35-.36.47-.15.11-.32.17-.52.17-.25,0-.47-.09-.64-.26s-.31-.39-.4-.66c-.1-.27-.16-.54-.2-.81-.04-.28-.06-.53-.06-.77,0-.25.02-.52.05-.79.03-.28.09-.54.19-.8.09-.26.22-.47.39-.64.17-.17.39-.25.66-.25.22,0,.4.06.55.19.15.12.27.29.35.5h.02v-.59h1.34v4.8h-1.34v-.54ZM93.85,197.64c.06-.1.11-.22.14-.37.03-.15.05-.29.06-.42,0-.13.01-.25.01-.35s0-.22-.01-.35c0-.13-.03-.27-.06-.41-.03-.15-.08-.27-.15-.37s-.15-.15-.26-.15c-.1,0-.19.05-.25.15-.07.1-.12.22-.15.37-.03.15-.05.28-.06.41,0,.13-.01.25-.01.36,0,.13,0,.26.01.39,0,.13.03.26.06.4.03.14.08.26.15.36.07.1.16.15.27.15.1,0,.18-.05.25-.15Z"/>
  <path class="cls-11" d="M97.31,194.13v.58h.02c.13-.22.29-.4.46-.53.17-.13.38-.21.63-.23v1.3c-.09-.01-.16-.02-.21-.02-.22,0-.39.03-.51.1-.12.07-.21.16-.27.27-.06.11-.09.24-.1.38-.01.14-.02.32-.02.56v2.4h-1.34v-4.8h1.34Z"/>
  <path class="cls-11" d="M99.02,193.3c-.16-.17-.25-.37-.25-.61s.08-.44.25-.6c.17-.16.38-.24.62-.24.23,0,.42.09.58.26s.24.37.24.61-.08.43-.25.59c-.17.17-.37.25-.6.25s-.43-.09-.6-.26ZM100.29,194.13v4.8h-1.34v-4.8h1.34Z"/>
  <path class="cls-11" d="M103.56,194.24c.24.14.43.33.57.56.14.23.23.5.29.79.06.29.09.61.09.94s-.03.64-.09.93c-.06.29-.16.55-.29.79-.14.23-.32.42-.57.56-.24.14-.53.21-.87.21s-.63-.07-.87-.21c-.24-.14-.43-.33-.57-.56-.14-.23-.23-.5-.29-.79s-.09-.6-.09-.93.03-.64.09-.94c.06-.29.16-.56.3-.79s.33-.42.57-.56c.24-.14.53-.21.87-.21s.63.07.87.21ZM102.43,195.39c-.07.1-.12.22-.15.37-.03.15-.05.29-.06.42,0,.14-.01.26-.01.36s0,.22.01.36c0,.14.03.28.06.42.03.15.08.27.15.37.07.1.15.15.26.15s.19-.05.26-.15c.07-.1.12-.22.15-.37.03-.15.05-.29.06-.42,0-.14.01-.25.01-.36s0-.22-.01-.36c0-.14-.03-.28-.06-.42s-.08-.27-.15-.37c-.07-.1-.15-.15-.26-.15s-.19.05-.26.15Z"/>
  <path class="cls-11" d="M106.56,194.3c.17.18.26.39.26.64s-.09.46-.26.64-.39.27-.64.27-.47-.09-.64-.27-.26-.39-.26-.64.09-.46.26-.64.39-.27.64-.27.47.09.64.27ZM106.56,197.5c.17.18.26.39.26.64s-.09.46-.26.64c-.17.18-.39.27-.64.27s-.47-.09-.64-.27c-.17-.18-.26-.39-.26-.64s.09-.46.26-.64.39-.27.64-.27.47.09.64.27Z"/>
  <path class="cls-11" d="M111.1,194.9h.02c.13-.26.29-.47.48-.63.2-.16.43-.24.69-.24.23,0,.42.08.56.23s.23.35.27.58h.02c.12-.23.28-.43.48-.58s.42-.23.67-.23c.2,0,.36.05.48.15.12.1.21.23.26.38s.09.32.1.48c.01.16.02.35.02.57v3.32h-1.34v-2.6c0-.32-.02-.56-.06-.72s-.13-.23-.27-.23-.23.05-.29.16-.08.23-.08.38v3.01h-1.34v-2.78c0-.09,0-.14,0-.15,0-.17-.02-.31-.07-.43-.04-.11-.13-.17-.26-.17-.15,0-.25.05-.3.16s-.08.24-.08.39v2.98h-1.34v-4.8h1.34v.77Z"/>
  <path class="cls-11" d="M117.94,198.39h-.02c-.1.2-.22.35-.36.47-.15.11-.32.17-.52.17-.25,0-.47-.09-.64-.26s-.31-.39-.4-.66c-.1-.27-.16-.54-.2-.81-.04-.28-.06-.53-.06-.77,0-.25.02-.52.05-.79.03-.28.09-.54.19-.8.09-.26.22-.47.39-.64.17-.17.39-.25.66-.25.22,0,.4.06.55.19.15.12.27.29.35.5h.02v-.59h1.34v4.8h-1.34v-.54ZM117.82,197.64c.06-.1.11-.22.14-.37.03-.15.05-.29.06-.42,0-.13.01-.25.01-.35s0-.22-.01-.35c0-.13-.03-.27-.06-.41-.03-.15-.08-.27-.15-.37s-.15-.15-.26-.15c-.1,0-.19.05-.25.15-.07.1-.12.22-.15.37-.03.15-.05.28-.06.41,0,.13-.01.25-.01.36,0,.13,0,.26.01.39,0,.13.03.26.06.4.03.14.08.26.15.36.07.1.16.15.27.15.1,0,.18-.05.25-.15Z"/>
  <path class="cls-11" d="M121.28,194.13v.58h.02c.13-.22.29-.4.46-.53.17-.13.38-.21.63-.23v1.3c-.09-.01-.16-.02-.21-.02-.22,0-.39.03-.51.1-.12.07-.21.16-.27.27-.06.11-.09.24-.1.38-.01.14-.02.32-.02.56v2.4h-1.34v-4.8h1.34Z"/>
  <path class="cls-11" d="M124.69,192.8v1.33h.55v1.1h-.55v3.7h-1.34v-3.7h-.47v-1.1h.47v-1.33h1.34Z"/>
  <path class="cls-11" d="M129.19,196.88h-2.12v.07c0,.15.01.27.02.37,0,.1.03.2.06.31.03.1.09.19.15.26s.16.1.27.1c.16,0,.27-.05.33-.15.06-.1.1-.23.1-.4h1.14c-.06.48-.22.87-.46,1.15-.24.29-.6.43-1.06.43-.32,0-.6-.07-.84-.2-.24-.13-.43-.31-.58-.54-.15-.23-.26-.48-.32-.77-.07-.28-.1-.58-.1-.89s.03-.62.1-.92c.06-.3.16-.58.3-.84s.33-.46.57-.61c.24-.15.52-.23.85-.23.45,0,.83.19,1.15.56s.48.89.48,1.55c0,.02,0,.05,0,.1v.09l-.03.55ZM128.05,195.94c0-.1,0-.19-.02-.29-.01-.1-.04-.19-.07-.29-.04-.09-.08-.17-.15-.22-.06-.06-.15-.09-.25-.09-.1,0-.18.03-.24.09s-.12.13-.15.22c-.03.09-.06.18-.08.28s-.02.19-.02.28v.14h.98v-.11Z"/>
  <path class="cls-11" d="M132.21,195.42c-.11-.1-.22-.18-.31-.23-.1-.05-.21-.08-.33-.08-.24,0-.36.12-.36.35,0,.1.05.18.13.24.08.07.21.14.39.23.15.08.28.15.38.21.1.07.21.15.3.26.1.1.18.23.24.39.06.16.09.34.09.55,0,.49-.14.89-.41,1.21-.27.32-.65.48-1.13.48-.25,0-.51-.05-.76-.15-.25-.1-.48-.23-.68-.4l.59-.95c.12.1.23.18.33.23.1.05.21.08.33.08.11,0,.2-.04.28-.11.08-.07.11-.17.11-.29s-.04-.21-.12-.28c-.08-.07-.22-.16-.4-.26-.16-.09-.29-.17-.39-.23-.1-.07-.2-.15-.29-.26-.1-.11-.17-.24-.23-.4-.06-.16-.09-.35-.09-.57,0-.44.16-.78.47-1.03.31-.25.69-.38,1.14-.38.48,0,.91.14,1.28.41l-.54.98Z"/>
  <path class="cls-11" d="M136.88,195.05c-.31-.11-.55-.3-.72-.58-.17-.28-.26-.59-.26-.94,0-.54.17-.99.5-1.35.33-.36.77-.54,1.3-.54s.96.18,1.29.54c.33.36.49.81.49,1.35,0,.35-.08.66-.25.94-.17.28-.41.47-.73.58h0c.43.15.75.38.95.71s.3.73.3,1.2c0,.29-.05.56-.15.82-.1.25-.24.47-.43.66-.18.19-.4.33-.65.44-.25.1-.52.16-.82.16s-.57-.05-.83-.16c-.25-.1-.47-.25-.66-.44-.18-.19-.33-.41-.43-.66s-.15-.53-.15-.82c0-.48.1-.88.3-1.21s.51-.55.95-.69v-.02ZM137.39,195.86c-.08.07-.14.16-.18.26-.04.1-.07.22-.09.33-.02.12-.03.23-.03.34,0,.1,0,.21.03.33.02.12.05.23.09.33.04.1.11.19.19.26.08.07.18.1.29.1s.21-.03.29-.1c.08-.07.14-.16.19-.27.05-.11.08-.22.1-.33s.03-.22.03-.32-.01-.21-.03-.33c-.02-.12-.06-.23-.1-.34-.05-.11-.11-.2-.19-.27s-.18-.1-.29-.1c-.11,0-.21.03-.29.1ZM137.3,193.78c0,.09.03.18.05.26.03.09.06.16.12.21s.12.08.2.08c.1,0,.18-.03.24-.08s.1-.12.13-.21c.03-.09.05-.17.05-.25,0-.08,0-.17,0-.27,0-.08,0-.16-.01-.25,0-.08-.03-.16-.06-.24-.03-.08-.08-.14-.13-.19s-.13-.08-.23-.08c-.08,0-.15.03-.2.08-.05.05-.09.12-.12.19-.03.08-.05.16-.06.24,0,.08-.01.16-.01.24,0,.09,0,.18.01.27Z"/>
  <path class="cls-11" d="M141.82,194.3c.17.18.26.39.26.64s-.09.46-.26.64-.39.27-.64.27-.47-.09-.64-.27-.26-.39-.26-.64.09-.46.26-.64.39-.27.64-.27.47.09.64.27ZM141.82,197.5c.17.18.26.39.26.64s-.09.46-.26.64c-.17.18-.39.27-.64.27s-.47-.09-.64-.27c-.17-.18-.26-.39-.26-.64s.09-.46.26-.64.39-.27.64-.27.47.09.64.27Z"/>
  <path class="cls-11" d="M145.69,192.02c.27.25.48.56.62.95.15.39.25.78.3,1.19s.08.8.08,1.18-.03.77-.08,1.18-.15.81-.3,1.19c-.15.39-.35.7-.62.95-.27.25-.61.37-1.01.37s-.74-.12-1.01-.37c-.27-.25-.48-.56-.62-.95-.15-.39-.25-.78-.3-1.19s-.08-.8-.08-1.18.03-.77.08-1.18.15-.81.3-1.19c.15-.39.35-.7.62-.95s.61-.37,1.01-.37.74.12,1.01.37ZM144.34,193.15c-.09.14-.15.33-.2.57-.04.24-.07.49-.09.75-.01.26-.02.55-.02.87s0,.61.02.87.04.51.09.75c.04.24.11.43.2.57.09.14.2.21.34.21s.25-.07.34-.21c.09-.14.15-.33.19-.57.04-.24.07-.49.08-.75s.02-.55.02-.87,0-.61-.02-.87c-.01-.26-.04-.51-.08-.75-.04-.24-.11-.43-.19-.57-.09-.14-.2-.21-.34-.21s-.25.07-.34.21Z"/>
  <path class="cls-11" d="M150.35,192.02c.27.25.48.56.62.95.15.39.25.78.3,1.19s.08.8.08,1.18-.03.77-.08,1.18-.15.81-.3,1.19c-.15.39-.35.7-.62.95-.27.25-.61.37-1.01.37s-.74-.12-1.01-.37c-.27-.25-.48-.56-.62-.95-.15-.39-.25-.78-.3-1.19s-.08-.8-.08-1.18.03-.77.08-1.18.15-.81.3-1.19c.15-.39.35-.7.62-.95s.61-.37,1.01-.37.74.12,1.01.37ZM149,193.15c-.09.14-.15.33-.2.57-.04.24-.07.49-.09.75-.01.26-.02.55-.02.87s0,.61.02.87.04.51.09.75c.04.24.11.43.2.57.09.14.2.21.34.21s.25-.07.34-.21c.09-.14.15-.33.19-.57.04-.24.07-.49.08-.75s.02-.55.02-.87,0-.61-.02-.87c-.01-.26-.04-.51-.08-.75-.04-.24-.11-.43-.19-.57-.09-.14-.2-.21-.34-.21s-.25.07-.34.21Z"/>
  <path class="cls-11" d="M156.44,198.39h-.02c-.1.2-.22.35-.36.47-.15.11-.32.17-.52.17-.25,0-.47-.09-.64-.26s-.31-.39-.4-.66c-.1-.27-.16-.54-.2-.81-.04-.28-.06-.53-.06-.77,0-.25.02-.52.05-.79.03-.28.09-.54.19-.8.09-.26.22-.47.39-.64.17-.17.39-.25.66-.25.22,0,.4.06.55.19.15.12.27.29.35.5h.02v-.59h1.34v4.8h-1.34v-.54ZM156.32,197.64c.06-.1.11-.22.14-.37.03-.15.05-.29.06-.42,0-.13.01-.25.01-.35s0-.22-.01-.35c0-.13-.03-.27-.06-.41-.03-.15-.08-.27-.15-.37s-.15-.15-.26-.15c-.1,0-.19.05-.25.15-.07.1-.12.22-.15.37-.03.15-.05.28-.06.41,0,.13-.01.25-.01.36,0,.13,0,.26.01.39,0,.13.03.26.06.4.03.14.08.26.15.36.07.1.16.15.27.15.1,0,.18-.05.25-.15Z"/>
  <path class="cls-11" d="M159.79,194.9h.02c.13-.26.29-.47.48-.63.2-.16.43-.24.69-.24.23,0,.42.08.56.23s.23.35.27.58h.02c.12-.23.28-.43.48-.58s.42-.23.67-.23c.2,0,.36.05.48.15.12.1.21.23.26.38s.09.32.1.48c.01.16.02.35.02.57v3.32h-1.34v-2.6c0-.32-.02-.56-.06-.72s-.13-.23-.27-.23-.23.05-.29.16-.08.23-.08.38v3.01h-1.34v-2.78c0-.09,0-.14,0-.15,0-.17-.02-.31-.07-.43-.04-.11-.13-.17-.26-.17-.15,0-.25.05-.3.16s-.08.24-.08.39v2.98h-1.34v-4.8h1.34v.77Z"/>
  <path class="cls-11" d="M168.96,198.39h-.02c-.1.2-.22.35-.36.47-.15.11-.32.17-.52.17-.25,0-.47-.09-.64-.26s-.31-.39-.4-.66c-.1-.27-.16-.54-.2-.81-.04-.28-.06-.53-.06-.77,0-.25.02-.52.05-.79.03-.28.09-.54.19-.8.09-.26.22-.47.39-.64.17-.17.39-.25.66-.25.22,0,.4.06.55.19.15.12.27.29.35.5h.02v-.59h1.34v4.8h-1.34v-.54ZM168.84,197.64c.06-.1.11-.22.14-.37.03-.15.05-.29.06-.42,0-.13.01-.25.01-.35s0-.22-.01-.35c0-.13-.03-.27-.06-.41-.03-.15-.08-.27-.15-.37s-.15-.15-.26-.15c-.1,0-.19.05-.25.15-.07.1-.12.22-.15.37-.03.15-.05.28-.06.41,0,.13-.01.25-.01.36,0,.13,0,.26.01.39,0,.13.03.26.06.4.03.14.08.26.15.36.07.1.16.15.27.15.1,0,.18-.05.25-.15Z"/>
  <path class="cls-11" d="M173.45,194.25l-.02-.39c0-.35.03-.67.09-.93.06-.27.16-.5.29-.69.14-.19.33-.34.58-.45s.55-.16.91-.16c.61,0,1.08.16,1.42.47.34.31.51.77.51,1.37,0,.34-.05.65-.15.95-.1.29-.25.63-.44,1l-1.2,2.27h1.66v1.24h-3.76l1.62-2.97.06-.11c.13-.23.24-.43.33-.61.09-.18.18-.36.26-.56.08-.2.15-.39.2-.59s.08-.39.08-.57c0-.23-.04-.44-.13-.62-.09-.18-.23-.27-.44-.27-.13,0-.23.04-.31.12s-.14.18-.18.29c-.04.12-.06.24-.07.36,0,.12-.01.25-.01.39l.02.46h-1.31Z"/>
  <path class="cls-11" d="M179.41,194.3c.17.18.26.39.26.64s-.09.46-.26.64-.39.27-.64.27-.47-.09-.64-.27-.26-.39-.26-.64.09-.46.26-.64.39-.27.64-.27.47.09.64.27ZM179.41,197.5c.17.18.26.39.26.64s-.09.46-.26.64c-.17.18-.39.27-.64.27s-.47-.09-.64-.27c-.17-.18-.26-.39-.26-.64s.09-.46.26-.64.39-.27.64-.27.47.09.64.27Z"/>
  <path class="cls-11" d="M183.28,192.02c.27.25.48.56.62.95.15.39.25.78.3,1.19s.08.8.08,1.18-.03.77-.08,1.18-.15.81-.3,1.19c-.15.39-.35.7-.62.95-.27.25-.61.37-1.01.37s-.74-.12-1.01-.37c-.27-.25-.48-.56-.62-.95-.15-.39-.25-.78-.3-1.19s-.08-.8-.08-1.18.03-.77.08-1.18.15-.81.3-1.19c.15-.39.35-.7.62-.95s.61-.37,1.01-.37.74.12,1.01.37ZM181.93,193.15c-.09.14-.15.33-.2.57-.04.24-.07.49-.09.75-.01.26-.02.55-.02.87s0,.61.02.87.04.51.09.75c.04.24.11.43.2.57.09.14.2.21.34.21s.25-.07.34-.21c.09-.14.15-.33.19-.57.04-.24.07-.49.08-.75s.02-.55.02-.87,0-.61-.02-.87c-.01-.26-.04-.51-.08-.75-.04-.24-.11-.43-.19-.57-.09-.14-.2-.21-.34-.21s-.25.07-.34.21Z"/>
  <path class="cls-11" d="M187.94,192.02c.27.25.48.56.62.95.15.39.25.78.3,1.19s.08.8.08,1.18-.03.77-.08,1.18-.15.81-.3,1.19c-.15.39-.35.7-.62.95-.27.25-.61.37-1.01.37s-.74-.12-1.01-.37c-.27-.25-.48-.56-.62-.95-.15-.39-.25-.78-.3-1.19s-.08-.8-.08-1.18.03-.77.08-1.18.15-.81.3-1.19c.15-.39.35-.7.62-.95s.61-.37,1.01-.37.74.12,1.01.37ZM186.59,193.15c-.09.14-.15.33-.2.57-.04.24-.07.49-.09.75-.01.26-.02.55-.02.87s0,.61.02.87.04.51.09.75c.04.24.11.43.2.57.09.14.2.21.34.21s.25-.07.34-.21c.09-.14.15-.33.19-.57.04-.24.07-.49.08-.75s.02-.55.02-.87,0-.61-.02-.87c-.01-.26-.04-.51-.08-.75-.04-.24-.11-.43-.19-.57-.09-.14-.2-.21-.34-.21s-.25.07-.34.21Z"/>
  <path class="cls-11" d="M193.25,194.72h.02c.08-.21.2-.38.35-.5.15-.12.33-.19.54-.19.27,0,.49.08.66.25.17.17.31.38.39.64.09.26.15.52.18.8.03.28.05.54.05.8,0,.23-.02.49-.06.77-.04.28-.1.55-.19.81-.09.27-.23.49-.4.66-.17.17-.39.26-.64.26-.21,0-.39-.06-.53-.17-.14-.11-.26-.27-.36-.47h-.02v2.91h-1.34v-7.17h1.34v.59ZM193.89,197.65c.07-.1.12-.22.15-.36.03-.14.05-.28.06-.41,0-.13.01-.26.01-.38,0-.1,0-.22-.01-.36,0-.14-.03-.28-.06-.42-.03-.14-.08-.26-.15-.36-.07-.1-.15-.15-.25-.15-.11,0-.19.05-.26.15-.07.1-.11.22-.14.36-.03.14-.05.28-.06.41,0,.14-.01.26-.01.36s0,.22.01.35c0,.13.03.27.06.42.03.15.08.27.14.37.06.1.15.15.25.15.11,0,.2-.05.27-.15Z"/>
  <path class="cls-11" d="M197.38,194.9h.02c.13-.26.29-.47.48-.63.2-.16.43-.24.69-.24.23,0,.42.08.56.23s.23.35.27.58h.02c.12-.23.28-.43.48-.58s.42-.23.67-.23c.2,0,.36.05.48.15.12.1.21.23.26.38s.09.32.1.48c.01.16.02.35.02.57v3.32h-1.34v-2.6c0-.32-.02-.56-.06-.72s-.13-.23-.27-.23-.23.05-.29.16-.08.23-.08.38v3.01h-1.34v-2.78c0-.09,0-.14,0-.15,0-.17-.02-.31-.07-.43-.04-.11-.13-.17-.26-.17-.15,0-.25.05-.3.16s-.08.24-.08.39v2.98h-1.34v-4.8h1.34v.77Z"/>
  <rect class="cls-11" x="96.9" y="247.51" width="82.89" height="20"/>
  <g>
    <path class="cls-8" d="M119.98,253.2c-.29-.08-.57-.12-.86-.12-2,0-2.87,1.82-2.87,3.59s.87,3.82,2.86,3.82c.29,0,.58-.08.87-.17v2.15c-.34.14-.69.2-1.05.2-3.28,0-5.1-2.96-5.1-5.99,0-2.86,1.89-5.79,4.99-5.79.4,0,.78.08,1.16.21v2.09Z"/>
    <path class="cls-8" d="M123.02,250.22v12.33h-2.15v-12.33h2.15Z"/>
    <path class="cls-8" d="M123.77,252.53c0-.78.63-1.36,1.41-1.36s1.33.66,1.33,1.39-.63,1.36-1.38,1.36-1.36-.63-1.36-1.39ZM126.21,254.83v7.71h-2.15v-7.71h2.15Z"/>
    <path class="cls-8" d="M131.19,262.43c-.4.18-.79.27-1.24.27-2.09,0-2.83-2.2-2.83-3.96,0-1.94.76-4.06,2.99-4.06.38,0,.72.08,1.07.23v1.89c-.2-.18-.37-.24-.63-.24-1.05,0-1.28,1.27-1.28,2.06s.17,2.06,1.25,2.06c.24,0,.46-.09.66-.23v1.97Z"/>
    <path class="cls-8" d="M137.98,256.07h.03c.37-.75.98-1.39,1.89-1.39.79,0,1.22.61,1.33,1.31h.03c.35-.69,1.02-1.31,1.85-1.31,1.39,0,1.39,1.54,1.39,2.54v5.33h-2.15v-4.19c0-.4.11-1.53-.54-1.53-.5,0-.58.52-.58.87v4.84h-2.15v-4.32c0-.38.11-1.36-.5-1.36-.53,0-.61.49-.61.89v4.8h-2.15v-7.71h2.15l.02,1.24Z"/>
    <path class="cls-8" d="M148.98,261.68h-.03c-.29.58-.73,1.02-1.42,1.02-1.74,0-2.09-2.78-2.09-4.02,0-1.33.26-4,2.06-4,.72,0,1.21.47,1.45,1.1h.03v-.95h2.15v7.71h-2.15v-.87ZM149.13,258.65c0-.43-.04-2.06-.78-2.06s-.76,1.62-.76,2.06c0,.49.03,2.08.79,2.08.69,0,.75-1.67.75-2.08Z"/>
    <path class="cls-8" d="M154.34,255.78h.03c.25-.63.73-1.1,1.44-1.1,1.82,0,2.06,2.67,2.06,4,0,1.24-.32,4.02-2.08,4.02-.7,0-1.15-.44-1.42-1.02h-.03v4.67h-2.15v-11.52h2.15v.95ZM155.71,258.65c0-.44-.06-2.06-.76-2.06s-.76,1.63-.76,2.06.04,2.08.75,2.08c.76,0,.78-1.59.78-2.08Z"/>
    <path class="cls-8" d="M162.67,256.91c-.31-.28-.6-.5-1.04-.5-.38,0-.58.23-.58.57.03.9,2.46.72,2.46,3.02,0,1.53-.89,2.7-2.47,2.7-.83,0-1.68-.35-2.32-.89l.95-1.53c.32.28.64.5,1.07.5.34,0,.63-.24.63-.64.03-1.02-2.46-.76-2.46-3.21,0-1.47,1.22-2.26,2.58-2.26.78,0,1.44.2,2.06.66l-.87,1.57Z"/>
  </g>
  <polygon class="cls-5" points="108.61 72.09 108.61 144.74 110.1 146.23 110.1 65.46 108.61 72.09"/>
  <polygon class="cls-7" points="110.1 65.46 118.8 71.67 118.8 141.65 110.1 146.23 110.1 65.46"/>
  <polygon class="cls-9" points="125.26 39.8 121.47 45.59 121.47 135.56 125.26 138.43 125.26 39.8"/>
  <polygon class="cls-4" points="125.26 39.8 132.17 46.93 132.17 135.56 125.26 138.43 125.26 39.8"/>
  <polygon class="cls-10" points="137.97 72.78 137.97 139.6 134.18 136.75 133.28 85.26 137.97 72.78"/>
  <polygon class="cls-6" points="137.97 72.78 144.65 79.47 144.65 136.75 137.97 139.6 137.97 72.78"/>
  <polygon class="cls-5" points="151.33 3 144.65 27.23 144.65 142.81 151.33 147.89 151.33 3"/>
  <polygon class="cls-7" points="151.33 3 151.33 147.89 161.14 142.81 161.14 21.58 151.33 3"/>
  <polygon class="cls-9" points="164.22 61.41 161.14 66.12 161.14 139.31 164.22 141.65 164.22 61.41"/>
  <polygon class="cls-4" points="164.22 141.65 169.84 139.31 169.84 67.21 164.22 61.41 164.22 141.65"/>
</svg>