<?xml version="1.0" encoding="UTF-8"?>
<svg id="Layer_1" data-name="Layer 1" xmlns="http://www.w3.org/2000/svg" viewBox="0 0 280 280">
  <defs>
    <style>
      .cls-1, .cls-2 {
        fill: #dfb149;
      }

      .cls-3 {
        fill: #53372b;
      }

      .cls-4 {
        fill: #005534;
      }

      .cls-5 {
        fill: #fff;
      }

      .cls-2 {
        stroke: #f8f4e5;
        stroke-miterlimit: 10;
        stroke-width: 7px;
      }

      .cls-6 {
        fill: #6e7071;
      }

      .cls-7 {
        fill: #f8f4e5;
      }

      .cls-8 {
        fill: #44a0d9;
      }

      .cls-9 {
        fill: #23834c;
      }
    </style>
  </defs>
  <rect class="cls-1" x="65.31" y="80.95" width="160.69" height="181.05" rx="22.17" ry="22.17"/>
  <circle class="cls-2" cx="145.56" cy="81.04" r="64.26"/>
  <rect class="cls-9" x="104.05" y="232.8" width="82.89" height="20"/>
  <g>
    <path class="cls-7" d="M127.13,238.5c-.29-.08-.57-.12-.86-.12-2,0-2.87,1.82-2.87,3.59s.87,3.82,2.86,3.82c.29,0,.58-.08.87-.17v2.15c-.34.14-.69.2-1.05.2-3.28,0-5.1-2.96-5.1-5.99,0-2.86,1.89-5.79,4.99-5.79.4,0,.78.08,1.16.21v2.09Z"/>
    <path class="cls-7" d="M130.17,235.52v12.33h-2.15v-12.33h2.15Z"/>
    <path class="cls-7" d="M130.92,237.83c0-.78.63-1.36,1.41-1.36s1.33.66,1.33,1.39-.63,1.36-1.37,1.36-1.36-.63-1.36-1.39ZM133.36,240.13v7.71h-2.15v-7.71h2.15Z"/>
    <path class="cls-7" d="M138.34,247.72c-.4.18-.79.27-1.24.27-2.09,0-2.83-2.2-2.83-3.96,0-1.94.76-4.06,2.99-4.06.38,0,.72.08,1.07.23v1.89c-.2-.18-.37-.24-.63-.24-1.05,0-1.28,1.27-1.28,2.06s.17,2.06,1.25,2.06c.24,0,.46-.09.66-.23v1.97Z"/>
    <path class="cls-7" d="M145.13,241.37h.03c.37-.75.98-1.39,1.89-1.39.79,0,1.22.61,1.33,1.31h.03c.35-.69,1.02-1.31,1.85-1.31,1.39,0,1.39,1.54,1.39,2.54v5.33h-2.15v-4.19c0-.4.11-1.53-.54-1.53-.5,0-.58.52-.58.87v4.84h-2.15v-4.32c0-.38.11-1.36-.5-1.36-.53,0-.61.49-.61.89v4.8h-2.15v-7.71h2.15v1.24Z"/>
    <path class="cls-7" d="M156.13,246.98h-.03c-.29.58-.73,1.02-1.42,1.02-1.74,0-2.09-2.78-2.09-4.02,0-1.33.26-4,2.06-4,.72,0,1.21.47,1.45,1.1h.03v-.95h2.15v7.71h-2.15v-.87ZM156.28,243.95c0-.43-.05-2.06-.78-2.06s-.76,1.62-.76,2.06c0,.49.03,2.08.79,2.08.69,0,.75-1.67.75-2.08Z"/>
    <path class="cls-7" d="M161.49,241.08h.03c.24-.63.73-1.1,1.44-1.1,1.82,0,2.06,2.67,2.06,4,0,1.24-.32,4.02-2.08,4.02-.7,0-1.15-.44-1.42-1.02h-.03v4.67h-2.15v-11.52h2.15v.95ZM162.86,243.95c0-.44-.06-2.06-.76-2.06s-.76,1.63-.76,2.06.05,2.08.75,2.08c.76,0,.78-1.59.78-2.08Z"/>
    <path class="cls-7" d="M169.82,242.21c-.31-.28-.6-.5-1.04-.5-.38,0-.58.23-.58.57.03.9,2.46.72,2.46,3.02,0,1.53-.89,2.7-2.47,2.7-.83,0-1.68-.35-2.32-.89l.95-1.53c.32.28.64.5,1.07.5.34,0,.63-.24.63-.64.03-1.02-2.46-.76-2.46-3.21,0-1.47,1.22-2.26,2.58-2.26.78,0,1.44.2,2.06.66l-.87,1.57Z"/>
  </g>
  <g>
    <path class="cls-8" d="M116.1,109.46l-16.49,12.29c-.24.18-.12.57.17.57h90.39c.26,0,.39-.32.22-.52l-10.82-12.29c-.06-.06-.13-.1-.22-.1h-63.09c-.06,0-.12.02-.17.06Z"/>
    <path class="cls-6" d="M190.17,123.66h-90.39c-.69,0-1.29-.47-1.5-1.16-.21-.69.03-1.44.59-1.86l16.49-12.29c.27-.2.58-.3.91-.3h63.09c.44,0,.86.19,1.15.53l10.82,12.29c.43.48.54,1.19.29,1.79-.25.6-.82,1-1.44,1ZM102.88,120.96h85.04l-8.99-10.21h-62.35l-13.7,10.21Z"/>
    <path class="cls-4" d="M116.95,39.39h23.5v19.73s-13.94,2.52-11.75,17.21c0,0-.45,3.79,3.12,7.68,5.06,5.51,13.37,5.8,18.9.82,1.89-1.7,3.74-4.03,5.26-7.24l8.36-8.19,14.34,13.22v33.16h-61.74V39.39Z"/>
    <path class="cls-6" d="M180.48,117.67h-65.32V37.5h27.08v23.21l-1.49.27c-.49.09-12.17,2.42-10.28,15.06l.04.29-.04.24c0,.1-.24,3.01,2.63,6.13,4.37,4.76,11.6,5.07,16.45.7,1.93-1.73,3.55-3.97,4.82-6.65l.15-.31,9.79-9.58,16.17,14.91v35.91ZM118.74,113.9h58.15v-30.42l-12.51-11.54-6.95,6.8c-1.46,3-3.33,5.53-5.55,7.52-6.29,5.66-15.67,5.24-21.35-.95-3.55-3.87-3.68-7.78-3.63-8.91-1.18-8.4,2.49-13.19,5.8-15.72,2.2-1.69,4.51-2.6,5.96-3.05v-16.36h-19.92v72.63Z"/>
    <ellipse class="cls-6" cx="142.18" cy="73.67" rx="9.9" ry="10.43"/>
    <path class="cls-5" d="M121.99,99.79h1.54c.25,0,.46.04.63.12.31.15.47.42.47.83,0,.21-.04.38-.12.51-.08.13-.2.24-.34.32.13.06.23.13.29.22s.1.24.11.44l.02.47c0,.13.02.23.03.3.03.11.08.18.14.21v.08h-.55s-.03-.07-.04-.12-.02-.14-.02-.28l-.03-.58c-.01-.23-.09-.38-.24-.46-.09-.04-.22-.06-.4-.06h-1.02v1.5h-.45v-3.5ZM123.48,101.39c.21,0,.38-.04.5-.13s.18-.25.18-.48c0-.25-.09-.42-.26-.51-.09-.05-.21-.07-.37-.07h-1.1v1.19h1.04Z"/>
    <path class="cls-5" d="M125.32,99.79h2.42v.43h-1.98v1.06h1.83v.4h-1.83v1.19h2.01v.42h-2.45v-3.5Z"/>
    <path class="cls-5" d="M128.66,102.16c.01.2.05.36.13.48.15.23.41.35.79.35.17,0,.32-.03.46-.08.27-.1.4-.27.4-.53,0-.19-.06-.33-.17-.41-.11-.08-.29-.15-.54-.21l-.45-.11c-.29-.07-.5-.15-.62-.23-.21-.15-.32-.36-.32-.65,0-.31.1-.57.31-.77s.5-.3.88-.3c.35,0,.64.09.89.27.24.18.36.46.36.85h-.42c-.02-.19-.07-.33-.14-.43-.14-.18-.37-.27-.7-.27-.26,0-.46.06-.57.18s-.17.25-.17.41c0,.17.07.3.2.38.09.05.29.11.6.19l.47.11c.22.05.4.13.52.22.21.16.32.4.32.71,0,.39-.13.66-.4.83-.27.17-.58.25-.93.25-.41,0-.74-.11-.97-.33-.23-.22-.35-.52-.34-.9h.42Z"/>
    <path class="cls-5" d="M131.55,99.79h.45v3.5h-.45v-3.5Z"/>
    <path class="cls-5" d="M132.75,99.79h1.34c.46,0,.81.17,1.06.51.22.31.34.7.34,1.18,0,.37-.07.71-.2,1.01-.23.53-.63.79-1.2.79h-1.34v-3.5ZM134.01,102.88c.15,0,.28-.02.38-.05.17-.06.32-.18.43-.36.09-.14.15-.32.19-.54.02-.13.03-.25.03-.37,0-.43-.08-.77-.24-1.01-.16-.24-.43-.36-.79-.36h-.8v2.68h.8Z"/>
    <path class="cls-5" d="M136.12,99.79h2.42v.43h-1.98v1.06h1.83v.4h-1.83v1.19h2.01v.42h-2.45v-3.5Z"/>
    <path class="cls-5" d="M139.16,99.79h.53l1.68,2.83v-2.83h.43v3.5h-.5l-1.7-2.83v2.83h-.43v-3.5Z"/>
    <path class="cls-5" d="M144.87,100.04c.23.23.36.5.39.8h-.44c-.05-.23-.15-.4-.3-.54-.15-.13-.36-.2-.62-.2-.33,0-.59.12-.79.36-.2.24-.3.61-.3,1.11,0,.41.09.74.27,1s.45.38.81.38c.33,0,.58-.13.76-.4.09-.14.16-.33.21-.56h.44c-.04.37-.17.68-.39.93-.26.3-.62.45-1.07.45-.39,0-.71-.12-.97-.37-.34-.33-.52-.83-.52-1.51,0-.52.13-.94.39-1.27.28-.36.67-.54,1.16-.54.42,0,.75.12.98.35Z"/>
    <path class="cls-5" d="M145.94,99.79h.45v3.5h-.45v-3.5Z"/>
    <path class="cls-5" d="M148.09,99.79h.51l1.2,3.5h-.49l-.34-1.05h-1.31l-.36,1.05h-.46l1.25-3.5ZM148.83,101.85l-.5-1.54-.54,1.54h1.04Z"/>
    <path class="cls-5" d="M150.21,99.79h.45v3.08h1.68v.42h-2.13v-3.5Z"/>
    <path class="cls-5" d="M156.27,100.04c.23.23.36.5.39.8h-.44c-.05-.23-.15-.4-.3-.54-.15-.13-.36-.2-.62-.2-.33,0-.59.12-.79.36-.2.24-.3.61-.3,1.11,0,.41.09.74.27,1,.18.25.45.38.81.38.33,0,.58-.13.76-.4.09-.14.16-.33.21-.56h.44c-.04.37-.17.68-.39.93-.26.3-.62.45-1.07.45-.39,0-.71-.12-.97-.37-.34-.33-.52-.83-.52-1.51,0-.52.13-.94.39-1.27.28-.36.67-.54,1.16-.54.42,0,.75.12.98.35Z"/>
    <path class="cls-5" d="M157.25,99.79h.45v1.44h1.73v-1.44h.45v3.5h-.45v-1.64h-1.73v1.64h-.45v-3.5Z"/>
    <path class="cls-5" d="M160.68,99.79h.45v3.5h-.45v-3.5Z"/>
    <path class="cls-5" d="M161.86,99.79h.45v3.08h1.68v.42h-2.13v-3.5Z"/>
    <path class="cls-5" d="M164.92,99.79v2.16c0,.25.04.46.14.63.13.25.36.38.68.38.38,0,.64-.14.78-.41.07-.15.11-.35.11-.6v-2.16h.46v1.96c0,.43-.05.76-.16.99-.2.42-.58.63-1.14.63s-.94-.21-1.14-.63c-.11-.23-.16-.56-.16-.99v-1.96h.46Z"/>
    <path class="cls-5" d="M170.15,100.04c.23.23.36.5.39.8h-.44c-.05-.23-.15-.4-.3-.54-.15-.13-.36-.2-.62-.2-.33,0-.59.12-.79.36-.2.24-.3.61-.3,1.11,0,.41.09.74.27,1,.18.25.45.38.81.38.33,0,.58-.13.76-.4.09-.14.16-.33.21-.56h.44c-.04.37-.17.68-.39.93-.26.3-.62.45-1.07.45-.39,0-.71-.12-.97-.37-.34-.33-.52-.83-.52-1.51,0-.52.13-.94.39-1.27.28-.36.67-.54,1.16-.54.42,0,.75.12.98.35Z"/>
    <path class="cls-5" d="M172.08,99.79h.51l1.2,3.5h-.49l-.34-1.05h-1.31l-.36,1.05h-.46l1.25-3.5ZM172.81,101.85l-.5-1.54-.54,1.54h1.04Z"/>
  </g>
  <path class="cls-3" d="M100.91,198.09s-.14-.07-.42-.22c-.28-.15-.49-.37-.64-.65-.15-.29-.22-.63-.22-1.04v-1.41c0-.4.07-.75.22-1.04.15-.29.36-.5.64-.66.28-.15.61-.23,1-.23.32,0,.61.07.87.21.25.14.46.34.63.61s.28.58.34.96h-1c-.04-.17-.1-.31-.17-.43-.08-.12-.17-.21-.29-.28s-.24-.1-.38-.1c-.18,0-.34.04-.46.11s-.22.18-.29.33c-.07.14-.1.31-.1.51v1.41c0,.2.03.37.1.51.07.14.16.25.29.32s.28.11.46.11c.14,0,.27-.03.38-.09.11-.06.21-.15.29-.27.08-.12.13-.27.17-.44h1c-.07.37-.18.69-.35.96s-.38.47-.63.61c-.25.14-.54.21-.86.21h-.59Z"/>
  <path class="cls-3" d="M105.2,198.09s-.13-.06-.38-.19c-.25-.13-.44-.32-.57-.56-.13-.25-.2-.54-.2-.89v-.41c0-.36.06-.67.19-.93s.31-.45.55-.59c.24-.13.53-.2.87-.2.32,0,.59.08.82.24.23.16.4.39.52.7s.18.67.18,1.1v.24h-2.51v-.65h1.62v-.08c-.04-.21-.1-.38-.21-.49-.11-.12-.25-.17-.43-.17-.23,0-.41.07-.54.21-.13.14-.19.34-.19.59v.47c0,.25.07.44.21.58.14.14.34.2.59.2.13,0,.26-.02.39-.07.13-.05.24-.11.35-.2l.63.56c-.19.17-.4.31-.64.4-.24.1-.48.14-.72.14h-.53Z"/>
  <path class="cls-3" d="M108.03,194.37h.97v3.67h-.97v-3.67ZM110.15,195.82c0-.18-.05-.32-.15-.42-.1-.1-.25-.15-.44-.15s-.32.05-.42.15c-.1.1-.15.24-.15.42l-.07-.81c.11-.23.24-.4.4-.52.15-.12.35-.17.58-.17.39,0,.69.13.9.39s.32.63.32,1.1v2.23h-.97v-2.22Z"/>
  <path class="cls-3" d="M111.79,194.37h1.79v.83h-1.79v-.83ZM112.39,197.81c-.15-.16-.22-.41-.22-.73v-3.78h.97v3.54c0,.09.02.16.05.21.04.05.09.07.16.07h.24v.93h-.49c-.32,0-.56-.08-.7-.25Z"/>
  <path class="cls-3" d="M114.43,194.37h1.04v3.67h-1.04v-3.67ZM116.32,195.29c-.07-.02-.15-.04-.24-.04-.2,0-.35.06-.45.19-.11.13-.16.3-.16.52l-.07-.95c.1-.22.23-.39.39-.51.16-.12.34-.18.53-.18.15,0,.29.02.42.07s.23.12.32.21l-.56.79s-.1-.08-.17-.11Z"/>
  <path class="cls-3" d="M118.07,197.91c-.24-.12-.42-.31-.54-.55-.12-.24-.19-.53-.19-.86v-.6c0-.33.06-.62.19-.85.12-.24.3-.42.54-.54.24-.12.52-.19.86-.19s.62.06.86.19c.24.12.42.3.54.54.12.24.19.52.19.85v.61c0,.33-.06.62-.19.86s-.3.42-.54.54c-.24.12-.52.19-.86.19s-.62-.06-.86-.19ZM119.38,196.99c.11-.11.16-.27.16-.48v-.61c0-.2-.05-.36-.16-.48-.11-.11-.26-.17-.46-.17s-.34.06-.45.17c-.11.11-.16.27-.16.48v.61c0,.21.05.37.16.48.11.11.26.17.45.17s.35-.06.46-.17Z"/>
  <path class="cls-3" d="M123.79,197.91c-.18-.12-.33-.31-.42-.54-.1-.24-.14-.52-.14-.86v-.59c0-.34.05-.63.14-.86.1-.24.24-.42.42-.55.19-.12.41-.19.67-.19.2,0,.37.06.53.17s.29.28.39.5l-.07.81c0-.12-.02-.23-.06-.32-.04-.09-.1-.15-.19-.2-.08-.05-.18-.07-.29-.07-.18,0-.32.06-.42.19-.1.12-.15.3-.15.52v.58c0,.22.05.39.15.51.1.12.24.18.42.18.12,0,.21-.02.29-.07.08-.04.14-.11.19-.19s.06-.19.06-.31l.05.84c-.08.2-.19.35-.35.46-.16.11-.34.16-.55.16-.26,0-.48-.06-.67-.19ZM125.31,192.9h.97v5.14h-.97v-5.14Z"/>
  <path class="cls-3" d="M128.27,198.09s-.13-.06-.38-.19c-.25-.13-.44-.32-.57-.56-.13-.25-.2-.54-.2-.89v-.41c0-.36.06-.67.19-.93s.31-.45.55-.59c.24-.13.53-.2.87-.2.32,0,.59.08.82.24.23.16.4.39.52.7s.18.67.18,1.1v.24h-2.51v-.65h1.62v-.08c-.04-.21-.1-.38-.21-.49-.11-.12-.25-.17-.43-.17-.23,0-.41.07-.54.21-.13.14-.19.34-.19.59v.47c0,.25.07.44.21.58.14.14.34.2.59.2.13,0,.26-.02.39-.07.13-.05.24-.11.35-.2l.63.56c-.19.17-.4.31-.64.4-.24.1-.48.14-.72.14h-.53Z"/>
  <path class="cls-3" d="M134.59,192.9h.61l1.96,5.14h-1.04l-1.23-3.51-1.23,3.51h-1.04l1.96-5.14ZM133.57,196.29h2.7v.93h-2.7v-.93Z"/>
  <path class="cls-3" d="M138.76,198.09l-.37-.2c-.25-.13-.44-.33-.57-.58-.13-.25-.19-.56-.19-.92v-.39c0-.36.06-.66.19-.91s.32-.44.57-.57c.25-.13.55-.2.9-.2.2,0,.39.02.57.07s.34.11.48.2c.14.09.26.19.35.32l-.63.61c-.09-.08-.19-.15-.31-.19-.12-.05-.25-.07-.38-.07-.25,0-.43.07-.57.2-.13.13-.2.32-.2.55v.39c0,.25.07.43.2.57s.32.2.57.2c.13,0,.26-.02.38-.07.12-.05.22-.12.31-.21l.63.64c-.1.12-.22.23-.36.31-.14.09-.3.15-.48.2-.18.04-.37.07-.57.07h-.52Z"/>
  <path class="cls-3" d="M141.96,197.91c-.24-.12-.42-.31-.54-.55-.12-.24-.19-.53-.19-.86v-.6c0-.33.06-.62.19-.85.12-.24.3-.42.54-.54.24-.12.52-.19.86-.19s.62.06.86.19c.24.12.42.3.54.54.12.24.19.52.19.85v.61c0,.33-.06.62-.19.86s-.3.42-.54.54c-.24.12-.52.19-.86.19s-.62-.06-.86-.19ZM143.27,196.99c.11-.11.16-.27.16-.48v-.61c0-.2-.05-.36-.16-.48-.11-.11-.26-.17-.46-.17s-.34.06-.45.17c-.11.11-.16.27-.16.48v.61c0,.21.05.37.16.48.11.11.26.17.45.17s.35-.06.46-.17Z"/>
  <path class="cls-3" d="M145.28,194.37h.97v5.16h-.97v-5.16ZM146.54,197.93c-.16-.11-.27-.26-.35-.46l.05-.84c0,.12.02.22.06.31s.1.15.19.19.18.07.29.07c.18,0,.32-.06.42-.18.1-.12.15-.29.15-.51v-.58c0-.22-.05-.4-.15-.52-.1-.12-.24-.19-.42-.19-.12,0-.21.02-.29.07-.08.05-.14.11-.19.2-.04.09-.06.19-.06.32l-.07-.81c.1-.21.23-.38.39-.5s.34-.17.53-.17c.26,0,.48.06.67.19.19.12.33.31.42.55.1.24.14.53.14.86v.59c0,.33-.05.62-.14.86-.1.24-.24.42-.42.54-.18.12-.41.19-.67.19-.21,0-.4-.05-.55-.16Z"/>
  <path class="cls-3" d="M149.16,192.9h.97v.97h-.97v-.97ZM149.16,194.37h.97v3.67h-.97v-3.67Z"/>
  <path class="cls-3" d="M151.65,197.91c-.24-.12-.42-.31-.54-.55-.12-.24-.19-.53-.19-.86v-.6c0-.33.06-.62.19-.85.12-.24.3-.42.54-.54.24-.12.52-.19.86-.19s.62.06.86.19c.24.12.42.3.54.54.12.24.19.52.19.85v.61c0,.33-.06.62-.19.86s-.3.42-.54.54c-.24.12-.52.19-.86.19s-.62-.06-.86-.19ZM152.96,196.99c.11-.11.16-.27.16-.48v-.61c0-.2-.05-.36-.16-.48-.11-.11-.26-.17-.46-.17s-.34.06-.45.17c-.11.11-.16.27-.16.48v.61c0,.21.05.37.16.48.11.11.26.17.45.17s.35-.06.46-.17Z"/>
  <path class="cls-3" d="M158.15,198.09s-.14-.07-.42-.22c-.28-.15-.49-.37-.64-.65-.15-.29-.22-.63-.22-1.04v-1.41c0-.4.07-.75.22-1.04.15-.29.36-.5.64-.66.28-.15.61-.23,1-.23.32,0,.61.07.87.21.25.14.46.34.63.61s.28.58.34.96h-1c-.04-.17-.1-.31-.17-.43-.08-.12-.17-.21-.29-.28s-.24-.1-.38-.1c-.18,0-.34.04-.46.11s-.22.18-.29.33c-.07.14-.1.31-.1.51v1.41c0,.2.03.37.1.51.07.14.16.25.29.32s.28.11.46.11c.14,0,.27-.03.38-.09.11-.06.21-.15.29-.27.08-.12.13-.27.17-.44h1c-.07.37-.18.69-.35.96s-.38.47-.63.61c-.25.14-.54.21-.86.21h-.59Z"/>
  <path class="cls-3" d="M161.39,192.9h.97v5.14h-.97v-5.14ZM163.51,195.82c0-.18-.05-.32-.15-.42-.1-.1-.25-.15-.44-.15s-.32.05-.42.15c-.1.1-.15.24-.15.42l-.07-.81c.11-.23.24-.4.4-.52.15-.12.35-.17.58-.17.39,0,.69.13.9.39s.32.63.32,1.1v2.23h-.97v-2.22Z"/>
  <path class="cls-3" d="M165.38,192.9h.97v.97h-.97v-.97ZM165.38,194.37h.97v3.67h-.97v-3.67Z"/>
  <path class="cls-3" d="M168.21,196.83c0,.09.03.16.08.21.05.05.12.07.22.07h.16v.93h-.49c-.29,0-.52-.08-.69-.25s-.24-.41-.24-.72v-4.16h.97v3.92Z"/>
  <path class="cls-3" d="M170.27,196.6c0,.18.05.31.15.41.1.1.24.15.42.15s.32-.05.42-.15c.1-.1.15-.24.15-.43l.05.8c-.07.2-.18.37-.34.5-.16.14-.35.21-.58.21-.39,0-.7-.13-.91-.38-.21-.25-.32-.61-.32-1.08v-2.26h.97v2.23ZM171.41,194.37h.96v3.67h-.96v-3.67Z"/>
  <path class="cls-3" d="M174.35,198.09l-.37-.2c-.25-.13-.44-.33-.57-.58-.13-.25-.19-.56-.19-.92v-.39c0-.36.06-.66.19-.91s.32-.44.57-.57c.25-.13.55-.2.9-.2.2,0,.39.02.57.07s.34.11.48.2c.14.09.26.19.35.32l-.63.61c-.09-.08-.19-.15-.31-.19-.12-.05-.25-.07-.38-.07-.25,0-.43.07-.57.2-.13.13-.2.32-.2.55v.39c0,.25.07.43.2.57s.32.2.57.2c.13,0,.26-.02.38-.07.12-.05.22-.12.31-.21l.63.64c-.1.12-.22.23-.36.31-.14.09-.3.15-.48.2-.18.04-.37.07-.57.07h-.52Z"/>
  <path class="cls-3" d="M177.04,197.81c-.19-.19-.29-.47-.29-.85s.11-.63.33-.82c.22-.18.54-.27.98-.27h.92l.05.74h-.96c-.15,0-.26.03-.33.09-.07.06-.11.15-.11.26s.05.21.14.27.23.09.42.09c.26,0,.45-.03.58-.09s.19-.15.19-.28l.07.53c-.01.13-.07.24-.18.34-.11.09-.24.16-.4.21-.16.05-.33.07-.51.07-.39,0-.69-.09-.88-.28ZM178.95,195.72c0-.17-.06-.3-.17-.39-.11-.09-.27-.14-.48-.14-.14,0-.27.02-.41.07s-.25.11-.36.19l-.6-.59c.15-.17.34-.3.58-.39.24-.09.51-.14.8-.14.32,0,.59.05.82.16.23.11.4.26.52.47.12.2.18.45.18.74v2.36h-.88v-2.32Z"/>
  <path class="cls-3" d="M182.79,192.9h.97v5.14h-.97v-5.14ZM183.22,197.11h3.01v.93h-3.01v-.93Z"/>
  <path class="cls-3" d="M186.82,192.9h.97v.97h-.97v-.97ZM186.82,194.37h.97v3.67h-.97v-3.67Z"/>
  <path class="cls-3" d="M188.68,194.37h.97v3.67h-.97v-3.67ZM190.82,195.92c0-.21-.05-.38-.16-.5s-.26-.17-.45-.17c-.18,0-.32.05-.42.15-.1.1-.15.24-.15.42l-.07-.81c.11-.23.24-.4.41-.52.16-.12.35-.18.57-.18.26,0,.48.06.67.19.19.12.33.31.42.55.1.24.14.53.14.86v2.12h-.97v-2.12ZM192.96,195.92c0-.21-.05-.38-.15-.5-.1-.12-.25-.17-.44-.17s-.33.06-.43.17c-.1.11-.15.27-.15.48l-.18-.85c.12-.23.27-.41.45-.54.18-.13.39-.19.62-.19.26,0,.49.06.68.19.19.12.33.31.43.55.1.24.15.53.15.86v2.12h-.97v-2.12Z"/>
  <path class="cls-3" d="M194.88,194.37h.97v5.16h-.97v-5.16ZM196.14,197.93c-.16-.11-.27-.26-.35-.46l.05-.84c0,.12.02.22.06.31s.1.15.19.19.18.07.29.07c.18,0,.32-.06.42-.18.1-.12.15-.29.15-.51v-.58c0-.22-.05-.4-.15-.52-.1-.12-.24-.19-.42-.19-.12,0-.21.02-.29.07-.08.05-.14.11-.19.2-.04.09-.06.19-.06.32l-.07-.81c.1-.21.23-.38.39-.5s.34-.17.53-.17c.26,0,.48.06.67.19.19.12.33.31.42.55.1.24.14.53.14.86v.59c0,.33-.05.62-.14.86-.1.24-.24.42-.42.54-.18.12-.41.19-.67.19-.21,0-.4-.05-.55-.16Z"/>
  <path class="cls-3" d="M198.76,192.9h.97v.97h-.97v-.97ZM198.76,194.37h.97v3.67h-.97v-3.67Z"/>
  <path class="cls-3" d="M201.25,197.91c-.24-.12-.42-.31-.54-.55-.12-.24-.19-.53-.19-.86v-.6c0-.33.06-.62.19-.85.12-.24.3-.42.54-.54.24-.12.52-.19.86-.19s.62.06.86.19c.24.12.42.3.54.54.12.24.19.52.19.85v.61c0,.33-.06.62-.19.86s-.3.42-.54.54c-.24.12-.52.19-.86.19s-.62-.06-.86-.19ZM202.56,196.99c.11-.11.16-.27.16-.48v-.61c0-.2-.05-.36-.16-.48-.11-.11-.26-.17-.46-.17s-.34.06-.45.17c-.11.11-.16.27-.16.48v.61c0,.21.05.37.16.48.11.11.26.17.45.17s.35-.06.46-.17Z"/>
  <path class="cls-3" d="M204.27,197.07h.97v.97h-.97v-.97Z"/>
  <path class="cls-3" d="M101.22,202.31h.61l1.96,5.14h-1.04l-1.23-3.51-1.23,3.51h-1.04l1.96-5.14ZM100.2,205.69h2.7v.93h-2.7v-.93Z"/>
  <path class="cls-3" d="M106.34,203.78h.96l-1.38,3.67h-.69l-1.38-3.67h.96l.76,2.3.76-2.3Z"/>
  <path class="cls-3" d="M107.29,206.48h.97v.97h-.97v-.97Z"/>
  <path class="cls-3" d="M111.1,202.3h.97v5.14h-.97v-5.14ZM111.49,204.44h1.79c.1,0,.19-.02.26-.07.08-.05.13-.12.18-.21.04-.09.06-.2.07-.32,0-.12-.02-.23-.06-.32s-.1-.16-.17-.21-.16-.07-.26-.07h-1.79v-.93h1.86c.28,0,.53.06.75.19.21.13.38.31.5.54.12.23.18.5.18.81s-.06.58-.18.81c-.12.23-.28.41-.5.54-.22.13-.46.19-.74.19h-1.86v-.93ZM112.57,205.22l1.03-.16,1.38,2.39h-1.17l-1.25-2.23Z"/>
  <path class="cls-3" d="M116.65,207.5s-.13-.06-.38-.19c-.25-.13-.44-.32-.57-.56-.13-.25-.2-.54-.2-.89v-.41c0-.36.06-.67.19-.93s.31-.45.55-.59c.24-.13.53-.2.87-.2.32,0,.59.08.82.24.23.16.4.39.52.7s.18.67.18,1.1v.24h-2.51v-.65h1.62v-.08c-.04-.21-.1-.38-.21-.49-.11-.12-.25-.17-.43-.17-.23,0-.41.07-.54.21-.13.14-.19.34-.19.59v.47c0,.25.07.44.21.58.14.14.34.2.59.2.13,0,.26-.02.39-.07.13-.05.24-.11.35-.2l.63.56c-.19.17-.4.31-.64.4-.24.1-.48.14-.72.14h-.53Z"/>
  <path class="cls-3" d="M120.56,207.5s-.1-.02-.31-.06c-.21-.04-.4-.1-.58-.17-.18-.08-.34-.17-.48-.27l.6-.75c.18.11.36.2.55.26.19.06.38.09.55.09.23,0,.4-.02.53-.08s.19-.12.19-.21c0-.08-.03-.14-.08-.19s-.12-.07-.21-.09c-.08-.02-.2-.03-.36-.05-.04,0-.09,0-.13-.01-.04,0-.09,0-.13-.01,0,0-.02,0-.03,0-.01,0-.02,0-.03,0-.27-.04-.49-.08-.66-.13-.16-.05-.3-.15-.42-.3-.11-.15-.17-.36-.17-.64,0-.25.06-.45.18-.63s.29-.31.51-.4.49-.14.81-.14c.19,0,.37.02.56.06.19.04.36.09.53.16.17.07.33.16.47.26l-.58.7c-.16-.09-.33-.16-.5-.21-.17-.05-.34-.07-.5-.07-.2,0-.35.02-.46.07-.11.04-.16.11-.16.19,0,.06.03.11.09.14.06.03.13.06.22.07.09.02.21.03.38.05h.06s.04.01.06.01c0,0,.02,0,.03,0s.02,0,.03,0c.28.03.52.07.7.13.18.05.33.16.46.31.13.16.19.38.19.68,0,.25-.06.47-.18.65-.12.18-.3.32-.54.41-.24.1-.52.14-.85.14h-.33Z"/>
  <path class="cls-3" d="M123.18,202.31h.97v.97h-.97v-.97ZM123.18,203.78h.97v3.67h-.97v-3.67Z"/>
  <path class="cls-3" d="M125.51,207.31c-.18-.12-.33-.31-.42-.54-.1-.24-.14-.52-.14-.86v-.59c0-.34.05-.63.14-.86.1-.24.24-.42.42-.55.19-.12.41-.19.67-.19.2,0,.37.06.53.17s.29.28.39.5l-.07.81c0-.12-.02-.23-.06-.32-.04-.09-.1-.15-.19-.2-.08-.05-.18-.07-.29-.07-.18,0-.32.06-.42.19-.1.12-.15.3-.15.52v.58c0,.22.05.39.15.51.1.12.24.18.42.18.12,0,.21-.02.29-.07.08-.04.14-.11.19-.19s.06-.19.06-.31l.05.84c-.08.2-.19.35-.35.46-.16.11-.34.16-.55.16-.26,0-.48-.06-.67-.19ZM127.03,202.31h.97v5.14h-.97v-5.14Z"/>
  <path class="cls-3" d="M129.99,207.5s-.13-.06-.38-.19c-.25-.13-.44-.32-.57-.56-.13-.25-.2-.54-.2-.89v-.41c0-.36.06-.67.19-.93s.31-.45.55-.59c.24-.13.53-.2.87-.2.32,0,.59.08.82.24.23.16.4.39.52.7s.18.67.18,1.1v.24h-2.51v-.65h1.62v-.08c-.04-.21-.1-.38-.21-.49-.11-.12-.25-.17-.43-.17-.23,0-.41.07-.54.21-.13.14-.19.34-.19.59v.47c0,.25.07.44.21.58.14.14.34.2.59.2.13,0,.26-.02.39-.07.13-.05.24-.11.35-.2l.63.56c-.19.17-.4.31-.64.4-.24.1-.48.14-.72.14h-.53Z"/>
  <path class="cls-3" d="M132.83,203.78h.97v3.67h-.97v-3.67ZM134.94,205.22c0-.18-.05-.32-.15-.42-.1-.1-.25-.15-.44-.15s-.32.05-.42.15c-.1.1-.15.24-.15.42l-.07-.81c.11-.23.24-.4.4-.52.15-.12.35-.17.58-.17.39,0,.69.13.9.39s.32.63.32,1.1v2.23h-.97v-2.22Z"/>
  <path class="cls-3" d="M137.89,207.5l-.37-.2c-.25-.13-.44-.33-.57-.58-.13-.25-.19-.56-.19-.92v-.39c0-.36.06-.66.19-.91s.32-.44.57-.57c.25-.13.55-.2.9-.2.2,0,.39.02.57.07s.34.11.48.2c.14.09.26.19.35.32l-.63.61c-.09-.08-.19-.15-.31-.19-.12-.05-.25-.07-.38-.07-.25,0-.43.07-.57.2-.13.13-.2.32-.2.55v.39c0,.25.07.43.2.57s.32.2.57.2c.13,0,.26-.02.38-.07.12-.05.22-.12.31-.21l.63.64c-.1.12-.22.23-.36.31-.14.09-.3.15-.48.2-.18.04-.37.07-.57.07h-.52Z"/>
  <path class="cls-3" d="M140.42,202.31h.97v.97h-.97v-.97ZM140.42,203.78h.97v3.67h-.97v-3.67Z"/>
  <path class="cls-3" d="M142.4,207.22c-.19-.19-.29-.47-.29-.85s.11-.63.33-.82c.22-.18.54-.27.98-.27h.92l.05.74h-.96c-.15,0-.26.03-.33.09s-.11.15-.11.26.05.21.14.27.23.09.42.09c.26,0,.45-.03.58-.09s.19-.15.19-.28l.07.53c-.01.13-.07.24-.18.34-.11.09-.24.16-.4.21-.16.05-.33.07-.51.07-.39,0-.69-.09-.88-.28ZM144.3,205.12c0-.17-.06-.3-.17-.39-.11-.09-.27-.14-.48-.14-.14,0-.27.02-.41.07s-.25.11-.36.19l-.6-.59c.15-.17.34-.3.58-.39.24-.09.51-.14.8-.14.32,0,.59.05.82.16.23.11.4.26.52.47.12.2.18.45.18.74v2.36h-.88v-2.32Z"/>
  <path class="cls-3" d="M147.1,206.23c0,.09.03.16.08.21.05.05.12.07.22.07h.16v.93h-.49c-.29,0-.52-.08-.69-.25s-.24-.41-.24-.72v-4.16h.97v3.92Z"/>
  <path class="cls-3" d="M151.41,207.5s-.14-.07-.42-.22c-.28-.15-.49-.37-.64-.65s-.22-.63-.22-1.04v-1.41c0-.4.07-.75.22-1.04s.36-.5.64-.66c.28-.15.61-.23,1-.23.32,0,.61.07.87.21.25.14.46.34.63.61s.28.58.34.96h-1c-.04-.17-.1-.31-.17-.43-.08-.12-.17-.21-.29-.28s-.24-.1-.38-.1c-.18,0-.34.04-.46.11s-.22.18-.29.33c-.07.14-.1.31-.1.51v1.41c0,.2.03.37.1.51.07.14.16.25.29.32s.28.11.46.11c.14,0,.27-.03.38-.09.11-.06.21-.15.29-.27.08-.12.13-.27.17-.44h1c-.07.37-.18.69-.35.96s-.38.47-.63.61c-.25.14-.54.21-.86.21h-.59Z"/>
  <path class="cls-3" d="M154.65,202.31h.97v5.14h-.97v-5.14ZM156.76,205.22c0-.18-.05-.32-.15-.42-.1-.1-.25-.15-.44-.15s-.32.05-.42.15c-.1.1-.15.24-.15.42l-.07-.81c.11-.23.24-.4.4-.52.15-.12.35-.17.58-.17.39,0,.69.13.9.39s.32.63.32,1.1v2.23h-.97v-2.22Z"/>
  <path class="cls-3" d="M158.63,202.31h.97v.97h-.97v-.97ZM158.63,203.78h.97v3.67h-.97v-3.67Z"/>
  <path class="cls-3" d="M161.47,206.23c0,.09.03.16.08.21.05.05.12.07.22.07h.16v.93h-.49c-.29,0-.52-.08-.69-.25s-.24-.41-.24-.72v-4.16h.97v3.92Z"/>
  <path class="cls-3" d="M163.53,206.01c0,.18.05.31.15.41.1.1.24.15.42.15s.32-.05.42-.15c.1-.1.15-.24.15-.43l.05.8c-.07.2-.18.37-.34.5-.16.14-.35.21-.58.21-.39,0-.7-.13-.91-.38-.21-.25-.32-.61-.32-1.08v-2.26h.97v2.23ZM164.67,203.78h.96v3.67h-.96v-3.67Z"/>
  <path class="cls-3" d="M167.61,207.5l-.37-.2c-.25-.13-.44-.33-.57-.58-.13-.25-.19-.56-.19-.92v-.39c0-.36.06-.66.19-.91s.32-.44.57-.57c.25-.13.55-.2.9-.2.2,0,.39.02.57.07s.34.11.48.2c.14.09.26.19.35.32l-.63.61c-.09-.08-.19-.15-.31-.19-.12-.05-.25-.07-.38-.07-.25,0-.43.07-.57.2-.13.13-.2.32-.2.55v.39c0,.25.07.43.2.57s.32.2.57.2c.13,0,.26-.02.38-.07.12-.05.22-.12.31-.21l.63.64c-.1.12-.22.23-.36.31-.14.09-.3.15-.48.2-.18.04-.37.07-.57.07h-.52Z"/>
  <path class="cls-3" d="M170.3,207.22c-.19-.19-.29-.47-.29-.85s.11-.63.33-.82c.22-.18.54-.27.98-.27h.92l.05.74h-.96c-.15,0-.26.03-.33.09s-.11.15-.11.26.05.21.14.27.23.09.42.09c.26,0,.45-.03.58-.09s.19-.15.19-.28l.07.53c-.01.13-.07.24-.18.34-.11.09-.24.16-.4.21-.16.05-.33.07-.51.07-.39,0-.69-.09-.88-.28ZM172.2,205.12c0-.17-.06-.3-.17-.39-.11-.09-.27-.14-.48-.14-.14,0-.27.02-.41.07s-.25.11-.36.19l-.6-.59c.15-.17.34-.3.58-.39.24-.09.51-.14.8-.14.32,0,.59.05.82.16.23.11.4.26.52.47.12.2.18.45.18.74v2.36h-.88v-2.32Z"/>
  <path class="cls-3" d="M177.05,207.5s-.1-.02-.31-.06c-.21-.04-.4-.1-.58-.17-.18-.08-.34-.17-.48-.27l.6-.75c.18.11.36.2.55.26.19.06.38.09.55.09.23,0,.4-.02.53-.08s.19-.12.19-.21c0-.08-.03-.14-.08-.19s-.12-.07-.21-.09c-.08-.02-.2-.03-.36-.05-.04,0-.09,0-.13-.01-.04,0-.09,0-.13-.01,0,0-.02,0-.03,0-.01,0-.02,0-.03,0-.27-.04-.49-.08-.66-.13-.16-.05-.3-.15-.42-.3-.11-.15-.17-.36-.17-.64,0-.25.06-.45.18-.63s.29-.31.51-.4.49-.14.81-.14c.19,0,.37.02.56.06.19.04.36.09.53.16.17.07.33.16.47.26l-.58.7c-.16-.09-.33-.16-.5-.21-.17-.05-.34-.07-.5-.07-.2,0-.35.02-.46.07-.11.04-.16.11-.16.19,0,.06.03.11.09.14.06.03.13.06.22.07.09.02.21.03.38.05h.06s.04.01.06.01c0,0,.02,0,.03,0s.02,0,.03,0c.28.03.52.07.7.13.18.05.33.16.46.31.13.16.19.38.19.68,0,.25-.06.47-.18.65-.12.18-.3.32-.54.41-.24.1-.52.14-.85.14h-.33Z"/>
  <path class="cls-3" d="M180.05,208.42h-.92l2.3-6.72h.92l-2.3,6.72Z"/>
  <path class="cls-3" d="M182.47,203.78h.97v3.67h-.97v-3.67ZM184.59,205.22c0-.18-.05-.32-.15-.42-.1-.1-.25-.15-.44-.15s-.32.05-.42.15c-.1.1-.15.24-.15.42l-.07-.81c.11-.23.24-.4.4-.52.15-.12.35-.17.58-.17.39,0,.69.13.9.39s.32.63.32,1.1v2.23h-.97v-2.22Z"/>
  <path class="cls-3" d="M100.08,216.42c-.22-.57-.33-1.19-.33-1.87s.11-1.3.33-1.86.55-1.07.99-1.53l.57.7c-.32.37-.56.77-.72,1.22s-.24.94-.24,1.48.08,1.03.24,1.48c.16.45.4.86.72,1.22l-.57.69c-.44-.45-.77-.96-.99-1.53Z"/>
  <path class="cls-3" d="M102.25,216.62c-.19-.19-.29-.47-.29-.85s.11-.63.33-.82c.22-.18.54-.27.98-.27h.92l.05.74h-.96c-.15,0-.26.03-.33.09s-.11.15-.11.26.05.21.14.27.23.09.42.09c.26,0,.45-.03.58-.09s.19-.15.19-.28l.07.53c-.01.13-.07.24-.18.34-.11.09-.24.16-.4.21-.16.05-.33.07-.51.07-.39,0-.69-.09-.88-.28ZM104.15,214.52c0-.17-.06-.3-.17-.39-.11-.09-.27-.14-.48-.14-.14,0-.27.02-.41.07s-.25.11-.36.19l-.6-.59c.15-.17.34-.3.58-.39.24-.09.51-.14.8-.14.32,0,.59.05.82.16.23.11.4.26.52.47.12.2.18.45.18.74v2.36h-.88v-2.32Z"/>
  <path class="cls-3" d="M108.89,215.64c0,.09.03.16.08.21.05.05.12.07.22.07h.16v.93h-.49c-.29,0-.52-.08-.69-.25s-.24-.41-.24-.72v-4.16h.97v3.92Z"/>
  <path class="cls-3" d="M110.1,216.62c-.19-.19-.29-.47-.29-.85s.11-.63.33-.82c.22-.18.54-.27.98-.27h.92l.05.74h-.96c-.15,0-.26.03-.33.09s-.11.15-.11.26.05.21.14.27.23.09.42.09c.26,0,.45-.03.58-.09s.19-.15.19-.28l.07.53c-.01.13-.07.24-.18.34-.11.09-.24.16-.4.21-.16.05-.33.07-.51.07-.39,0-.69-.09-.88-.28ZM112,214.52c0-.17-.06-.3-.17-.39-.11-.09-.27-.14-.48-.14-.14,0-.27.02-.41.07s-.25.11-.36.19l-.6-.59c.15-.17.34-.3.58-.39.24-.09.51-.14.8-.14.32,0,.59.05.82.16.23.11.4.26.52.47.12.2.18.45.18.74v2.36h-.88v-2.32Z"/>
  <path class="cls-3" d="M116.85,216.9s-.1-.02-.31-.06c-.21-.04-.4-.1-.58-.17-.18-.08-.34-.17-.48-.27l.6-.75c.18.11.36.2.55.26.19.06.38.09.55.09.23,0,.4-.02.53-.08s.19-.12.19-.21c0-.08-.03-.14-.08-.19s-.12-.07-.21-.09c-.08-.02-.2-.03-.36-.05-.04,0-.09,0-.13-.01-.04,0-.09,0-.13-.01,0,0-.02,0-.03,0-.01,0-.02,0-.03,0-.27-.04-.49-.08-.66-.13-.16-.05-.3-.15-.42-.3-.11-.15-.17-.36-.17-.64,0-.25.06-.45.18-.63s.29-.31.51-.4.49-.14.81-.14c.19,0,.37.02.56.06.19.04.36.09.53.16.17.07.33.16.47.26l-.58.7c-.16-.09-.33-.16-.5-.21-.17-.05-.34-.07-.5-.07-.2,0-.35.02-.46.07-.11.04-.16.11-.16.19,0,.06.03.11.09.14.06.03.13.06.22.07.09.02.21.03.38.05h.06s.04.01.06.01c0,0,.02,0,.03,0s.02,0,.03,0c.28.03.52.07.7.13.18.05.33.16.46.31.13.16.19.38.19.68,0,.25-.06.47-.18.65-.12.18-.3.32-.54.41-.24.1-.52.14-.85.14h-.33Z"/>
  <path class="cls-3" d="M119.64,216.62c-.19-.19-.29-.47-.29-.85s.11-.63.33-.82c.22-.18.54-.27.98-.27h.92l.05.74h-.96c-.15,0-.26.03-.33.09s-.11.15-.11.26.05.21.14.27.23.09.42.09c.26,0,.45-.03.58-.09s.19-.15.19-.28l.07.53c-.01.13-.07.24-.18.34-.11.09-.24.16-.4.21-.16.05-.33.07-.51.07-.39,0-.69-.09-.88-.28ZM121.54,214.52c0-.17-.06-.3-.17-.39-.11-.09-.27-.14-.48-.14-.14,0-.27.02-.41.07s-.25.11-.36.19l-.6-.59c.15-.17.34-.3.58-.39.24-.09.51-.14.8-.14.32,0,.59.05.82.16.23.11.4.26.52.47.12.2.18.45.18.74v2.36h-.88v-2.32Z"/>
  <path class="cls-3" d="M124.35,215.64c0,.09.03.16.08.21.05.05.12.07.22.07h.16v.93h-.49c-.29,0-.52-.08-.69-.25s-.24-.41-.24-.72v-4.16h.97v3.92Z"/>
  <path class="cls-3" d="M125.42,211.71h.97v.97h-.97v-.97ZM125.42,213.18h.97v3.67h-.97v-3.67Z"/>
  <path class="cls-3" d="M127.75,216.71c-.18-.12-.33-.31-.42-.54-.1-.24-.14-.52-.14-.86v-.59c0-.34.05-.63.14-.86.1-.24.24-.42.42-.55.19-.12.41-.19.67-.19.2,0,.37.06.53.17s.29.28.39.5l-.07.81c0-.12-.02-.23-.06-.32-.04-.09-.1-.15-.19-.2-.08-.05-.18-.07-.29-.07-.18,0-.32.06-.42.19-.1.12-.15.3-.15.52v.58c0,.22.05.39.15.51.1.12.24.18.42.18.12,0,.21-.02.29-.07.08-.04.14-.11.19-.19s.06-.19.06-.31l.05.84c-.08.2-.19.35-.35.46-.16.11-.34.16-.55.16-.26,0-.48-.06-.67-.19ZM129.27,211.71h.97v5.14h-.97v-5.14Z"/>
  <path class="cls-3" d="M131.3,216.62c-.19-.19-.29-.47-.29-.85s.11-.63.33-.82c.22-.18.54-.27.98-.27h.92l.05.74h-.96c-.15,0-.26.03-.33.09s-.11.15-.11.26.05.21.14.27.23.09.42.09c.26,0,.45-.03.58-.09s.19-.15.19-.28l.07.53c-.01.13-.07.24-.18.34-.11.09-.24.16-.4.21-.16.05-.33.07-.51.07-.39,0-.69-.09-.88-.28ZM133.2,214.52c0-.17-.06-.3-.17-.39-.11-.09-.27-.14-.48-.14-.14,0-.27.02-.41.07s-.25.11-.36.19l-.6-.59c.15-.17.34-.3.58-.39.24-.09.51-.14.8-.14.32,0,.59.05.82.16.23.11.4.26.52.47.12.2.18.45.18.74v2.36h-.88v-2.32Z"/>
  <path class="cls-3" d="M137.44,216.71c-.18-.12-.33-.31-.42-.54-.1-.24-.14-.52-.14-.86v-.59c0-.34.05-.63.14-.86.1-.24.24-.42.42-.55.19-.12.41-.19.67-.19.2,0,.37.06.53.17s.29.28.39.5l-.07.81c0-.12-.02-.23-.06-.32-.04-.09-.1-.15-.19-.2-.08-.05-.18-.07-.29-.07-.18,0-.32.06-.42.19-.1.12-.15.3-.15.52v.58c0,.22.05.39.15.51.1.12.24.18.42.18.12,0,.21-.02.29-.07.08-.04.14-.11.19-.19s.06-.19.06-.31l.05.84c-.08.2-.19.35-.35.46-.16.11-.34.16-.55.16-.26,0-.48-.06-.67-.19ZM138.96,211.71h.97v5.14h-.97v-5.14Z"/>
  <path class="cls-3" d="M141.92,216.9s-.13-.06-.38-.19c-.25-.13-.44-.32-.57-.56-.13-.25-.2-.54-.2-.89v-.41c0-.36.06-.67.19-.93s.31-.45.55-.59c.24-.13.53-.2.87-.2.32,0,.59.08.82.24.23.16.4.39.52.7s.18.67.18,1.1v.24h-2.51v-.65h1.62v-.08c-.04-.21-.1-.38-.21-.49-.11-.12-.25-.17-.43-.17-.23,0-.41.07-.54.21-.13.14-.19.34-.19.59v.47c0,.25.07.44.21.58.14.14.34.2.59.2.13,0,.26-.02.39-.07.13-.05.24-.11.35-.2l.63.56c-.19.17-.4.31-.64.4-.24.1-.48.14-.72.14h-.53Z"/>
  <path class="cls-3" d="M145.72,215.64c0,.09.03.16.08.21.05.05.12.07.22.07h.16v.93h-.49c-.29,0-.52-.08-.69-.25s-.24-.41-.24-.72v-4.16h.97v3.92Z"/>
  <path class="cls-3" d="M148.51,213.18h1.97v.83h-1.97v-.83ZM148.9,212.68c0-.32.07-.57.22-.73.15-.16.38-.24.69-.24h.67v.86h-.41c-.07,0-.12.03-.16.08-.04.05-.05.12-.05.2v3.99h-.97v-4.16Z"/>
  <path class="cls-3" d="M150.94,213.18h1.04v3.67h-1.04v-3.67ZM152.83,214.1c-.07-.02-.15-.04-.24-.04-.2,0-.35.06-.45.19-.11.13-.16.3-.16.52l-.07-.95c.1-.22.23-.39.39-.51.16-.12.34-.18.53-.18.15,0,.29.02.42.07s.23.12.32.21l-.56.79s-.1-.08-.17-.11Z"/>
  <path class="cls-3" d="M154.15,216.62c-.19-.19-.29-.47-.29-.85s.11-.63.33-.82c.22-.18.54-.27.98-.27h.92l.05.74h-.96c-.15,0-.26.03-.33.09s-.11.15-.11.26.05.21.14.27.23.09.42.09c.26,0,.45-.03.58-.09s.19-.15.19-.28l.07.53c-.01.13-.07.24-.18.34-.11.09-.24.16-.4.21-.16.05-.33.07-.51.07-.39,0-.69-.09-.88-.28ZM156.05,214.52c0-.17-.06-.3-.17-.39-.11-.09-.27-.14-.48-.14-.14,0-.27.02-.41.07s-.25.11-.36.19l-.6-.59c.15-.17.34-.3.58-.39.24-.09.51-.14.8-.14.32,0,.59.05.82.16.23.11.4.26.52.47.12.2.18.45.18.74v2.36h-.88v-2.32Z"/>
  <path class="cls-3" d="M158.91,216.9l-.37-.2c-.25-.13-.44-.33-.57-.58-.13-.25-.19-.56-.19-.92v-.39c0-.36.06-.66.19-.91s.32-.44.57-.57c.25-.13.55-.2.9-.2.2,0,.39.02.57.07s.34.11.48.2c.14.09.26.19.35.32l-.63.61c-.09-.08-.19-.15-.31-.19-.12-.05-.25-.07-.38-.07-.25,0-.43.07-.57.2-.13.13-.2.32-.2.55v.39c0,.25.07.43.2.57s.32.2.57.2c.13,0,.26-.02.38-.07.12-.05.22-.12.31-.21l.63.64c-.1.12-.22.23-.36.31-.14.09-.3.15-.48.2-.18.04-.37.07-.57.07h-.52Z"/>
  <path class="cls-3" d="M162.51,216.9l-.37-.2c-.25-.13-.44-.33-.57-.58-.13-.25-.19-.56-.19-.92v-.39c0-.36.06-.66.19-.91s.32-.44.57-.57c.25-.13.55-.2.9-.2.2,0,.39.02.57.07s.34.11.48.2c.14.09.26.19.35.32l-.63.61c-.09-.08-.19-.15-.31-.19-.12-.05-.25-.07-.38-.07-.25,0-.43.07-.57.2-.13.13-.2.32-.2.55v.39c0,.25.07.43.2.57s.32.2.57.2c.13,0,.26-.02.38-.07.12-.05.22-.12.31-.21l.63.64c-.1.12-.22.23-.36.31-.14.09-.3.15-.48.2-.18.04-.37.07-.57.07h-.52Z"/>
  <path class="cls-3" d="M165.03,211.71h.97v.97h-.97v-.97ZM165.03,213.18h.97v3.67h-.97v-3.67Z"/>
  <path class="cls-3" d="M167.52,216.71c-.24-.12-.42-.31-.54-.55-.12-.24-.19-.53-.19-.86v-.6c0-.33.06-.62.19-.85.12-.24.3-.42.54-.54.24-.12.52-.19.86-.19s.62.06.86.19c.24.12.42.3.54.54.12.24.19.52.19.85v.61c0,.33-.06.62-.19.86s-.3.42-.54.54c-.24.12-.52.19-.86.19s-.62-.06-.86-.19ZM168.83,215.8c.11-.11.16-.27.16-.48v-.61c0-.2-.05-.36-.16-.48-.11-.11-.26-.17-.46-.17s-.34.06-.45.17c-.11.11-.16.27-.16.48v.61c0,.21.05.37.16.48.11.11.26.17.45.17s.35-.06.46-.17Z"/>
  <path class="cls-3" d="M170.84,213.18h.97v3.67h-.97v-3.67ZM172.96,214.63c0-.18-.05-.32-.15-.42-.1-.1-.25-.15-.44-.15s-.32.05-.42.15c-.1.1-.15.24-.15.42l-.07-.81c.11-.23.24-.4.4-.52.15-.12.35-.17.58-.17.39,0,.69.13.9.39s.32.63.32,1.1v2.23h-.97v-2.22Z"/>
  <path class="cls-3" d="M175,216.62c-.19-.19-.29-.47-.29-.85s.11-.63.33-.82c.22-.18.54-.27.98-.27h.92l.05.74h-.96c-.15,0-.26.03-.33.09s-.11.15-.11.26.05.21.14.27.23.09.42.09c.26,0,.45-.03.58-.09s.19-.15.19-.28l.07.53c-.01.13-.07.24-.18.34-.11.09-.24.16-.4.21-.16.05-.33.07-.51.07-.39,0-.69-.09-.88-.28ZM176.9,214.52c0-.17-.06-.3-.17-.39-.11-.09-.27-.14-.48-.14-.14,0-.27.02-.41.07s-.25.11-.36.19l-.6-.59c.15-.17.34-.3.58-.39.24-.09.51-.14.8-.14.32,0,.59.05.82.16.23.11.4.26.52.47.12.2.18.45.18.74v2.36h-.88v-2.32Z"/>
  <path class="cls-3" d="M178.73,213.18h.97v3.67h-.97v-3.67ZM180.87,214.73c0-.21-.05-.38-.16-.5s-.26-.17-.45-.17c-.18,0-.32.05-.42.15-.1.1-.15.24-.15.42l-.07-.81c.11-.23.24-.4.41-.52.16-.12.35-.18.57-.18.26,0,.48.06.67.19.19.12.33.31.42.55.1.24.14.53.14.86v2.12h-.97v-2.12ZM183.01,214.73c0-.21-.05-.38-.15-.5-.1-.12-.25-.17-.44-.17s-.33.06-.43.17c-.1.11-.15.27-.15.48l-.18-.85c.12-.23.27-.41.45-.54.18-.13.39-.19.62-.19.26,0,.49.06.68.19.19.12.33.31.43.55.1.24.15.53.15.86v2.12h-.97v-2.12Z"/>
  <path class="cls-3" d="M184.88,211.71h.97v.97h-.97v-.97ZM184.88,213.18h.97v3.67h-.97v-3.67Z"/>
  <path class="cls-3" d="M187.79,216.9s-.13-.06-.38-.19c-.25-.13-.44-.32-.57-.56-.13-.25-.2-.54-.2-.89v-.41c0-.36.06-.67.19-.93s.31-.45.55-.59c.24-.13.53-.2.87-.2.32,0,.59.08.82.24.23.16.4.39.52.7s.18.67.18,1.1v.24h-2.51v-.65h1.62v-.08c-.04-.21-.1-.38-.21-.49-.11-.12-.25-.17-.43-.17-.23,0-.41.07-.54.21-.13.14-.19.34-.19.59v.47c0,.25.07.44.21.58.14.14.34.2.59.2.13,0,.26-.02.39-.07.13-.05.24-.11.35-.2l.63.56c-.19.17-.4.31-.64.4-.24.1-.48.14-.72.14h-.53Z"/>
  <path class="cls-3" d="M190.62,213.18h.97v3.67h-.97v-3.67ZM192.74,214.63c0-.18-.05-.32-.15-.42-.1-.1-.25-.15-.44-.15s-.32.05-.42.15c-.1.1-.15.24-.15.42l-.07-.81c.11-.23.24-.4.4-.52.15-.12.35-.17.58-.17.39,0,.69.13.9.39s.32.63.32,1.1v2.23h-.97v-2.22Z"/>
  <path class="cls-3" d="M194.38,213.18h1.79v.83h-1.79v-.83ZM194.98,216.62c-.15-.16-.22-.41-.22-.73v-3.78h.97v3.54c0,.09.02.16.05.21.04.05.09.07.16.07h.24v.93h-.49c-.32,0-.56-.08-.7-.25Z"/>
  <path class="cls-3" d="M197.64,216.71c-.24-.12-.42-.31-.54-.55-.12-.24-.19-.53-.19-.86v-.6c0-.33.06-.62.19-.85.12-.24.3-.42.54-.54.24-.12.52-.19.86-.19s.62.06.86.19c.24.12.42.3.54.54.12.24.19.52.19.85v.61c0,.33-.06.62-.19.86s-.3.42-.54.54c-.24.12-.52.19-.86.19s-.62-.06-.86-.19ZM198.95,215.8c.11-.11.16-.27.16-.48v-.61c0-.2-.05-.36-.16-.48-.11-.11-.26-.17-.46-.17s-.34.06-.45.17c-.11.11-.16.27-.16.48v.61c0,.21.05.37.16.48.11.11.26.17.45.17s.35-.06.46-.17Z"/>
  <path class="cls-3" d="M200.47,217.26c.32-.36.56-.77.72-1.22.16-.45.24-.94.24-1.48s-.08-1.03-.24-1.48-.4-.85-.72-1.22l.57-.7c.44.45.77.96.99,1.53s.33,1.19.33,1.86-.11,1.3-.33,1.87-.55,1.07-.99,1.53l-.57-.69Z"/>
  <path class="cls-3" d="M203.26,215.88h.97v.97h-.97v-.97Z"/>
  <path class="cls-9" d="M92.31,191.94c2.17-.13,4.04,1.94,3.65,4.09-.56,2.38-2.06,4.41-3.49,6.34-1.45-1.99-3.06-4.09-3.52-6.56-.23-1.96,1.39-3.81,3.36-3.87ZM92.51,193.74c-2.29,0-2.35,3.39-.07,3.47,2.28,0,2.34-3.38.07-3.47Z"/>
  <path class="cls-9" d="M88.46,177.12v2.62h1.34v-2.62h1.32v6.69h-1.32v-2.83h-1.34v2.83h-1.32v-6.69h1.32Z"/>
  <path class="cls-9" d="M94.35,179.44c.22.13.4.3.53.52.13.22.22.47.28.74.06.28.08.57.08.87s-.03.6-.08.87c-.06.27-.15.52-.28.74-.13.22-.3.39-.53.52-.23.13-.5.2-.82.2s-.59-.07-.82-.2c-.23-.13-.4-.3-.53-.52-.13-.22-.22-.46-.28-.74s-.08-.56-.08-.87.03-.6.08-.87.15-.52.28-.74c.13-.22.31-.39.53-.52.22-.13.49-.2.81-.2s.59.07.82.2ZM93.29,180.51c-.06.09-.11.21-.14.34-.03.14-.05.27-.06.4,0,.13-.01.24-.01.33s0,.21.01.33c0,.13.03.26.06.4.03.14.08.25.14.34.06.09.14.14.24.14s.18-.05.24-.14c.06-.09.11-.21.14-.34s.05-.27.06-.4c0-.13.01-.24.01-.33s0-.21-.01-.33c0-.13-.03-.26-.06-.4s-.08-.25-.14-.34c-.06-.09-.14-.14-.24-.14s-.18.05-.24.14Z"/>
  <path class="cls-9" d="M97.03,179.33v.54h.02c.12-.21.27-.37.43-.49.16-.12.36-.19.59-.22v1.22c-.08-.01-.15-.02-.2-.02-.2,0-.36.03-.48.09s-.2.15-.25.25c-.05.11-.09.22-.1.35-.01.13-.02.3-.02.52v2.24h-1.25v-4.48h1.25Z"/>
  <path class="cls-9" d="M100.56,183.31h-.02c-.09.18-.2.33-.34.44s-.3.16-.49.16c-.24,0-.44-.08-.6-.24s-.29-.37-.38-.62c-.09-.25-.15-.5-.19-.76s-.05-.5-.05-.72c0-.24.01-.48.04-.74.03-.26.09-.51.17-.75s.21-.44.37-.6.36-.24.61-.24c.2,0,.37.06.51.17.14.12.25.27.33.47h.02v-.55h1.25v4.48h-1.25v-.51ZM100.44,182.61c.06-.09.1-.21.13-.35.03-.14.05-.27.06-.39,0-.12.01-.23.01-.33s0-.2-.01-.32c0-.12-.03-.25-.06-.39-.03-.14-.08-.25-.14-.35-.06-.09-.14-.14-.24-.14-.09,0-.17.05-.24.14-.06.09-.11.21-.14.34-.03.14-.05.27-.06.39,0,.12-.01.23-.01.33,0,.12,0,.25.01.36,0,.12.03.24.06.37.03.13.08.24.14.33s.15.14.25.14c.09,0,.17-.05.23-.14Z"/>
  <path class="cls-9" d="M103.67,179.33v.54h.02c.12-.21.27-.37.43-.49.16-.12.36-.19.59-.22v1.22c-.08-.01-.15-.02-.2-.02-.2,0-.36.03-.48.09s-.2.15-.25.25c-.05.11-.09.22-.1.35-.01.13-.02.3-.02.52v2.24h-1.25v-4.48h1.25Z"/>
  <path class="cls-9" d="M105.27,178.56c-.15-.16-.23-.35-.23-.57s.08-.41.24-.56c.16-.15.35-.23.58-.23.21,0,.4.08.55.24s.23.35.23.57-.08.4-.24.55c-.16.16-.35.24-.56.24s-.41-.08-.56-.24ZM106.46,179.33v4.48h-1.25v-4.48h1.25Z"/>
  <path class="cls-9" d="M109.52,179.44c.22.13.4.3.53.52.13.22.22.47.28.74.06.28.08.57.08.87s-.03.6-.08.87c-.06.27-.15.52-.28.74-.13.22-.3.39-.53.52-.23.13-.5.2-.82.2s-.59-.07-.82-.2c-.23-.13-.4-.3-.53-.52-.13-.22-.22-.46-.28-.74s-.08-.56-.08-.87.03-.6.08-.87.15-.52.28-.74c.13-.22.31-.39.53-.52.22-.13.49-.2.81-.2s.59.07.82.2ZM108.45,180.51c-.06.09-.11.21-.14.34-.03.14-.05.27-.06.4,0,.13-.01.24-.01.33s0,.21.01.33c0,.13.03.26.06.4.03.14.08.25.14.34.06.09.14.14.24.14s.18-.05.24-.14c.06-.09.11-.21.14-.34s.05-.27.06-.4c0-.13.01-.24.01-.33s0-.21-.01-.33c0-.13-.03-.26-.06-.4s-.08-.25-.14-.34c-.06-.09-.14-.14-.24-.14s-.18.05-.24.14Z"/>
  <path class="cls-9" d="M112.32,179.49c.16.17.24.36.24.59s-.08.43-.24.59-.36.25-.6.25-.44-.08-.6-.25-.24-.36-.24-.59.08-.43.24-.59.36-.25.6-.25.44.08.6.25ZM112.32,182.48c.16.17.24.36.24.59s-.08.43-.24.59-.36.25-.6.25-.44-.08-.6-.25-.24-.36-.24-.59.08-.43.24-.59.36-.25.6-.25.44.08.6.25Z"/>
  <path class="cls-9" d="M116.56,180.05h.02c.12-.24.27-.44.45-.59.18-.15.4-.22.65-.22.22,0,.39.07.52.22.13.15.21.33.25.55h.02c.11-.22.26-.4.45-.55.19-.14.4-.22.62-.22.19,0,.34.05.45.14s.19.21.24.36c.05.15.08.3.09.44.01.15.02.33.02.53v3.1h-1.25v-2.43c0-.3-.02-.53-.06-.67s-.12-.22-.25-.22-.22.05-.27.15-.07.22-.07.35v2.81h-1.25v-2.6c0-.08,0-.13,0-.14,0-.16-.02-.29-.06-.4-.04-.11-.12-.16-.24-.16-.14,0-.23.05-.28.15-.05.1-.08.22-.08.37v2.79h-1.25v-4.48h1.25v.72Z"/>
  <path class="cls-9" d="M121.02,178.56c-.15-.16-.23-.35-.23-.57s.08-.41.24-.56c.16-.15.35-.23.58-.23.21,0,.4.08.55.24s.23.35.23.57-.08.4-.24.55c-.16.16-.35.24-.56.24s-.41-.08-.56-.24ZM122.21,179.33v4.48h-1.25v-4.48h1.25Z"/>
  <path class="cls-9" d="M125.93,181.9h-1.98v.06c0,.14.01.25.02.35,0,.09.02.19.06.29s.08.18.14.24.15.1.25.1c.15,0,.25-.05.31-.14.06-.09.09-.22.09-.37h1.07c-.06.45-.2.81-.43,1.07-.23.27-.56.4-.99.4-.3,0-.56-.06-.79-.19s-.4-.29-.54-.51c-.14-.21-.24-.45-.3-.71-.06-.26-.09-.54-.09-.83s.03-.58.09-.86c.06-.28.15-.54.28-.78.13-.24.31-.43.53-.57.22-.14.49-.21.79-.21.42,0,.78.17,1.08.52.3.35.45.83.45,1.45,0,.02,0,.05,0,.09v.09l-.03.51ZM125.59,177.53l-1.15,1.23-.61-.36.85-1.28.91.41ZM124.88,181.03c0-.09,0-.18-.02-.27-.01-.09-.03-.18-.07-.27-.03-.09-.08-.16-.14-.21-.06-.05-.14-.08-.23-.08-.09,0-.16.03-.23.08-.06.05-.11.12-.14.2-.03.08-.06.17-.07.26s-.02.17-.02.26v.13h.91v-.11Z"/>
  <path class="cls-9" d="M127.75,179.33v.54h.02c.12-.21.27-.37.43-.49.16-.12.36-.19.59-.22v1.22c-.08-.01-.15-.02-.2-.02-.2,0-.36.03-.48.09s-.2.15-.25.25c-.05.11-.09.22-.1.35-.01.13-.02.3-.02.52v2.24h-1.25v-4.48h1.25Z"/>
  <path class="cls-9" d="M131.58,183.74c-.23.11-.47.16-.72.16-.29,0-.54-.07-.75-.2-.21-.14-.38-.32-.51-.55s-.23-.48-.28-.74c-.06-.27-.09-.54-.09-.81,0-.3.03-.59.09-.87.06-.28.16-.53.3-.75.14-.23.32-.41.55-.54.22-.13.49-.2.8-.2.21,0,.42.04.62.13v1.1c-.1-.09-.22-.14-.36-.14s-.26.04-.36.12-.18.18-.23.3-.09.25-.12.38c-.02.13-.04.27-.04.4,0,.15.01.29.03.42s.06.26.11.38c.05.12.12.22.22.29.1.07.22.11.37.11.12,0,.25-.04.38-.13v1.15Z"/>
  <path class="cls-9" d="M134.54,179.44c.22.13.4.3.53.52.13.22.22.47.28.74.06.28.08.57.08.87s-.03.6-.08.87c-.06.27-.15.52-.28.74-.13.22-.3.39-.53.52-.23.13-.5.2-.82.2s-.59-.07-.82-.2c-.23-.13-.4-.3-.53-.52-.13-.22-.22-.46-.28-.74s-.08-.56-.08-.87.03-.6.08-.87.15-.52.28-.74c.13-.22.31-.39.53-.52.22-.13.49-.2.81-.2s.59.07.82.2ZM133.48,180.51c-.06.09-.11.21-.14.34-.03.14-.05.27-.06.4,0,.13-.01.24-.01.33s0,.21.01.33c0,.13.03.26.06.4.03.14.08.25.14.34.06.09.14.14.24.14s.18-.05.24-.14c.06-.09.11-.21.14-.34s.05-.27.06-.4c0-.13.01-.24.01-.33s0-.21-.01-.33c0-.13-.03-.26-.06-.4s-.08-.25-.14-.34c-.06-.09-.14-.14-.24-.14s-.18.05-.24.14Z"/>
  <path class="cls-9" d="M137.22,176.65v7.17h-1.25v-7.17h1.25Z"/>
  <path class="cls-9" d="M140.94,181.9h-1.98v.06c0,.14.01.25.02.35,0,.09.02.19.06.29s.08.18.14.24.15.1.25.1c.15,0,.25-.05.31-.14.06-.09.09-.22.09-.37h1.07c-.06.45-.2.81-.43,1.07-.23.27-.56.4-.99.4-.3,0-.56-.06-.79-.19s-.4-.29-.54-.51c-.14-.21-.24-.45-.3-.71-.06-.26-.09-.54-.09-.83s.03-.58.09-.86c.06-.28.15-.54.28-.78.13-.24.31-.43.53-.57.22-.14.49-.21.79-.21.42,0,.78.17,1.08.52.3.35.45.83.45,1.45,0,.02,0,.05,0,.09v.09l-.03.51ZM139.88,181.03c0-.09,0-.18-.02-.27-.01-.09-.03-.18-.07-.27-.03-.09-.08-.16-.14-.21-.06-.05-.14-.08-.23-.08-.09,0-.16.03-.23.08-.06.05-.11.12-.14.2-.03.08-.06.17-.07.26s-.02.17-.02.26v.13h.91v-.11Z"/>
  <path class="cls-9" d="M143.76,180.54c-.11-.09-.2-.17-.29-.22-.09-.05-.19-.08-.31-.08-.22,0-.34.11-.34.33,0,.09.05.16.12.23.07.06.19.13.36.22.14.07.26.14.36.2.1.06.19.14.28.24.09.1.17.22.22.36.06.14.08.31.08.51,0,.46-.13.83-.38,1.13-.25.3-.61.44-1.06.44-.24,0-.47-.05-.71-.14-.24-.09-.45-.22-.64-.38l.55-.89c.11.1.22.17.31.22.09.05.2.08.31.08.1,0,.19-.03.26-.1.07-.07.11-.16.11-.27s-.04-.19-.12-.26c-.08-.07-.2-.14-.37-.24-.15-.08-.27-.16-.36-.22s-.19-.14-.28-.24c-.09-.1-.16-.23-.22-.38-.06-.15-.08-.33-.08-.53,0-.41.14-.73.44-.96.29-.23.65-.35,1.07-.35.45,0,.85.13,1.2.38l-.51.91Z"/>
  <path class="cls-9" d="M147.96,183.81l1.28-2.62-.02-.02c-.14.12-.28.22-.4.28-.12.06-.27.09-.44.09-.24,0-.44-.07-.62-.2-.17-.13-.32-.31-.43-.52-.11-.22-.19-.44-.24-.68s-.07-.46-.07-.68c0-.32.03-.62.1-.91.07-.29.17-.55.32-.78.15-.23.34-.42.59-.55s.53-.2.87-.2.61.07.84.2.42.3.57.52c.14.22.25.47.32.75.07.28.1.58.1.88,0,.54-.08,1.07-.24,1.57-.16.5-.4,1.08-.71,1.74l-.55,1.15h-1.28ZM148.6,178.28c-.08.08-.13.19-.17.31-.04.12-.07.25-.08.38s-.02.25-.02.35c0,.1,0,.2.02.32.01.12.04.23.08.34.04.11.09.21.16.28.07.07.16.11.27.11.12,0,.22-.04.3-.12.08-.08.14-.19.19-.32.04-.13.07-.25.09-.38.01-.12.02-.24.02-.35,0-.09,0-.2-.03-.32-.02-.12-.05-.23-.09-.35-.04-.11-.1-.21-.17-.28-.07-.07-.16-.11-.27-.11-.12,0-.22.04-.29.12Z"/>
  <path class="cls-9" d="M152.74,179.49c.16.17.24.36.24.59s-.08.43-.24.59-.36.25-.6.25-.44-.08-.6-.25-.24-.36-.24-.59.08-.43.24-.59.36-.25.6-.25.44.08.6.25ZM152.74,182.48c.16.17.24.36.24.59s-.08.43-.24.59-.36.25-.6.25-.44-.08-.6-.25-.24-.36-.24-.59.08-.43.24-.59.36-.25.6-.25.44.08.6.25Z"/>
  <path class="cls-9" d="M156.36,177.36c.25.23.45.53.58.89s.23.73.28,1.11c.05.38.08.75.08,1.11s-.03.72-.08,1.11c-.05.38-.14.75-.28,1.11s-.33.66-.58.89-.57.35-.95.35-.69-.12-.95-.35-.45-.53-.58-.89-.23-.73-.28-1.11c-.05-.38-.08-.75-.08-1.11s.03-.72.08-1.11c.05-.38.14-.75.28-1.11s.33-.66.58-.89.57-.35.95-.35.69.12.95.35ZM155.1,178.42c-.08.13-.14.31-.18.53-.04.22-.07.46-.08.7-.01.25-.02.52-.02.81s0,.57.02.81.04.48.08.7c.04.22.1.4.18.53.08.13.18.2.32.2s.24-.07.32-.2c.08-.13.14-.31.18-.53.04-.22.06-.46.08-.7s.02-.52.02-.81,0-.57-.02-.81c-.01-.25-.04-.48-.08-.7-.04-.22-.1-.4-.18-.53-.08-.13-.19-.2-.32-.2s-.24.07-.32.2Z"/>
  <path class="cls-9" d="M160.71,177.36c.25.23.45.53.58.89s.23.73.28,1.11c.05.38.08.75.08,1.11s-.03.72-.08,1.11c-.05.38-.14.75-.28,1.11s-.33.66-.58.89-.57.35-.95.35-.69-.12-.95-.35-.45-.53-.58-.89-.23-.73-.28-1.11c-.05-.38-.08-.75-.08-1.11s.03-.72.08-1.11c.05-.38.14-.75.28-1.11s.33-.66.58-.89.57-.35.95-.35.69.12.95.35ZM159.45,178.42c-.08.13-.14.31-.18.53-.04.22-.07.46-.08.7-.01.25-.02.52-.02.81s0,.57.02.81.04.48.08.7c.04.22.1.4.18.53.08.13.18.2.32.2s.24-.07.32-.2c.08-.13.14-.31.18-.53.04-.22.06-.46.08-.7s.02-.52.02-.81,0-.57-.02-.81c-.01-.25-.04-.48-.08-.7-.04-.22-.1-.4-.18-.53-.08-.13-.19-.2-.32-.2s-.24.07-.32.2Z"/>
  <path class="cls-9" d="M166.4,183.31h-.02c-.09.18-.2.33-.34.44s-.3.16-.49.16c-.24,0-.44-.08-.6-.24s-.29-.37-.38-.62c-.09-.25-.15-.5-.19-.76s-.05-.5-.05-.72c0-.24.01-.48.04-.74.03-.26.09-.51.17-.75s.21-.44.37-.6.36-.24.61-.24c.2,0,.37.06.51.17.14.12.25.27.33.47h.02v-.55h1.25v4.48h-1.25v-.51ZM166.29,182.61c.06-.09.1-.21.13-.35.03-.14.05-.27.06-.39,0-.12.01-.23.01-.33s0-.2-.01-.32c0-.12-.03-.25-.06-.39-.03-.14-.08-.25-.14-.35-.06-.09-.14-.14-.24-.14-.09,0-.17.05-.24.14-.06.09-.11.21-.14.34-.03.14-.05.27-.06.39,0,.12-.01.23-.01.33,0,.12,0,.25.01.36,0,.12.03.24.06.37.03.13.08.24.14.33s.15.14.25.14c.09,0,.17-.05.23-.14Z"/>
  <path class="cls-9" d="M169.53,180.05h.02c.12-.24.27-.44.45-.59.18-.15.4-.22.65-.22.22,0,.39.07.52.22.13.15.21.33.25.55h.02c.11-.22.26-.4.45-.55.19-.14.4-.22.62-.22.19,0,.34.05.45.14s.19.21.24.36c.05.15.08.3.09.44.01.15.02.33.02.53v3.1h-1.25v-2.43c0-.3-.02-.53-.06-.67s-.12-.22-.25-.22-.22.05-.27.15-.07.22-.07.35v2.81h-1.25v-2.6c0-.08,0-.13,0-.14,0-.16-.02-.29-.06-.4-.04-.11-.12-.16-.24-.16-.14,0-.23.05-.28.15-.05.1-.08.22-.08.37v2.79h-1.25v-4.48h1.25v.72Z"/>
  <path class="cls-9" d="M178.1,183.31h-.02c-.09.18-.2.33-.34.44s-.3.16-.49.16c-.24,0-.44-.08-.6-.24s-.29-.37-.38-.62c-.09-.25-.15-.5-.19-.76s-.05-.5-.05-.72c0-.24.01-.48.04-.74.03-.26.09-.51.17-.75s.21-.44.37-.6.36-.24.61-.24c.2,0,.37.06.51.17.14.12.25.27.33.47h.02v-.55h1.25v4.48h-1.25v-.51ZM177.98,182.61c.06-.09.1-.21.13-.35.03-.14.05-.27.06-.39,0-.12.01-.23.01-.33s0-.2-.01-.32c0-.12-.03-.25-.06-.39-.03-.14-.08-.25-.14-.35-.06-.09-.14-.14-.24-.14-.09,0-.17.05-.24.14-.06.09-.11.21-.14.34-.03.14-.05.27-.06.39,0,.12-.01.23-.01.33,0,.12,0,.25.01.36,0,.12.03.24.06.37.03.13.08.24.14.33s.15.14.25.14c.09,0,.17-.05.23-.14Z"/>
  <path class="cls-9" d="M184.73,177.12v6.69h-1.29v-5.54h-.64v-1.15h1.93Z"/>
  <path class="cls-9" d="M187.86,179.49c.16.17.24.36.24.59s-.08.43-.24.59-.36.25-.6.25-.44-.08-.6-.25-.24-.36-.24-.59.08-.43.24-.59.36-.25.6-.25.44.08.6.25ZM187.86,182.48c.16.17.24.36.24.59s-.08.43-.24.59-.36.25-.6.25-.44-.08-.6-.25-.24-.36-.24-.59.08-.43.24-.59.36-.25.6-.25.44.08.6.25Z"/>
  <path class="cls-9" d="M191.47,177.36c.25.23.45.53.58.89s.23.73.28,1.11c.05.38.08.75.08,1.11s-.03.72-.08,1.11c-.05.38-.14.75-.28,1.11s-.33.66-.58.89-.57.35-.95.35-.69-.12-.95-.35-.45-.53-.58-.89-.23-.73-.28-1.11c-.05-.38-.08-.75-.08-1.11s.03-.72.08-1.11c.05-.38.14-.75.28-1.11s.33-.66.58-.89.57-.35.95-.35.69.12.95.35ZM190.21,178.42c-.08.13-.14.31-.18.53-.04.22-.07.46-.08.7-.01.25-.02.52-.02.81s0,.57.02.81.04.48.08.7c.04.22.1.4.18.53.08.13.18.2.32.2s.24-.07.32-.2c.08-.13.14-.31.18-.53.04-.22.06-.46.08-.7s.02-.52.02-.81,0-.57-.02-.81c-.01-.25-.04-.48-.08-.7-.04-.22-.1-.4-.18-.53-.08-.13-.19-.2-.32-.2s-.24.07-.32.2Z"/>
  <path class="cls-9" d="M195.83,177.36c.25.23.45.53.58.89s.23.73.28,1.11c.05.38.08.75.08,1.11s-.03.72-.08,1.11c-.05.38-.14.75-.28,1.11s-.33.66-.58.89-.57.35-.95.35-.69-.12-.95-.35-.45-.53-.58-.89-.23-.73-.28-1.11c-.05-.38-.08-.75-.08-1.11s.03-.72.08-1.11c.05-.38.14-.75.28-1.11s.33-.66.58-.89.57-.35.95-.35.69.12.95.35ZM194.57,178.42c-.08.13-.14.31-.18.53-.04.22-.07.46-.08.7-.01.25-.02.52-.02.81s0,.57.02.81.04.48.08.7c.04.22.1.4.18.53.08.13.18.2.32.2s.24-.07.32-.2c.08-.13.14-.31.18-.53.04-.22.06-.46.08-.7s.02-.52.02-.81,0-.57-.02-.81c-.01-.25-.04-.48-.08-.7-.04-.22-.1-.4-.18-.53-.08-.13-.19-.2-.32-.2s-.24.07-.32.2Z"/>
  <path class="cls-9" d="M200.79,179.88h.02c.08-.2.19-.35.33-.47.14-.12.31-.17.51-.17.25,0,.45.08.62.24s.29.35.37.59.14.49.17.75c.03.26.04.51.04.75,0,.22-.02.46-.05.72s-.1.51-.18.76c-.09.25-.21.45-.37.62-.16.16-.36.24-.6.24-.2,0-.36-.05-.49-.16s-.24-.25-.33-.44h-.02v2.72h-1.25v-6.7h1.25v.55ZM201.39,182.62c.07-.09.11-.2.14-.33.03-.13.04-.26.05-.38,0-.12.01-.24.01-.35,0-.09,0-.21-.01-.33,0-.13-.03-.26-.06-.39-.03-.13-.08-.25-.14-.34-.06-.09-.14-.14-.24-.14-.1,0-.18.05-.24.14-.06.1-.11.21-.13.34-.03.13-.04.26-.05.39,0,.13-.01.24-.01.33s0,.2.01.33c0,.12.03.25.06.39.03.14.07.25.13.35.06.09.14.14.23.14.1,0,.18-.05.25-.14Z"/>
  <path class="cls-9" d="M204.65,180.05h.02c.12-.24.27-.44.45-.59.18-.15.4-.22.65-.22.22,0,.39.07.52.22.13.15.21.33.25.55h.02c.11-.22.26-.4.45-.55.19-.14.4-.22.62-.22.19,0,.34.05.45.14s.19.21.24.36c.05.15.08.3.09.44.01.15.02.33.02.53v3.1h-1.25v-2.43c0-.3-.02-.53-.06-.67s-.12-.22-.25-.22-.22.05-.27.15-.07.22-.07.35v2.81h-1.25v-2.6c0-.08,0-.13,0-.14,0-.16-.02-.29-.06-.4-.04-.11-.12-.16-.24-.16-.14,0-.23.05-.28.15-.05.1-.08.22-.08.37v2.79h-1.25v-4.48h1.25v.72Z"/>
  <g>
    <path class="cls-5" d="M117.14,158.64l-.03-.7c0-2.38.68-3.98,3.35-3.98,2.12,0,3.45,1.07,3.45,3.28,0,1.31-.46,2.35-1.05,3.48l-2.14,4.06h2.98v2.21h-6.73l2.89-5.3c.66-1.22,1.65-2.96,1.65-4.37,0-.66-.2-1.58-1.02-1.58-.97,0-1.02,1.38-1.02,2.07l.03.82h-2.35Z"/>
    <path class="cls-5" d="M128.28,165.6c0,.88-.71,1.61-1.61,1.61s-1.62-.73-1.62-1.61.71-1.62,1.62-1.62,1.61.73,1.61,1.62Z"/>
    <path class="cls-5" d="M140.21,156.6c-.32-.09-.63-.14-.95-.14-2.23,0-3.2,2.02-3.2,3.99s.97,4.25,3.18,4.25c.32,0,.65-.08.97-.19v2.4c-.37.15-.76.22-1.17.22-3.65,0-5.68-3.3-5.68-6.66,0-3.18,2.11-6.44,5.56-6.44.44,0,.87.08,1.29.24v2.33Z"/>
    <path class="cls-5" d="M143.59,153.29v6.46h.03c.32-.82,1.05-1.5,1.99-1.5,1.77,0,1.61,1.97,1.61,3.21v5.54h-2.4v-4.71c0-.44.17-1.63-.59-1.63-.54,0-.65.56-.65.99v5.35h-2.4v-13.72h2.4Z"/>
    <path class="cls-5" d="M148.07,155.86c0-.87.7-1.51,1.56-1.51s1.48.73,1.48,1.55-.7,1.51-1.53,1.51-1.51-.7-1.51-1.55ZM150.79,158.42v8.58h-2.4v-8.58h2.4Z"/>
    <path class="cls-5" d="M154.36,153.29v13.72h-2.4v-13.72h2.4Z"/>
    <path class="cls-5" d="M157.93,158.42v4.71c0,.48-.19,1.8.61,1.8.65,0,.59-.85.59-1.27l.02-5.24h2.38v5.47c0,1.99-.94,3.28-3.06,3.28-2.72,0-2.94-2.04-2.94-3.6v-5.15h2.4Z"/>
    <path class="cls-5" d="M167.09,166.87c-.44.2-.88.31-1.38.31-2.33,0-3.14-2.45-3.14-4.4,0-2.16.85-4.52,3.33-4.52.42,0,.8.08,1.19.25v2.11c-.22-.2-.41-.27-.7-.27-1.17,0-1.43,1.41-1.43,2.29s.19,2.29,1.39,2.29c.27,0,.51-.1.73-.25v2.19Z"/>
    <path class="cls-5" d="M171.86,166.04h-.03c-.32.65-.82,1.14-1.58,1.14-1.94,0-2.33-3.09-2.33-4.47,0-1.48.29-4.45,2.29-4.45.8,0,1.34.53,1.62,1.22h.03v-1.05h2.4v8.58h-2.4v-.97ZM172.03,162.67c0-.48-.05-2.29-.87-2.29s-.85,1.8-.85,2.29c0,.54.03,2.31.88,2.31.76,0,.83-1.85.83-2.31Z"/>
  </g>
</svg>