<?xml version="1.0" encoding="UTF-8"?>
<svg id="Layer_1" data-name="Layer 1" xmlns="http://www.w3.org/2000/svg" viewBox="0 0 280 280">
  <defs>
    <style>
      .cls-1, .cls-2 {
        fill: #dfb149;
      }

      .cls-3 {
        fill: #53372b;
      }

      .cls-4 {
        fill: #33262a;
      }

      .cls-5 {
        fill: #fff;
      }

      .cls-2 {
        stroke: #f8f4e5;
        stroke-miterlimit: 10;
        stroke-width: 7px;
      }

      .cls-6 {
        fill: #322527;
      }

      .cls-7 {
        fill: #8a443e;
      }

      .cls-8 {
        fill: #f8f4e5;
      }

      .cls-9 {
        fill: #23834c;
      }
    </style>
  </defs>
  <rect class="cls-1" x="68.49" y="83.93" width="159.08" height="179.24" rx="22.17" ry="22.17"/>
  <g>
    <path class="cls-5" d="M133.51,155.76c-.29-.08-.57-.12-.82-.12-.46,0-.86.09-1.21.28s-.64.45-.86.77c-.22.33-.39.69-.5,1.1-.11.41-.17.83-.17,1.27s.06.86.17,1.29c.11.43.28.82.5,1.18s.51.65.85.86c.35.21.75.32,1.21.32.21,0,.49-.05.83-.16v2.06c-.31.13-.65.19-1.01.19-.76,0-1.44-.16-2.05-.47-.61-.32-1.12-.75-1.55-1.29-.42-.54-.74-1.15-.96-1.84-.21-.69-.32-1.4-.32-2.13,0-.69.11-1.37.33-2.03.22-.66.54-1.26.96-1.79.42-.53.93-.95,1.53-1.26.59-.31,1.25-.46,1.96-.46.36,0,.73.07,1.11.2v2Z"/>
    <path class="cls-5" d="M138.38,157.5c.37.21.66.5.87.86.21.36.36.77.45,1.22.09.45.14.93.14,1.44s-.05.98-.14,1.43c-.09.45-.24.85-.45,1.21-.21.36-.5.65-.87.86-.37.21-.82.32-1.34.32s-.97-.11-1.34-.32c-.37-.21-.66-.5-.87-.86-.21-.36-.36-.76-.45-1.21-.09-.45-.14-.93-.14-1.43s.05-.99.14-1.44c.09-.45.25-.86.46-1.22.21-.36.5-.65.87-.86s.81-.32,1.34-.32.97.11,1.34.32ZM136.63,159.26c-.1.15-.18.34-.23.56-.05.22-.08.44-.09.65-.01.21-.02.39-.02.55s0,.34.02.55c.01.21.05.43.09.65.05.22.12.41.23.56.1.15.24.23.4.23s.3-.08.4-.23c.1-.15.18-.34.23-.56.05-.22.08-.44.09-.65.01-.21.02-.39.02-.55s0-.34-.02-.55c-.01-.21-.05-.43-.09-.65-.05-.22-.12-.41-.23-.56-.1-.15-.24-.23-.4-.23s-.3.08-.4.23Z"/>
    <path class="cls-5" d="M142.79,158.47h.03c.15-.37.37-.68.68-.92.31-.24.65-.37,1.03-.37.31,0,.56.07.75.2.19.14.33.33.42.57.09.24.15.52.17.83s.04.69.04,1.16v4.76h-2.06v-4.24c0-.15.01-.24.01-.29,0-.27-.04-.49-.11-.66s-.21-.26-.42-.26-.35.08-.43.25c-.08.17-.12.37-.12.6v4.6h-2.06v-7.38h2.06v1.14Z"/>
    <path class="cls-5" d="M150.18,163.87h-.03c-.15.3-.33.54-.56.72-.22.18-.49.26-.8.26-.39,0-.72-.13-.99-.4s-.47-.61-.62-1.02c-.15-.41-.25-.83-.31-1.25-.06-.42-.09-.82-.09-1.18,0-.39.02-.8.07-1.22.05-.42.14-.84.28-1.24.14-.4.34-.73.61-.99s.6-.39,1.01-.39c.33,0,.61.09.85.28.23.19.41.45.54.77h.03v-5.32h2.06v11.79h-2.06v-.83ZM149.99,162.73c.1-.16.17-.35.22-.57.05-.22.08-.44.09-.64.01-.2.02-.38.02-.54s0-.33-.02-.53c-.01-.2-.05-.41-.09-.64-.05-.22-.12-.41-.23-.57-.1-.16-.24-.23-.4-.23-.16,0-.28.08-.39.23-.1.15-.18.34-.23.56-.05.22-.08.44-.09.64-.01.2-.02.38-.02.55,0,.2,0,.4.02.6.01.19.05.4.09.61.05.21.13.4.23.55.11.15.24.23.41.23.16,0,.28-.08.38-.23Z"/>
    <path class="cls-5" d="M156.51,163.87h-.03c-.15.3-.33.54-.56.72-.22.18-.49.26-.8.26-.39,0-.72-.13-.99-.4s-.47-.61-.62-1.02c-.15-.41-.25-.83-.31-1.25-.06-.42-.09-.82-.09-1.18,0-.39.02-.8.07-1.22.05-.42.14-.84.28-1.24.14-.4.34-.73.61-.99s.6-.39,1.01-.39c.33,0,.61.09.85.28.23.19.41.45.54.77h.03v-.91h2.06v7.38h-2.06v-.83ZM156.32,162.73c.1-.16.17-.35.22-.57.05-.22.08-.44.09-.64.01-.2.02-.38.02-.54s0-.33-.02-.53c-.01-.2-.05-.41-.09-.64-.05-.22-.12-.41-.23-.57-.1-.16-.24-.23-.4-.23-.16,0-.28.08-.39.23-.1.15-.18.34-.23.56-.05.22-.08.44-.09.64-.01.2-.02.38-.02.55,0,.2,0,.4.02.6.01.19.05.4.09.61.05.21.13.4.23.55.11.15.24.23.41.23.16,0,.28-.08.38-.23Z"/>
    <path class="cls-5" d="M162.83,163.87h-.03c-.15.3-.33.54-.56.72-.22.18-.49.26-.8.26-.39,0-.72-.13-.99-.4s-.47-.61-.62-1.02c-.15-.41-.25-.83-.31-1.25-.06-.42-.09-.82-.09-1.18,0-.39.02-.8.07-1.22.05-.42.14-.84.28-1.24.14-.4.34-.73.61-.99s.6-.39,1.01-.39c.33,0,.61.09.85.28.23.19.41.45.54.77h.03v-5.32h2.06v11.79h-2.06v-.83ZM162.64,162.73c.1-.16.17-.35.22-.57.05-.22.08-.44.09-.64.01-.2.02-.38.02-.54s0-.33-.02-.53c-.01-.2-.05-.41-.09-.64-.05-.22-.12-.41-.23-.57-.1-.16-.24-.23-.4-.23-.16,0-.28.08-.39.23-.1.15-.18.34-.23.56-.05.22-.08.44-.09.64-.01.2-.02.38-.02.55,0,.2,0,.4.02.6.01.19.05.4.09.61.05.21.13.4.23.55.11.15.24.23.41.23.16,0,.28-.08.38-.23Z"/>
    <path class="cls-5" d="M169.92,157.5c.37.21.66.5.87.86.21.36.36.77.45,1.22.09.45.14.93.14,1.44s-.05.98-.14,1.43c-.09.45-.24.85-.45,1.21-.21.36-.5.65-.87.86-.37.21-.82.32-1.34.32s-.97-.11-1.34-.32c-.37-.21-.66-.5-.87-.86-.21-.36-.36-.76-.45-1.21-.09-.45-.14-.93-.14-1.43s.05-.99.14-1.44c.09-.45.25-.86.46-1.22.21-.36.5-.65.87-.86s.81-.32,1.34-.32.97.11,1.34.32ZM168.17,159.26c-.1.15-.18.34-.23.56-.05.22-.08.44-.09.65-.01.21-.02.39-.02.55s0,.34.02.55c.01.21.05.43.09.65.05.22.12.41.23.56.1.15.24.23.4.23s.3-.08.4-.23c.1-.15.18-.34.23-.56.05-.22.08-.44.09-.65.01-.21.02-.39.02-.55s0-.34-.02-.55c-.01-.21-.05-.43-.09-.65-.05-.22-.12-.41-.23-.56-.1-.15-.24-.23-.4-.23s-.3.08-.4.23Z"/>
    <path class="cls-5" d="M179.11,163.87h-.03c-.15.3-.33.54-.56.72-.22.18-.49.26-.8.26-.39,0-.72-.13-.99-.4s-.47-.61-.62-1.02c-.15-.41-.25-.83-.31-1.25-.06-.42-.09-.82-.09-1.18,0-.39.02-.8.07-1.22.05-.42.14-.84.28-1.24.14-.4.34-.73.61-.99s.6-.39,1.01-.39c.33,0,.61.09.85.28.23.19.41.45.54.77h.03v-5.32h2.06v11.79h-2.06v-.83ZM178.92,162.73c.1-.16.17-.35.22-.57.05-.22.08-.44.09-.64.01-.2.02-.38.02-.54s0-.33-.02-.53c-.01-.2-.05-.41-.09-.64-.05-.22-.12-.41-.23-.57-.1-.16-.24-.23-.4-.23-.16,0-.28.08-.39.23-.1.15-.18.34-.23.56-.05.22-.08.44-.09.64-.01.2-.02.38-.02.55,0,.2,0,.4.02.6.01.19.05.4.09.61.05.21.13.4.23.55.11.15.24.23.41.23.16,0,.28-.08.38-.23Z"/>
    <path class="cls-5" d="M187.29,161.56h-3.26v.1c0,.22.02.41.03.57,0,.16.04.31.1.48.05.16.13.29.23.4.1.11.24.16.42.16.24,0,.41-.08.51-.23.1-.16.15-.36.15-.61h1.75c-.1.74-.33,1.33-.71,1.77s-.92.66-1.63.66c-.5,0-.93-.1-1.29-.31s-.66-.48-.89-.83c-.23-.35-.39-.74-.5-1.18-.1-.43-.15-.89-.15-1.37s.05-.95.15-1.41c.1-.46.25-.89.47-1.29s.5-.71.87-.94c.37-.23.8-.35,1.31-.35.69,0,1.28.29,1.78.86.49.58.74,1.37.74,2.38,0,.03,0,.08-.01.15v.15l-.04.85ZM185.55,160.12c0-.15,0-.29-.03-.45-.02-.15-.06-.3-.11-.44s-.13-.26-.23-.34-.22-.13-.38-.13c-.15,0-.27.04-.37.13-.1.09-.18.2-.23.34-.05.14-.09.28-.12.42-.02.15-.04.29-.04.42v.22h1.5v-.17Z"/>
    <path class="cls-5" d="M127.83,169.46c-.24-.21-.5-.38-.76-.51-.26-.13-.54-.19-.82-.19-.34,0-.61.1-.8.29s-.29.46-.29.79c0,.35.11.65.33.9.22.25.56.54,1.03.88.3.22.56.42.76.59.2.17.4.38.58.61.19.24.33.52.45.83.11.32.17.67.17,1.07,0,1.01-.28,1.84-.84,2.48-.56.64-1.34.96-2.33.96-.32,0-.65-.05-.99-.15-.34-.1-.63-.23-.88-.41v-2.07c.28.19.55.34.81.44s.54.15.84.15c.36,0,.66-.11.9-.33.24-.22.36-.51.36-.87,0-.32-.09-.58-.26-.78-.17-.2-.43-.42-.78-.65-.08-.06-.16-.12-.25-.18-.69-.47-1.2-.94-1.53-1.42-.33-.48-.5-1.1-.5-1.85,0-.92.26-1.68.77-2.31.51-.62,1.21-.93,2.11-.93.67,0,1.32.18,1.93.54v2.12Z"/>
    <path class="cls-5" d="M132.72,177.16h-.03c-.15.3-.33.54-.56.72-.22.18-.49.26-.8.26-.39,0-.72-.13-.99-.4s-.47-.61-.62-1.02c-.15-.41-.25-.83-.31-1.25-.06-.42-.09-.82-.09-1.18,0-.39.02-.8.07-1.22.05-.42.14-.84.28-1.24.14-.4.34-.73.61-.99s.6-.39,1.01-.39c.33,0,.61.09.85.28.23.19.41.45.54.77h.03v-.91h2.06v7.38h-2.06v-.83ZM132.53,176.02c.1-.16.17-.35.22-.57.05-.22.08-.44.09-.64.01-.2.02-.38.02-.54s0-.33-.02-.53c-.01-.2-.05-.41-.09-.64-.05-.22-.12-.41-.23-.57-.1-.16-.24-.23-.4-.23-.16,0-.28.08-.39.23-.1.15-.18.34-.23.56-.05.22-.08.44-.09.64-.01.2-.02.38-.02.55,0,.2,0,.4.02.6.01.19.05.4.09.61.05.21.13.4.23.55.11.15.24.23.41.23.16,0,.28-.08.38-.23Z"/>
    <path class="cls-5" d="M137.57,170.61l.77,2.98.25,1.23h.03l.96-4.21h2.07l-3.17,11.02h-2.03l1.18-3.78-2.15-7.23h2.07Z"/>
    <path class="cls-5" d="M145.65,177.16h-.03c-.15.3-.33.54-.56.72-.22.18-.49.26-.8.26-.39,0-.72-.13-.99-.4s-.47-.61-.62-1.02c-.15-.41-.25-.83-.31-1.25-.06-.42-.09-.82-.09-1.18,0-.39.02-.8.07-1.22.05-.42.14-.84.28-1.24.14-.4.34-.73.61-.99s.6-.39,1.01-.39c.33,0,.61.09.85.28.23.19.41.45.54.77h.03v-.91h2.06v7.38h-2.06v-.83ZM145.46,176.02c.1-.16.17-.35.22-.57.05-.22.08-.44.09-.64.01-.2.02-.38.02-.54s0-.33-.02-.53c-.01-.2-.05-.41-.09-.64-.05-.22-.12-.41-.23-.57-.1-.16-.24-.23-.4-.23-.16,0-.28.08-.39.23-.1.15-.18.34-.23.56-.05.22-.08.44-.09.64-.01.2-.02.38-.02.55,0,.2,0,.4.02.6.01.19.05.4.09.61.05.21.13.4.23.55.11.15.24.23.41.23.16,0,.28-.08.38-.23Z"/>
    <path class="cls-5" d="M150.47,170.61l.98,4.05v.12h.04l.16-.76.8-3.4h2.13l-2.13,7.38h-1.91l-2.12-7.38h2.05Z"/>
    <path class="cls-5" d="M160.44,174.85h-3.26v.1c0,.22.02.41.03.57,0,.16.04.31.1.48.05.16.13.29.23.4.1.11.24.16.42.16.24,0,.41-.08.51-.23.1-.16.15-.36.15-.61h1.75c-.1.74-.33,1.33-.71,1.77s-.92.66-1.63.66c-.5,0-.93-.1-1.29-.31s-.66-.48-.89-.83c-.23-.35-.39-.74-.5-1.18-.1-.43-.15-.89-.15-1.37s.05-.95.15-1.41c.1-.46.25-.89.47-1.29s.5-.71.87-.94c.37-.23.8-.35,1.31-.35.69,0,1.28.29,1.78.86.49.58.74,1.37.74,2.38,0,.03,0,.08-.01.15v.15l-.04.85ZM158.7,173.4c0-.15,0-.29-.03-.45-.02-.15-.06-.3-.11-.44s-.13-.26-.23-.34-.22-.13-.38-.13c-.15,0-.27.04-.37.13-.1.09-.18.2-.23.34-.05.14-.09.28-.12.42-.02.15-.04.29-.04.42v.22h1.5v-.17Z"/>
    <path class="cls-5" d="M164.63,177.16h-.03c-.15.3-.33.54-.56.72-.22.18-.49.26-.8.26-.39,0-.72-.13-.99-.4s-.47-.61-.62-1.02c-.15-.41-.25-.83-.31-1.25-.06-.42-.09-.82-.09-1.18,0-.39.02-.8.07-1.22.05-.42.14-.84.28-1.24.14-.4.34-.73.61-.99s.6-.39,1.01-.39c.33,0,.61.09.85.28.23.19.41.45.54.77h.03v-5.32h2.06v11.79h-2.06v-.83ZM164.44,176.02c.1-.16.17-.35.22-.57.05-.22.08-.44.09-.64.01-.2.02-.38.02-.54s0-.33-.02-.53c-.01-.2-.05-.41-.09-.64-.05-.22-.12-.41-.23-.57-.1-.16-.24-.23-.4-.23-.16,0-.28.08-.39.23-.1.15-.18.34-.23.56-.05.22-.08.44-.09.64-.01.2-.02.38-.02.55,0,.2,0,.4.02.6.01.19.05.4.09.61.05.21.13.4.23.55.11.15.24.23.41.23.16,0,.28-.08.38-.23Z"/>
    <path class="cls-5" d="M169.76,170.61v.89h.03c.2-.34.44-.61.71-.81s.59-.32.97-.36v2c-.14-.02-.24-.03-.32-.03-.33,0-.59.05-.78.15-.19.1-.33.24-.42.42-.09.18-.14.37-.16.58-.02.21-.03.49-.03.85v3.68h-2.06v-7.38h2.06Z"/>
    <path class="cls-5" d="M175.56,177.16h-.03c-.15.3-.33.54-.56.72-.22.18-.49.26-.8.26-.39,0-.72-.13-.99-.4s-.47-.61-.62-1.02c-.15-.41-.25-.83-.31-1.25-.06-.42-.09-.82-.09-1.18,0-.39.02-.8.07-1.22.05-.42.14-.84.28-1.24.14-.4.34-.73.61-.99s.6-.39,1.01-.39c.33,0,.61.09.85.28.23.19.41.45.54.77h.03v-.91h2.06v7.38h-2.06v-.83ZM175.37,176.02c.1-.16.17-.35.22-.57.05-.22.08-.44.09-.64.01-.2.02-.38.02-.54s0-.33-.02-.53c-.01-.2-.05-.41-.09-.64-.05-.22-.12-.41-.23-.57-.1-.16-.24-.23-.4-.23-.16,0-.28.08-.39.23-.1.15-.18.34-.23.56-.05.22-.08.44-.09.64-.01.2-.02.38-.02.55,0,.2,0,.4.02.6.01.19.05.4.09.61.05.21.13.4.23.55.11.15.24.23.41.23.16,0,.28-.08.38-.23Z"/>
  </g>
  <circle class="cls-2" cx="147.94" cy="84.02" r="63.62"/>
  <rect class="cls-9" x="106.84" y="234.27" width="82.06" height="19.8"/>
  <g>
    <path class="cls-8" d="M129.69,239.91c-.29-.08-.56-.12-.85-.12-1.98,0-2.84,1.8-2.84,3.55s.86,3.78,2.83,3.78c.29,0,.57-.08.86-.17v2.13c-.33.14-.68.2-1.04.2-3.25,0-5.05-2.93-5.05-5.93,0-2.83,1.88-5.73,4.95-5.73.39,0,.77.08,1.15.21v2.07Z"/>
    <path class="cls-8" d="M132.7,236.96v12.2h-2.13v-12.2h2.13Z"/>
    <path class="cls-8" d="M133.44,239.25c0-.77.62-1.35,1.39-1.35s1.32.65,1.32,1.38-.62,1.35-1.36,1.35-1.35-.62-1.35-1.38ZM135.86,241.53v7.64h-2.13v-7.64h2.13Z"/>
    <path class="cls-8" d="M140.79,249.04c-.39.18-.79.27-1.23.27-2.07,0-2.8-2.18-2.8-3.92,0-1.92.76-4.02,2.96-4.02.38,0,.71.08,1.06.23v1.88c-.2-.18-.36-.24-.62-.24-1.04,0-1.27,1.25-1.27,2.04s.17,2.04,1.24,2.04c.24,0,.45-.09.65-.23v1.95Z"/>
    <path class="cls-8" d="M147.51,242.75h.03c.36-.74.97-1.38,1.88-1.38.79,0,1.21.6,1.32,1.3h.03c.35-.68,1.01-1.3,1.83-1.3,1.38,0,1.38,1.53,1.38,2.51v5.28h-2.13v-4.14c0-.39.11-1.51-.53-1.51-.5,0-.57.51-.57.86v4.79h-2.13v-4.28c0-.38.11-1.35-.5-1.35-.53,0-.6.48-.6.88v4.75h-2.13v-7.64h2.13v1.23Z"/>
    <path class="cls-8" d="M158.4,248.3h-.03c-.29.58-.73,1.01-1.41,1.01-1.72,0-2.07-2.75-2.07-3.98,0-1.32.26-3.96,2.04-3.96.71,0,1.2.47,1.44,1.09h.03v-.94h2.13v7.64h-2.13v-.86ZM158.55,245.31c0-.42-.05-2.04-.77-2.04s-.76,1.6-.76,2.04c0,.48.03,2.06.79,2.06.68,0,.74-1.65.74-2.06Z"/>
    <path class="cls-8" d="M163.7,242.47h.03c.24-.62.73-1.09,1.42-1.09,1.8,0,2.04,2.65,2.04,3.96,0,1.23-.32,3.98-2.06,3.98-.7,0-1.13-.44-1.41-1.01h-.03v4.63h-2.13v-11.4h2.13v.94ZM165.07,245.31c0-.44-.06-2.04-.76-2.04s-.76,1.62-.76,2.04.05,2.06.74,2.06c.76,0,.77-1.57.77-2.06Z"/>
    <path class="cls-8" d="M171.96,243.58c-.3-.27-.59-.5-1.03-.5-.38,0-.57.23-.57.56.03.89,2.43.71,2.43,2.99,0,1.51-.88,2.68-2.45,2.68-.82,0-1.66-.35-2.3-.88l.94-1.51c.32.27.64.5,1.06.5.33,0,.62-.24.62-.63.03-1.01-2.43-.76-2.43-3.18,0-1.45,1.21-2.24,2.56-2.24.77,0,1.42.2,2.04.65l-.86,1.56Z"/>
  </g>
  <g>
    <polyline class="cls-7" points="82.7 83.52 91.04 68.68 141.53 68.63 141.53 83.52"/>
    <polyline class="cls-7" points="213.32 83.42 204.98 68.58 154.49 68.53 154.49 83.42"/>
    <polygon class="cls-4" points="116.18 76.52 119.34 72.06 122.32 76.52 122.32 80.84 116.18 80.84 116.18 76.52"/>
    <path class="cls-5" d="M122.62,81.14h-6.74v-4.71l3.47-4.9,3.27,4.9v4.71ZM116.48,80.54h5.55v-3.93l-2.69-4.03-2.86,4.04v3.93Z"/>
    <polygon class="cls-4" points="173.7 76.52 176.87 72.06 179.84 76.52 179.84 80.84 173.7 80.84 173.7 76.52"/>
    <path class="cls-5" d="M180.14,81.14h-6.74v-4.71l3.47-4.9,3.27,4.9v4.71ZM174,80.54h5.55v-3.93l-2.69-4.03-2.86,4.04v3.93Z"/>
    <rect class="cls-5" x="141.53" y="66.1" width="12.96" height="46.37"/>
    <path class="cls-6" d="M154.71,112.69h-13.4v-46.81h13.4v46.81ZM141.76,112.24h12.51v-45.92h-12.51v45.92Z"/>
    <polygon class="cls-7" points="154.49 66.1 141.53 66.1 148.01 54.93 154.49 66.1"/>
    <circle class="cls-5" cx="148.09" cy="75.33" r="4.32"/>
    <path class="cls-6" d="M148.09,79.95c-2.55,0-4.62-2.07-4.62-4.62s2.07-4.62,4.62-4.62,4.62,2.07,4.62,4.62-2.07,4.62-4.62,4.62ZM148.09,71.31c-2.22,0-4.02,1.8-4.02,4.02s1.8,4.02,4.02,4.02,4.02-1.8,4.02-4.02-1.8-4.02-4.02-4.02Z"/>
    <circle class="cls-4" cx="148.16" cy="75.26" r="2.16"/>
    <path class="cls-6" d="M148.16,77.72c-1.36,0-2.46-1.1-2.46-2.46s1.1-2.46,2.46-2.46,2.46,1.1,2.46,2.46-1.1,2.46-2.46,2.46ZM148.16,73.4c-1.03,0-1.86.84-1.86,1.86s.84,1.86,1.86,1.86,1.86-.84,1.86-1.86-.84-1.86-1.86-1.86Z"/>
    <rect class="cls-4" x="141.53" y="67.89" width="12.96" height=".74"/>
    <rect class="cls-4" x="141.53" y="83.05" width="12.96" height=".74"/>
    <rect class="cls-4" x="141.53" y="100.13" width="12.96" height=".74"/>
    <path class="cls-5" d="M82.41,83.36h58.83v29.04h-5.66v-13.15s-.3-7.49-9.16-10.3c0,0-4.6-.96-8.84-1.14,0,0-2.92-.2-6.66.1-3.74.3-7.29,1.04-7.29,1.04-8.86,2.81-9.16,10.3-9.16,10.3v13.15h-12.06v-29.04Z"/>
    <path class="cls-5" d="M141.31,112.47h-5.81v-13.23s-.09-1.88-1.25-4.07c-1.07-2.01-3.31-4.72-7.86-6.16-.04,0-4.64-.96-8.82-1.14-.03,0-2.96-.2-6.65.1-3.69.3-7.24,1.03-7.28,1.04-4.54,1.44-6.78,4.14-7.85,6.16-1.16,2.18-1.25,4.05-1.25,4.07v13.22h-12.21v-29.19h58.98v29.19ZM135.65,112.32h5.52v-28.89h-58.68v28.89h11.91v-13.08s.09-1.92,1.27-4.13c1.09-2.04,3.34-4.78,7.95-6.24.04,0,3.6-.75,7.3-1.05,3.7-.3,6.64-.1,6.67-.1,4.2.18,8.81,1.13,8.85,1.14,4.61,1.46,6.87,4.2,7.95,6.24,1.18,2.21,1.26,4.11,1.27,4.13v13.08Z"/>
    <rect class="cls-5" x="94.47" y="112.4" width="4.24" height=".1"/>
    <rect class="cls-5" x="94.39" y="112.32" width="4.39" height=".25"/>
    <rect class="cls-5" x="131.33" y="112.4" width="4.24" height=".1"/>
    <rect class="cls-5" x="131.25" y="112.32" width="4.39" height=".25"/>
    <path class="cls-5" d="M213.71,83.5h-58.83v29.04h5.66v-13.15s.3-7.49,9.16-10.3c0,0,4.6-.96,8.84-1.14,0,0,2.92-.2,6.66.1,3.74.3,7.29,1.04,7.29,1.04,8.86,2.81,9.16,10.3,9.16,10.3v13.15h12.06v-29.04Z"/>
    <path class="cls-5" d="M213.79,112.62h-12.21v-13.23s-.09-1.88-1.25-4.07c-1.07-2.01-3.31-4.72-7.86-6.16-.03,0-3.58-.74-7.27-1.04-3.69-.3-6.61-.1-6.64-.1-4.19.18-8.79,1.13-8.83,1.14-4.54,1.44-6.78,4.14-7.85,6.16-1.16,2.18-1.25,4.05-1.25,4.07v13.22h-5.81v-29.19h58.98v29.19ZM201.73,112.47h11.91v-28.89h-58.68v28.89h5.51v-13.08s.09-1.92,1.27-4.13c1.09-2.04,3.34-4.78,7.95-6.24.05-.01,4.66-.96,8.86-1.14.03,0,2.96-.2,6.66.1,3.7.3,7.26,1.04,7.3,1.04,4.61,1.46,6.87,4.2,7.95,6.24,1.18,2.21,1.26,4.11,1.27,4.13v13.08Z"/>
    <rect class="cls-5" x="197.41" y="112.54" width="4.24" height=".1"/>
    <rect class="cls-5" x="197.33" y="112.47" width="4.39" height=".25"/>
    <rect class="cls-5" x="160.55" y="112.54" width="4.24" height=".1"/>
    <rect class="cls-5" x="160.48" y="112.47" width="4.39" height=".25"/>
    <path class="cls-4" d="M183.95,91.21c2.67,0,4.81.39,6.52.98,4.1,1.41,6.85,5.3,6.87,9.65l.06,10.81h4.24v-13.29s-.3-7.51-9.16-10.33c0,0-3.55-.74-7.29-1.04-3.74-.3-6.66-.1-6.66-.1-4.24.18-8.84,1.14-8.84,1.14-8.86,2.82-9.16,10.33-9.16,10.33v13.29s4.24,0,4.24,0l.06-10.81c.02-4.35,2.77-8.23,6.87-9.65,1.8-.62,4.07-1.01,6.92-.97h5.3Z"/>
    <path class="cls-4" d="M112.17,91.22c-2.67,0-4.81.39-6.52.98-4.1,1.41-6.85,5.3-6.87,9.65l-.06,10.81h-4.24v-13.29s.3-7.51,9.16-10.33c0,0,3.55-.74,7.29-1.04,3.74-.3,6.66-.1,6.66-.1,4.24.18,8.84,1.14,8.84,1.14,8.86,2.82,9.16,10.33,9.16,10.33v13.29h-4.24l-.06-10.81c-.02-4.35-2.77-8.23-6.87-9.65-1.8-.62-4.07-1.01-6.92-.97h-5.3Z"/>
  </g>
  <path class="cls-3" d="M111.58,202.3h.92v4.88h-.92v-4.88ZM111.98,206.3h1.56c.21,0,.37-.05.49-.15.12-.1.17-.24.17-.43h0c0-.13-.03-.24-.08-.33-.05-.09-.13-.15-.23-.2s-.22-.07-.36-.07h-1.56v-.89h1.56c.19,0,.34-.05.44-.14.1-.1.16-.23.16-.41,0-.16-.05-.28-.16-.37-.1-.09-.25-.13-.44-.13h-1.56v-.89h1.59c.32,0,.59.05.81.16.22.1.39.26.51.45.12.2.17.44.17.71,0,.19-.04.36-.11.51-.08.15-.18.27-.33.36-.14.09-.32.16-.52.19.21.03.4.09.55.2.15.1.27.23.35.4s.12.35.12.57h0c0,.29-.06.53-.18.73-.12.2-.29.35-.51.45-.22.1-.5.16-.81.16h-1.65v-.89Z"/>
  <path class="cls-3" d="M116.87,206.03c0,.08.02.15.07.2.05.05.12.07.21.07h.15v.89h-.47c-.28,0-.5-.08-.65-.24s-.23-.39-.23-.68v-3.96h.92v3.73Z"/>
  <path class="cls-3" d="M119.93,203.7h.92l-1.31,3.49h-.65l-1.31-3.49h.92l.72,2.19.72-2.19Z"/>
  <path class="cls-3" d="M121.76,207.06c-.18-.12-.31-.29-.4-.52-.09-.23-.14-.5-.14-.81v-.56c0-.32.05-.59.14-.82.09-.23.23-.4.4-.52.18-.12.39-.18.63-.18.19,0,.36.06.51.17s.28.27.37.47l-.07.77c0-.12-.02-.22-.06-.3-.04-.08-.1-.15-.18-.19-.08-.04-.17-.07-.28-.07-.17,0-.31.06-.4.18-.1.12-.14.28-.14.5v.55c0,.21.05.37.14.48.1.11.23.17.4.17.11,0,.2-.02.28-.06.08-.04.14-.1.18-.18s.06-.18.06-.29l.05.8c-.07.19-.18.34-.33.44-.15.1-.32.16-.53.16-.25,0-.46-.06-.63-.18ZM123.2,202.3h.92v4.88h-.92v-4.88Z"/>
  <path class="cls-3" d="M124.88,206.26h.92v.92h-.92v-.92Z"/>
  <path class="cls-3" d="M129.61,207.24s-.13-.07-.4-.21c-.26-.14-.47-.35-.6-.62s-.21-.6-.21-.99v-1.34c0-.39.07-.71.21-.99s.34-.48.6-.62c.26-.14.58-.22.95-.22.31,0,.58.07.82.2.24.13.44.32.6.58s.27.56.33.91h-.95c-.04-.16-.09-.3-.17-.41-.07-.11-.17-.2-.27-.26s-.23-.09-.36-.09c-.17,0-.32.04-.44.11s-.21.17-.28.31c-.06.14-.1.3-.1.49v1.34c0,.19.03.35.1.49.06.13.16.24.28.31s.27.11.44.11c.13,0,.26-.03.36-.09.11-.06.2-.15.27-.26.07-.11.13-.25.16-.42h.95c-.06.36-.17.66-.33.91s-.36.44-.6.58c-.24.13-.51.2-.82.2h-.56Z"/>
  <path class="cls-3" d="M133.28,207.06c-.22-.12-.4-.29-.51-.52-.12-.23-.18-.5-.18-.82v-.57c0-.32.06-.59.18-.81.12-.22.29-.4.51-.51.23-.12.5-.18.81-.18s.59.06.81.18c.22.12.4.29.51.51.12.23.18.5.18.81v.58c0,.32-.06.59-.18.81s-.29.4-.51.52c-.23.12-.5.18-.81.18s-.59-.06-.81-.18ZM134.52,206.19c.1-.11.15-.26.15-.46v-.58c0-.19-.05-.35-.15-.45-.1-.11-.25-.16-.43-.16s-.33.05-.43.16c-.1.11-.15.26-.15.45v.58c0,.2.05.35.15.46.1.11.24.16.43.16s.33-.05.43-.16Z"/>
  <path class="cls-3" d="M136.44,203.7h.92v3.49h-.92v-3.49ZM138.45,205.07c0-.17-.05-.3-.15-.4-.1-.09-.24-.14-.41-.14s-.3.05-.39.14c-.09.1-.14.23-.14.4l-.07-.77c.11-.22.23-.38.38-.49.15-.11.33-.16.55-.16.37,0,.65.12.85.37s.3.6.3,1.05v2.12h-.92v-2.11Z"/>
  <path class="cls-3" d="M140.72,207.06c-.18-.12-.31-.29-.4-.52-.09-.23-.14-.5-.14-.81v-.56c0-.32.05-.59.14-.82.09-.23.23-.4.4-.52.18-.12.39-.18.63-.18.19,0,.36.06.51.17s.28.27.37.47l-.07.77c0-.12-.02-.22-.06-.3-.04-.08-.1-.15-.18-.19-.08-.04-.17-.07-.28-.07-.17,0-.31.06-.4.18-.1.12-.14.28-.14.5v.55c0,.21.05.37.14.48.1.11.23.17.4.17.11,0,.2-.02.28-.06.08-.04.14-.1.18-.18s.06-.18.06-.29l.05.8c-.07.19-.18.34-.33.44-.15.1-.32.16-.53.16-.25,0-.46-.06-.63-.18ZM142.16,202.3h.92v4.88h-.92v-4.88Z"/>
  <path class="cls-3" d="M144.1,206.97c-.18-.18-.28-.45-.28-.81s.1-.6.31-.78c.21-.17.52-.26.93-.26h.87l.05.7h-.92c-.14,0-.24.03-.31.08s-.1.14-.1.25.04.2.13.25.22.08.4.08c.25,0,.43-.03.55-.08s.18-.14.18-.26l.07.51c-.01.13-.07.23-.17.32-.1.09-.23.15-.38.2-.15.04-.32.07-.49.07-.37,0-.65-.09-.84-.27ZM145.91,204.98c0-.16-.05-.29-.16-.37-.11-.09-.26-.13-.46-.13-.13,0-.26.02-.39.06s-.24.1-.34.18l-.57-.56c.14-.16.32-.28.55-.37.23-.09.48-.13.76-.13.3,0,.56.05.78.15.21.1.38.25.49.44.11.19.17.43.17.7v2.24h-.84v-2.21Z"/>
  <path class="cls-3" d="M148.09,207.06c-.18-.12-.31-.29-.4-.52-.09-.23-.14-.5-.14-.81v-.56c0-.32.05-.59.14-.82.09-.23.23-.4.4-.52.18-.12.39-.18.63-.18.19,0,.36.06.51.17s.28.27.37.47l-.07.77c0-.12-.02-.22-.06-.3-.04-.08-.1-.15-.18-.19-.08-.04-.17-.07-.28-.07-.17,0-.31.06-.4.18-.1.12-.14.28-.14.5v.55c0,.21.05.37.14.48.1.11.23.17.4.17.11,0,.2-.02.28-.06.08-.04.14-.1.18-.18s.06-.18.06-.29l.05.8c-.07.19-.18.34-.33.44-.15.1-.32.16-.53.16-.25,0-.46-.06-.63-.18ZM149.53,202.3h.92v4.88h-.92v-4.88Z"/>
  <path class="cls-3" d="M151.95,207.06c-.22-.12-.4-.29-.51-.52-.12-.23-.18-.5-.18-.82v-.57c0-.32.06-.59.18-.81.12-.22.29-.4.51-.51.23-.12.5-.18.81-.18s.59.06.81.18c.22.12.4.29.51.51.12.23.18.5.18.81v.58c0,.32-.06.59-.18.81s-.29.4-.51.52c-.23.12-.5.18-.81.18s-.59-.06-.81-.18ZM153.19,206.19c.1-.11.15-.26.15-.46v-.58c0-.19-.05-.35-.15-.45-.1-.11-.25-.16-.43-.16s-.33.05-.43.16c-.1.11-.15.26-.15.45v.58c0,.2.05.35.15.46.1.11.24.16.43.16s.33-.05.43-.16Z"/>
  <path class="cls-3" d="M157.39,207.06c-.18-.12-.31-.29-.4-.52-.09-.23-.14-.5-.14-.81v-.56c0-.32.05-.59.14-.82.09-.23.23-.4.4-.52.18-.12.39-.18.63-.18.19,0,.36.06.51.17.15.11.28.27.37.47l-.07.77c0-.12-.02-.22-.06-.3-.04-.08-.1-.15-.18-.19-.08-.04-.17-.07-.28-.07-.17,0-.31.06-.4.18-.1.12-.14.28-.14.5v.55c0,.21.05.37.14.48.1.11.23.17.4.17.11,0,.2-.02.28-.06.08-.04.14-.1.18-.18s.06-.18.06-.29l.05.8c-.07.19-.18.34-.33.44-.15.1-.32.16-.53.16-.25,0-.46-.06-.63-.18ZM158.84,202.3h.92v4.88h-.92v-4.88Z"/>
  <path class="cls-3" d="M161.66,207.24s-.12-.06-.36-.18c-.24-.12-.42-.3-.55-.53-.13-.23-.19-.52-.19-.84v-.39c0-.35.06-.64.18-.88s.29-.43.52-.56c.23-.13.51-.19.83-.19.3,0,.57.08.78.23.22.15.38.37.5.66s.17.64.17,1.05v.23h-2.38v-.62h1.55v-.08c-.03-.2-.1-.36-.2-.47-.1-.11-.24-.16-.41-.16-.22,0-.39.07-.52.2-.12.13-.18.32-.18.56v.44c0,.24.07.42.2.55.13.13.32.19.56.19.12,0,.25-.02.37-.07.12-.04.23-.11.33-.19l.6.53c-.18.17-.39.29-.61.38-.23.09-.45.14-.69.14h-.5Z"/>
  <path class="cls-3" d="M167.45,207.24s-.11-.02-.33-.07-.43-.12-.63-.21c-.2-.09-.37-.2-.53-.33l.43-.76c.19.15.41.27.65.36s.5.13.76.13c.3,0,.53-.05.7-.15.17-.1.25-.25.25-.43h0c0-.13-.04-.24-.11-.31-.07-.08-.17-.13-.29-.17-.12-.04-.27-.07-.46-.1,0,0-.01,0-.02,0,0,0-.01,0-.02,0h-.07c-.33-.06-.6-.13-.81-.2-.22-.08-.4-.21-.55-.41s-.22-.47-.22-.82h0c0-.32.07-.59.21-.81s.35-.39.61-.51c.27-.12.59-.18.97-.18.17,0,.35.02.54.06s.36.1.54.17c.17.08.34.17.5.28l-.39.78c-.19-.13-.38-.23-.59-.3-.2-.07-.4-.11-.59-.11-.28,0-.5.05-.65.14-.15.09-.23.22-.23.39h0c0,.14.04.26.12.34.08.08.18.14.3.18.12.04.29.08.5.12,0,0,.02,0,.03,0,0,0,.02,0,.03,0,.01,0,.03,0,.04,0,.01,0,.03,0,.04,0,.31.06.57.13.77.22.21.09.38.22.52.42.14.19.21.45.21.78h0c0,.32-.07.58-.22.81-.15.22-.36.39-.64.51-.28.12-.61.17-1.01.17h-.35Z"/>
  <path class="cls-3" d="M170.55,206.97c-.18-.18-.28-.45-.28-.81s.1-.6.31-.78c.21-.17.52-.26.93-.26h.87l.05.7h-.92c-.14,0-.24.03-.31.08s-.1.14-.1.25.04.2.13.25.22.08.4.08c.25,0,.43-.03.55-.08s.18-.14.18-.26l.07.51c-.01.13-.07.23-.17.32-.1.09-.23.15-.38.2-.15.04-.32.07-.49.07-.37,0-.65-.09-.84-.27ZM172.35,204.98c0-.16-.05-.29-.16-.37-.11-.09-.26-.13-.46-.13-.13,0-.26.02-.39.06s-.24.1-.34.18l-.57-.56c.14-.16.32-.28.55-.37.23-.09.48-.13.76-.13.3,0,.56.05.78.15.21.1.38.25.49.44.11.19.17.43.17.7v2.24h-.84v-2.21Z"/>
  <path class="cls-3" d="M173.63,203.7h.87l1.17,3.03-.58.74-1.46-3.77ZM176.85,203.7l-1.55,4.3c-.06.16-.13.29-.22.38-.09.09-.19.16-.32.2-.13.04-.28.06-.47.06h-.2v-.89h.2c.1,0,.18-.02.25-.07.07-.04.12-.11.15-.21l1.29-3.77h.87Z"/>
  <path class="cls-3" d="M177.43,206.97c-.18-.18-.28-.45-.28-.81s.1-.6.31-.78c.21-.17.52-.26.93-.26h.87l.05.7h-.92c-.14,0-.24.03-.31.08s-.1.14-.1.25.04.2.13.25.22.08.4.08c.25,0,.43-.03.55-.08s.18-.14.18-.26l.07.51c-.01.13-.07.23-.17.32-.1.09-.23.15-.38.2-.15.04-.32.07-.49.07-.37,0-.65-.09-.84-.27ZM179.24,204.98c0-.16-.05-.29-.16-.37-.11-.09-.26-.13-.46-.13-.13,0-.26.02-.39.06s-.24.1-.34.18l-.57-.56c.14-.16.32-.28.55-.37.23-.09.48-.13.76-.13.3,0,.56.05.78.15.21.1.38.25.49.44.11.19.17.43.17.7v2.24h-.84v-2.21Z"/>
  <path class="cls-3" d="M182.87,203.7h.92l-1.31,3.49h-.65l-1.31-3.49h.92l.72,2.19.72-2.19Z"/>
  <path class="cls-3" d="M185.24,207.24s-.12-.06-.36-.18c-.24-.12-.42-.3-.55-.53-.13-.23-.19-.52-.19-.84v-.39c0-.35.06-.64.18-.88s.29-.43.52-.56c.23-.13.51-.19.83-.19.3,0,.57.08.78.23.22.15.38.37.5.66s.17.64.17,1.05v.23h-2.38v-.62h1.55v-.08c-.03-.2-.1-.36-.2-.47-.1-.11-.24-.16-.41-.16-.22,0-.39.07-.52.2-.12.13-.18.32-.18.56v.44c0,.24.07.42.2.55.13.13.32.19.56.19.12,0,.25-.02.37-.07.12-.04.23-.11.33-.19l.6.53c-.18.17-.39.29-.61.38-.23.09-.45.14-.69.14h-.5Z"/>
  <path class="cls-3" d="M188.38,207.06c-.18-.12-.31-.29-.4-.52-.09-.23-.14-.5-.14-.81v-.56c0-.32.05-.59.14-.82.09-.23.23-.4.4-.52.18-.12.39-.18.63-.18.19,0,.36.06.51.17s.28.27.37.47l-.07.77c0-.12-.02-.22-.06-.3-.04-.08-.1-.15-.18-.19-.08-.04-.17-.07-.28-.07-.17,0-.31.06-.4.18-.1.12-.14.28-.14.5v.55c0,.21.05.37.14.48.1.11.23.17.4.17.11,0,.2-.02.28-.06.08-.04.14-.1.18-.18s.06-.18.06-.29l.05.8c-.07.19-.18.34-.33.44-.15.1-.32.16-.53.16-.25,0-.46-.06-.63-.18ZM189.82,202.3h.92v4.88h-.92v-4.88Z"/>
  <path class="cls-3" d="M191.65,203.7h.99v3.49h-.99v-3.49ZM193.45,204.57c-.06-.02-.14-.03-.22-.03-.19,0-.33.06-.43.18-.1.12-.15.29-.15.5l-.07-.91c.1-.21.22-.37.37-.49.15-.12.32-.17.51-.17.15,0,.28.02.39.07s.22.11.31.2l-.54.75s-.1-.08-.16-.1Z"/>
  <path class="cls-3" d="M194.7,206.97c-.18-.18-.28-.45-.28-.81s.1-.6.31-.78c.21-.17.52-.26.93-.26h.87l.05.7h-.92c-.14,0-.24.03-.31.08s-.1.14-.1.25.04.2.13.25.22.08.4.08c.25,0,.43-.03.55-.08s.18-.14.18-.26l.07.51c-.01.13-.07.23-.17.32-.1.09-.23.15-.38.2-.15.04-.32.07-.49.07-.37,0-.65-.09-.84-.27ZM196.5,204.98c0-.16-.05-.29-.16-.37-.11-.09-.26-.13-.46-.13-.13,0-.26.02-.39.06s-.24.1-.34.18l-.57-.56c.14-.16.32-.28.55-.37.23-.09.48-.13.76-.13.3,0,.56.05.78.15.21.1.38.25.49.44.11.19.17.43.17.7v2.24h-.84v-2.21Z"/>
  <path class="cls-3" d="M111.89,215.73c-.21-.54-.31-1.13-.31-1.77s.1-1.24.31-1.77.52-1.02.95-1.45l.54.66c-.3.35-.53.73-.68,1.16s-.23.89-.23,1.41.08.98.23,1.41c.15.43.38.81.68,1.16l-.54.66c-.42-.43-.74-.92-.95-1.45Z"/>
  <path class="cls-3" d="M113.85,212.64h.99v3.49h-.99v-3.49ZM115.64,213.51c-.06-.02-.14-.03-.22-.03-.19,0-.33.06-.43.18-.1.12-.15.29-.15.5l-.07-.91c.1-.21.22-.37.37-.49.15-.12.32-.17.51-.17.15,0,.28.02.39.07s.22.11.31.2l-.54.75s-.1-.08-.16-.1Z"/>
  <path class="cls-3" d="M117.7,214.76c0,.17.05.3.14.39.1.09.23.14.4.14s.31-.05.4-.14c.09-.1.14-.23.14-.41l.05.76c-.06.19-.17.35-.32.48-.15.13-.34.2-.55.2-.37,0-.66-.12-.87-.36-.2-.24-.31-.58-.31-1.02v-2.15h.92v2.12ZM118.79,212.64h.92v3.49h-.92v-3.49Z"/>
  <path class="cls-3" d="M120.61,212.64h.92v3.49h-.92v-3.49ZM122.64,214.12c0-.2-.05-.36-.15-.47s-.24-.17-.43-.17c-.17,0-.3.05-.39.14-.09.1-.14.23-.14.4l-.07-.77c.1-.22.23-.38.39-.49.15-.11.34-.17.54-.17.25,0,.46.06.63.18.18.12.31.29.4.52.09.23.14.5.14.82v2.02h-.92v-2.01ZM124.67,214.12c0-.2-.05-.36-.15-.47-.1-.11-.24-.17-.41-.17s-.31.05-.41.16c-.1.11-.14.26-.14.45l-.17-.81c.11-.22.25-.39.43-.51.18-.12.37-.18.59-.18.25,0,.46.06.64.18.18.12.31.29.41.52.09.23.14.5.14.82v2.02h-.92v-2.01Z"/>
  <path class="cls-3" d="M126.5,211.24h.92v4.88h-.92v-4.88ZM127.7,216.02c-.15-.1-.26-.25-.33-.44l.05-.8c0,.11.02.21.06.29s.1.14.18.18.17.06.28.06c.17,0,.31-.06.4-.17.1-.11.14-.27.14-.48v-.55c0-.21-.05-.38-.14-.5-.1-.12-.23-.18-.4-.18-.11,0-.2.02-.28.07-.08.04-.14.11-.18.19-.04.08-.06.18-.06.3l-.07-.77c.09-.2.22-.36.37-.47s.32-.17.51-.17c.25,0,.46.06.63.18.18.12.31.29.4.52.09.23.14.5.14.82v.56c0,.32-.05.59-.14.81-.09.23-.23.4-.4.52-.18.12-.39.18-.63.18-.2,0-.38-.05-.53-.16Z"/>
  <path class="cls-3" d="M130.83,216c-.22-.12-.4-.29-.51-.52-.12-.23-.18-.5-.18-.82v-.57c0-.32.06-.59.18-.81.12-.22.29-.4.51-.51.23-.12.5-.18.81-.18s.59.06.81.18c.22.12.4.29.51.51.12.23.18.5.18.81v.58c0,.32-.06.59-.18.81s-.29.4-.51.52c-.23.12-.5.18-.81.18s-.59-.06-.81-.18ZM132.08,215.13c.1-.11.15-.26.15-.46v-.58c0-.19-.05-.35-.15-.45-.1-.11-.25-.16-.43-.16s-.33.05-.43.16c-.1.11-.15.26-.15.45v.58c0,.2.05.35.15.46.1.11.24.16.43.16s.33-.05.43-.16Z"/>
  <path class="cls-3" d="M135.95,215.91c-.18-.18-.28-.45-.28-.81s.1-.6.31-.78c.21-.17.52-.26.93-.26h.87l.05.7h-.92c-.14,0-.24.03-.31.08s-.1.14-.1.25.04.2.13.25.22.08.4.08c.25,0,.43-.03.55-.08s.18-.14.18-.26l.07.51c-.01.13-.07.23-.17.32-.1.09-.23.15-.38.2-.15.04-.32.07-.49.07-.37,0-.65-.09-.84-.27ZM137.76,213.92c0-.16-.05-.29-.16-.37-.11-.09-.26-.13-.46-.13-.13,0-.26.02-.39.06s-.24.1-.34.18l-.57-.56c.14-.16.32-.28.55-.37.23-.09.48-.13.76-.13.3,0,.56.05.78.15.21.1.38.25.49.44.11.19.17.43.17.7v2.24h-.84v-2.21Z"/>
  <path class="cls-3" d="M142.37,216.18s-.1-.02-.3-.06c-.2-.04-.38-.09-.55-.16-.17-.07-.32-.16-.46-.26l.57-.71c.17.11.34.19.53.25.18.06.36.09.52.09.21,0,.38-.02.5-.07s.18-.12.18-.2c0-.08-.03-.14-.08-.18s-.12-.07-.2-.09c-.08-.02-.19-.03-.34-.05-.04,0-.08,0-.12-.01-.04,0-.08,0-.13-.01,0,0-.02,0-.03,0-.01,0-.02,0-.03,0-.26-.03-.47-.07-.63-.12-.16-.05-.29-.14-.4-.28-.11-.14-.16-.34-.16-.61,0-.23.06-.43.17-.6s.27-.29.49-.38.47-.13.77-.13c.18,0,.35.02.53.05.18.04.34.09.51.15.16.07.31.15.45.24l-.55.67c-.15-.08-.31-.15-.48-.2-.17-.05-.32-.07-.48-.07-.19,0-.33.02-.43.06-.1.04-.15.1-.15.18,0,.06.03.1.08.14.05.03.12.06.2.07.08.01.2.03.36.05h.06s.04.01.06.01c0,0,.02,0,.03,0s.02,0,.03,0c.27.03.49.07.66.12.17.05.32.15.44.3.12.15.18.36.18.65,0,.24-.06.45-.17.62-.12.17-.29.3-.51.39-.22.09-.49.14-.81.14h-.31Z"/>
  <path class="cls-3" d="M145.03,215.91c-.18-.18-.28-.45-.28-.81s.1-.6.31-.78c.21-.17.52-.26.93-.26h.87l.05.7h-.92c-.14,0-.24.03-.31.08s-.1.14-.1.25.04.2.13.25.22.08.4.08c.25,0,.43-.03.55-.08s.18-.14.18-.26l.07.51c-.01.13-.07.23-.17.32-.1.09-.23.15-.38.2-.15.04-.32.07-.49.07-.37,0-.65-.09-.84-.27ZM146.83,213.92c0-.16-.05-.29-.16-.37-.11-.09-.26-.13-.46-.13-.13,0-.26.02-.39.06s-.24.1-.34.18l-.57-.56c.14-.16.32-.28.55-.37.23-.09.48-.13.76-.13.3,0,.56.05.78.15.21.1.38.25.49.44.11.19.17.43.17.7v2.24h-.84v-2.21Z"/>
  <path class="cls-3" d="M149.5,214.98c0,.08.02.15.07.2.05.05.12.07.21.07h.15v.89h-.47c-.28,0-.5-.08-.65-.24s-.23-.39-.23-.68v-3.96h.92v3.73Z"/>
  <path class="cls-3" d="M150.52,211.24h.92v.92h-.92v-.92ZM150.52,212.64h.92v3.49h-.92v-3.49Z"/>
  <path class="cls-3" d="M152.74,216c-.18-.12-.31-.29-.4-.52-.09-.23-.14-.5-.14-.81v-.56c0-.32.05-.59.14-.82.09-.23.23-.4.4-.52.18-.12.39-.18.63-.18.19,0,.36.06.51.17s.28.27.37.47l-.07.77c0-.12-.02-.22-.06-.3-.04-.08-.1-.15-.18-.19-.08-.04-.17-.07-.28-.07-.17,0-.31.06-.4.18-.1.12-.14.28-.14.5v.55c0,.21.05.37.14.48.1.11.23.17.4.17.11,0,.2-.02.28-.06.08-.04.14-.1.18-.18s.06-.18.06-.29l.05.8c-.07.19-.18.34-.33.44-.15.1-.32.16-.53.16-.25,0-.46-.06-.63-.18ZM154.18,211.24h.92v4.88h-.92v-4.88Z"/>
  <path class="cls-3" d="M156.11,215.91c-.18-.18-.28-.45-.28-.81s.1-.6.31-.78c.21-.17.52-.26.93-.26h.87l.05.7h-.92c-.14,0-.24.03-.31.08s-.1.14-.1.25.04.2.13.25.22.08.4.08c.25,0,.43-.03.55-.08s.18-.14.18-.26l.07.51c-.01.13-.07.23-.17.32-.1.09-.23.15-.38.2-.15.04-.32.07-.49.07-.37,0-.65-.09-.84-.27ZM157.92,213.92c0-.16-.05-.29-.16-.37-.11-.09-.26-.13-.46-.13-.13,0-.26.02-.39.06s-.24.1-.34.18l-.57-.56c.14-.16.32-.28.55-.37.23-.09.48-.13.76-.13.3,0,.56.05.78.15.21.1.38.25.49.44.11.19.17.43.17.7v2.24h-.84v-2.21Z"/>
  <path class="cls-3" d="M161.62,215.91c-.18-.18-.28-.45-.28-.81s.1-.6.31-.78c.21-.17.52-.26.93-.26h.87l.05.7h-.92c-.14,0-.24.03-.31.08s-.1.14-.1.25.04.2.13.25.22.08.4.08c.25,0,.43-.03.55-.08s.18-.14.18-.26l.07.51c-.01.13-.07.23-.17.32-.1.09-.23.15-.38.2-.15.04-.32.07-.49.07-.37,0-.65-.09-.84-.27ZM163.43,213.92c0-.16-.05-.29-.16-.37-.11-.09-.26-.13-.46-.13-.13,0-.26.02-.39.06s-.24.1-.34.18l-.57-.56c.14-.16.32-.28.55-.37.23-.09.48-.13.76-.13.3,0,.56.05.78.15.21.1.38.25.49.44.11.19.17.43.17.7v2.24h-.84v-2.21Z"/>
  <path class="cls-3" d="M165.18,212.64h.99v3.49h-.99v-3.49ZM166.97,213.51c-.06-.02-.14-.03-.22-.03-.19,0-.33.06-.43.18-.1.12-.15.29-.15.5l-.07-.91c.1-.21.22-.37.37-.49.15-.12.32-.17.51-.17.15,0,.28.02.39.07s.22.11.31.2l-.54.75s-.1-.08-.16-.1Z"/>
  <path class="cls-3" d="M169.02,216.18l-.35-.19c-.24-.13-.42-.31-.54-.55-.12-.24-.18-.53-.18-.87v-.37c0-.34.06-.63.18-.87s.3-.42.54-.55c.24-.13.52-.19.85-.19.19,0,.37.02.54.07s.32.11.46.19c.13.08.25.18.34.3l-.59.58c-.08-.08-.18-.14-.3-.18-.11-.04-.23-.07-.36-.07-.23,0-.41.06-.54.19-.13.12-.19.3-.19.53v.37c0,.23.06.41.19.54s.31.19.54.19c.13,0,.25-.02.36-.07.11-.05.21-.11.3-.2l.59.61c-.09.12-.21.22-.34.3-.13.08-.29.14-.45.19-.17.04-.35.06-.54.06h-.5Z"/>
  <path class="cls-3" d="M172.06,216c-.22-.12-.4-.29-.51-.52-.12-.23-.18-.5-.18-.82v-.57c0-.32.06-.59.18-.81.12-.22.29-.4.51-.51.23-.12.5-.18.81-.18s.59.06.81.18c.22.12.4.29.51.51.12.23.18.5.18.81v.58c0,.32-.06.59-.18.81s-.29.4-.51.52c-.23.12-.5.18-.81.18s-.59-.06-.81-.18ZM173.31,215.13c.1-.11.15-.26.15-.46v-.58c0-.19-.05-.35-.15-.45-.1-.11-.25-.16-.43-.16s-.33.05-.43.16c-.1.11-.15.26-.15.45v.58c0,.2.05.35.15.46.1.11.24.16.43.16s.33-.05.43-.16Z"/>
  <path class="cls-3" d="M176.24,216.18s-.1-.02-.3-.06c-.2-.04-.38-.09-.55-.16-.17-.07-.32-.16-.46-.26l.57-.71c.17.11.34.19.53.25.18.06.36.09.52.09.21,0,.38-.02.5-.07s.18-.12.18-.2c0-.08-.03-.14-.08-.18s-.12-.07-.2-.09c-.08-.02-.19-.03-.34-.05-.04,0-.08,0-.12-.01-.04,0-.08,0-.13-.01,0,0-.02,0-.03,0-.01,0-.02,0-.03,0-.26-.03-.47-.07-.63-.12-.16-.05-.29-.14-.4-.28-.11-.14-.16-.34-.16-.61,0-.23.06-.43.17-.6s.27-.29.49-.38.47-.13.77-.13c.18,0,.35.02.53.05.18.04.34.09.51.15.16.07.31.15.45.24l-.55.67c-.15-.08-.31-.15-.48-.2-.17-.05-.32-.07-.48-.07-.19,0-.33.02-.43.06-.1.04-.15.1-.15.18,0,.06.03.1.08.14.05.03.12.06.2.07.08.01.2.03.36.05h.06s.04.01.06.01c0,0,.02,0,.03,0s.02,0,.03,0c.27.03.49.07.66.12.17.05.32.15.44.3.12.15.18.36.18.65,0,.24-.06.45-.17.62-.12.17-.29.3-.51.39-.22.09-.49.14-.81.14h-.31Z"/>
  <path class="cls-3" d="M178.64,215.21h.92v1.2l-.92.88v-2.08Z"/>
  <path class="cls-3" d="M182.3,215.91c-.18-.18-.28-.45-.28-.81s.1-.6.31-.78c.21-.17.52-.26.93-.26h.87l.05.7h-.92c-.14,0-.24.03-.31.08s-.1.14-.1.25.04.2.13.25.22.08.4.08c.25,0,.43-.03.55-.08s.18-.14.18-.26l.07.51c-.01.13-.07.23-.17.32-.1.09-.23.15-.38.2-.15.04-.32.07-.49.07-.37,0-.65-.09-.84-.27ZM184.11,213.92c0-.16-.05-.29-.16-.37-.11-.09-.26-.13-.46-.13-.13,0-.26.02-.39.06-.13.04-.24.1-.34.18l-.57-.56c.14-.16.32-.28.55-.37.23-.09.48-.13.76-.13.3,0,.56.05.78.15.21.1.38.25.49.44.11.19.17.43.17.7v2.24h-.84v-2.21Z"/>
  <path class="cls-3" d="M185.86,212.64h.92v3.49h-.92v-3.49ZM187.87,214.02c0-.17-.05-.3-.15-.4-.1-.09-.24-.14-.41-.14s-.3.05-.39.14c-.09.1-.14.23-.14.4l-.07-.77c.11-.22.23-.38.38-.49.15-.11.33-.16.55-.16.37,0,.65.12.85.37s.3.6.3,1.05v2.12h-.92v-2.11Z"/>
  <path class="cls-3" d="M189.43,212.64h1.71v.79h-1.71v-.79ZM190,215.91c-.14-.16-.21-.39-.21-.69v-3.59h.92v3.37c0,.09.02.15.05.2.03.05.08.07.15.07h.23v.89h-.46c-.3,0-.53-.08-.67-.23Z"/>
  <path class="cls-3" d="M192.93,216.18s-.12-.06-.36-.18c-.24-.12-.42-.3-.55-.53-.13-.23-.19-.52-.19-.84v-.39c0-.35.06-.64.18-.88s.29-.43.52-.56c.23-.13.51-.19.83-.19.3,0,.57.08.78.23.22.15.38.37.5.66s.17.64.17,1.05v.23h-2.38v-.62h1.55v-.08c-.03-.2-.1-.36-.2-.47-.1-.11-.24-.16-.41-.16-.22,0-.39.07-.52.2-.12.13-.18.32-.18.56v.44c0,.24.07.42.2.55.13.13.32.19.56.19.12,0,.25-.02.37-.07.12-.04.23-.11.33-.19l.6.53c-.18.17-.39.29-.61.38-.23.09-.45.14-.69.14h-.5Z"/>
  <path class="cls-3" d="M196.65,216.18s-.1-.02-.3-.06c-.2-.04-.38-.09-.55-.16-.17-.07-.32-.16-.46-.26l.57-.71c.17.11.34.19.53.25.18.06.36.09.52.09.21,0,.38-.02.5-.07s.18-.12.18-.2c0-.08-.03-.14-.08-.18s-.12-.07-.2-.09c-.08-.02-.19-.03-.34-.05-.04,0-.08,0-.12-.01-.04,0-.08,0-.13-.01,0,0-.02,0-.03,0-.01,0-.02,0-.03,0-.26-.03-.47-.07-.63-.12-.16-.05-.29-.14-.4-.28-.11-.14-.16-.34-.16-.61,0-.23.06-.43.17-.6s.27-.29.49-.38.47-.13.77-.13c.18,0,.35.02.53.05.18.04.34.09.51.15.16.07.31.15.45.24l-.55.67c-.15-.08-.31-.15-.48-.2-.17-.05-.32-.07-.48-.07-.19,0-.33.02-.43.06-.1.04-.15.1-.15.18,0,.06.03.1.08.14.05.03.12.06.2.07.08.01.2.03.36.05h.06s.04.01.06.01c0,0,.02,0,.03,0s.02,0,.03,0c.27.03.49.07.66.12.17.05.32.15.44.3.12.15.18.36.18.65,0,.24-.06.45-.17.62-.12.17-.29.3-.51.39-.22.09-.49.14-.81.14h-.31Z"/>
  <path class="cls-3" d="M111.95,224.95c-.18-.12-.31-.29-.4-.52-.09-.23-.14-.5-.14-.81v-.56c0-.32.05-.59.14-.82.09-.23.23-.4.4-.52.18-.12.39-.18.63-.18.19,0,.36.06.51.17s.28.27.37.47l-.07.77c0-.12-.02-.22-.06-.3-.04-.08-.1-.15-.18-.19-.08-.04-.17-.07-.28-.07-.17,0-.31.06-.4.18-.1.12-.14.28-.14.5v.55c0,.21.05.37.14.48.1.11.23.17.4.17.11,0,.2-.02.28-.06.08-.04.14-.1.18-.18s.06-.18.06-.29l.05.8c-.07.19-.18.34-.33.44-.15.1-.32.16-.53.16-.25,0-.46-.06-.63-.18ZM113.39,220.19h.92v4.88h-.92v-4.88Z"/>
  <path class="cls-3" d="M116.21,225.12s-.12-.06-.36-.18c-.24-.12-.42-.3-.55-.53-.13-.23-.19-.52-.19-.84v-.39c0-.35.06-.64.18-.88.12-.24.29-.43.52-.56.23-.13.51-.19.83-.19.3,0,.57.08.78.23.22.15.38.37.5.66s.17.64.17,1.05v.23h-2.38v-.62h1.55v-.08c-.03-.2-.1-.36-.2-.47-.1-.11-.24-.16-.41-.16-.22,0-.39.07-.52.2-.12.13-.18.32-.18.56v.44c0,.24.07.42.2.55.13.13.32.19.56.19.12,0,.25-.02.37-.07.12-.04.23-.11.33-.19l.6.53c-.18.17-.39.29-.61.38-.23.09-.45.14-.69.14h-.5Z"/>
  <path class="cls-3" d="M119.83,223.92c0,.08.02.15.07.2.05.05.12.07.21.07h.15v.89h-.47c-.28,0-.5-.08-.65-.24s-.23-.39-.23-.68v-3.96h.92v3.73Z"/>
  <path class="cls-3" d="M122.75,221.59h.92v4.9h-.92v-4.9ZM123.95,224.97c-.15-.1-.26-.25-.33-.44l.05-.8c0,.11.02.21.06.29s.1.14.18.18.17.06.28.06c.17,0,.31-.06.4-.17.1-.11.14-.27.14-.48v-.55c0-.21-.05-.38-.14-.5-.1-.12-.23-.18-.4-.18-.11,0-.2.02-.28.07-.08.04-.14.11-.18.19-.04.08-.06.18-.06.3l-.07-.77c.09-.2.22-.36.37-.47s.32-.17.51-.17c.25,0,.46.06.63.18.18.12.31.29.4.52.09.23.14.5.14.82v.56c0,.32-.05.59-.14.81-.09.23-.23.4-.4.52-.18.12-.39.18-.63.18-.2,0-.38-.05-.53-.16Z"/>
  <path class="cls-3" d="M126.6,224.86c-.18-.18-.28-.45-.28-.81s.1-.6.31-.78c.21-.17.52-.26.93-.26h.87l.05.7h-.92c-.14,0-.24.03-.31.08s-.1.14-.1.25.04.2.13.25.22.08.4.08c.25,0,.43-.03.55-.08s.18-.14.18-.26l.07.51c-.01.13-.07.23-.17.32-.1.09-.23.15-.38.2-.15.04-.32.07-.49.07-.37,0-.65-.09-.84-.27ZM128.41,222.86c0-.16-.05-.29-.16-.37-.11-.09-.26-.13-.46-.13-.13,0-.26.02-.39.06s-.24.1-.34.18l-.57-.56c.14-.16.32-.28.55-.37.23-.09.48-.13.76-.13.3,0,.56.05.78.15.21.1.38.25.49.44.11.19.17.43.17.7v2.24h-.84v-2.21Z"/>
  <path class="cls-3" d="M130.15,221.59h.99v3.49h-.99v-3.49ZM131.95,222.46c-.06-.02-.14-.03-.22-.03-.19,0-.33.06-.43.18-.1.12-.15.29-.15.5l-.07-.91c.1-.21.22-.37.37-.49.15-.12.32-.17.51-.17.15,0,.28.02.39.07s.22.11.31.2l-.54.75s-.1-.08-.16-.1Z"/>
  <path class="cls-3" d="M133.46,224.95c-.18-.12-.31-.29-.4-.52-.09-.23-.14-.5-.14-.81v-.56c0-.32.05-.59.14-.82.09-.23.23-.4.4-.52.18-.12.39-.18.63-.18.19,0,.36.06.51.17s.28.27.37.47l-.07.77c0-.12-.02-.22-.06-.3-.04-.08-.1-.15-.18-.19-.08-.04-.17-.07-.28-.07-.17,0-.31.06-.4.18-.1.12-.14.28-.14.5v.55c0,.21.05.37.14.48.1.11.23.17.4.17.11,0,.2-.02.28-.06.08-.04.14-.1.18-.18s.06-.18.06-.29l.05.8c-.07.19-.18.34-.33.44-.15.1-.32.16-.53.16-.25,0-.46-.06-.63-.18ZM134.9,221.59h.92v4.9h-.92v-4.9Z"/>
  <path class="cls-3" d="M137.65,223.7c0,.17.05.3.14.39.1.09.23.14.4.14s.31-.05.4-.14c.09-.1.14-.23.14-.41l.05.76c-.06.19-.17.35-.32.48-.15.13-.34.2-.55.2-.37,0-.66-.12-.87-.36-.2-.24-.31-.58-.31-1.02v-2.15h.92v2.12ZM138.73,221.59h.92v3.49h-.92v-3.49Z"/>
  <path class="cls-3" d="M141.55,225.12s-.12-.06-.36-.18c-.24-.12-.42-.3-.55-.53-.13-.23-.19-.52-.19-.84v-.39c0-.35.06-.64.18-.88.12-.24.29-.43.52-.56.23-.13.51-.19.83-.19.3,0,.57.08.78.23.22.15.38.37.5.66s.17.64.17,1.05v.23h-2.38v-.62h1.55v-.08c-.03-.2-.1-.36-.2-.47-.1-.11-.24-.16-.41-.16-.22,0-.39.07-.52.2-.12.13-.18.32-.18.56v.44c0,.24.07.42.2.55.13.13.32.19.56.19.12,0,.25-.02.37-.07.12-.04.23-.11.33-.19l.6.53c-.18.17-.39.29-.61.38-.23.09-.45.14-.69.14h-.5Z"/>
  <path class="cls-3" d="M146.16,220.19h1.13l1.82,3.74-.08.09v-3.83h.88v4.88h-1.13l-1.81-3.68.08-.09v3.77h-.88v-4.88Z"/>
  <path class="cls-3" d="M151.5,224.95c-.22-.12-.4-.29-.51-.52-.12-.23-.18-.5-.18-.82v-.57c0-.32.06-.59.18-.81.12-.22.29-.4.51-.51.23-.12.5-.18.81-.18s.59.06.81.18c.22.12.4.29.51.51.12.23.18.5.18.81v.58c0,.32-.06.59-.18.81s-.29.4-.51.52c-.23.12-.5.18-.81.18s-.59-.06-.81-.18ZM152.74,224.07c.1-.11.15-.26.15-.46v-.58c0-.19-.05-.35-.15-.45-.1-.11-.25-.16-.43-.16s-.33.05-.43.16c-.1.11-.15.26-.15.45v.58c0,.2.05.35.15.46.1.11.24.16.43.16s.33-.05.43-.16Z"/>
  <path class="cls-3" d="M154.39,221.59h1.71v.79h-1.71v-.79ZM154.96,224.86c-.14-.16-.21-.39-.21-.69v-3.59h.92v3.37c0,.09.02.15.05.2.03.05.08.07.15.07h.23v.89h-.46c-.3,0-.53-.08-.67-.23Z"/>
  <path class="cls-3" d="M156.63,221.59h1.71v.79h-1.71v-.79ZM157.21,224.86c-.14-.16-.21-.39-.21-.69v-3.59h.92v3.37c0,.09.02.15.05.2.03.05.08.07.15.07h.23v.89h-.46c-.3,0-.53-.08-.67-.23Z"/>
  <path class="cls-3" d="M159.1,220.19h.92v.92h-.92v-.92ZM159.1,221.59h.92v3.49h-.92v-3.49Z"/>
  <path class="cls-3" d="M160.87,221.59h.92v3.49h-.92v-3.49ZM162.89,222.96c0-.17-.05-.3-.15-.4-.1-.09-.24-.14-.41-.14s-.3.05-.39.14c-.09.1-.14.23-.14.4l-.07-.77c.11-.22.23-.38.38-.49.15-.11.33-.16.55-.16.37,0,.65.12.85.37s.3.6.3,1.05v2.12h-.92v-2.11Z"/>
  <path class="cls-3" d="M165.15,224.95c-.18-.12-.31-.29-.4-.52-.09-.23-.14-.5-.14-.81v-.56c0-.32.05-.59.14-.82.09-.23.23-.4.4-.52.18-.12.39-.18.63-.18.19,0,.36.06.51.17s.28.27.37.47l-.07.77c0-.12-.02-.22-.06-.3-.04-.08-.1-.15-.18-.19-.08-.04-.17-.07-.28-.07-.17,0-.31.06-.4.18-.1.12-.14.28-.14.5v.55c0,.21.05.37.14.48.1.11.23.17.4.17.11,0,.2-.02.28-.06.08-.04.14-.1.18-.18s.06-.18.06-.29l.05.8c-.07.19-.18.34-.33.44-.15.1-.32.16-.53.16-.25,0-.46-.06-.63-.18ZM165.54,226.49s-.11-.05-.33-.15c-.22-.1-.39-.23-.51-.41l.62-.57c.08.08.17.15.28.2s.22.07.34.07c.19,0,.35-.05.47-.16.12-.11.18-.25.18-.44v-3.45h.92v3.38c0,.32-.06.59-.18.82-.12.23-.3.4-.53.52-.23.12-.52.18-.85.18h-.42Z"/>
  <path class="cls-3" d="M168.42,220.19h.92v4.88h-.92v-4.88ZM170.44,222.96c0-.17-.05-.3-.15-.4-.1-.09-.24-.14-.41-.14s-.3.05-.39.14c-.09.1-.14.23-.14.4l-.07-.77c.11-.22.23-.38.38-.49.15-.11.33-.16.55-.16.37,0,.65.12.85.37s.3.6.3,1.05v2.12h-.92v-2.11Z"/>
  <path class="cls-3" d="M172.38,224.86c-.18-.18-.28-.45-.28-.81s.1-.6.31-.78c.21-.17.52-.26.93-.26h.87l.05.7h-.92c-.14,0-.24.03-.31.08s-.1.14-.1.25.04.2.13.25.22.08.4.08c.25,0,.43-.03.55-.08s.18-.14.18-.26l.07.51c-.01.13-.07.23-.17.32-.1.09-.23.15-.38.2-.15.04-.32.07-.49.07-.37,0-.65-.09-.84-.27ZM174.19,222.86c0-.16-.05-.29-.16-.37-.11-.09-.26-.13-.46-.13-.13,0-.26.02-.39.06s-.24.1-.34.18l-.57-.56c.14-.16.32-.28.55-.37.23-.09.48-.13.76-.13.3,0,.56.05.78.15.21.1.38.25.49.44.11.19.17.43.17.7v2.24h-.84v-2.21Z"/>
  <path class="cls-3" d="M175.93,221.59h.92v3.49h-.92v-3.49ZM177.96,223.06c0-.2-.05-.36-.15-.47s-.24-.17-.43-.17c-.17,0-.3.05-.39.14-.09.1-.14.23-.14.4l-.07-.77c.1-.22.23-.38.39-.49.15-.11.34-.17.54-.17.25,0,.46.06.63.18.18.12.31.29.4.52.09.23.14.5.14.82v2.02h-.92v-2.01ZM179.99,223.06c0-.2-.05-.36-.15-.47-.1-.11-.24-.17-.41-.17s-.31.05-.41.16c-.1.11-.14.26-.14.45l-.17-.81c.11-.22.25-.39.43-.51.18-.12.37-.18.59-.18.25,0,.46.06.64.18.18.12.31.29.41.52.09.23.14.5.14.82v2.02h-.92v-2.01Z"/>
  <path class="cls-3" d="M181.35,225.47c.3-.35.53-.73.68-1.16.15-.43.23-.9.23-1.41s-.08-.98-.23-1.41-.38-.81-.68-1.16l.54-.66c.42.43.74.92.95,1.45s.31,1.13.31,1.77-.1,1.24-.31,1.77-.52,1.02-.95,1.45l-.54-.66Z"/>
  <path class="cls-3" d="M184.01,224.15h.92v.92h-.92v-.92Z"/>
  <path class="cls-9" d="M104.51,200.64c2.06-.12,3.84,1.85,3.47,3.89-.53,2.26-1.96,4.2-3.32,6.03-1.38-1.89-2.91-3.89-3.35-6.24-.22-1.86,1.33-3.63,3.2-3.68ZM104.69,202.35c-2.18,0-2.23,3.22-.07,3.3,2.17,0,2.23-3.22.07-3.3Z"/>
  <path class="cls-9" d="M91.58,186.37v2.49h1.27v-2.49h1.26v6.37h-1.26v-2.69h-1.27v2.69h-1.26v-6.37h1.26Z"/>
  <path class="cls-9" d="M97.18,188.57c.21.12.38.29.5.5.12.21.21.44.26.71.05.26.08.54.08.83s-.03.57-.08.83c-.05.26-.14.49-.26.7-.12.21-.29.37-.5.5-.21.12-.47.19-.78.19s-.56-.06-.78-.19c-.21-.12-.38-.29-.5-.5-.12-.21-.21-.44-.26-.7s-.08-.53-.08-.83.03-.57.08-.83.14-.5.27-.71c.12-.21.29-.37.5-.5.21-.12.47-.19.77-.19s.56.06.78.19ZM96.17,189.59c-.06.09-.1.2-.13.33-.03.13-.05.25-.06.38,0,.12-.01.23-.01.32s0,.2.01.32c0,.12.03.25.06.38.03.13.07.24.13.33.06.09.14.13.23.13s.17-.04.23-.13c.06-.09.1-.2.13-.33s.05-.25.06-.38c0-.12.01-.23.01-.32s0-.2-.01-.32c0-.12-.03-.25-.06-.38s-.07-.24-.13-.33c-.06-.09-.14-.13-.23-.13s-.17.04-.23.13Z"/>
  <path class="cls-9" d="M99.73,188.47v.52h.02c.12-.2.25-.35.41-.47.15-.12.34-.18.56-.21v1.16c-.08-.01-.14-.02-.19-.02-.19,0-.34.03-.45.09s-.19.14-.24.24c-.05.1-.08.21-.09.33-.01.12-.02.29-.02.49v2.13h-1.19v-4.26h1.19Z"/>
  <path class="cls-9" d="M103.08,192.25h-.02c-.08.17-.19.31-.32.41s-.28.15-.46.15c-.23,0-.42-.08-.57-.23s-.27-.35-.36-.59c-.08-.24-.14-.48-.18-.72s-.05-.47-.05-.68c0-.22.01-.46.04-.7.03-.25.08-.48.16-.71s.2-.42.35-.57.35-.22.58-.22c.19,0,.35.05.49.16.14.11.24.26.31.44h.02v-.52h1.19v4.26h-1.19v-.48ZM102.97,191.59c.06-.09.1-.2.13-.33.03-.13.05-.25.05-.37,0-.12.01-.22.01-.31s0-.19-.01-.31c0-.12-.03-.24-.05-.37-.03-.13-.07-.24-.13-.33-.06-.09-.14-.13-.23-.13-.09,0-.16.04-.22.13-.06.09-.1.2-.13.32-.03.13-.05.25-.06.37,0,.12-.01.22-.01.32,0,.12,0,.23.01.35,0,.11.03.23.06.35.03.12.07.23.13.32s.14.13.24.13c.09,0,.16-.05.22-.14Z"/>
  <path class="cls-9" d="M106.05,188.47v.52h.02c.12-.2.25-.35.41-.47.15-.12.34-.18.56-.21v1.16c-.08-.01-.14-.02-.19-.02-.19,0-.34.03-.45.09s-.19.14-.24.24c-.05.1-.08.21-.09.33-.01.12-.02.29-.02.49v2.13h-1.19v-4.26h1.19Z"/>
  <path class="cls-9" d="M107.57,187.73c-.15-.15-.22-.33-.22-.54s.07-.39.22-.54c.15-.14.33-.22.55-.22.2,0,.38.08.52.23s.22.33.22.54-.07.38-.22.53c-.15.15-.33.22-.54.22s-.39-.08-.53-.23ZM108.7,188.47v4.26h-1.19v-4.26h1.19Z"/>
  <path class="cls-9" d="M111.61,188.57c.21.12.38.29.5.5.12.21.21.44.26.71.05.26.08.54.08.83s-.03.57-.08.83c-.05.26-.14.49-.26.7-.12.21-.29.37-.5.5-.21.12-.47.19-.78.19s-.56-.06-.78-.19c-.21-.12-.38-.29-.5-.5-.12-.21-.21-.44-.26-.7s-.08-.53-.08-.83.03-.57.08-.83.14-.5.27-.71c.12-.21.29-.37.5-.5.21-.12.47-.19.77-.19s.56.06.78.19ZM110.6,189.59c-.06.09-.1.2-.13.33-.03.13-.05.25-.06.38,0,.12-.01.23-.01.32s0,.2.01.32c0,.12.03.25.06.38.03.13.07.24.13.33.06.09.14.13.23.13s.17-.04.23-.13c.06-.09.1-.2.13-.33s.05-.25.06-.38c0-.12.01-.23.01-.32s0-.2-.01-.32c0-.12-.03-.25-.06-.38s-.07-.24-.13-.33c-.06-.09-.14-.13-.23-.13s-.17.04-.23.13Z"/>
  <path class="cls-9" d="M114.27,188.62c.15.16.23.35.23.57s-.08.41-.23.57-.34.24-.57.24-.42-.08-.57-.24-.23-.35-.23-.57.08-.41.23-.57.34-.24.57-.24.42.08.57.24ZM114.27,191.47c.15.16.23.35.23.57s-.08.41-.23.57-.34.24-.57.24-.42-.08-.57-.24-.23-.35-.23-.57.08-.41.23-.57.34-.24.57-.24.42.08.57.24Z"/>
  <path class="cls-9" d="M118.3,189.15h.02c.11-.23.26-.42.43-.56.17-.14.38-.21.62-.21.21,0,.37.07.5.21.12.14.2.31.24.52h.02c.11-.21.25-.38.43-.52.18-.14.38-.21.59-.21.18,0,.32.04.43.13s.18.2.23.34c.05.14.08.28.09.42.01.14.02.31.02.51v2.95h-1.19v-2.31c0-.29-.02-.5-.06-.64s-.12-.21-.24-.21-.21.05-.25.14-.07.21-.07.34v2.68h-1.19v-2.47c0-.08,0-.12,0-.14,0-.15-.02-.28-.06-.38-.04-.1-.12-.15-.23-.15-.13,0-.22.05-.27.14-.05.09-.07.21-.07.35v2.65h-1.19v-4.26h1.19v.68Z"/>
  <path class="cls-9" d="M122.55,187.73c-.15-.15-.22-.33-.22-.54s.07-.39.22-.54c.15-.14.33-.22.55-.22.2,0,.38.08.52.23s.22.33.22.54-.07.38-.22.53c-.15.15-.33.22-.54.22s-.39-.08-.53-.23ZM123.68,188.47v4.26h-1.19v-4.26h1.19Z"/>
  <path class="cls-9" d="M127.22,190.92h-1.88v.06c0,.13.01.24.02.33,0,.09.02.18.05.27s.08.17.14.23.14.09.24.09c.14,0,.24-.04.3-.14.06-.09.08-.21.08-.35h1.01c-.06.43-.19.77-.41,1.02-.22.25-.53.38-.94.38-.29,0-.54-.06-.75-.18s-.38-.28-.52-.48c-.13-.2-.23-.43-.29-.68-.06-.25-.09-.51-.09-.79s.03-.55.08-.81c.06-.27.15-.52.27-.74.12-.23.29-.41.5-.54.21-.14.46-.2.76-.2.4,0,.74.17,1.03.5.28.33.43.79.43,1.38,0,.02,0,.05,0,.08v.08l-.03.49ZM126.89,186.75l-1.09,1.17-.58-.34.81-1.22.86.39ZM126.22,190.08c0-.08,0-.17-.02-.26-.01-.09-.03-.17-.06-.25-.03-.08-.07-.15-.13-.2-.06-.05-.13-.08-.22-.08-.08,0-.16.03-.22.08-.06.05-.1.12-.13.19-.03.08-.05.16-.07.24s-.02.17-.02.24v.13h.87v-.1Z"/>
  <path class="cls-9" d="M128.95,188.47v.52h.02c.12-.2.25-.35.41-.47.15-.12.34-.18.56-.21v1.16c-.08-.01-.14-.02-.19-.02-.19,0-.34.03-.45.09s-.19.14-.24.24c-.05.1-.08.21-.09.33-.01.12-.02.29-.02.49v2.13h-1.19v-4.26h1.19Z"/>
  <path class="cls-9" d="M132.59,192.67c-.22.1-.45.15-.68.15-.28,0-.52-.06-.72-.19-.2-.13-.37-.3-.49-.52s-.21-.45-.27-.71c-.06-.25-.08-.51-.08-.77,0-.29.03-.56.09-.82.06-.26.15-.5.29-.72.13-.22.31-.39.52-.52.21-.13.47-.19.76-.19.2,0,.4.04.59.13v1.05c-.1-.09-.21-.14-.35-.14s-.25.04-.35.11-.17.17-.22.28-.09.24-.11.36c-.02.13-.03.26-.03.38,0,.14,0,.27.03.4s.05.24.1.36c.05.12.12.21.21.28.09.07.21.11.35.11.12,0,.24-.04.36-.13v1.09Z"/>
  <path class="cls-9" d="M135.4,188.57c.21.12.38.29.5.5.12.21.21.44.26.71.05.26.08.54.08.83s-.03.57-.08.83c-.05.26-.14.49-.26.7-.12.21-.29.37-.5.5-.21.12-.47.19-.78.19s-.56-.06-.78-.19c-.21-.12-.38-.29-.5-.5-.12-.21-.21-.44-.26-.7s-.08-.53-.08-.83.03-.57.08-.83.14-.5.27-.71c.12-.21.29-.37.5-.5.21-.12.47-.19.77-.19s.56.06.78.19ZM134.39,189.59c-.06.09-.1.2-.13.33-.03.13-.05.25-.06.38,0,.12-.01.23-.01.32s0,.2.01.32c0,.12.03.25.06.38.03.13.07.24.13.33.06.09.14.13.23.13s.17-.04.23-.13c.06-.09.1-.2.13-.33s.05-.25.06-.38c0-.12.01-.23.01-.32s0-.2-.01-.32c0-.12-.03-.25-.06-.38s-.07-.24-.13-.33c-.06-.09-.14-.13-.23-.13s-.17.04-.23.13Z"/>
  <path class="cls-9" d="M137.95,185.92v6.81h-1.19v-6.81h1.19Z"/>
  <path class="cls-9" d="M141.49,190.92h-1.88v.06c0,.13.01.24.02.33,0,.09.02.18.05.27s.08.17.14.23.14.09.24.09c.14,0,.24-.04.3-.14.06-.09.08-.21.08-.35h1.01c-.06.43-.19.77-.41,1.02-.22.25-.53.38-.94.38-.29,0-.54-.06-.75-.18s-.38-.28-.52-.48c-.13-.2-.23-.43-.29-.68-.06-.25-.09-.51-.09-.79s.03-.55.08-.81c.06-.27.15-.52.27-.74.12-.23.29-.41.5-.54.21-.14.46-.2.76-.2.4,0,.74.17,1.03.5.28.33.43.79.43,1.38,0,.02,0,.05,0,.08v.08l-.03.49ZM140.49,190.08c0-.08,0-.17-.02-.26-.01-.09-.03-.17-.06-.25-.03-.08-.07-.15-.13-.2-.06-.05-.13-.08-.22-.08-.08,0-.16.03-.22.08-.06.05-.1.12-.13.19-.03.08-.05.16-.07.24s-.02.17-.02.24v.13h.87v-.1Z"/>
  <path class="cls-9" d="M144.18,189.62c-.1-.09-.19-.16-.28-.21-.08-.05-.18-.07-.3-.07-.21,0-.32.1-.32.31,0,.08.04.16.11.22.07.06.18.13.34.21.13.07.25.13.34.19.09.06.18.14.27.23.09.09.16.21.21.35.05.14.08.3.08.49,0,.43-.12.79-.36,1.07-.24.28-.58.42-1.01.42-.23,0-.45-.04-.68-.13-.23-.09-.43-.21-.61-.36l.52-.84c.11.09.21.16.3.21.09.05.19.07.3.07.1,0,.18-.03.24-.1.07-.06.1-.15.1-.26s-.04-.18-.11-.25c-.07-.06-.19-.14-.35-.23-.14-.08-.26-.15-.35-.21s-.18-.14-.26-.23c-.08-.1-.15-.22-.21-.36-.05-.14-.08-.31-.08-.5,0-.39.14-.69.41-.92.28-.22.61-.33,1.01-.33.43,0,.81.12,1.14.36l-.48.87Z"/>
  <path class="cls-9" d="M148.17,192.73l1.22-2.49-.02-.02c-.13.12-.26.21-.38.27-.12.06-.26.09-.41.09-.22,0-.42-.06-.59-.19-.17-.13-.3-.29-.41-.5-.1-.21-.18-.42-.22-.65s-.07-.44-.07-.65c0-.3.03-.59.09-.87.06-.27.16-.52.3-.74s.33-.4.56-.53.51-.19.83-.19.58.06.8.19.4.29.54.5c.14.21.24.45.3.71.06.27.1.55.1.84,0,.52-.08,1.01-.23,1.49-.15.48-.38,1.03-.68,1.65l-.52,1.09h-1.22ZM148.78,187.47c-.07.08-.13.18-.16.3-.04.12-.06.24-.08.36s-.02.24-.02.34c0,.09,0,.19.02.3.01.11.04.22.08.33.04.11.09.2.16.27.07.07.15.11.25.11.11,0,.21-.04.28-.12.08-.08.14-.18.18-.3.04-.12.07-.24.08-.36.01-.12.02-.23.02-.33,0-.09,0-.19-.03-.3-.02-.11-.04-.22-.08-.33-.04-.11-.09-.2-.16-.27-.07-.07-.16-.11-.26-.11-.11,0-.21.04-.28.12Z"/>
  <path class="cls-9" d="M152.72,188.62c.15.16.23.35.23.57s-.08.41-.23.57-.34.24-.57.24-.42-.08-.57-.24-.23-.35-.23-.57.08-.41.23-.57.34-.24.57-.24.42.08.57.24ZM152.72,191.47c.15.16.23.35.23.57s-.08.41-.23.57-.34.24-.57.24-.42-.08-.57-.24-.23-.35-.23-.57.08-.41.23-.57.34-.24.57-.24.42.08.57.24Z"/>
  <path class="cls-9" d="M154.66,191.24c0,.12.04.24.12.34.08.1.2.16.35.16.12,0,.22-.03.3-.08s.13-.13.16-.22c.04-.09.06-.18.07-.28s.02-.21.02-.33c0-.34-.07-.57-.2-.7-.14-.13-.39-.19-.75-.19v-1.1c.36,0,.61-.05.75-.16.14-.11.21-.33.21-.67,0-.19-.03-.34-.09-.46s-.17-.19-.34-.19-.27.06-.33.19c-.06.13-.09.28-.09.46v.13h-1.09v-.18c0-.25.03-.47.08-.68.05-.21.14-.38.25-.54.12-.15.27-.27.46-.36.19-.09.42-.13.69-.13.51,0,.9.15,1.19.45.28.3.43.7.43,1.21,0,.35-.06.66-.18.93-.12.27-.32.46-.61.57v.02c.33.08.58.26.74.54.16.28.24.6.24.97,0,.58-.17,1.04-.5,1.37-.34.33-.8.5-1.38.5-.52,0-.93-.16-1.22-.47-.3-.31-.45-.75-.45-1.3h1.18v.18Z"/>
  <path class="cls-9" d="M160.29,186.59c.24.22.42.5.55.84s.22.7.27,1.06c.05.36.07.71.07,1.05s-.02.69-.07,1.05c-.05.36-.14.72-.27,1.06s-.31.62-.55.84-.54.33-.9.33-.66-.11-.9-.33-.42-.5-.55-.84-.22-.7-.27-1.06c-.05-.36-.07-.71-.07-1.05s.02-.69.07-1.05c.05-.36.14-.72.27-1.06s.31-.63.55-.84.54-.33.9-.33.66.11.9.33ZM159.1,187.6c-.08.13-.13.3-.17.51-.04.21-.06.43-.08.67-.01.23-.02.49-.02.77s0,.54.02.77.04.46.08.67c.04.21.1.38.17.51.08.13.18.19.3.19s.22-.06.3-.19c.08-.13.14-.3.17-.51.04-.21.06-.43.07-.67s.02-.49.02-.77,0-.54-.02-.77c-.01-.23-.04-.46-.07-.67-.04-.21-.09-.38-.17-.51-.08-.13-.18-.19-.3-.19s-.22.06-.3.19Z"/>
  <path class="cls-9" d="M165.71,192.25h-.02c-.08.17-.19.31-.32.41s-.28.15-.46.15c-.23,0-.42-.08-.57-.23s-.27-.35-.36-.59c-.08-.24-.14-.48-.18-.72s-.05-.47-.05-.68c0-.22.01-.46.04-.7.03-.25.08-.48.16-.71s.2-.42.35-.57.35-.22.58-.22c.19,0,.35.05.49.16.14.11.24.26.31.44h.02v-.52h1.19v4.26h-1.19v-.48ZM165.6,191.59c.06-.09.1-.2.13-.33.03-.13.05-.25.05-.37,0-.12.01-.22.01-.31s0-.19-.01-.31c0-.12-.03-.24-.05-.37-.03-.13-.07-.24-.13-.33-.06-.09-.14-.13-.23-.13-.09,0-.16.04-.22.13-.06.09-.1.2-.13.32-.03.13-.05.25-.06.37,0,.12-.01.22-.01.32,0,.12,0,.23.01.35,0,.11.03.23.06.35.03.12.07.23.13.32s.14.13.24.13c.09,0,.16-.05.22-.14Z"/>
  <path class="cls-9" d="M168.68,189.15h.02c.11-.23.26-.42.43-.56.17-.14.38-.21.62-.21.21,0,.37.07.5.21.12.14.2.31.24.52h.02c.11-.21.25-.38.43-.52.18-.14.38-.21.59-.21.18,0,.32.04.43.13s.18.2.23.34c.05.14.08.28.09.42.01.14.02.31.02.51v2.95h-1.19v-2.31c0-.29-.02-.5-.06-.64s-.12-.21-.24-.21-.21.05-.25.14-.07.21-.07.34v2.68h-1.19v-2.47c0-.08,0-.12,0-.14,0-.15-.02-.28-.06-.38-.04-.1-.12-.15-.23-.15-.13,0-.22.05-.27.14-.05.09-.07.21-.07.35v2.65h-1.19v-4.26h1.19v.68Z"/>
  <path class="cls-9" d="M176.83,192.25h-.02c-.08.17-.19.31-.32.41s-.28.15-.46.15c-.23,0-.42-.08-.57-.23s-.27-.35-.36-.59c-.08-.24-.14-.48-.18-.72s-.05-.47-.05-.68c0-.22.01-.46.04-.7.03-.25.08-.48.16-.71s.2-.42.35-.57.35-.22.58-.22c.19,0,.35.05.49.16.14.11.24.26.31.44h.02v-.52h1.19v4.26h-1.19v-.48ZM176.72,191.59c.06-.09.1-.2.13-.33.03-.13.05-.25.05-.37,0-.12.01-.22.01-.31s0-.19-.01-.31c0-.12-.03-.24-.05-.37-.03-.13-.07-.24-.13-.33-.06-.09-.14-.13-.23-.13-.09,0-.16.04-.22.13-.06.09-.1.2-.13.32-.03.13-.05.25-.06.37,0,.12-.01.22-.01.32,0,.12,0,.23.01.35,0,.11.03.23.06.35.03.12.07.23.13.32s.14.13.24.13c.09,0,.16-.05.22-.14Z"/>
  <path class="cls-9" d="M183.14,186.37v6.37h-1.22v-5.27h-.61v-1.1h1.83Z"/>
  <path class="cls-9" d="M184.96,188.58l-.02-.35c0-.32.03-.59.08-.83.05-.24.14-.44.26-.61.12-.17.3-.3.52-.4s.49-.14.81-.14c.54,0,.96.14,1.26.41s.45.68.45,1.22c0,.3-.04.58-.13.84-.09.26-.22.56-.39.89l-1.06,2.02h1.48v1.1h-3.34l1.44-2.63.05-.1c.11-.2.21-.38.29-.54s.16-.32.23-.5c.07-.17.13-.35.18-.53.04-.18.07-.35.07-.5,0-.21-.04-.39-.12-.55-.08-.16-.21-.24-.39-.24-.11,0-.2.04-.27.11-.07.07-.12.16-.16.26-.03.1-.05.21-.06.32,0,.11-.01.22-.01.35l.02.41h-1.17Z"/>
  <path class="cls-9" d="M190.26,188.62c.15.16.23.35.23.57s-.08.41-.23.57c-.15.16-.34.24-.57.24s-.42-.08-.57-.24-.23-.35-.23-.57.08-.41.23-.57.34-.24.57-.24.42.08.57.24ZM190.26,191.47c.15.16.23.35.23.57s-.08.41-.23.57c-.15.16-.34.24-.57.24s-.42-.08-.57-.24-.23-.35-.23-.57.08-.41.23-.57.34-.24.57-.24.42.08.57.24Z"/>
  <path class="cls-9" d="M193.69,186.59c.24.22.42.5.55.84s.22.7.27,1.06c.05.36.07.71.07,1.05s-.02.69-.07,1.05c-.05.36-.14.72-.27,1.06s-.31.62-.55.84-.54.33-.9.33-.66-.11-.9-.33-.42-.5-.55-.84-.22-.7-.27-1.06c-.05-.36-.07-.71-.07-1.05s.02-.69.07-1.05c.05-.36.14-.72.27-1.06s.31-.63.55-.84.54-.33.9-.33.66.11.9.33ZM192.5,187.6c-.08.13-.13.3-.17.51-.04.21-.06.43-.08.67-.01.23-.02.49-.02.77s0,.54.02.77.04.46.08.67c.04.21.1.38.17.51.08.13.18.19.3.19s.22-.06.3-.19c.08-.13.14-.3.17-.51.04-.21.06-.43.07-.67s.02-.49.02-.77,0-.54-.02-.77c-.01-.23-.04-.46-.07-.67-.04-.21-.09-.38-.17-.51-.08-.13-.18-.19-.3-.19s-.22.06-.3.19Z"/>
  <path class="cls-9" d="M197.83,186.59c.24.22.42.5.55.84s.22.7.27,1.06c.05.36.07.71.07,1.05s-.02.69-.07,1.05c-.05.36-.14.72-.27,1.06s-.31.62-.55.84-.54.33-.9.33-.66-.11-.9-.33-.42-.5-.55-.84-.22-.7-.27-1.06c-.05-.36-.07-.71-.07-1.05s.02-.69.07-1.05c.05-.36.14-.72.27-1.06s.31-.63.55-.84.54-.33.9-.33.66.11.9.33ZM196.63,187.6c-.08.13-.13.3-.17.51-.04.21-.06.43-.08.67-.01.23-.02.49-.02.77s0,.54.02.77.04.46.08.67c.04.21.1.38.17.51.08.13.18.19.3.19s.22-.06.3-.19c.08-.13.14-.3.17-.51.04-.21.06-.43.07-.67s.02-.49.02-.77,0-.54-.02-.77c-.01-.23-.04-.46-.07-.67-.04-.21-.09-.38-.17-.51-.08-.13-.18-.19-.3-.19s-.22.06-.3.19Z"/>
  <path class="cls-9" d="M202.56,188.99h.02c.07-.19.18-.33.31-.44.13-.11.3-.16.48-.16.24,0,.43.07.59.22s.27.34.35.57.13.46.16.71c.03.24.04.48.04.71,0,.21-.02.44-.05.68s-.09.49-.17.72c-.08.24-.2.43-.35.59-.16.15-.35.23-.57.23-.19,0-.34-.05-.47-.15s-.23-.24-.32-.41h-.02v2.58h-1.19v-6.37h1.19v.52ZM203.12,191.6c.06-.09.11-.19.13-.32.03-.12.04-.25.05-.36,0-.12.01-.23.01-.34,0-.09,0-.2-.01-.32,0-.12-.03-.24-.05-.37-.03-.13-.07-.23-.13-.32-.06-.09-.13-.13-.22-.13-.1,0-.17.04-.23.13-.06.09-.1.2-.13.32-.03.12-.04.25-.05.37,0,.12-.01.23-.01.32s0,.19.01.31c0,.12.03.24.05.37.03.13.07.24.13.33.06.09.13.14.22.14.1,0,.17-.04.24-.13Z"/>
  <path class="cls-9" d="M206.22,189.15h.02c.11-.23.26-.42.43-.56.17-.14.38-.21.62-.21.21,0,.37.07.5.21.12.14.2.31.24.52h.02c.11-.21.25-.38.43-.52.18-.14.38-.21.59-.21.18,0,.32.04.43.13s.18.2.23.34c.05.14.08.28.09.42.01.14.02.31.02.51v2.95h-1.19v-2.31c0-.29-.02-.5-.06-.64s-.12-.21-.24-.21-.21.05-.25.14-.07.21-.07.34v2.68h-1.19v-2.47c0-.08,0-.12,0-.14,0-.15-.02-.28-.06-.38-.04-.1-.12-.15-.23-.15-.13,0-.22.05-.27.14-.05.09-.07.21-.07.35v2.65h-1.19v-4.26h1.19v.68Z"/>
  <g>
    <path class="cls-5" d="M116.77,162.11c0,.38.24.88.84.88.92,0,.98-.93.98-1.6,0-1.26-.44-1.62-1.7-1.58v-1.95c1.21,0,1.71-.24,1.71-1.48,0-.51-.11-1.16-.76-1.16s-.75.67-.75,1.17v.23h-1.94c-.09-1.82.56-3.35,2.64-3.35,1.83,0,2.86,1.17,2.86,2.96,0,1.08-.3,2.24-1.39,2.67v.03c1.26.31,1.74,1.47,1.74,2.68,0,2.07-1.28,3.33-3.35,3.33-1.9,0-3.06-1.26-2.97-3.15h2.1l-.02.31Z"/>
    <path class="cls-5" d="M124.78,163.52c0,.78-.63,1.42-1.42,1.42s-1.42-.64-1.42-1.42.63-1.42,1.42-1.42,1.42.64,1.42,1.42Z"/>
  </g>
</svg>