<?xml version="1.0" encoding="UTF-8"?>
<svg id="Layer_1" data-name="Layer 1" xmlns="http://www.w3.org/2000/svg" xmlns:xlink="http://www.w3.org/1999/xlink" viewBox="0 0 280 280">
  <defs>
    <style>
      .cls-1 {
        fill: none;
      }

      .cls-2, .cls-3 {
        fill: #dfb149;
      }

      .cls-4 {
        fill: #539546;
      }

      .cls-5 {
        fill: #53372b;
      }

      .cls-6 {
        fill: #4baa48;
      }

      .cls-7 {
        fill: #39b44a;
      }

      .cls-8 {
        fill: #8d5c39;
      }

      .cls-9 {
        fill: #98573a;
      }

      .cls-10 {
        fill: #fff;
      }

      .cls-3 {
        stroke: #f8f4e5;
        stroke-miterlimit: 10;
        stroke-width: 7px;
      }

      .cls-11 {
        fill: #f8f4e5;
      }

      .cls-12 {
        clip-path: url(#clippath);
      }

      .cls-13 {
        fill: #23834c;
      }
    </style>
    <clipPath id="clippath">
      <circle class="cls-1" cx="144.64" cy="86.67" r="63.89"/>
    </clipPath>
  </defs>
  <rect class="cls-2" x="65.75" y="88.15" width="159.08" height="179.24" rx="22.17" ry="22.17"/>
  <rect class="cls-13" x="104.1" y="238.49" width="82.06" height="19.8"/>
  <g>
    <path class="cls-11" d="M127.31,243.77c-.29-.08-.56-.12-.85-.12-1.98,0-2.84,1.8-2.84,3.55s.86,3.78,2.83,3.78c.29,0,.58-.08.86-.17v2.13c-.33.14-.68.2-1.04.2-3.25,0-5.05-2.93-5.05-5.93,0-2.83,1.88-5.73,4.94-5.73.39,0,.77.08,1.15.21v2.07Z"/>
    <path class="cls-11" d="M130.32,240.82v12.2h-2.13v-12.2h2.13Z"/>
    <path class="cls-11" d="M131.06,243.11c0-.77.62-1.35,1.39-1.35s1.32.65,1.32,1.38-.62,1.35-1.36,1.35-1.35-.62-1.35-1.38ZM133.48,245.39v7.64h-2.13v-7.64h2.13Z"/>
    <path class="cls-11" d="M138.41,252.9c-.39.18-.79.27-1.22.27-2.07,0-2.8-2.18-2.8-3.92,0-1.92.76-4.02,2.96-4.02.38,0,.71.08,1.06.23v1.88c-.2-.18-.36-.24-.62-.24-1.04,0-1.27,1.25-1.27,2.04s.17,2.04,1.24,2.04c.24,0,.45-.09.65-.23v1.95Z"/>
    <path class="cls-11" d="M145.13,246.61h.03c.36-.74.97-1.38,1.88-1.38.79,0,1.21.6,1.32,1.3h.03c.35-.68,1.01-1.3,1.83-1.3,1.38,0,1.38,1.53,1.38,2.51v5.28h-2.13v-4.14c0-.39.11-1.51-.53-1.51-.5,0-.57.51-.57.86v4.79h-2.13v-4.28c0-.38.11-1.35-.5-1.35-.53,0-.61.48-.61.88v4.75h-2.13v-7.64h2.13l.02,1.23Z"/>
    <path class="cls-11" d="M156.02,252.16h-.03c-.29.58-.73,1.01-1.41,1.01-1.72,0-2.07-2.75-2.07-3.98,0-1.32.26-3.96,2.04-3.96.71,0,1.19.47,1.44,1.09h.03v-.94h2.13v7.64h-2.13v-.86ZM156.17,249.17c0-.42-.05-2.04-.77-2.04s-.76,1.6-.76,2.04c0,.48.03,2.06.79,2.06.68,0,.74-1.65.74-2.06Z"/>
    <path class="cls-11" d="M161.32,246.33h.03c.24-.62.73-1.09,1.42-1.09,1.8,0,2.04,2.65,2.04,3.96,0,1.23-.32,3.98-2.06,3.98-.7,0-1.13-.44-1.41-1.01h-.03v4.63h-2.13v-11.4h2.13v.94ZM162.69,249.17c0-.44-.06-2.04-.76-2.04s-.76,1.62-.76,2.04.05,2.06.74,2.06c.76,0,.77-1.57.77-2.06Z"/>
    <path class="cls-11" d="M169.58,247.45c-.3-.27-.59-.5-1.03-.5-.38,0-.57.23-.57.56.03.89,2.43.71,2.43,2.99,0,1.51-.88,2.68-2.45,2.68-.82,0-1.66-.35-2.3-.88l.94-1.51c.32.27.63.5,1.06.5.33,0,.62-.24.62-.63.03-1.01-2.43-.76-2.43-3.18,0-1.45,1.21-2.24,2.56-2.24.77,0,1.42.2,2.04.65l-.86,1.56Z"/>
  </g>
  <circle class="cls-3" cx="145.2" cy="88.24" r="63.62"/>
  <g>
    <path class="cls-10" d="M98.47,173.51v-12h2.47c.48,0,.93.04,1.37.1.44.07.86.22,1.27.46s.76.6,1.03,1.09c.27.49.41,1.12.41,1.89,0,1.1-.33,1.97-.99,2.59-.66.63-1.54.94-2.66.94l-.53-.03v4.95h-2.37ZM100.84,166.64c.62,0,1.07-.13,1.36-.37s.44-.66.44-1.23c0-.47-.11-.84-.32-1.13-.21-.29-.56-.43-1.03-.43h-.45v3.17Z"/>
    <path class="cls-10" d="M109.48,172.61h-.03c-.16.33-.36.59-.6.78-.24.19-.54.29-.88.29-.42,0-.78-.15-1.07-.44s-.52-.66-.68-1.11c-.16-.45-.27-.9-.33-1.36-.06-.46-.1-.89-.1-1.28,0-.42.03-.87.08-1.33.05-.46.16-.91.31-1.34.15-.43.37-.79.66-1.07.29-.28.65-.42,1.1-.42.36,0,.67.1.92.31s.45.49.59.84h.03v-.99h2.24v8.04h-2.24v-.91ZM109.27,171.36c.11-.17.18-.38.24-.62.05-.24.09-.48.1-.7.02-.22.02-.42.02-.59s0-.36-.02-.58c-.02-.22-.05-.45-.1-.69-.05-.24-.13-.45-.25-.62-.11-.17-.26-.25-.44-.25-.17,0-.31.08-.42.25-.11.16-.19.37-.25.61-.05.24-.09.48-.1.69-.02.22-.02.42-.02.6,0,.22,0,.44.02.65.02.21.05.44.1.67.05.23.14.43.26.6.12.16.26.25.45.25.17,0,.31-.08.41-.25Z"/>
    <path class="cls-10" d="M116.86,167.64c-.19-.17-.37-.3-.52-.39-.16-.09-.35-.13-.56-.13-.4,0-.6.2-.6.59.01.16.08.29.22.4.13.11.35.24.64.39.25.13.47.25.64.36s.34.25.51.43c.16.17.3.39.4.65.1.26.15.56.15.91,0,.82-.23,1.49-.68,2.02-.46.53-1.09.8-1.89.8-.42,0-.85-.08-1.27-.25-.42-.16-.81-.39-1.15-.68l.99-1.59c.2.17.39.3.56.39s.36.13.56.13c.18,0,.33-.06.46-.18.13-.12.19-.28.19-.49,0-.19-.07-.34-.21-.46s-.36-.26-.67-.43c-.27-.15-.48-.28-.65-.39-.17-.11-.33-.26-.49-.44-.16-.18-.29-.4-.39-.68-.1-.27-.15-.58-.15-.95,0-.73.26-1.31.78-1.73.52-.42,1.16-.63,1.91-.63.81,0,1.52.23,2.15.68l-.91,1.64Z"/>
    <path class="cls-10" d="M124.37,170.09h-3.55v.11c.01.24.02.45.03.62.01.17.04.34.1.52.06.18.14.32.25.44.11.12.26.17.45.17.27,0,.45-.08.56-.25.11-.17.16-.39.16-.67h1.91c-.11.81-.36,1.45-.77,1.93-.41.48-1,.72-1.77.72-.54,0-1.01-.11-1.41-.33-.4-.22-.72-.53-.97-.91-.25-.38-.43-.81-.54-1.28-.11-.47-.17-.97-.17-1.49s.05-1.03.16-1.54c.11-.5.28-.97.51-1.4.23-.43.55-.77.95-1.03.4-.25.87-.38,1.42-.38.75,0,1.4.31,1.93.94.54.63.8,1.49.8,2.59,0,.03,0,.08-.02.16v.16l-.05.92ZM122.48,168.52c0-.16-.01-.32-.03-.49-.02-.16-.06-.32-.12-.48-.06-.15-.14-.28-.25-.37-.11-.09-.24-.14-.41-.14-.16,0-.29.05-.41.14-.11.1-.2.22-.26.37-.06.15-.1.3-.13.46-.03.16-.04.31-.04.46v.24h1.64v-.19Z"/>
    <path class="cls-10" d="M129.77,165.67c.4.23.72.55.95.94s.39.84.49,1.33c.1.49.15,1.02.15,1.57s-.05,1.07-.15,1.56c-.1.49-.27.93-.49,1.32s-.54.7-.95.94c-.4.23-.89.35-1.46.35s-1.06-.12-1.46-.35c-.4-.23-.72-.55-.95-.94-.23-.39-.39-.83-.49-1.32-.1-.49-.15-1.01-.15-1.56s.05-1.07.15-1.57c.1-.49.27-.94.5-1.33s.55-.71.95-.94c.4-.23.88-.35,1.46-.35s1.06.12,1.46.35ZM127.87,167.59c-.11.16-.19.37-.25.61-.05.24-.09.48-.1.71-.02.23-.02.43-.02.6s0,.37.02.6c.02.23.05.46.1.71.05.24.14.45.25.61.11.16.26.25.44.25s.33-.08.44-.25c.11-.16.19-.37.25-.61.05-.24.09-.48.1-.71.02-.23.02-.43.02-.6s0-.37-.02-.6c-.02-.23-.05-.46-.1-.71-.05-.24-.14-.45-.25-.61-.11-.16-.26-.25-.44-.25s-.33.08-.44.25Z"/>
    <path class="cls-10" d="M139.78,172.61h-.03c-.16.33-.36.59-.6.78-.24.19-.54.29-.88.29-.42,0-.78-.15-1.07-.44s-.52-.66-.68-1.11c-.16-.45-.27-.9-.33-1.36-.06-.46-.1-.89-.1-1.28,0-.42.03-.87.08-1.33.05-.46.16-.91.31-1.34.15-.43.37-.79.66-1.07.29-.28.65-.42,1.1-.42.36,0,.67.1.92.31s.45.49.59.84h.03v-5.79h2.24v12.84h-2.24v-.91ZM139.57,171.36c.11-.17.18-.38.24-.62.05-.24.09-.48.1-.7.02-.22.02-.42.02-.59s0-.36-.02-.58c-.02-.22-.05-.45-.1-.69-.05-.24-.13-.45-.25-.62-.11-.17-.26-.25-.44-.25-.17,0-.31.08-.42.25-.11.16-.19.37-.25.61-.05.24-.09.48-.1.69-.02.22-.02.42-.02.6,0,.22,0,.44.02.65.02.21.05.44.1.67.05.23.14.43.26.6.12.16.26.25.45.25.17,0,.31-.08.41-.25Z"/>
    <path class="cls-10" d="M148.69,170.09h-3.55v.11c.01.24.02.45.03.62.01.17.04.34.1.52.06.18.14.32.25.44.11.12.26.17.45.17.27,0,.45-.08.56-.25.11-.17.16-.39.16-.67h1.91c-.11.81-.36,1.45-.77,1.93-.41.48-1,.72-1.77.72-.54,0-1.01-.11-1.41-.33-.4-.22-.72-.53-.97-.91-.25-.38-.43-.81-.54-1.28-.11-.47-.17-.97-.17-1.49s.05-1.03.16-1.54c.11-.5.28-.97.51-1.4.23-.43.55-.77.95-1.03.4-.25.87-.38,1.42-.38.75,0,1.4.31,1.93.94.54.63.8,1.49.8,2.59,0,.03,0,.08-.02.16v.16l-.05.92ZM146.79,168.52c0-.16-.01-.32-.03-.49-.02-.16-.06-.32-.12-.48-.06-.15-.14-.28-.25-.37-.11-.09-.24-.14-.41-.14-.16,0-.29.05-.41.14-.11.1-.2.22-.26.37-.06.15-.1.3-.13.46-.03.16-.04.31-.04.46v.24h1.64v-.19Z"/>
    <path class="cls-10" d="M158.66,161.51v2.23h-2.4v2.61h2.12v2.23h-2.12v2.71h2.43v2.23h-4.81v-12h4.77Z"/>
    <path class="cls-10" d="M163.93,173.38c-.41.19-.84.29-1.29.29-.52,0-.97-.12-1.35-.37-.38-.24-.69-.57-.92-.98s-.4-.85-.51-1.33c-.11-.48-.16-.96-.16-1.45,0-.54.06-1.06.17-1.55s.29-.94.54-1.35c.25-.41.58-.73.98-.97s.88-.36,1.43-.36c.38,0,.75.08,1.11.24v1.97c-.18-.17-.4-.25-.65-.25s-.47.07-.65.21c-.18.14-.32.32-.41.53-.1.22-.16.44-.21.68-.04.24-.06.48-.06.72,0,.27.02.51.06.75.04.23.1.46.19.68.09.22.22.39.4.52s.4.2.66.2c.22,0,.45-.08.68-.24v2.05Z"/>
    <path class="cls-10" d="M167.1,160.67v6.05h.03c.16-.4.41-.74.74-1,.33-.26.71-.4,1.12-.4.34,0,.61.07.82.22.21.15.36.36.45.62.09.27.16.57.19.9.03.33.05.76.05,1.26v5.19h-2.24v-4.61c.01-.16.02-.27.02-.32,0-.3-.04-.54-.12-.72s-.23-.28-.45-.28-.38.09-.47.27-.13.4-.13.65v5.01h-2.24v-12.84h2.24Z"/>
    <path class="cls-10" d="M177.17,170.09h-3.55v.11c.01.24.02.45.03.62.01.17.04.34.1.52.06.18.14.32.25.44.11.12.26.17.45.17.27,0,.45-.08.56-.25.11-.17.16-.39.16-.67h1.91c-.11.81-.36,1.45-.77,1.93-.41.48-1,.72-1.77.72-.54,0-1.01-.11-1.41-.33-.4-.22-.72-.53-.97-.91-.25-.38-.43-.81-.54-1.28-.11-.47-.17-.97-.17-1.49s.05-1.03.16-1.54c.11-.5.28-.97.51-1.4.23-.43.55-.77.95-1.03.4-.25.87-.38,1.42-.38.75,0,1.4.31,1.93.94.54.63.8,1.49.8,2.59,0,.03,0,.08-.02.16v.16l-.05.92ZM175.27,168.52c0-.16-.01-.32-.03-.49-.02-.16-.06-.32-.12-.48-.06-.15-.14-.28-.25-.37-.11-.09-.24-.14-.41-.14-.16,0-.29.05-.41.14-.11.1-.2.22-.26.37-.06.15-.1.3-.13.46-.03.16-.04.31-.04.46v.24h1.64v-.19Z"/>
    <path class="cls-10" d="M180.11,174.58c.02.33.09.6.21.82.12.22.32.33.6.33.36,0,.59-.18.7-.53.11-.36.16-.91.16-1.66v-1.02h-.03c-.19.37-.39.66-.6.86s-.49.3-.84.3c-.38,0-.72-.13-1-.37-.29-.25-.53-.57-.73-.96-.19-.37-.33-.79-.41-1.27-.08-.47-.12-.96-.12-1.46,0-.44.03-.89.08-1.36.05-.47.16-.93.31-1.38.15-.45.38-.82.67-1.11.29-.29.66-.44,1.11-.44.36,0,.67.1.94.31s.47.48.6.82h.03v-.97h2.24v8.74c0,1.16-.25,1.99-.75,2.51-.5.52-1.25.78-2.26.78-.93,0-1.64-.25-2.11-.76-.47-.5-.73-1.23-.79-2.17h1.99ZM181.54,171.36c.11-.17.18-.37.23-.61.05-.24.08-.47.1-.7.02-.23.02-.43.02-.6s0-.37-.02-.59c-.02-.22-.05-.46-.1-.7-.05-.24-.13-.45-.24-.61-.11-.16-.25-.25-.43-.25s-.33.08-.44.25c-.11.16-.19.37-.25.61-.05.24-.09.48-.1.69-.02.22-.02.42-.02.6,0,.2,0,.41.02.63.02.22.05.45.1.69.05.24.14.45.26.6.12.16.27.24.46.24.17,0,.31-.08.41-.25Z"/>
    <path class="cls-10" d="M188.69,172.61h-.03c-.16.33-.36.59-.6.78-.24.19-.54.29-.88.29-.42,0-.78-.15-1.07-.44s-.52-.66-.68-1.11c-.16-.45-.27-.9-.33-1.36-.06-.46-.1-.89-.1-1.28,0-.42.03-.87.08-1.33.05-.46.16-.91.31-1.34.15-.43.37-.79.66-1.07.29-.28.65-.42,1.1-.42.36,0,.67.1.92.31s.45.49.59.84h.03v-.99h2.24v8.04h-2.24v-.91ZM188.48,171.36c.11-.17.18-.38.24-.62.05-.24.09-.48.1-.7.02-.22.02-.42.02-.59s0-.36-.02-.58c-.02-.22-.05-.45-.1-.69-.05-.24-.13-.45-.25-.62-.11-.17-.26-.25-.44-.25-.17,0-.31.08-.42.25-.11.16-.19.37-.25.61-.05.24-.09.48-.1.69-.02.22-.02.42-.02.6,0,.22,0,.44.02.65.02.21.05.44.1.67.05.23.14.43.26.6.12.16.26.25.45.25.17,0,.31-.08.41-.25Z"/>
    <path class="cls-10" d="M194.27,165.48v.97h.03c.22-.37.48-.67.77-.88s.64-.35,1.06-.39v2.18c-.15-.02-.27-.03-.35-.03-.36,0-.64.06-.85.17s-.36.26-.45.45c-.1.19-.15.4-.18.63-.02.23-.03.54-.03.93v4.01h-2.24v-8.04h2.24Z"/>
    <path class="cls-10" d="M200.59,172.61h-.03c-.16.33-.36.59-.6.78-.24.19-.54.29-.88.29-.42,0-.78-.15-1.07-.44s-.52-.66-.68-1.11c-.16-.45-.27-.9-.33-1.36-.06-.46-.1-.89-.1-1.28,0-.42.03-.87.08-1.33.05-.46.16-.91.31-1.34.15-.43.37-.79.66-1.07.29-.28.65-.42,1.1-.42.36,0,.67.1.92.31s.45.49.59.84h.03v-.99h2.24v8.04h-2.24v-.91ZM200.38,171.36c.11-.17.18-.38.24-.62.05-.24.09-.48.1-.7.02-.22.02-.42.02-.59s0-.36-.02-.58c-.02-.22-.05-.45-.1-.69-.05-.24-.13-.45-.25-.62-.11-.17-.26-.25-.44-.25-.17,0-.31.08-.42.25-.11.16-.19.37-.25.61-.05.24-.09.48-.1.69-.02.22-.02.42-.02.6,0,.22,0,.44.02.65.02.21.05.44.1.67.05.23.14.43.26.6.12.16.26.25.45.25.17,0,.31-.08.41-.25Z"/>
    <path class="cls-10" d="M205.87,165.48l.84,3.25.27,1.34h.03l1.05-4.58h2.26l-3.45,12h-2.21l1.29-4.12-2.34-7.88h2.26Z"/>
  </g>
  <path class="cls-5" d="M99.91,196.15h.82v4.35h-.82v-4.35ZM100.28,198.03h1.39c.1,0,.18-.02.26-.07.07-.04.13-.11.18-.19.04-.08.06-.18.06-.28s-.02-.2-.06-.29c-.04-.08-.1-.15-.17-.19-.07-.04-.16-.07-.26-.07h-1.39v-.79h1.37c.27,0,.51.06.72.17.21.11.37.27.48.47s.17.43.17.7-.06.5-.17.7-.27.36-.48.47-.45.16-.72.16h-1.37v-.79Z"/>
  <path class="cls-5" d="M103.61,200.31c-.16-.16-.25-.4-.25-.72s.09-.54.28-.69c.18-.15.46-.23.83-.23h.78l.04.63h-.82c-.12,0-.22.02-.28.07s-.09.12-.09.22.04.18.12.23.2.07.35.07c.22,0,.38-.02.49-.07s.16-.13.16-.23l.06.45c-.01.11-.06.21-.15.28-.09.08-.2.14-.34.18-.14.04-.28.06-.43.06-.33,0-.58-.08-.75-.24ZM105.22,198.54c0-.14-.05-.25-.14-.33-.1-.08-.23-.12-.41-.12-.12,0-.23.02-.34.06s-.21.09-.3.16l-.51-.5c.12-.14.29-.25.49-.33.2-.08.43-.12.68-.12.27,0,.5.05.69.14.19.09.34.22.44.4.1.17.15.38.15.62v2h-.75v-1.97Z"/>
  <path class="cls-5" d="M107.68,200.55s-.09-.02-.26-.05c-.18-.03-.34-.08-.49-.14-.15-.06-.29-.14-.41-.23l.51-.63c.15.1.31.17.47.22.16.05.32.08.47.08.19,0,.34-.02.45-.06s.16-.1.16-.18c0-.07-.02-.12-.07-.16s-.1-.06-.18-.08c-.07-.02-.17-.03-.3-.04-.04,0-.07,0-.11-.01-.04,0-.07,0-.11-.01,0,0-.02,0-.03,0,0,0-.02,0-.03,0-.23-.03-.42-.07-.56-.11-.14-.04-.26-.13-.35-.25-.1-.13-.14-.31-.14-.54,0-.21.05-.39.15-.53s.24-.26.43-.34.42-.12.69-.12c.16,0,.31.02.47.05.16.03.31.08.45.14.14.06.28.13.4.22l-.49.6c-.14-.08-.28-.13-.42-.18-.15-.04-.29-.06-.43-.06-.17,0-.29.02-.39.06-.09.04-.14.09-.14.16,0,.05.02.09.07.12.05.03.11.05.18.06.07.01.18.03.32.04h.05s.04,0,.05.01c0,0,.02,0,.03,0s.02,0,.03,0c.24.03.44.06.59.11.15.04.28.13.39.26.11.13.16.33.16.58,0,.22-.05.4-.16.55-.1.15-.26.27-.46.35-.2.08-.44.12-.72.12h-.28Z"/>
  <path class="cls-5" d="M110.84,200.55s-.11-.05-.32-.16c-.21-.11-.37-.27-.49-.48-.11-.21-.17-.46-.17-.75v-.35c0-.31.05-.57.16-.79s.26-.38.47-.5c.2-.11.45-.17.74-.17.27,0,.5.07.7.2.19.14.34.33.44.59s.15.57.15.94v.2h-2.12v-.55h1.38v-.07c-.03-.18-.09-.32-.18-.42-.09-.1-.21-.15-.36-.15-.2,0-.35.06-.46.18-.11.12-.16.28-.16.5v.4c0,.21.06.38.18.49.12.12.28.17.5.17.11,0,.22-.02.33-.06.11-.04.21-.09.29-.17l.54.48c-.16.15-.34.26-.54.34-.2.08-.4.12-.61.12h-.45Z"/>
  <path class="cls-5" d="M113.77,200.39c-.2-.11-.35-.26-.46-.46-.1-.2-.16-.45-.16-.73v-.51c0-.28.05-.52.16-.72.1-.2.26-.35.46-.46.2-.1.44-.16.73-.16s.53.05.73.16c.2.1.35.26.46.46.1.2.16.44.16.72v.51c0,.28-.05.53-.16.73s-.26.35-.46.46c-.2.11-.44.16-.73.16s-.53-.05-.73-.16ZM114.87,199.61c.09-.1.14-.23.14-.41v-.51c0-.17-.05-.31-.14-.4-.09-.1-.22-.14-.39-.14s-.29.05-.38.14c-.09.1-.14.23-.14.4v.51c0,.18.04.31.13.41.09.1.22.15.38.15s.29-.05.39-.15Z"/>
  <path class="cls-5" d="M118.91,200.39c-.16-.11-.28-.26-.36-.46-.08-.2-.12-.44-.12-.73v-.5c0-.28.04-.53.12-.73.08-.2.2-.36.36-.46.16-.11.34-.16.56-.16.17,0,.32.05.45.15s.25.24.33.42l-.06.69c0-.11-.02-.19-.05-.27-.04-.07-.09-.13-.16-.17-.07-.04-.15-.06-.25-.06-.15,0-.27.05-.36.16-.08.1-.13.25-.13.44v.49c0,.19.04.33.13.43.08.1.2.15.36.15.1,0,.18-.02.25-.06.07-.04.12-.09.16-.16s.05-.16.05-.26l.04.71c-.06.17-.16.3-.29.39-.13.09-.29.14-.47.14-.22,0-.41-.05-.56-.16ZM120.2,196.15h.82v4.35h-.82v-4.35Z"/>
  <path class="cls-5" d="M122.71,200.55s-.11-.05-.32-.16c-.21-.11-.37-.27-.49-.48-.11-.21-.17-.46-.17-.75v-.35c0-.31.05-.57.16-.79s.26-.38.47-.5c.2-.11.45-.17.74-.17.27,0,.5.07.7.2.19.14.34.33.44.59s.15.57.15.94v.2h-2.12v-.55h1.38v-.07c-.03-.18-.09-.32-.18-.42-.09-.1-.21-.15-.36-.15-.2,0-.35.06-.46.18-.11.12-.16.28-.16.5v.4c0,.21.06.38.18.49.12.12.28.17.5.17.11,0,.22-.02.33-.06.11-.04.21-.09.29-.17l.54.48c-.16.15-.34.26-.54.34-.2.08-.4.12-.61.12h-.45Z"/>
  <path class="cls-5" d="M127.87,199.48c0,.08.02.13.06.18.04.04.1.06.18.06h.14v.79h-.42c-.25,0-.44-.07-.58-.22s-.21-.35-.21-.61v-3.53h.82v3.33Z"/>
  <path class="cls-5" d="M128.89,200.31c-.16-.16-.25-.4-.25-.72s.09-.54.28-.69c.18-.15.46-.23.83-.23h.78l.04.63h-.82c-.12,0-.22.02-.28.07s-.09.12-.09.22.04.18.12.23.2.07.35.07c.22,0,.38-.02.49-.07s.16-.13.16-.23l.06.45c-.01.11-.06.21-.15.28-.09.08-.2.14-.34.18-.14.04-.28.06-.43.06-.33,0-.58-.08-.75-.24ZM130.51,198.54c0-.14-.05-.25-.14-.33-.1-.08-.23-.12-.41-.12-.12,0-.23.02-.34.06s-.21.09-.3.16l-.51-.5c.12-.14.29-.25.49-.33.2-.08.43-.12.68-.12.27,0,.5.05.69.14.19.09.34.22.44.4.1.17.15.38.15.62v2h-.75v-1.97Z"/>
  <path class="cls-5" d="M134.06,196.15h.82v4.35h-.82v-4.35ZM134.44,197.95h2.54v.79h-2.54v-.79ZM136.44,196.15h.82v4.35h-.82v-4.35Z"/>
  <path class="cls-5" d="M138.26,200.31c-.16-.16-.25-.4-.25-.72s.09-.54.28-.69c.18-.15.46-.23.83-.23h.78l.04.63h-.82c-.12,0-.22.02-.28.07s-.09.12-.09.22.04.18.12.23.2.07.35.07c.22,0,.38-.02.49-.07s.16-.13.16-.23l.06.45c-.01.11-.06.21-.15.28-.09.08-.2.14-.34.18-.14.04-.28.06-.43.06-.33,0-.58-.08-.75-.24ZM139.87,198.54c0-.14-.05-.25-.14-.33-.1-.08-.23-.12-.41-.12-.12,0-.23.02-.34.06s-.21.09-.3.16l-.51-.5c.12-.14.29-.25.49-.33.2-.08.43-.12.68-.12.27,0,.5.05.69.14.19.09.34.22.44.4.1.17.15.38.15.62v2h-.75v-1.97Z"/>
  <path class="cls-5" d="M142.29,200.55l-.32-.17c-.21-.11-.37-.28-.48-.49-.11-.22-.16-.47-.16-.78v-.33c0-.3.05-.56.16-.77s.27-.37.48-.49c.21-.11.46-.17.76-.17.17,0,.33.02.48.06s.29.1.41.17c.12.07.22.16.3.27l-.53.51c-.08-.07-.16-.12-.27-.16-.1-.04-.21-.06-.32-.06-.21,0-.37.06-.48.17-.11.11-.17.27-.17.47v.33c0,.21.06.37.17.48s.27.17.48.17c.11,0,.22-.02.32-.06.1-.04.19-.1.26-.18l.53.54c-.08.1-.18.19-.3.26-.12.07-.25.13-.4.17-.15.04-.31.06-.48.06h-.44Z"/>
  <path class="cls-5" d="M144.43,196.15h.82v.82h-.82v-.82ZM144.43,197.4h.82v3.11h-.82v-3.11Z"/>
  <path class="cls-5" d="M146.9,200.55s-.11-.05-.32-.16c-.21-.11-.37-.27-.49-.48-.11-.21-.17-.46-.17-.75v-.35c0-.31.05-.57.16-.79s.26-.38.47-.5c.2-.11.45-.17.74-.17.27,0,.5.07.7.2.19.14.34.33.44.59s.15.57.15.94v.2h-2.12v-.55h1.38v-.07c-.03-.18-.09-.32-.18-.42-.09-.1-.21-.15-.36-.15-.2,0-.35.06-.46.18-.11.12-.16.28-.16.5v.4c0,.21.06.38.18.49.12.12.28.17.5.17.11,0,.22-.02.33-.06.11-.04.21-.09.29-.17l.54.48c-.16.15-.34.26-.54.34-.2.08-.4.12-.61.12h-.45Z"/>
  <path class="cls-5" d="M149.3,197.4h.82v3.11h-.82v-3.11ZM151.1,198.62c0-.15-.04-.27-.13-.35-.09-.08-.21-.13-.37-.13s-.27.04-.35.13c-.08.08-.12.2-.12.36l-.06-.69c.09-.2.21-.34.34-.44.13-.1.29-.15.49-.15.33,0,.58.11.76.33s.27.53.27.94v1.89h-.82v-1.88Z"/>
  <path class="cls-5" d="M153.12,200.39c-.16-.11-.28-.26-.36-.46-.08-.2-.12-.44-.12-.73v-.5c0-.28.04-.53.12-.73.08-.2.2-.36.36-.46.16-.11.34-.16.56-.16.17,0,.32.05.45.15s.25.24.33.42l-.06.69c0-.11-.02-.19-.05-.27-.04-.07-.09-.13-.16-.17-.07-.04-.15-.06-.25-.06-.15,0-.27.05-.36.16-.08.1-.13.25-.13.44v.49c0,.19.04.33.13.43.08.1.2.15.36.15.1,0,.18-.02.25-.06.07-.04.12-.09.16-.16s.05-.16.05-.26l.04.71c-.06.17-.16.3-.29.39-.13.09-.29.14-.47.14-.22,0-.41-.05-.56-.16ZM154.4,196.15h.82v4.35h-.82v-4.35Z"/>
  <path class="cls-5" d="M156.13,200.31c-.16-.16-.25-.4-.25-.72s.09-.54.28-.69c.18-.15.46-.23.83-.23h.78l.04.63h-.82c-.12,0-.22.02-.28.07s-.09.12-.09.22.04.18.12.23.2.07.35.07c.22,0,.38-.02.49-.07s.16-.13.16-.23l.06.45c-.01.11-.06.21-.15.28-.09.08-.2.14-.34.18-.14.04-.28.06-.43.06-.33,0-.58-.08-.75-.24ZM157.74,198.54c0-.14-.05-.25-.14-.33-.1-.08-.23-.12-.41-.12-.12,0-.23.02-.34.06s-.21.09-.3.16l-.51-.5c.12-.14.29-.25.49-.33.2-.08.43-.12.68-.12.27,0,.5.05.69.14.19.09.34.22.44.4.1.17.15.38.15.62v2h-.75v-1.97Z"/>
  <path class="cls-5" d="M161.62,200.39c-.16-.11-.28-.26-.36-.46-.08-.2-.12-.44-.12-.73v-.5c0-.28.04-.53.12-.73.08-.2.2-.36.36-.46.16-.11.34-.16.56-.16.17,0,.32.05.45.15s.25.24.33.42l-.06.69c0-.11-.02-.19-.05-.27-.04-.07-.09-.13-.16-.17-.07-.04-.15-.06-.25-.06-.15,0-.27.05-.36.16-.08.1-.13.25-.13.44v.49c0,.19.04.33.13.43.08.1.2.15.36.15.1,0,.18-.02.25-.06.07-.04.12-.09.16-.16s.05-.16.05-.26l.04.71c-.06.17-.16.3-.29.39-.13.09-.29.14-.47.14-.22,0-.41-.05-.56-.16ZM162.91,196.15h.82v4.35h-.82v-4.35Z"/>
  <path class="cls-5" d="M165.42,200.55s-.11-.05-.32-.16c-.21-.11-.37-.27-.49-.48-.11-.21-.17-.46-.17-.75v-.35c0-.31.05-.57.16-.79s.26-.38.47-.5c.2-.11.45-.17.74-.17.27,0,.5.07.7.2.19.14.34.33.44.59s.15.57.15.94v.2h-2.12v-.55h1.38v-.07c-.03-.18-.09-.32-.18-.42-.09-.1-.21-.15-.36-.15-.2,0-.35.06-.46.18-.11.12-.16.28-.16.5v.4c0,.21.06.38.18.49.12.12.28.17.5.17.11,0,.22-.02.33-.06.11-.04.21-.09.29-.17l.54.48c-.16.15-.34.26-.54.34-.2.08-.4.12-.61.12h-.45Z"/>
  <path class="cls-5" d="M169.83,196.15h.82v4.35h-.82v-4.35ZM170.12,196.15h2.62v.79h-2.62v-.79ZM170.12,197.95h2.29v.79h-2.29v-.79ZM170.12,199.71h2.62v.79h-2.62v-.79Z"/>
  <path class="cls-5" d="M174.3,200.55l-.32-.17c-.21-.11-.37-.28-.48-.49-.11-.22-.16-.47-.16-.78v-.33c0-.3.05-.56.16-.77s.27-.37.48-.49c.21-.11.46-.17.76-.17.17,0,.33.02.48.06s.29.1.41.17c.12.07.22.16.3.27l-.53.51c-.08-.07-.16-.12-.27-.16-.1-.04-.21-.06-.32-.06-.21,0-.37.06-.48.17-.11.11-.17.27-.17.47v.33c0,.21.06.37.17.48s.27.17.48.17c.11,0,.22-.02.32-.06.1-.04.19-.1.26-.18l.53.54c-.08.1-.18.19-.3.26-.12.07-.25.13-.4.17-.15.04-.31.06-.48.06h-.44Z"/>
  <path class="cls-5" d="M176.48,196.15h.82v4.35h-.82v-4.35ZM178.28,198.62c0-.15-.04-.27-.13-.35-.09-.08-.21-.13-.37-.13s-.27.04-.35.13c-.08.08-.12.2-.12.36l-.06-.69c.09-.2.21-.34.34-.44.13-.1.29-.15.49-.15.33,0,.58.11.76.33s.27.53.27.94v1.89h-.82v-1.88Z"/>
  <path class="cls-5" d="M180.79,200.55s-.11-.05-.32-.16c-.21-.11-.37-.27-.49-.48-.11-.21-.17-.46-.17-.75v-.35c0-.31.05-.57.16-.79s.26-.38.47-.5c.2-.11.45-.17.74-.17.27,0,.5.07.7.2.19.14.34.33.44.59s.15.57.15.94v.2h-2.12v-.55h1.38v-.07c-.03-.18-.09-.32-.18-.42-.09-.1-.21-.15-.36-.15-.2,0-.35.06-.46.18-.11.12-.16.28-.16.5v.4c0,.21.06.38.18.49.12.12.28.17.5.17.11,0,.22-.02.33-.06.11-.04.21-.09.29-.17l.54.48c-.16.15-.34.26-.54.34-.2.08-.4.12-.61.12h-.45Z"/>
  <path class="cls-5" d="M183.58,200.39c-.16-.11-.28-.26-.36-.46-.08-.2-.12-.44-.12-.73v-.5c0-.28.04-.53.12-.73.08-.2.2-.36.36-.46.16-.11.34-.16.56-.16.17,0,.32.05.45.15s.25.24.33.42l-.06.69c0-.11-.02-.19-.05-.27-.04-.07-.09-.13-.16-.17-.07-.04-.15-.06-.25-.06-.15,0-.27.05-.36.16-.08.1-.13.25-.13.44v.49c0,.19.04.33.13.43.08.1.2.15.36.15.1,0,.18-.02.25-.06.07-.04.12-.09.16-.16s.05-.16.05-.26l.04.71c-.06.17-.16.3-.29.39-.13.09-.29.14-.47.14-.22,0-.41-.05-.56-.16ZM183.92,201.77s-.1-.04-.29-.13c-.19-.09-.35-.21-.45-.37l.55-.51c.07.08.15.13.25.18s.2.06.31.06c.17,0,.31-.05.42-.14.11-.09.16-.22.16-.39v-3.07h.82v3.01c0,.29-.05.53-.16.73-.11.2-.27.36-.48.46-.21.11-.46.16-.76.16h-.37Z"/>
  <path class="cls-5" d="M186.59,200.31c-.16-.16-.25-.4-.25-.72s.09-.54.28-.69c.18-.15.46-.23.83-.23h.78l.04.63h-.82c-.12,0-.22.02-.28.07s-.09.12-.09.22.04.18.12.23.2.07.35.07c.22,0,.38-.02.49-.07s.16-.13.16-.23l.06.45c-.01.11-.06.21-.15.28-.09.08-.2.14-.34.18-.14.04-.28.06-.43.06-.33,0-.58-.08-.75-.24ZM188.21,198.54c0-.14-.05-.25-.14-.33-.1-.08-.23-.12-.41-.12-.12,0-.23.02-.34.06s-.21.09-.3.16l-.51-.5c.12-.14.29-.25.49-.33.2-.08.43-.12.68-.12.27,0,.5.05.69.14.19.09.34.22.44.4.1.17.15.38.15.62v2h-.75v-1.97Z"/>
  <path class="cls-5" d="M189.76,197.4h.88v3.11h-.88v-3.11ZM191.36,198.17c-.06-.02-.12-.03-.2-.03-.17,0-.29.05-.38.16-.09.11-.14.26-.14.44l-.06-.81c.09-.19.2-.33.33-.43.14-.1.29-.15.45-.15.13,0,.25.02.35.06s.2.1.27.18l-.48.67s-.09-.07-.15-.09Z"/>
  <path class="cls-5" d="M192.47,200.31c-.16-.16-.25-.4-.25-.72s.09-.54.28-.69c.18-.15.46-.23.83-.23h.78l.04.63h-.82c-.12,0-.22.02-.28.07s-.09.12-.09.22.04.18.12.23.2.07.35.07c.22,0,.38-.02.49-.07s.16-.13.16-.23l.06.45c-.01.11-.06.21-.15.28-.09.08-.2.14-.34.18-.14.04-.28.06-.43.06-.33,0-.58-.08-.75-.24ZM194.09,198.54c0-.14-.05-.25-.14-.33-.1-.08-.23-.12-.41-.12-.12,0-.23.02-.34.06s-.21.09-.3.16l-.51-.5c.12-.14.29-.25.49-.33.2-.08.43-.12.68-.12.27,0,.5.05.69.14.19.09.34.22.44.4.1.17.15.38.15.62v2h-.75v-1.97Z"/>
  <path class="cls-5" d="M195.22,197.4h.77l1.04,2.7-.52.66-1.3-3.36ZM198.09,197.4l-1.38,3.83c-.05.14-.12.25-.19.34-.08.08-.17.14-.28.18-.11.04-.25.05-.42.05h-.18v-.8h.18c.09,0,.16-.02.22-.06.06-.04.1-.1.13-.19l1.15-3.36h.77Z"/>
  <path class="cls-5" d="M99.91,204.12h1l1.62,3.33-.07.08v-3.41h.78v4.35h-1.01l-1.61-3.28.07-.08v3.36h-.78v-4.35Z"/>
  <path class="cls-5" d="M104.96,207.25c0,.15.04.27.13.35.08.08.2.12.36.12s.27-.04.35-.13c.08-.08.12-.21.12-.36l.04.68c-.06.17-.15.31-.29.43-.13.12-.3.17-.49.17-.33,0-.59-.11-.77-.32-.18-.21-.27-.52-.27-.91v-1.92h.82v1.89ZM104.96,204.52l.86-1.06.58.48-.91,1.01-.52-.43ZM105.92,205.37h.82v3.11h-.82v-3.11Z"/>
  <path class="cls-5" d="M107.55,205.37h.82v3.11h-.82v-3.11ZM109.36,206.68c0-.18-.04-.32-.13-.42s-.22-.15-.38-.15c-.15,0-.27.04-.35.13-.08.08-.12.2-.12.36l-.06-.69c.09-.19.21-.34.34-.44.14-.1.3-.15.49-.15.22,0,.41.05.56.16.16.11.28.26.36.46.08.2.12.45.12.73v1.8h-.82v-1.79ZM111.17,206.68c0-.18-.04-.32-.13-.42-.09-.1-.21-.15-.37-.15s-.28.05-.36.14c-.08.09-.13.23-.13.4l-.15-.72c.1-.2.23-.35.38-.46.16-.11.33-.16.52-.16.22,0,.41.05.57.16.16.11.28.26.36.46.08.2.12.45.12.73v1.8h-.82v-1.79Z"/>
  <path class="cls-5" d="M112.66,207.65h.82v.82h-.82v-.82Z"/>
  <path class="cls-5" d="M118.84,208.37c-.21-.1-.37-.24-.48-.42-.11-.18-.17-.39-.17-.64v-.07c0-.22.06-.42.18-.61.12-.19.28-.34.48-.43-.17-.08-.31-.2-.41-.36-.1-.16-.16-.32-.16-.5v-.11c0-.23.05-.43.16-.6.11-.17.26-.31.45-.4.19-.09.42-.14.68-.14s.48.05.68.14c.19.09.35.23.45.4.11.17.16.37.16.6v.11c0,.18-.05.35-.16.5-.11.15-.25.27-.42.35.2.1.36.24.48.44s.18.39.18.61v.07c0,.24-.06.45-.17.64-.11.18-.27.32-.48.42-.21.1-.45.15-.73.15s-.52-.05-.73-.15ZM119.86,207.66c.08-.04.15-.11.2-.19.05-.08.07-.18.07-.28v-.04c0-.1-.02-.18-.07-.26s-.11-.13-.2-.17c-.08-.04-.18-.06-.29-.06s-.21.02-.29.06c-.08.04-.15.1-.2.17-.05.08-.07.16-.07.26v.04c0,.11.02.2.07.28.05.08.11.14.2.19.08.04.18.07.29.07s.21-.02.29-.07ZM119.82,205.8c.07-.04.13-.1.16-.17.04-.08.06-.16.06-.26v-.04c0-.09-.02-.17-.06-.24-.04-.07-.09-.12-.16-.16-.07-.04-.15-.06-.25-.06s-.18.02-.25.06c-.07.04-.13.09-.16.16-.04.07-.06.15-.06.24v.04c0,.1.02.18.06.25.04.07.09.13.16.17.07.04.15.06.25.06s.18-.02.25-.06Z"/>
  <path class="cls-5" d="M123.14,206.31l.15.11c-.05.09-.13.16-.23.2-.1.04-.22.06-.36.06-.22,0-.41-.05-.58-.16-.17-.11-.3-.25-.39-.45-.09-.19-.14-.42-.14-.67h0c0-.28.05-.52.15-.72.1-.2.24-.35.44-.46.19-.1.42-.16.69-.16s.5.05.69.16c.19.11.34.26.44.46.1.2.15.44.15.73h0c0,.15-.02.31-.06.47-.04.17-.1.35-.18.55,0,.03-.02.06-.03.08-.01.03-.02.06-.03.08l-.78,1.86h-.87l.95-2.16ZM123.2,205.78c.08-.09.12-.22.12-.39h0c0-.17-.04-.29-.12-.38-.08-.09-.19-.13-.33-.13s-.26.04-.34.13-.12.22-.12.38h0c0,.17.04.3.12.4s.19.14.34.14.25-.05.33-.14Z"/>
  <path class="cls-5" d="M124.73,207.65h.82v1.07l-.82.78v-1.86Z"/>
  <path class="cls-5" d="M130.39,204.12h.82v4.35h-.82v-4.35ZM130.75,207.68h1.39c.19,0,.33-.05.44-.14.1-.09.15-.22.15-.38h0c0-.12-.02-.21-.07-.29-.05-.08-.11-.14-.2-.18s-.19-.06-.32-.06h-1.39v-.79h1.39c.17,0,.3-.04.39-.13.09-.09.14-.21.14-.36,0-.14-.05-.25-.14-.33-.09-.08-.22-.12-.39-.12h-1.39v-.79h1.42c.28,0,.52.05.72.14.2.09.35.23.46.4.1.18.16.39.16.64,0,.17-.03.32-.1.45-.07.13-.16.24-.29.32-.13.08-.28.14-.46.17.19.03.36.08.49.18.14.09.24.21.31.35s.11.31.11.51h0c0,.26-.05.47-.16.65-.1.18-.26.31-.46.41-.2.09-.44.14-.72.14h-1.47v-.79Z"/>
  <path class="cls-5" d="M134.81,208.36c-.2-.11-.35-.26-.46-.46-.1-.2-.16-.45-.16-.73v-.51c0-.28.05-.52.16-.72.1-.2.26-.35.46-.46.2-.1.44-.16.73-.16s.53.05.73.16c.2.1.35.26.46.46.1.2.16.44.16.72v.51c0,.28-.05.53-.16.73s-.26.35-.46.46c-.2.11-.44.16-.73.16s-.53-.05-.73-.16ZM135.92,207.58c.09-.1.14-.23.14-.41v-.51c0-.17-.05-.31-.14-.4-.09-.1-.22-.14-.39-.14s-.29.05-.38.14c-.09.1-.14.23-.14.4v.51c0,.18.04.31.13.41.09.1.22.15.38.15s.29-.05.39-.15Z"/>
  <path class="cls-5" d="M138.54,208.52s-.09-.02-.26-.05c-.18-.03-.34-.08-.49-.14-.15-.06-.29-.14-.41-.23l.51-.63c.15.1.31.17.47.22.16.05.32.08.47.08.19,0,.34-.02.45-.06s.16-.1.16-.18c0-.07-.02-.12-.07-.16s-.1-.06-.18-.08c-.07-.02-.17-.03-.3-.04-.04,0-.07,0-.11-.01-.04,0-.07,0-.11-.01,0,0-.02,0-.03,0,0,0-.02,0-.03,0-.23-.03-.42-.07-.56-.11-.14-.04-.26-.13-.35-.25-.1-.13-.14-.31-.14-.54,0-.21.05-.39.15-.53s.24-.26.43-.34.42-.12.69-.12c.16,0,.31.02.47.05.16.03.31.08.45.14.14.06.28.13.4.22l-.49.6c-.14-.08-.28-.13-.42-.18-.15-.04-.29-.06-.43-.06-.17,0-.29.02-.39.06-.09.04-.14.09-.14.16,0,.05.02.09.07.12.05.03.11.05.18.06.07.01.18.03.32.04h.05s.04,0,.05.01c0,0,.02,0,.03,0s.02,0,.03,0c.24.03.44.06.59.11.15.04.28.13.39.26.11.13.16.33.16.58,0,.22-.05.4-.16.55-.1.15-.26.27-.46.35-.2.08-.44.12-.72.12h-.28Z"/>
  <path class="cls-5" d="M141.2,208.36c-.16-.11-.28-.26-.36-.46-.08-.2-.12-.44-.12-.73v-.5c0-.28.04-.53.12-.73.08-.2.2-.36.36-.46.16-.11.34-.16.56-.16.17,0,.32.05.45.15s.25.24.33.42l-.06.69c0-.11-.02-.19-.05-.27-.04-.07-.09-.13-.16-.17-.07-.04-.15-.06-.25-.06-.15,0-.27.05-.36.16-.08.1-.13.25-.13.44v.49c0,.19.04.33.13.43.08.1.2.15.36.15.1,0,.18-.02.25-.06.07-.04.12-.09.16-.16s.05-.16.05-.26l.04.71c-.06.17-.16.3-.29.39-.13.09-.29.14-.47.14-.22,0-.41-.05-.56-.16ZM142.48,205.37h.82v4.37h-.82v-4.37Z"/>
  <path class="cls-5" d="M144.93,207.25c0,.15.04.27.13.35.08.08.2.12.36.12s.27-.04.35-.13c.08-.08.12-.21.12-.36l.04.68c-.06.17-.15.31-.29.43-.13.12-.3.17-.49.17-.33,0-.59-.11-.77-.32-.18-.21-.27-.52-.27-.91v-1.92h.82v1.89ZM145.89,205.37h.82v3.11h-.82v-3.11Z"/>
  <path class="cls-5" d="M148.4,208.52s-.11-.05-.32-.16c-.21-.11-.37-.27-.49-.48-.11-.21-.17-.46-.17-.75v-.35c0-.31.05-.57.16-.79s.26-.38.47-.5c.2-.11.45-.17.74-.17.27,0,.5.07.7.2.19.14.34.33.44.59s.15.57.15.94v.2h-2.12v-.55h1.38v-.07c-.03-.18-.09-.32-.18-.42-.09-.1-.21-.15-.36-.15-.2,0-.35.06-.46.18-.11.12-.16.28-.16.5v.4c0,.21.06.38.18.49.12.12.28.17.5.17.11,0,.22-.02.33-.06.11-.04.21-.09.29-.17l.54.48c-.16.15-.34.26-.54.34-.2.08-.4.12-.61.12h-.45Z"/>
  <path class="cls-5" d="M151.72,208.52s-.09-.02-.26-.05c-.18-.03-.34-.08-.49-.14-.15-.06-.29-.14-.41-.23l.51-.63c.15.1.31.17.47.22.16.05.32.08.47.08.19,0,.34-.02.45-.06s.16-.1.16-.18c0-.07-.02-.12-.07-.16s-.1-.06-.18-.08c-.07-.02-.17-.03-.3-.04-.04,0-.07,0-.11-.01-.04,0-.07,0-.11-.01,0,0-.02,0-.03,0,0,0-.02,0-.03,0-.23-.03-.42-.07-.56-.11-.14-.04-.26-.13-.35-.25-.1-.13-.14-.31-.14-.54,0-.21.05-.39.15-.53s.24-.26.43-.34.42-.12.69-.12c.16,0,.31.02.47.05.16.03.31.08.45.14.14.06.28.13.4.22l-.49.6c-.14-.08-.28-.13-.42-.18-.15-.04-.29-.06-.43-.06-.17,0-.29.02-.39.06-.09.04-.14.09-.14.16,0,.05.02.09.07.12.05.03.11.05.18.06.07.01.18.03.32.04h.05s.04,0,.05.01c0,0,.02,0,.03,0s.02,0,.03,0c.24.03.44.06.59.11.15.04.28.13.39.26.11.13.16.33.16.58,0,.22-.05.4-.16.55-.1.15-.26.27-.46.35-.2.08-.44.12-.72.12h-.28Z"/>
  <path class="cls-5" d="M158.45,208.36c-.16-.11-.28-.26-.36-.46-.08-.2-.12-.44-.12-.73v-.5c0-.28.04-.53.12-.73.08-.2.2-.36.36-.46.16-.11.34-.16.56-.16.17,0,.32.05.45.15s.25.24.33.42l-.06.69c0-.11-.02-.19-.05-.27-.04-.07-.09-.13-.16-.17-.07-.04-.15-.06-.25-.06-.15,0-.27.05-.36.16-.08.1-.13.25-.13.44v.49c0,.19.04.33.13.43.08.1.2.15.36.15.1,0,.18-.02.25-.06.07-.04.12-.09.16-.16s.05-.16.05-.26l.04.71c-.06.17-.16.3-.29.39-.13.09-.29.14-.47.14-.22,0-.41-.05-.56-.16ZM159.74,204.12h.82v4.35h-.82v-4.35Z"/>
  <path class="cls-5" d="M162.25,208.52s-.11-.05-.32-.16c-.21-.11-.37-.27-.49-.48-.11-.21-.17-.46-.17-.75v-.35c0-.31.05-.57.16-.79s.26-.38.47-.5c.2-.11.45-.17.74-.17.27,0,.5.07.7.2.19.14.34.33.44.59s.15.57.15.94v.2h-2.12v-.55h1.38v-.07c-.03-.18-.09-.32-.18-.42-.09-.1-.21-.15-.36-.15-.2,0-.35.06-.46.18-.11.12-.16.28-.16.5v.4c0,.21.06.38.18.49.12.12.28.17.5.17.11,0,.22-.02.33-.06.11-.04.21-.09.29-.17l.54.48c-.16.15-.34.26-.54.34-.2.08-.4.12-.61.12h-.45Z"/>
  <path class="cls-5" d="M168.79,204.12h.82v4.35h-.82v-4.35ZM169.09,204.12h2.62v.79h-2.62v-.79ZM169.09,205.92h2.29v.79h-2.29v-.79ZM169.09,207.68h2.62v.79h-2.62v-.79Z"/>
  <path class="cls-5" d="M173.27,208.52l-.32-.17c-.21-.11-.37-.28-.48-.49-.11-.22-.16-.47-.16-.78v-.33c0-.3.05-.56.16-.77s.27-.37.48-.49c.21-.11.46-.17.76-.17.17,0,.33.02.48.06s.29.1.41.17c.12.07.22.16.3.27l-.53.51c-.08-.07-.16-.12-.27-.16-.1-.04-.21-.06-.32-.06-.21,0-.37.06-.48.17-.11.11-.17.27-.17.47v.33c0,.21.06.37.17.48s.27.17.48.17c.11,0,.22-.02.32-.06.1-.04.19-.1.26-.18l.53.54c-.08.1-.18.19-.3.26-.12.07-.25.13-.4.17-.15.04-.31.06-.48.06h-.44Z"/>
  <path class="cls-5" d="M175.45,204.12h.82v4.35h-.82v-4.35ZM177.25,206.59c0-.15-.04-.27-.13-.35-.09-.08-.21-.13-.37-.13s-.27.04-.35.13c-.08.08-.12.2-.12.36l-.06-.69c.09-.2.21-.34.34-.44.13-.1.29-.15.49-.15.33,0,.58.11.76.33s.27.53.27.94v1.89h-.82v-1.88Z"/>
  <path class="cls-5" d="M179.76,208.52s-.11-.05-.32-.16c-.21-.11-.37-.27-.49-.48-.11-.21-.17-.46-.17-.75v-.35c0-.31.05-.57.16-.79s.26-.38.47-.5c.2-.11.45-.17.74-.17.27,0,.5.07.7.2.19.14.34.33.44.59s.15.57.15.94v.2h-2.12v-.55h1.38v-.07c-.03-.18-.09-.32-.18-.42-.09-.1-.21-.15-.36-.15-.2,0-.35.06-.46.18-.11.12-.16.28-.16.5v.4c0,.21.06.38.18.49.12.12.28.17.5.17.11,0,.22-.02.33-.06.11-.04.21-.09.29-.17l.54.48c-.16.15-.34.26-.54.34-.2.08-.4.12-.61.12h-.45Z"/>
  <path class="cls-5" d="M182.55,208.36c-.16-.11-.28-.26-.36-.46-.08-.2-.12-.44-.12-.73v-.5c0-.28.04-.53.12-.73.08-.2.2-.36.36-.46.16-.11.34-.16.56-.16.17,0,.32.05.45.15s.25.24.33.42l-.06.69c0-.11-.02-.19-.05-.27-.04-.07-.09-.13-.16-.17-.07-.04-.15-.06-.25-.06-.15,0-.27.05-.36.16-.08.1-.13.25-.13.44v.49c0,.19.04.33.13.43.08.1.2.15.36.15.1,0,.18-.02.25-.06.07-.04.12-.09.16-.16s.05-.16.05-.26l.04.71c-.06.17-.16.3-.29.39-.13.09-.29.14-.47.14-.22,0-.41-.05-.56-.16ZM182.89,209.74s-.1-.04-.29-.13c-.19-.09-.35-.21-.45-.37l.55-.51c.07.08.15.13.25.18.1.04.2.06.31.06.17,0,.31-.05.42-.14.11-.09.16-.22.16-.39v-3.07h.82v3.01c0,.29-.05.53-.16.73-.11.2-.27.36-.48.46-.21.11-.46.16-.76.16h-.37Z"/>
  <path class="cls-5" d="M185.56,208.28c-.16-.16-.25-.4-.25-.72s.09-.54.28-.69c.18-.15.46-.23.83-.23h.78l.04.63h-.82c-.12,0-.22.02-.28.07s-.09.12-.09.22.04.18.12.23.2.07.35.07c.22,0,.38-.02.49-.07s.16-.13.16-.23l.06.45c-.01.11-.06.21-.15.28-.09.08-.2.14-.34.18-.14.04-.28.06-.43.06-.33,0-.58-.08-.75-.24ZM187.18,206.5c0-.14-.05-.25-.14-.33-.1-.08-.23-.12-.41-.12-.12,0-.23.02-.34.06s-.21.09-.3.16l-.51-.5c.12-.14.29-.25.49-.33.2-.08.43-.12.68-.12.27,0,.5.05.69.14.19.09.34.22.44.4.1.17.15.38.15.62v2h-.75v-1.97Z"/>
  <path class="cls-5" d="M188.73,205.37h.88v3.11h-.88v-3.11ZM190.33,206.14c-.06-.02-.12-.03-.2-.03-.17,0-.29.05-.38.16-.09.11-.14.26-.14.44l-.06-.81c.09-.19.2-.33.33-.43.14-.1.29-.15.45-.15.13,0,.25.02.35.06s.2.1.27.18l-.48.67s-.09-.07-.15-.09Z"/>
  <path class="cls-5" d="M191.44,208.28c-.16-.16-.25-.4-.25-.72s.09-.54.28-.69c.18-.15.46-.23.83-.23h.78l.04.63h-.82c-.12,0-.22.02-.28.07s-.09.12-.09.22.04.18.12.23.2.07.35.07c.22,0,.38-.02.49-.07s.16-.13.16-.23l.06.45c-.01.11-.06.21-.15.28-.09.08-.2.14-.34.18-.14.04-.28.06-.43.06-.33,0-.58-.08-.75-.24ZM193.06,206.5c0-.14-.05-.25-.14-.33-.1-.08-.23-.12-.41-.12-.12,0-.23.02-.34.06s-.21.09-.3.16l-.51-.5c.12-.14.29-.25.49-.33.2-.08.43-.12.68-.12.27,0,.5.05.69.14.19.09.34.22.44.4.1.17.15.38.15.62v2h-.75v-1.97Z"/>
  <path class="cls-5" d="M194.19,205.37h.77l1.04,2.7-.52.66-1.3-3.36ZM197.06,205.37l-1.38,3.83c-.05.14-.12.25-.19.34-.08.08-.17.14-.28.18-.11.04-.25.05-.42.05h-.18v-.8h.18c.09,0,.16-.02.22-.06.06-.04.1-.1.13-.19l1.15-3.36h.77Z"/>
  <path class="cls-5" d="M196.99,207.65h.82v1.07l-.82.78v-1.86Z"/>
  <path class="cls-5" d="M99.91,212.09h1l1.62,3.33-.07.08v-3.41h.78v4.35h-1.01l-1.61-3.28.07-.08v3.36h-.78v-4.35Z"/>
  <path class="cls-5" d="M104.23,216.25c-.16-.16-.25-.4-.25-.72s.09-.54.28-.69c.18-.15.46-.23.83-.23h.78l.04.63h-.82c-.12,0-.22.02-.28.07s-.09.12-.09.22.04.18.12.23.2.07.35.07c.22,0,.38-.02.49-.07s.16-.13.16-.23l.06.45c-.01.11-.06.21-.15.28-.09.08-.2.14-.34.18-.14.04-.28.06-.43.06-.33,0-.58-.08-.75-.24ZM105.85,214.47c0-.14-.05-.25-.14-.33-.1-.08-.23-.12-.41-.12-.12,0-.23.02-.34.06s-.21.09-.3.16l-.51-.5c.12-.14.29-.25.49-.33.2-.08.43-.12.68-.12.27,0,.5.05.69.14.19.09.34.22.44.4.1.17.15.38.15.62v2h-.75v-1.97Z"/>
  <path class="cls-5" d="M108.22,215.22c0,.15.04.27.13.35.08.08.2.12.36.12s.27-.04.35-.13c.08-.08.12-.21.12-.36l.04.68c-.06.17-.15.31-.29.43-.13.12-.3.17-.49.17-.33,0-.59-.11-.77-.32-.18-.21-.27-.52-.27-.91v-1.92h.82v1.89ZM109.18,213.34h.82v3.11h-.82v-3.11Z"/>
  <path class="cls-5" d="M111.68,216.49l-.32-.17c-.21-.11-.37-.28-.48-.49-.11-.22-.16-.47-.16-.78v-.33c0-.3.05-.56.16-.77s.27-.37.48-.49c.21-.11.46-.17.76-.17.17,0,.33.02.48.06s.29.1.41.17c.12.07.22.16.3.27l-.53.51c-.08-.07-.16-.12-.27-.16-.1-.04-.21-.06-.32-.06-.21,0-.37.06-.48.17-.11.11-.17.27-.17.47v.33c0,.21.06.37.17.48s.27.17.48.17c.11,0,.22-.02.32-.06.1-.04.19-.1.26-.18l.53.54c-.08.1-.18.19-.3.26-.12.07-.25.13-.4.17-.15.04-.31.06-.48.06h-.44Z"/>
  <path class="cls-5" d="M113.96,216.25c-.16-.16-.25-.4-.25-.72s.09-.54.28-.69c.18-.15.46-.23.83-.23h.78l.04.63h-.82c-.12,0-.22.02-.28.07s-.09.12-.09.22.04.18.12.23.2.07.35.07c.22,0,.38-.02.49-.07s.16-.13.16-.23l.06.45c-.01.11-.06.21-.15.28-.09.08-.2.14-.34.18-.14.04-.28.06-.43.06-.33,0-.58-.08-.75-.24ZM115.57,214.47c0-.14-.05-.25-.14-.33-.1-.08-.23-.12-.41-.12-.12,0-.23.02-.34.06s-.21.09-.3.16l-.51-.5c.12-.14.29-.25.49-.33.2-.08.43-.12.68-.12.27,0,.5.05.69.14.19.09.34.22.44.4.1.17.15.38.15.62v2h-.75v-1.97Z"/>
  <path class="cls-5" d="M117.95,215.42c0,.08.02.13.06.18.04.04.1.06.18.06h.14v.79h-.42c-.25,0-.44-.07-.58-.22s-.21-.35-.21-.61v-3.53h.82v3.33Z"/>
  <path class="cls-5" d="M118.87,213.34h.82v4.37h-.82v-4.37ZM119.94,216.35c-.13-.09-.23-.22-.29-.39l.04-.71c0,.1.02.19.05.26s.09.13.16.16.15.06.25.06c.15,0,.27-.05.36-.15.08-.1.13-.24.13-.43v-.49c0-.19-.04-.34-.13-.44-.08-.11-.2-.16-.36-.16-.1,0-.18.02-.25.06-.07.04-.12.09-.16.17-.04.07-.05.16-.05.27l-.06-.69c.08-.18.19-.32.33-.42s.29-.15.45-.15c.22,0,.41.05.56.16.16.11.28.26.36.46.08.2.12.45.12.73v.5c0,.28-.04.53-.12.73-.08.2-.2.35-.36.46-.16.11-.34.16-.56.16-.18,0-.34-.05-.47-.14Z"/>
  <path class="cls-5" d="M122.3,216.25c-.16-.16-.25-.4-.25-.72s.09-.54.28-.69c.18-.15.46-.23.83-.23h.78l.04.63h-.82c-.12,0-.22.02-.28.07s-.09.12-.09.22.04.18.12.23.2.07.35.07c.22,0,.38-.02.49-.07s.16-.13.16-.23l.06.45c-.01.11-.06.21-.15.28-.09.08-.2.14-.34.18-.14.04-.28.06-.43.06-.33,0-.58-.08-.75-.24ZM123.91,214.47c0-.14-.05-.25-.14-.33-.1-.08-.23-.12-.41-.12-.12,0-.23.02-.34.06s-.21.09-.3.16l-.51-.5c.12-.14.29-.25.49-.33.2-.08.43-.12.68-.12.27,0,.5.05.69.14.19.09.34.22.44.4.1.17.15.38.15.62v2h-.75v-1.97Z"/>
  <path class="cls-5" d="M125.47,213.34h.82v3.11h-.82v-3.11ZM127.26,214.56c0-.15-.04-.27-.13-.35-.09-.08-.21-.13-.37-.13s-.27.04-.35.13c-.08.08-.12.2-.12.36l-.06-.69c.09-.2.21-.34.34-.44.13-.1.29-.15.49-.15.33,0,.58.11.76.33s.27.53.27.94v1.89h-.82v-1.88Z"/>
  <path class="cls-5" d="M131.31,216.33c-.16-.11-.28-.26-.36-.46-.08-.2-.12-.44-.12-.73v-.5c0-.28.04-.53.12-.73.08-.2.2-.36.36-.46.16-.11.34-.16.56-.16.17,0,.32.05.45.15s.25.24.33.42l-.06.69c0-.11-.02-.19-.05-.27-.04-.07-.09-.13-.16-.17-.07-.04-.15-.06-.25-.06-.15,0-.27.05-.36.16-.08.1-.13.25-.13.44v.49c0,.19.04.33.13.43.08.1.2.15.36.15.1,0,.18-.02.25-.06.07-.04.12-.09.16-.16s.05-.16.05-.26l.04.71c-.06.17-.16.3-.29.39-.13.09-.29.14-.47.14-.22,0-.41-.05-.56-.16ZM132.6,212.09h.82v4.35h-.82v-4.35Z"/>
  <path class="cls-5" d="M135.11,216.49s-.11-.05-.32-.16c-.21-.11-.37-.27-.49-.48-.11-.21-.17-.46-.17-.75v-.35c0-.31.05-.57.16-.79s.26-.38.47-.5c.2-.11.45-.17.74-.17.27,0,.5.07.7.2.19.14.34.33.44.59s.15.57.15.94v.2h-2.12v-.55h1.38v-.07c-.03-.18-.09-.32-.18-.42-.09-.1-.21-.15-.36-.15-.2,0-.35.06-.46.18-.11.12-.16.28-.16.5v.4c0,.21.06.38.18.49.12.12.28.17.5.17.11,0,.22-.02.33-.06.11-.04.21-.09.29-.17l.54.48c-.16.15-.34.26-.54.34-.2.08-.4.12-.61.12h-.45Z"/>
  <path class="cls-5" d="M139.64,216.33c-.21-.1-.37-.25-.49-.44l.67-.49c.07.09.16.16.26.21s.21.07.32.07c.16,0,.28-.06.37-.17.09-.11.13-.27.13-.47v-2.97h.85v2.97c0,.3-.05.56-.16.77-.11.21-.27.38-.47.49-.21.11-.46.17-.75.17-.27,0-.51-.05-.71-.16Z"/>
  <path class="cls-5" d="M143.46,215.22c0,.15.04.27.13.35.08.08.2.12.36.12s.27-.04.35-.13c.08-.08.12-.21.12-.36l.04.68c-.06.17-.15.31-.29.43-.13.12-.3.17-.49.17-.33,0-.59-.11-.77-.32-.18-.21-.27-.52-.27-.91v-1.92h.82v1.89ZM144.43,213.34h.82v3.11h-.82v-3.11Z"/>
  <path class="cls-5" d="M146.15,216.25c-.16-.16-.25-.4-.25-.72s.09-.54.28-.69c.18-.15.46-.23.83-.23h.78l.04.63h-.82c-.12,0-.22.02-.28.07s-.09.12-.09.22.04.18.12.23.2.07.35.07c.22,0,.38-.02.49-.07s.16-.13.16-.23l.06.45c-.01.11-.06.21-.15.28-.09.08-.2.14-.34.18-.14.04-.28.06-.43.06-.33,0-.58-.08-.75-.24ZM147.76,214.47c0-.14-.05-.25-.14-.33-.1-.08-.23-.12-.41-.12-.12,0-.23.02-.34.06s-.21.09-.3.16l-.51-.5c.12-.14.29-.25.49-.33.2-.08.43-.12.68-.12.27,0,.5.05.69.14.19.09.34.22.44.4.1.17.15.38.15.62v2h-.75v-1.97ZM146.79,212.49l.86-1.06.58.48-.91,1.01-.52-.43Z"/>
  <path class="cls-5" d="M149.32,213.34h.88v3.11h-.88v-3.11ZM150.92,214.11c-.06-.02-.12-.03-.2-.03-.17,0-.29.05-.38.16-.09.11-.14.26-.14.44l-.06-.81c.09-.19.2-.33.33-.43.14-.1.29-.15.45-.15.13,0,.25.02.35.06s.2.1.27.18l-.48.67s-.09-.07-.15-.09Z"/>
  <path class="cls-5" d="M152.75,216.49s-.11-.05-.32-.16c-.21-.11-.37-.27-.49-.48-.11-.21-.17-.46-.17-.75v-.35c0-.31.05-.57.16-.79s.26-.38.47-.5c.2-.11.45-.17.74-.17.27,0,.5.07.7.2.19.14.34.33.44.59s.15.57.15.94v.2h-2.12v-.55h1.38v-.07c-.03-.18-.09-.32-.18-.42-.09-.1-.21-.15-.36-.15-.2,0-.35.06-.46.18-.11.12-.16.28-.16.5v.4c0,.21.06.38.18.49.12.12.28.17.5.17.11,0,.22-.02.33-.06.11-.04.21-.09.29-.17l.54.48c-.16.15-.34.26-.54.34-.2.08-.4.12-.61.12h-.45Z"/>
  <path class="cls-5" d="M157.42,214.03l-1.37,1.67h1.45v.75h-2.43v-.71l1.41-1.66h-1.37v-.75h2.31v.69Z"/>
  <path class="cls-5" d="M160.56,216.08c-.19-.48-.28-1.01-.28-1.58s.09-1.1.28-1.58.47-.91.84-1.3l.48.59c-.27.31-.47.65-.61,1.03s-.2.8-.2,1.25.07.88.2,1.26c.13.38.34.73.61,1.03l-.48.59c-.38-.39-.66-.82-.84-1.3Z"/>
  <path class="cls-5" d="M162.4,216.25c-.16-.16-.25-.4-.25-.72s.09-.54.28-.69c.18-.15.46-.23.83-.23h.78l.04.63h-.82c-.12,0-.22.02-.28.07s-.09.12-.09.22.04.18.12.23.2.07.35.07c.22,0,.38-.02.49-.07s.16-.13.16-.23l.06.45c-.01.11-.06.21-.15.28-.09.08-.2.14-.34.18-.14.04-.28.06-.43.06-.33,0-.58-.08-.75-.24ZM164.01,214.47c0-.14-.05-.25-.14-.33-.1-.08-.23-.12-.41-.12-.12,0-.23.02-.34.06s-.21.09-.3.16l-.51-.5c.12-.14.29-.25.49-.33.2-.08.43-.12.68-.12.27,0,.5.05.69.14.19.09.34.22.44.4.1.17.15.38.15.62v2h-.75v-1.97Z"/>
  <path class="cls-5" d="M168.42,215.22c0,.15.04.27.13.35.08.08.2.12.36.12s.27-.04.35-.13c.08-.08.12-.21.12-.36l.04.68c-.06.17-.15.31-.29.43-.13.12-.3.17-.49.17-.33,0-.59-.11-.77-.32-.18-.21-.27-.52-.27-.91v-1.92h.82v1.89ZM169.38,213.34h.82v3.11h-.82v-3.11Z"/>
  <path class="cls-5" d="M171,213.34h.82v3.11h-.82v-3.11ZM172.8,214.56c0-.15-.04-.27-.13-.35-.09-.08-.21-.13-.37-.13s-.27.04-.35.13c-.08.08-.12.2-.12.36l-.06-.69c.09-.2.21-.34.34-.44.13-.1.29-.15.49-.15.33,0,.58.11.76.33s.27.53.27.94v1.89h-.82v-1.88Z"/>
  <path class="cls-5" d="M177.28,215.42c0,.08.02.13.06.18.04.04.1.06.18.06h.14v.79h-.42c-.25,0-.44-.07-.58-.22s-.21-.35-.21-.61v-3.53h.82v3.33Z"/>
  <path class="cls-5" d="M178.3,216.25c-.16-.16-.25-.4-.25-.72s.09-.54.28-.69c.18-.15.46-.23.83-.23h.78l.04.63h-.82c-.12,0-.22.02-.28.07s-.09.12-.09.22.04.18.12.23.2.07.35.07c.22,0,.38-.02.49-.07s.16-.13.16-.23l.06.45c-.01.11-.06.21-.15.28-.09.08-.2.14-.34.18-.14.04-.28.06-.43.06-.33,0-.58-.08-.75-.24ZM179.91,214.47c0-.14-.05-.25-.14-.33-.1-.08-.23-.12-.41-.12-.12,0-.23.02-.34.06s-.21.09-.3.16l-.51-.5c.12-.14.29-.25.49-.33.2-.08.43-.12.68-.12.27,0,.5.05.69.14.19.09.34.22.44.4.1.17.15.38.15.62v2h-.75v-1.97Z"/>
  <path class="cls-5" d="M181.86,216.33c-.16-.11-.28-.26-.36-.46-.08-.2-.12-.44-.12-.73v-.5c0-.28.04-.53.12-.73.08-.2.2-.36.36-.46.16-.11.34-.16.56-.16.17,0,.32.05.45.15s.25.24.33.42l-.06.69c0-.11-.02-.19-.05-.27-.04-.07-.09-.13-.16-.17-.07-.04-.15-.06-.25-.06-.15,0-.27.05-.36.16-.08.1-.13.25-.13.44v.49c0,.19.04.33.13.43.08.1.2.15.36.15.1,0,.18-.02.25-.06.07-.04.12-.09.16-.16s.05-.16.05-.26l.04.71c-.06.17-.16.3-.29.39-.13.09-.29.14-.47.14-.22,0-.41-.05-.56-.16ZM183.14,212.09h.82v4.35h-.82v-4.35Z"/>
  <path class="cls-5" d="M185.3,216.33c-.2-.11-.35-.26-.46-.46-.1-.2-.16-.45-.16-.73v-.51c0-.28.05-.52.16-.72.1-.2.26-.35.46-.46.2-.1.44-.16.73-.16s.53.05.73.16c.2.1.35.26.46.46.1.2.16.44.16.72v.51c0,.28-.05.53-.16.73s-.26.35-.46.46c-.2.11-.44.16-.73.16s-.53-.05-.73-.16ZM186.41,215.55c.09-.1.14-.23.14-.41v-.51c0-.17-.05-.31-.14-.4-.09-.1-.22-.14-.39-.14s-.29.05-.38.14c-.09.1-.14.23-.14.4v.51c0,.18.04.31.13.41.09.1.22.15.38.15s.29-.05.39-.15Z"/>
  <path class="cls-5" d="M190.53,216.33c-.16-.11-.28-.26-.36-.46-.08-.2-.12-.44-.12-.73v-.5c0-.28.04-.53.12-.73.08-.2.2-.36.36-.46.16-.11.34-.16.56-.16.17,0,.32.05.45.15s.25.24.33.42l-.06.69c0-.11-.02-.19-.05-.27-.04-.07-.09-.13-.16-.17-.07-.04-.15-.06-.25-.06-.15,0-.27.05-.36.16-.08.1-.13.25-.13.44v.49c0,.19.04.33.13.43.08.1.2.15.36.15.1,0,.18-.02.25-.06.07-.04.12-.09.16-.16s.05-.16.05-.26l.04.71c-.06.17-.16.3-.29.39-.13.09-.29.14-.47.14-.22,0-.41-.05-.56-.16ZM191.82,212.09h.82v4.35h-.82v-4.35Z"/>
  <path class="cls-5" d="M194.33,216.49s-.11-.05-.32-.16c-.21-.11-.37-.27-.49-.48-.11-.21-.17-.46-.17-.75v-.35c0-.31.05-.57.16-.79s.26-.38.47-.5c.2-.11.45-.17.74-.17.27,0,.5.07.7.2.19.14.34.33.44.59s.15.57.15.94v.2h-2.12v-.55h1.38v-.07c-.03-.18-.09-.32-.18-.42-.09-.1-.21-.15-.36-.15-.2,0-.35.06-.46.18-.11.12-.16.28-.16.5v.4c0,.21.06.38.18.49.12.12.28.17.5.17.11,0,.22-.02.33-.06.11-.04.21-.09.29-.17l.54.48c-.16.15-.34.26-.54.34-.2.08-.4.12-.61.12h-.45Z"/>
  <path class="cls-5" d="M197.55,215.42c0,.08.02.13.06.18.04.04.1.06.18.06h.14v.79h-.42c-.25,0-.44-.07-.58-.22s-.21-.35-.21-.61v-3.53h.82v3.33Z"/>
  <path class="cls-5" d="M99.91,220.06h.82v4.35h-.82v-4.35ZM100.28,221.93h1.39c.1,0,.18-.02.26-.07.07-.04.13-.11.18-.19.04-.08.06-.18.06-.28s-.02-.2-.06-.29c-.04-.08-.1-.15-.17-.19-.07-.04-.16-.07-.26-.07h-1.39v-.79h1.37c.27,0,.51.06.72.17.21.11.37.27.48.47s.17.43.17.7-.06.5-.17.7-.27.36-.48.47-.45.16-.72.16h-1.37v-.79Z"/>
  <path class="cls-5" d="M103.92,224.3c-.2-.11-.35-.26-.46-.46-.1-.2-.16-.45-.16-.73v-.51c0-.28.05-.52.16-.72.1-.2.26-.35.46-.46.2-.1.44-.16.73-.16s.53.05.73.16c.2.1.35.26.46.46.1.2.16.44.16.72v.51c0,.28-.05.53-.16.73s-.26.35-.46.46c-.2.11-.44.16-.73.16s-.53-.05-.73-.16ZM105.03,223.52c.09-.1.14-.23.14-.41v-.51c0-.17-.05-.31-.14-.4-.09-.1-.22-.14-.39-.14s-.29.05-.38.14c-.09.1-.14.23-.14.4v.51c0,.18.04.31.13.41.09.1.22.15.38.15s.29-.05.39-.15Z"/>
  <path class="cls-5" d="M109,222l-1.37,1.67h1.45v.75h-2.43v-.71l1.41-1.66h-1.37v-.75h2.31v.69Z"/>
  <path class="cls-5" d="M110.29,224.3c-.2-.11-.35-.26-.46-.46-.1-.2-.16-.45-.16-.73v-.51c0-.28.05-.52.16-.72.1-.2.26-.35.46-.46.2-.1.44-.16.73-.16s.53.05.73.16c.2.1.35.26.46.46.1.2.16.44.16.72v.51c0,.28-.05.53-.16.73s-.26.35-.46.46c-.2.11-.44.16-.73.16s-.53-.05-.73-.16ZM111.4,223.52c.09-.1.14-.23.14-.41v-.51c0-.17-.05-.31-.14-.4-.09-.1-.22-.14-.39-.14s-.29.05-.38.14c-.09.1-.14.23-.14.4v.51c0,.18.04.31.13.41.09.1.22.15.38.15s.29-.05.39-.15Z"/>
  <path class="cls-5" d="M117.75,224.26c-.24-.13-.43-.32-.56-.56-.13-.24-.2-.52-.2-.84v-1.23c0-.32.07-.6.2-.84.13-.24.32-.43.56-.56s.52-.2.83-.2.59.07.83.2.43.32.56.56c.13.24.2.52.2.84v1.23c0,.32-.07.6-.2.84-.13.24-.32.43-.56.56s-.52.2-.83.2-.59-.07-.83-.2ZM118.97,223.54c.11-.06.2-.15.26-.27.06-.12.09-.25.09-.4v-1.27c0-.15-.03-.29-.09-.4-.06-.12-.15-.21-.26-.27s-.24-.09-.39-.09-.28.03-.39.09c-.11.06-.2.15-.26.27-.06.12-.09.25-.09.4v1.27c0,.15.03.29.09.4.06.12.15.21.26.27.11.06.24.09.39.09s.28-.03.39-.09Z"/>
  <path class="cls-5" d="M122.11,220.06h.52l1.66,4.35h-.88l-1.04-2.97-1.04,2.97h-.88l1.66-4.35ZM121.24,222.92h2.29v.79h-2.29v-.79Z"/>
  <path class="cls-5" d="M124.83,220.06h.82v4.35h-.82v-4.35ZM125.21,221.93h1.39c.1,0,.18-.02.26-.07.07-.04.13-.11.18-.19.04-.08.06-.18.06-.28s-.02-.2-.06-.29c-.04-.08-.1-.15-.17-.19-.07-.04-.16-.07-.26-.07h-1.39v-.79h1.37c.27,0,.51.06.72.17.21.11.37.27.48.47s.17.43.17.7-.06.5-.17.7-.27.36-.48.47-.45.16-.72.16h-1.37v-.79Z"/>
  <path class="cls-5" d="M129.62,220.06h.52l1.66,4.35h-.88l-1.04-2.97-1.04,2.97h-.88l1.66-4.35ZM128.76,222.92h2.29v.79h-2.29v-.79Z"/>
  <path class="cls-5" d="M133.17,224.46s-.1-.02-.3-.06-.39-.1-.56-.18c-.17-.08-.33-.18-.47-.29l.38-.68c.17.14.36.24.58.32s.45.11.68.11c.27,0,.47-.05.62-.14.15-.09.22-.22.22-.38h0c0-.12-.03-.21-.1-.28-.07-.07-.15-.12-.26-.15-.11-.03-.24-.06-.41-.09,0,0-.01,0-.02,0,0,0-.01,0-.02,0h-.07c-.29-.06-.53-.11-.72-.18-.19-.07-.35-.19-.49-.36s-.2-.42-.2-.73h0c0-.28.06-.53.19-.72s.31-.35.55-.46c.24-.1.53-.16.87-.16.16,0,.31.02.48.05s.32.09.48.16.3.15.44.25l-.35.69c-.17-.12-.34-.21-.53-.27-.18-.06-.36-.1-.53-.1-.25,0-.45.04-.58.12-.14.08-.21.2-.21.35h0c0,.13.04.23.11.3.07.07.16.13.27.16.11.03.25.07.45.11,0,0,.02,0,.02,0,0,0,.02,0,.02,0,.01,0,.02,0,.03,0,.01,0,.02,0,.03,0,.28.05.51.12.69.2.18.08.34.2.46.37.12.17.19.4.19.7h0c0,.28-.06.52-.19.72-.13.2-.32.35-.57.45-.25.1-.55.16-.9.16h-.31Z"/>
  <path class="cls-5" d="M139.8,220.06h.82v4.35h-.82v-4.35ZM140.1,220.06h2.62v.79h-2.62v-.79ZM140.1,221.86h2.29v.79h-2.29v-.79ZM140.1,223.62h2.62v.79h-2.62v-.79Z"/>
  <path class="cls-5" d="M144.28,224.46l-.32-.17c-.21-.11-.37-.28-.48-.49-.11-.22-.16-.47-.16-.78v-.33c0-.3.05-.56.16-.77s.27-.37.48-.49c.21-.11.46-.17.76-.17.17,0,.33.02.48.06s.29.1.41.17c.12.07.22.16.3.27l-.53.51c-.08-.07-.16-.12-.27-.16-.1-.04-.21-.06-.32-.06-.21,0-.37.06-.48.17-.11.11-.17.27-.17.47v.33c0,.21.06.37.17.48s.27.17.48.17c.11,0,.22-.02.32-.06.1-.04.19-.1.26-.18l.53.54c-.08.1-.18.19-.3.26-.12.07-.25.13-.4.17-.15.04-.31.06-.48.06h-.44Z"/>
  <path class="cls-5" d="M146.46,220.06h.82v4.35h-.82v-4.35ZM148.26,222.53c0-.15-.04-.27-.13-.35-.09-.08-.21-.13-.37-.13s-.27.04-.35.13c-.08.08-.12.2-.12.36l-.06-.69c.09-.2.21-.34.34-.44.13-.1.29-.15.49-.15.33,0,.58.11.76.33s.27.53.27.94v1.89h-.82v-1.88Z"/>
  <path class="cls-5" d="M149.98,224.22c-.16-.16-.25-.4-.25-.72s.09-.54.28-.69c.18-.15.46-.23.83-.23h.78l.04.63h-.82c-.12,0-.22.02-.28.07s-.09.12-.09.22.04.18.12.23.2.07.35.07c.22,0,.38-.02.49-.07.11-.05.16-.13.16-.23l.06.45c-.01.11-.06.21-.15.28-.09.08-.2.14-.34.18-.14.04-.28.06-.43.06-.33,0-.58-.08-.75-.24ZM151.59,222.44c0-.14-.05-.25-.14-.33-.1-.08-.23-.12-.41-.12-.12,0-.23.02-.34.06s-.21.09-.3.16l-.51-.5c.12-.14.29-.25.49-.33.2-.08.43-.12.68-.12.27,0,.5.05.69.14.19.09.34.22.44.4.1.17.15.38.15.62v2h-.75v-1.97Z"/>
  <path class="cls-5" d="M153.54,224.3c-.16-.11-.28-.26-.36-.46-.08-.2-.12-.44-.12-.73v-.5c0-.28.04-.53.12-.73.08-.2.2-.36.36-.46.16-.11.34-.16.56-.16.17,0,.32.05.45.15s.25.24.33.42l-.06.69c0-.11-.02-.19-.05-.27-.04-.07-.09-.13-.16-.17-.07-.04-.15-.06-.25-.06-.15,0-.27.05-.36.16-.08.1-.13.25-.13.44v.49c0,.19.04.33.13.43.08.1.2.15.36.15.1,0,.18-.02.25-.06.07-.04.12-.09.16-.16s.05-.16.05-.26l.04.71c-.06.17-.16.3-.29.39-.13.09-.29.14-.47.14-.22,0-.41-.05-.56-.16ZM153.88,225.68s-.1-.04-.29-.13c-.19-.09-.35-.21-.45-.37l.55-.51c.07.08.15.13.25.18s.2.06.31.06c.17,0,.31-.05.42-.14.11-.09.16-.22.16-.39v-3.07h.82v3.01c0,.29-.05.53-.16.73-.11.2-.27.36-.48.46-.21.11-.46.16-.76.16h-.37Z"/>
  <path class="cls-5" d="M156.55,224.22c-.16-.16-.25-.4-.25-.72s.09-.54.28-.69c.18-.15.46-.23.83-.23h.78l.04.63h-.82c-.12,0-.22.02-.28.07s-.09.12-.09.22.04.18.12.23.2.07.35.07c.22,0,.38-.02.49-.07.11-.05.16-.13.16-.23l.06.45c-.01.11-.06.21-.15.28-.09.08-.2.14-.34.18-.14.04-.28.06-.43.06-.33,0-.58-.08-.75-.24ZM158.16,222.44c0-.14-.05-.25-.14-.33-.1-.08-.23-.12-.41-.12-.12,0-.23.02-.34.06s-.21.09-.3.16l-.51-.5c.12-.14.29-.25.49-.33.2-.08.43-.12.68-.12.27,0,.5.05.69.14.19.09.34.22.44.4.1.17.15.38.15.62v2h-.75v-1.97Z"/>
  <path class="cls-5" d="M159.71,221.31h.88v3.11h-.88v-3.11ZM161.32,222.08c-.06-.02-.12-.03-.2-.03-.17,0-.29.05-.38.16-.09.11-.14.26-.14.44l-.06-.81c.09-.19.2-.33.33-.43.14-.1.29-.15.45-.15.13,0,.25.02.35.06s.2.1.27.18l-.48.67s-.09-.07-.15-.09Z"/>
  <path class="cls-5" d="M162.43,224.22c-.16-.16-.25-.4-.25-.72s.09-.54.28-.69c.18-.15.46-.23.83-.23h.78l.04.63h-.82c-.12,0-.22.02-.28.07s-.09.12-.09.22.04.18.12.23.2.07.35.07c.22,0,.38-.02.49-.07.11-.05.16-.13.16-.23l.06.45c-.01.11-.06.21-.15.28-.09.08-.2.14-.34.18-.14.04-.28.06-.43.06-.33,0-.58-.08-.75-.24ZM164.04,222.44c0-.14-.05-.25-.14-.33-.1-.08-.23-.12-.41-.12-.12,0-.23.02-.34.06s-.21.09-.3.16l-.51-.5c.12-.14.29-.25.49-.33.2-.08.43-.12.68-.12.27,0,.5.05.69.14.19.09.34.22.44.4.1.17.15.38.15.62v2h-.75v-1.97Z"/>
  <path class="cls-5" d="M165.17,221.31h.77l1.04,2.7-.52.66-1.3-3.36ZM168.04,221.31l-1.38,3.83c-.05.14-.12.25-.19.34-.08.08-.17.14-.28.18-.11.04-.25.05-.42.05h-.18v-.8h.18c.09,0,.16-.02.22-.06.06-.04.1-.1.13-.19l1.15-3.36h.77Z"/>
  <path class="cls-5" d="M167.97,223.59h.82v1.07l-.82.78v-1.86Z"/>
  <path class="cls-5" d="M173.8,224.3c-.16-.11-.28-.26-.36-.46-.08-.2-.12-.44-.12-.73v-.5c0-.28.04-.53.12-.73.08-.2.2-.36.36-.46.16-.11.34-.16.56-.16.17,0,.32.05.45.15s.25.24.33.42l-.06.69c0-.11-.02-.19-.05-.27-.04-.07-.09-.13-.16-.17-.07-.04-.15-.06-.25-.06-.15,0-.27.05-.36.16-.08.1-.13.25-.13.44v.49c0,.19.04.33.13.43.08.1.2.15.36.15.1,0,.18-.02.25-.06.07-.04.12-.09.16-.16s.05-.16.05-.26l.04.71c-.06.17-.16.3-.29.39-.13.09-.29.14-.47.14-.22,0-.41-.05-.56-.16ZM175.09,220.06h.82v4.35h-.82v-4.35Z"/>
  <path class="cls-5" d="M176.67,220.06h.82v.82h-.82v-.82ZM176.67,221.31h.82v3.11h-.82v-3.11Z"/>
  <path class="cls-5" d="M178.26,221.31h.88v3.11h-.88v-3.11ZM179.86,222.08c-.06-.02-.12-.03-.2-.03-.17,0-.29.05-.38.16-.09.11-.14.26-.14.44l-.06-.81c.09-.19.2-.33.33-.43.14-.1.29-.15.45-.15.13,0,.25.02.35.06s.2.1.27.18l-.48.67s-.09-.07-.15-.09Z"/>
  <path class="cls-5" d="M181.7,224.46s-.11-.05-.32-.16c-.21-.11-.37-.27-.49-.48-.11-.21-.17-.46-.17-.75v-.35c0-.31.05-.57.16-.79s.26-.38.47-.5c.2-.11.45-.17.74-.17.27,0,.5.07.7.2.19.14.34.33.44.59s.15.57.15.94v.2h-2.12v-.55h1.38v-.07c-.03-.18-.09-.32-.18-.42-.09-.1-.21-.15-.36-.15-.2,0-.35.06-.46.18-.11.12-.16.28-.16.5v.4c0,.21.06.38.18.49.12.12.28.17.5.17.11,0,.22-.02.33-.06.11-.04.21-.09.29-.17l.54.48c-.16.15-.34.26-.54.34-.2.08-.4.12-.61.12h-.45Z"/>
  <path class="cls-5" d="M184.97,224.46l-.32-.17c-.21-.11-.37-.28-.48-.49-.11-.22-.16-.47-.16-.78v-.33c0-.3.05-.56.16-.77s.27-.37.48-.49c.21-.11.46-.17.76-.17.17,0,.33.02.48.06s.29.1.41.17c.12.07.22.16.3.27l-.53.51c-.08-.07-.16-.12-.27-.16-.1-.04-.21-.06-.32-.06-.21,0-.37.06-.48.17-.11.11-.17.27-.17.47v.33c0,.21.06.37.17.48s.27.17.48.17c.11,0,.22-.02.32-.06.1-.04.19-.1.26-.18l.53.54c-.08.1-.18.19-.3.26-.12.07-.25.13-.4.17-.15.04-.31.06-.48.06h-.44Z"/>
  <path class="cls-5" d="M188.02,224.46l-.32-.17c-.21-.11-.37-.28-.48-.49-.11-.22-.16-.47-.16-.78v-.33c0-.3.05-.56.16-.77s.27-.37.48-.49c.21-.11.46-.17.76-.17.17,0,.33.02.48.06s.29.1.41.17c.12.07.22.16.3.27l-.53.51c-.08-.07-.16-.12-.27-.16-.1-.04-.21-.06-.32-.06-.21,0-.37.06-.48.17-.11.11-.17.27-.17.47v.33c0,.21.06.37.17.48s.27.17.48.17c.11,0,.22-.02.32-.06.1-.04.19-.1.26-.18l.53.54c-.08.1-.18.19-.3.26-.12.07-.25.13-.4.17-.15.04-.31.06-.48.06h-.44Z"/>
  <path class="cls-5" d="M190.16,220.06h.82v.82h-.82v-.82ZM190.16,221.31h.82v3.11h-.82v-3.11Z"/>
  <path class="cls-5" d="M192.27,224.3c-.2-.11-.35-.26-.46-.46-.1-.2-.16-.45-.16-.73v-.51c0-.28.05-.52.16-.72.1-.2.26-.35.46-.46.2-.1.44-.16.73-.16s.53.05.73.16c.2.1.35.26.46.46.1.2.16.44.16.72v.51c0,.28-.05.53-.16.73s-.26.35-.46.46c-.2.11-.44.16-.73.16s-.53-.05-.73-.16ZM193.38,223.52c.09-.1.14-.23.14-.41v-.51c0-.17-.05-.31-.14-.4-.09-.1-.22-.14-.39-.14s-.29.05-.38.14c-.09.1-.14.23-.14.4v.51c0,.18.04.31.13.41.09.1.22.15.38.15s.29-.05.39-.15ZM192.53,220.46l.86-1.06.58.48-.91,1.01-.52-.43Z"/>
  <path class="cls-5" d="M195.08,221.31h.82v3.11h-.82v-3.11ZM196.88,222.53c0-.15-.04-.27-.13-.35-.09-.08-.21-.13-.37-.13s-.27.04-.35.13c-.08.08-.12.2-.12.36l-.06-.69c.09-.2.21-.34.34-.44.13-.1.29-.15.49-.15.33,0,.58.11.76.33s.27.53.27.94v1.89h-.82v-1.88Z"/>
  <path class="cls-5" d="M101.15,228.03h.52l1.66,4.35h-.88l-1.04-2.97-1.04,2.97h-.88l1.66-4.35ZM100.29,230.89h2.29v.79h-2.29v-.79Z"/>
  <path class="cls-5" d="M105.49,229.27h.82l-1.17,3.11h-.58l-1.17-3.11h.82l.64,1.95.64-1.95Z"/>
  <path class="cls-5" d="M109.53,228.03h.82v4.35h-.82v-4.35ZM109.89,231.59h2.55v.79h-2.55v-.79Z"/>
  <path class="cls-5" d="M113.5,232.27c-.2-.11-.35-.26-.46-.46-.1-.2-.16-.45-.16-.73v-.51c0-.28.05-.52.16-.72.1-.2.26-.35.46-.46.2-.1.44-.16.73-.16s.53.05.73.16c.2.1.35.26.46.46.1.2.16.44.16.72v.51c0,.28-.05.53-.16.73s-.26.35-.46.46c-.2.11-.44.16-.73.16s-.53-.05-.73-.16ZM114.61,231.49c.09-.1.14-.23.14-.41v-.51c0-.17-.05-.31-.14-.4-.09-.1-.22-.14-.39-.14s-.29.05-.38.14c-.09.1-.14.23-.14.4v.51c0,.18.04.31.13.41.09.1.22.15.38.15s.29-.05.39-.15Z"/>
  <path class="cls-5" d="M116.32,229.27h.82v3.11h-.82v-3.11ZM118.13,230.59c0-.18-.04-.32-.13-.42s-.22-.15-.38-.15c-.15,0-.27.04-.35.13-.08.08-.12.2-.12.36l-.06-.69c.09-.19.21-.34.34-.44.14-.1.3-.15.49-.15.22,0,.41.05.56.16.16.11.28.26.36.46.08.2.12.45.12.73v1.8h-.82v-1.79ZM119.94,230.59c0-.18-.04-.32-.13-.42-.09-.1-.21-.15-.37-.15s-.28.05-.36.14c-.08.09-.13.23-.13.4l-.15-.72c.1-.2.23-.35.38-.46.16-.11.33-.16.52-.16.22,0,.41.05.57.16.16.11.28.26.36.46.08.2.12.45.12.73v1.8h-.82v-1.79Z"/>
  <path class="cls-5" d="M121.67,232.19c-.16-.16-.25-.4-.25-.72s.09-.54.28-.69c.18-.15.46-.23.83-.23h.78l.04.63h-.82c-.12,0-.22.02-.28.07s-.09.12-.09.22.04.18.12.23.2.07.35.07c.22,0,.38-.02.49-.07s.16-.13.16-.23l.06.45c-.01.11-.06.21-.15.28-.09.08-.2.14-.34.18-.14.04-.28.06-.43.06-.33,0-.58-.08-.75-.24ZM123.28,230.41c0-.14-.05-.25-.14-.33-.1-.08-.23-.12-.41-.12-.12,0-.23.02-.34.06s-.21.09-.3.16l-.51-.5c.12-.14.29-.25.49-.33.2-.08.43-.12.68-.12.27,0,.5.05.69.14.19.09.34.22.44.4.1.17.15.38.15.62v2h-.75v-1.97Z"/>
  <path class="cls-5" d="M125.74,232.43s-.09-.02-.26-.05c-.18-.03-.34-.08-.49-.14-.15-.06-.29-.14-.41-.23l.51-.63c.15.1.31.17.47.22.16.05.32.08.47.08.19,0,.34-.02.45-.06s.16-.1.16-.18c0-.07-.02-.12-.07-.16s-.1-.06-.18-.08c-.07-.02-.17-.03-.3-.04-.04,0-.07,0-.11-.01-.04,0-.07,0-.11-.01,0,0-.02,0-.03,0,0,0-.02,0-.03,0-.23-.03-.42-.07-.56-.11-.14-.04-.26-.13-.35-.25-.1-.13-.14-.31-.14-.54,0-.21.05-.39.15-.53s.24-.26.43-.34.42-.12.69-.12c.16,0,.31.02.47.05.16.03.31.08.45.14.14.06.28.13.4.22l-.49.6c-.14-.08-.28-.13-.42-.18-.15-.04-.29-.06-.43-.06-.17,0-.29.02-.39.06-.09.04-.14.09-.14.16,0,.05.02.09.07.12.05.03.11.05.18.06.07.01.18.03.32.04h.05s.04,0,.05.01c0,0,.02,0,.03,0s.02,0,.03,0c.24.03.44.06.59.11.15.04.28.13.39.26.11.13.16.33.16.58,0,.22-.05.4-.16.55-.1.15-.26.27-.46.35-.2.08-.44.12-.72.12h-.28Z"/>
  <path class="cls-5" d="M129.27,228.03h.84l.92,2.9.93-2.9h.84l-1.45,4.35h-.64l-1.45-4.35Z"/>
  <path class="cls-5" d="M133.87,232.43s-.11-.05-.32-.16c-.21-.11-.37-.27-.49-.48-.11-.21-.17-.46-.17-.75v-.35c0-.31.05-.57.16-.79s.26-.38.47-.5c.2-.11.45-.17.74-.17.27,0,.5.07.7.2.19.14.34.33.44.59s.15.57.15.94v.2h-2.12v-.55h1.38v-.07c-.03-.18-.09-.32-.18-.42-.09-.1-.21-.15-.36-.15-.2,0-.35.06-.46.18-.11.12-.16.28-.16.5v.4c0,.21.06.38.18.49.12.12.28.17.5.17.11,0,.22-.02.33-.06.11-.04.21-.09.29-.17l.54.48c-.16.15-.34.26-.54.34-.2.08-.4.12-.61.12h-.45Z"/>
  <path class="cls-5" d="M136.27,229.27h.88v3.11h-.88v-3.11ZM137.87,230.05c-.06-.02-.12-.03-.2-.03-.17,0-.29.05-.38.16-.09.11-.14.26-.14.44l-.06-.81c.09-.19.2-.33.33-.43.14-.1.29-.15.45-.15.13,0,.25.02.35.06s.2.1.27.18l-.48.67s-.09-.07-.15-.09Z"/>
  <path class="cls-5" d="M139.22,232.27c-.16-.11-.28-.26-.36-.46-.08-.2-.12-.44-.12-.73v-.5c0-.28.04-.53.12-.73.08-.2.2-.36.36-.46.16-.11.34-.16.56-.16.17,0,.32.05.45.15s.25.24.33.42l-.06.69c0-.11-.02-.19-.05-.27-.04-.07-.09-.13-.16-.17-.07-.04-.15-.06-.25-.06-.15,0-.27.05-.36.16-.08.1-.13.25-.13.44v.49c0,.19.04.33.13.43.08.1.2.15.36.15.1,0,.18-.02.25-.06.07-.04.12-.09.16-.16s.05-.16.05-.26l.04.71c-.06.17-.16.3-.29.39-.13.09-.29.14-.47.14-.22,0-.41-.05-.56-.16ZM140.51,228.03h.82v4.35h-.82v-4.35Z"/>
  <path class="cls-5" d="M143.02,232.43s-.11-.05-.32-.16c-.21-.11-.37-.27-.49-.48-.11-.21-.17-.46-.17-.75v-.35c0-.31.05-.57.16-.79s.26-.38.47-.5c.2-.11.45-.17.74-.17.27,0,.5.07.7.2.19.14.34.33.44.59s.15.57.15.94v.2h-2.12v-.55h1.38v-.07c-.03-.18-.09-.32-.18-.42-.09-.1-.21-.15-.36-.15-.2,0-.35.06-.46.18-.11.12-.16.28-.16.5v.4c0,.21.06.38.18.49.12.12.28.17.5.17.11,0,.22-.02.33-.06.11-.04.21-.09.29-.17l.54.48c-.16.15-.34.26-.54.34-.2.08-.4.12-.61.12h-.45Z"/>
  <path class="cls-5" d="M146.33,232.43s-.09-.02-.26-.05c-.18-.03-.34-.08-.49-.14-.15-.06-.29-.14-.41-.23l.51-.63c.15.1.31.17.47.22.16.05.32.08.47.08.19,0,.34-.02.45-.06s.16-.1.16-.18c0-.07-.02-.12-.07-.16s-.1-.06-.18-.08c-.07-.02-.17-.03-.3-.04-.04,0-.07,0-.11-.01-.04,0-.07,0-.11-.01,0,0-.02,0-.03,0,0,0-.02,0-.03,0-.23-.03-.42-.07-.56-.11-.14-.04-.26-.13-.35-.25-.1-.13-.14-.31-.14-.54,0-.21.05-.39.15-.53s.24-.26.43-.34.42-.12.69-.12c.16,0,.31.02.47.05.16.03.31.08.45.14.14.06.28.13.4.22l-.49.6c-.14-.08-.28-.13-.42-.18-.15-.04-.29-.06-.43-.06-.17,0-.29.02-.39.06-.09.04-.14.09-.14.16,0,.05.02.09.07.12.05.03.11.05.18.06.07.01.18.03.32.04h.05s.04,0,.05.01c0,0,.02,0,.03,0s.02,0,.03,0c.24.03.44.06.59.11.15.04.28.13.39.26.11.13.16.33.16.58,0,.22-.05.4-.16.55-.1.15-.26.27-.46.35-.2.08-.44.12-.72.12h-.28Z"/>
  <path class="cls-5" d="M148.18,232.73c.27-.31.47-.65.61-1.03.13-.38.2-.8.2-1.26s-.07-.87-.2-1.25-.34-.72-.61-1.03l.48-.59c.38.39.66.82.84,1.3s.28,1.01.28,1.58-.09,1.1-.28,1.58-.47.91-.84,1.3l-.48-.59Z"/>
  <path class="cls-13" d="M88.43,182.95v2.82h1.44v-2.82h1.43v7.21h-1.43v-3.05h-1.44v3.05h-1.43v-7.21h1.43Z"/>
  <path class="cls-13" d="M94.77,185.44c.24.14.43.33.57.56.14.24.24.5.3.8.06.3.09.61.09.94s-.03.64-.09.94c-.06.29-.16.56-.3.79-.14.24-.33.42-.57.56-.24.14-.54.21-.88.21s-.64-.07-.88-.21c-.24-.14-.43-.33-.57-.56-.14-.24-.24-.5-.3-.79s-.09-.61-.09-.94.03-.65.09-.94.16-.56.3-.8c.14-.24.33-.42.57-.56.24-.14.53-.21.87-.21s.64.07.88.21ZM93.62,186.6c-.07.1-.12.22-.15.37-.03.15-.05.29-.06.43,0,.14-.01.26-.01.36s0,.22.01.36c0,.14.03.28.06.43.03.15.08.27.15.37.07.1.15.15.26.15s.2-.05.26-.15c.07-.1.12-.22.15-.37s.05-.29.06-.43c0-.14.01-.26.01-.36s0-.22-.01-.36c0-.14-.03-.28-.06-.43s-.08-.27-.15-.37c-.07-.1-.15-.15-.26-.15s-.2.05-.26.15Z"/>
  <path class="cls-13" d="M97.65,185.33v.58h.02c.13-.22.29-.4.46-.53.18-.13.39-.21.64-.23v1.31c-.09-.01-.16-.02-.21-.02-.22,0-.39.03-.51.1s-.22.16-.27.27c-.06.11-.09.24-.11.38-.01.14-.02.32-.02.56v2.41h-1.35v-4.83h1.35Z"/>
  <path class="cls-13" d="M101.45,189.61h-.02c-.1.2-.22.35-.36.47s-.32.17-.53.17c-.26,0-.47-.09-.65-.26s-.31-.4-.41-.67c-.1-.27-.16-.54-.2-.82s-.06-.53-.06-.77c0-.25.02-.52.05-.8.03-.28.09-.55.19-.81s.22-.48.4-.65.39-.25.66-.25c.22,0,.4.06.55.19.15.12.27.29.35.5h.02v-.59h1.35v4.83h-1.35v-.55ZM101.33,188.87c.06-.1.11-.23.14-.37.03-.15.05-.29.06-.42,0-.13.01-.25.01-.35s0-.22-.01-.35c0-.13-.03-.27-.06-.42-.03-.15-.08-.27-.15-.37-.07-.1-.15-.15-.26-.15-.1,0-.19.05-.25.15-.07.1-.12.22-.15.37-.03.15-.05.29-.06.42,0,.13-.01.25-.01.36,0,.13,0,.26.01.39,0,.13.03.26.06.4.03.14.08.26.15.36s.16.15.27.15c.1,0,.19-.05.25-.15Z"/>
  <path class="cls-13" d="M104.81,185.33v.58h.02c.13-.22.29-.4.46-.53.18-.13.39-.21.64-.23v1.31c-.09-.01-.16-.02-.21-.02-.22,0-.39.03-.51.1s-.22.16-.27.27c-.06.11-.09.24-.11.38-.01.14-.02.32-.02.56v2.41h-1.35v-4.83h1.35Z"/>
  <path class="cls-13" d="M106.53,184.5c-.17-.17-.25-.38-.25-.61s.08-.44.25-.61c.17-.16.38-.24.63-.24.23,0,.43.09.59.26s.24.38.24.61-.08.43-.25.6c-.17.17-.37.25-.61.25s-.44-.09-.6-.26ZM107.81,185.33v4.83h-1.35v-4.83h1.35Z"/>
  <path class="cls-13" d="M111.1,185.44c.24.14.43.33.57.56.14.24.24.5.3.8.06.3.09.61.09.94s-.03.64-.09.94c-.06.29-.16.56-.3.79-.14.24-.33.42-.57.56-.24.14-.54.21-.88.21s-.64-.07-.88-.21c-.24-.14-.43-.33-.57-.56-.14-.24-.24-.5-.3-.79s-.09-.61-.09-.94.03-.65.09-.94.16-.56.3-.8c.14-.24.33-.42.57-.56.24-.14.53-.21.87-.21s.64.07.88.21ZM109.96,186.6c-.07.1-.12.22-.15.37-.03.15-.05.29-.06.43,0,.14-.01.26-.01.36s0,.22.01.36c0,.14.03.28.06.43.03.15.08.27.15.37.07.1.15.15.26.15s.2-.05.26-.15c.07-.1.12-.22.15-.37s.05-.29.06-.43c0-.14.01-.26.01-.36s0-.22-.01-.36c0-.14-.03-.28-.06-.43s-.08-.27-.15-.37c-.07-.1-.15-.15-.26-.15s-.2.05-.26.15Z"/>
  <path class="cls-13" d="M114.12,185.5c.18.18.26.39.26.64s-.09.46-.26.64-.39.27-.65.27-.47-.09-.65-.27-.26-.39-.26-.64.09-.46.26-.64.39-.27.65-.27.47.09.65.27ZM114.12,188.72c.18.18.26.39.26.64s-.09.46-.26.64-.39.27-.65.27-.47-.09-.65-.27-.26-.39-.26-.64.09-.46.26-.64.39-.27.65-.27.47.09.65.27Z"/>
  <path class="cls-13" d="M117.38,184.5c-.17-.17-.25-.38-.25-.61s.08-.44.25-.61c.17-.16.38-.24.63-.24.23,0,.43.09.59.26s.24.38.24.61-.08.43-.25.6c-.17.17-.37.25-.61.25s-.44-.09-.6-.26ZM118.67,185.33v7.21h-1.35v-7.21h1.35Z"/>
  <path class="cls-13" d="M120.67,185.33v2.78c0,.11,0,.19,0,.23,0,.19.02.35.07.47.05.12.14.18.28.18s.23-.06.27-.19c.04-.12.06-.3.06-.53v-2.95h1.35v3.08c0,.58-.14,1.03-.43,1.36s-.72.49-1.3.49c-.36,0-.66-.06-.88-.18-.23-.12-.39-.28-.5-.48-.11-.2-.18-.41-.22-.63-.04-.22-.05-.47-.05-.74v-2.9h1.35Z"/>
  <path class="cls-13" d="M126.72,188.1h-2.13v.07c0,.15.01.27.02.37,0,.1.03.21.06.31s.09.19.15.26.16.11.27.11c.16,0,.27-.05.33-.15.06-.1.1-.24.1-.4h1.15c-.06.48-.22.87-.46,1.16-.25.29-.6.43-1.07.43-.33,0-.61-.07-.85-.2s-.43-.32-.58-.55c-.15-.23-.26-.49-.32-.77-.07-.28-.1-.58-.1-.89s.03-.62.1-.92c.06-.3.17-.58.31-.84.14-.26.33-.46.57-.62.24-.15.52-.23.86-.23.45,0,.84.19,1.16.56.32.38.48.9.48,1.56,0,.02,0,.05,0,.1v.1l-.03.55ZM125.58,187.16c0-.1,0-.19-.02-.29-.01-.1-.04-.19-.07-.29-.04-.09-.08-.17-.15-.22-.06-.06-.15-.09-.25-.09-.1,0-.18.03-.24.09-.07.06-.12.13-.15.22-.04.09-.06.18-.08.28-.02.1-.02.19-.02.28v.14h.98v-.11Z"/>
  <path class="cls-13" d="M128.48,185.33l.64,2.65v.08h.03l.11-.5.53-2.23h1.4l-1.4,4.83h-1.25l-1.39-4.83h1.34Z"/>
  <path class="cls-13" d="M135,188.1h-2.13v.07c0,.15.01.27.02.37,0,.1.03.21.06.31s.09.19.15.26.16.11.27.11c.16,0,.27-.05.33-.15.06-.1.1-.24.1-.4h1.15c-.06.48-.22.87-.46,1.16-.25.29-.6.43-1.07.43-.33,0-.61-.07-.85-.2s-.43-.32-.58-.55c-.15-.23-.26-.49-.32-.77-.07-.28-.1-.58-.1-.89s.03-.62.1-.92c.06-.3.17-.58.31-.84.14-.26.33-.46.57-.62.24-.15.52-.23.86-.23.45,0,.84.19,1.16.56.32.38.48.9.48,1.56,0,.02,0,.05,0,.1v.1l-.03.55ZM133.86,187.16c0-.1,0-.19-.02-.29-.01-.1-.04-.19-.07-.29-.04-.09-.08-.17-.15-.22-.06-.06-.15-.09-.25-.09-.1,0-.18.03-.24.09-.07.06-.12.13-.15.22-.04.09-.06.18-.08.28-.02.1-.02.19-.02.28v.14h.98v-.11Z"/>
  <path class="cls-13" d="M138.04,186.63c-.11-.1-.22-.18-.32-.23-.1-.05-.21-.08-.33-.08-.24,0-.36.12-.36.35,0,.1.05.18.13.24.08.07.21.15.39.23.15.08.28.15.39.22.11.07.21.15.31.26.1.11.18.24.24.39.06.16.09.34.09.55,0,.49-.14.9-.41,1.22-.27.32-.65.48-1.14.48-.26,0-.51-.05-.76-.15-.26-.1-.48-.23-.69-.41l.59-.96c.12.1.23.18.33.23.1.05.21.08.33.08.11,0,.2-.04.28-.11.08-.07.11-.17.11-.29s-.04-.21-.12-.28c-.08-.07-.22-.16-.4-.26-.16-.09-.29-.17-.39-.23s-.2-.15-.3-.26c-.1-.11-.17-.24-.23-.41-.06-.16-.09-.35-.09-.57,0-.44.16-.79.47-1.04.31-.25.69-.38,1.15-.38.48,0,.91.14,1.29.41l-.55.98Z"/>
  <path class="cls-13" d="M151.61,183.2c.27.25.48.57.63.96s.25.79.3,1.2c.05.41.08.81.08,1.19s-.03.78-.08,1.19c-.05.41-.15.81-.3,1.2s-.36.71-.63.96-.61.37-1.02.37-.75-.12-1.02-.37-.48-.57-.63-.96-.25-.79-.3-1.2c-.05-.41-.08-.81-.08-1.19s.03-.78.08-1.19c.05-.41.15-.81.3-1.2s.36-.71.63-.96.61-.37,1.02-.37.75.12,1.02.37ZM150.25,184.35c-.09.14-.15.33-.2.57-.04.24-.07.49-.09.76-.01.26-.02.56-.02.87s0,.61.02.88.04.52.09.76c.04.24.11.43.2.57.09.14.2.22.34.22s.25-.07.34-.22c.09-.14.15-.33.2-.57.04-.24.07-.49.08-.76s.02-.56.02-.88,0-.61-.02-.87c-.01-.26-.04-.52-.08-.76-.04-.24-.11-.43-.2-.57-.09-.14-.2-.22-.34-.22s-.25.07-.34.22Z"/>
  <path class="cls-13" d="M156.29,183.2c.27.25.48.57.63.96s.25.79.3,1.2c.05.41.08.81.08,1.19s-.03.78-.08,1.19c-.05.41-.15.81-.3,1.2s-.36.71-.63.96-.61.37-1.02.37-.75-.12-1.02-.37-.48-.57-.63-.96-.25-.79-.3-1.2c-.05-.41-.08-.81-.08-1.19s.03-.78.08-1.19c.05-.41.15-.81.3-1.2s.36-.71.63-.96.61-.37,1.02-.37.75.12,1.02.37ZM154.94,184.35c-.09.14-.15.33-.2.57-.04.24-.07.49-.09.76-.01.26-.02.56-.02.87s0,.61.02.88.04.52.09.76c.04.24.11.43.2.57.09.14.2.22.34.22s.25-.07.34-.22c.09-.14.15-.33.2-.57.04-.24.07-.49.08-.76s.02-.56.02-.88,0-.61-.02-.87c-.01-.26-.04-.52-.08-.76-.04-.24-.11-.43-.2-.57-.09-.14-.2-.22-.34-.22s-.25.07-.34.22Z"/>
  <path class="cls-13" d="M162.43,189.61h-.02c-.1.2-.22.35-.36.47s-.32.17-.53.17c-.26,0-.47-.09-.65-.26s-.31-.4-.41-.67c-.1-.27-.16-.54-.2-.82s-.06-.53-.06-.77c0-.25.02-.52.05-.8.03-.28.09-.55.19-.81s.22-.48.4-.65.39-.25.66-.25c.22,0,.4.06.55.19.15.12.27.29.35.5h.02v-.59h1.35v4.83h-1.35v-.55ZM162.3,188.87c.06-.1.11-.23.14-.37.03-.15.05-.29.06-.42,0-.13.01-.25.01-.35s0-.22-.01-.35c0-.13-.03-.27-.06-.42-.03-.15-.08-.27-.15-.37-.07-.1-.15-.15-.26-.15-.1,0-.19.05-.25.15-.07.1-.12.22-.15.37-.03.15-.05.29-.06.42,0,.13-.01.25-.01.36,0,.13,0,.26.01.39,0,.13.03.26.06.4.03.14.08.26.15.36s.16.15.27.15c.1,0,.19-.05.25-.15Z"/>
  <path class="cls-13" d="M165.79,186.1h.02c.13-.26.29-.47.49-.63.2-.16.43-.24.7-.24.24,0,.42.08.56.23.14.16.23.35.27.59h.02c.12-.24.28-.43.49-.59.2-.16.43-.23.67-.23.2,0,.37.05.49.15s.21.23.26.39c.05.16.09.32.1.48.01.16.02.35.02.57v3.34h-1.35v-2.62c0-.33-.02-.57-.06-.72s-.13-.23-.27-.23-.24.05-.29.16-.08.24-.08.38v3.03h-1.35v-2.8c0-.09,0-.14,0-.15,0-.17-.02-.32-.07-.43-.04-.11-.13-.17-.26-.17-.15,0-.25.05-.3.16-.05.11-.08.24-.08.4v3h-1.35v-4.83h1.35v.78Z"/>
  <path class="cls-13" d="M175.02,189.61h-.02c-.1.2-.22.35-.36.47s-.32.17-.53.17c-.26,0-.47-.09-.65-.26s-.31-.4-.41-.67c-.1-.27-.16-.54-.2-.82s-.06-.53-.06-.77c0-.25.02-.52.05-.8.03-.28.09-.55.19-.81s.22-.48.4-.65.39-.25.66-.25c.22,0,.4.06.55.19.15.12.27.29.35.5h.02v-.59h1.35v4.83h-1.35v-.55ZM174.9,188.87c.06-.1.11-.23.14-.37.03-.15.05-.29.06-.42,0-.13.01-.25.01-.35s0-.22-.01-.35c0-.13-.03-.27-.06-.42-.03-.15-.08-.27-.15-.37-.07-.1-.15-.15-.26-.15-.1,0-.19.05-.25.15-.07.1-.12.22-.15.37-.03.15-.05.29-.06.42,0,.13-.01.25-.01.36,0,.13,0,.26.01.39,0,.13.03.26.06.4.03.14.08.26.15.36s.16.15.27.15c.1,0,.19-.05.25-.15Z"/>
  <path class="cls-13" d="M179.54,185.45l-.02-.39c0-.36.03-.67.09-.94.06-.27.16-.5.3-.69.14-.19.33-.34.58-.45s.55-.16.92-.16c.61,0,1.09.16,1.43.47s.51.77.51,1.38c0,.34-.05.65-.15.95-.1.3-.25.63-.44,1.01l-1.21,2.29h1.67v1.24h-3.79l1.63-2.98.06-.11c.13-.23.24-.43.33-.61s.18-.37.26-.56c.08-.2.15-.4.2-.6.05-.2.08-.39.08-.57,0-.24-.04-.44-.13-.62-.09-.18-.24-.27-.44-.27-.13,0-.23.04-.31.12-.08.08-.14.18-.18.3-.04.12-.06.24-.07.36,0,.12-.01.25-.01.39l.02.46h-1.32Z"/>
  <path class="cls-13" d="M185.54,185.5c.18.18.26.39.26.64s-.09.46-.26.64-.39.27-.65.27-.47-.09-.65-.27-.26-.39-.26-.64.09-.46.26-.64.39-.27.65-.27.47.09.65.27ZM185.54,188.72c.18.18.26.39.26.64s-.09.46-.26.64-.39.27-.65.27-.47-.09-.65-.27-.26-.39-.26-.64.09-.46.26-.64.39-.27.65-.27.47.09.65.27Z"/>
  <path class="cls-13" d="M189.43,183.2c.27.25.48.57.63.96s.25.79.3,1.2c.05.41.08.81.08,1.19s-.03.78-.08,1.19c-.05.41-.15.81-.3,1.2s-.36.71-.63.96-.61.37-1.02.37-.75-.12-1.02-.37-.48-.57-.63-.96-.25-.79-.3-1.2c-.05-.41-.08-.81-.08-1.19s.03-.78.08-1.19c.05-.41.15-.81.3-1.2s.36-.71.63-.96.61-.37,1.02-.37.75.12,1.02.37ZM188.07,184.35c-.09.14-.15.33-.2.57-.04.24-.07.49-.09.76-.01.26-.02.56-.02.87s0,.61.02.88.04.52.09.76c.04.24.11.43.2.57.09.14.2.22.34.22s.25-.07.34-.22c.09-.14.15-.33.2-.57.04-.24.07-.49.08-.76s.02-.56.02-.88,0-.61-.02-.87c-.01-.26-.04-.52-.08-.76-.04-.24-.11-.43-.2-.57-.09-.14-.2-.22-.34-.22s-.25.07-.34.22Z"/>
  <path class="cls-13" d="M194.12,183.2c.27.25.48.57.63.96s.25.79.3,1.2c.05.41.08.81.08,1.19s-.03.78-.08,1.19c-.05.41-.15.81-.3,1.2s-.36.71-.63.96-.61.37-1.02.37-.75-.12-1.02-.37-.48-.57-.63-.96-.25-.79-.3-1.2c-.05-.41-.08-.81-.08-1.19s.03-.78.08-1.19c.05-.41.15-.81.3-1.2s.36-.71.63-.96.61-.37,1.02-.37.75.12,1.02.37ZM192.76,184.35c-.09.14-.15.33-.2.57-.04.24-.07.49-.09.76-.01.26-.02.56-.02.87s0,.61.02.88.04.52.09.76c.04.24.11.43.2.57.09.14.2.22.34.22s.25-.07.34-.22c.09-.14.15-.33.2-.57.04-.24.07-.49.08-.76s.02-.56.02-.88,0-.61-.02-.87c-.01-.26-.04-.52-.08-.76-.04-.24-.11-.43-.2-.57-.09-.14-.2-.22-.34-.22s-.25.07-.34.22Z"/>
  <path class="cls-13" d="M199.47,185.92h.02c.08-.21.2-.38.35-.5.15-.12.33-.19.54-.19.27,0,.49.08.66.25s.31.38.4.64.15.53.18.8c.03.28.05.55.05.81,0,.24-.02.49-.06.77s-.1.55-.2.82c-.09.27-.23.49-.4.67-.18.18-.39.26-.65.26-.21,0-.39-.06-.53-.17s-.26-.27-.36-.47h-.02v2.93h-1.35v-7.21h1.35v.59ZM200.11,188.87c.07-.1.12-.22.15-.36.03-.14.05-.28.06-.41,0-.13.01-.26.01-.38,0-.1,0-.22-.01-.36,0-.14-.03-.28-.06-.42-.03-.14-.08-.26-.15-.36-.07-.1-.15-.15-.25-.15-.11,0-.2.05-.26.15-.07.1-.11.22-.14.36-.03.14-.05.28-.06.42,0,.14-.01.26-.01.36s0,.22.01.35c0,.13.03.27.06.42.03.15.08.27.14.37.06.1.15.15.25.15.11,0,.2-.05.27-.15Z"/>
  <path class="cls-13" d="M203.62,186.1h.02c.13-.26.29-.47.49-.63.2-.16.43-.24.7-.24.24,0,.42.08.56.23.14.16.23.35.27.59h.02c.12-.24.28-.43.49-.59.2-.16.43-.23.67-.23.2,0,.37.05.49.15s.21.23.26.39c.05.16.09.32.1.48.01.16.02.35.02.57v3.34h-1.35v-2.62c0-.33-.02-.57-.06-.72s-.13-.23-.27-.23-.24.05-.29.16-.08.24-.08.38v3.03h-1.35v-2.8c0-.09,0-.14,0-.15,0-.17-.02-.32-.07-.43-.04-.11-.13-.17-.26-.17-.15,0-.25.05-.3.16-.05.11-.08.24-.08.4v3h-1.35v-4.83h1.35v.78Z"/>
  <path class="cls-13" d="M90.16,194.47c2.29-.14,4.26,2.05,3.85,4.32-.59,2.51-2.18,4.66-3.68,6.7-1.54-2.1-3.23-4.32-3.72-6.93-.24-2.07,1.47-4.03,3.55-4.09ZM90.37,196.37c-2.42,0-2.48,3.58-.08,3.66,2.41,0,2.47-3.57.08-3.66Z"/>
  <path class="cls-5" d="M106.17,231.55h.82v.82h-.82v-.82Z"/>
  <g>
    <path class="cls-4" d="M179.1,52.33c-1.66,4.96-6.34,8.53-11.86,8.53-.69,0-1.36-.06-2.02-.16-1.14,2.89-3.96,4.94-7.26,4.94-2.71,0-5.09-1.38-6.49-3.47-5.85,4.73-14.43-1.61-13.31-6.53-3.13-.45-5.48-5.03-5.48-8.66,0-5.54,3.96-10.16,9.21-11.17-.43-1.24-.67-2.58-.67-3.97,0-6.65,5.39-12.04,12.04-12.04.06,0,.13,0,.19,0-1.52-.66-3.19-1.03-4.95-1.03-6.91,0-12.51,5.6-12.51,12.51,0,1.44.25,2.83.7,4.12-5.46,1.05-9.58,5.85-9.58,11.61,0,3.77,1.77,7.13,4.52,9.3-.12.66-.18,1.33-.18,2.03,0,6.34,5.14,11.48,11.48,11.48.22,0,.44,0,.65-.02.08,0,.15-.01.23-.02.14-.01.27-.02.41-.04.09-.01.19-.02.28-.04.11-.02.23-.03.34-.05.1-.02.21-.04.31-.06.1-.02.2-.04.3-.06.11-.02.22-.05.33-.08.08-.02.16-.04.24-.07.12-.03.24-.07.36-.11.03-.01.06-.02.09-.03.58-.19,1.13-.42,1.67-.69,1.54,2.29,4.15,3.8,7.12,3.8,3.62,0,6.71-2.25,7.96-5.42.72.12,1.46.18,2.21.18,7.57,0,13.71-6.14,13.71-13.71,0-.38-.02-.75-.05-1.11Z"/>
    <path class="cls-6" d="M172.98,41.92c.91-1.71,1.43-3.66,1.43-5.74,0-6.77-5.49-12.25-12.25-12.25-1.08,0-2.13.14-3.13.4-2.25-3.34-6.06-5.54-10.39-5.54-6.91,0-12.51,5.6-12.51,12.51,0,1.44.25,2.83.7,4.12-5.46,1.05-9.58,5.85-9.58,11.61,0,3.77,1.77,7.13,4.52,9.3-.12.66-.18,1.33-.18,2.03,0,6.34,5.14,11.48,11.48,11.48,1.88,0,3.65-.45,5.21-1.25,1.54,2.29,4.15,3.8,7.12,3.8,3.62,0,6.71-2.25,7.96-5.42.72.12,1.46.18,2.21.18,7.57,0,13.71-6.14,13.71-13.71,0-4.84-2.51-9.09-6.3-11.53Z"/>
    <path class="cls-6" d="M172.68,41.82c.91-1.71,1.43-3.66,1.43-5.74,0-6.77-5.49-12.25-12.25-12.25-1.08,0-2.13.14-3.13.4-2.25-3.34-6.06-5.54-10.39-5.54-6.91,0-12.51,5.6-12.51,12.51,0,1.44.25,2.83.7,4.12-5.46,1.05-9.58,5.85-9.58,11.61,0,3.77,1.77,7.13,4.52,9.3-.12.66-.18,1.33-.18,2.03,0,6.34,5.14,11.48,11.48,11.48,1.88,0,3.65-.45,5.21-1.25,1.54,2.29,4.15,3.8,7.12,3.8,3.62,0,6.71-2.25,7.96-5.42.72.12,1.46.18,2.21.18,7.57,0,13.71-6.14,13.71-13.71,0-4.84-2.51-9.09-6.3-11.53Z"/>
    <path class="cls-4" d="M178.93,52.23c-1.66,4.96-6.34,8.53-11.86,8.53-.69,0-1.36-.06-2.02-.16-1.14,2.89-3.96,4.94-7.26,4.94-2.71,0-5.09-1.38-6.49-3.47-5.85,4.73-14.43-1.61-13.31-6.53-3.13-.45-5.48-5.03-5.48-8.66,0-5.54,3.96-10.16,9.21-11.17-.43-1.24-.67-2.58-.67-3.97,0-6.65,5.39-12.04,12.04-12.04.06,0,.13,0,.19,0-1.52-.66-3.19-1.03-4.95-1.03-6.91,0-12.51,5.6-12.51,12.51,0,1.44.25,2.83.7,4.12-5.46,1.05-9.58,5.85-9.58,11.61,0,3.77,1.77,7.13,4.52,9.3-.12.66-.18,1.33-.18,2.03,0,6.34,5.14,11.48,11.48,11.48.22,0,.44,0,.65-.02.08,0,.15-.01.23-.02.14-.01.27-.02.41-.04.09-.01.19-.02.28-.04.11-.02.23-.03.34-.05.1-.02.21-.04.31-.06.1-.02.2-.04.3-.06.11-.02.22-.05.33-.08.08-.02.16-.04.24-.07.12-.03.24-.07.36-.11.03-.01.06-.02.09-.03.58-.19,1.13-.42,1.67-.69,1.54,2.29,4.15,3.8,7.12,3.8,3.62,0,6.71-2.25,7.96-5.42.72.12,1.46.18,2.21.18,7.57,0,13.71-6.14,13.71-13.71,0-.38-.02-.75-.05-1.11Z"/>
    <g class="cls-12">
      <path class="cls-4" d="M179.41,52.51c-1.66,4.96-6.34,8.53-11.86,8.53-.69,0-1.36-.06-2.02-.16-1.14,2.89-3.96,4.94-7.26,4.94-2.71,0-5.09-1.38-6.49-3.47-5.85,4.73-14.43-1.61-13.31-6.53-3.13-.45-5.48-5.03-5.48-8.66,0-5.54,3.96-10.16,9.21-11.17-.43-1.24-.67-2.58-.67-3.97,0-6.65,5.39-12.04,12.04-12.04.06,0,.13,0,.19,0-1.52-.66-3.19-1.03-4.95-1.03-6.91,0-12.51,5.6-12.51,12.51,0,1.44.25,2.83.7,4.12-5.46,1.05-9.58,5.85-9.58,11.61,0,3.77,1.77,7.13,4.52,9.3-.12.66-.18,1.33-.18,2.03,0,6.34,5.14,11.48,11.48,11.48.22,0,.44,0,.65-.02.08,0,.15-.01.23-.02.14-.01.27-.02.41-.04.09-.01.19-.02.28-.04.11-.02.23-.03.34-.05.1-.02.21-.04.31-.06.1-.02.2-.04.3-.06.11-.02.22-.05.33-.08.08-.02.16-.04.24-.07.12-.03.24-.07.36-.11.03-.01.06-.02.09-.03.58-.19,1.13-.42,1.67-.69,1.54,2.29,4.15,3.8,7.12,3.8,3.62,0,6.71-2.25,7.96-5.42.72.12,1.46.18,2.21.18,7.57,0,13.71-6.14,13.71-13.71,0-.38-.02-.75-.05-1.11Z"/>
      <path class="cls-6" d="M173.28,42.09c.91-1.71,1.43-3.66,1.43-5.74,0-6.77-5.49-12.25-12.25-12.25-1.08,0-2.13.14-3.13.4-2.25-3.34-6.06-5.54-10.39-5.54-6.91,0-12.51,5.6-12.51,12.51,0,1.44.25,2.83.7,4.12-5.46,1.05-9.58,5.85-9.58,11.61,0,3.77,1.77,7.13,4.52,9.3-.12.66-.18,1.33-.18,2.03,0,6.34,5.14,11.48,11.48,11.48,1.88,0,3.65-.45,5.21-1.25,1.54,2.29,4.15,3.8,7.12,3.8,3.62,0,6.71-2.25,7.96-5.42.72.12,1.46.18,2.21.18,7.57,0,13.71-6.14,13.71-13.71,0-4.84-2.51-9.09-6.3-11.53Z"/>
      <path class="cls-9" d="M182.55,151.95s25.09-34.42-12.54-50.38c0,0-16.54-8.35-52.46-14.72,0,0-20.52-2.1-13.81-11.1,2.12-2.84,5.62-4.29,9.17-4.29h42.84v-9.23s-59.07-8.61-70.7,9.23c-13.68,20.99,25.66,27.83,25.66,27.83,0,0,47.9,10.26,34.78,27.37l-29,24.94,66.06.36Z"/>
      <path class="cls-6" d="M172.99,41.99c.91-1.71,1.43-3.66,1.43-5.74,0-6.77-5.49-12.25-12.25-12.25-1.08,0-2.13.14-3.13.4-2.25-3.34-6.06-5.54-10.39-5.54-6.91,0-12.51,5.6-12.51,12.51,0,1.44.25,2.83.7,4.12-5.46,1.05-9.58,5.85-9.58,11.61,0,3.77,1.77,7.13,4.52,9.3-.12.66-.18,1.33-.18,2.03,0,6.34,5.14,11.48,11.48,11.48,1.88,0,3.65-.45,5.21-1.25,1.54,2.29,4.15,3.8,7.12,3.8,3.62,0,6.71-2.25,7.96-5.42.72.12,1.46.18,2.21.18,7.57,0,13.71-6.14,13.71-13.71,0-4.84-2.51-9.09-6.3-11.53Z"/>
      <path class="cls-4" d="M174.34,37.51c-.07.14-.13.28-.21.42.05.03.09.07.14.1.02-.17.05-.34.06-.51Z"/>
      <path class="cls-4" d="M179.23,52.41c-1.66,4.96-6.34,8.53-11.86,8.53-.69,0-1.36-.06-2.02-.16-1.14,2.89-3.96,4.94-7.26,4.94-2.71,0-5.09-1.38-6.49-3.47-5.85,4.73-14.43-1.61-13.31-6.53-3.13-.45-5.48-5.03-5.48-8.66,0-5.54,3.96-10.16,9.21-11.17-.43-1.24-.67-2.58-.67-3.97,0-6.65,5.39-12.04,12.04-12.04.06,0,.13,0,.19,0-1.52-.66-3.19-1.03-4.95-1.03-6.91,0-12.51,5.6-12.51,12.51,0,1.44.25,2.83.7,4.12-5.46,1.05-9.58,5.85-9.58,11.61,0,3.77,1.77,7.13,4.52,9.3-.12.66-.18,1.33-.18,2.03,0,6.34,5.14,11.48,11.48,11.48.22,0,.44,0,.65-.02.08,0,.15-.01.23-.02.14-.01.27-.02.41-.04.09-.01.19-.02.28-.04.11-.02.23-.03.34-.05.1-.02.21-.04.31-.06.1-.02.2-.04.3-.06.11-.02.22-.05.33-.08.08-.02.16-.04.24-.07.12-.03.24-.07.36-.11.03-.01.06-.02.09-.03.58-.19,1.13-.42,1.67-.69,1.54,2.29,4.15,3.8,7.12,3.8,3.62,0,6.71-2.25,7.96-5.42.72.12,1.46.18,2.21.18,7.57,0,13.71-6.14,13.71-13.71,0-.38-.02-.75-.05-1.11Z"/>
      <path class="cls-6" d="M165.08,23.67c.79-.73,2.09-.6,2.09-.6,0,0,.01,1.31-.78,2.03-.79.73-2.09.6-2.09.6,0,0-.01-1.31.78-2.03Z"/>
      <path class="cls-6" d="M133.21,41.32c.94-.51,2.17-.07,2.17-.07,0,0-.3,1.27-1.25,1.78-.94.51-2.17.07-2.17.07,0,0,.3-1.27,1.25-1.78Z"/>
      <path class="cls-7" d="M163.6,47.61c.75-.77,2.05-.71,2.05-.71,0,0,.09,1.3-.66,2.07-.75.77-2.05.71-2.05.71,0,0-.09-1.3.66-2.07Z"/>
      <path class="cls-7" d="M161.35,32.37c.52.94.1,2.17.1,2.17,0,0-1.27-.29-1.8-1.22-.52-.94-.1-2.17-.1-2.17,0,0,1.27.29,1.8,1.22Z"/>
      <path class="cls-7" d="M162.94,33.66c.71-.81,2.02-.82,2.02-.82,0,0,.15,1.3-.56,2.1-.71.81-2.02.82-2.02.82,0,0-.15-1.3.56-2.1Z"/>
      <path class="cls-4" d="M138.23,69.95c-1.01.37-2.16-.24-2.16-.24,0,0,.48-1.21,1.49-1.58s2.16.24,2.16.24c0,0-.48,1.21-1.49,1.58Z"/>
      <path class="cls-4" d="M139.16,59.62c-.04-1.07.89-1.98.89-1.98,0,0,1.01.83,1.05,1.9.04,1.07-.89,1.98-.89,1.98,0,0-1.01-.83-1.05-1.9Z"/>
      <path class="cls-4" d="M142.78,45.31c-.66-.85-.43-2.13-.43-2.13,0,0,1.3.09,1.96.94.66.85.43,2.13.43,2.13,0,0-1.3-.09-1.96-.94Z"/>
      <path class="cls-4" d="M143.28,48.78c-.96.48-2.18-.01-2.18-.01,0,0,.35-1.26,1.31-1.73.96-.48,2.18.01,2.18.01,0,0-.35,1.26-1.31,1.73Z"/>
      <path class="cls-4" d="M147.79,52.68c.82-.69,2.11-.52,2.11-.52,0,0-.04,1.31-.86,2-.82.69-2.11.52-2.11.52,0,0,.04-1.31.86-2Z"/>
      <path class="cls-4" d="M172.98,59.05c-.22,1.05-1.34,1.71-1.34,1.71,0,0-.78-1.05-.56-2.1.22-1.05,1.34-1.71,1.34-1.71,0,0,.78,1.05.56,2.1Z"/>
      <path class="cls-6" d="M177.17,47.69c-.96-.49-1.3-1.75-1.3-1.75,0,0,1.22-.47,2.18.01s1.3,1.75,1.3,1.75c0,0-1.22.47-2.18-.01Z"/>
      <path class="cls-6" d="M177.18,45.26c-.6.89-1.9,1.07-1.9,1.07,0,0-.32-1.27.28-2.16.6-.89,1.89-1.07,1.89-1.07,0,0,.32,1.27-.28,2.16Z"/>
      <path class="cls-4" d="M126.12,48.31c-.61-.89-.3-2.15-.3-2.15,0,0,1.3.17,1.9,1.05s.3,2.15.3,2.15c0,0-1.3-.17-1.9-1.05Z"/>
      <path class="cls-4" d="M128.35,51.5c-.62.88-1.92,1.02-1.92,1.02,0,0-.29-1.27.33-2.15.62-.88,1.92-1.02,1.92-1.02,0,0,.29,1.27-.33,2.15Z"/>
      <polygon class="cls-8" points="154.55 64.41 155.73 65.72 161.15 60.35 160.46 59.58 154.55 64.41"/>
      <polygon class="cls-8" points="154.55 69.1 152.99 70.82 145.76 63.67 146.67 62.65 154.55 69.1"/>
      <path class="cls-6" d="M134.38,113.06c.64-1.2,1-2.57,1-4.03,0-4.75-3.85-8.6-8.6-8.6-.76,0-1.5.1-2.2.28-1.58-2.34-4.25-3.89-7.29-3.89-4.85,0-8.78,3.93-8.78,8.78,0,1.01.17,1.99.49,2.89-3.83.74-6.72,4.11-6.72,8.15,0,2.65,1.24,5,3.17,6.53-.08.46-.13.94-.13,1.42,0,4.45,3.61,8.06,8.06,8.06,1.32,0,2.56-.32,3.66-.88,1.08,1.61,2.91,2.67,5,2.67,2.54,0,4.71-1.58,5.59-3.8.51.08,1.02.13,1.55.13,5.31,0,9.62-4.31,9.62-9.62,0-3.4-1.76-6.38-4.42-8.09Z"/>
      <path class="cls-4" d="M135.33,109.92c-.05.1-.09.2-.14.29.03.02.07.05.1.07.02-.12.03-.24.04-.36Z"/>
      <path class="cls-4" d="M138.76,120.37c-1.16,3.48-4.45,5.99-8.32,5.99-.48,0-.95-.04-1.42-.12-.8,2.03-2.78,3.47-5.1,3.47-1.9,0-3.57-.97-4.56-2.43-4.1,3.32-10.12-1.13-9.34-4.59-2.2-.31-3.84-3.53-3.84-6.07,0-3.89,2.78-7.13,6.46-7.84-.3-.87-.47-1.81-.47-2.78,0-4.67,3.78-8.45,8.45-8.45.05,0,.09,0,.14,0-1.07-.46-2.24-.72-3.48-.72-4.85,0-8.78,3.93-8.78,8.78,0,1.01.17,1.99.49,2.89-3.83.74-6.72,4.11-6.72,8.15,0,2.65,1.24,5,3.17,6.53-.08.46-.13.94-.13,1.42,0,4.45,3.61,8.06,8.06,8.06.15,0,.31,0,.46-.01.05,0,.11,0,.16-.01.1,0,.19-.02.29-.03.07,0,.13-.02.2-.03.08-.01.16-.02.24-.04.07-.01.14-.03.22-.04.07-.01.14-.03.21-.04.08-.02.16-.04.23-.05.06-.01.11-.03.17-.05.09-.02.17-.05.26-.07.02,0,.04-.02.07-.02.4-.13.8-.29,1.17-.48,1.08,1.61,2.91,2.67,5,2.67,2.54,0,4.71-1.58,5.59-3.8.51.08,1.02.13,1.55.13,5.31,0,9.62-4.31,9.62-9.62,0-.26-.01-.52-.04-.78Z"/>
      <path class="cls-6" d="M128.83,100.2c.56-.51,1.47-.42,1.47-.42,0,0,0,.92-.55,1.43-.56.51-1.47.42-1.47.42,0,0,0-.92.55-1.43Z"/>
      <path class="cls-6" d="M106.47,112.59c.66-.36,1.53-.05,1.53-.05,0,0-.21.89-.87,1.25-.66.36-1.53.05-1.53.05,0,0,.21-.89.87-1.25Z"/>
      <path class="cls-7" d="M127.79,117c.53-.54,1.44-.5,1.44-.5,0,0,.06.91-.46,1.45-.53.54-1.44.5-1.44.5,0,0-.06-.91.46-1.45Z"/>
      <path class="cls-7" d="M126.22,106.31c.37.66.07,1.53.07,1.53,0,0-.89-.2-1.26-.86-.37-.66-.07-1.53-.07-1.53,0,0,.89.2,1.26.86Z"/>
      <path class="cls-7" d="M127.33,107.22c.5-.57,1.41-.57,1.41-.57,0,0,.11.91-.39,1.48-.5.57-1.41.57-1.41.57,0,0-.11-.91.39-1.48Z"/>
      <path class="cls-4" d="M109.99,132.68c-.71.26-1.52-.17-1.52-.17,0,0,.34-.85,1.05-1.11s1.52.17,1.52.17c0,0-.34.85-1.05,1.11Z"/>
      <path class="cls-4" d="M110.64,125.43c-.03-.75.63-1.39.63-1.39,0,0,.71.58.74,1.34.03.75-.63,1.39-.63,1.39,0,0-.71-.58-.74-1.34Z"/>
      <path class="cls-4" d="M113.18,115.39c-.46-.6-.3-1.5-.3-1.5,0,0,.91.06,1.38.66.46.6.3,1.5.3,1.5,0,0-.91-.06-1.38-.66Z"/>
      <path class="cls-4" d="M113.53,117.83c-.68.33-1.53,0-1.53,0,0,0,.25-.88.92-1.22.68-.33,1.53,0,1.53,0,0,0-.25.88-.92,1.22Z"/>
      <path class="cls-4" d="M116.7,120.56c.58-.49,1.48-.36,1.48-.36,0,0-.03.92-.6,1.4-.58.49-1.48.36-1.48.36,0,0,.03-.92.6-1.4Z"/>
      <path class="cls-4" d="M134.37,125.03c-.15.74-.94,1.2-.94,1.2,0,0-.55-.74-.4-1.47.15-.74.94-1.2.94-1.2,0,0,.55.74.4,1.47Z"/>
      <path class="cls-6" d="M137.32,117.06c-.67-.34-.91-1.23-.91-1.23,0,0,.85-.33,1.53,0,.67.34.91,1.23.91,1.23,0,0-.85.33-1.53,0Z"/>
      <path class="cls-6" d="M137.32,115.36c-.42.63-1.33.75-1.33.75,0,0-.22-.89.2-1.51.42-.63,1.33-.75,1.33-.75,0,0,.22.89-.2,1.51Z"/>
      <path class="cls-4" d="M101.49,117.5c-.43-.62-.21-1.51-.21-1.51,0,0,.91.12,1.34.74.43.62.21,1.51.21,1.51,0,0-.91-.12-1.34-.74Z"/>
      <path class="cls-4" d="M103.06,119.73c-.44.62-1.35.72-1.35.72,0,0-.2-.89.23-1.51.44-.62,1.35-.72,1.35-.72,0,0,.2.89-.23,1.51Z"/>
      <polygon class="cls-8" points="121.44 128.8 122.27 129.72 126.08 125.94 125.59 125.4 121.44 128.8"/>
      <polygon class="cls-8" points="121.44 132.09 120.35 133.29 115.27 128.27 115.92 127.56 121.44 132.09"/>
      <polygon class="cls-8" points="123.33 142.26 119.56 142.26 121.06 116.58 121.82 116.58 123.33 142.26"/>
      <path class="cls-6" d="M198.52,93.87c.49-.92.77-1.98.77-3.1,0-3.65-2.96-6.61-6.61-6.61-.58,0-1.15.08-1.69.22-1.21-1.8-3.27-2.99-5.61-2.99-3.73,0-6.75,3.02-6.75,6.75,0,.78.13,1.53.38,2.23-2.94.57-5.17,3.16-5.17,6.27,0,2.04.95,3.85,2.44,5.02-.06.36-.1.72-.1,1.09,0,3.42,2.77,6.2,6.2,6.2,1.01,0,1.97-.24,2.81-.68.83,1.24,2.24,2.05,3.84,2.05,1.95,0,3.62-1.21,4.3-2.93.39.06.79.1,1.19.1,4.09,0,7.4-3.31,7.4-7.4,0-2.61-1.35-4.91-3.4-6.22Z"/>
      <path class="cls-4" d="M201.89,99.49c-.9,2.68-3.42,4.61-6.4,4.61-.37,0-.73-.03-1.09-.09-.62,1.56-2.14,2.67-3.92,2.67-1.46,0-2.75-.74-3.5-1.87-3.16,2.55-7.79-.87-7.18-3.53-1.69-.24-2.96-2.71-2.96-4.67,0-2.99,2.14-5.48,4.97-6.03-.23-.67-.36-1.39-.36-2.14,0-3.59,2.91-6.5,6.5-6.5.03,0,.07,0,.1,0-.82-.35-1.72-.55-2.67-.55-3.73,0-6.75,3.02-6.75,6.75,0,.78.13,1.53.38,2.23-2.94.57-5.17,3.16-5.17,6.27,0,2.04.95,3.85,2.44,5.02-.06.36-.1.72-.1,1.09,0,3.42,2.77,6.2,6.2,6.2.12,0,.24,0,.35-.01.04,0,.08,0,.12,0,.07,0,.15-.01.22-.02.05,0,.1-.01.15-.02.06,0,.12-.02.18-.03.06,0,.11-.02.17-.03.05-.01.11-.02.16-.03.06-.01.12-.03.18-.04.04-.01.09-.02.13-.04.07-.02.13-.04.2-.06.02,0,.03-.01.05-.02.31-.1.61-.22.9-.37.83,1.24,2.24,2.05,3.84,2.05,1.95,0,3.62-1.21,4.3-2.93.39.06.79.1,1.19.1,4.09,0,7.4-3.31,7.4-7.4,0-.2-.01-.4-.03-.6Z"/>
      <path class="cls-6" d="M177.05,93.51c.51-.28,1.17-.04,1.17-.04,0,0-.16.69-.67.96-.51.28-1.17.04-1.17.04,0,0,.16-.69.67-.96Z"/>
      <path class="cls-4" d="M179.76,108.96c-.54.2-1.17-.13-1.17-.13,0,0,.26-.66.8-.85s1.17.13,1.17.13c0,0-.26.66-.8.85Z"/>
      <path class="cls-4" d="M180.26,103.38c-.02-.58.48-1.07.48-1.07,0,0,.54.45.57,1.03.02.58-.48,1.07-.48,1.07,0,0-.54-.45-.57-1.03Z"/>
      <path class="cls-4" d="M182.22,95.66c-.36-.46-.23-1.15-.23-1.15,0,0,.7.05,1.06.51.36.46.23,1.15.23,1.15,0,0-.7-.05-1.06-.51Z"/>
      <path class="cls-4" d="M182.48,97.54c-.52.26-1.17,0-1.17,0,0,0,.19-.68.71-.94.52-.26,1.17,0,1.17,0,0,0-.19.68-.71.94Z"/>
      <path class="cls-4" d="M184.92,99.64c.44-.37,1.14-.28,1.14-.28,0,0-.02.7-.46,1.08-.44.37-1.14.28-1.14.28,0,0,.02-.7.46-1.08Z"/>
      <path class="cls-4" d="M173.22,97.28c-.33-.48-.16-1.16-.16-1.16,0,0,.7.09,1.03.57.33.48.16,1.16.16,1.16,0,0-.7-.09-1.03-.57Z"/>
      <path class="cls-4" d="M174.43,99c-.34.47-1.04.55-1.04.55,0,0-.16-.69.18-1.16.34-.47,1.04-.55,1.04-.55,0,0,.16.69-.18,1.16Z"/>
      <polygon class="cls-8" points="188.56 108.5 187.73 109.43 183.82 105.57 184.32 105.02 188.56 108.5"/>
      <polygon class="cls-8" points="190.01 116.33 187.12 116.33 188.27 96.58 188.86 96.58 190.01 116.33"/>
      <polygon class="cls-8" points="157.23 83.61 151.86 83.61 154.01 47.01 155.09 47.01 157.23 83.61"/>
    </g>
  </g>
  <path class="cls-13" d="M147.87,185.47c.17.18.26.39.26.64s-.09.46-.26.64-.39.27-.64.27-.47-.09-.64-.27-.26-.39-.26-.64.09-.46.26-.64.39-.27.64-.27.47.09.64.27ZM147.87,188.68c.17.18.26.39.26.64s-.09.46-.26.64-.39.27-.64.27-.47-.09-.64-.27-.26-.39-.26-.64.09-.46.26-.64.39-.27.64-.27.47.09.64.27Z"/>
  <path class="cls-13" d="M142.54,190l1.41-2.89-.02-.02c-.16.14-.3.24-.44.31-.14.07-.3.1-.48.1-.26,0-.49-.07-.68-.22-.19-.15-.35-.34-.47-.58-.12-.24-.21-.49-.26-.75s-.08-.51-.08-.75c0-.35.04-.69.11-1,.07-.32.19-.6.35-.86.16-.26.38-.46.65-.61s.59-.23.96-.23.67.07.93.22.47.34.63.58c.16.24.28.52.35.83.07.31.11.64.11.97,0,.6-.09,1.18-.26,1.73-.18.55-.44,1.19-.78,1.91l-.61,1.26h-1.41ZM143.24,183.9c-.09.09-.15.21-.19.34-.04.14-.07.28-.09.42s-.02.27-.02.39c0,.11,0,.22.02.35.02.13.05.25.09.38.04.12.1.23.18.31.08.08.18.12.29.12.13,0,.24-.05.33-.14.09-.09.16-.21.21-.35.05-.14.08-.28.1-.42.02-.14.02-.26.02-.38,0-.1-.01-.22-.03-.35-.02-.13-.05-.26-.1-.38-.05-.12-.11-.23-.19-.31-.08-.08-.18-.12-.3-.12-.13,0-.24.05-.32.14Z"/>
  <g>
    <path class="cls-10" d="M88.6,160.77v7.79h1.04v1.94h-1.04v3.09h-2.46v-3.09h-3.72v-1.9l3.4-7.82h2.79ZM86.13,163.69h-.03l-1.9,4.86h1.94v-4.86Z"/>
    <path class="cls-10" d="M93.95,172.17c0,.88-.71,1.61-1.61,1.61s-1.62-.73-1.62-1.61.71-1.62,1.62-1.62,1.61.73,1.61,1.62Z"/>
  </g>
</svg>