<?xml version="1.0" encoding="UTF-8"?>
<svg id="Layer_1" xmlns="http://www.w3.org/2000/svg" version="1.1" viewBox="0 0 280 280">
  <!-- Generator: Adobe Illustrator 29.5.1, SVG Export Plug-In . SVG Version: 2.1.0 Build 141)  -->
  <defs>
    <style>
      .st0 {
        fill: #601618;
      }

      .st1 {
        fill: #5c7385;
      }

      .st2 {
        fill: #ed2c38;
      }

      .st3, .st4 {
        fill: #dfb149;
      }

      .st5 {
        fill: #53372b;
      }

      .st6 {
        fill: #2a4585;
      }

      .st7 {
        fill: #fff;
      }

      .st4 {
        stroke: #f8f4e5;
        stroke-miterlimit: 10;
        stroke-width: 7px;
      }

      .st8 {
        fill: #fdbd27;
      }

      .st9 {
        fill: #bccdd2;
      }

      .st10 {
        fill: #252746;
      }

      .st11 {
        fill: #f8f4e5;
      }

      .st12 {
        fill: #a87834;
      }

      .st13 {
        fill: #23834c;
      }
    </style>
  </defs>
  <rect class="st3" x="73.84" y="95.06" width="159.08" height="179.24" rx="22.17" ry="22.17"/>
  <rect class="st13" x="112.19" y="245.41" width="82.06" height="19.8"/>
  <g>
    <path class="st11" d="M134.92,250.95c-.29-.08-.56-.12-.85-.12-1.98,0-2.84,1.8-2.84,3.55s.86,3.78,2.83,3.78c.29,0,.58-.08.86-.17v2.13c-.33.14-.68.2-1.04.2-3.25,0-5.05-2.93-5.05-5.93,0-2.83,1.88-5.73,4.94-5.73.39,0,.77.08,1.15.21v2.07h0Z"/>
    <path class="st11" d="M137.93,248v12.2h-2.13v-12.2h2.13Z"/>
    <path class="st11" d="M138.67,250.29c0-.77.62-1.35,1.39-1.35s1.32.65,1.32,1.38-.62,1.35-1.36,1.35-1.35-.62-1.35-1.38ZM141.09,252.57v7.64h-2.13v-7.64h2.13Z"/>
    <path class="st11" d="M146.02,260.08c-.39.18-.79.27-1.22.27-2.07,0-2.8-2.18-2.8-3.92,0-1.92.76-4.02,2.96-4.02.38,0,.71.08,1.06.23v1.88c-.2-.18-.36-.24-.62-.24-1.04,0-1.27,1.25-1.27,2.04s.17,2.04,1.24,2.04c.24,0,.45-.09.65-.23v1.95h0Z"/>
    <path class="st11" d="M153.71,253.79h.03c.36-.74.97-1.38,1.88-1.38.79,0,1.21.6,1.32,1.3h.03c.35-.68,1.01-1.3,1.83-1.3,1.38,0,1.38,1.53,1.38,2.51v5.28h-2.13v-4.14c0-.39.11-1.51-.53-1.51-.5,0-.57.51-.57.86v4.79h-2.13v-4.28c0-.38.11-1.35-.5-1.35-.53,0-.61.48-.61.88v4.75h-2.13v-7.64h2.13l.02,1.23h-.02Z"/>
    <path class="st11" d="M164.59,259.34h-.03c-.29.58-.73,1.01-1.41,1.01-1.72,0-2.07-2.75-2.07-3.98,0-1.32.26-3.96,2.04-3.96.71,0,1.19.47,1.44,1.09h.03v-.94h2.13v7.64h-2.13v-.86h0ZM164.74,256.35c0-.42-.05-2.04-.77-2.04s-.76,1.6-.76,2.04c0,.48.03,2.06.79,2.06.68,0,.74-1.65.74-2.06Z"/>
    <path class="st11" d="M169.9,253.51h.03c.24-.62.73-1.09,1.42-1.09,1.8,0,2.04,2.65,2.04,3.96,0,1.23-.32,3.98-2.06,3.98-.7,0-1.13-.44-1.41-1.01h-.03v4.63h-2.13v-11.4h2.13v.94h.01ZM171.26,256.35c0-.44-.06-2.04-.76-2.04s-.76,1.62-.76,2.04.05,2.06.74,2.06c.76,0,.77-1.57.77-2.06h0Z"/>
    <path class="st11" d="M178.15,254.63c-.3-.27-.59-.5-1.03-.5-.38,0-.57.23-.57.56.03.89,2.43.71,2.43,2.99,0,1.51-.88,2.68-2.45,2.68-.82,0-1.66-.35-2.3-.88l.94-1.51c.32.27.63.5,1.06.5.33,0,.62-.24.62-.63.03-1.01-2.43-.76-2.43-3.18,0-1.45,1.21-2.24,2.56-2.24.77,0,1.42.2,2.04.65l-.86,1.56h0Z"/>
  </g>
  <circle class="st4" cx="153.29" cy="95.15" r="63.62"/>
  <g>
    <polygon class="st10" points="127.26 65.03 127.26 145.43 125.78 143.94 125.78 71.62 127.26 65.03"/>
    <polygon class="st6" points="127.26 65.03 135.92 71.21 135.92 140.87 127.26 145.43 127.26 65.03"/>
    <polygon class="st1" points="142.35 39.48 138.58 45.25 138.58 134.81 142.35 137.67 142.35 39.48"/>
    <polygon class="st9" points="142.35 39.48 149.23 46.58 149.23 134.81 142.35 137.67 142.35 39.48"/>
    <polygon class="st12" points="155 72.32 155 138.83 151.23 135.99 150.34 84.74 155 72.32"/>
    <polygon class="st8" points="155 72.32 161.65 78.97 161.65 135.99 155 138.83 155 72.32"/>
    <polygon class="st0" points="168.3 2.85 161.65 26.96 161.65 142.02 168.3 147.08 168.3 2.85"/>
    <polygon class="st2" points="168.3 2.85 178.06 21.34 178.06 142.02 168.3 147.08 168.3 2.85"/>
    <polygon class="st1" points="181.13 60.99 178.06 65.68 178.06 138.54 181.13 140.87 181.13 60.99"/>
    <polygon class="st9" points="181.13 60.99 186.73 66.77 186.73 138.54 181.13 140.87 181.13 60.99"/>
  </g>
  <g>
    <path class="st7" d="M105.81,171.36c-.26-.22-.52-.4-.8-.54-.28-.13-.56-.2-.86-.2-.36,0-.64.1-.84.31s-.31.48-.31.83c0,.37.11.68.34.94.23.26.59.57,1.08.93.32.24.58.44.8.62s.42.39.61.64.35.54.47.87.18.71.18,1.13c0,1.06-.29,1.93-.88,2.6-.59.67-1.4,1-2.44,1-.34,0-.68-.05-1.04-.15-.36-.1-.66-.25-.92-.43v-2.18c.3.2.58.36.85.46s.56.15.88.15c.38,0,.69-.12.94-.35s.38-.53.38-.91c0-.34-.09-.61-.27-.82s-.45-.44-.82-.68c-.08-.06-.17-.12-.26-.18-.73-.49-1.26-.99-1.61-1.49-.35-.51-.52-1.15-.52-1.94,0-.96.27-1.77.81-2.42s1.27-.98,2.21-.98c.7,0,1.38.19,2.02.57v2.22h0Z"/>
    <path class="st7" d="M110.94,179.44h-.03c-.15.32-.35.57-.58.75-.24.18-.52.28-.84.28-.41,0-.75-.14-1.03-.42s-.5-.64-.65-1.06c-.15-.43-.26-.87-.32-1.31s-.09-.86-.09-1.23c0-.41.03-.84.08-1.28s.15-.87.3-1.29.36-.76.64-1.03.63-.4,1.06-.4c.35,0,.64.1.89.3s.43.47.57.8h.03v-.95h2.16v7.74h-2.16v-.87l-.03-.03ZM110.74,178.24c.1-.16.18-.36.23-.6.05-.23.08-.46.1-.67.02-.21.02-.4.02-.57s0-.35-.02-.56c-.01-.21-.05-.43-.1-.67-.05-.23-.13-.43-.24-.6-.11-.16-.25-.25-.42-.25-.16,0-.3.08-.41.24s-.19.36-.24.59c-.05.24-.08.46-.1.67-.01.21-.02.4-.02.58,0,.21,0,.42.02.63.02.2.05.42.1.64.05.22.13.42.25.57.11.16.25.24.43.24.16,0,.3-.08.4-.25h0Z"/>
    <path class="st7" d="M117,170.43v2.14h.89v1.78h-.89v5.96h-2.16v-5.96h-.75v-1.78h.75v-2.14h2.16Z"/>
    <path class="st7" d="M124.24,177.02h-3.42v.11c.01.24.02.43.03.6.01.16.04.33.1.5s.14.31.25.42.25.17.44.17c.26,0,.43-.08.54-.25.1-.16.15-.38.15-.64h1.84c-.1.78-.35,1.39-.74,1.85s-.96.69-1.71.69c-.52,0-.97-.11-1.36-.32-.38-.22-.69-.51-.94-.87-.24-.37-.41-.78-.52-1.23-.11-.45-.16-.93-.16-1.43s.05-.99.15-1.48c.1-.48.27-.94.49-1.35s.53-.74.91-.99c.38-.25.84-.37,1.37-.37.73,0,1.35.3,1.86.9.52.6.77,1.44.77,2.5,0,.03,0,.08-.01.15v.15l-.05.89h.01ZM123.64,169.46l-1.98,2.11-1.06-.61,1.47-2.21,1.56.71h.01ZM122.42,175.5c0-.15-.01-.31-.03-.47s-.06-.31-.12-.46c-.06-.15-.14-.27-.24-.36s-.23-.14-.4-.14c-.15,0-.28.05-.39.14s-.19.21-.25.35-.1.29-.12.44c-.03.15-.04.3-.04.44v.23h1.58v-.18h.01Z"/>
    <path class="st7" d="M127.38,167.94v12.37h-2.16v-12.37h2.16Z"/>
    <path class="st7" d="M128.53,171.24c-.27-.27-.4-.6-.4-.98s.14-.71.41-.97.61-.39,1-.39.68.14.94.41c.26.28.39.6.39.98s-.14.69-.41.96-.6.41-.97.41-.7-.14-.97-.41h0ZM130.59,172.57v7.74h-2.16v-7.74h2.16Z"/>
    <path class="st7" d="M134.48,170.43v2.14h.89v1.78h-.89v5.96h-2.16v-5.96h-.75v-1.78h.75v-2.14h2.16Z"/>
    <path class="st7" d="M141.72,177.02h-3.42v.11c0,.24.02.43.03.6,0,.16.04.33.1.5.06.17.14.31.25.42s.25.17.44.17c.26,0,.43-.08.54-.25.1-.16.15-.38.15-.64h1.84c-.1.78-.35,1.39-.74,1.85s-.96.69-1.71.69c-.52,0-.97-.11-1.36-.32-.38-.22-.69-.51-.94-.87-.24-.37-.41-.78-.52-1.23s-.16-.93-.16-1.43.05-.99.15-1.48c.1-.48.27-.94.49-1.35s.53-.74.91-.99.84-.37,1.37-.37c.73,0,1.35.3,1.86.9.52.6.77,1.44.77,2.5,0,.03,0,.08,0,.15v.15l-.05.89h.01ZM139.9,175.5c0-.15,0-.31-.03-.47s-.06-.31-.12-.46c-.06-.15-.14-.27-.24-.36s-.23-.14-.4-.14c-.15,0-.28.05-.39.14s-.19.21-.25.35-.1.29-.12.44c-.03.15-.04.3-.04.44v.23h1.58v-.18h0Z"/>
    <path class="st7" d="M145.51,177.83l-2.31,4.69h-1.53l1.53-4.69h2.31Z"/>
    <path class="st7" d="M156.25,170.93c-.31-.08-.59-.12-.86-.12-.48,0-.9.1-1.27.3s-.67.47-.9.81-.41.73-.53,1.16c-.12.43-.18.87-.18,1.33s.06.9.18,1.35c.12.45.29.86.53,1.24s.53.68.9.9c.36.22.78.34,1.26.34.22,0,.52-.06.87-.17v2.16c-.33.13-.68.2-1.06.2-.8,0-1.51-.17-2.15-.5s-1.18-.78-1.62-1.35-.78-1.21-1-1.93-.34-1.46-.34-2.23c0-.73.12-1.44.35-2.13.23-.69.57-1.32,1.01-1.88.44-.56.98-1,1.6-1.32.62-.32,1.31-.48,2.05-.48.38,0,.77.07,1.16.22v2.1h0Z"/>
    <path class="st7" d="M162.5,177.02h-3.42v.11c0,.24.02.43.03.6,0,.16.04.33.1.5.06.17.14.31.25.42s.25.17.44.17c.26,0,.43-.08.54-.25.1-.16.15-.38.15-.64h1.84c-.1.78-.35,1.39-.74,1.85s-.96.69-1.71.69c-.52,0-.97-.11-1.36-.32-.38-.22-.69-.51-.94-.87-.24-.37-.41-.78-.52-1.23s-.16-.93-.16-1.43.05-.99.15-1.48c.1-.48.27-.94.49-1.35s.53-.74.91-.99.84-.37,1.37-.37c.73,0,1.35.3,1.86.9.52.6.77,1.44.77,2.5,0,.03,0,.08,0,.15v.15l-.05.89h.01ZM160.68,175.5c0-.15,0-.31-.03-.47s-.06-.31-.12-.46c-.06-.15-.14-.27-.24-.36s-.23-.14-.4-.14c-.15,0-.28.05-.39.14s-.19.21-.25.35-.1.29-.12.44c-.03.15-.04.3-.04.44v.23h1.58v-.18h0Z"/>
    <path class="st7" d="M165.64,173.77h.03c.15-.39.39-.71.71-.97.32-.25.68-.38,1.08-.38.33,0,.59.07.79.21s.34.34.44.6c.09.26.15.54.18.87.03.32.05.73.05,1.22v5h-2.16v-4.44c0-.15.02-.26.02-.31,0-.29-.04-.52-.12-.7s-.22-.27-.44-.27-.37.09-.45.26-.13.38-.13.63v4.83h-2.16v-7.74h2.16v1.19Z"/>
    <path class="st7" d="M172.81,170.43v2.14h.89v1.78h-.89v5.96h-2.16v-5.96h-.75v-1.78h.75v-2.14h2.16Z"/>
    <path class="st7" d="M176.86,172.57v.93h.03c.21-.36.46-.64.74-.85s.62-.33,1.02-.38v2.1c-.14-.02-.26-.03-.34-.03-.35,0-.62.05-.82.16s-.34.25-.44.44c-.09.18-.15.38-.17.61-.02.22-.03.52-.03.9v3.86h-2.16v-7.74h2.17Z"/>
    <path class="st7" d="M183.74,172.76c.39.22.69.53.91.9s.38.8.48,1.28c.1.48.15.98.15,1.51s-.05,1.03-.15,1.5c-.1.47-.26.9-.48,1.27s-.52.68-.91.9-.86.34-1.41.34-1.02-.11-1.41-.34c-.39-.22-.69-.53-.91-.9-.22-.38-.38-.8-.48-1.27-.1-.47-.15-.97-.15-1.5s.05-1.03.15-1.51c.1-.48.26-.9.48-1.28s.53-.68.91-.9.85-.34,1.4-.34,1.02.11,1.41.34h.01ZM181.91,174.6c-.11.16-.19.35-.24.59-.05.23-.08.46-.1.68,0,.22-.02.41-.02.58s0,.35.02.57.05.45.1.68c.05.24.13.43.24.59s.25.24.42.24.31-.08.42-.24.19-.35.24-.59c.05-.23.08-.46.1-.68,0-.22.02-.41.02-.57s0-.36-.02-.58-.05-.45-.1-.68c-.05-.24-.13-.43-.24-.59s-.25-.24-.42-.24-.31.08-.42.24Z"/>
    <path class="st7" d="M195.99,170.93c-.31-.08-.59-.12-.86-.12-.48,0-.9.1-1.27.3s-.67.47-.9.81-.41.73-.53,1.16c-.12.43-.18.87-.18,1.33s.06.9.18,1.35c.12.45.29.86.53,1.24s.53.68.9.9c.36.22.78.34,1.26.34.22,0,.52-.06.87-.17v2.16c-.33.13-.68.2-1.06.2-.8,0-1.51-.17-2.15-.5s-1.18-.78-1.62-1.35-.78-1.21-1-1.93-.34-1.46-.34-2.23c0-.73.12-1.44.35-2.13.23-.69.57-1.32,1.01-1.88.44-.56.98-1,1.6-1.32.62-.32,1.31-.48,2.05-.48.38,0,.77.07,1.16.22v2.1h0Z"/>
    <path class="st7" d="M199.7,169.46l-1.98,2.11-1.06-.61,1.47-2.21,1.56.71h0ZM199.03,172.57v7.74h-2.16v-7.74h2.16Z"/>
    <path class="st7" d="M201.92,172.57l1.03,4.24.02.12h.03l.17-.8.84-3.57h2.24l-2.24,7.74h-2.01l-2.22-7.74h2.15,0Z"/>
    <path class="st7" d="M207.1,171.24c-.27-.27-.4-.6-.4-.98s.14-.71.41-.97.61-.39,1-.39.68.14.94.41c.26.28.39.6.39.98s-.14.69-.41.96-.6.41-.97.41-.7-.14-.97-.41h0ZM209.16,172.57v7.74h-2.16v-7.74h2.16Z"/>
    <path class="st7" d="M214.15,180.19c-.4.18-.81.28-1.24.28-.5,0-.93-.12-1.3-.35-.37-.24-.66-.55-.89-.94s-.39-.82-.49-1.28c-.1-.46-.15-.92-.15-1.39,0-.52.05-1.02.16-1.49s.28-.91.52-1.3.55-.7.94-.93.85-.34,1.38-.34c.37,0,.73.08,1.07.23v1.9c-.17-.16-.38-.25-.63-.25s-.45.07-.63.2c-.17.13-.31.3-.4.51-.09.21-.16.43-.2.66-.04.23-.06.46-.06.7,0,.26.02.5.05.72.04.22.1.44.18.65.09.21.21.38.38.51s.38.19.64.19c.21,0,.43-.08.66-.23v1.98-.03Z"/>
    <path class="st7" d="M219.25,172.76c.39.22.69.53.91.9s.38.8.48,1.28c.1.48.15.98.15,1.51s-.05,1.03-.15,1.5c-.1.47-.26.9-.48,1.27s-.52.68-.91.9-.86.34-1.41.34-1.02-.11-1.41-.34c-.39-.22-.69-.53-.91-.9-.22-.38-.38-.8-.48-1.27-.1-.47-.15-.97-.15-1.5s.05-1.03.15-1.51c.1-.48.26-.9.48-1.28s.53-.68.91-.9.85-.34,1.4-.34,1.02.11,1.41.34h.01ZM217.42,174.6c-.11.16-.19.35-.24.59-.05.23-.08.46-.1.68,0,.22-.02.41-.02.58s0,.35.02.57.05.45.1.68c.05.24.13.43.24.59s.25.24.42.24.31-.08.42-.24.19-.35.24-.59c.05-.23.08-.46.1-.68,0-.22.02-.41.02-.57s0-.36-.02-.58-.05-.45-.1-.68c-.05-.24-.13-.43-.24-.59s-.25-.24-.42-.24-.31.08-.42.24Z"/>
  </g>
  <path class="st5" d="M112.9,210.45s-.15-.08-.44-.23c-.29-.16-.51-.38-.66-.68s-.23-.66-.23-1.08v-1.47c0-.42.08-.78.23-1.08s.37-.53.66-.68c.29-.16.64-.24,1.05-.24.34,0,.64.07.9.22.27.14.48.36.66.63s.29.61.36,1h-1.05c-.04-.18-.1-.33-.18-.45s-.18-.22-.3-.29-.25-.1-.39-.1c-.19,0-.35.04-.48.12s-.23.19-.3.34-.11.33-.11.54v1.47c0,.21.03.39.11.54.07.15.17.26.3.34s.29.12.48.12c.15,0,.28-.03.4-.1.12-.06.22-.16.3-.29.08-.13.14-.28.18-.46h1.05c-.07.39-.19.72-.36,1s-.39.49-.66.63c-.26.14-.57.22-.9.22h-.61v-.02Z"/>
  <path class="st5" d="M116.23,205.03h1.01v1.01h-1.01v-1.01ZM116.23,206.56h1.01v3.83h-1.01v-3.83Z"/>
  <path class="st5" d="M118.18,206.56h1.08v3.83h-1.08v-3.83ZM120.15,207.52c-.07-.02-.15-.04-.25-.04-.2,0-.36.07-.47.2-.11.13-.17.31-.17.55l-.08-1c.11-.23.24-.41.41-.53.17-.13.35-.19.56-.19.16,0,.3.03.43.08s.24.12.34.22l-.59.82s-.11-.09-.18-.11h0Z"/>
  <path class="st5" d="M122.4,210.45l-.39-.21c-.26-.14-.46-.34-.59-.61-.14-.27-.2-.58-.2-.96v-.41c0-.37.07-.69.2-.95s.33-.46.59-.6c.26-.14.57-.21.93-.21.21,0,.41.02.59.07s.35.12.5.21c.15.09.27.2.37.33l-.65.63c-.09-.09-.2-.15-.33-.2-.13-.05-.26-.07-.39-.07-.26,0-.45.07-.59.2-.14.14-.21.33-.21.58v.41c0,.26.07.45.21.59s.34.21.59.21c.14,0,.27-.03.4-.08.13-.05.23-.13.32-.22l.65.67c-.1.13-.23.24-.37.33-.15.09-.31.16-.5.2-.18.05-.38.07-.59.07h-.55v.02Z"/>
  <path class="st5" d="M126.01,208.89c0,.18.05.33.16.43.1.1.25.15.44.15s.34-.05.44-.16c.1-.1.15-.25.15-.45l.05.84c-.07.21-.19.38-.36.53-.17.14-.37.21-.61.21-.41,0-.73-.13-.95-.4-.22-.26-.34-.64-.34-1.12v-2.36h1.01v2.33h0ZM127.2,206.56h1.01v3.83h-1.01s0-3.83,0-3.83Z"/>
  <path class="st5" d="M129.14,205.03h1.01v1.01h-1.01v-1.01ZM129.14,206.56h1.01v3.83h-1.01v-3.83Z"/>
  <path class="st5" d="M130.8,206.56h1.87v.86h-1.87v-.86ZM131.43,210.15c-.16-.17-.23-.42-.23-.76v-3.95h1.01v3.7c0,.09.02.17.06.22s.09.08.16.08h.25v.97h-.51c-.33,0-.58-.09-.74-.26h0Z"/>
  <path class="st5" d="M134.21,210.25c-.25-.13-.44-.32-.56-.57-.13-.25-.19-.55-.19-.9v-.62c0-.35.06-.64.19-.89s.32-.44.56-.56c.25-.13.55-.19.89-.19s.65.06.89.19c.25.13.44.32.56.56.13.25.19.54.19.89v.63c0,.35-.06.65-.19.89s-.32.44-.56.57c-.25.13-.55.2-.89.2s-.65-.06-.89-.2h0ZM135.57,209.29c.11-.12.17-.29.17-.5v-.63c0-.21-.06-.38-.17-.5s-.27-.18-.48-.18-.36.06-.47.18-.17.28-.17.5v.63c0,.22.06.38.17.5s.27.18.47.18.36-.06.48-.18Z"/>
  <path class="st5" d="M143.15,205.03h1.33v5.36h-.92v-4.16l.04.24-1.03,3.33h-.89l-1.03-3.26.04-.31v4.16h-.92v-5.36h1.33l1.02,3.62,1.02-3.62h0Z"/>
  <path class="st5" d="M146.68,210.45s-.13-.07-.39-.2c-.26-.13-.46-.33-.6-.59s-.21-.57-.21-.93v-.43c0-.38.07-.7.2-.97s.32-.47.58-.61c.25-.14.56-.21.91-.21.33,0,.62.08.86.25s.42.41.54.73.19.7.19,1.15v.25h-2.62v-.68h1.7v-.09c-.04-.22-.11-.39-.22-.51s-.26-.18-.45-.18c-.24,0-.43.07-.57.22-.13.14-.2.35-.2.62v.49c0,.26.07.46.22.61.15.14.35.21.61.21.14,0,.27-.02.4-.07.13-.05.25-.12.36-.2l.66.59c-.2.18-.42.32-.67.42-.25.1-.5.15-.75.15h-.55v-.02ZM146.57,205.52l1.06-1.31.71.6-1.13,1.24-.64-.53h0Z"/>
  <path class="st5" d="M150.12,210.25c-.19-.13-.34-.32-.44-.57s-.15-.55-.15-.89v-.61c0-.35.05-.65.15-.9.1-.25.25-.44.44-.57s.42-.2.7-.2c.2,0,.39.06.56.18s.3.29.41.52l-.08.85c0-.13-.02-.24-.07-.33-.04-.09-.11-.16-.19-.21s-.19-.07-.31-.07c-.19,0-.34.06-.44.19s-.16.31-.16.54v.61c0,.23.05.41.16.53.1.13.25.19.44.19.12,0,.22-.02.31-.07.08-.05.15-.11.19-.2s.07-.2.07-.32l.05.87c-.08.21-.2.37-.36.49-.16.11-.36.17-.58.17-.27,0-.5-.06-.7-.2h0ZM151.71,205.03h1.01v5.36h-1.01v-5.36Z"/>
  <path class="st5" d="M153.66,205.03h1.01v1.01h-1.01v-1.01ZM153.66,206.56h1.01v3.83h-1.01v-3.83Z"/>
  <path class="st5" d="M156.68,210.45l-.39-.21c-.26-.14-.46-.34-.59-.61-.14-.27-.2-.58-.2-.96v-.41c0-.37.07-.69.2-.95s.33-.46.59-.6.57-.21.93-.21c.21,0,.41.02.59.07s.35.12.5.21c.15.09.27.2.37.33l-.65.63c-.09-.09-.2-.15-.33-.2s-.26-.07-.39-.07c-.26,0-.45.07-.59.2-.14.14-.21.33-.21.58v.41c0,.26.07.45.21.59s.34.21.59.21c.14,0,.27-.03.4-.08.13-.05.23-.13.32-.22l.65.67c-.1.13-.23.24-.37.33-.15.09-.31.16-.5.2-.18.05-.38.07-.59.07h-.55v.02Z"/>
  <path class="st5" d="M160.02,210.25c-.25-.13-.44-.32-.56-.57-.13-.25-.19-.55-.19-.9v-.62c0-.35.06-.64.19-.89s.32-.44.56-.56c.25-.13.55-.19.89-.19s.65.06.89.19c.25.13.44.32.56.56.13.25.19.54.19.89v.63c0,.35-.06.65-.19.89s-.32.44-.56.57c-.25.13-.55.2-.89.2s-.65-.06-.89-.2h0ZM161.39,209.29c.11-.12.17-.29.17-.5v-.63c0-.21-.06-.38-.17-.5s-.27-.18-.48-.18-.36.06-.47.18-.17.28-.17.5v.63c0,.22.06.38.17.5s.27.18.47.18.36-.06.48-.18Z"/>
  <path class="st5" d="M164.61,210.45s-.11-.02-.32-.06c-.22-.04-.42-.1-.61-.18-.19-.08-.36-.17-.5-.28l.62-.78c.18.12.38.21.58.27s.39.1.58.1c.24,0,.42-.03.55-.08s.2-.13.2-.22-.03-.15-.08-.2-.13-.08-.22-.09c-.09-.02-.21-.04-.37-.05-.04,0-.09,0-.13-.02-.05,0-.09,0-.14-.02h-.06c-.29-.04-.51-.08-.69-.14-.17-.05-.32-.16-.44-.31s-.18-.38-.18-.67c0-.26.06-.47.18-.66s.3-.32.54-.41.52-.14.85-.14c.19,0,.39.02.58.06s.38.1.56.17c.18.07.34.16.49.27l-.6.73c-.17-.09-.34-.17-.52-.22-.18-.05-.36-.08-.52-.08-.2,0-.36.02-.48.07-.11.05-.17.11-.17.2,0,.06.03.11.09.15s.14.06.22.08c.09.02.22.03.39.05h.07s.04,0,.07,0h.06c.3.03.54.08.73.13s.35.16.48.32c.13.16.2.4.2.72,0,.27-.06.49-.19.68-.13.19-.31.33-.56.43-.25.1-.54.15-.89.15h-.34l-.03.02Z"/>
  <path class="st5" d="M167.24,209.38h1.01v1.32l-1.01.97v-2.29h0Z"/>
  <path class="st5" d="M172.44,210.45s-.15-.08-.44-.23c-.29-.16-.51-.38-.66-.68s-.23-.66-.23-1.08v-1.47c0-.42.08-.78.23-1.08s.37-.53.66-.68c.29-.16.64-.24,1.05-.24.34,0,.64.07.9.22.27.14.48.36.66.63s.29.61.36,1h-1.05c-.04-.18-.1-.33-.18-.45-.08-.12-.18-.22-.3-.29s-.25-.1-.39-.1c-.19,0-.35.04-.48.12s-.23.19-.3.34-.11.33-.11.54v1.47c0,.21.03.39.11.54.07.15.17.26.3.34s.29.12.48.12c.15,0,.28-.03.4-.1.12-.06.22-.16.3-.29.08-.13.14-.28.18-.46h1.05c-.07.39-.19.72-.36,1s-.39.49-.66.63c-.26.14-.57.22-.9.22h-.61v-.02Z"/>
  <path class="st5" d="M176.3,210.25c-.19-.13-.34-.32-.44-.57s-.15-.55-.15-.89v-.61c0-.35.05-.65.15-.9.1-.25.25-.44.44-.57s.42-.2.7-.2c.2,0,.39.06.56.18s.3.29.41.52l-.08.85c0-.13-.02-.24-.07-.33-.04-.09-.11-.16-.19-.21s-.19-.07-.31-.07c-.19,0-.34.06-.44.19s-.16.31-.16.54v.61c0,.23.05.41.16.53.1.13.25.19.44.19.12,0,.22-.02.31-.07.08-.05.15-.11.19-.2s.07-.2.07-.32l.05.87c-.08.21-.2.37-.36.49-.16.11-.36.17-.58.17-.27,0-.5-.06-.7-.2h0ZM177.89,205.03h1.01v5.36h-1.01v-5.36Z"/>
  <path class="st5" d="M179.73,209.38h1.01v1.01h-1.01v-1.01Z"/>
  <path class="st5" d="M185.01,210.45s-.12-.03-.37-.08-.47-.13-.69-.23c-.21-.1-.41-.22-.58-.36l.47-.83c.21.17.44.3.72.39s.55.14.83.14c.33,0,.59-.06.77-.17.18-.11.27-.27.27-.47h0c0-.15-.04-.26-.12-.34s-.19-.15-.32-.18c-.13-.04-.3-.08-.5-.11h-.12c-.36-.07-.66-.14-.89-.22-.24-.08-.44-.23-.6-.45-.16-.21-.25-.51-.25-.91h0c0-.35.08-.65.23-.89s.38-.43.67-.56c.3-.13.65-.19,1.07-.19.19,0,.39.02.59.07s.4.11.59.19.37.18.55.3l-.43.86c-.21-.14-.42-.25-.65-.33-.22-.08-.44-.12-.65-.12-.31,0-.55.05-.72.15-.17.1-.25.24-.25.43h0c0,.16.04.28.13.37.09.09.2.16.33.2s.31.09.55.13h.14c.34.07.62.15.85.24.23.09.42.25.57.46.15.21.23.5.23.86h0c0,.35-.08.64-.24.89-.16.24-.39.43-.7.56s-.67.19-1.1.19h-.38Z"/>
  <path class="st5" d="M188.4,210.15c-.2-.2-.3-.49-.3-.89s.11-.66.34-.85.57-.28,1.02-.28h.96l.05.77h-1.01c-.15,0-.27.03-.34.09s-.11.15-.11.28.05.22.14.28.24.09.44.09c.27,0,.47-.03.6-.09s.2-.16.2-.29l.08.56c0,.14-.08.25-.19.35s-.25.17-.42.22-.35.07-.53.07c-.41,0-.72-.1-.92-.29v-.02ZM190.39,207.96c0-.18-.06-.31-.18-.41s-.29-.14-.5-.14c-.14,0-.28.02-.42.07s-.26.11-.37.2l-.63-.62c.15-.17.35-.31.6-.41s.53-.15.83-.15c.33,0,.62.06.86.17s.42.27.54.49c.12.21.19.47.19.77v2.46h-.92v-2.43h0Z"/>
  <path class="st5" d="M192.01,206.56h1.87v.86h-1.87v-.86ZM192.64,210.15c-.16-.17-.23-.42-.23-.76v-3.95h1.01v3.7c0,.09.02.17.06.22s.09.08.16.08h.25v.97h-.51c-.33,0-.58-.09-.74-.26h0Z"/>
  <path class="st5" d="M195.86,210.45s-.13-.07-.39-.2c-.26-.13-.46-.33-.6-.59s-.21-.57-.21-.93v-.43c0-.38.07-.7.2-.97s.32-.47.58-.61c.25-.14.56-.21.91-.21.33,0,.62.08.86.25s.42.41.54.73.19.7.19,1.15v.25h-2.62v-.68h1.7v-.09c-.04-.22-.11-.39-.22-.51s-.26-.18-.45-.18c-.24,0-.43.07-.57.22-.13.14-.2.35-.2.62v.49c0,.26.07.46.22.61.15.14.35.21.61.21.14,0,.27-.02.4-.07.13-.05.25-.12.36-.2l.66.59c-.2.18-.42.32-.67.42-.25.1-.5.15-.75.15h-.55v-.02ZM195.75,205.52l1.06-1.31.71.6-1.13,1.24-.64-.53h0Z"/>
  <path class="st5" d="M199.83,209.13c0,.09.03.17.08.22s.13.08.23.08h.17v.97h-.52c-.31,0-.55-.09-.72-.27s-.25-.43-.25-.75v-4.35h1.01v4.1h0Z"/>
  <path class="st5" d="M200.95,205.03h1.01v1.01h-1.01v-1.01ZM200.95,206.56h1.01v3.83h-1.01v-3.83Z"/>
  <path class="st5" d="M202.61,206.56h1.87v.86h-1.87v-.86ZM203.24,210.15c-.16-.17-.23-.42-.23-.76v-3.95h1.01v3.7c0,.09.02.17.06.22s.09.08.16.08h.25v.97h-.51c-.33,0-.58-.09-.74-.26h0Z"/>
  <path class="st5" d="M206.46,210.45s-.13-.07-.39-.2c-.26-.13-.46-.33-.6-.59s-.21-.57-.21-.93v-.43c0-.38.07-.7.2-.97s.32-.47.58-.61c.25-.14.56-.21.91-.21.33,0,.62.08.86.25s.42.41.54.73.19.7.19,1.15v.25h-2.62v-.68h1.7v-.09c-.04-.22-.11-.39-.22-.51s-.26-.18-.45-.18c-.24,0-.43.07-.57.22-.13.14-.2.35-.2.62v.49c0,.26.07.46.22.61.15.14.35.21.61.21.14,0,.27-.02.4-.07.13-.05.25-.12.36-.2l.66.59c-.2.18-.42.32-.67.42-.25.1-.5.15-.75.15h-.55v-.02Z"/>
  <path class="st5" d="M209.1,209.38h1.01v1.32l-1.01.97v-2.29h0Z"/>
  <path class="st5" d="M111.68,214.85h1.24l2,4.11-.09.1v-4.21h.97v5.36h-1.24l-1.99-4.05.09-.1v4.14h-.97v-5.36h-.01Z"/>
  <path class="st5" d="M117.02,219.97c-.2-.2-.3-.49-.3-.89s.11-.66.34-.85c.23-.19.57-.28,1.02-.28h.96l.05.77h-1.01c-.15,0-.27.03-.34.09s-.11.15-.11.28.05.22.14.28.24.09.44.09c.27,0,.47-.03.6-.09s.2-.16.2-.29l.08.56c-.01.14-.08.25-.19.35s-.25.17-.42.22-.35.07-.53.07c-.41,0-.72-.1-.92-.29v-.02ZM119,217.78c0-.18-.06-.31-.18-.41s-.29-.14-.5-.14c-.14,0-.28.02-.42.07s-.26.11-.37.2l-.63-.62c.15-.17.35-.31.6-.41s.53-.15.83-.15c.33,0,.62.06.86.17s.42.27.54.49c.12.21.19.47.19.77v2.46h-.92v-2.43h0Z"/>
  <path class="st5" d="M121.93,218.71c0,.18.05.33.16.43.1.1.25.15.44.15s.34-.05.44-.16c.1-.1.15-.25.15-.45l.05.84c-.07.21-.19.38-.36.53-.17.14-.37.21-.61.21-.41,0-.73-.13-.95-.4-.22-.26-.34-.64-.34-1.12v-2.36h1.01v2.33h0ZM123.12,216.38h1.01v3.83h-1.01v-3.83Z"/>
  <path class="st5" d="M126.19,220.27l-.39-.21c-.26-.14-.46-.34-.59-.61-.14-.27-.2-.58-.2-.96v-.41c0-.37.07-.69.2-.95s.33-.46.59-.6c.26-.14.57-.21.93-.21.21,0,.41.02.59.07s.35.12.5.21c.15.09.27.2.37.33l-.65.63c-.09-.09-.2-.15-.33-.2-.13-.05-.26-.07-.39-.07-.26,0-.45.07-.59.2-.14.14-.21.33-.21.58v.41c0,.26.07.45.21.59s.34.21.59.21c.14,0,.27-.03.4-.08.13-.05.23-.13.32-.22l.65.67c-.1.13-.23.24-.37.33-.15.09-.31.16-.5.2-.18.05-.38.07-.59.07h-.55v.02Z"/>
  <path class="st5" d="M129,219.97c-.2-.2-.3-.49-.3-.89s.11-.66.34-.85.57-.28,1.02-.28h.96l.05.77h-1.01c-.15,0-.27.03-.34.09s-.11.15-.11.28.05.22.14.28.24.09.44.09c.27,0,.47-.03.6-.09s.2-.16.2-.29l.08.56c0,.14-.08.25-.19.35s-.25.17-.42.22-.35.07-.53.07c-.41,0-.72-.1-.92-.29v-.02ZM130.99,217.78c0-.18-.06-.31-.18-.41s-.29-.14-.5-.14c-.14,0-.28.02-.42.07s-.26.11-.37.2l-.63-.62c.15-.17.35-.31.6-.41s.53-.15.83-.15c.33,0,.62.06.86.17s.42.27.54.49c.12.21.19.47.19.77v2.46h-.92v-2.43h0Z"/>
  <path class="st5" d="M133.91,218.95c0,.09.03.17.08.22s.13.08.23.08h.17v.97h-.52c-.31,0-.55-.09-.72-.27s-.25-.43-.25-.75v-4.35h1.01v4.1h0Z"/>
  <path class="st5" d="M135.05,216.38h1.01v5.39h-1.01v-5.39ZM136.37,220.09c-.16-.11-.28-.28-.36-.49l.05-.87c0,.13.02.23.07.32s.11.16.19.2.19.07.31.07c.19,0,.34-.06.44-.19.1-.12.16-.3.16-.53v-.61c0-.23-.05-.41-.16-.54-.1-.13-.25-.19-.44-.19-.12,0-.22.02-.31.07-.08.05-.15.12-.19.21-.04.09-.07.2-.07.33l-.08-.85c.1-.22.24-.4.41-.52s.35-.18.56-.18c.27,0,.5.07.7.2.19.13.34.32.44.57s.15.55.15.9v.61c0,.35-.05.65-.15.89-.1.25-.25.44-.44.57s-.42.2-.7.2c-.22,0-.42-.06-.58-.17h0Z"/>
  <path class="st5" d="M139.28,219.97c-.2-.2-.3-.49-.3-.89s.11-.66.34-.85.57-.28,1.02-.28h.96l.05.77h-1.01c-.15,0-.27.03-.34.09s-.11.15-.11.28.05.22.14.28.24.09.44.09c.27,0,.47-.03.6-.09s.2-.16.2-.29l.08.56c0,.14-.08.25-.19.35s-.25.17-.42.22-.35.07-.53.07c-.41,0-.72-.1-.92-.29v-.02ZM141.27,217.78c0-.18-.06-.31-.18-.41s-.29-.14-.5-.14c-.14,0-.28.02-.42.07s-.26.11-.37.2l-.63-.62c.15-.17.35-.31.6-.41s.53-.15.83-.15c.33,0,.62.06.86.17s.42.27.54.49c.12.21.19.47.19.77v2.46h-.92v-2.43h0Z"/>
  <path class="st5" d="M143.18,216.38h1.01v3.83h-1.01v-3.83ZM145.4,217.89c0-.19-.05-.33-.16-.44-.11-.1-.26-.15-.46-.15s-.33.05-.43.16c-.1.1-.15.25-.15.44l-.08-.85c.12-.24.25-.42.41-.54s.36-.18.61-.18c.4,0,.72.14.94.41s.33.66.33,1.15v2.32h-1.01v-2.32h0Z"/>
  <path class="st5" d="M149.91,220.07c-.19-.13-.34-.32-.44-.57s-.15-.55-.15-.89v-.61c0-.35.05-.65.15-.9.1-.25.25-.44.44-.57s.42-.2.7-.2c.2,0,.39.06.56.18s.3.29.41.52l-.08.85c0-.13-.02-.24-.07-.33-.04-.09-.11-.16-.19-.21s-.19-.07-.31-.07c-.19,0-.34.06-.44.19s-.16.31-.16.54v.61c0,.23.05.41.16.53.1.13.25.19.44.19.12,0,.22-.02.31-.07.08-.05.15-.11.19-.2s.07-.2.07-.32l.05.87c-.08.21-.2.37-.36.49-.16.11-.36.17-.58.17-.27,0-.5-.06-.7-.2h0ZM151.5,214.85h1.01v5.36h-1.01v-5.36Z"/>
  <path class="st5" d="M154.59,220.27s-.13-.07-.39-.2c-.26-.13-.46-.33-.6-.59s-.21-.57-.21-.93v-.43c0-.38.07-.7.2-.97s.32-.47.58-.61c.25-.14.56-.21.91-.21.33,0,.62.08.86.25s.42.41.54.73.19.7.19,1.15v.25h-2.62v-.68h1.7v-.09c-.04-.22-.11-.39-.22-.51s-.26-.18-.45-.18c-.24,0-.43.07-.57.22-.13.14-.2.35-.2.62v.49c0,.26.07.46.22.61.15.14.35.21.61.21.14,0,.27-.02.4-.07.13-.05.25-.12.36-.2l.66.59c-.2.18-.42.32-.67.42-.25.1-.5.15-.75.15h-.55v-.02Z"/>
  <path class="st5" d="M159.7,220.07c-.26-.13-.46-.31-.6-.54l.83-.6c.09.11.2.2.32.26s.25.09.39.09c.19,0,.34-.07.45-.2.11-.14.16-.33.16-.58v-3.66h1.05v3.66c0,.37-.07.69-.2.95-.13.26-.33.46-.58.6-.26.14-.56.21-.93.21-.33,0-.62-.06-.88-.19h-.01Z"/>
  <path class="st5" d="M164.41,218.71c0,.18.05.33.16.43.1.1.25.15.44.15s.34-.05.44-.16c.1-.1.15-.25.15-.45l.05.84c-.07.21-.19.38-.36.53-.17.14-.37.21-.61.21-.41,0-.73-.13-.95-.4-.22-.26-.34-.64-.34-1.12v-2.36h1.01v2.33h0ZM165.6,216.38h1.01v3.83h-1.01v-3.83Z"/>
  <path class="st5" d="M167.72,219.97c-.2-.2-.3-.49-.3-.89s.11-.66.34-.85.57-.28,1.02-.28h.96l.05.77h-1.01c-.15,0-.27.03-.34.09s-.11.15-.11.28.05.22.14.28.24.09.44.09c.27,0,.47-.03.6-.09s.2-.16.2-.29l.08.56c0,.14-.08.25-.19.35s-.25.17-.42.22-.35.07-.53.07c-.41,0-.72-.1-.92-.29v-.02ZM169.71,217.78c0-.18-.06-.31-.18-.41s-.29-.14-.5-.14c-.14,0-.28.02-.42.07s-.26.11-.37.2l-.63-.62c.15-.17.35-.31.6-.41s.53-.15.83-.15c.33,0,.62.06.86.17s.42.27.54.49c.12.21.19.47.19.77v2.46h-.92v-2.43h0ZM168.51,215.34l1.06-1.31.71.6-1.12,1.24-.64-.53h-.01Z"/>
  <path class="st5" d="M171.62,216.38h1.08v3.83h-1.08v-3.83ZM173.6,217.34c-.07-.02-.15-.04-.25-.04-.2,0-.36.07-.47.2-.11.13-.17.31-.17.55l-.08-1c.11-.23.24-.41.41-.53.17-.13.35-.19.56-.19.16,0,.3.03.43.08s.24.12.34.22l-.59.82s-.11-.09-.18-.11h0Z"/>
  <path class="st5" d="M175.86,220.27s-.13-.07-.39-.2c-.26-.13-.46-.33-.6-.59s-.21-.57-.21-.93v-.43c0-.38.07-.7.2-.97s.32-.47.58-.61c.25-.14.56-.21.91-.21.33,0,.62.08.86.25s.42.41.54.73.19.7.19,1.15v.25h-2.62v-.68h1.7v-.09c-.04-.22-.11-.39-.22-.51s-.26-.18-.45-.18c-.24,0-.43.07-.57.22-.13.14-.2.35-.2.62v.49c0,.26.07.46.22.61.15.14.35.21.61.21.14,0,.27-.02.4-.07.13-.05.25-.12.36-.2l.66.59c-.2.18-.42.32-.67.42-.25.1-.5.15-.75.15h-.55v-.02Z"/>
  <path class="st5" d="M181.61,217.24l-1.69,2.05h1.79v.92h-3v-.87l1.74-2.04h-1.69v-.92h2.85v.86h0Z"/>
  <path class="st5" d="M112.03,229.59c-.23-.59-.34-1.24-.34-1.95s.11-1.36.34-1.95c.23-.59.58-1.12,1.04-1.6l.59.73c-.33.38-.58.81-.75,1.27s-.25.98-.25,1.55.08,1.08.25,1.55.42.89.75,1.27l-.59.72c-.46-.47-.81-1.01-1.04-1.6h0Z"/>
  <path class="st5" d="M113.88,226.2h2.06v.86h-2.06v-.86ZM114.28,225.68c0-.34.08-.59.23-.76.16-.17.4-.25.72-.25h.7v.9h-.43c-.07,0-.13.03-.16.08-.04.05-.06.12-.06.21v4.17h-1.01v-4.35h.01Z"/>
  <path class="st5" d="M116.42,226.2h1.08v3.83h-1.08v-3.83ZM118.39,227.16c-.07-.02-.15-.04-.25-.04-.2,0-.36.07-.47.2-.11.13-.17.31-.17.55l-.08-1c.11-.23.24-.41.41-.53.17-.13.35-.19.56-.19.16,0,.3.03.43.08s.24.12.34.22l-.59.82s-.11-.09-.18-.11h0Z"/>
  <path class="st5" d="M120.66,230.09s-.13-.07-.39-.2c-.26-.13-.46-.33-.6-.59s-.21-.57-.21-.93v-.43c0-.38.07-.7.2-.97s.32-.47.58-.61c.25-.14.56-.21.91-.21.33,0,.62.08.86.25s.42.41.54.73.19.7.19,1.15v.25h-2.62v-.68h1.7v-.09c-.04-.22-.11-.39-.22-.51s-.26-.18-.45-.18c-.24,0-.43.07-.57.22-.13.14-.2.35-.2.62v.49c0,.26.07.46.22.61.15.14.35.21.61.21.14,0,.27-.02.4-.07.13-.05.25-.12.36-.2l.66.59c-.2.18-.42.32-.67.42-.25.1-.5.15-.75.15h-.55v-.02Z"/>
  <path class="st5" d="M123.62,226.2h1.01v3.83h-1.01v-3.83ZM125.83,227.71c0-.19-.05-.33-.16-.44-.11-.1-.26-.15-.46-.15s-.33.05-.43.16c-.1.1-.15.25-.15.44l-.08-.85c.12-.24.25-.42.41-.54s.36-.18.61-.18c.4,0,.72.14.94.41s.33.66.33,1.15v2.32h-1.01v-2.32h0Z"/>
  <path class="st5" d="M127.54,226.2h1.87v.86h-1.87v-.86ZM128.17,229.79c-.16-.17-.23-.42-.23-.76v-3.95h1.01v3.7c0,.09.02.17.06.22s.09.08.16.08h.25v.97h-.51c-.33,0-.58-.09-.74-.26h0Z"/>
  <path class="st5" d="M131.39,230.09s-.13-.07-.39-.2c-.26-.13-.46-.33-.6-.59s-.21-.57-.21-.93v-.43c0-.38.07-.7.2-.97s.32-.47.58-.61c.25-.14.56-.21.91-.21.33,0,.62.08.86.25s.42.41.54.73.19.7.19,1.15v.25h-2.62v-.68h1.7v-.09c-.04-.22-.11-.39-.22-.51s-.26-.18-.45-.18c-.24,0-.43.07-.57.22-.13.14-.2.35-.2.62v.49c0,.26.07.46.22.61.15.14.35.21.61.21.14,0,.27-.02.4-.07.13-.05.25-.12.36-.2l.66.59c-.2.18-.42.32-.67.42-.25.1-.5.15-.75.15h-.55v-.02Z"/>
  <path class="st5" d="M136.5,229.79c-.2-.2-.3-.49-.3-.89s.11-.66.34-.85.57-.28,1.02-.28h.96l.05.77h-1.01c-.15,0-.27.03-.34.09s-.11.15-.11.28.05.22.14.28.24.09.44.09c.27,0,.47-.03.6-.09s.2-.16.2-.29l.08.56c0,.14-.08.25-.19.35s-.25.17-.42.22-.35.07-.53.07c-.41,0-.72-.1-.92-.29v-.02ZM138.49,227.61c0-.18-.06-.31-.18-.41s-.29-.14-.5-.14c-.14,0-.28.02-.42.07s-.26.11-.37.2l-.63-.62c.15-.17.35-.31.6-.41s.53-.15.83-.15c.33,0,.62.06.86.17s.42.27.54.49c.12.21.19.47.19.77v2.46h-.92v-2.43h0Z"/>
  <path class="st5" d="M143.5,230.09l-.39-.21c-.26-.14-.46-.34-.59-.61-.14-.27-.2-.58-.2-.96v-.41c0-.37.07-.69.2-.95s.33-.46.59-.6.57-.21.93-.21c.21,0,.41.02.59.07s.35.12.5.21c.15.09.27.2.37.33l-.65.63c-.09-.09-.2-.15-.33-.2s-.26-.07-.39-.07c-.26,0-.45.07-.59.2-.14.14-.21.33-.21.58v.41c0,.26.07.45.21.59s.34.21.59.21c.14,0,.27-.03.4-.08.13-.05.23-.13.32-.22l.65.67c-.1.13-.23.24-.37.33-.15.09-.31.16-.5.2-.18.05-.38.07-.59.07h-.55v.02Z"/>
  <path class="st5" d="M146.31,229.79c-.2-.2-.3-.49-.3-.89s.11-.66.34-.85.57-.28,1.02-.28h.96l.05.77h-1.01c-.15,0-.27.03-.34.09s-.11.15-.11.28.05.22.14.28.24.09.44.09c.27,0,.47-.03.6-.09s.2-.16.2-.29l.08.56c0,.14-.08.25-.19.35s-.25.17-.42.22-.35.07-.53.07c-.41,0-.72-.1-.92-.29v-.02ZM148.3,227.61c0-.18-.06-.31-.18-.41s-.29-.14-.5-.14c-.14,0-.28.02-.42.07s-.26.11-.37.2l-.63-.62c.15-.17.35-.31.6-.41s.53-.15.83-.15c.33,0,.62.06.86.17s.42.27.54.49c.12.21.19.47.19.77v2.46h-.92v-2.43h0Z"/>
  <path class="st5" d="M150.21,226.2h1.01v3.83h-1.01v-3.83ZM152.43,227.71c0-.19-.05-.33-.16-.44-.11-.1-.26-.15-.46-.15s-.33.05-.43.16c-.1.1-.15.25-.15.44l-.08-.85c.12-.24.25-.42.41-.54s.36-.18.61-.18c.4,0,.72.14.94.41s.33.66.33,1.15v2.32h-1.01v-2.32h0Z"/>
  <path class="st5" d="M155.51,230.09l-.39-.21c-.26-.14-.46-.34-.59-.61-.14-.27-.2-.58-.2-.96v-.41c0-.37.07-.69.2-.95s.33-.46.59-.6.57-.21.93-.21c.21,0,.41.02.59.07s.35.12.5.21c.15.09.27.2.37.33l-.65.63c-.09-.09-.2-.15-.33-.2s-.26-.07-.39-.07c-.26,0-.45.07-.59.2-.14.14-.21.33-.21.58v.41c0,.26.07.45.21.59s.34.21.59.21c.14,0,.27-.03.4-.08.13-.05.23-.13.32-.22l.65.67c-.1.13-.23.24-.37.33-.15.09-.31.16-.5.2-.18.05-.38.07-.59.07h-.55v.02Z"/>
  <path class="st5" d="M158.2,224.67h1.01v5.36h-1.01v-5.36ZM160.41,227.71c0-.19-.05-.33-.16-.44-.11-.1-.26-.15-.46-.15s-.33.05-.43.16c-.1.1-.15.25-.15.44l-.08-.85c.12-.24.25-.42.41-.54s.36-.18.61-.18c.4,0,.72.14.94.41s.33.66.33,1.15v2.32h-1.01v-2.32h0Z"/>
  <path class="st5" d="M162.53,229.79c-.2-.2-.3-.49-.3-.89s.11-.66.34-.85.57-.28,1.02-.28h.96l.05.77h-1.01c-.15,0-.27.03-.34.09s-.11.15-.11.28.05.22.14.28.24.09.44.09c.27,0,.47-.03.6-.09s.2-.16.2-.29l.08.56c0,.14-.08.25-.19.35s-.25.17-.42.22-.35.07-.53.07c-.41,0-.72-.1-.92-.29v-.02ZM164.52,227.61c0-.18-.06-.31-.18-.41s-.29-.14-.5-.14c-.14,0-.28.02-.42.07s-.26.11-.37.2l-.63-.62c.15-.17.35-.31.6-.41s.53-.15.83-.15c.33,0,.62.06.86.17s.42.27.54.49c.12.21.19.47.19.77v2.46h-.92v-2.43h0Z"/>
  <path class="st5" d="M167.56,230.09s-.11-.02-.32-.06c-.22-.04-.42-.1-.61-.18-.19-.08-.36-.17-.5-.28l.62-.78c.18.12.38.21.58.27s.39.1.58.1c.24,0,.42-.03.55-.08s.2-.13.2-.22-.03-.15-.08-.2-.13-.08-.22-.09c-.09-.02-.21-.04-.37-.05-.04,0-.09,0-.13-.02-.05,0-.09,0-.14-.02h-.06c-.29-.04-.51-.08-.69-.14-.17-.05-.32-.16-.44-.31s-.18-.38-.18-.67c0-.26.06-.47.18-.66s.3-.32.54-.41.52-.14.85-.14c.19,0,.39.02.58.06s.38.1.56.17c.18.07.34.16.49.27l-.6.73c-.17-.09-.34-.17-.52-.22-.18-.05-.36-.08-.52-.08-.2,0-.36.02-.48.07-.11.05-.17.11-.17.2,0,.06.03.11.09.15s.14.06.22.08c.09.02.22.03.39.05h.07s.04,0,.07,0h.06c.3.03.54.08.73.13s.35.16.48.32c.13.16.2.4.2.72,0,.27-.06.49-.19.68-.13.19-.31.33-.56.43-.25.1-.54.15-.89.15h-.34l-.03.02Z"/>
  <path class="st5" d="M172.86,229.89c-.19-.13-.34-.32-.44-.57s-.15-.55-.15-.89v-.61c0-.35.05-.65.15-.9.1-.25.25-.44.44-.57s.42-.2.7-.2c.2,0,.39.06.56.18s.3.29.41.52l-.08.85c0-.13-.02-.24-.07-.33-.04-.09-.11-.16-.19-.21s-.19-.07-.31-.07c-.19,0-.34.06-.44.19s-.16.31-.16.54v.61c0,.23.05.41.16.53.1.13.25.19.44.19.12,0,.22-.02.31-.07.08-.05.15-.11.19-.2s.07-.2.07-.32l.05.87c-.08.21-.2.37-.36.49-.16.11-.36.17-.58.17-.27,0-.5-.06-.7-.2h0ZM174.45,224.67h1.01v5.36h-1.01v-5.36Z"/>
  <path class="st5" d="M177.54,230.09s-.13-.07-.39-.2c-.26-.13-.46-.33-.6-.59s-.21-.57-.21-.93v-.43c0-.38.07-.7.2-.97s.32-.47.58-.61c.25-.14.56-.21.91-.21.33,0,.62.08.86.25s.42.41.54.73.19.7.19,1.15v.25h-2.62v-.68h1.7v-.09c-.04-.22-.11-.39-.22-.51s-.26-.18-.45-.18c-.24,0-.43.07-.57.22-.13.14-.2.35-.2.62v.49c0,.26.07.46.22.61.15.14.35.21.61.21.14,0,.27-.02.4-.07.13-.05.25-.12.36-.2l.66.59c-.2.18-.42.32-.67.42-.25.1-.5.15-.75.15h-.55v-.02Z"/>
  <path class="st5" d="M182.24,226.2h2.06v.86h-2.06v-.86ZM182.64,225.68c0-.34.08-.59.23-.76.16-.17.4-.25.72-.25h.7v.9h-.43c-.07,0-.13.03-.16.08-.04.05-.06.12-.06.21v4.17h-1.01v-4.35h0Z"/>
  <path class="st5" d="M185.79,228.53c0,.18.05.33.16.43.1.1.25.15.44.15s.34-.05.44-.16c.1-.1.15-.25.15-.45l.05.84c-.07.21-.19.38-.36.53-.17.14-.37.21-.61.21-.41,0-.73-.13-.95-.4-.22-.26-.34-.64-.34-1.12v-2.36h1.01v2.33h0ZM185.8,225.16l1.06-1.31.71.6-1.12,1.24-.64-.53h-.01ZM186.98,226.2h1.01v3.83h-1.01v-3.83Z"/>
  <path class="st5" d="M188.69,226.2h1.87v.86h-1.87v-.86ZM189.31,229.79c-.16-.17-.23-.42-.23-.76v-3.95h1.01v3.7c0,.09.02.17.06.22s.09.08.16.08h.25v.97h-.51c-.33,0-.58-.09-.74-.26h0Z"/>
  <path class="st5" d="M191.44,224.67h1.01v5.36h-1.01v-5.36ZM192.77,229.92c-.16-.11-.28-.28-.36-.49l.05-.87c0,.13.02.23.07.32s.11.16.19.2.19.07.31.07c.19,0,.34-.06.44-.19.1-.12.16-.3.16-.53v-.61c0-.23-.05-.41-.16-.54-.1-.13-.25-.19-.44-.19-.12,0-.22.02-.31.07-.08.05-.15.12-.19.21-.04.09-.07.2-.07.33l-.08-.85c.1-.22.24-.4.41-.52s.35-.18.56-.18c.27,0,.5.07.7.2.19.13.34.32.44.57s.15.55.15.9v.61c0,.35-.05.65-.15.89-.1.25-.25.44-.44.57s-.42.2-.7.2c-.22,0-.42-.06-.58-.17h0Z"/>
  <path class="st5" d="M196.2,229.89c-.25-.13-.44-.32-.56-.57-.13-.25-.19-.55-.19-.9v-.62c0-.35.06-.64.19-.89s.32-.44.56-.56c.25-.13.55-.19.89-.19s.65.06.89.19c.25.13.44.32.56.56.13.25.19.54.19.89v.63c0,.35-.06.65-.19.89s-.32.44-.56.57c-.25.13-.55.2-.89.2s-.65-.06-.89-.2h0ZM197.57,228.93c.11-.12.17-.29.17-.5v-.63c0-.21-.06-.38-.17-.5s-.27-.18-.48-.18-.36.06-.47.18-.17.28-.17.5v.63c0,.22.06.38.17.5s.27.18.47.18.36-.06.48-.18Z"/>
  <path class="st5" d="M200.68,228.77c0,.09.03.17.08.22s.13.08.23.08h.17v.97h-.52c-.31,0-.55-.09-.72-.27s-.25-.43-.25-.75v-4.35h1.01v4.1h0Z"/>
  <path class="st5" d="M112.09,239.71c-.19-.13-.34-.32-.44-.57-.1-.25-.15-.55-.15-.89v-.61c0-.35.05-.65.15-.9s.25-.44.44-.57.42-.2.7-.2c.2,0,.39.06.56.18s.3.29.41.52l-.08.85c0-.13-.02-.24-.07-.33-.04-.09-.11-.16-.19-.21s-.19-.07-.31-.07c-.19,0-.34.06-.44.19-.1.13-.16.31-.16.54v.61c0,.23.05.41.16.53.1.13.25.19.44.19.12,0,.22-.02.31-.07.08-.05.15-.11.19-.2s.07-.2.07-.32l.05.87c-.08.21-.2.37-.36.49-.16.11-.36.17-.58.17-.27,0-.5-.06-.7-.2h0ZM113.67,234.49h1.01v5.36h-1.01v-5.36Z"/>
  <path class="st5" d="M116.77,239.91s-.13-.07-.39-.2c-.26-.13-.46-.33-.6-.59s-.21-.57-.21-.93v-.43c0-.38.07-.7.2-.97s.32-.47.58-.61c.25-.14.56-.21.91-.21.33,0,.62.08.86.25s.42.41.54.73.19.7.19,1.15v.25h-2.62v-.68h1.7v-.09c-.04-.22-.11-.39-.22-.51s-.26-.18-.45-.18c-.24,0-.43.07-.57.22-.13.14-.2.35-.2.62v.49c0,.26.07.46.22.61.15.14.35.21.61.21.14,0,.27-.02.4-.07.13-.05.25-.12.36-.2l.66.59c-.2.18-.42.32-.67.42-.25.1-.5.15-.75.15h-.55v-.02Z"/>
  <path class="st5" d="M120.74,238.59c0,.09.03.17.08.22s.13.08.23.08h.17v.97h-.52c-.31,0-.55-.09-.72-.27s-.25-.43-.25-.75v-4.35h1.01s0,4.1,0,4.1Z"/>
  <path class="st5" d="M125.02,239.91l-.39-.21c-.26-.14-.46-.34-.59-.61-.14-.27-.2-.58-.2-.96v-.41c0-.37.07-.69.2-.95s.33-.46.59-.6c.26-.14.57-.21.93-.21.21,0,.41.02.59.07s.35.12.5.21c.15.09.27.2.37.33l-.65.63c-.09-.09-.2-.15-.33-.2-.13-.05-.26-.07-.39-.07-.26,0-.45.07-.59.2-.14.14-.21.33-.21.58v.41c0,.26.07.45.21.59s.34.21.59.21c.14,0,.27-.03.4-.08.13-.05.23-.13.32-.22l.65.67c-.1.13-.23.24-.37.33-.15.09-.31.16-.5.2-.18.05-.38.07-.59.07h-.55v.02Z"/>
  <path class="st5" d="M128.8,239.91s-.13-.07-.39-.2c-.26-.13-.46-.33-.6-.59s-.21-.57-.21-.93v-.43c0-.38.07-.7.2-.97s.32-.47.58-.61c.25-.14.56-.21.91-.21.33,0,.62.08.86.25s.42.41.54.73.19.7.19,1.15v.25h-2.62v-.68h1.7v-.09c-.04-.22-.11-.39-.22-.51s-.26-.18-.45-.18c-.24,0-.43.07-.57.22-.13.14-.2.35-.2.62v.49c0,.26.07.46.22.61.15.14.35.21.61.21.14,0,.27-.02.4-.07.13-.05.25-.12.36-.2l.66.59c-.2.18-.42.32-.67.42-.25.1-.5.15-.75.15h-.55v-.02Z"/>
  <path class="st5" d="M131.76,236.02h1.01v3.83h-1.01v-3.83ZM133.97,237.53c0-.19-.05-.33-.16-.44-.11-.1-.26-.15-.46-.15s-.33.05-.43.16c-.1.1-.15.25-.15.44l-.08-.85c.12-.24.25-.42.41-.54s.36-.18.61-.18c.4,0,.72.14.94.41s.33.66.33,1.15v2.32h-1.01v-2.32h0Z"/>
  <path class="st5" d="M135.68,236.02h1.87v.86h-1.87v-.86ZM136.31,239.61c-.16-.17-.23-.42-.23-.76v-3.95h1.01v3.7c0,.09.02.17.06.22s.09.08.16.08h.25v.97h-.51c-.33,0-.58-.09-.74-.26h0Z"/>
  <path class="st5" d="M138.44,236.02h1.08v3.83h-1.08v-3.83ZM140.42,236.98c-.07-.02-.15-.04-.25-.04-.2,0-.36.07-.47.2-.11.13-.17.31-.17.55l-.08-1c.11-.23.24-.41.41-.53.17-.13.35-.19.56-.19.16,0,.3.03.43.08s.24.12.34.22l-.59.82s-.11-.09-.18-.11h0Z"/>
  <path class="st5" d="M142.24,239.71c-.25-.13-.44-.32-.56-.57-.13-.25-.19-.55-.19-.9v-.62c0-.35.06-.64.19-.89s.32-.44.56-.56c.25-.13.55-.19.89-.19s.65.06.89.19c.25.13.44.32.56.56.13.25.19.54.19.89v.63c0,.35-.06.65-.19.89s-.32.44-.56.57c-.25.13-.55.2-.89.2s-.65-.06-.89-.2h0ZM143.61,238.76c.11-.12.17-.29.17-.5v-.63c0-.21-.06-.38-.17-.5s-.27-.18-.48-.18-.36.06-.47.18-.17.28-.17.5v.63c0,.22.06.38.17.5s.27.18.47.18.36-.06.48-.18Z"/>
  <path class="st5" d="M148.81,239.91l-.39-.21c-.26-.14-.46-.34-.59-.61-.14-.27-.2-.58-.2-.96v-.41c0-.37.07-.69.2-.95s.33-.46.59-.6.57-.21.93-.21c.21,0,.41.02.59.07s.35.12.5.21c.15.09.27.2.37.33l-.65.63c-.09-.09-.2-.15-.33-.2s-.26-.07-.39-.07c-.26,0-.45.07-.59.2-.14.14-.21.33-.21.58v.41c0,.26.07.45.21.59s.34.21.59.21c.14,0,.27-.03.4-.08.13-.05.23-.13.32-.22l.65.67c-.1.13-.23.24-.37.33-.15.09-.31.16-.5.2-.18.05-.38.07-.59.07h-.55v.02Z"/>
  <path class="st5" d="M151.38,234.98l1.06-1.31.71.6-1.13,1.24-.64-.53h0ZM151.45,236.02h1.01v3.83h-1.01v-3.83Z"/>
  <path class="st5" d="M155.58,236.02h1.01l-1.44,3.83h-.72l-1.44-3.83h1.01l.79,2.4.79-2.4h0Z"/>
  <path class="st5" d="M157.12,234.49h1.01v1.01h-1.01v-1.01ZM157.12,236.02h1.01v3.83h-1.01v-3.83Z"/>
  <path class="st5" d="M160.14,239.91l-.39-.21c-.26-.14-.46-.34-.59-.61-.14-.27-.2-.58-.2-.96v-.41c0-.37.07-.69.2-.95s.33-.46.59-.6.57-.21.93-.21c.21,0,.41.02.59.07s.35.12.5.21c.15.09.27.2.37.33l-.65.63c-.09-.09-.2-.15-.33-.2s-.26-.07-.39-.07c-.26,0-.45.07-.59.2-.14.14-.21.33-.21.58v.41c0,.26.07.45.21.59s.34.21.59.21c.14,0,.27-.03.4-.08.13-.05.23-.13.32-.22l.65.67c-.1.13-.23.24-.37.33-.15.09-.31.16-.5.2-.18.05-.38.07-.59.07h-.55v.02Z"/>
  <path class="st5" d="M163.48,239.71c-.25-.13-.44-.32-.56-.57-.13-.25-.19-.55-.19-.9v-.62c0-.35.06-.64.19-.89s.32-.44.56-.56c.25-.13.55-.19.89-.19s.65.06.89.19c.25.13.44.32.56.56.13.25.19.54.19.89v.63c0,.35-.06.65-.19.89s-.32.44-.56.57c-.25.13-.55.2-.89.2s-.65-.06-.89-.2h0ZM164.85,238.76c.11-.12.17-.29.17-.5v-.63c0-.21-.06-.38-.17-.5s-.27-.18-.48-.18-.36.06-.47.18-.17.28-.17.5v.63c0,.22.06.38.17.5s.27.18.47.18.36-.06.48-.18Z"/>
  <path class="st5" d="M166.43,240.28c.33-.38.58-.81.75-1.27.17-.47.25-.98.25-1.55s-.08-1.08-.25-1.55-.42-.89-.75-1.27l.59-.73c.46.47.81,1.01,1.04,1.6s.34,1.24.34,1.95-.11,1.36-.34,1.95-.58,1.12-1.04,1.6l-.59-.72h0Z"/>
  <path class="st5" d="M169.35,238.84h1.01v1.01h-1.01v-1.01Z"/>
  <path class="st13" d="M103.59,202.29c2.27-.14,4.21,2.03,3.81,4.27-.58,2.48-2.15,4.61-3.64,6.62-1.52-2.08-3.19-4.27-3.67-6.85-.24-2.05,1.45-3.98,3.51-4.05h-.01ZM103.8,204.17c-2.39,0-2.45,3.54-.08,3.62,2.38,0,2.44-3.53.08-3.62Z"/>
  <path class="st13" d="M103.19,192.52c.23.14.42.32.55.55.13.23.23.49.29.77.06.29.09.59.09.91s-.03.62-.09.91c-.06.28-.15.54-.29.77-.13.23-.32.41-.55.55-.24.14-.52.2-.85.2s-.62-.07-.85-.2c-.24-.14-.42-.32-.55-.55-.13-.23-.23-.49-.29-.77s-.09-.59-.09-.91.03-.63.09-.91.16-.55.29-.77c.14-.23.32-.41.55-.55s.51-.2.85-.2.62.07.85.2ZM102.08,193.64c-.07.1-.11.21-.14.36-.03.14-.05.28-.06.41,0,.13-.01.25-.01.35s0,.21.01.35c0,.13.03.27.06.41s.08.26.14.36.15.14.25.14.19-.05.25-.14c.07-.1.11-.21.14-.36s.05-.28.06-.41c0-.13.01-.25.01-.35s0-.21-.01-.35c0-.13-.03-.27-.06-.41s-.08-.26-.14-.36-.15-.14-.25-.14-.19.05-.25.14Z"/>
  <path class="st13" d="M105.99,192.41v.57h.02c.13-.22.28-.39.45-.51.17-.13.38-.2.62-.23v1.27c-.09,0-.15-.02-.2-.02-.21,0-.38.03-.5.1s-.21.15-.26.26c-.06.11-.09.23-.1.37-.01.13-.02.31-.02.54v2.34h-1.31v-4.68h1.31-.01Z"/>
  <path class="st13" d="M109.67,196.56h-.02c-.09.19-.21.34-.35.45s-.31.17-.51.17c-.25,0-.46-.08-.63-.25s-.3-.38-.39-.64-.16-.52-.19-.79-.06-.52-.06-.75c0-.25.02-.5.05-.77.03-.27.09-.53.18-.78s.22-.46.38-.63.38-.25.64-.25c.21,0,.39.06.54.18s.26.28.34.49h.02v-.58h1.31v4.68h-1.31v-.53h0ZM109.55,195.84c.06-.1.11-.22.14-.36s.05-.28.06-.41c0-.13.01-.24.01-.34s0-.21-.01-.34c0-.13-.03-.26-.06-.4s-.08-.26-.14-.36-.15-.15-.25-.15-.18.05-.25.14c-.07.1-.11.21-.14.36-.03.14-.05.28-.06.4,0,.13-.01.24-.01.35,0,.13,0,.26.01.38,0,.12.03.25.06.39s.08.25.15.35.15.14.26.14c.1,0,.18-.05.24-.15h-.01Z"/>
  <path class="st13" d="M112.93,192.41v.57h.02c.13-.22.28-.39.45-.51.17-.13.38-.2.62-.23v1.27c-.09,0-.15-.02-.2-.02-.21,0-.38.03-.5.1s-.21.15-.26.26c-.06.11-.09.23-.1.37-.01.13-.02.31-.02.54v2.34h-1.31v-4.68h1.31-.01Z"/>
  <path class="st13" d="M114.6,191.6c-.16-.17-.24-.36-.24-.59s.08-.43.25-.59c.16-.16.37-.24.61-.24.22,0,.41.08.57.25s.24.37.24.59-.08.42-.25.58c-.16.16-.36.25-.59.25s-.42-.08-.58-.25h-.01ZM115.84,192.41v4.68h-1.31v-4.68h1.31Z"/>
  <path class="st13" d="M119.03,192.52c.23.14.42.32.55.55.13.23.23.49.29.77.06.29.09.59.09.91s-.03.62-.09.91c-.06.28-.15.54-.29.77-.13.23-.32.41-.55.55-.24.14-.52.2-.85.2s-.62-.07-.85-.2c-.24-.14-.42-.32-.55-.55-.13-.23-.23-.49-.29-.77s-.09-.59-.09-.91.03-.63.09-.91.16-.55.29-.77c.14-.23.32-.41.55-.55s.51-.2.85-.2.62.07.85.2ZM117.92,193.64c-.07.1-.11.21-.14.36-.03.14-.05.28-.06.41,0,.13-.01.25-.01.35s0,.21.01.35c0,.13.03.27.06.41s.08.26.14.36.15.14.25.14.19-.05.25-.14c.07-.1.11-.21.14-.36s.05-.28.06-.41c0-.13.01-.25.01-.35s0-.21-.01-.35c0-.13-.03-.27-.06-.41s-.08-.26-.14-.36-.15-.14-.25-.14-.19.05-.25.14Z"/>
  <path class="st13" d="M121.95,192.58c.17.17.26.38.26.62s-.09.45-.26.62-.38.26-.63.26-.46-.09-.63-.26-.25-.38-.25-.62.08-.45.25-.62.38-.26.63-.26.46.09.63.26ZM121.95,195.7c.17.17.26.38.26.62s-.09.45-.26.62-.38.26-.63.26-.46-.09-.63-.26-.25-.38-.25-.62.08-.45.25-.62.38-.26.63-.26.46.09.63.26Z"/>
  <path class="st13" d="M126.18,192.41l.62,2.57v.07h.03l.1-.48.51-2.16h1.35l-1.35,4.68h-1.21l-1.34-4.68h1.3-.01Z"/>
  <path class="st13" d="M129.31,191.6c-.16-.17-.24-.36-.24-.59s.08-.43.25-.59c.16-.16.37-.24.61-.24.22,0,.41.08.57.25s.24.37.24.59-.08.42-.25.58c-.16.16-.36.25-.59.25s-.42-.08-.58-.25h-.01ZM130.56,192.41v4.68h-1.31v-4.68h1.31Z"/>
  <path class="st13" d="M134.44,195.1h-2.07v.06c0,.14,0,.26.02.36,0,.1.03.2.06.3s.08.19.15.26.15.1.26.1c.15,0,.26-.05.32-.15.06-.1.09-.23.09-.39h1.11c-.06.47-.21.84-.45,1.12-.24.28-.58.42-1.03.42-.32,0-.59-.06-.82-.19s-.42-.31-.57-.53c-.15-.22-.25-.47-.31-.75-.07-.28-.1-.56-.1-.87s.03-.6.09-.89.16-.57.3-.82.32-.45.55-.6c.23-.15.51-.22.83-.22.44,0,.81.18,1.13.55.31.37.47.87.47,1.51v.18l-.03.54h0ZM133.34,194.18c0-.09,0-.19-.02-.28,0-.1-.04-.19-.07-.28-.03-.09-.08-.16-.14-.22s-.14-.08-.24-.08c-.09,0-.17.03-.24.08-.06.06-.11.13-.15.21-.03.09-.06.18-.07.27s-.02.18-.02.27v.14h.96v-.11h0Z"/>
  <path class="st13" d="M136.34,192.41v.57h.02c.13-.22.28-.39.45-.51.17-.13.38-.2.62-.23v1.27c-.09,0-.15-.02-.2-.02-.21,0-.38.03-.5.1s-.21.15-.26.26c-.06.11-.09.23-.1.37,0,.13-.02.31-.02.54v2.34h-1.31v-4.68h1.31,0Z"/>
  <path class="st13" d="M139.26,193.13h.02c.09-.24.24-.43.43-.58.19-.15.41-.23.65-.23.2,0,.36.04.48.13.12.09.21.21.26.36.06.15.09.33.11.52s.03.44.03.74v3.02h-1.31v-2.88c0-.17-.02-.31-.07-.42s-.13-.16-.26-.16-.22.05-.27.16-.08.23-.08.38v2.92h-1.31v-4.68h1.31v.72h.01Z"/>
  <path class="st13" d="M145.13,195.1h-2.07v.06c0,.14,0,.26.02.36,0,.1.03.2.06.3s.08.19.15.26.15.1.26.1c.15,0,.26-.05.32-.15.06-.1.09-.23.09-.39h1.11c-.06.47-.21.84-.45,1.12-.24.28-.58.42-1.03.42-.32,0-.59-.06-.82-.19s-.42-.31-.57-.53c-.15-.22-.25-.47-.31-.75-.07-.28-.1-.56-.1-.87s.03-.6.09-.89.16-.57.3-.82.32-.45.55-.6c.23-.15.51-.22.83-.22.44,0,.81.18,1.13.55.31.37.47.87.47,1.51v.18l-.03.54h0ZM144.03,194.18c0-.09,0-.19-.02-.28,0-.1-.04-.19-.07-.28-.03-.09-.08-.16-.14-.22s-.14-.08-.24-.08c-.09,0-.17.03-.24.08-.06.06-.11.13-.15.21-.03.09-.06.18-.07.27s-.02.18-.02.27v.14h.96v-.11h0Z"/>
  <path class="st13" d="M148.08,193.67c-.11-.1-.21-.17-.31-.23-.09-.05-.2-.08-.32-.08-.23,0-.35.11-.35.34,0,.09.05.17.12.24.08.06.2.14.38.23.15.07.27.14.38.21.1.06.2.15.3.25s.17.23.23.38c.06.15.09.33.09.53,0,.48-.13.87-.4,1.18-.27.31-.63.46-1.1.46-.25,0-.49-.05-.74-.14-.25-.1-.47-.23-.67-.39l.57-.93c.12.1.23.17.32.23.1.05.21.08.32.08s.19-.04.27-.11c.07-.07.11-.17.11-.28s-.04-.2-.12-.27-.21-.15-.39-.25c-.15-.09-.28-.16-.38-.23s-.19-.15-.29-.26c-.09-.1-.17-.24-.23-.39-.06-.16-.09-.34-.09-.55,0-.43.15-.76.45-1.01.3-.24.67-.37,1.11-.37.47,0,.89.13,1.25.4l-.53.95h.02Z"/>
  <path class="st13" d="M152.64,193.31c-.3-.11-.54-.29-.7-.56-.17-.27-.25-.57-.25-.91,0-.53.16-.96.49-1.32.32-.35.75-.53,1.27-.53s.94.18,1.26.53c.32.35.48.79.48,1.32,0,.34-.08.64-.25.91-.16.27-.4.46-.71.57h0c.42.15.73.37.92.69s.29.71.29,1.17c0,.28-.05.55-.15.8-.1.25-.24.46-.42.64s-.39.32-.64.43-.51.15-.8.15-.56-.05-.81-.15-.46-.24-.64-.43c-.18-.18-.32-.4-.42-.64s-.15-.51-.15-.8c0-.47.1-.86.29-1.18s.5-.54.92-.68v-.02h.02ZM153.14,194.1c-.08.07-.14.15-.18.26-.04.1-.07.21-.09.32-.02.11-.03.22-.03.33,0,.1,0,.21.03.32s.05.22.09.32.1.19.18.25c.08.06.17.1.28.1s.21-.03.28-.1c.08-.06.14-.15.19-.26s.08-.22.1-.32.03-.21.03-.31,0-.21-.03-.32-.06-.22-.1-.33c-.05-.1-.11-.19-.19-.26s-.17-.1-.28-.1-.21.03-.28.1h0ZM153.05,192.07c0,.09.03.17.05.26.02.08.06.15.12.2.05.05.12.08.2.08.1,0,.18-.03.24-.08.06-.05.1-.12.13-.2s.04-.16.05-.24v-.26c0-.08,0-.16,0-.24,0-.08-.03-.16-.06-.24s-.07-.14-.13-.19-.13-.07-.22-.07c-.08,0-.15.02-.19.07-.05.05-.09.11-.12.19s-.05.16-.06.24c0,.08,0,.16,0,.23,0,.09,0,.17,0,.26h0Z"/>
  <path class="st13" d="M157.46,192.58c.17.17.26.38.26.62s-.09.45-.26.62-.38.26-.63.26-.46-.09-.63-.26-.25-.38-.25-.62.08-.45.25-.62.38-.26.63-.26.46.09.63.26ZM157.46,195.7c.17.17.26.38.26.62s-.09.45-.26.62-.38.26-.63.26-.46-.09-.63-.26-.25-.38-.25-.62.08-.45.25-.62.38-.26.63-.26.46.09.63.26Z"/>
  <path class="st13" d="M161.23,190.35c.26.24.47.55.61.93.14.38.24.76.29,1.16.05.4.08.78.08,1.15s-.03.76-.08,1.15c-.05.4-.15.79-.29,1.16s-.34.69-.61.93-.59.36-.99.36-.73-.12-.99-.36-.47-.55-.61-.93-.24-.76-.29-1.16c-.05-.4-.08-.78-.08-1.15s.03-.76.08-1.15c.05-.4.15-.79.29-1.16.14-.38.34-.69.61-.93s.59-.36.99-.36.72.12.99.36ZM159.92,191.46c-.08.14-.15.32-.19.56-.04.23-.07.48-.08.73,0,.26-.02.54-.02.85s0,.59.02.85.04.5.08.73c.04.23.11.42.19.56s.19.21.33.21.25-.07.33-.21c.09-.14.15-.32.19-.56.04-.23.07-.48.08-.73s.02-.54.02-.85,0-.59-.02-.85c0-.26-.04-.5-.08-.73-.04-.23-.1-.42-.19-.56s-.2-.21-.33-.21-.25.07-.33.21Z"/>
  <path class="st13" d="M165.78,190.35c.26.24.47.55.61.93.14.38.24.76.29,1.16.05.4.08.78.08,1.15s-.03.76-.08,1.15c-.05.4-.15.79-.29,1.16s-.34.69-.61.93-.59.36-.99.36-.73-.12-.99-.36-.47-.55-.61-.93-.24-.76-.29-1.16c-.05-.4-.08-.78-.08-1.15s.03-.76.08-1.15c.05-.4.15-.79.29-1.16.14-.38.34-.69.61-.93s.59-.36.99-.36.72.12.99.36ZM164.46,191.46c-.08.14-.15.32-.19.56-.04.23-.07.48-.08.73,0,.26-.02.54-.02.85s0,.59.02.85.04.5.08.73c.04.23.11.42.19.56s.19.21.33.21.25-.07.33-.21c.09-.14.15-.32.19-.56.04-.23.07-.48.08-.73s.02-.54.02-.85,0-.59-.02-.85c0-.26-.04-.5-.08-.73-.04-.23-.1-.42-.19-.56s-.2-.21-.33-.21-.25.07-.33.21Z"/>
  <path class="st13" d="M171.73,196.56h-.02c-.09.19-.21.34-.35.45s-.31.17-.51.17c-.25,0-.46-.08-.63-.25s-.3-.38-.39-.64-.16-.52-.19-.79-.06-.52-.06-.75c0-.25.02-.5.05-.77s.09-.53.18-.78.22-.46.38-.63.38-.25.64-.25c.21,0,.39.06.54.18s.26.28.34.49h.02v-.58h1.31v4.68h-1.31v-.53h0ZM171.61,195.84c.06-.1.11-.22.14-.36s.05-.28.06-.41c0-.13,0-.24,0-.34s0-.21,0-.34c0-.13-.03-.26-.06-.4s-.08-.26-.14-.36-.15-.15-.25-.15-.18.05-.25.14c-.07.1-.11.21-.14.36-.03.14-.05.28-.06.4,0,.13,0,.24,0,.35,0,.13,0,.26,0,.38,0,.12.03.25.06.39s.08.25.15.35.15.14.26.14c.1,0,.18-.05.24-.15h0Z"/>
  <path class="st13" d="M174.99,193.16h.02c.12-.25.28-.46.47-.61s.42-.23.68-.23c.23,0,.41.08.55.23s.22.34.26.57h.02c.12-.23.28-.42.47-.57.2-.15.41-.23.65-.23.2,0,.36.05.47.14s.2.22.25.38c.05.15.08.31.1.46,0,.15.02.34.02.56v3.24h-1.31v-2.54c0-.32-.02-.55-.06-.7s-.13-.23-.26-.23-.23.05-.28.16-.07.23-.07.37v2.94h-1.31v-2.87c0-.17-.02-.31-.06-.42s-.13-.17-.25-.17c-.14,0-.24.05-.29.15-.05.1-.08.23-.08.38v2.91h-1.31v-4.68h1.31v.75h0Z"/>
  <path class="st13" d="M183.94,196.56h-.02c-.09.19-.21.34-.35.45s-.31.17-.51.17c-.25,0-.46-.08-.63-.25s-.3-.38-.39-.64-.16-.52-.19-.79-.06-.52-.06-.75c0-.25.02-.5.05-.77s.09-.53.18-.78.22-.46.38-.63.38-.25.64-.25c.21,0,.39.06.54.18s.26.28.34.49h.02v-.58h1.31v4.68h-1.31v-.53h0ZM183.82,195.84c.06-.1.11-.22.14-.36s.05-.28.06-.41c0-.13,0-.24,0-.34s0-.21,0-.34c0-.13-.03-.26-.06-.4s-.08-.26-.14-.36-.15-.15-.25-.15-.18.05-.25.14c-.07.1-.11.21-.14.36-.03.14-.05.28-.06.4,0,.13,0,.24,0,.35,0,.13,0,.26,0,.38,0,.12.03.25.06.39s.08.25.15.35.15.14.26.14c.1,0,.18-.05.24-.15h0Z"/>
  <path class="st13" d="M188.32,192.53l-.02-.38c0-.35.03-.65.08-.91.06-.26.15-.48.29-.67s.32-.33.57-.44.54-.15.89-.15c.59,0,1.06.15,1.39.45s.5.75.5,1.34c0,.33-.05.63-.14.92-.1.29-.24.61-.43.98l-1.17,2.22h1.62v1.21h-3.67l1.58-2.89.06-.11c.12-.22.23-.42.32-.59s.17-.36.26-.55c.08-.19.15-.38.19-.58.05-.2.07-.38.07-.55,0-.23-.04-.43-.13-.6-.09-.17-.23-.26-.43-.26-.12,0-.22.04-.3.12s-.13.17-.17.29c-.04.11-.06.23-.07.35,0,.12,0,.24,0,.38l.02.44h-1.28l-.02-.02Z"/>
  <path class="st13" d="M194.14,192.58c.17.17.26.38.26.62s-.09.45-.26.62-.38.26-.63.26-.46-.09-.63-.26-.25-.38-.25-.62.08-.45.25-.62.38-.26.63-.26.46.09.63.26ZM194.14,195.7c.17.17.26.38.26.62s-.09.45-.26.62-.38.26-.63.26-.46-.09-.63-.26-.25-.38-.25-.62.08-.45.25-.62.38-.26.63-.26.46.09.63.26Z"/>
  <path class="st13" d="M197.91,190.35c.26.24.47.55.61.93.14.38.24.76.29,1.16.05.4.08.78.08,1.15s-.03.76-.08,1.15c-.05.4-.15.79-.29,1.16s-.34.69-.61.93-.59.36-.99.36-.73-.12-.99-.36-.47-.55-.61-.93-.24-.76-.29-1.16c-.05-.4-.08-.78-.08-1.15s.03-.76.08-1.15c.05-.4.15-.79.29-1.16.14-.38.34-.69.61-.93s.59-.36.99-.36.72.12.99.36ZM196.59,191.46c-.08.14-.15.32-.19.56-.04.23-.07.48-.08.73,0,.26-.02.54-.02.85s0,.59.02.85.04.5.08.73c.04.23.11.42.19.56s.19.21.33.21.25-.07.33-.21c.09-.14.15-.32.19-.56.04-.23.07-.48.08-.73s.02-.54.02-.85,0-.59-.02-.85c0-.26-.04-.5-.08-.73-.04-.23-.1-.42-.19-.56s-.2-.21-.33-.21-.25.07-.33.21Z"/>
  <path class="st13" d="M202.45,190.35c.26.24.47.55.61.93.14.38.24.76.29,1.16.05.4.08.78.08,1.15s-.03.76-.08,1.15c-.05.4-.15.79-.29,1.16s-.34.69-.61.93-.59.36-.99.36-.73-.12-.99-.36-.47-.55-.61-.93-.24-.76-.29-1.16c-.05-.4-.08-.78-.08-1.15s.03-.76.08-1.15c.05-.4.15-.79.29-1.16.14-.38.34-.69.61-.93s.59-.36.99-.36.72.12.99.36ZM201.14,191.46c-.08.14-.15.32-.19.56-.04.23-.07.48-.08.73,0,.26-.02.54-.02.85s0,.59.02.85.04.5.08.73c.04.23.11.42.19.56s.19.21.33.21.25-.07.33-.21c.09-.14.15-.32.19-.56.04-.23.07-.48.08-.73s.02-.54.02-.85,0-.59-.02-.85c0-.26-.04-.5-.08-.73-.04-.23-.1-.42-.19-.56s-.2-.21-.33-.21-.25.07-.33.21Z"/>
  <path class="st13" d="M207.64,192.99h.02c.08-.2.19-.37.34-.49.15-.12.32-.18.53-.18.26,0,.47.08.64.25s.3.37.38.62.15.51.18.78.05.53.05.78c0,.23-.02.48-.06.75s-.1.53-.19.79-.22.47-.39.64-.38.25-.63.25c-.2,0-.38-.06-.51-.17s-.25-.26-.35-.45h-.02v2.84h-1.31v-6.99h1.31v.58h.01ZM208.26,195.85c.07-.1.12-.21.14-.35.03-.14.05-.27.06-.4,0-.13,0-.25,0-.37,0-.1,0-.21,0-.35,0-.13-.03-.27-.06-.41s-.08-.26-.14-.35c-.06-.1-.15-.14-.25-.14-.11,0-.19.05-.25.15-.07.1-.11.22-.14.35-.03.14-.05.27-.06.4,0,.13,0,.25,0,.35s0,.21,0,.34c0,.13.03.27.06.41s.08.26.14.36.14.15.24.15.19-.05.26-.14h0Z"/>
  <path class="st13" d="M211.67,193.16h.02c.12-.25.28-.46.47-.61s.42-.23.68-.23c.23,0,.41.08.55.23s.22.34.26.57h.02c.12-.23.28-.42.47-.57.2-.15.41-.23.65-.23.2,0,.36.05.47.14s.2.22.25.38c.05.15.08.31.1.46,0,.15.02.34.02.56v3.24h-1.31v-2.54c0-.32-.02-.55-.06-.7s-.13-.23-.26-.23-.23.05-.28.16-.07.23-.07.37v2.94h-1.31v-2.87c0-.17-.02-.31-.06-.42s-.13-.17-.25-.17c-.14,0-.24.05-.29.15-.05.1-.08.23-.08.38v2.91h-1.31v-4.68h1.31v.75h0Z"/>
  <g>
    <path class="st7" d="M86.56,167.77h4.9v2.21h-3.13l-.34,2.07c2.6.14,3.83,1.72,3.83,4.23,0,2.74-1.38,4.5-4.22,4.5-.9,0-1.67-.19-2.46-.58l.42-2.23c.44.36.99.59,1.56.59,1.34,0,1.99-1.12,1.99-2.33,0-1.6-1.09-2.28-2.58-2.28-.32,0-.66.05-.97.1l1-6.31v.03Z"/>
    <path class="st7" d="M96.32,179.18c0,.88-.71,1.61-1.61,1.61s-1.62-.73-1.62-1.61.71-1.62,1.62-1.62,1.61.73,1.61,1.62Z"/>
  </g>
  <path class="st13" d="M96.99,189.59v2.82h1.44v-2.82h1.43v7.21h-1.43v-3.05h-1.44v3.05h-1.43v-7.21h1.43Z"/>
</svg>