<?xml version="1.0" encoding="UTF-8"?>
<svg id="Capa_1" xmlns="http://www.w3.org/2000/svg" version="1.1" viewBox="0 0 61.09 61.09">
  <!-- Generator: Adobe Illustrator 29.7.1, SVG Export Plug-In . SVG Version: 2.1.1 Build 8)  -->
  <defs>
    <style>
      .st0 {
        fill: #fff;
      }

      .st1 {
        fill: #ff9a00;
      }
    </style>
  </defs>
  <path class="st0" d="M59.68,53.82s-12.66-11.1-17.05-14.96c1.37-1.71,2.49-3.59,3.35-5.61,1.25-2.95,1.88-6.09,1.88-9.31s-.63-6.36-1.88-9.31c-1.21-2.85-2.93-5.41-5.13-7.61-2.2-2.2-4.76-3.92-7.61-5.13-2.95-1.25-6.09-1.88-9.31-1.88s-6.36.63-9.31,1.88c-2.85,1.21-5.41,2.93-7.61,5.13-2.2,2.2-3.92,4.76-5.13,7.61-1.25,2.95-1.88,6.09-1.88,9.31s.63,6.36,1.88,9.31c1.21,2.85,2.93,5.41,5.13,7.61,2.2,2.2,4.76,3.92,7.61,5.13,2.95,1.25,6.09,1.88,9.31,1.88s6.36-.63,9.31-1.88c2.03-.86,3.91-1.98,5.61-3.35,1.57,1.79,4.34,4.95,7.07,8.06,3.98,4.54,7.89,8.99,7.89,8.99,1.63,1.88,4.62,1.88,6.24,0,1.51-1.72,1.34-4.35-.38-5.86ZM23.74,43.97c-11.07,0-20.04-8.97-20.04-20.04S12.67,3.89,23.74,3.89s20.04,8.97,20.04,20.04-8.97,20.04-20.04,20.04Z"/>
  <path class="st0" d="M23.74,3.89C12.67,3.89,3.7,12.86,3.7,23.93s8.97,20.04,20.04,20.04,20.04-8.97,20.04-20.04S34.81,3.89,23.74,3.89ZM23.93,39.91c-8.83,0-15.98-7.15-15.98-15.98s7.16-15.98,15.98-15.98,15.98,7.15,15.98,15.98-7.16,15.98-15.98,15.98Z"/>
  <circle class="st1" cx="23.93" cy="23.93" r="15.98"/>
</svg>