<?xml version="1.0" encoding="utf-8"?>
<!-- Generator: Adobe Illustrator 24.1.1, SVG Export Plug-In . SVG Version: 6.00 Build 0)  -->
<svg version="1.1" id="Capa_1" xmlns="http://www.w3.org/2000/svg" xmlns:xlink="http://www.w3.org/1999/xlink" x="0px" y="0px"
	 viewBox="0 0 480.19 480.19" style="enable-background:new 0 0 480.19 480.19;" xml:space="preserve">
<style type="text/css">
	.st0{clip-path:url(#SVGID_2_);}
	.st1{fill:#1F71B7;}
	.st2{fill:#DB7E68;}
	.st3{fill:none;stroke:#BF513C;stroke-width:0.7482;stroke-linecap:round;stroke-linejoin:round;stroke-miterlimit:10;}
	.st4{fill:#1D0300;}
	.st5{fill:#FFFFFF;}
</style>
<g>
	<defs>
		
			<ellipse id="SVGID_1_" transform="matrix(0.7071 -0.7071 0.7071 0.7071 -99.4509 240.0954)" cx="240.1" cy="240.1" rx="240.1" ry="240.1"/>
	</defs>
	<use xlink:href="#SVGID_1_"  style="overflow:visible;fill:#C0E16E;"/>
	<clipPath id="SVGID_2_">
		<use xlink:href="#SVGID_1_"  style="overflow:visible;"/>
	</clipPath>
	<g class="st0">
		<path class="st1" d="M472.28,492.94H9.03c21.36-95.88,78.69-115.04,78.69-115.04l110.49-51.68l41.87-0.38h1.15l41.91,0.38
			l110.49,51.68C393.63,377.91,450.92,397.06,472.28,492.94z"/>
		<g>
			<path class="st2" d="M193.86,180.45c0.41,14.44-10.97,26.48-25.41,26.89c-14.44,0.41-26.48-10.97-26.89-25.41
				c-0.41-14.44,10.97-26.48,25.41-26.89C181.41,154.63,193.45,166.01,193.86,180.45z"/>
			<path class="st3" d="M152.85,177.51c0,0,10.4-5.07,20.32,13.01"/>
		</g>
		<g>
			<circle class="st2" cx="315.54" cy="181.19" r="26.16"/>
			<path class="st3" d="M330.29,177.09c0,0-10.54-4.77-19.94,13.58"/>
		</g>
		<g>
			<path class="st2" d="M275.19,241.47c0,0-14.75,10.41-28.19,12.98c-13.44,2.57-26.51-5.23-26.68-5.33
				c-0.17-0.09-15.7-9.03-15.7-9.03l-6.43,86.11l1.74,1.43c22.79,18.8,55.65,19.02,78.69,0.53l3.37-2.7L275.19,241.47z"/>
		</g>
		<path class="st4" d="M198.2,231.04c0,0,14.66,47.99,48.39,47.45c27.73-0.44,32.2-47.45,32.2-47.45H198.2z"/>
		<path class="st2" d="M312.27,135.64c0.15,29.57-3.94,55.11-8.07,73.25c-4.04,17.75-15.59,30.2-31.96,40.26l-2.98,1.83
			c-17.32,10.64-39.76,11-57.45,0.92l0,0c-17.84-10.17-30.36-23.63-34.29-42.64c-7.15-34.57-8.1-72.9-8.1-72.9
			s-10.04-79.99,67.01-78.93C313.47,58.49,312.27,135.64,312.27,135.64z"/>
		<g>
			<circle class="st4" cx="207.6" cy="159.11" r="6.24"/>
			<circle class="st4" cx="268.78" cy="159.11" r="6.24"/>
			<polyline class="st3" points="232.54,168.21 232.54,185.41 243.64,185.41 			"/>
			<path d="M184.37,132.75l40.74-3.67c0,0-3.65-10.56-20.12-8.84C188.14,121.99,184.37,132.75,184.37,132.75z"/>
			<path d="M289.38,132.75l-40.74-3.67c0,0,3.65-10.56,20.12-8.84C285.61,121.99,289.38,132.75,289.38,132.75z"/>
			<path class="st5" d="M218.59,199.65h40.19c0,0-1.89,12.31-20.69,12.31C219.29,211.96,218.59,199.65,218.59,199.65z"/>
		</g>
		<g>
			<path class="st4" d="M172.03,174.22c0,0,11.41-86.52,5.83-100.77C177.86,73.45,139.06,105.55,172.03,174.22z"/>
			<path class="st4" d="M309.36,173.53c0,0-12.84-82.62-9.28-106.39C300.08,67.13,337.55,100.33,309.36,173.53z"/>
		</g>
		<path class="st4" d="M297.4,48.87l-35.52-7l-3.13-8L240,37.57l-18.75-3.69l-3.13,8l-35.52,7l-4.74,24.75l1.17,28.53
			c0,0,5.62-32.37,25.2-25.92c4.62,1.52,10.14,4.04,16.6,5.74c6.04,1.71,11.79,2.49,17.21,2.61c0.64,0.02,1.31,0,1.96,0.01
			c0.65,0,1.32,0.02,1.96-0.01c5.43-0.12,11.18-0.9,17.21-2.61c6.46-1.7,12.11-3.7,16.6-5.74c18.15-8.22,24.83,24.45,24.83,24.45
			l1.54-27.06L297.4,48.87z"/>
		<path class="st2" d="M198.2,326.21l-24.69,11.34c0,0-0.27,41.38,66.81,39.24c68.78-2.2,68.37-38.61,68.37-38.61L282,325.47
			L198.2,326.21z"/>
		<path class="st4" d="M170.46,95.42c0,8.61-6.98,15.6-15.6,15.6c-8.61,0-15.6-6.98-15.6-15.6s6.98-15.6,15.6-15.6
			C163.48,79.83,170.46,86.81,170.46,95.42z"/>
		<path class="st4" d="M170.75,122.52c0,7.25-5.88,13.12-13.12,13.12c-7.25,0-13.12-5.88-13.12-13.12c0-7.25,5.88-13.12,13.12-13.12
			C164.87,109.4,170.75,115.27,170.75,122.52z"/>
		<path class="st4" d="M335.91,120.33c0,7.25-5.88,13.12-13.12,13.12c-7.25,0-13.12-5.88-13.12-13.12c0-7.25,5.88-13.12,13.12-13.12
			C330.04,107.21,335.91,113.08,335.91,120.33z"/>
		<path class="st4" d="M182.06,73.45c0,8.61-6.98,15.6-15.6,15.6c-8.61,0-15.6-6.98-15.6-15.6s6.98-15.6,15.6-15.6
			C175.08,57.85,182.06,64.83,182.06,73.45z"/>
		<path class="st4" d="M197.66,52.74c0,8.61-6.98,15.6-15.6,15.6c-8.61,0-15.6-6.98-15.6-15.6s6.98-15.6,15.6-15.6
			C190.68,37.15,197.66,44.13,197.66,52.74z"/>
		<path class="st4" d="M220.34,40.69c0,8.61-6.98,15.6-15.6,15.6c-8.61,0-15.6-6.98-15.6-15.6s6.98-15.6,15.6-15.6
			C213.36,25.09,220.34,32.07,220.34,40.69z"/>
		<path class="st4" d="M243.31,35.46c0,8.61-6.98,15.6-15.6,15.6c-8.61,0-15.6-6.98-15.6-15.6s6.98-15.6,15.6-15.6
			C236.33,19.86,243.31,26.84,243.31,35.46z"/>
		<path class="st4" d="M311.6,95.42c0,8.61,6.98,15.6,15.6,15.6c8.61,0,15.6-6.98,15.6-15.6s-6.98-15.6-15.6-15.6
			C318.58,79.83,311.6,86.81,311.6,95.42z"/>
		<path class="st4" d="M299.99,73.45c0,8.61,6.98,15.6,15.6,15.6c8.61,0,15.6-6.98,15.6-15.6s-6.98-15.6-15.6-15.6
			C306.98,57.85,299.99,64.83,299.99,73.45z"/>
		<path class="st4" d="M284.4,52.74c0,8.61,6.98,15.6,15.6,15.6c8.61,0,15.6-6.98,15.6-15.6s-6.98-15.6-15.6-15.6
			C291.38,37.15,284.4,44.13,284.4,52.74z"/>
		<path class="st4" d="M261.72,40.69c0,8.61,6.98,15.6,15.6,15.6s15.6-6.98,15.6-15.6s-6.98-15.6-15.6-15.6
			S261.72,32.07,261.72,40.69z"/>
		<path class="st4" d="M238.74,35.46c0,8.61,6.98,15.6,15.6,15.6c8.61,0,15.6-6.98,15.6-15.6s-6.98-15.6-15.6-15.6
			C245.73,19.86,238.74,26.84,238.74,35.46z"/>
	</g>
</g>
</svg>
