<?xml version="1.0" encoding="UTF-8"?>
<svg id="Capa_1" xmlns="http://www.w3.org/2000/svg" version="1.1" xmlns:xlink="http://www.w3.org/1999/xlink" viewBox="0 0 480.19 480.19">
  <!-- Generator: Adobe Illustrator 29.7.1, SVG Export Plug-In . SVG Version: 2.1.1 Build 8)  -->
  <defs>
    <style>
      .st0 {
        fill: #fff5e8;
      }

      .st1 {
        fill: #fff;
      }

      .st2 {
        fill: #1f71b7;
      }

      .st3, .st4 {
        fill: none;
      }

      .st5 {
        fill: #db7e68;
      }

      .st6 {
        fill: #1d0300;
      }

      .st4 {
        stroke: #bf513c;
        stroke-linecap: round;
        stroke-linejoin: round;
        stroke-width: .75px;
      }

      .st7 {
        clip-path: url(#clippath);
      }
    </style>
    <clipPath id="clippath">
      <circle class="st3" cx="240.1" cy="240.1" r="240.1"/>
    </clipPath>
  </defs>
  <circle id="SVGID" class="st0" cx="240.1" cy="240.1" r="240.1"/>
  <g class="st7">
    <g>
      <path class="st2" d="M472.28,492.94H9.03c21.36-95.88,78.69-115.04,78.69-115.04l110.49-51.68,41.87-.38h1.15l41.91.38,110.49,51.68s57.29,19.16,78.65,115.04Z"/>
      <g>
        <path class="st5" d="M193.86,180.45c.41,14.44-10.97,26.48-25.41,26.89s-26.48-10.97-26.89-25.41,10.97-26.48,25.41-26.89c14.44-.41,26.48,10.97,26.89,25.41Z"/>
        <path class="st4" d="M152.85,177.51s10.4-5.07,20.32,13.01"/>
      </g>
      <g>
        <circle class="st5" cx="315.54" cy="181.19" r="26.16"/>
        <path class="st4" d="M330.29,177.09s-10.54-4.77-19.94,13.58"/>
      </g>
      <path class="st5" d="M275.19,241.47s-14.75,10.41-28.19,12.98-26.51-5.23-26.68-5.33c-.17-.09-15.7-9.03-15.7-9.03l-6.43,86.11,1.74,1.43c22.79,18.8,55.65,19.02,78.69.53l3.37-2.7-6.8-83.99Z"/>
      <path class="st6" d="M198.2,231.04s14.66,47.99,48.39,47.45c27.73-.44,32.2-47.45,32.2-47.45h-80.59Z"/>
      <path class="st5" d="M312.27,135.64c.15,29.57-3.94,55.11-8.07,73.25-4.04,17.75-15.59,30.2-31.96,40.26l-2.98,1.83c-17.32,10.64-39.76,11-57.45.92h0c-17.84-10.17-30.36-23.63-34.29-42.64-7.15-34.57-8.1-72.9-8.1-72.9,0,0-10.04-79.99,67.01-78.93,77.04,1.06,75.84,78.21,75.84,78.21Z"/>
      <g>
        <circle class="st6" cx="207.6" cy="159.11" r="6.24"/>
        <circle class="st6" cx="268.78" cy="159.11" r="6.24"/>
        <polyline class="st4" points="232.54 168.21 232.54 185.41 243.64 185.41"/>
        <path d="M184.37,132.75l40.74-3.67s-3.65-10.56-20.12-8.84c-16.85,1.75-20.62,12.51-20.62,12.51Z"/>
        <path d="M289.38,132.75l-40.74-3.67s3.65-10.56,20.12-8.84c16.85,1.75,20.62,12.51,20.62,12.51Z"/>
        <path class="st1" d="M218.59,199.65h40.19s-1.89,12.31-20.69,12.31c-18.8,0-19.5-12.31-19.5-12.31Z"/>
      </g>
      <g>
        <path class="st6" d="M172.03,174.22s11.41-86.52,5.83-100.77c0,0-38.8,32.1-5.83,100.77Z"/>
        <path class="st6" d="M309.36,173.53s-12.84-82.62-9.28-106.39c0-.01,37.47,33.19,9.28,106.39Z"/>
      </g>
      <path class="st6" d="M297.4,48.87l-35.52-7-3.13-8-18.75,3.7-18.75-3.69-3.13,8-35.52,7-4.74,24.75,1.17,28.53s5.62-32.37,25.2-25.92c4.62,1.52,10.14,4.04,16.6,5.74,6.04,1.71,11.79,2.49,17.21,2.61.64.02,1.31,0,1.96.01.65,0,1.32.02,1.96-.01,5.43-.12,11.18-.9,17.21-2.61,6.46-1.7,12.11-3.7,16.6-5.74,18.15-8.22,24.83,24.45,24.83,24.45l1.54-27.06-4.74-24.76Z"/>
      <path class="st5" d="M198.2,326.21l-24.69,11.34s-.27,41.38,66.81,39.24c68.78-2.2,68.37-38.61,68.37-38.61l-26.69-12.71-83.8.74Z"/>
      <path class="st6" d="M170.46,95.42c0,8.61-6.98,15.6-15.6,15.6s-15.6-6.98-15.6-15.6,6.98-15.6,15.6-15.6c8.62.01,15.6,6.99,15.6,15.6Z"/>
      <path class="st6" d="M170.75,122.52c0,7.25-5.88,13.12-13.12,13.12s-13.12-5.88-13.12-13.12,5.88-13.12,13.12-13.12c7.24,0,13.12,5.87,13.12,13.12Z"/>
      <path class="st6" d="M335.91,120.33c0,7.25-5.88,13.12-13.12,13.12s-13.12-5.88-13.12-13.12,5.88-13.12,13.12-13.12c7.25,0,13.12,5.87,13.12,13.12Z"/>
      <path class="st6" d="M182.06,73.45c0,8.61-6.98,15.6-15.6,15.6s-15.6-6.98-15.6-15.6,6.98-15.6,15.6-15.6,15.6,6.98,15.6,15.6Z"/>
      <path class="st6" d="M197.66,52.74c0,8.61-6.98,15.6-15.6,15.6s-15.6-6.98-15.6-15.6,6.98-15.6,15.6-15.6c8.62,0,15.6,6.99,15.6,15.6Z"/>
      <path class="st6" d="M220.34,40.69c0,8.61-6.98,15.6-15.6,15.6s-15.6-6.98-15.6-15.6,6.98-15.6,15.6-15.6c8.62,0,15.6,6.98,15.6,15.6Z"/>
      <path class="st6" d="M243.31,35.46c0,8.61-6.98,15.6-15.6,15.6s-15.6-6.98-15.6-15.6,6.98-15.6,15.6-15.6c8.62,0,15.6,6.98,15.6,15.6Z"/>
      <path class="st6" d="M311.6,95.42c0,8.61,6.98,15.6,15.6,15.6s15.6-6.98,15.6-15.6-6.98-15.6-15.6-15.6c-8.62.01-15.6,6.99-15.6,15.6Z"/>
      <path class="st6" d="M299.99,73.45c0,8.61,6.98,15.6,15.6,15.6s15.6-6.98,15.6-15.6-6.98-15.6-15.6-15.6-15.6,6.98-15.6,15.6Z"/>
      <path class="st6" d="M284.4,52.74c0,8.61,6.98,15.6,15.6,15.6s15.6-6.98,15.6-15.6-6.98-15.6-15.6-15.6c-8.62,0-15.6,6.99-15.6,15.6Z"/>
      <path class="st6" d="M261.72,40.69c0,8.61,6.98,15.6,15.6,15.6s15.6-6.98,15.6-15.6-6.98-15.6-15.6-15.6-15.6,6.98-15.6,15.6Z"/>
      <path class="st6" d="M238.74,35.46c0,8.61,6.98,15.6,15.6,15.6s15.6-6.98,15.6-15.6-6.98-15.6-15.6-15.6c-8.61,0-15.6,6.98-15.6,15.6Z"/>
    </g>
  </g>
</svg>