<?xml version="1.0" encoding="UTF-8" standalone="no" ?>
<!DOCTYPE svg PUBLIC "-//W3C//DTD SVG 1.1//EN" "http://www.w3.org/Graphics/SVG/1.1/DTD/svg11.dtd">
<svg xmlns="http://www.w3.org/2000/svg" xmlns:xlink="http://www.w3.org/1999/xlink" version="1.1" width="800" height="550" viewBox="0 0 800 550" xml:space="preserve">
<desc>Created with Fabric.js 5.2.4</desc>
<defs>
</defs>
<rect x="0" y="0" width="100%" height="100%" fill="transparent"></rect>
<g transform="matrix(0 0 0 0 0 0)" id="0c909cfe-1c83-47ec-bf39-8aa5297d1eca"  >
</g>
<g transform="matrix(1 0 0 1 400 275)" id="f5d0bbb0-e47d-4d15-a8f7-5492a4c071c8"  >
<rect style="stroke: none; stroke-width: 1; stroke-dasharray: none; stroke-linecap: butt; stroke-dashoffset: 0; stroke-linejoin: miter; stroke-miterlimit: 4; fill: rgb(255,0,0); fill-rule: nonzero; opacity: 1; visibility: hidden;" vector-effect="non-scaling-stroke"  x="-400" y="-275" rx="0" ry="0" width="800" height="550" />
</g>
<g transform="matrix(0.51 0 0 0.51 657.08 283.02)"  >
<rect style="stroke: none; stroke-width: 1; stroke-dasharray: none; stroke-linecap: butt; stroke-dashoffset: 0; stroke-linejoin: miter; stroke-miterlimit: 4; fill: rgb(255,0,0); fill-rule: nonzero; opacity: 1; visibility: hidden;" vector-effect="non-scaling-stroke"  x="-400" y="-275" rx="0" ry="0" width="800" height="550" />
</g>
<g transform="matrix(1.67 0 0 1.67 400 420.35)" style="" clip-path="url(#CLIPPATH_55)"  >
<clipPath id="CLIPPATH_55" >
	<rect transform="matrix(1 0 0 1 -4.01 -67.93)" id="clip-path" x="-235.275" y="-205.78" rx="0" ry="0" width="470.55" height="411.56" />
</clipPath>
		<text xml:space="preserve" font-family="FuturaBT-Heavy, Futura Hv BT" font-size="35.25" font-style="normal" font-weight="800" style="stroke: none; stroke-width: 1; stroke-dasharray: none; stroke-linecap: butt; stroke-dashoffset: 0; stroke-linejoin: miter; stroke-miterlimit: 4; fill: rgb(255,255,255); fill-rule: nonzero; opacity: 1; white-space: pre;" ><tspan x="-109.37" y="11.07" >TONELADAS</tspan></text>
</g>
<g transform="matrix(1.95 0 0 1.95 335.4 94.07)" clip-path="url(#CLIPPATH_56)"  >
<clipPath id="CLIPPATH_56" >
	<rect transform="matrix(1 0 0 1 41 124.68)" id="clip-path" x="-235.275" y="-205.78" rx="0" ry="0" width="470.55" height="411.56" />
</clipPath>
<path style="stroke: none; stroke-width: 1; stroke-dasharray: none; stroke-linecap: butt; stroke-dashoffset: 0; stroke-linejoin: miter; stroke-miterlimit: 4; fill: rgb(251,216,0); fill-rule: nonzero; opacity: 1;" vector-effect="non-scaling-stroke"  transform=" translate(-194.27, -81.1)" d="M 254 42.37 L 134.53 42.37 C 131.97682772103096 42.375514423824754 129.90999404489173 44.44682176592964 129.91 47 L 129.91 115.22 C 129.91550007067568 117.76927386475784 131.98072613524215 119.83449992932432 134.53 119.84 L 254 119.84 C 255.2270318888724 119.84265591940434 256.4047176219831 119.35708005342141 257.27329971041956 118.490373952217 C 258.141881798856 117.62366785101257 258.630002874375 116.44703476324405 258.63 115.22 L 258.63 47 C 258.63266255901243 45.771233345923186 258.14571544846905 44.592027098280376 257.27684417509437 43.723155824905646 C 256.40797290171963 42.854284551530924 255.22876665407682 42.36733744098757 254 42.37 M 148.59 106.73 C 148.59000595510827 109.28317823407036 146.52317227896904 111.35448557617525 143.97 111.36 L 140.89 111.36 C 139.66296523675595 111.36000287437503 138.48633214898743 110.87188179885602 137.619626047783 110.00329971041955 C 136.75291994657857 109.13471762198307 136.26734408059565 107.9570318888724 136.26999999999998 106.73 L 136.26999999999998 53.16 C 136.26999999999998 51.934699816941304 136.75674860248822 50.759584739348064 137.62316667091812 49.89316667091815 C 138.48958473934806 49.026748602488226 139.6646998169413 48.54 140.89 48.54 L 144 48.54 C 145.2253001830587 48.54 146.40041526065193 49.026748602488226 147.26683332908186 49.89316667091815 C 148.13325139751177 50.759584739348064 148.62 51.934699816941304 148.62 53.16 Z M 169.33 106.73 C 169.33 109.28707839171658 167.2570783917166 111.36 164.70000000000002 111.36 L 161.62 111.36 C 159.06520330057486 111.35449988035782 156.99550011964217 109.28479669942516 156.99 106.73 L 156.99 53.16 C 156.99551442382477 50.60682772103095 159.06682176592966 48.53999404489174 161.62 48.54 L 164.70000000000002 48.54 C 165.92703188887242 48.537344080595666 167.1047176219831 49.02291994657858 167.97329971041955 49.889626047783004 C 168.84188179885604 50.75633214898743 169.33000287437503 51.93296523675595 169.33 53.16 Z M 190.07000000000002 106.73 C 190.06448555804437 109.28869512833424 187.98870107062086 111.36000594229347 185.43000000000004 111.36 L 182.36000000000004 111.36 C 181.132965236756 111.36000287437503 179.95633214898749 110.87188179885602 179.08962604778304 110.00329971041955 C 178.22291994657863 109.13471762198307 177.7373440805957 107.9570318888724 177.74000000000004 106.73 L 177.74000000000004 53.16 C 177.74000000000004 51.934699816941304 178.22674860248827 50.759584739348064 179.09316667091818 49.89316667091815 C 179.95958473934812 49.026748602488226 181.13469981694135 48.54 182.36000000000004 48.54 L 185.43000000000004 48.54 C 186.65795321979925 48.53734496909421 187.83666706704378 49.02260267751668 188.70683648524562 49.88902136546765 C 189.57700590344743 50.75544005341861 190.06735069731624 51.9320467678288 190.07000000000002 53.16 Z M 210.8 106.73 C 210.79449988035785 109.28479669942516 208.72479669942516 111.35449988035782 206.17000000000002 111.36 L 203.09 111.36 C 200.53520330057486 111.35449988035782 198.46550011964217 109.28479669942516 198.46 106.73 L 198.46 53.16 C 198.46551442382477 50.60682772103095 200.53682176592966 48.53999404489174 203.09 48.54 L 206.17000000000002 48.54 C 208.72317823407036 48.53999404489174 210.79448557617525 50.60682772103095 210.8 53.16 Z M 231.53 106.73 C 231.53 109.28707839171658 229.45707839171658 111.36 226.9 111.36 L 223.83 111.36 C 221.27292160828344 111.36 219.20000000000002 109.28707839171658 219.20000000000002 106.73 L 219.20000000000002 53.16 C 219.199997125625 51.93296523675595 219.688118201144 50.75633214898744 220.55670028958048 49.88962604778301 C 221.42528237801693 49.02291994657858 222.6029681111276 48.537344080595666 223.83 48.54 L 226.9 48.54 C 228.1270318888724 48.537344080595666 229.3047176219831 49.02291994657858 230.17329971041954 49.889626047783004 C 231.04188179885602 50.75633214898743 231.53000287437501 51.93296523675595 231.53 53.16 Z M 252.27 106.73 C 252.26449988035785 109.28479669942516 250.19479669942515 111.35449988035782 247.64000000000001 111.36 L 244.56 111.36 C 243.33296523675597 111.36000287437503 242.15633214898745 110.87188179885602 241.289626047783 110.00329971041955 C 240.4229199465786 109.13471762198307 239.93734408059566 107.9570318888724 239.94 106.73 L 239.94 53.16 C 239.94 51.934699816941304 240.42674860248823 50.759584739348064 241.29316667091814 49.89316667091815 C 242.15958473934808 49.026748602488226 243.3346998169413 48.54 244.56 48.54 L 247.64000000000001 48.54 C 250.19317823407036 48.53999404489174 252.26448557617525 50.60682772103095 252.27 53.16 Z" stroke-linecap="round" />
</g>
<g transform="matrix(1.95 0 0 1.95 511.86 213.42)" clip-path="url(#CLIPPATH_57)"  >
<clipPath id="CLIPPATH_57" >
	<rect transform="matrix(1 0 0 1 -49.47 63.48)" id="clip-path" x="-235.275" y="-205.78" rx="0" ry="0" width="470.55" height="411.56" />
</clipPath>
<path style="stroke: none; stroke-width: 1; stroke-dasharray: none; stroke-linecap: butt; stroke-dashoffset: 0; stroke-linejoin: miter; stroke-miterlimit: 4; fill: rgb(255,244,232); fill-rule: nonzero; opacity: 1;" vector-effect="non-scaling-stroke"  transform=" translate(-284.75, -142.3)" d="M 284.76 122.85 C 276.89230058734074 122.84595490979311 269.7970563129506 127.58222974862 266.78341480056724 134.8498755328856 C 263.76977328818396 142.11752131715116 265.43136348234026 150.4849527443488 270.993237117694 156.04968742581121 C 276.5551107530477 161.61442210727364 284.92168656612967 163.28031520892299 292.19088121773564 160.27041163442496 C 299.46007586934167 157.26050805992693 304.199998960131 150.1677004525282 304.2 142.3 C 304.2026530563995 137.14245904179222 302.1556873603998 132.19524955645173 298.5096925685221 128.54737925284988 C 294.86369777664447 124.89950894924802 289.91754164057824 122.84999931762948 284.76 122.85000000000001 M 288.68 146.57 C 286.9830427501849 148.0973678803431 284.54790190975024 148.48711276187902 282.45901202458816 147.5656706327838 C 280.3701221394261 146.64422850368854 279.0161279697023 144.58303667035756 279 142.3 C 278.9976007205566 141.9442027937605 279.03110370032556 141.58907120820953 279.1 141.24 C 279.6157971182093 138.49839523100243 282.0102969017218 136.51238052947645 284.8 136.51238052947645 C 287.5897030982782 136.51238052947645 289.98420288179074 138.49839523100243 290.5 141.24 C 290.56889629967446 141.58907120820953 290.60239927944343 141.94420279376047 290.6 142.3 C 290.6011354197976 143.92426218404387 289.9187955871953 145.47404467617778 288.72 146.57000000000002" stroke-linecap="round" />
</g>
<g transform="matrix(1.95 0 0 1.95 254.38 213)" clip-path="url(#CLIPPATH_58)"  >
<clipPath id="CLIPPATH_58" >
	<rect transform="matrix(1 0 0 1 82.55 63.7)" id="clip-path" x="-235.275" y="-205.78" rx="0" ry="0" width="470.55" height="411.56" />
</clipPath>
<path style="stroke: none; stroke-width: 1; stroke-dasharray: none; stroke-linecap: butt; stroke-dashoffset: 0; stroke-linejoin: miter; stroke-miterlimit: 4; fill: rgb(255,244,232); fill-rule: nonzero; opacity: 1;" vector-effect="non-scaling-stroke"  transform=" translate(-152.73, -142.08)" d="M 152.77 122.85 L 152.68 122.85 C 143.2332696538361 122.87818105714645 135.17275225147114 129.69018294349883 133.57 139 C 133.3816914361106 140.09337974514642 133.28469010779938 141.20053283725053 133.28 142.31 C 133.51965784835264 152.8773894530122 142.15489329590707 161.3190068027739 152.72500000000002 161.3190068027739 C 163.29510670409294 161.3190068027739 171.93034215164738 152.8773894530122 172.17000000000002 142.31 C 172.1701782142993 141.20031502111374 172.07314059241028 140.0927476816217 171.88000000000002 139 C 170.27292980333482 129.69415624735706 162.21355099633294 122.88733395824087 152.77000000000004 122.86 M 156.65000000000003 146.57 C 154.95427030919805 148.12013436718453 152.50434434074336 148.52542838412674 150.3997392000718 147.60398769561075 C 148.29513405940025 146.68254700709474 146.93117442593928 144.60745312744328 146.92000000000004 142.31 C 146.92211754139822 141.95441448514995 146.95558042074174 141.59970796410852 147.02000000000004 141.25 C 147.52470651696203 138.4958382203822 149.9249757542887 136.4954544466403 152.72500000000002 136.4954544466403 C 155.52502424571136 136.4954544466403 157.92529348303805 138.4958382203822 158.43000000000004 141.25 C 158.49441957925833 141.59970796410852 158.52788245860185 141.95441448514995 158.53000000000003 142.31 C 158.52832843989924 143.93078089020145 157.84622696913692 145.47639379735438 156.65000000000003 146.57" stroke-linecap="round" />
</g>
<g transform="matrix(1.95 0 0 1.95 224.77 191.23)" clip-path="url(#CLIPPATH_59)"  >
<clipPath id="CLIPPATH_59" >
	<rect transform="matrix(1 0 0 1 97.73 74.85)" id="clip-path" x="-235.275" y="-205.78" rx="0" ry="0" width="470.55" height="411.56" />
</clipPath>
<path style="stroke: none; stroke-width: 1; stroke-dasharray: none; stroke-linecap: butt; stroke-dashoffset: 0; stroke-linejoin: miter; stroke-miterlimit: 4; fill: rgb(255,244,232); fill-rule: nonzero; opacity: 1;" vector-effect="non-scaling-stroke"  transform=" translate(-137.55, -130.93)" d="M 145.74 122.85 L 129.35 122.85 L 129.35 139 L 132.35 139 L 132.35 138.79 C 133.59861116308497 131.45642928991387 138.7059274930965 125.36664267785669 145.70999999999998 122.85999999999999" stroke-linecap="round" />
</g>
<g transform="matrix(1.95 0 0 1.95 433.14 121.8)" clip-path="url(#CLIPPATH_60)"  >
<clipPath id="CLIPPATH_60" >
	<rect transform="matrix(1 0 0 1 -9.12 110.46)" id="clip-path" x="-235.275" y="-205.78" rx="0" ry="0" width="470.55" height="411.56" />
</clipPath>
<path style="stroke: none; stroke-width: 1; stroke-dasharray: none; stroke-linecap: butt; stroke-dashoffset: 0; stroke-linejoin: miter; stroke-miterlimit: 4; fill: rgb(255,244,232); fill-rule: nonzero; opacity: 1;" vector-effect="non-scaling-stroke"  transform=" translate(-244.39, -95.32)" d="M 325 128.89 C 324.92 120.01999999999998 325.16 111.21999999999998 324.84 102.35 C 322.01 101.05 319.15 99.75 316.28999999999996 98.41999999999999 Q 313.28999999999996 97.03999999999999 310.34999999999997 95.58999999999999 C 310.09189009680625 95.49156459598882 309.8412364153446 95.37459287797338 309.59999999999997 95.24 C 305.59999999999997 93.07 305.7 87.63 304.15999999999997 83.78999999999999 C 302.55999999999995 77.25999999999999 299.92999999999995 70.91 298.34 64.38999999999999 C 297.2375732315137 60.25918858373559 296.81205448510764 55.97698405641084 297.08 51.709999999999994 C 285.46999999999997 51.539999999999985 273.95 51.62999999999999 262.41999999999996 51.70999999999999 L 262.30999999999995 51.70999999999999 L 262.30999999999995 51.70999999999999 L 262.24999999999994 51.70999999999999 L 262.24999999999994 66 L 262.30999999999995 66.05 C 262.30999999999995 84.99 262.11999999999995 103.94999999999999 262.30999999999995 122.89 L 159.71 122.89 C 166.7192093607947 125.39189187519507 171.8315551749369 131.4831161698312 173.08 138.82 L 173.08 139.03 L 262.55 139.03 C 265.40000000000003 130.03 272.49 121.28 282.66 120.71000000000001 C 293.90000000000003 119.08000000000001 304.32000000000005 127.71000000000001 306.76000000000005 138.46 C 314.1700000000001 138.54000000000002 321.58000000000004 138.54000000000002 328.99000000000007 138.54000000000002 C 328.99000000000007 135.44000000000003 329.07000000000005 132.27 329.07000000000005 129.17000000000002 L 325.00000000000006 128.93 M 277.65 94 C 277.57 85.37 277.4 76.74 277.72999999999996 68.11 C 283.50999999999993 68.11 289.36999999999995 68.03 295.15 68.28 C 297.42999999999995 76.83 300.2 85.28 302.47999999999996 93.92 C 294.16999999999996 94.09 285.94999999999993 94 277.65 94 M 324.09 129.5 C 319.09 129.67 313.95 129.67 308.91999999999996 129.59 C 308.83 126.59 308.83 123.59 308.91999999999996 120.59 Q 316.46 120.45 324.00999999999993 120.59 C 324.17999999999995 123.59 324.17999999999995 126.59 324.0899999999999 129.52" stroke-linecap="round" />
</g>
</svg>