<?xml version="1.0" encoding="UTF-8" standalone="no" ?>
<!DOCTYPE svg PUBLIC "-//W3C//DTD SVG 1.1//EN" "http://www.w3.org/Graphics/SVG/1.1/DTD/svg11.dtd">
<svg xmlns="http://www.w3.org/2000/svg" xmlns:xlink="http://www.w3.org/1999/xlink" version="1.1" width="800" height="550" viewBox="10 1.67 800 550" xml:space="preserve">
<desc>Created with Fabric.js 5.2.4</desc>
<defs>
</defs>
<rect x="0" y="0" width="100%" height="100%" fill="transparent"></rect>
<g transform="matrix(0 0 0 0 0 0)" id="0e9e1ba4-25e0-4da9-a54b-7260b5b58009"  >
</g>
<g transform="matrix(1 0 0 1 400 275)" id="d46daa08-6fd2-4589-8ca2-8ad8a4a46487"  >
<rect style="stroke: none; stroke-width: 1; stroke-dasharray: none; stroke-linecap: butt; stroke-dashoffset: 0; stroke-linejoin: miter; stroke-miterlimit: 4; fill: rgb(255,0,0); fill-rule: nonzero; opacity: 1; visibility: hidden;" vector-effect="non-scaling-stroke"  x="-400" y="-275" rx="0" ry="0" width="800" height="550" />
</g>
<g transform="matrix(1.82 0 0 1.82 -432.92 63.43)" clip-path="url(#CLIPPATH_47)"  >
<clipPath id="CLIPPATH_47" >
	<rect transform="matrix(1 0 0 1 82.55 63.7)" id="clip-path" x="-235.275" y="-205.78" rx="0" ry="0" width="470.55" height="411.56" />
</clipPath>
<path style="stroke: none; stroke-width: 1; stroke-dasharray: none; stroke-linecap: butt; stroke-dashoffset: 0; stroke-linejoin: miter; stroke-miterlimit: 4; fill: rgb(255,244,232); fill-rule: nonzero; opacity: 1;" vector-effect="non-scaling-stroke"  transform=" translate(-152.73, -142.08)" d="M 152.77 122.85 L 152.68 122.85 C 143.2332696538361 122.87818105714645 135.17275225147114 129.69018294349883 133.57 139 C 133.3816914361106 140.09337974514642 133.28469010779938 141.20053283725053 133.28 142.31 C 133.51965784835264 152.8773894530122 142.15489329590707 161.3190068027739 152.72500000000002 161.3190068027739 C 163.29510670409294 161.3190068027739 171.93034215164738 152.8773894530122 172.17000000000002 142.31 C 172.1701782142993 141.20031502111374 172.07314059241028 140.0927476816217 171.88000000000002 139 C 170.27292980333482 129.69415624735706 162.21355099633294 122.88733395824087 152.77000000000004 122.86 M 156.65000000000003 146.57 C 154.95427030919805 148.12013436718453 152.50434434074336 148.52542838412674 150.3997392000718 147.60398769561075 C 148.29513405940025 146.68254700709474 146.93117442593928 144.60745312744328 146.92000000000004 142.31 C 146.92211754139822 141.95441448514995 146.95558042074174 141.59970796410852 147.02000000000004 141.25 C 147.52470651696203 138.4958382203822 149.9249757542887 136.4954544466403 152.72500000000002 136.4954544466403 C 155.52502424571136 136.4954544466403 157.92529348303805 138.4958382203822 158.43000000000004 141.25 C 158.49441957925833 141.59970796410852 158.52788245860185 141.95441448514995 158.53000000000003 142.31 C 158.52832843989924 143.93078089020145 157.84622696913692 145.47639379735438 156.65000000000003 146.57" stroke-linecap="round" />
</g>
<g transform="matrix(1.82 0 0 1.82 -460.54 43.12)" clip-path="url(#CLIPPATH_48)"  >
<clipPath id="CLIPPATH_48" >
	<rect transform="matrix(1 0 0 1 97.72 74.85)" id="clip-path" x="-235.275" y="-205.78" rx="0" ry="0" width="470.55" height="411.56" />
</clipPath>
<path style="stroke: none; stroke-width: 1; stroke-dasharray: none; stroke-linecap: butt; stroke-dashoffset: 0; stroke-linejoin: miter; stroke-miterlimit: 4; fill: rgb(255,244,232); fill-rule: nonzero; opacity: 1;" vector-effect="non-scaling-stroke"  transform=" translate(-137.55, -130.93)" d="M 145.74 122.85 L 129.35 122.85 L 129.35 139 L 132.35 139 L 132.35 138.79 C 133.59861116308497 131.45642928991387 138.7059274930965 125.36664267785669 145.70999999999998 122.85999999999999" stroke-linecap="round" />
</g>
<g transform="matrix(1.75 0 0 1.75 400 420.54)" style="" clip-path="url(#CLIPPATH_49)"  >
<clipPath id="CLIPPATH_49" >
	<rect transform="matrix(1 0 0 1 -10.76 -67.83)" id="clip-path" x="-235.275" y="-205.78" rx="0" ry="0" width="470.55" height="411.56" />
</clipPath>
		<text xml:space="preserve" font-family="FuturaBT-Heavy, Futura Hv BT" font-size="35.25" font-style="normal" font-weight="800" style="stroke: none; stroke-width: 1; stroke-dasharray: none; stroke-linecap: butt; stroke-dashoffset: 0; stroke-linejoin: miter; stroke-miterlimit: 4; fill: rgb(255,255,255); fill-rule: nonzero; opacity: 1; white-space: pre;" ><tspan x="-185.91" y="11.07" >FAMILIAS INSCRITAS</tspan></text>
</g>
<g transform="matrix(2.49 0 0 2.49 342.53 50.93)" clip-path="url(#CLIPPATH_50)"  >
<clipPath id="CLIPPATH_50" >
	<rect transform="matrix(1 0 0 1 15.53 148.94)" id="clip-path" x="-235.275" y="-205.78" rx="0" ry="0" width="470.55" height="411.56" />
</clipPath>
<path style="stroke: none; stroke-width: 1; stroke-dasharray: none; stroke-linecap: butt; stroke-dashoffset: 0; stroke-linejoin: miter; stroke-miterlimit: 4; fill: rgb(255,244,232); fill-rule: nonzero; opacity: 1;" vector-effect="non-scaling-stroke"  transform=" translate(-219.75, -56.84)" d="M 219.74 66.2 C 223.52758358692563 66.20404440664683 226.9442790795316 63.925037271959994 228.39559345922572 60.42653868592817 C 229.84690783891983 56.92804009989635 229.04674170122053 52.89971342977303 226.36851413572376 50.22148586427626 C 223.690286570227 47.54325829877948 219.66195990010368 46.743092161080185 216.16346131407187 48.194406540774295 C 212.66496272804002 49.645720920468406 210.38595559335317 53.06241641307437 210.39000000000001 56.849999999999994 C 210.4010006748219 62.009298912210646 214.58070108778938 66.18899932517813 219.74 66.2 Z" stroke-linecap="round" />
</g>
<g transform="matrix(2.49 0 0 2.49 342.44 167.02)" clip-path="url(#CLIPPATH_51)"  >
<clipPath id="CLIPPATH_51" >
	<rect transform="matrix(1 0 0 1 15.56 102.29)" id="clip-path" x="-235.275" y="-205.78" rx="0" ry="0" width="470.55" height="411.56" />
</clipPath>
<path style="stroke: none; stroke-width: 1; stroke-dasharray: none; stroke-linecap: butt; stroke-dashoffset: 0; stroke-linejoin: miter; stroke-miterlimit: 4; fill: rgb(255,244,232); fill-rule: nonzero; opacity: 1;" vector-effect="non-scaling-stroke"  transform=" translate(-219.71, -103.49)" d="M 231.07 69.39 L 208.4 69.39 C 204.7091208693074 69.39551701532508 201.71999587666787 72.38911674597756 201.72 76.08 L 201.72 98 C 201.72 99.67066136823816 203.07433863176186 101.025 204.745 101.025 C 206.41566136823815 101.025 207.77 99.67066136823816 207.77 98 L 207.77 79.84 C 207.77 79.11650697772166 208.35650697772166 78.53 209.08 78.53 C 209.80349302227836 78.53 210.39000000000001 79.11650697772166 210.39000000000001 79.84 L 210.39000000000001 133 C 210.1546997754163 134.55540138253275 210.8529189718555 136.10430488268946 212.1742086693398 136.95802216129857 C 213.49549836682414 137.81173943990765 215.1945016331759 137.81173943990765 216.51579133066022 136.95802216129857 C 217.83708102814452 136.10430488268946 218.53530022458372 134.55540138253275 218.3 133 L 218.3 107.83 C 218.29999997233423 107.3155375320884 218.57446241575158 106.84015459596134 219.0199999776457 106.58292335401912 C 219.46553753953984 106.3256921120769 220.01446246046018 106.3256921120769 220.4600000223543 106.58292335401912 C 220.90553758424844 106.84015459596134 221.18000002766578 107.3155375320884 221.18 107.83 L 221.18 133 C 220.9446997754163 134.55540138253275 221.6429189718555 136.10430488268946 222.9642086693398 136.95802216129857 C 224.28549836682413 137.81173943990765 225.98450163317588 137.81173943990765 227.3057913306602 136.95802216129857 C 228.62708102814452 136.10430488268946 229.3253002245837 134.55540138253275 229.09 133 L 229.09 79.84 C 229.09 79.11650697772166 229.67650697772166 78.53 230.4 78.53 C 231.12349302227835 78.53 231.71 79.11650697772166 231.71 79.84 L 231.71 98 C 231.71 99.65685424949238 233.05314575050764 101 234.71 101 C 236.36685424949238 101 237.71 99.65685424949238 237.71 98 L 237.71 76.08 C 237.70466500227477 72.4068961602081 234.74296046160268 69.4228896275129 231.07 69.39 Z" stroke-linecap="round" />
</g>
<g transform="matrix(2.49 0 0 2.49 448.68 50.93)" clip-path="url(#CLIPPATH_52)"  >
<clipPath id="CLIPPATH_52" >
	<rect transform="matrix(1 0 0 1 -27.14 148.94)" id="clip-path" x="-235.275" y="-205.78" rx="0" ry="0" width="470.55" height="411.56" />
</clipPath>
<path style="stroke: none; stroke-width: 1; stroke-dasharray: none; stroke-linecap: butt; stroke-dashoffset: 0; stroke-linejoin: miter; stroke-miterlimit: 4; fill: rgb(255,244,232); fill-rule: nonzero; opacity: 1;" vector-effect="non-scaling-stroke"  transform=" translate(-262.41, -56.84)" d="M 262.41 66.2 C 266.19667615989584 66.19999783889138 269.6103027446861 63.91842353906953 271.0584650149195 60.4196033980791 C 272.5066272851529 56.92078325708866 271.7039908678362 52.89409696093999 269.0249757616448 50.217944050374875 C 266.3459606554534 47.54179113980976 262.3184186842311 46.743459494415745 258.821148550598 48.195360989809274 C 255.32387841696496 49.6472624852028 253.0459544058127 53.063326001212204 253.05 56.849999999999994 C 253.0610177906759 62.013194894918605 257.24679627750555 66.1945013961854 262.41 66.2 Z" stroke-linecap="round" />
</g>
<g transform="matrix(2.49 0 0 2.49 448.17 165.57)" clip-path="url(#CLIPPATH_53)"  >
<clipPath id="CLIPPATH_53" >
	<rect transform="matrix(1 0 0 1 -26.93 102.87)" id="clip-path" x="-235.275" y="-205.78" rx="0" ry="0" width="470.55" height="411.56" />
</clipPath>
<path style="stroke: none; stroke-width: 1; stroke-dasharray: none; stroke-linecap: butt; stroke-dashoffset: 0; stroke-linejoin: miter; stroke-miterlimit: 4; fill: rgb(255,244,232); fill-rule: nonzero; opacity: 1;" vector-effect="non-scaling-stroke"  transform=" translate(-262.21, -102.91)" d="M 284.3 95.3 L 276 78.43 L 273.18 72.64 C 272.20421801492904 70.65732768213933 270.1897672229958 69.39829593718103 267.98 69.39 L 256.43 69.39 C 254.22023277700424 69.39829593718103 252.20578198507098 70.65732768213933 251.23000000000002 72.64 L 248.41000000000003 78.43 L 240.1 95.3 C 239.38124431875923 96.78592971195663 239.99790863695523 98.57336251832186 241.48 99.3 L 241.48 99.3 C 242.96860225563697 100.01736309542758 244.75702666999845 99.39588561143697 245.48 97.91 L 252.06 84.53 L 253.06 85.09 L 252.93 85.61 L 245.41 109.49 C 245.07098489587275 110.2264510606321 245.1391573009407 111.08618083565581 245.59 111.75999999999999 C 246.0295324705787 112.43807396541 246.78193464983178 112.84813315310292 247.59 112.85 L 251.79 112.85 C 252.0958170577727 112.84730541923705 252.38989227075197 112.96760031060589 252.60614598007302 113.18385401992695 C 252.8223996893941 113.40010772924803 252.94269458076295 113.69418294222729 252.94 114 L 252.94 133 C 253.2208855282586 134.97123327023965 254.90885528258622 136.43573056081343 256.9 136.43573056081343 C 258.8911447174138 136.43573056081343 260.57911447174143 134.97123327023965 260.86 133 L 260.86 113.94 C 260.86 113.38771525016921 261.3077152501692 112.94 261.86 112.94 L 262.28000000000003 112.94 C 262.8322847498308 112.94 263.28000000000003 113.38771525016921 263.28000000000003 113.94 L 263.28000000000003 133 C 263.5608855282586 134.97123327023965 265.24885528258625 136.43573056081343 267.24 136.43573056081343 C 269.2311447174138 136.43573056081343 270.91911447174147 134.97123327023965 271.20000000000005 133 L 271.20000000000005 114.07 C 271.19730541923707 113.7641829422273 271.31760031060594 113.47010772924803 271.533854019927 113.25385401992696 C 271.75010772924804 113.0376003106059 272.04418294222734 112.91730541923704 272.35 112.91999999999999 L 276.55 112.91999999999999 C 277.3578524813252 112.91675917099823 278.1098715999631 112.50730576282567 278.5509945877469 111.83051432951358 C 278.99211757553064 111.1537228962015 279.063150093265 110.30041214993997 278.74 109.55999999999999 L 278.74 109.49 L 271.22 85.2 L 272.28000000000003 84.60000000000001 L 272.58000000000004 85.19000000000001 L 278.87 98 C 279.6100615647733 99.4994530957906 281.4255469042094 100.11506156477327 282.925 99.375 C 284.4244530957906 98.63493843522673 285.0400615647733 96.8194530957906 284.3 95.32 Z" stroke-linecap="round" />
</g>
<g transform="matrix(2.49 0 0 2.49 249.07 100.99)" clip-path="url(#CLIPPATH_54)"  >
<clipPath id="CLIPPATH_54" >
	<rect transform="matrix(1 0 0 1 53.09 128.82)" id="clip-path" x="-235.275" y="-205.78" rx="0" ry="0" width="470.55" height="411.56" />
</clipPath>
<circle style="stroke: none; stroke-width: 1; stroke-dasharray: none; stroke-linecap: butt; stroke-dashoffset: 0; stroke-linejoin: miter; stroke-miterlimit: 4; fill: rgb(251,216,0); fill-rule: nonzero; opacity: 1;" vector-effect="non-scaling-stroke"  cx="0" cy="0" r="7.99" />
</g>
<g transform="matrix(2.49 0 0 2.49 249.14 189.53)" clip-path="url(#CLIPPATH_55)"  >
<clipPath id="CLIPPATH_55" >
	<rect transform="matrix(1 0 0 1 53.06 93.24)" id="clip-path" x="-235.275" y="-205.78" rx="0" ry="0" width="470.55" height="411.56" />
</clipPath>
<path style="stroke: none; stroke-width: 1; stroke-dasharray: none; stroke-linecap: butt; stroke-dashoffset: 0; stroke-linejoin: miter; stroke-miterlimit: 4; fill: rgb(251,216,0); fill-rule: nonzero; opacity: 1;" vector-effect="non-scaling-stroke"  transform=" translate(-182.22, -112.54)" d="M 200.39 104.18 C 200.51963879988497 103.58244912029457 200.40049967545164 102.95787128614411 200.05999999999997 102.45 L 192.05999999999997 90.3 C 191.07625876607517 88.7944431756533 189.39845585093698 87.8878276990876 187.59999999999997 87.89 L 187.59999999999997 87.89 L 176.79999999999995 87.89 C 175.0043774611401 87.88926105326496 173.32860110474383 88.79102411500287 172.33999999999995 90.29 L 164.43999999999994 102.29 C 163.71540991168712 103.33276682088852 163.91584613722821 104.75760694593073 164.89999999999995 105.56 C 165.4118063103953 105.93541135680893 166.0555363736018 106.08368625900818 166.67999999999995 105.97 C 167.30347870402053 105.86202763074242 167.85404709512693 105.4998115839619 168.19999999999996 104.97 L 172.37999999999997 98.61 C 172.5639834882992 98.33061478778205 172.8754809039314 98.16173064677665 173.20999999999998 98.16 C 173.30605878072552 98.14466868464334 173.40394121927443 98.14466868464334 173.49999999999997 98.16 C 173.94125906371207 98.28830613199557 174.23827551041234 98.70082897463482 174.21999999999997 99.16 L 174.21999999999997 99.35 L 168.5 117 C 168.32895269260493 117.52352307365544 168.42212599966285 118.09747064513226 168.75 118.54 C 169.07080078208733 118.98681451727273 169.590011205788 119.24828739251767 170.14 119.24000000000001 L 174.20999999999998 119.24000000000001 L 174.20999999999998 133.7 C 174.17979256659947 135.4540209503444 175.47067177106825 136.9514408275282 177.20999999999998 137.17999999999998 C 178.14866038541766 137.27591942922066 179.08364060036084 136.96668472778032 179.77999999999997 136.32999999999998 C 180.47114392027373 135.69835428661503 180.866407147328 134.80629232463937 180.86999999999998 133.86999999999998 L 180.86999999999998 120.59 C 180.8699790333865 119.87039429645282 181.45041526276083 119.2854931730064 182.17 119.28 C 182.52446450921462 119.27196377358706 182.86746526473488 119.40579216963332 183.1228240770095 119.6517627902802 C 183.37818288928415 119.89773341092709 183.52475942170526 120.23548313782436 183.53 120.59 L 183.53 133.87 C 183.6268621973927 135.63557810583046 185.0867668894991 137.0175856365305 186.855 137.0175856365305 C 188.6232331105009 137.0175856365305 190.0831378026073 135.63557810583046 190.18 133.87 L 190.18 119.28 L 194.18 119.28 C 194.73017325058353 119.28457759373853 195.24894264025997 119.0241523260235 195.57396260336418 118.5802226203202 C 195.89898256646836 118.13629291461689 195.99054647914602 117.56309220838489 195.82 117.04 L 190.15 99.28 L 190.15 99.18 C 190.13172448958764 98.72082897463483 190.4287409362879 98.30830613199558 190.87 98.18 C 191.29594180139776 98.04975954351217 191.7566758045618 98.21692851811152 192 98.59 L 196.2 105 C 196.90460514754162 106.061177019841 198.33302086624025 106.35578776182258 199.39999999999998 105.66 C 199.91862575352053 105.32292930645437 200.2764345652483 104.78802320407345 200.39 104.18 Z" stroke-linecap="round" />
</g>
<g transform="matrix(2.49 0 0 2.49 550.79 100.45)" clip-path="url(#CLIPPATH_56)"  >
<clipPath id="CLIPPATH_56" >
	<rect transform="matrix(1 0 0 1 -68.17 129.04)" id="clip-path" x="-235.275" y="-205.78" rx="0" ry="0" width="470.55" height="411.56" />
</clipPath>
<circle style="stroke: none; stroke-width: 1; stroke-dasharray: none; stroke-linecap: butt; stroke-dashoffset: 0; stroke-linejoin: miter; stroke-miterlimit: 4; fill: rgb(251,216,0); fill-rule: nonzero; opacity: 1;" vector-effect="non-scaling-stroke"  cx="0" cy="0" r="7.99" />
</g>
<g transform="matrix(2.49 0 0 2.49 550.79 189.06)" clip-path="url(#CLIPPATH_57)"  >
<clipPath id="CLIPPATH_57" >
	<rect transform="matrix(1 0 0 1 -68.17 93.43)" id="clip-path" x="-235.275" y="-205.78" rx="0" ry="0" width="470.55" height="411.56" />
</clipPath>
<path style="stroke: none; stroke-width: 1; stroke-dasharray: none; stroke-linecap: butt; stroke-dashoffset: 0; stroke-linejoin: miter; stroke-miterlimit: 4; fill: rgb(251,216,0); fill-rule: nonzero; opacity: 1;" vector-effect="non-scaling-stroke"  transform=" translate(-303.45, -112.35)" d="M 321.65 104 C 321.7801222762529 103.39924262910087 321.6610481914363 102.77139745461326 321.32 102.26 L 313.32 90.11 C 312.3352103531724 88.60686224352112 310.6569961508759 87.70378733645575 308.86 87.71 L 298.05 87.71 C 296.25437746114017 87.70926105326497 294.5786011047439 88.61102411500288 293.59000000000003 90.11 L 285.59000000000003 102.25 C 285.24895180856373 102.76139745461326 285.12987772374714 103.38924262910086 285.26000000000005 103.99 C 285.4504207301892 104.90341966404428 286.17165737868334 105.61259312293954 287.088158675445 105.78758143735705 C 288.0046599722067 105.96256975177455 288.93644261453255 105.56900856797618 289.45000000000005 104.78999999999999 L 293.63000000000005 98.42999999999999 C 293.81398348829924 98.15061478778206 294.1254809039315 97.98173064677665 294.46000000000004 97.97999999999999 C 294.5561531498155 97.96590887338989 294.6538468501846 97.96590887338989 294.75000000000006 97.97999999999999 C 295.19125906371215 98.10830613199555 295.48827551041245 98.5208289746348 295.4700000000001 98.97999999999999 L 295.4700000000001 133.5 C 295.4352018844197 135.2556783390239 296.7283560814803 136.75573720761417 298.4700000000001 136.98 C 299.40533078697956 137.07314951488695 300.3364655466564 136.76666609413908 301.0336131867501 136.13618557809815 C 301.73076082684366 135.5057050620572 302.12898154014977 134.60995716707458 302.1300000000001 133.67 L 302.1300000000001 118.23 C 302.0864471637117 117.72914149115833 302.32903635817314 117.24653056200724 302.75698049309545 116.98267470587844 C 303.18492462801777 116.71881884974964 303.7250753719824 116.71881884974964 304.15301950690474 116.98267470587844 C 304.58096364182705 117.24653056200724 304.8235528362885 117.72914149115833 304.7800000000001 118.23 L 304.7800000000001 133.64000000000001 C 304.7800000000001 135.47910821693657 306.2708917830636 136.97000000000003 308.1100000000001 136.97000000000003 C 309.9491082169366 136.97000000000003 311.4400000000001 135.47910821693657 311.4400000000001 133.64000000000001 L 311.4400000000001 99 C 311.42172448958775 98.5408289746348 311.71874093628804 98.12830613199556 312.16000000000014 98 C 312.58289864152573 97.8747140712805 313.03793870133353 98.04129123603157 313.28000000000014 98.41 L 317.46000000000015 104.77 C 318.16460514754175 105.831177019841 319.5930208662404 106.12578776182258 320.66000000000014 105.42999999999999 L 320.66000000000014 105.42999999999999 C 321.1636972860557 105.1005131736746 321.51890177525104 104.58744002261459 321.65 104 Z" stroke-linecap="round" />
</g>
</svg>