<?xml version="1.0" encoding="UTF-8" standalone="no" ?>
<!DOCTYPE svg PUBLIC "-//W3C//DTD SVG 1.1//EN" "http://www.w3.org/Graphics/SVG/1.1/DTD/svg11.dtd">
<svg xmlns="http://www.w3.org/2000/svg" xmlns:xlink="http://www.w3.org/1999/xlink" version="1.1" width="800" height="550" viewBox="0 0 800 550" xml:space="preserve">
<desc>Created with Fabric.js 5.2.4</desc>
<defs>
</defs>
<rect x="0" y="0" width="100%" height="100%" fill="transparent"></rect>
<g transform="matrix(1 0 0 1 400 275)" id="f5d0bbb0-e47d-4d15-a8f7-5492a4c071c8"  >
<rect style="stroke: none; stroke-width: 1; stroke-dasharray: none; stroke-linecap: butt; stroke-dashoffset: 0; stroke-linejoin: miter; stroke-miterlimit: 4; fill: rgb(255,0,0); fill-rule: nonzero; opacity: 1; visibility: hidden;" vector-effect="non-scaling-stroke"  x="-400" y="-275" rx="0" ry="0" width="800" height="550" />
</g>
<g transform="matrix(0 0 0 0 0 0)" id="0c909cfe-1c83-47ec-bf39-8aa5297d1eca"  >
</g>
<g transform="matrix(0.51 0 0 0.51 657.08 283.02)"  >
<rect style="stroke: none; stroke-width: 1; stroke-dasharray: none; stroke-linecap: butt; stroke-dashoffset: 0; stroke-linejoin: miter; stroke-miterlimit: 4; fill: rgb(255,0,0); fill-rule: nonzero; opacity: 1; visibility: hidden;" vector-effect="non-scaling-stroke"  x="-400" y="-275" rx="0" ry="0" width="800" height="550" />
</g>
<g transform="matrix(1.67 0 0 1.67 399.46 420.25)" style="" clip-path="url(#CLIPPATH_78)"  >
<clipPath id="CLIPPATH_78" >
	<rect transform="matrix(1 0 0 1 -4 -67.93)" id="clip-path" x="-235.275" y="-205.78" rx="0" ry="0" width="470.55" height="411.56" />
</clipPath>
		<text xml:space="preserve" font-family="FuturaBT-Heavy, Futura Hv BT" font-size="35.25" font-style="normal" font-weight="800" style="stroke: none; stroke-width: 1; stroke-dasharray: none; stroke-linecap: butt; stroke-dashoffset: 0; stroke-linejoin: miter; stroke-miterlimit: 4; fill: rgb(255,255,255); fill-rule: nonzero; opacity: 1; white-space: pre;" ><tspan x="-109.37" y="11.07" >TONELADAS</tspan></text>
</g>
<g transform="matrix(1.77 0 0 1.77 398.87 140.86)"  >
<path style="stroke: none; stroke-width: 1; stroke-dasharray: none; stroke-linecap: butt; stroke-dashoffset: 0; stroke-linejoin: miter; stroke-miterlimit: 4; fill: rgb(255,244,232); fill-rule: nonzero; opacity: 1;" vector-effect="non-scaling-stroke"  transform=" translate(-234.17, -68.59)" d="M 198.19 2 L 274.40999999999997 2 L 274.40999999999997 15.28 C 278.7305635438914 21.724784721829412 281.78491830296076 28.933061953233164 283.40999999999997 36.51999999999997 C 285.96999999999997 48.83 287.64 125.2 280.71 131.33999999999997 C 273.78 137.47999999999996 190.05999999999997 135.33999999999997 185.44 131.33999999999997 C 180.82000000000002 127.33999999999997 182.17 48.059999999999974 188.71 30.869999999999976 C 188.71 30.869999999999976 195.39000000000001 14.699999999999974 197.71 12.779999999999976 Z" stroke-linecap="round" />
</g>
<g transform="matrix(1.77 0 0 1.77 471.69 134.29)" clip-path="url(#CLIPPATH_79)"  >
<clipPath id="CLIPPATH_79" >
	<path transform="matrix(1 0 0 1 -41.2 3.72) translate(-234.17, -68.59)" d="M 198.19 2 L 274.40999999999997 2 L 274.40999999999997 15.28 C 278.7305635438914 21.724784721829412 281.78491830296076 28.933061953233164 283.40999999999997 36.51999999999997 C 285.96999999999997 48.83 287.64 125.2 280.71 131.33999999999997 C 273.78 137.47999999999996 190.05999999999997 135.33999999999997 185.44 131.33999999999997 C 180.82000000000002 127.33999999999997 182.17 48.059999999999974 188.71 30.869999999999976 C 188.71 30.869999999999976 195.39000000000001 14.699999999999974 197.71 12.779999999999976 Z" stroke-linecap="round" />
</clipPath>
<path style="stroke: none; stroke-width: 1; stroke-dasharray: none; stroke-linecap: butt; stroke-dashoffset: 0; stroke-linejoin: miter; stroke-miterlimit: 4; fill: rgb(233,209,185); fill-rule: nonzero; opacity: 1;" vector-effect="non-scaling-stroke"  transform=" translate(-275.37, -64.87)" d="M 268.73 0.61 C 268.22 7.32 267.73 14.28 270.07 20.61 C 271.39 24.169999999999998 273.54 27.36 275.13 30.81 C 279.13 39.43 279.35 49.239999999999995 279.52 58.730000000000004 C 279.88 78.05000000000001 280.24 97.48 277.35999999999996 116.59 C 276.83 120.17 276.09999999999997 123.9 273.85999999999996 126.74000000000001 C 272.46090288449597 128.37713489681136 270.76432365638993 129.73439827929616 268.85999999999996 130.74 C 264.0599670254461 133.437071313715 258.6826705249664 134.94257715791818 253.17999999999995 135.13 C 247.67999999999995 135.29999999999998 241.41999999999996 134.39 237.37999999999994 138.13 C 239.46999999999994 140.13 242.66999999999993 140.25 245.55999999999995 140.25 L 298.3 140.25 C 299.77100110881844 140.37362303882767 301.249503920855 140.12605977727736 302.6 139.53 C 303.7552878288054 138.78428684753607 304.6962250644316 137.7502898853095 305.33000000000004 136.53 C 308.19247046320976 131.52590005806874 310.17141357372367 126.06604675829186 311.18000000000006 120.39 C 313.5900000000001 108.39 313.25000000000006 95.95 313.2300000000001 83.66 C 313.18000000000006 56.26 314.74000000000007 28.439999999999998 308.1500000000001 1.8299999999999983 C 307.1500000000001 -2.410000000000002 305.5600000000001 -6.990000000000002 301.8100000000001 -9.170000000000002 C 297.3100000000001 -11.860000000000001 291.5700000000001 -10.100000000000001 286.6400000000001 -8.280000000000001 L 267.35 -1.23" stroke-linecap="round" />
</g>
<g transform="matrix(1.77 0 0 1.77 328.33 133.54)" clip-path="url(#CLIPPATH_80)"  >
<clipPath id="CLIPPATH_80" >
	<path transform="matrix(1 0 0 1 39.88 4.14) translate(-234.17, -68.59)" d="M 198.19 2 L 274.40999999999997 2 L 274.40999999999997 15.28 C 278.7305635438914 21.724784721829412 281.78491830296076 28.933061953233164 283.40999999999997 36.51999999999997 C 285.96999999999997 48.83 287.64 125.2 280.71 131.33999999999997 C 273.78 137.47999999999996 190.05999999999997 135.33999999999997 185.44 131.33999999999997 C 180.82000000000002 127.33999999999997 182.17 48.059999999999974 188.71 30.869999999999976 C 188.71 30.869999999999976 195.39000000000001 14.699999999999974 197.71 12.779999999999976 Z" stroke-linecap="round" />
</clipPath>
<path style="stroke: none; stroke-width: 1; stroke-dasharray: none; stroke-linecap: butt; stroke-dashoffset: 0; stroke-linejoin: miter; stroke-miterlimit: 4; fill: rgb(233,209,185); fill-rule: nonzero; opacity: 1;" vector-effect="non-scaling-stroke"  transform=" translate(-194.29, -64.45)" d="M 200.93 0.19 C 201.44 6.9 201.93 13.86 199.59 20.19 C 198.28 23.75 196.12 26.94 194.53 30.39 C 190.53 39.01 190.32 48.82 190.14000000000001 58.31 C 189.78 77.63 189.43 97.06 192.3 116.17 C 192.84 119.75 193.56 123.48 195.81 126.32000000000001 C 197.20481153653105 127.961555410381 198.90230438429222 129.31954968858992 200.81 130.32 C 205.60958195712897 133.0181607575113 210.9871492344779 134.52374241233028 216.49 134.70999999999998 C 221.98000000000002 134.87999999999997 228.25 133.96999999999997 232.29000000000002 137.70999999999998 C 230.20000000000002 139.70999999999998 227.00000000000003 139.82999999999998 224.11 139.82999999999998 L 171.37 139.82999999999998 C 169.89575317521118 139.95360011260948 168.4140231558349 139.7060721279341 167.06 139.10999999999999 C 165.90738757650786 138.36113349147226 164.9671658935081 137.3279228508132 164.33 136.10999999999999 C 161.4749958926428 131.10340421905565 159.499702493652 125.6442885581462 158.49 119.96999999999998 C 156.08 107.96999999999998 156.42000000000002 95.52999999999999 156.44 83.23999999999998 C 156.44 55.83999999999998 154.93 28.009999999999984 161.51 1.4099999999999824 C 162.56 -2.830000000000018 164.1 -7.410000000000018 167.85 -9.590000000000018 C 172.35999999999999 -12.280000000000017 178.1 -10.520000000000017 183.01999999999998 -8.700000000000017 L 202.30999999999997 -1.5700000000000172" stroke-linecap="round" />
</g>
<g transform="matrix(1.77 0 0 1.77 398.02 23.21)" clip-path="url(#CLIPPATH_81)"  >
<clipPath id="CLIPPATH_81" >
	<path transform="matrix(1 0 0 1 0.48 66.47) translate(-234.17, -68.59)" d="M 198.19 2 L 274.40999999999997 2 L 274.40999999999997 15.28 C 278.7305635438914 21.724784721829412 281.78491830296076 28.933061953233164 283.40999999999997 36.51999999999997 C 285.96999999999997 48.83 287.64 125.2 280.71 131.33999999999997 C 273.78 137.47999999999996 190.05999999999997 135.33999999999997 185.44 131.33999999999997 C 180.82000000000002 127.33999999999997 182.17 48.059999999999974 188.71 30.869999999999976 C 188.71 30.869999999999976 195.39000000000001 14.699999999999974 197.71 12.779999999999976 Z" stroke-linecap="round" />
</clipPath>
<rect style="stroke: none; stroke-width: 1; stroke-dasharray: none; stroke-linecap: butt; stroke-dashoffset: 0; stroke-linejoin: miter; stroke-miterlimit: 4; fill: rgb(233,209,185); fill-rule: nonzero; opacity: 1;" vector-effect="non-scaling-stroke"  x="-44.055" y="-10.755" rx="0" ry="0" width="88.11" height="21.51" />
</g>
<g transform="matrix(1.77 0 0 1.77 397.73 126.07)"  >
<path style="stroke: none; stroke-width: 1; stroke-dasharray: none; stroke-linecap: butt; stroke-dashoffset: 0; stroke-linejoin: miter; stroke-miterlimit: 4; fill: rgb(251,216,0); fill-rule: nonzero; opacity: 1;" vector-effect="non-scaling-stroke"  transform=" translate(-233.55, -60.29)" d="M 208.45 50.76 C 208.45 50.76 216.10999999999999 47.48 219.26 48.19 C 222.41 48.9 225.66 49.919999999999995 226.26 53.68 C 226.85999999999999 57.440000000000005 224.73 68.53 220.37 73.74 L 218.66 75.53 L 221.74 76.9 C 221.74 76.9 225.09 74.60000000000001 226.36 74.9 C 227.63000000000002 75.2 233.36 73.02000000000001 235.23000000000002 71.4 C 237.10000000000002 69.78 242.67000000000002 65.68 242.74 58.50000000000001 C 242.74 58.50000000000001 244.24 58.660000000000004 244.02 62.50000000000001 C 243.8 66.34 241.12 70.41000000000001 245.9 73.14000000000001 C 250.68 75.87000000000002 259.64 66.74000000000001 259.22 64.14000000000001 C 258.80000000000007 61.54000000000002 261 51 247 50.6 C 247 50.6 237.32 50.76 234.35 55.6 C 234.35 55.6 234.04 48.99 225.75 45.75 C 225.75 45.75 220.28 40.75 212.25 46.26 C 212.25 46.26 206.79 50.46 208.07 50.79" stroke-linecap="round" />
</g>
<g transform="matrix(1.77 0 0 1.77 398.95 140.72)"  >
<path style="stroke: none; stroke-width: 1; stroke-dasharray: none; stroke-linecap: butt; stroke-dashoffset: 0; stroke-linejoin: miter; stroke-miterlimit: 4; fill: rgb(22,92,70); fill-rule: nonzero; opacity: 1;" vector-effect="non-scaling-stroke"  transform=" translate(-234.24, -68.56)" d="M 208.6 50 L 208.6 49.9 C 208.85999999999999 49.699999999999996 209.10999999999999 49.48 209.38 49.29 C 211.67254359111604 47.48725809011389 214.46737658649428 46.43919571684705 217.37999999999997 46.29 C 219.27655223789165 46.18242578735205 221.1298306593783 46.883764484110735 222.48 48.22 C 223.52902413762544 49.30687061297779 224.3067664405691 50.6259489681906 224.75 52.06999999999999 C 225.73387183792718 55.08120806898502 225.91653353234082 58.296743180078 225.28 61.400000000000006 C 224.4721425405253 65.6765059051704 222.6168165317077 69.68607155755954 219.88 73.07 C 219.13 74.00999999999999 218.29999999999998 74.88999999999999 217.5 75.8 C 217.5233575786527 75.82406882968023 217.55035380148422 75.84431599680387 217.58 75.86 L 221.67000000000002 77.86 C 221.96626823584708 78.01836188198378 222.33401132581304 77.93284023315448 222.53000000000003 77.66 C 223.28017126746067 76.76021386257518 224.2949429908944 76.11985791296011 225.43000000000004 75.83 C 226.34000000000003 75.58 227.26000000000005 75.36 228.19000000000003 75.2 C 231.50817174763858 74.67670014125947 234.6089223844426 73.21997165417035 237.13000000000002 71 C 240.45000000000002 68 242.83 64.56 243.13000000000002 59.95 C 243.13000000000002 59.84 243.25000000000003 59.75 243.31000000000003 59.650000000000006 C 243.38000000000002 59.74000000000001 243.51000000000002 59.82000000000001 243.53000000000003 59.92000000000001 C 243.67339307678316 60.55321631120014 243.74385144472396 61.20076226417994 243.74000000000004 61.85000000000001 C 243.61788019149387 62.76218930219377 243.4307369953406 63.6644868550756 243.18000000000004 64.55000000000001 C 242.92000000000004 65.64000000000001 242.53000000000003 66.71000000000001 242.36000000000004 67.81000000000002 C 241.97458820930632 70.43670273635963 243.52396087657598 72.96285382429932 246.04000000000005 73.81000000000002 C 247.98138357725452 74.44177654284579 250.09185765683506 74.29845062912216 251.93000000000004 73.41000000000001 C 255.22220168917775 71.92769293297009 257.9201743889735 69.38117300875031 259.59000000000003 66.18 C 260.4582964043005 64.59459630833966 260.88968446798657 62.80692417242457 260.84 61 C 260.84408228161584 58.00186252557375 259.4222343597174 55.180441061754365 257.01 53.4 C 253.30121316371952 50.51125944842616 248.52792606697315 49.35984057623391 243.91 50.239999999999995 C 239.0375674511017 51.08809351061344 234.64818933405658 53.70107286009528 231.57999999999998 57.580000000000005 C 231.07 58.199999999999996 230.64 58.89 230.19 59.58 C 230.14 59.66 230.19 59.8 230.19 59.91 C 230.29612031648506 59.865977190760134 230.39962414373855 59.815894693701985 230.5 59.76 C 230.55 59.76 230.57 59.66 230.61 59.62 C 233.0931526096384 56.23843811465731 236.50451243962507 53.65039017846579 240.43 52.17 C 243.78636873965408 50.79851903960549 247.52434017893978 50.68137463552531 250.96 51.839999999999996 C 255.74040601615698 53.24707985183369 258.59795259146864 58.13383511482829 257.48 62.98999999999999 C 256.9016340023522 65.83012075250369 255.4590576925024 68.42186802104743 253.35000000000002 70.41 C 251.96775699424379 71.84055158688456 250.12020600061234 72.73063853391237 248.14000000000001 72.92 C 246.48998259708745 73.15965544461274 244.87385383711361 72.30714752372653 244.14000000000001 70.81 C 243.62258016159137 69.81401493353809 243.430237014686 68.68093894085928 243.59 67.57000000000001 C 243.81 66.27000000000001 244.12 65.00000000000001 244.44 63.720000000000006 C 245.29855552153407 60.58505071329953 243.88617405436085 57.271545804975275 241.03 55.720000000000006 C 240.38645595595656 55.42006686607008 239.7170508076885 55.17908101269359 239.03 55.00000000000001 C 238.96 55.00000000000001 238.85 55.06000000000001 238.76 55.09000000000001 C 238.82024506058625 55.15775613694857 238.89118475206797 55.21518350624331 238.97 55.26000000000001 C 239.29 55.390000000000015 239.63 55.47000000000001 239.97 55.610000000000014 C 241.77605445750032 56.29872262911016 242.7288520470859 58.278960937419335 242.14 60.12000000000001 C 241.10546622601834 64.02482880325472 238.93764083534305 67.53580122571276 235.91 70.21000000000001 C 233.8516897830835 72.21514742119709 231.22621972301872 73.53835640093718 228.39 74.00000000000001 C 226.3641022588883 74.18940520752203 224.41638641926525 74.87643019504338 222.72 76.00000000000001 C 221.7380585989814 76.54373975882413 220.51486878882685 76.37249318540249 219.72 75.58000000000001 C 220.72 74.14000000000001 221.72 72.76000000000002 222.72 71.30000000000001 C 225.18428194628387 67.60834656819453 226.76828810349292 63.40029565379464 227.35 59.000000000000014 C 227.69916330236384 56.18736919005845 227.33107669577814 53.33211794271121 226.28 50.7 C 224.89386036574078 46.75131879572304 220.85054176778445 44.388835258906674 216.73 45.120000000000005 C 215.89999999999998 45.230000000000004 215.09 45.470000000000006 214.26999999999998 45.63 C 214.17 45.63 214.05999999999997 45.57 213.95 45.54 C 214 45.449999999999996 214.04 45.33 214.11999999999998 45.28 C 214.27322295499349 45.19270142927105 214.43384492128126 45.11908302805582 214.59999999999997 45.06 C 217.37484745485744 43.97761577885542 220.4395233752633 43.89278045925941 223.26999999999995 44.82 C 225.48928633705935 45.53633931799217 227.59162103480264 46.5740301623911 229.50999999999996 47.9 C 229.64999999999995 47.99 229.81999999999996 48.17 229.94999999999996 47.9 C 229.94999999999996 47.83 229.86999999999995 47.6 229.75999999999996 47.53 C 228.75999999999996 46.83 227.75999999999996 46.13 226.75999999999996 45.53 C 224.35671557765858 43.966472923012155 221.5105504109156 43.22597865644894 218.64999999999998 43.42 C 215.1599565716366 43.65384970062112 211.88919119849723 45.20522912350909 209.49999999999997 47.760000000000005 C 208.76903227389676 48.47257618721621 208.16980933686094 49.30877994680858 207.72999999999996 50.230000000000004 C 207.53999999999996 50.68000000000001 207.63999999999996 50.830000000000005 208.11999999999995 50.82000000000001 C 209.10248365827863 50.76652003974432 210.07069552695205 50.56073284814474 210.98999999999995 50.21000000000001 C 212.62999999999994 49.66000000000001 214.26999999999995 49.07000000000001 215.98999999999995 48.60000000000001 C 217.44475762822827 48.14597677973578 218.99356650999493 48.08388644594558 220.47999999999996 48.42000000000001 C 221.23295402691036 48.64154807528114 221.97394403074577 48.90189591446656 222.69999999999996 49.2 C 222.64660682767519 49.1095597102665 222.58284226952642 49.025658975860225 222.50999999999996 48.95000000000001 C 221.829628605097 48.458552560230295 221.05238506545402 48.11765627091319 220.22999999999996 47.95000000000001 C 218.42218717666785 47.60234161560234 216.55921280181352 47.66728934610185 214.77999999999997 48.14000000000001 C 212.9404036721121 48.585978080700855 211.13829798790303 49.174420753095646 209.39 49.90000000000001 C 209.07 49.91 208.83 50 208.6 50 Z M 215.31 92.50999999999999 C 215.38 93.32999999999998 215.41 94.14999999999999 215.53 94.94999999999999 C 215.77045507243446 97.03449656325867 216.59165020143112 99.00952282287089 217.9 100.64999999999999 C 220.0565200368014 103.19388935500957 223.2250492111906 104.65741322308773 226.56 104.64999999999999 C 229.1702708050656 104.76705970123936 231.77534463737058 104.32378797584714 234.2 103.35 C 241 100.8 245.84 96 249.32 89.75 C 249.34021233576317 89.64765506630458 249.34021233576317 89.54234493369542 249.32 89.44 C 249.2228117223107 89.47866090184492 249.13439181419344 89.53647391869082 249.06 89.61 C 248.26 90.67999999999999 247.52 91.8 246.68 92.83 C 243.62962934891735 96.69986568639841 239.66839359074078 99.75410557279821 235.15 101.72 C 232.02545142208166 103.15566688478181 228.5617198367098 103.68908154892907 225.15 103.26 C 221.03322476379532 102.76227294219373 217.68684736577012 99.70513824843965 216.82 95.65 C 216.24498430336914 92.95364901652758 216.24498430336914 90.16635098347243 216.82 87.47 C 217.33036713025652 85.01950925792518 218.0599694598712 82.61985388942189 219 80.30000000000001 C 219.07 80.13 219.16 79.92999999999999 218.91 79.86999999999999 C 218.82 79.86999999999999 218.62 79.99999999999999 218.57 80.11999999999999 C 218.07 81.28999999999999 217.57 82.44999999999999 217.1 83.64999999999999 C 216.00230723382145 86.49350690147315 215.3969837840594 89.50321567403321 215.31 92.55000000000001 Z M 236 51.35 C 236 51.35 236 51.35 236.05 51.35 C 236.08923652632976 51.28995371686769 236.12271832056788 51.22633830781526 236.15 51.160000000000004 C 237.10110131006536 49.020796317596016 238.535337561334 47.13130130399153 240.34 45.64 C 242.83113881521484 43.41432750117856 246.05948044046312 42.1921186960349 249.4 42.209999999999994 C 250.52097434834536 42.227803494530114 251.62794172587337 42.462100270755364 252.66 42.89999999999999 L 252.66 43 C 252.42251755757275 43.5522847498308 252.6777152501692 44.19251755757276 253.23 44.43 C 253.78228474983078 44.66748244242724 254.42251755757275 44.41228474983079 254.66 43.86 C 254.93068693744465 43.39192757490912 254.81731856538318 42.796168644348036 254.39363441408764 42.460229731486486 C 253.9699502627921 42.12429081862493 253.3640344670898 42.14972975817804 252.97 42.519999999999996 C 252.85988396983484 42.57528981552417 252.73011603016516 42.575289815524165 252.62 42.519999999999996 C 250.61276572422918 41.45040699026111 248.28684779050835 41.14146827234704 246.07 41.65 C 242.7013252567728 42.35323223589379 239.7489182789425 44.36345818060406 237.85999999999999 47.239999999999995 L 237.61999999999998 47.58 C 237.5908259658823 47.50265976333343 237.5908259658823 47.41734023666656 237.61999999999998 47.339999999999996 C 238.14784145752756 44.50367626582669 237.72608225647193 41.572449818489915 236.42 39 C 235.33003684367384 36.555937514764665 233.2722176134368 34.67564142234735 230.73999999999998 33.81 C 230.48999999999998 33.72 230.52999999999997 33.57 230.51999999999998 33.400000000000006 C 230.46033283686037 32.83665225357368 229.97191798569747 32.41743670289569 229.40603597144087 32.44386395590558 C 228.84015395718427 32.47029120891546 228.39293527328854 32.93320177645666 228.38603110145542 33.49965847045193 C 228.37912692962232 34.06611516444719 228.8149302044113 34.53978831172274 229.38 34.580000000000005 C 229.83216780932932 34.59946847148889 230.25563199854142 34.35859893267099 230.47 33.96000000000001 L 230.84 34.14000000000001 C 232.08389727578202 34.771826957869216 233.16526912370426 35.68209566529743 234 36.8 C 236.52128647069858 40.15063542427127 237.48934287643857 44.41954581499686 236.66 48.53 C 236.5 49.48 236.19 50.4 236 51.35 Z" stroke-linecap="round" />
</g>
</svg>