<?xml version="1.0" encoding="UTF-8"?>
<svg id="Layer_1" xmlns="http://www.w3.org/2000/svg" viewBox="0 0 919.9 335.01">
  <defs>
    <style>
      .cls-1 {
        fill: #fff;
      }

      .cls-2 {
        fill: #ffd92b;
      }
    </style>
  </defs>
  <g>
    <polygon class="cls-2" points="854 180.8 855.3 179.5 853.1 181.5 854 180.8"/>
    <path class="cls-2" d="M848.6,181.1c.9-1.1-1.2-1.8-.3-2.5-1.5.2-2.7,1.1-3.8,2,1.2-.5,2.5-.4,4.1.5Z"/>
    <path class="cls-2" d="M842.6,181.7c.6-.3,1.2-.7,1.9-1.2-.6.3-1.3.6-1.9,1.2Z"/>
    <path class="cls-2" d="M857.2,183.8c-.2-.3-.5-1.2-1.7-1.6l.8,1.6h.9Z"/>
    <path class="cls-2" d="M856.4,183.9h0c-.9-.1-1.6-.1-1.8-.1.2-.1.7,0,1.8.1Z"/>
    <path class="cls-2" d="M857.4,183.8h-.2q.1.2.2,0Z"/>
    <polygon class="cls-2" points="857.4 186.3 858.5 185.8 857.6 185.7 857.4 186.3"/>
    <path class="cls-2" d="M846.5,183.2c-1,.7-2,.8-3.3.9,1.3.3,2.6.5,3.9.5.2-.5.8-1.4-.6-1.4Z"/>
    <path class="cls-2" d="M851.3,183.7c-.1,0-.2.1-.2.1.1.1.2.2.2-.1Z"/>
    <path class="cls-2" d="M831.3,184.1c.1.1.1.2.2.3v-.3h-.2Z"/>
    <path class="cls-2" d="M847.4,184.9c1,.3,1.6-.1,2.1-.6-.7.2-1.5.3-2.3.3-.1.2-.1.4.2.3Z"/>
    <path class="cls-2" d="M839.3,182.5c.5.3,1.1.6,1.7.9-.5-.5-1.5-1.3-1.7-.9Z"/>
    <path class="cls-2" d="M850.8,183.3l.1-.1c-.3-.3-.3-.1-.1.1Z"/>
    <path class="cls-2" d="M850.8,183.3c-.5.2-.9.6-1.3,1,.6-.1,1.1-.3,1.6-.5-.1-.1-.2-.3-.3-.5Z"/>
    <path class="cls-2" d="M827.7,194.3c.2-1.5,2.7-2.8,4.9-1.3,2.2-1.1.8-6-1.1-8.7-.1.6-.1,1.2-2.3,2.1.8.8,5,1.9,3.1,3.2-3,.8-2.4-.5-3.9-1.3,1.2,1.8-3.8,2.7-3.1,5.4l2.6-1c.1.6-.9,1.2-.2,1.6Z"/>
    <path class="cls-2" d="M835.8,184.5l.9-.2c-1-.3-1.8-.8-3.2-2-1.5.7-1.9,1.3-2,1.8l4.5.2-.2.2Z"/>
    <path class="cls-2" d="M840.9,184.3c-.7,1.6-2.9,2.3-1.6,4,2.7-.1,1.9-1.3,3.5-2-4.4.4,1.3-.9-1.9-1.8.9-.3,1.6-.4,2.4-.4-.8-.2-1.5-.4-2.3-.7l.1.1h0c.2.2.3.3,0,.2h-.1c0,.3-.1.4-.1.6-1.3-.3-.2-.4.2-.6,0-.1,0-.2.1-.2h0l-4.4.9c.8.2,2,.1,4.1-.1Z"/>
    <path class="cls-2" d="M850.8,188.3l-3.6.8,1.9,1.4-.1-.8c2,.3,1.5-.8,1.8-1.4Z"/>
    <polygon class="cls-2" points="830.9 183.3 831.4 181.6 829.3 184 830.9 183.3"/>
    <polygon class="cls-2" points="826.2 183.5 826.4 182 825.1 182.9 826.2 183.5"/>
    <path class="cls-2" d="M665.3,200.6l-1.1.4c.5-.1.8-.3,1.1-.4Z"/>
    <path class="cls-2" d="M673,200.7l.2-.7c-.4.3-.5.6-.2.7Z"/>
    <path class="cls-2" d="M736.4,192.1c.1.2.3.3.5.5.4-.6.7-1.1,1.1-1.5-.5.2-1.1.6-1.6,1Z"/>
    <path class="cls-2" d="M735.3,198.8l-2.1-1c.5.3,1.2.6,2.1,1Z"/>
    <path class="cls-2" d="M623,202.3l-1.2,1.6c1.9,0,1-.8,1.2-1.6Z"/>
    <path class="cls-2" d="M777.8,184.1c-1.3-.6-2.4-.9-3.4-1,1.6.9,3,2.3,3.4,1Z"/>
    <path class="cls-2" d="M668.3,183.4c-.7.3-.9.6-.9,1,.7-.3,1-.6.9-1Z"/>
    <path class="cls-2" d="M770.5,183.1c.2.2.5.2.7.4,1-.3,2-.5,3.2-.4-1.2-.7-2.5-1.1-3.9,0Z"/>
    <path class="cls-2" d="M469.7,200.9c-.1-.1-.2-.1-.3-.2-.1.3.1.3.3.2Z"/>
    <path class="cls-2" d="M425.1,184.6c.4-.1,1.2-.1,1.8-.1-.3-.1-.9-.1-1.8.1Z"/>
    <path class="cls-2" d="M807.2,182.8c1-.1.1-.2,0,0h0Z"/>
    <path class="cls-2" d="M812.1,189.2c-.2.2-.4.4-.4.8,0-.4.2-.7.4-.8Z"/>
    <path class="cls-2" d="M866.4,191.9s-.1,0,0,0c.2.3.1.3,0,0Z"/>
    <path class="cls-2" d="M808.7,183.5c-.4-.2-.8-.4-1.3-.5.2.2.6.3,1.3.5Z"/>
    <path class="cls-2" d="M808.5,182.8c.3.1.6.1.9.2.1-.4,0-.5-.9-.2Z"/>
    <path class="cls-2" d="M805.8,182.9c.6,0,1.1.1,1.6.2-.2-.1-.3-.2-.2-.3-.3,0-.7,0-1.4.1Z"/>
    <path class="cls-2" d="M551.8,196.6q-.1-.1-.2-.2c-1,.7-.5.6.2.2Z"/>
    <path class="cls-2" d="M789.8,199.2l.1-.1s-.1,0-.1-.1v.2Z"/>
    <path class="cls-2" d="M786.2,200.4c1.5-2,2.4-1.8,3.6-1.3l-1.2-4.7-2.4,6Z"/>
    <path class="cls-2" d="M814.5,193.9v-10.1c-.2.1-.5.1-.7.2l-.5-1.8c-.1,0-.2,0-.3.1-1.2-.7-1,.9-.3,2.2-.6.3-1.2.7-1.7,1.1-1-2.9-3.3,1-4.6-2.1-.8,1.4-5.5,1.2-6.7,3.7-1.4-.4-2.8-.7-4,.2l-.6-2.3-3,3.1c-1.9-1.4-2.6-2.2-.8-4-4.4,2.7-3.6,1-7.4,3.7l.2-1.5c-1.4.1-3.5,2-4.3.8-3-2.8-14.9-.4-22.7-3,1.5,4.4-3.6-2-3.9,1.4-.5-1-1.5-1.6-.3-2.5-4,1-5.9-1.6-8.7,1.2-.5-1,.8-1.5.4-2.1-.3.2-1.3.9-1.7.3s.6-.9,1.2-1.3c-4,.2-4.5,3.3-4.7,6.3-2-1.4-3.1-1.2-4.5.7-.7-1-1.9-2,.6-2.3-1.4-.1-8.6-1.4-8.8,1-.4-.6-2-.2-2.3.1-3.2-.1-3.4-.4-6.6-.1l.9.4c-1.2,2.9-2.6.6-5.1,1l.1-.3c-5.8-2.1-2.5,1-8.2-1.4l.3,1.8c-.5,3.9-5-2.3-8.3-.8l1.2,1c-1.8,1.3-5-5.2-6.8-5.7-.4-.3.6-.5,1.2-.8-4.7-2.3-.6,2.3-4.1,2.9-.7-1.3.8-3.2-1.5-3.5-1.2-1-6.9,4.1-10.1,1.7.7,1,1.4,1.9-.2,2.7-2.5.3-6.8-3.7-9.1-.6-.3-.3-.4-.5-.5-.8-1.9.8-6.2,1.3-7.4,3-1.8-6.2-11.9,3-11.9-2.7l-5.9.3.2-.6c-3.8-.4-5.1,1-6.4,2.4-.9-.4-.2-.9-.2-1.2-5.5-1.2-6.1-.9-10.7,1.9l-.5-1.9c-1.3,1.1-8-2.9-13.4-.7.1-.2.2-.6.6-.8-6.1,2.2-14.6-5.1-16.8,1.6l-4,1.7c5.2.5-.8,2.9,1.4,4-2,.4-5.3-2-2.8-2.4l.4.3c.9-3.5-6.5-1.2-6.3-3.6-10.2.2-20.2-1.8-29.8-1.9l1.1,2.7-3.3-.2c-.9-.6-1.2-2.1,1.2-2-1.3-1.5-4,1.3-4.1,1.9-4.7-1.1,1.8-3.2.4-3.2l-1.9.2.4.3c-1.6,1.1-1.7,2.3-4.6,2.2-1.8-.5-.9-1.7-1.6-1.8,0-.2-.2-.3-1.1-.1l-4.2-.2,1.7,2.2c-1.9,1.1-4-.1-2,2.3-2.8-3.8-15.7-1.4-17.4-2.5-2.6,1.6-5.2,1.5-8.4,1.4.8.4,1.3,2.9-1.5,2.6,1-5-5-2.2-7.3-5.8,2,2.4-7.8.6-4.7,4-2.3-.4-.1-1.9-1.9-3-5.5,1.9-12.1-1.3-18.8-.6-.1.7,1,1.7-.4,2.6l-3.6-3.3c-1.3.3-1.2,3.8-3.7,1.5.3.6.9,1.4,0,1.6-13.2-3.2-27.1,2.6-40.5-3.4,1.8,1.3.6,1.4-.8,1.4.9.3,0,1.6.2,2.5l-5.6-2.5c-1,2.5-6,.2-6.6,2.5l1.8-.4c-2.4,2.8,3.3,6.2,3,9.8,2.7-3.2,7,4.7,11.4.2,1,.7-.8,1.2-.3,2,1.1-1.5,2.4-1.9,4.9-1.2l-.3.4c6.9-.4,9.9,1.1,17.7,2.1l-.6-1.8c1.7.2,2,.8,2.8,1.2,1.9-2.7-4.7-.2-3-3.1,2.2,3.6,11.8.1,13.3,4.1,2.6,0-.8-2,1.8-2l.7,1.1.7-1.4c1.7.2,2.5,1.6,2.6,2.6-.4-.1-1.2.3-1.6.3,2,1.2,5.6-.2,6.7-.1l-2.3-.6c7-1,15.6.4,22.4-1.8l-.5-.8c5.2-1.5,4.2.9,9.9.2l-.2.2c1.1-.8,2.7-1.3,4.2-1.2-1.4,1,2.7,1.9.8,3,5.6-1.7,2.8-1.3,6.5-4.4l.9,1.4c1.3-1.3,1.4-1.9,4.2-2.3-2.3,1.2,1.8,2.1-.8,3.7,6,3,8.9-3.1,11.6,1.4,2.7-3.8-5.2-2.1-3.6-2.9-1.3-1.3,2.3-2.9,4.1-2.5,1.9.1,3.2,4.9,8,4.8-.5,0-.5.3-1,.3,1.8,1,3.5-1.3,5.7.3,1.2-2.3,2.9.1,3.2-2.8l-4.4.7c2.5-.8,4.8-4.2,8.9-2.6-.3.6-1.5,1.4-2.4,1.8,1.2.9,2.3-.6,3.6.3-.4,3-5.4.6-8,2.9,1.3,1.2,5.1-2.1,3.7,1.1,1.9-4.1,4.7.5,8-2.6l-.2,1.8c.5-.3,1.6-1.1,2.5-1.1l-1.7,2.3c2.6-2,5.1,1.7,7.6.6-5.3.1-1.2-2.1-3.4-3.4,6.4-2.3,3.9,4.3,10.6,3.8-1.2-.1-3.1-1.2-1.7-1.9,1.4.4,3.2,1,4.1,2,4.8-.4-.7-1.8,1.3-2.9,1.6,2.2,2.4-.9,4.5-1.6v1.8c5.5,1.2,1.5-3.8,6.4-2.4l-2.1,2.5,2.6-.6-.5,2c2.8-1.5,3.7-1.1,6.4-.6-.6-1.3.4-3.3,2.8-3.3,1.7,1.1-.9,1.7,2.5,1.5-.8,1.1-1.6,2.5-3.1.9-.2.6-.8,1.1-.9,1.7,1.8,1.2,4.5.3,5.8.3-.5-.1-1.1-.2-1.4-.4l5-2.5c.8.7.2,1.2-.5,1.8,1-.2,1.7-1,3.2-1.2-.4,1.5-.3,3-2.4,3.7l4.8-1.6c.3.6,2.5,1.7,1.8,2.3,2.6.9,6.5-2.8,10-1.7.2-.3.5-.6,1.3-.8,3.3.3,6.2,2.1,10.1.1l2.2,2.6c3.1-.6-3-3.3,2.1-4.3,3.6-.8,1.3,2.2,2.6,3,1.8-1.3,4.9-4,8.2-1.9-1.1.5-2,.1-3,.3l2.5,1.5c-3.1,2.4-5.3,1.6-2.9,3.6.4-5.1,9.8-.5,10.2-5.6l1.7,1.1c-.5,0-.6.2-1,.2,3.2,2.4,2.4-3.7,6.6-2.9,1.5.4,2.5,1.1,1.5,1.7l3.2-1.3c.8.1.7.7.2.8l4.5-.4v.1c.7-.8,2.3-2,3.1-2.5,1.3.7-.6.5-.3,1.2l2.7-1.2c1.1,1.3-1.2,2.6-3,2.4,2.6,5.1,2.3-1.3,7.8,1.7l-2.6.6c1.7,2.9,3.7,1.8,6.6,3.6-.7-.9-5.9-4.5-2.9-5.8.8.4,1.9.6,3.5-.5,0,1.8,1.6,1.4,3.5,1.3l-.1,2.4c2.1-.7,2-1.9,3.2-3,2.4.2,2.9,2.1,3.4,3.6,3.8.4-2.6-3,1.9-3.4,3.1.9,5.4-.1,9.1-1.5,2.2.8-.4,1.5.4,2.1l2-1.9c.5,0,.3.6.2.9,1.6-.7.1-2.4,2.7-3,.7-2.6,5.3,3.8,8.5.9.8.7-.4,1.5-.1,2.4,4.4-2,3.8-1.4,7.4-4.1l3.1,1.6c-2.3-1.8.6-3.9,3.2-5.7-.8-.9-1.5-1.6-1.9-2l4-1.3c.5.4.1,1.2-.6,2.2.3-.2.5-.4.7-.6,1.4.9.7,2.3-.3,3.6l-1.5-1.5c-1,1.5-1.9,3.1-1.7,4.5.3-.3.8-.5,1.3-.6-.3.4-.4.7-.3,1,.1.3.6-.3,1.2-.9l.9,2.7.2-1.1,5.3,1.7c3.8-2.7,7.1-6.6,13-7.7-1.5,2-.3,3.2-.4,5.5-1.6-2.4-4.6,1-7.7.5,1.6.3,1.3,1.4.9,1.7l5.5-2.2c-.1,1.9,1.2,1.4,2.6,2.2-1.1-3.7,4.1-2.5,6.4-3.6.1,1.3-.4,2.5-3.1,2.2,3,2.8,3.9-4.4,6.9-2-.7,0-1-.2-1.3.5,1.6-1.1,5.4-.2,4.5.9h-.7c4.5.4,13.6,0,14.2-3.1,0,.4-.6,3.8-.9,4.5l7.9-10.7c-.7,2.7,2,9.2-1.7,10.8,1.1.4,2.4.8,4.6-.1-.7-.4-1.8-3.9-.8-4.2,2.7,3,1.9,1.6,5.2,4.2-1.1-.6.1-4.9,1.8-4.7-.3.6.1,4.2-.5,4.7l4.3-4.2c-1.1.8-.2,3.6.8,4.7-.4-.8,3.7.1,4.8-.3l-1.8-1c3.3,0,4.4-2.9,6.2-4.7ZM541.1,184.5l.7.5c-1.5.5-1.1,0-.7-.5ZM681.8,200.3c.8-2.1,1.5-1.1,2.7-.5-.7.4-2.2,1.6-2.7.5ZM739.6,195.1c.7-.1,1.5-.1,2.3.4-.5.6-1.3.3-2.3-.4ZM799.6,187.1c-.1.2-.2.4-.2.6-.1-.4-.4-.6.2-.6Z"/>
    <path class="cls-2" d="M735.5,198c-.2-.3-.3-.6-.3-1-.3.3-.4.7.3,1Z"/>
    <path class="cls-2" d="M623.2,202h-.1c-.1.1-.1.2-.1.3l.2-.3Z"/>
    <path class="cls-2" d="M852.9,199c-.7-.3-1.1-.6-1.3-.9-.1.5.2.8,1.3.9Z"/>
    <path class="cls-2" d="M817.6,182l-2.2.5c1.1-.1,1.4.3,2,.6-.1-.5-.5-1.1.2-1.1Z"/>
    <path class="cls-2" d="M813.8,191.1c.3-.2.7,0,1-.2l-.1-.8c-1.3,0-2.3.7-.9,1Z"/>
    <path class="cls-2" d="M819.6,188c.2,1.5,1.5,1,3.1.7h-.3c.4-2.1-1.2-1.4-2.8-.7Z"/>
    <path class="cls-2" d="M823,188.6c.5-.1.9-.1,1.4,0,.2-.9-.6-.2-1.4,0Z"/>
    <path class="cls-2" d="M803.9,184c.7.4.5-1.9.9-1.3.7-1.9-4.9,2.3-.9,1.3Z"/>
    <polygon class="cls-2" points="820.8 193 820.3 191.1 819.4 192.6 820.8 193"/>
    <path class="cls-2" d="M808.8,191.6l2.4.5c0-.3.3-.5.7-.6-1.5-.1-3.2-.5-3.1.1Z"/>
    <path class="cls-2" d="M811.9,191.5c.8,0,1.5,0,2-.3-.5,0-1.4,0-2,.3Z"/>
    <polygon class="cls-2" points="817.5 193.5 816.8 193.1 815 193 817.5 193.5"/>
    <path class="cls-2" d="M782.6,191.2l-2.7.5c-.3.6.5,1,1.4.8.8-.4,1.7-.7,1.3-1.3Z"/>
    <path class="cls-2" d="M790.7,196.3c-.7-.4-.8-.8-1.2-1.4l-.1,2.3,1.3-.9Z"/>
    <path class="cls-2" d="M782.9,196.9c-.3.6-3.9,1.8-.5,1.7.3-.7,3-1.2.5-1.7Z"/>
    <polygon class="cls-2" points="417.6 182.6 415.6 181.8 416.9 183 417.6 182.6"/>
    <path class="cls-2" d="M413.8,185.4l-.5-2.4-1.2,2.2c.4-.2,1.3-.4,1.7.2Z"/>
    <path class="cls-2" d="M690.1,204.7l.2-.6c-.3-.6-.8-.7-1.7-.8l1.5,1.4Z"/>
    <polygon class="cls-2" points="662.7 202.9 663.2 203 662.3 200.8 662.7 202.9"/>
    <path class="cls-2" d="M639.7,205.7c.9.1,2-.4,3-.3-2.1.4-3.3-2.4-3,.3Z"/>
  </g>
  <g>
    <path class="cls-2" d="M543.6,329.46l-1.7.37c.8-.09,1.4-.19,1.7-.37Z"/>
    <path class="cls-2" d="M556,329.65l.3-.65c-.6.28-.8.56-.3.65Z"/>
    <path class="cls-2" d="M783.8,312.72c-2.5-1.3-5.3-3.24-5-1.76l.8,1.48c1.7-.19,3-.09,4.2.28Z"/>
    <path class="cls-2" d="M657,321.69c.2.19.5.28.7.46.6-.56,1.2-1.02,1.7-1.39-.7.19-1.5.56-2.4.93Z"/>
    <path class="cls-2" d="M655.3,327.89l-3.3-.93c.7.28,1.8.56,3.3.93Z"/>
    <path class="cls-2" d="M476.3,331.13l-2,1.48c3.1,0,1.7-.74,2-1.48Z"/>
    <path class="cls-2" d="M548.5,313.64c-1,.28-1.5.56-1.5.93,1.1-.28,1.7-.56,1.5-.93Z"/>
    <path class="cls-2" d="M232,329.83c-.2-.09-.4-.09-.6-.19,0,.28.2.28.6.19Z"/>
    <path class="cls-2" d="M160.8,314.75c.7-.09,1.8-.09,2.9-.09-.5-.19-1.4-.09-2.9.09Z"/>
    <path class="cls-2" d="M362.9,325.85c-.1-.09-.2-.09-.3-.19-1.7.65-1,.56.3.19Z"/>
    <path class="cls-2" d="M742.2,328.26c.1,0,.1-.09.2-.09-.1,0-.2,0-.2-.09v.19Z"/>
    <path class="cls-2" d="M736.4,329.37c2.4-1.85,3.8-1.67,5.7-1.2l-1.9-4.35-3.8,5.55Z"/>
    <path class="cls-2" d="M801.1,317.06c1.3-1.48,2.8-2.78,4.5-3.79v-.56c-5.2.65-10.4,2.59-14.9.93-1.7.56-3,.37-4.2,0,.2,0,.3,0,.4-.09h-.7c-.8-.28-1.6-.56-2.4-.83.7.37,1.4.65,2,.83-1.3,0-3.4.19-5.4.65l-.9-1.67c-.2,0-.3,0-.5.09-2-.65-1.6.83-.5,2.04-1,.28-1.9.65-2.6,1.02-1.6-2.68-5.2.93-7.4-1.94-1.2,1.3-8.8,1.11-10.7,3.42-2.2-.37-4.4-.65-6.4.19l-.9-2.13-4.9,2.87c-3-1.3-4.2-2.04-1.2-3.7-7.1,2.5-5.7.93-11.8,3.42l.3-1.39c-2.2.09-5.6,1.85-6.9.74-4.8-2.59-23.8-.37-36.2-2.78,2.4,4.07-5.7-1.85-6.2,1.3-.7-.93-2.4-1.48-.4-2.31-6.3.93-9.5-1.48-13.8,1.11-.7-.93,1.4-1.39.7-1.94-.5.19-2,.83-2.7.28-.6-.56.9-.83,1.9-1.2-6.4.19-7.1,3.05-7.6,5.83-3.3-1.3-4.9-1.11-7.3.65-1.1-.93-3-1.85,1-2.13-2.3-.09-13.8-1.3-14,.93-.7-.56-3.1-.19-3.7.09-5.1-.09-5.5-.37-10.5-.09l1.4.37c-2,2.68-4.1.56-8.1.93l.1-.28c-9.2-1.94-4,.93-13-1.3l.5,1.67c-.8,3.61-8-2.13-13.3-.74l1.9.93c-2.9,1.2-8-4.81-10.9-5.27-.6-.28,1-.46,1.9-.74-7.5-2.13-1,2.13-6.6,2.68-1-1.2,1.3-2.96-2.4-3.24-1.9-.93-11,3.79-16.1,1.57,1.1.93,2.3,1.76-.3,2.5-4,.28-10.8-3.42-14.4-.56-.5-.28-.7-.46-.7-.74-3.1.74-9.9,1.2-11.8,2.78-2.8-5.74-19,2.78-18.9-2.5l-9.4.28.2-.56c-6-.37-8.1.93-10.3,2.22-1.4-.37-.4-.83-.3-1.11-8.8-1.11-9.7-.83-17,1.76l-.8-1.76c-2,1.02-12.7-2.68-21.3-.65.1-.19.3-.56.9-.74-9.7,2.04-23.2-4.72-26.8,1.48l-6.4,1.57c8.3.46-1.2,2.68,2.2,3.7-3.3.37-8.4-1.85-4.4-2.22l.6.28c1.5-3.24-10.3-1.11-10.1-3.33-16.3.19-32.2-1.67-47.4-1.76l1.8,2.5-5.3-.19c-1.4-.56-1.9-1.94,1.9-1.85-2-1.39-6.4,1.2-6.5,1.76-7.4-1.02,2.9-2.96.6-2.96l-3.1.19.7.28c-2.5,1.02-2.7,2.13-7.3,2.04-2.9-.46-1.5-1.57-2.6-1.67,0-.19-.4-.28-1.7-.09l-6.7-.19,2.7,2.04c-3,1.02-6.3-.09-3.2,2.13-4.5-3.52-25-1.3-27.8-2.31-4.2,1.48-8.3,1.39-13.4,1.3,1.3.37,2,2.68-2.4,2.41,1.6-4.63-8-2.04-11.6-5.37,3.2,2.22-12.5.56-7.5,3.7-3.7-.37-.2-1.76-3-2.78-8.7,1.76-19.2-1.2-30-.56-.2.65,1.6,1.57-.7,2.41l-5.7-3.05c-2.1.28-2,3.52-5.8,1.39.5.56,1.4,1.3-.1,1.48-21.1-2.96-43.1,2.41-64.6-3.15,2.9,1.2,1,1.3-1.2,1.3,1.4.28,0,1.48.3,2.31l-9-2.31c-1.6,2.31-9.6.19-10.6,2.31l2.8-.37c-3.8,2.59,5.3,5.74,4.7,9.07,4.2-2.96,11.2,4.35,18.1.19,1.5.65-1.3,1.11-.5,1.85,1.8-1.39,3.9-1.76,7.8-1.11l-.4.37c11.1-.37,15.8,1.02,28.2,1.94l-.9-1.67c2.7.19,3.2.74,4.5,1.11,3.1-2.5-7.5-.19-4.7-2.87,3.5,3.33,18.8.09,21.2,3.79,4.1,0-1.2-1.85,2.9-1.85l1.1,1.02,1-1.3c2.7.19,4.1,1.48,4.2,2.41-.7-.09-1.9.28-2.6.28,3.3,1.11,9-.19,10.7-.09l-3.6-.56c11.2-.93,24.9.37,35.7-1.67l-.8-.74c8.3-1.39,6.6.83,15.7.19l-.3.19c1.8-.74,4.2-1.2,6.7-1.11-2.3.93,4.3,1.76,1.3,2.78,9-1.57,4.4-1.2,10.4-4.07l1.4,1.3c2-1.2,2.2-1.76,6.7-2.13-3.7,1.11,2.9,1.94-1.3,3.42,9.5,2.78,14.1-2.87,18.5,1.3,4.4-3.52-8.2-1.94-5.8-2.68-2.1-1.2,3.6-2.68,6.6-2.31,3,.09,5.2,4.53,12.8,4.44-.8,0-.8.28-1.6.28,2.9.93,5.6-1.2,9.1.28,2-2.13,4.6.09,5.1-2.59l-7,.65c4-.74,7.7-3.89,14.3-2.41-.5.56-2.5,1.3-3.8,1.67,1.9.83,3.7-.56,5.7.28-.6,2.78-8.5.56-12.8,2.68,2.1,1.11,8.1-1.94,5.9,1.02,3.1-3.79,7.5.46,12.7-2.41l-.3,1.67c.8-.28,2.5-1.02,4-1.02l-2.7,2.13c4.2-1.85,8.1,1.57,12.1.56-8.4.09-1.9-1.94-5.5-3.15,10.2-2.13,6.1,4.07,17.1,3.52-1.8,0-5.2-1.11-3-1.76,2.2.37,5.1.93,6.5,1.85,7.7-.37-1.2-1.67,2.1-2.68,2.6,2.04,3.8-.83,7.2-1.48v1.67c8.8,1.11,2.3-3.52,10.2-2.22l-3.3,2.31,4.1-.56-.9,1.85c4.5-1.39,5.9-1.02,10.3-.56-1-1.2.6-3.05,4.5-3.05,2.7,1.02-1.5,1.57,4,1.39-1.2,1.02-2.6,2.31-5,.83-.2.56-1.2,1.02-1.5,1.57,2.9,1.11,7.2.28,9.2.28-.8-.09-1.7-.19-2.2-.37l8-2.31c1.3.65.3,1.11-.7,1.67,1.6-.19,2.7-.93,5.1-1.11-.6,1.39-.5,2.78-3.8,3.42l7.6-1.48c.5.56,3.9,1.57,2.9,2.13,4.2.83,10.4-2.59,16-1.57.3-.28.9-.56,2.1-.74,5.3.28,9.9,1.94,16.2.09l3.5,2.41c4.9-.56-4.8-3.05,3.3-3.98,5.8-.74,2.1,2.04,4.2,2.78,2.9-1.2,7.8-3.7,13.1-1.76-1.8.46-3.1.09-4.8.28l4,1.39c-4.9,2.22-8.4,1.48-4.6,3.33.6-4.72,15.7-.46,16.2-5.18l2.7,1.02c-.8,0-.9.19-1.6.19,5.2,2.22,3.8-3.42,10.5-2.68,2.3.37,3.9,1.02,2.4,1.57l5.2-1.2c1.3.09,1.2.65.3.74l7.2-.37-.1.09c1.1-.74,3.7-1.85,4.9-2.31,2,.65-1,.46-.5,1.11l4.4-1.11c1.8,1.2-1.8,2.41-4.9,2.22,4.1,4.72,3.6-1.2,12.4,1.57l-4.1.56c2.7,2.68,5.9,1.67,10.5,3.33-1.1-.83-9.3-4.16-4.6-5.37,1.3.37,3.1.56,5.7-.46,0,1.67,2.5,1.3,5.6,1.2l-.2,2.22c3.4-.65,3.1-1.76,5.1-2.78,3.8.19,4.5,1.94,5.4,3.33,6,.37-4.2-2.78,3-3.15,5,.83,8.5-.09,14.5-1.39,3.5.74-.6,1.39.6,1.94l3.1-1.76c.8,0,.5.56.4.83,2.6-.65.2-2.22,4.3-2.78,1.1-2.41,8.5,3.52,13.6.83,1.3.65-.6,1.39-.2,2.22,7-1.85,6-1.3,11.7-3.79l4.9,1.48c-3.6-1.67,1-3.61,5-5.27-1.3-.83-2.4-1.48-3.1-1.85l6.4-1.2c.8.37.1,1.11-.9,2.04.4-.19.9-.37,1.2-.56,2.3.83,1.1,2.13-.5,3.33-.8-.46-1.6-.93-2.3-1.39-1.6,1.39-3.1,2.87-2.7,4.16.4-.28,1.2-.46,2.1-.56-.4.37-.7.65-.5.93s.9-.28,1.9-.83l1.5,2.5.4-1.02,8.4,1.57c6-2.5,11.2-6.11,20.8-7.12-2.4,1.85-.5,2.96-.6,5.09-2.6-2.22-7.4.93-12.3.46,2.6.28,2,1.3,1.4,1.57l8.8-2.04c-.2,1.76,1.9,1.3,4.2,2.04-1.7-3.42,6.6-2.31,10.2-3.33.2,1.2-.6,2.31-5,2.04,4.8,2.59,6.2-4.07,11-1.85-1.1,0-1.6-.19-2.1.46,2.5-1.02,8.6-.19,7.2.83h-1.1c7.1.37,21.6,0,22.7-2.87.1.37-.9,3.52-1.4,4.16l12.7-9.9c-1.1,2.5,3.2,8.51-2.7,9.99,1.7.37,3.8.74,7.3-.09-1.2-.37-2.9-3.61-1.3-3.89,4.3,2.78,3,1.48,8.3,3.89-1.7-.56.2-4.53,2.9-4.35-.4.56.2,3.89-.8,4.35l6.5-3.7c-1.2.93.1,3.15,1.5,4.26-.7-.74,5.9.09,7.7-.28l-2.9-.93c7.7.56,7.6-5.46,15.2-5.27-.9.83-2.3,4.9,1.6,5.46,1.9-2.31,7-8.6,12.9-10.92ZM345.8,314.66l1.1.46c-2.4.46-1.8,0-1.1-.46ZM570,329.28c1.3-1.94,2.4-1.02,4.3-.46-1.1.37-3.5,1.48-4.3.46ZM662.2,324.47c1.1-.09,2.3-.09,3.7.37-.9.56-2.2.28-3.7-.37ZM757.4,317.62c-.1-.37-.6-.56.4-.56-.2.09-.3.28-.4.56Z"/>
    <path class="cls-2" d="M655.5,327.15c-.3-.28-.4-.56-.5-.93-.4.28-.5.65.5.93Z"/>
    <path class="cls-2" d="M476.6,330.85h-.2c-.1.09-.2.19-.2.28l.4-.28Z"/>
    <path class="cls-2" d="M779.9,330.66c5,.83,1.2-2.13,5.7-1.11,1.2-.83-3.7-.83-2.5-1.57-3,.83-4.6.37-3.2,2.68Z"/>
    <path class="cls-2" d="M783.1,327.98c.5-.09,1-.28,1.5-.56-.8.19-1.2.37-1.5.56Z"/>
    <polygon class="cls-2" points="149 312.81 145.8 312.07 147.8 313.27 149 312.81"/>
    <path class="cls-2" d="M142.8,315.49l-.8-2.22-1.9,2.04c.7-.19,2.2-.37,2.7.19Z"/>
    <path class="cls-2" d="M583.3,333.35l.2-.56c-.5-.56-1.3-.65-2.8-.74l2.6,1.3Z"/>
    <polygon class="cls-2" points="539.6 331.68 540.3 331.78 538.9 329.74 539.6 331.68"/>
    <path class="cls-2" d="M502.9,334.27c1.5.09,3.3-.37,4.8-.28-3.3.37-5.2-2.22-4.8.28Z"/>
  </g>
  <g>
    <path class="cls-1" d="M8.7,62.2V14.5H0V3.7h28.8v10.8h-8.7v47.7h-11.4Z"/>
    <path class="cls-1" d="M58.3,42.4c0,6.3-1.5,11.2-4.4,14.9s-6.8,5.5-11.6,5.5-8.7-1.8-11.6-5.5-4.3-8.7-4.3-14.9,1.4-11.2,4.3-14.8c2.9-3.7,6.8-5.5,11.6-5.5s8.8,1.8,11.6,5.5c3,3.7,4.4,8.6,4.4,14.8ZM42.3,53.4c1.9,0,3.3-1,4.4-2.9,1-1.9,1.5-4.6,1.5-8.2s-.5-6.2-1.5-8.1c-1-1.9-2.5-2.9-4.4-2.9s-3.3.9-4.3,2.8c-1,1.9-1.5,4.6-1.5,8.1s.5,6.3,1.5,8.2c1,2,2.4,3,4.3,3Z"/>
    <path class="cls-1" d="M92.3,62.2h-10.2v-5.7c-1,2.2-2.2,3.8-3.7,4.9-1.4,1.1-3.1,1.6-4.9,1.6-3.5,0-6.2-1.8-8.2-5.3-1.9-3.5-2.9-8.6-2.9-15.1s1-11.4,3-14.9,4.8-5.2,8.4-5.2c1.6,0,3.1.5,4.5,1.5s2.6,2.5,3.7,4.5V.1h10.2v62.1h.1ZM82.1,41.9c0-3.8-.4-6.5-1.1-8.2-.7-1.7-1.9-2.5-3.6-2.5-1.5,0-2.7.8-3.3,2.5-.7,1.7-1,4.4-1,8.2s.4,6.6,1.2,8.5,1.9,2.8,3.5,2.8,2.7-.9,3.4-2.6c.5-1.7.9-4.6.9-8.7Z"/>
    <path class="cls-1" d="M130.1,42.4c0,6.3-1.5,11.2-4.4,14.9s-6.8,5.5-11.6,5.5-8.7-1.8-11.6-5.5-4.3-8.7-4.3-14.9,1.4-11.2,4.3-14.8c2.9-3.7,6.8-5.5,11.6-5.5s8.8,1.8,11.6,5.5c2.9,3.7,4.4,8.6,4.4,14.8ZM114.1,53.4c1.9,0,3.3-1,4.4-2.9,1-1.9,1.5-4.6,1.5-8.2s-.5-6.2-1.5-8.1c-1-1.9-2.5-2.9-4.4-2.9s-3.3.9-4.3,2.8c-1,1.9-1.5,4.6-1.5,8.1s.5,6.3,1.5,8.2c1,2,2.4,3,4.3,3Z"/>
    <path class="cls-1" d="M132.9,58.8l4.4-8c1.3.9,2.4,1.5,3.4,1.9s1.8.6,2.6.6,1.5-.3,2-.8.8-1.2.8-2c0-1.4-1.3-2.9-3.9-4.6-.7-.4-1.2-.8-1.6-1-2.5-1.7-4.3-3.4-5.3-5.1s-1.5-3.6-1.5-5.8c0-3.7,1.1-6.6,3.4-8.8,2.2-2.2,5.3-3.2,9.1-3.2,1.9,0,3.7.3,5.5.8,1.7.5,3.4,1.4,5,2.5l-4.5,7.8c-1-.9-2-1.5-2.8-2s-1.7-.6-2.4-.6c-.9,0-1.6.2-2.1.7s-.8,1.1-.8,1.9c0,1.1,1.2,2.5,3.6,4,.8.5,1.3.9,1.8,1.2,2.7,1.9,4.6,3.8,5.7,5.5s1.6,3.8,1.6,6.1c0,3.8-1.2,6.9-3.7,9.3-2.4,2.4-5.7,3.6-9.6,3.6-1.9,0-3.8-.3-5.5-1s-3.6-1.6-5.2-3Z"/>
    <path class="cls-1" d="M177.3,58.8l4.4-8c1.3.9,2.4,1.5,3.4,1.9s1.8.6,2.6.6,1.5-.3,2-.8.8-1.2.8-2c0-1.4-1.3-2.9-3.9-4.6-.7-.4-1.2-.8-1.6-1-2.5-1.7-4.3-3.4-5.3-5.1s-1.5-3.6-1.5-5.8c0-3.7,1.1-6.6,3.4-8.8,2.2-2.2,5.3-3.2,9.1-3.2,1.9,0,3.7.3,5.5.8,1.7.5,3.4,1.4,5,2.5l-4.5,7.8c-1-.9-2-1.5-2.8-2s-1.7-.6-2.4-.6c-.9,0-1.6.2-2.1.7s-.8,1.1-.8,1.9c0,1.1,1.2,2.5,3.6,4,.8.5,1.3.9,1.8,1.2,2.7,1.9,4.6,3.8,5.7,5.5s1.6,3.8,1.6,6.1c0,3.8-1.2,6.9-3.7,9.3-2.4,2.4-5.7,3.6-9.6,3.6-1.9,0-3.8-.3-5.5-1s-3.5-1.6-5.2-3Z"/>
    <path class="cls-1" d="M236.9,42.4c0,6.3-1.5,11.2-4.4,14.9s-6.8,5.5-11.6,5.5-8.7-1.8-11.6-5.5-4.3-8.7-4.3-14.9,1.4-11.2,4.3-14.8c2.9-3.7,6.8-5.5,11.6-5.5s8.8,1.8,11.6,5.5c2.9,3.7,4.4,8.6,4.4,14.8ZM220.9,53.4c1.9,0,3.3-1,4.4-2.9,1-1.9,1.5-4.6,1.5-8.2s-.5-6.2-1.5-8.1c-1-1.9-2.5-2.9-4.4-2.9s-3.3.9-4.3,2.8c-1,1.9-1.5,4.6-1.5,8.1s.5,6.3,1.5,8.2c1,2,2.4,3,4.3,3Z"/>
    <path class="cls-1" d="M242.5,62.2V22.9h9.8v6.1c1.3-2.2,2.8-3.8,4.5-4.9,1.7-1.1,3.5-1.6,5.6-1.6s3.8.5,5.1,1.6c1.3,1.1,2.2,2.7,2.6,4.9,1.5-2.2,3-3.9,4.7-4.9s3.4-1.6,5.3-1.6c2.8,0,4.7,1,5.8,3,1.1,2,1.7,6.1,1.7,12.2v24.5h-10.4v-23.8c0-2.2-.2-3.8-.7-4.6-.5-.9-1.3-1.3-2.4-1.3-1.4,0-2.4.5-3,1.4s-.9,2.6-.9,5v23.3h-10.4v-23.8c0-2.2-.2-3.7-.7-4.6-.5-.9-1.3-1.4-2.4-1.4-1.4,0-2.4.5-3,1.5s-.9,2.6-.9,5v23.3h-10.3Z"/>
    <path class="cls-1" d="M324.9,42.4c0,6.3-1.5,11.2-4.4,14.9s-6.8,5.5-11.6,5.5-8.7-1.8-11.6-5.5-4.3-8.7-4.3-14.9,1.4-11.2,4.3-14.8c2.9-3.7,6.8-5.5,11.6-5.5s8.8,1.8,11.6,5.5c2.9,3.7,4.4,8.6,4.4,14.8ZM308.9,53.4c1.9,0,3.3-1,4.4-2.9,1-1.9,1.5-4.6,1.5-8.2s-.5-6.2-1.5-8.1c-1-1.9-2.5-2.9-4.4-2.9s-3.3.9-4.3,2.8c-1,1.9-1.5,4.6-1.5,8.1s.5,6.3,1.5,8.2c1,2,2.4,3,4.3,3Z"/>
    <path class="cls-1" d="M327.7,58.8l4.4-8c1.3.9,2.4,1.5,3.4,1.9s1.8.6,2.6.6,1.5-.3,2-.8.8-1.2.8-2c0-1.4-1.3-2.9-3.9-4.6-.7-.4-1.2-.8-1.6-1-2.5-1.7-4.3-3.4-5.3-5.1s-1.5-3.6-1.5-5.8c0-3.7,1.1-6.6,3.4-8.8,2.2-2.2,5.3-3.2,9.1-3.2,1.9,0,3.7.3,5.5.8,1.7.5,3.4,1.4,5,2.5l-4.5,7.8c-1-.9-2-1.5-2.8-2s-1.7-.6-2.4-.6c-.9,0-1.6.2-2.1.7s-.8,1.1-.8,1.9c0,1.1,1.2,2.5,3.6,4,.8.5,1.3.9,1.8,1.2,2.7,1.9,4.6,3.8,5.7,5.5s1.6,3.8,1.6,6.1c0,3.8-1.2,6.9-3.7,9.3-2.4,2.4-5.7,3.6-9.6,3.6-1.9,0-3.8-.3-5.5-1s-3.6-1.6-5.2-3Z"/>
    <path class="cls-1" d="M375.1,78V22.8h9.9v6c1.2-2.2,2.5-3.8,3.9-4.9,1.4-1,2.9-1.6,4.6-1.6,3.6,0,6.4,1.8,8.4,5.3s2.9,8.5,2.9,15-1,11.5-2.9,15-4.6,5.3-8.1,5.3c-1.9,0-3.5-.6-5-1.7-1.5-1.1-2.7-2.8-3.6-5v21.6h-10.1v.2ZM390,31.3c-1.6,0-2.8.8-3.6,2.5-.8,1.7-1.1,4.4-1.1,8.1,0,4.1.4,7,1.1,8.7s1.9,2.6,3.5,2.6,2.7-.9,3.5-2.8,1.1-4.8,1.1-8.7-.4-6.3-1.1-8c-.8-1.6-1.9-2.4-3.4-2.4Z"/>
    <path class="cls-1" d="M439.6,62.2h-9.9v-5.8c-1.1,2.2-2.4,3.8-3.8,4.9-1.4,1.1-3,1.6-4.8,1.6-3.6,0-6.4-1.7-8.4-5.2-1.9-3.5-2.9-8.5-2.9-15.1s1-11.4,3-14.9,4.8-5.3,8.4-5.3c1.7,0,3.2.5,4.6,1.6,1.4,1,2.7,2.7,3.9,4.9v-6h9.9v39.3ZM429.7,41.9c0-3.6-.4-6.2-1.2-8-.8-1.7-2.1-2.6-3.8-2.6-1.5,0-2.7.8-3.3,2.5-.7,1.7-1,4.4-1,8.2s.4,6.5,1.2,8.4,1.9,2.8,3.5,2.8c1.7,0,2.9-.9,3.6-2.7.6-1.8,1-4.7,1-8.6Z"/>
    <path class="cls-1" d="M447.5,62.2V22.9h9.8v7c.9-2.6,2-4.5,3.4-5.8s3.2-1.9,5.2-1.9v10.3h-.7c-2.8,0-4.7.7-5.7,2-1,1.4-1.5,4.4-1.5,9.2v18.5h-10.5Z"/>
    <path class="cls-1" d="M471.6,62.2v-30.9h-4.2v-8.5h4.2v-11.3h10.6v11.3h4.2v8.5h-4.2v30.9h-10.6Z"/>
    <path class="cls-1" d="M499.3,45.4v.3c0,2.9.5,5.2,1.5,6.8s2.5,2.4,4.3,2.4c1.2,0,2.2-.4,3.1-1.1.8-.7,1.5-1.9,2.1-3.4h9.1c-.8,3.9-2.6,7-5.2,9.2-2.6,2.2-5.8,3.3-9.6,3.3-4.8,0-8.6-1.8-11.4-5.5-2.8-3.7-4.2-8.6-4.2-14.8s1.4-11.3,4.2-15,6.6-5.5,11.4-5.5c5.1,0,8.9,1.8,11.5,5.4,2.6,3.6,3.9,8.9,3.9,16v1.9h-20.7ZM510.6,39.1c-.1-2.9-.6-5-1.5-6.4s-2.3-2.1-4.2-2.1c-1.8,0-3.2.7-4.2,2.2-1,1.4-1.4,3.5-1.4,6.3h11.3Z"/>
    <path class="cls-1" d="M571.3,62.2h-10.2v-5.7c-1,2.2-2.2,3.8-3.7,4.9-1.4,1.1-3.1,1.6-4.9,1.6-3.5,0-6.2-1.8-8.2-5.3-1.9-3.5-2.9-8.6-2.9-15.1s1-11.4,3-14.9,4.8-5.2,8.4-5.2c1.6,0,3.1.5,4.5,1.5s2.6,2.5,3.7,4.5V.1h10.2v62.1h.1ZM561.1,41.9c0-3.8-.4-6.5-1.1-8.2-.7-1.7-1.9-2.5-3.6-2.5-1.5,0-2.7.8-3.3,2.5-.7,1.7-1,4.4-1,8.2s.4,6.6,1.2,8.5,1.9,2.8,3.5,2.8,2.7-.9,3.4-2.6c.5-1.7.9-4.6.9-8.7Z"/>
    <path class="cls-1" d="M587.5,45.4v.3c0,2.9.5,5.2,1.5,6.8s2.5,2.4,4.3,2.4c1.2,0,2.2-.4,3.1-1.1.8-.7,1.5-1.9,2.1-3.4h9.1c-.8,3.9-2.6,7-5.2,9.2-2.6,2.2-5.8,3.3-9.6,3.3-4.8,0-8.6-1.8-11.4-5.5-2.8-3.7-4.2-8.6-4.2-14.8s1.4-11.3,4.2-15,6.6-5.5,11.4-5.5c5.1,0,8.9,1.8,11.5,5.4,2.6,3.6,3.9,8.9,3.9,16v1.9h-20.7ZM598.8,39.1c-.1-2.9-.6-5-1.5-6.4s-2.3-2.1-4.2-2.1c-1.8,0-3.2.7-4.2,2.2-1,1.4-1.4,3.5-1.4,6.3h11.3Z"/>
    <path class="cls-1" d="M631.4,62.2V0h10.6v62.2h-10.6Z"/>
    <path class="cls-1" d="M678.3,62.2h-9.9v-5.8c-1.1,2.2-2.4,3.8-3.8,4.9-1.4,1.1-3,1.6-4.8,1.6-3.6,0-6.4-1.7-8.4-5.2-1.9-3.5-2.9-8.5-2.9-15.1s1-11.4,3-14.9,4.8-5.3,8.4-5.3c1.7,0,3.2.5,4.6,1.6,1.4,1,2.7,2.7,3.9,4.9v-6h9.9v39.3ZM668.4,41.9c0-3.6-.4-6.2-1.2-8-.8-1.7-2.1-2.6-3.8-2.6-1.5,0-2.7.8-3.3,2.5-.7,1.7-1,4.4-1,8.2s.4,6.5,1.2,8.4,1.9,2.8,3.5,2.8c1.7,0,2.9-.9,3.6-2.7.6-1.8,1-4.7,1-8.6Z"/>
    <path class="cls-1" d="M724,34c-.8-.6-1.6-1.1-2.4-1.4-.8-.3-1.6-.4-2.3-.4-2,0-3.6.9-4.8,2.7s-1.8,4.2-1.8,7.3.6,5.7,1.8,7.5,2.9,2.6,5.1,2.6c.8,0,1.6-.2,2.3-.5s1.4-.8,2.1-1.5v10.3c-1.1.8-2.2,1.3-3.5,1.7-1.2.4-2.5.6-3.8.6-4.5,0-8-1.8-10.7-5.5-2.6-3.7-4-8.6-4-15s1.3-11.2,4-14.8c2.7-3.7,6.2-5.5,10.7-5.5,1.3,0,2.5.1,3.7.4,1.2.3,2.4.6,3.6,1.1v10.4h0Z"/>
    <path class="cls-1" d="M757.7,62.2h-9.9v-5.8c-1.1,2.2-2.4,3.8-3.8,4.9-1.4,1.1-3,1.6-4.8,1.6-3.6,0-6.4-1.7-8.4-5.2-1.9-3.5-2.9-8.5-2.9-15.1s1-11.4,3-14.9,4.8-5.3,8.4-5.3c1.7,0,3.2.5,4.6,1.6,1.4,1,2.7,2.7,3.9,4.9v-6h9.9v39.3ZM747.8,41.9c0-3.6-.4-6.2-1.2-8-.8-1.7-2.1-2.6-3.8-2.6-1.5,0-2.7.8-3.3,2.5-.7,1.7-1,4.4-1,8.2s.4,6.5,1.2,8.4,1.9,2.8,3.5,2.8c1.7,0,2.9-.9,3.6-2.7.6-1.8,1-4.7,1-8.6Z"/>
    <path class="cls-1" d="M793.9,62.2h-10.2v-5.7c-1,2.2-2.2,3.8-3.7,4.9-1.4,1.1-3.1,1.6-4.9,1.6-3.5,0-6.2-1.8-8.2-5.3-1.9-3.5-2.9-8.6-2.9-15.1s1-11.4,3-14.9,4.8-5.2,8.4-5.2c1.6,0,3.1.5,4.5,1.5s2.6,2.5,3.7,4.5V.1h10.2v62.1h.1ZM783.7,41.9c0-3.8-.4-6.5-1.1-8.2-.7-1.7-1.9-2.5-3.6-2.5-1.5,0-2.7.8-3.3,2.5-.7,1.7-1,4.4-1,8.2s.4,6.6,1.2,8.5,1.9,2.8,3.5,2.8,2.7-.9,3.4-2.6c.6-1.7.9-4.6.9-8.7Z"/>
    <path class="cls-1" d="M810.1,45.4v.3c0,2.9.5,5.2,1.5,6.8s2.5,2.4,4.3,2.4c1.2,0,2.2-.4,3.1-1.1.8-.7,1.5-1.9,2.1-3.4h9.1c-.8,3.9-2.6,7-5.2,9.2-2.6,2.2-5.8,3.3-9.6,3.3-4.8,0-8.6-1.8-11.4-5.5-2.8-3.7-4.2-8.6-4.2-14.8s1.4-11.3,4.2-15,6.6-5.5,11.4-5.5c5.1,0,8.9,1.8,11.5,5.4,2.6,3.6,3.9,8.9,3.9,16v1.9h-20.7ZM821.4,39.1c-.1-2.9-.6-5-1.5-6.4s-2.3-2.1-4.2-2.1c-1.8,0-3.2.7-4.2,2.2-1,1.4-1.4,3.5-1.4,6.3h11.3Z"/>
    <path class="cls-1" d="M853.9,62.2v-23.8c0-2.2-.3-3.8-.8-4.6s-1.4-1.3-2.7-1.3c-1.4,0-2.3.5-2.9,1.5-.6,1-.9,2.6-.9,4.9v23.3h-10.6V22.9h9.8v6.1c1.4-2.2,2.9-3.8,4.7-4.9,1.7-1.1,3.7-1.6,5.9-1.6,3,0,5.1.9,6.3,2.6,1.2,1.7,1.8,5.2,1.8,10.3v26.8h-10.6Z"/>
    <path class="cls-1" d="M900.3,62.2h-9.9v-5.8c-1.1,2.2-2.4,3.8-3.8,4.9-1.4,1.1-3,1.6-4.8,1.6-3.6,0-6.4-1.7-8.4-5.2-1.9-3.5-2.9-8.5-2.9-15.1s1-11.4,3-14.9,4.8-5.3,8.4-5.3c1.7,0,3.2.5,4.6,1.6,1.4,1,2.7,2.7,3.9,4.9v-6h9.9v39.3ZM890.3,41.9c0-3.6-.4-6.2-1.2-8-.8-1.7-2.1-2.6-3.8-2.6-1.5,0-2.7.8-3.3,2.5-.7,1.7-1,4.4-1,8.2s.4,6.5,1.2,8.4,1.9,2.8,3.5,2.8c1.7,0,2.9-.9,3.6-2.7.6-1.8,1-4.7,1-8.6Z"/>
    <path class="cls-1" d="M919.9,55.5c0,2-.7,3.7-2,5.1-1.3,1.4-3,2-4.9,2s-3.6-.7-4.9-2c-1.3-1.4-2-3.1-2-5.1s.7-3.7,2-5,3-2,4.9-2,3.6.7,4.9,2c1.4,1.3,2,3,2,5Z"/>
    <path class="cls-1" d="M123.1,169.4v-47.7h-8.7v-10.8h28.9v10.8h-8.7v47.7h-11.5Z"/>
    <path class="cls-1" d="M176.1,130.1v20.4c0,7.9-1,13.1-3,15.7s-5.7,4-11,4-9-1.3-11-3.9-3.1-7.9-3.1-15.8v-20.4h10.3v25.3c0,2.1.3,3.4.8,4.2.5.7,1.5,1.1,2.9,1.1s2.4-.4,2.9-1.1c.6-.7.8-2.1.8-4.1v-25.3h10.4v-.1ZM173.2,109.9l-11.7,14.9h-5.2l7.3-14.9h9.6Z"/>
    <path class="cls-1" d="M198.4,166.1l4.4-8c1.3.9,2.4,1.5,3.4,1.9s1.8.6,2.6.6,1.5-.3,2-.8.8-1.2.8-2c0-1.4-1.3-2.9-3.9-4.6-.7-.4-1.2-.8-1.6-1-2.5-1.7-4.3-3.4-5.3-5.1s-1.5-3.6-1.5-5.8c0-3.7,1.1-6.6,3.4-8.8,2.2-2.2,5.3-3.2,9.1-3.2,1.9,0,3.7.3,5.5.8,1.7.5,3.4,1.4,5,2.5l-4.5,7.8c-1-.9-2-1.5-2.8-2s-1.7-.6-2.4-.6c-.9,0-1.6.2-2.1.7s-.8,1.1-.8,1.9c0,1.1,1.2,2.5,3.6,4,.8.5,1.3.9,1.8,1.2,2.7,1.9,4.6,3.8,5.7,5.5s1.6,3.8,1.6,6.1c0,3.8-1.2,6.9-3.7,9.3-2.4,2.4-5.7,3.6-9.6,3.6-1.9,0-3.8-.3-5.5-1s-3.6-1.7-5.2-3Z"/>
    <path class="cls-1" d="M236.3,152.7v.3c0,2.9.5,5.2,1.5,6.8s2.5,2.4,4.3,2.4c1.2,0,2.2-.4,3.1-1.1.8-.7,1.5-1.9,2.1-3.4h9.1c-.8,3.9-2.6,7-5.2,9.2s-5.8,3.3-9.6,3.3c-4.8,0-8.6-1.8-11.4-5.5s-4.2-8.6-4.2-14.8,1.4-11.3,4.2-15c2.8-3.7,6.6-5.5,11.4-5.5,5.1,0,8.9,1.8,11.5,5.4s3.9,8.9,3.9,16v1.9h-20.7ZM247.6,146.4c-.1-2.9-.6-5-1.5-6.4s-2.3-2.1-4.2-2.1c-1.8,0-3.2.7-4.2,2.2-1,1.4-1.4,3.5-1.4,6.3h11.3Z"/>
    <path class="cls-1" d="M262.4,185.3v-55.2h9.9v6c1.2-2.2,2.5-3.8,3.9-4.9,1.4-1,2.9-1.6,4.6-1.6,3.6,0,6.4,1.8,8.4,5.3s2.9,8.5,2.9,15-1,11.5-2.9,15-4.6,5.3-8.1,5.3c-1.9,0-3.5-.6-5-1.7s-2.7-2.8-3.6-5v21.6h-10.1v.2ZM277.3,138.5c-1.6,0-2.8.8-3.6,2.5-.8,1.7-1.1,4.4-1.1,8.1,0,4.1.4,7,1.1,8.7s1.9,2.6,3.5,2.6,2.7-.9,3.5-2.8,1.1-4.8,1.1-8.7-.4-6.3-1.1-8c-.8-1.5-1.9-2.4-3.4-2.4Z"/>
    <path class="cls-1" d="M326.9,169.4h-9.9v-5.8c-1.1,2.2-2.4,3.8-3.8,4.9s-3,1.6-4.8,1.6c-3.6,0-6.4-1.7-8.4-5.2-1.9-3.5-2.9-8.5-2.9-15.1s1-11.4,3-14.9,4.8-5.3,8.4-5.3c1.7,0,3.2.5,4.6,1.6,1.4,1,2.7,2.7,3.9,4.9v-6h9.9v39.3h0ZM317,149.1c0-3.6-.4-6.2-1.2-8-.8-1.7-2.1-2.6-3.8-2.6-1.5,0-2.7.8-3.3,2.5-.7,1.7-1,4.4-1,8.2s.4,6.5,1.2,8.4c.8,1.9,1.9,2.8,3.5,2.8,1.7,0,2.9-.9,3.6-2.7.6-1.8,1-4.6,1-8.6Z"/>
    <path class="cls-1" d="M334.8,169.4v-39.3h9.8v7c.9-2.6,2-4.5,3.4-5.8s3.2-1.9,5.2-1.9v10.3h-.7c-2.8,0-4.7.7-5.7,2-1,1.4-1.5,4.4-1.5,9.2v18.5h-10.5Z"/>
    <path class="cls-1" d="M386.2,169.4h-9.9v-5.8c-1.1,2.2-2.4,3.8-3.8,4.9s-3,1.6-4.8,1.6c-3.6,0-6.4-1.7-8.4-5.2-1.9-3.5-2.9-8.5-2.9-15.1s1-11.4,3-14.9,4.8-5.3,8.4-5.3c1.7,0,3.2.5,4.6,1.6,1.4,1,2.7,2.7,3.9,4.9v-6h9.9v39.3h0ZM376.2,149.1c0-3.6-.4-6.2-1.2-8-.8-1.7-2.1-2.6-3.8-2.6-1.5,0-2.7.8-3.3,2.5-.7,1.7-1,4.4-1,8.2s.4,6.5,1.2,8.4c.8,1.9,1.9,2.8,3.5,2.8,1.7,0,2.9-.9,3.6-2.7.7-1.8,1-4.6,1-8.6Z"/>
    <path class="cls-1" d="M391.2,166.1l4.4-8c1.3.9,2.4,1.5,3.4,1.9s1.8.6,2.6.6,1.5-.3,2-.8.8-1.2.8-2c0-1.4-1.3-2.9-3.9-4.6-.7-.4-1.2-.8-1.6-1-2.5-1.7-4.3-3.4-5.3-5.1s-1.5-3.6-1.5-5.8c0-3.7,1.1-6.6,3.4-8.8,2.2-2.2,5.3-3.2,9.1-3.2,1.9,0,3.7.3,5.5.8,1.7.5,3.4,1.4,5,2.5l-4.5,7.8c-1-.9-2-1.5-2.8-2s-1.7-.6-2.4-.6c-.9,0-1.6.2-2.1.7s-.8,1.1-.8,1.9c0,1.1,1.2,2.5,3.6,4,.8.5,1.3.9,1.8,1.2,2.7,1.9,4.6,3.8,5.7,5.5,1.1,1.7,1.6,3.8,1.6,6.1,0,3.8-1.2,6.9-3.7,9.3-2.4,2.4-5.7,3.6-9.6,3.6-1.9,0-3.8-.3-5.5-1s-3.5-1.7-5.2-3Z"/>
    <path class="cls-1" d="M417,180.7l6.3-24.3h11.3l-9.7,24.3h-7.9Z"/>
    <path class="cls-1" d="M473.9,169.4v-23.8c0-2.2-.3-3.8-.8-4.6-.5-.8-1.4-1.3-2.7-1.3-1.4,0-2.3.5-2.9,1.5-.6,1-.9,2.6-.9,4.9v23.3h-10.6v-39.3h9.8v6.1c1.4-2.2,2.9-3.8,4.7-4.9,1.7-1.1,3.7-1.6,5.9-1.6,3,0,5.1.9,6.3,2.6s1.8,5.2,1.8,10.3v26.9h-10.6v-.1Z"/>
    <path class="cls-1" d="M521.8,149.7c0,6.3-1.5,11.2-4.4,14.9-2.9,3.7-6.8,5.5-11.6,5.5s-8.7-1.8-11.6-5.5-4.3-8.7-4.3-14.9,1.4-11.2,4.3-14.8c2.9-3.7,6.8-5.5,11.6-5.5s8.8,1.8,11.6,5.5c2.9,3.7,4.4,8.6,4.4,14.8ZM505.8,160.6c1.9,0,3.3-1,4.4-2.9,1-1.9,1.5-4.6,1.5-8.2s-.5-6.2-1.5-8.1-2.5-2.9-4.4-2.9-3.3.9-4.3,2.8-1.5,4.6-1.5,8.1.5,6.3,1.5,8.2c1,2.1,2.4,3,4.3,3Z"/>
    <path class="cls-1" d="M524.6,166.1l4.4-8c1.3.9,2.4,1.5,3.4,1.9s1.8.6,2.6.6,1.5-.3,2-.8.8-1.2.8-2c0-1.4-1.3-2.9-3.9-4.6-.7-.4-1.2-.8-1.6-1-2.5-1.7-4.3-3.4-5.3-5.1s-1.5-3.6-1.5-5.8c0-3.7,1.1-6.6,3.4-8.8,2.2-2.2,5.3-3.2,9.1-3.2,1.9,0,3.7.3,5.5.8,1.7.5,3.4,1.4,5,2.5l-4.5,7.8c-1-.9-2-1.5-2.8-2s-1.7-.6-2.4-.6c-.9,0-1.6.2-2.1.7s-.8,1.1-.8,1.9c0,1.1,1.2,2.5,3.6,4,.8.5,1.3.9,1.8,1.2,2.7,1.9,4.6,3.8,5.7,5.5,1.1,1.7,1.6,3.8,1.6,6.1,0,3.8-1.2,6.9-3.7,9.3-2.4,2.4-5.7,3.6-9.6,3.6-1.9,0-3.8-.3-5.5-1s-3.6-1.7-5.2-3Z"/>
    <path class="cls-1" d="M584.1,149.7c0,6.3-1.5,11.2-4.4,14.9-2.9,3.7-6.8,5.5-11.6,5.5s-8.7-1.8-11.6-5.5-4.3-8.7-4.3-14.9,1.4-11.2,4.3-14.8c2.9-3.7,6.8-5.5,11.6-5.5s8.8,1.8,11.6,5.5c3,3.7,4.4,8.6,4.4,14.8ZM568.1,160.6c1.9,0,3.3-1,4.4-2.9,1-1.9,1.5-4.6,1.5-8.2s-.5-6.2-1.5-8.1-2.5-2.9-4.4-2.9-3.3.9-4.3,2.8-1.5,4.6-1.5,8.1.5,6.3,1.5,8.2c1,2.1,2.5,3,4.3,3Z"/>
    <path class="cls-1" d="M590.8,169.4v-30.9h-4.2v-8.5h4.2v-11.3h10.6v11.3h4.2v8.5h-4.2v30.9h-10.6Z"/>
    <path class="cls-1" d="M610.3,169.4v-39.3h9.8v7c.9-2.6,2-4.5,3.4-5.8s3.2-1.9,5.2-1.9v10.3h-.7c-2.8,0-4.7.7-5.7,2-1,1.4-1.5,4.4-1.5,9.2v18.5h-10.5Z"/>
    <path class="cls-1" d="M663.2,149.7c0,6.3-1.5,11.2-4.4,14.9-2.9,3.7-6.8,5.5-11.6,5.5s-8.7-1.8-11.6-5.5-4.3-8.7-4.3-14.9,1.4-11.2,4.3-14.8c2.9-3.7,6.8-5.5,11.6-5.5s8.8,1.8,11.6,5.5c2.9,3.7,4.4,8.6,4.4,14.8ZM647.2,160.6c1.9,0,3.3-1,4.4-2.9,1-1.9,1.5-4.6,1.5-8.2s-.5-6.2-1.5-8.1-2.5-2.9-4.4-2.9-3.3.9-4.3,2.8-1.5,4.6-1.5,8.1.5,6.3,1.5,8.2c1,2.1,2.4,3,4.3,3Z"/>
    <path class="cls-1" d="M666,166.1l4.4-8c1.3.9,2.4,1.5,3.4,1.9s1.8.6,2.6.6,1.5-.3,2-.8.8-1.2.8-2c0-1.4-1.3-2.9-3.9-4.6-.7-.4-1.2-.8-1.6-1-2.5-1.7-4.3-3.4-5.3-5.1s-1.5-3.6-1.5-5.8c0-3.7,1.1-6.6,3.4-8.8,2.2-2.2,5.3-3.2,9.1-3.2,1.9,0,3.7.3,5.5.8,1.7.5,3.4,1.4,5,2.5l-4.5,7.8c-1-.9-2-1.5-2.8-2s-1.7-.6-2.4-.6c-.9,0-1.6.2-2.1.7s-.8,1.1-.8,1.9c0,1.1,1.2,2.5,3.6,4,.8.5,1.3.9,1.8,1.2,2.7,1.9,4.6,3.8,5.7,5.5,1.1,1.7,1.6,3.8,1.6,6.1,0,3.8-1.2,6.9-3.7,9.3-2.4,2.4-5.7,3.6-9.6,3.6-1.9,0-3.8-.3-5.5-1s-3.6-1.7-5.2-3Z"/>
    <path class="cls-1" d="M731,169.4v-23.8c0-2.2-.3-3.8-.8-4.6-.5-.8-1.4-1.3-2.7-1.3-1.4,0-2.3.5-2.9,1.5-.6,1-.9,2.6-.9,4.9v23.3h-10.6v-39.3h9.8v6.1c1.4-2.2,2.9-3.8,4.7-4.9,1.7-1.1,3.7-1.6,5.9-1.6,3,0,5.1.9,6.3,2.6s1.8,5.2,1.8,10.3v26.9h-10.6v-.1Z"/>
    <path class="cls-1" d="M778.9,149.7c0,6.3-1.5,11.2-4.4,14.9-2.9,3.7-6.8,5.5-11.6,5.5s-8.7-1.8-11.6-5.5-4.3-8.7-4.3-14.9,1.4-11.2,4.3-14.8c2.9-3.7,6.8-5.5,11.6-5.5s8.8,1.8,11.6,5.5c3,3.7,4.4,8.6,4.4,14.8ZM762.9,160.6c1.9,0,3.3-1,4.4-2.9,1-1.9,1.5-4.6,1.5-8.2s-.5-6.2-1.5-8.1-2.5-2.9-4.4-2.9-3.3.9-4.3,2.8-1.5,4.6-1.5,8.1.5,6.3,1.5,8.2c1,2.1,2.4,3,4.3,3Z"/>
    <path class="cls-1" d="M781.7,166.1l4.4-8c1.3.9,2.4,1.5,3.4,1.9s1.8.6,2.6.6,1.5-.3,2-.8.8-1.2.8-2c0-1.4-1.3-2.9-3.9-4.6-.7-.4-1.2-.8-1.6-1-2.5-1.7-4.3-3.4-5.3-5.1s-1.5-3.6-1.5-5.8c0-3.7,1.1-6.6,3.4-8.8,2.2-2.2,5.3-3.2,9.1-3.2,1.9,0,3.7.3,5.5.8,1.7.5,3.4,1.4,5,2.5l-4.5,7.8c-1-.9-2-1.5-2.8-2s-1.7-.6-2.4-.6c-.9,0-1.6.2-2.1.7s-.8,1.1-.8,1.9c0,1.1,1.2,2.5,3.6,4,.8.5,1.3.9,1.8,1.2,2.7,1.9,4.6,3.8,5.7,5.5,1.1,1.7,1.6,3.8,1.6,6.1,0,3.8-1.2,6.9-3.7,9.3-2.4,2.4-5.7,3.6-9.6,3.6-1.9,0-3.8-.3-5.5-1s-3.6-1.7-5.2-3Z"/>
    <path class="cls-1" d="M160.2,259.9v.3c0,2.9.5,5.2,1.5,6.8s2.5,2.4,4.3,2.4c1.2,0,2.2-.4,3.1-1.1.8-.7,1.5-1.9,2.1-3.4h9.1c-.8,3.9-2.6,7-5.2,9.2s-5.8,3.3-9.6,3.3c-4.8,0-8.6-1.8-11.4-5.5s-4.2-8.6-4.2-14.8,1.4-11.3,4.2-15c2.8-3.7,6.6-5.5,11.4-5.5,5.1,0,8.9,1.8,11.5,5.4s3.9,8.9,3.9,16v1.9h-20.7ZM171.5,253.7c-.1-2.9-.6-5-1.5-6.4s-2.3-2.1-4.2-2.1c-1.8,0-3.2.7-4.2,2.2-1,1.4-1.4,3.5-1.4,6.3h11.3Z"/>
    <path class="cls-1" d="M204,276.7v-23.8c0-2.2-.3-3.8-.8-4.6-.5-.8-1.4-1.3-2.7-1.3-1.4,0-2.3.5-2.9,1.5s-.9,2.6-.9,4.9v23.3h-10.6v-39.3h9.8v6.1c1.4-2.2,2.9-3.8,4.7-4.9,1.7-1.1,3.7-1.6,5.9-1.6,3,0,5.1.9,6.3,2.6,1.2,1.7,1.8,5.2,1.8,10.3v26.9h-10.6v-.1Z"/>
    <path class="cls-1" d="M242.1,248.5c-.8-.6-1.6-1.1-2.4-1.4s-1.6-.4-2.3-.4c-2,0-3.6.9-4.8,2.7-1.2,1.8-1.8,4.2-1.8,7.3s.6,5.7,1.8,7.5,2.9,2.6,5.1,2.6c.8,0,1.6-.2,2.3-.5.7-.3,1.4-.8,2.1-1.5v10.3c-1.1.8-2.2,1.3-3.5,1.7-1.2.4-2.5.6-3.8.6-4.5,0-8-1.8-10.7-5.5-2.6-3.7-4-8.6-4-15s1.3-11.2,4-14.8c2.7-3.7,6.2-5.5,10.7-5.5,1.3,0,2.5.1,3.7.4s2.4.6,3.6,1.1v10.4h0Z"/>
    <path class="cls-1" d="M275.8,276.7h-9.9v-5.8c-1.1,2.2-2.4,3.8-3.8,4.9s-3,1.6-4.8,1.6c-3.6,0-6.4-1.7-8.4-5.2-1.9-3.5-2.9-8.5-2.9-15.1s1-11.4,3-14.9,4.8-5.3,8.4-5.3c1.7,0,3.2.5,4.6,1.6,1.4,1,2.7,2.7,3.9,4.9v-6h9.9v39.3h0ZM265.9,256.4c0-3.6-.4-6.2-1.2-8-.8-1.7-2.1-2.6-3.8-2.6-1.5,0-2.7.8-3.3,2.5-.7,1.7-1,4.4-1,8.2s.4,6.5,1.2,8.4c.8,1.9,1.9,2.8,3.5,2.8,1.7,0,2.9-.9,3.6-2.7.6-1.8,1-4.7,1-8.6Z"/>
    <path class="cls-1" d="M283.7,276.7v-39.3h9.8v7c.9-2.6,2-4.5,3.4-5.8s3.2-1.9,5.2-1.9v10.3h-.7c-2.8,0-4.7.7-5.7,2-1,1.4-1.5,4.4-1.5,9.2v18.5h-10.5Z"/>
    <path class="cls-1" d="M324.8,237.3h10.2v36.4c0,8.4-1.1,14-3.3,16.9-2.2,2.8-6.1,4.3-11.8,4.3-4.5,0-8-1.2-10.4-3.6-2.5-2.4-3.7-5.7-3.7-10v-.6h9c0,1.9.4,3.3,1.3,4.3.8.9,2.1,1.4,3.8,1.4,1.8,0,3.1-.5,3.8-1.5.7-1,1.1-2.7,1.1-5.2v-8.1c-1.2,1.8-2.5,3.2-3.9,4.2-1.4.9-2.9,1.4-4.4,1.4-3.6,0-6.4-1.7-8.4-5.2-1.9-3.4-2.9-8.4-2.9-15s1-11.3,3-14.8,4.8-5.2,8.4-5.2c1.7,0,3.3.5,4.6,1.6,1.4,1.1,2.6,2.7,3.6,4.8v-6.1h0ZM324.8,256.4c0-3.8-.4-6.6-1.1-8.2s-1.9-2.5-3.6-2.5c-1.5,0-2.7.8-3.3,2.5-.7,1.7-1,4.4-1,8.2s.4,6.6,1.2,8.5c.8,1.9,1.9,2.8,3.5,2.8s2.7-.9,3.4-2.6c.6-1.7.9-4.6.9-8.7Z"/>
    <path class="cls-1" d="M371.3,276.7h-9.9v-5.8c-1.1,2.2-2.4,3.8-3.8,4.9s-3,1.6-4.8,1.6c-3.6,0-6.4-1.7-8.4-5.2-1.9-3.5-2.9-8.5-2.9-15.1s1-11.4,3-14.9,4.8-5.3,8.4-5.3c1.7,0,3.2.5,4.6,1.6,1.4,1,2.7,2.7,3.9,4.9v-6h9.9v39.3h0ZM361.4,256.4c0-3.6-.4-6.2-1.2-8-.8-1.7-2.1-2.6-3.8-2.6-1.5,0-2.7.8-3.3,2.5-.7,1.7-1,4.4-1,8.2s.4,6.5,1.2,8.4c.8,1.9,1.9,2.8,3.5,2.8,1.7,0,2.9-.9,3.6-2.7.6-1.8,1-4.7,1-8.6Z"/>
    <path class="cls-1" d="M379.2,276.7v-39.3h9.8v6.1c1.3-2.2,2.8-3.8,4.5-4.9,1.7-1.1,3.5-1.6,5.6-1.6s3.8.5,5.1,1.6,2.2,2.7,2.6,4.9c1.5-2.2,3-3.9,4.7-4.9s3.4-1.6,5.3-1.6c2.8,0,4.7,1,5.8,3s1.7,6.1,1.7,12.2v24.5h-10.4v-23.8c0-2.2-.2-3.8-.7-4.6-.5-.9-1.3-1.3-2.4-1.3-1.4,0-2.4.5-3,1.4s-.9,2.6-.9,5v23.3h-10.3v-23.8c0-2.2-.2-3.7-.7-4.6s-1.3-1.4-2.4-1.4c-1.4,0-2.4.5-3,1.5s-.9,2.6-.9,5v23.3h-10.4Z"/>
    <path class="cls-1" d="M461.6,257c0,6.3-1.5,11.2-4.4,14.9-2.9,3.7-6.8,5.5-11.6,5.5s-8.7-1.8-11.6-5.5-4.3-8.7-4.3-14.9,1.4-11.2,4.3-14.8c2.9-3.7,6.8-5.5,11.6-5.5s8.8,1.8,11.6,5.5c3,3.6,4.4,8.6,4.4,14.8ZM445.6,267.9c1.9,0,3.3-1,4.4-2.9,1-1.9,1.5-4.6,1.5-8.2s-.5-6.2-1.5-8.1-2.5-2.9-4.4-2.9-3.3.9-4.3,2.8-1.5,4.6-1.5,8.1.5,6.3,1.5,8.2c1,2.1,2.5,3,4.3,3Z"/>
    <path class="cls-1" d="M464.4,273.3l4.4-8c1.3.9,2.4,1.5,3.4,1.9s1.8.6,2.6.6,1.5-.3,2-.8.8-1.2.8-2c0-1.4-1.3-2.9-3.9-4.6-.7-.4-1.2-.8-1.6-1-2.5-1.7-4.3-3.4-5.3-5.1s-1.5-3.6-1.5-5.8c0-3.7,1.1-6.6,3.4-8.8,2.2-2.2,5.3-3.2,9.1-3.2,1.9,0,3.7.3,5.5.8,1.7.5,3.4,1.4,5,2.5l-4.5,7.8c-1-.9-2-1.5-2.8-2s-1.7-.6-2.4-.6c-.9,0-1.6.2-2.1.7s-.8,1.1-.8,1.9c0,1.1,1.2,2.5,3.6,4,.8.5,1.3.9,1.8,1.2,2.7,1.9,4.6,3.8,5.7,5.5,1.1,1.7,1.6,3.8,1.6,6.1,0,3.8-1.2,6.9-3.7,9.3-2.4,2.4-5.7,3.6-9.6,3.6-1.9,0-3.8-.3-5.5-1s-3.6-1.6-5.2-3Z"/>
    <path class="cls-1" d="M540,276.7h-10.2v-5.7c-1,2.2-2.2,3.8-3.7,4.9-1.4,1.1-3.1,1.6-4.9,1.6-3.5,0-6.2-1.8-8.2-5.3-1.9-3.5-2.9-8.6-2.9-15.1s1-11.4,3-14.9,4.8-5.2,8.4-5.2c1.6,0,3.1.5,4.5,1.5s2.6,2.5,3.7,4.5v-28.4h10.2v62.1h.1ZM529.8,256.4c0-3.8-.4-6.5-1.1-8.2-.7-1.7-1.9-2.5-3.6-2.5-1.5,0-2.7.8-3.3,2.5-.7,1.7-1,4.4-1,8.2s.4,6.6,1.2,8.5,1.9,2.8,3.5,2.8,2.7-.9,3.4-2.6c.6-1.7.9-4.6.9-8.7Z"/>
    <path class="cls-1" d="M556.2,259.9v.3c0,2.9.5,5.2,1.5,6.8s2.5,2.4,4.3,2.4c1.2,0,2.2-.4,3.1-1.1.8-.7,1.5-1.9,2.1-3.4h9.1c-.8,3.9-2.6,7-5.2,9.2-2.6,2.2-5.8,3.3-9.6,3.3-4.8,0-8.6-1.8-11.4-5.5-2.8-3.7-4.2-8.6-4.2-14.8s1.4-11.3,4.2-15,6.6-5.5,11.4-5.5c5.1,0,8.9,1.8,11.5,5.4s3.9,8.9,3.9,16v1.9h-20.7ZM567.5,253.7c-.1-2.9-.6-5-1.5-6.4s-2.3-2.1-4.2-2.1c-1.8,0-3.2.7-4.2,2.2-1,1.4-1.4,3.5-1.4,6.3h11.3Z"/>
    <path class="cls-1" d="M582.5,276.7v-62.2h10.6v62.2h-10.6Z"/>
    <path class="cls-1" d="M618.8,276.7v-39.3h9.8v7c.9-2.6,2-4.5,3.4-5.8s3.2-1.9,5.2-1.9v10.3h-.7c-2.8,0-4.7.7-5.7,2-1,1.4-1.5,4.4-1.5,9.2v18.5h-10.5Z"/>
    <path class="cls-1" d="M650,259.9v.3c0,2.9.5,5.2,1.5,6.8s2.5,2.4,4.3,2.4c1.2,0,2.2-.4,3.1-1.1.8-.7,1.5-1.9,2.1-3.4h9.1c-.8,3.9-2.6,7-5.2,9.2-2.6,2.2-5.8,3.3-9.6,3.3-4.8,0-8.6-1.8-11.4-5.5-2.8-3.7-4.2-8.6-4.2-14.8s1.4-11.3,4.2-15,6.6-5.5,11.4-5.5c5.1,0,8.9,1.8,11.5,5.4s3.9,8.9,3.9,16v1.9h-20.7ZM661.3,253.7c-.1-2.9-.6-5-1.5-6.4s-2.3-2.1-4.2-2.1c-1.8,0-3.2.7-4.2,2.2-1,1.4-1.4,3.5-1.4,6.3h11.3Z"/>
    <path class="cls-1" d="M673.2,273.3l4.4-8c1.3.9,2.4,1.5,3.4,1.9s1.8.6,2.6.6,1.5-.3,2-.8.8-1.2.8-2c0-1.4-1.3-2.9-3.9-4.6-.7-.4-1.2-.8-1.6-1-2.5-1.7-4.3-3.4-5.3-5.1s-1.5-3.6-1.5-5.8c0-3.7,1.1-6.6,3.4-8.8,2.2-2.2,5.3-3.2,9.1-3.2,1.9,0,3.7.3,5.5.8,1.7.5,3.4,1.4,5,2.5l-4.5,7.8c-1-.9-2-1.5-2.8-2s-1.7-.6-2.4-.6c-.9,0-1.6.2-2.1.7s-.8,1.1-.8,1.9c0,1.1,1.2,2.5,3.6,4,.8.5,1.3.9,1.8,1.2,2.7,1.9,4.6,3.8,5.7,5.5,1.1,1.7,1.6,3.8,1.6,6.1,0,3.8-1.2,6.9-3.7,9.3-2.4,2.4-5.7,3.6-9.6,3.6-1.9,0-3.8-.3-5.5-1s-3.6-1.6-5.2-3Z"/>
    <path class="cls-1" d="M703.9,276.7v-30.9h-4.2v-8.5h4.2v-11.3h10.6v11.3h4.2v8.5h-4.2v30.9h-10.6Z"/>
    <path class="cls-1" d="M753.2,257c0,6.3-1.5,11.2-4.4,14.9-2.9,3.7-6.8,5.5-11.6,5.5s-8.7-1.8-11.6-5.5-4.3-8.7-4.3-14.9,1.4-11.2,4.3-14.8c2.9-3.7,6.8-5.5,11.6-5.5s8.8,1.8,11.6,5.5c3,3.6,4.4,8.6,4.4,14.8ZM737.3,267.9c1.9,0,3.3-1,4.4-2.9,1-1.9,1.5-4.6,1.5-8.2s-.5-6.2-1.5-8.1-2.5-2.9-4.4-2.9-3.3.9-4.3,2.8-1.5,4.6-1.5,8.1.5,6.3,1.5,8.2c.9,2.1,2.4,3,4.3,3Z"/>
    <path class="cls-1" d="M770.7,270c0,2-.7,3.7-2,5.1s-3,2-4.9,2-3.6-.7-4.9-2c-1.3-1.4-2-3.1-2-5.1s.7-3.7,2-5,3-2,4.9-2,3.6.7,4.9,2c1.3,1.3,2,3,2,5Z"/>
  </g>
</svg>